<svg width="290" height="130" viewBox="0 0 290 130" fill="none" xmlns="http://www.w3.org/2000/svg">
<path fill-rule="evenodd" clip-rule="evenodd" d="M257.816 0C256.819 0 256.011 0.808115 256.011 1.80498V31.4665C256.011 32.4633 255.203 33.2714 254.206 33.2714H244.875C243.879 33.2714 243.07 34.0796 243.07 35.0764V45.1655C243.07 46.1624 243.879 46.9705 244.875 46.9705H254.201C255.2 46.9705 256.009 47.7815 256.006 48.7802L255.863 104.087H255.705V113.112H255.705H246.925C248.509 116.483 249.394 120.248 249.394 124.219C249.394 126.459 249.113 128.13 248.583 129.357L268.942 129.357C269.938 129.357 270.747 128.549 270.747 127.552L270.747 120.332V107.113C270.818 106.918 270.856 106.708 270.856 106.488L270.681 48.781C270.678 47.782 271.487 46.9705 272.486 46.9705H288.195C289.192 46.9705 290 46.1624 290 45.1656V35.0764C290 34.0796 289.192 33.2714 288.195 33.2714H272.48C271.483 33.2714 270.675 32.4633 270.675 31.4665V1.80498C270.675 0.808117 269.867 0 268.87 0H257.816ZM197.908 129.357C197.378 128.13 197.097 126.459 197.097 124.219C197.097 120.248 197.982 116.483 199.566 113.112H16.2443V34.1557C18.1733 37.8447 20.2185 41.6629 22.2788 45.5092L22.2788 45.5092L22.2789 45.5093C26.8043 53.9577 31.4022 62.5416 34.9998 70.1878C40.4646 81.8029 46.2931 93.5399 52.4853 105.399C53.1632 106.697 55.0222 106.684 55.6839 105.378C61.6917 93.5171 67.5042 81.7847 73.1214 70.1804C78.1753 59.7398 83.3872 49.199 88.7572 38.5579C87.452 36.4335 86.2835 34.186 85.2734 31.8874H77.135C76.4549 31.8874 75.832 32.2705 75.5249 32.8773C71.6026 40.6253 68.4552 46.9792 66.0825 51.9389C63.6096 57.1082 61.6507 61.4308 60.2056 64.9068C58.7656 68.3679 57.6135 71.2803 56.7495 73.644C56.4564 74.4458 56.1598 75.2509 55.8598 76.059C55.2685 77.6522 53.0031 77.604 52.4553 75.9954C52.1868 75.2069 51.9174 74.4231 51.6473 73.644C50.8329 71.2952 49.6808 68.3828 48.1911 64.9068C46.6716 61.4358 44.6854 57.1131 42.2323 51.9389C42.0218 51.4948 41.8062 51.0397 41.5854 50.5735L41.5852 50.5731C39.3228 45.7961 36.5085 39.8542 32.9203 32.7471C32.8742 32.6558 32.8209 32.5694 32.7611 32.4886L32.79 32.4897L22.5016 18.7718C21.0244 16.8023 18.7062 15.6432 16.2443 15.6432H1.80449C0.807628 15.6432 -0.000488281 16.4513 -0.000488281 17.4482V120.332H-0.000305176V127.552V127.552C-0.000305176 128.549 0.807812 129.357 1.80467 129.357H14.4395L14.4563 129.357L16.2443 129.357H32.4891H48.7341H64.9789H81.2238H97.4686H113.714H129.958H146.203H162.448H178.693H194.937H197.908ZM230.692 99.146C228.332 98.4462 225.833 98.0706 223.246 98.0706C220.73 98.0706 218.298 98.4257 215.996 99.0886V33.752C215.996 32.7551 216.804 31.947 217.801 31.947H228.887C229.884 31.947 230.692 32.7551 230.692 33.752V99.146ZM102.282 102.393V51.8479C104.597 52.9375 107.027 53.5476 109.532 53.5476C112.108 53.5476 114.604 52.9024 116.978 51.754V102.393C116.978 103.39 116.17 104.198 115.173 104.198H104.087C103.09 104.198 102.282 103.39 102.282 102.393ZM133.805 32.3937V31.8523C134.803 29.5764 135.646 27.2508 136.313 24.9452H145.318C146.315 24.9452 147.123 25.7533 147.123 26.7502V27.1798C147.123 29.1387 147.577 30.4124 148.501 30.986C149.425 31.5595 150.922 31.85 152.97 31.85H195.693C197.152 31.85 198.008 33.4903 197.174 34.687L160.854 86.8063C160.02 88.003 160.876 89.6433 162.335 89.6433H196.847C197.844 89.6433 198.652 90.4514 198.652 91.4482V102.356C198.652 103.352 197.844 104.16 196.847 104.16H133.974C132.516 104.16 131.66 102.522 132.492 101.325L170.044 47.3257C170.876 46.1289 170.02 44.4902 168.562 44.4902H147.808C143.776 44.4902 140.434 43.3952 137.783 41.2054C136.482 40.1451 135.446 38.7972 134.756 37.268C134.066 35.7388 133.74 34.0702 133.805 32.3937Z" fill="#FDF2EC"/>
<path fill-rule="evenodd" clip-rule="evenodd" d="M109.532 36.7607C116.194 36.7607 121.595 26.5467 121.595 19.8845C121.595 15.5839 117.934 17.8261 114.457 19.956C112.548 21.1257 110.694 22.2614 109.532 22.2615C108.369 22.2615 106.515 21.1257 104.606 19.956C101.129 17.8261 97.4688 15.584 97.4688 19.8845C97.4688 26.5467 102.87 36.7607 109.532 36.7607ZM229.049 127.196C232.78 127.991 235.308 128.53 235.308 123.972C235.308 117.31 229.907 111.909 223.245 111.909C216.583 111.909 211.182 117.31 211.182 123.972C211.182 128.53 213.71 127.991 217.441 127.196C219.163 126.83 221.141 126.408 223.245 126.408C225.349 126.408 227.327 126.83 229.049 127.196Z" fill="#DBFC5A"/>
</svg>
