<?xml version="1.0" standalone="no"?>
  <!DOCTYPE svg PUBLIC "-//W3C//DTD SVG 1.1//EN" "http://www.w3.org/Graphics/SVG/1.1/DTD/svg11.dtd" >
  <svg>
  <metadata>
  Created by font-carrier
  </metadata>
  <defs>
  <font id="DINPro-CondensedBold" horiz-adv-x="1155" vert-adv-y="1155" >
    <font-face
      
      font-family="DIN Pro Cond Bold"
      
      font-weight="400"
      
      font-stretch="normal"
      
      units-per-em="1000"
      
      ascent="962"
      
      descent="-194"
      
    />
      <missing-glyph />

      

      
      <glyph glyph-name="uni21" unicode="&#x21;" d="M193 200L87 200L87 712L193 712L193 200M202 0L78 0L78 123L202 123L202 0Z"  horiz-adv-x="257" vert-adv-y="1000"  />

      
      <glyph glyph-name="uni22" unicode="&#x22;" d="M174 511L72 511L72 712L174 712L174 511M364 511L263 511L263 712L364 712L364 511Z"  horiz-adv-x="437" vert-adv-y="1000"  />

      
      <glyph glyph-name="uni23" unicode="&#x23;" d="M561 428L477 428L459 301L530 301L530 201L443 201L414 0L303 0L332 201L225 201L196 0L86 0L115 201L47 201L47 301L131 301L149 428L78 428L78 529L165 529L191 712L302 712L275 529L382 529L409 712L519 712L493 529L561 529L561 428M367 428L260 428L241 301L348 301L367 428Z"  horiz-adv-x="608" vert-adv-y="1000"  />

      
      <glyph glyph-name="uni24" unicode="&#x24;" d="M407 197Q407 85 361 40Q329 8 273-2L273-114L174-114L174-3Q117 6 83 40Q38 85 38 193L150 193Q150 136 170 113Q187 94 222 94Q258 94 275 114Q295 137 295 193Q295 250 282.50 271.50Q270 293 228 310L143 345Q88 368 66 405.50Q44 443 44 524Q44 623 102 675Q133 703 174 712L174 806L273 806L273 713Q321 704 352 675Q402 626 402 520L290 520Q290 574 273 596Q257 617 223 617Q193 617 175 597Q156 575 156 527Q156 483 167 464.50Q178 446 215 431L299 397Q363 371 385 329.50Q407 288 407 197Z"  horiz-adv-x="449" vert-adv-y="1000"  />

      
      <glyph glyph-name="uni25" unicode="&#x25;" d="M685 112Q685 55 648.50 23.50Q612-8 558-8Q504-8 467.50 23.50Q431 55 431 112L431 245Q431 302 467.50 333.50Q504 365 558 365Q612 365 648.50 333.50Q685 302 685 245L685 112M301 467Q301 410 264.50 378.50Q228 347 174 347Q120 347 83.50 378.50Q47 410 47 467L47 600Q47 657 83.50 688.50Q120 720 174 720Q228 720 264.50 688.50Q301 657 301 600L301 467M532 712L284 0L202 0L450 712L532 712M214 469L214 598Q214 643 174 643Q133 643 133 598L133 469Q133 424 174 424Q214 424 214 469M598 114L598 243Q598 288 558 288Q518 288 518 243L518 114Q518 69 558 69Q598 69 598 114Z"  horiz-adv-x="732" vert-adv-y="1000"  />

      
      <glyph glyph-name="uni26" unicode="&#x26;" d="M497 0L386 0L347 63Q284-8 201-8Q127-8 80.50 41.50Q34 91 34 175Q34 282 140 390Q101 442 83 480Q65 518 65 560Q65 636 105 677.50Q145 719 207 719Q277 719 314 677.50Q351 636 351 570Q351 511 328.50 466.50Q306 422 260 374L345 243Q369 294 374 374L465 374Q460 249 404 149L497 0M295 144L192 304Q133 244 133 182Q133 140 154.50 113.50Q176 87 210 87Q255 87 295 144M256 568Q256 593 242.50 608.50Q229 624 208 624Q186 624 173 608Q160 592 160 564Q160 522 207 459Q233 488 244.50 511Q256 534 256 568Z"  horiz-adv-x="499" vert-adv-y="1000"  />

      
      <glyph glyph-name="uni27" unicode="&#x27;" d="M174 511L72 511L72 712L174 712L174 511Z"  horiz-adv-x="247" vert-adv-y="1000"  />

      
      <glyph glyph-name="uni28" unicode="&#x28;" d="M224-23L153-94Q92-33 72 2Q48 44 48 120L48 592Q48 668 72 710Q93 746 153 806L224 735Q182 693 168 668Q154 643 154 586L154 126Q154 69 168 44Q182 19 224-23Z"  horiz-adv-x="265" vert-adv-y="1000"  />

      
      <glyph glyph-name="uni29" unicode="&#x29;" d="M218 120Q218 46 193 2Q176-29 113-94L41-23Q83 19 97 44Q112 71 112 126L112 586Q112 639 97 668Q84 692 41 735L113 806Q176 741 193 710Q218 666 218 592L218 120Z"  horiz-adv-x="265" vert-adv-y="1000"  />

      
      <glyph glyph-name="uni2a" unicode="&#x2a;" d="M374 479L336 414L243 472L247 346L170 346L174 472L80 414L43 479L141 530L43 581L80 647L174 588L170 714L247 714L243 588L336 647L374 581L276 530L374 479Z"  horiz-adv-x="417" vert-adv-y="1000"  />

      
      <glyph glyph-name="uni2b" unicode="&#x2b;" d="M413 238L279 238L279 104L178 104L178 238L44 238L44 339L178 339L178 473L279 473L279 339L413 339L413 238Z"  horiz-adv-x="457" vert-adv-y="1000"  />

      
      <glyph glyph-name="uni2c" unicode="&#x2c;" d="M172-65L57-150L57 124L172 124L172-65Z"  horiz-adv-x="229" vert-adv-y="1000"  />

      
      <glyph glyph-name="uni2d" unicode="&#x2d;" d="M249 238L47 238L47 339L249 339L249 238Z"  horiz-adv-x="295" vert-adv-y="1000"  />

      
      <glyph glyph-name="uni2e" unicode="&#x2e;" d="M179 0L56 0L56 123L179 123L179 0Z"  horiz-adv-x="234" vert-adv-y="1000"  />

      
      <glyph glyph-name="uni2f" unicode="&#x2f;" d="M291 786L106-74L6-74L191 786L291 786Z"  horiz-adv-x="298" vert-adv-y="1000"  />

      
      <glyph glyph-name="uni30" unicode="&#x30;" d="M359 152Q359 77 314 34Q270-8 201-8Q131-8 87 34Q42 77 42 152L42 560Q42 635 87 678Q131 720 201 720Q270 720 314 678Q359 635 359 560L359 152M253 148L253 564Q253 594 238.50 609.50Q224 625 201 625Q178 625 163 609Q148 593 148 564L148 148Q148 119 163 103Q178 87 201 87Q224 87 238.50 102.50Q253 118 253 148Z"  horiz-adv-x="401" vert-adv-y="1000"  />

      
      <glyph glyph-name="uni31" unicode="&#x31;" d="M283 0L177 0L177 588L70 506L70 626L177 712L283 712L283 0Z"  horiz-adv-x="401" vert-adv-y="1000"  />

      
      <glyph glyph-name="uni32" unicode="&#x32;" d="M360 0L47 0L47 90L225 436Q254 490 254 563Q254 593 240 609Q226 625 203 625Q180 625 165 609Q150 593 150 564L150 518L44 518L44 560Q44 636 88 678Q132 720 203 720Q272 720 313 682Q360 638 360 559Q360 478 321 403L160 95L360 95L360 0Z"  horiz-adv-x="401" vert-adv-y="1000"  />

      
      <glyph glyph-name="uni33" unicode="&#x33;" d="M361 203Q361 133 352.50 97.50Q344 62 314 33Q270-8 200-8Q127-8 85 34Q41 76 41 152L41 194L147 194L147 148Q147 118 161.50 102.50Q176 87 200 87Q224 87 237 104Q255 125 255 203Q255 294 239 314Q226 332 199 332L164 332L164 421L199 421Q221 421 233 435Q249 454 249 525Q249 591 235 609Q222 625 200 625Q178 625 165 610.50Q152 596 152 568L152 518L46 518L46 561Q46 635 90 679Q131 720 200 720Q269 720 309 680Q355 635 355 532Q355 454 337 419Q322 391 298 377Q328 356 339 334Q361 297 361 203Z"  horiz-adv-x="401" vert-adv-y="1000"  />

      
      <glyph glyph-name="uni34" unicode="&#x34;" d="M377 111L328 111L328 0L222 0L222 111L24 111L24 206L207 712L310 712L133 206L222 206L222 333L328 333L328 206L377 206L377 111Z"  horiz-adv-x="401" vert-adv-y="1000"  />

      
      <glyph glyph-name="uni35" unicode="&#x35;" d="M362 231Q362 151 354 110Q346 69 314 36Q272-8 201-8Q130-8 87 33Q42 75 42 152L42 187L148 187L148 150Q148 119 162.50 103Q177 87 201 87Q225 87 239 105Q256 128 256 231Q256 334 242 356Q227 378 201 378Q178 378 163 362Q148 346 148 317L148 302L47 302L47 712L354 712L354 617L144 617L144 426Q158 446 181 460Q203 473 232 473Q294 473 328 430Q347 407 354.50 365Q362 323 362 231Z"  horiz-adv-x="401" vert-adv-y="1000"  />

      
      <glyph glyph-name="uni36" unicode="&#x36;" d="M361 216Q361 98 327 49Q287-8 200-8Q115-8 75 49Q55 79 47.50 115Q40 151 40 216Q40 310 69 384L194 712L304 712L187 424Q203 436 231 436Q291 436 325 392Q345 366 353 329.50Q361 293 361 216M239 105Q255 125 255 218Q255 311 239 331Q225 349 201 349Q176 349 162 331Q146 311 146 218Q146 125 162 105Q176 87 201 87Q225 87 239 105Z"  horiz-adv-x="401" vert-adv-y="1000"  />

      
      <glyph glyph-name="uni37" unicode="&#x37;" d="M365 624L178 0L72 0L259 617L135 617L135 522L33 522L33 712L365 712L365 624Z"  horiz-adv-x="401" vert-adv-y="1000"  />

      
      <glyph glyph-name="uni38" unicode="&#x38;" d="M361 201Q361 136 352 99.50Q343 63 314 34Q272-8 201-8Q131-8 87 34Q58 63 49 99.50Q40 136 40 201Q40 289 61 327Q75 351 103 372Q77 392 64 416Q45 455 45 527Q45 633 91 679Q132 720 200 720Q270 720 310 679Q356 633 356 527Q356 455 337 416Q324 392 298 372Q326 351 340 327Q361 289 361 201M255 207Q255 290 239 311Q225 328 201 328Q176 328 162 311Q146 290 146 207Q146 125 162 104Q176 87 201 87Q225 87 239 104Q255 125 255 207M233 429Q250 447 250 521Q250 595 233 613Q221 625 201 625Q180 625 168 613Q151 595 151 521Q151 448 169 429Q181 417 201 417Q221 417 233 429Z"  horiz-adv-x="401" vert-adv-y="1000"  />

      
      <glyph glyph-name="uni39" unicode="&#x39;" d="M361 496Q361 402 332 328L207 0L97 0L214 288Q198 276 171 276Q111 276 76 320Q56 346 48 382.50Q40 419 40 496Q40 564 48 599.50Q56 635 75 663Q115 720 201 720Q286 720 326 663Q346 633 353.50 597Q361 561 361 496M239 381Q255 401 255 494Q255 587 239 607Q225 625 201 625Q176 625 162 607Q146 587 146 494Q146 401 162 381Q176 363 201 363Q225 363 239 381Z"  horiz-adv-x="401" vert-adv-y="1000"  />

      
      <glyph glyph-name="uni3a" unicode="&#x3a;" d="M202 313L78 313L78 436L202 436L202 313M202 0L78 0L78 123L202 123L202 0Z"  horiz-adv-x="257" vert-adv-y="1000"  />

      
      <glyph glyph-name="uni3b" unicode="&#x3b;" d="M198-65L82-150L82 124L198 124L198-65M202 313L78 313L78 436L202 436L202 313Z"  horiz-adv-x="257" vert-adv-y="1000"  />

      
      <glyph glyph-name="uni3c" unicode="&#x3c;" d="M367 60L34 255L34 329L367 523L367 407L164 292L367 177L367 60Z"  horiz-adv-x="401" vert-adv-y="1000"  />

      
      <glyph glyph-name="uni3d" unicode="&#x3d;" d="M413 326L44 326L44 427L413 427L413 326M413 145L44 145L44 246L413 246L413 145Z"  horiz-adv-x="457" vert-adv-y="1000"  />

      
      <glyph glyph-name="uni3e" unicode="&#x3e;" d="M367 255L34 60L34 177L237 292L34 407L34 523L367 329L367 255Z"  horiz-adv-x="401" vert-adv-y="1000"  />

      
      <glyph glyph-name="uni3f" unicode="&#x3f;" d="M393 524Q393 446 359 401L300 322Q277 291 277 257L277 200L171 200L171 269Q171 314 202 355L261 434Q287 468 287 527Q287 582 267 604Q250 623 224 623Q198 623 181 605Q162 584 162 527L56 527Q56 627 103 671Q154 718 223 718Q302 718 345 673Q393 625 393 524M286 0L162 0L162 123L286 123L286 0Z"  horiz-adv-x="426" vert-adv-y="1000"  />

      
      <glyph glyph-name="uni40" unicode="&#x40;" d="M554 0L452 0L452 40Q434 16 417 7Q392-8 363-8Q303-8 268 33Q238 67 238 147L238 335Q238 415 268 449Q303 490 363 490Q392 490 417 476Q436 466 448 449L448 532Q448 621 365 621L235 621Q153 621 153 532L153 136Q153 91 182 63L105-13Q73 18 60 49.50Q47 81 47 131L47 548Q47 625 93 669Q136 712 211 712L389 712Q464 712 507 669Q554 624 554 548L554 0M448 148L448 334Q448 364 433.50 380Q419 396 396 396Q373 396 358.50 380Q344 364 344 334L344 148Q344 118 358.50 102.50Q373 87 396 87Q419 87 433.50 102.50Q448 118 448 148Z"  horiz-adv-x="608" vert-adv-y="1000"  />

      
      <glyph glyph-name="uni41" unicode="&#x41;" d="M462 0L345 0L316 141L151 141L123 0L5 0L180 712L289 712L462 0M295 242L234 540L173 242L295 242Z"  horiz-adv-x="468" vert-adv-y="1000"  />

      
      <glyph glyph-name="uni42" unicode="&#x42;" d="M423 204Q423 141 413 106Q403 71 377 45Q332 0 237 0L60 0L60 712L238 712Q333 712 376 668Q401 643 411 611Q421 579 421 522Q421 440 380 398Q363 381 343 373Q367 362 382 347Q423 305 423 204M311 212Q311 271 291 297Q271 323 226 323L172 323L172 101L226 101Q272 101 291.50 126Q311 151 311 212M309 515Q309 567 290.50 589Q272 611 228 611L172 611L172 418L228 418Q271 418 290 441Q309 464 309 515Z"  horiz-adv-x="472" vert-adv-y="1000"  />

      
      <glyph glyph-name="uni43" unicode="&#x43;" d="M413 189Q410 88 354 37Q306-8 231-8Q144-8 93 53Q60 93 50.50 155.50Q41 218 41 356Q41 494 50.50 556.50Q60 619 93 659Q144 720 231 720Q307 720 356 674Q410 625 413 524L301 524Q299 572 284 593Q268 619 231 619Q195 619 178 592Q163 568 158 515.50Q153 463 153 356Q153 249 158 196.50Q163 144 178 120Q195 93 231 93Q268 93 284 119Q299 142 301 189L413 189Z"  horiz-adv-x="447" vert-adv-y="1000"  />

      
      <glyph glyph-name="uni44" unicode="&#x44;" d="M422 554.50Q422 554.50 426.50 523.75Q431 493 431 357Q431 221 422 158.50Q413 96 379 59Q327 0 241 0L60 0L60 712L241 712Q327 712 379 653Q413 616 422 554.50M319 357Q319 461 314.50 510Q310 559 295 582Q276 611 238 611L172 611L172 101L238 101Q276 101 295 130Q310 153 314.50 202.50Q319 252 319 357Z"  horiz-adv-x="472" vert-adv-y="1000"  />

      
      <glyph glyph-name="uni45" unicode="&#x45;" d="M359 0L60 0L60 712L359 712L359 611L172 611L172 409L333 409L333 308L172 308L172 101L359 101L359 0Z"  horiz-adv-x="396" vert-adv-y="1000"  />

      
      <glyph glyph-name="uni46" unicode="&#x46;" d="M359 611L172 611L172 409L333 409L333 308L172 308L172 0L60 0L60 712L359 712L359 611Z"  horiz-adv-x="390" vert-adv-y="1000"  />

      
      <glyph glyph-name="uni47" unicode="&#x47;" d="M413 190Q413 95 363.50 43.50Q314-8 231-8Q144-8 93 53Q60 93 50.50 155.50Q41 218 41 356Q41 494 50.50 556.50Q60 619 93 659Q144 720 231 720Q310 720 358 672Q410 619 413 523L301 523Q299 619 231 619Q195 619 178 592Q163 568 158 515.50Q153 463 153 356Q153 249 158 196.50Q163 144 178 120Q195 93 231 93Q266 93 283.50 118.50Q301 144 301 184L301 295L231 295L231 387L413 387L413 190Z"  horiz-adv-x="455" vert-adv-y="1000"  />

      
      <glyph glyph-name="uni48" unicode="&#x48;" d="M423 0L311 0L311 311L172 311L172 0L60 0L60 712L172 712L172 412L311 412L311 712L423 712L423 0Z"  horiz-adv-x="483" vert-adv-y="1000"  />

      
      <glyph glyph-name="uni49" unicode="&#x49;" d="M172 0L60 0L60 712L172 712L172 0Z"  horiz-adv-x="232" vert-adv-y="1000"  />

      
      <glyph glyph-name="uni4a" unicode="&#x4a;" d="M335 186Q335 96 286 46Q235-8 143-8Q57-8 3 49L81 124Q103 93 143 93Q179 93 201 117.50Q223 142 223 186L223 712L335 712L335 186Z"  horiz-adv-x="389" vert-adv-y="1000"  />

      
      <glyph glyph-name="uni4b" unicode="&#x4b;" d="M462 0L341 0L226 293L172 183L172 0L60 0L60 712L172 712L172 377L327 712L440 712L297 417L462 0Z"  horiz-adv-x="469" vert-adv-y="1000"  />

      
      <glyph glyph-name="uni4c" unicode="&#x4c;" d="M359 0L60 0L60 712L172 712L172 101L359 101L359 0Z"  horiz-adv-x="383" vert-adv-y="1000"  />

      
      <glyph glyph-name="uni4d" unicode="&#x4d;" d="M538 0L426 0L426 444L329 152L267 152L172 439L172 0L60 0L60 712L161 712L299 338L436 712L538 712L538 0Z"  horiz-adv-x="598" vert-adv-y="1000"  />

      
      <glyph glyph-name="uni4e" unicode="&#x4e;" d="M439 0L340 0L172 423L172 0L60 0L60 712L160 712L327 289L327 712L439 712L439 0Z"  horiz-adv-x="499" vert-adv-y="1000"  />

      
      <glyph glyph-name="uni4f" unicode="&#x4f;" d="M412 557.50Q412 557.50 416.50 526.25Q421 495 421 356Q421 217 412 154.50Q403 92 369 53Q318-8 231-8Q144-8 93 53Q60 93 50.50 155.50Q41 218 41 356Q41 494 50.50 556.50Q60 619 93 659Q144 720 231 720Q318 720 369 659Q403 620 412 557.50M304.50 196.50Q304.50 196.50 306.75 222.75Q309 249 309 356Q309 463 304.50 515.50Q300 568 285 592Q268 619 231 619Q195 619 178 592Q153 552 153 356Q153 160 178 120Q195 93 231 93Q268 93 285 120Q300 144 304.50 196.50Z"  horiz-adv-x="462" vert-adv-y="1000"  />

      
      <glyph glyph-name="uni50" unicode="&#x50;" d="M422 495Q422 383 378.50 331Q335 279 239 279L172 279L172 0L60 0L60 712L239 712Q335 712 378.50 660Q422 608 422 495M294 408.50Q294 408.50 302 422.75Q310 437 310 495Q310 553 294 582Q278 611 235 611L172 611L172 380L235 380Q278 380 294 408.50Z"  horiz-adv-x="459" vert-adv-y="1000"  />

      
      <glyph glyph-name="uni51" unicode="&#x51;" d="M451 39L400-23L342 26Q296-8 231-8Q145-8 93 53Q59 92 50 154.50Q41 217 41 356Q41 495 50 557.50Q59 620 93 659Q145 720 231 720Q318 720 369 659Q403 620 412 557.50Q421 495 421 356Q421 234 415.50 179Q410 124 392 88L451 39M309 356Q309 466 304.50 517Q300 568 285 592Q268 619 231 619Q195 619 178 592Q163 568 158 516Q153 464 153 356Q153 248 158 196Q163 144 178 120Q195 93 231 93Q246 93 255 98L218 129L270 191L299 167Q309 210 309 356Z"  horiz-adv-x="462" vert-adv-y="1000"  />

      
      <glyph glyph-name="uni52" unicode="&#x52;" d="M445 0L328 0L235 292L172 292L172 0L60 0L60 712L240 712Q337 712 379.50 662.50Q422 613 422 502Q422 431 403.50 386Q385 341 339 316L445 0M296 421.50Q296 421.50 303 435.75Q310 450 310 502Q310 554 296 582.50Q282 611 241 611L172 611L172 393L241 393Q282 393 296 421.50Z"  horiz-adv-x="478" vert-adv-y="1000"  />

      
      <glyph glyph-name="uni53" unicode="&#x53;" d="M404 197Q404 85 358 40Q309-7 219-7Q128-7 81 40Q35 86 35 193L147 193Q147 136 167 113Q184 94 219 94Q256 94 273 114Q292 136 292 193Q292 250 279.50 271.50Q267 293 225 310L140 345Q85 368 63 405.50Q41 443 41 524Q41 623 99 675Q148 718 221 718Q304 718 349 675Q399 626 399 520L287 520Q287 574 270 596Q254 617 220 617Q190 617 172 597Q153 575 153 527Q153 483 164 464.50Q175 446 212 431L296 397Q359 371 381.50 329Q404 287 404 197Z"  horiz-adv-x="442" vert-adv-y="1000"  />

      
      <glyph glyph-name="uni54" unicode="&#x54;" d="M372 611L252 611L252 0L140 0L140 611L21 611L21 712L372 712L372 611Z"  horiz-adv-x="393" vert-adv-y="1000"  />

      
      <glyph glyph-name="uni55" unicode="&#x55;" d="M417 175Q417 95 368 44Q317-8 236-8Q154-8 103 44Q54 95 54 175L54 712L166 712L166 169Q166 132 186 112.50Q206 93 236 93Q266 93 285.50 112.50Q305 132 305 169L305 712L417 712L417 175Z"  horiz-adv-x="471" vert-adv-y="1000"  />

      
      <glyph glyph-name="uni56" unicode="&#x56;" d="M433 712L276 0L160 0L4 712L127 712L218 172L310 712L433 712Z"  horiz-adv-x="437" vert-adv-y="1000"  />

      
      <glyph glyph-name="uni57" unicode="&#x57;" d="M710 712L576 0L459 0L357 541L256 0L139 0L4 712L127 712L197 172L295 712L419 712L518 172L587 712L710 712Z"  horiz-adv-x="714" vert-adv-y="1000"  />

      
      <glyph glyph-name="uni58" unicode="&#x58;" d="M421 0L298 0L216 256L134 0L11 0L152 369L22 712L145 712L216 474L287 712L410 712L277 369L421 0Z"  horiz-adv-x="432" vert-adv-y="1000"  />

      
      <glyph glyph-name="uni59" unicode="&#x59;" d="M388 712L250 279L250 0L138 0L138 279L0 712L124 712L194 430L265 712L388 712Z"  horiz-adv-x="389" vert-adv-y="1000"  />

      
      <glyph glyph-name="uni5a" unicode="&#x5a;" d="M341 0L31 0L31 84L225 611L43 611L43 712L341 712L341 628L148 101L341 101L341 0Z"  horiz-adv-x="373" vert-adv-y="1000"  />

      
      <glyph glyph-name="uni5b" unicode="&#x5b;" d="M253-74L53-74L53 786L253 786L253 692L159 692L159 20L253 20L253-74Z"  horiz-adv-x="282" vert-adv-y="1000"  />

      
      <glyph glyph-name="uni5c" unicode="&#x5c;" d="M291-74L191-74L6 786L106 786L291-74Z"  horiz-adv-x="298" vert-adv-y="1000"  />

      
      <glyph glyph-name="uni5d" unicode="&#x5d;" d="M228-74L29-74L29 20L122 20L122 692L29 692L29 786L228 786L228-74Z"  horiz-adv-x="282" vert-adv-y="1000"  />

      
      <glyph glyph-name="uni5e" unicode="&#x5e;" d="M418 434L315 434L232 611L149 434L45 434L185 717L278 717L418 434Z"  horiz-adv-x="463" vert-adv-y="1000"  />

      
      <glyph glyph-name="uni5f" unicode="&#x5f;" d="M457-153L0-153L0-76L457-76L457-153Z"  horiz-adv-x="457" vert-adv-y="1000"  />

      
      <glyph glyph-name="uni60" unicode="&#x60;" d="M245 587L171 587L84 726L173 726L245 587Z"  horiz-adv-x="399" vert-adv-y="1000"  />

      
      <glyph glyph-name="uni61" unicode="&#x61;" d="M350 0L250 0L250 45Q232 20 218 10Q192-8 158-8Q97-8 59 36Q27 74 27 154Q27 229 76 272Q117 308 197 308L244 308L244 381Q244 442 193 442Q171 442 158 427Q142 410 142 378L36 378Q36 447 81 492Q124 535 192 535Q266 535 304 496Q350 450 350 372L350 0M244 155L244 233L209 233Q171 233 154 217Q133 198 133 158Q133 85 188 85Q212 85 228 104Q244 123 244 155Z"  horiz-adv-x="399" vert-adv-y="1000"  />

      
      <glyph glyph-name="uni62" unicode="&#x62;" d="M365.50 415Q365.50 415 368.75 390Q372 365 372 264Q372 163 365.50 112.50Q359 62 335 33Q301-8 242-8Q212-8 189 6Q164 22 154 39L154 0L52 0L52 712L158 712L158 493Q172 510 189 521Q212 535 242 535Q302 535 335 494Q359 465 365.50 415M266 264Q266 398 249 420Q234 441 210 441Q188 441 174 426Q158 408 158 377L158 150Q158 117 174 101Q188 87 210 87Q235 87 249 107Q266 129 266 264Z"  horiz-adv-x="408" vert-adv-y="1000"  />

      
      <glyph glyph-name="uni63" unicode="&#x63;" d="M356 155Q351 72 310 31Q271-8 198-8Q113-8 73 48Q36 98 36 264Q36 428 73 480Q113 535 198 535Q268 535 309 497Q351 457 356 373L251 373Q249 407 237 422Q224 441 198 441Q171 441 157 419Q142 393 142 264Q142 135 157 108Q170 87 198 87Q224 87 237 105Q249 122 251 155L356 155Z"  horiz-adv-x="384" vert-adv-y="1000"  />

      
      <glyph glyph-name="uni64" unicode="&#x64;" d="M356 0L254 0L254 40Q246 22 219 7Q196-8 166-8Q107-8 73 33Q49 62 42.50 113Q36 164 36 264Q36 364 42.50 414.50Q49 465 73 494Q107 535 166 535Q196 535 219 521Q234 513 250 493L250 712L356 712L356 0M250 150L250 377Q250 410 234 426Q219 441 198 441Q174 441 159 420Q142 398 142 264Q142 129 159 107Q173 87 198 87Q220 87 234 101Q250 117 250 150Z"  horiz-adv-x="408" vert-adv-y="1000"  />

      
      <glyph glyph-name="uni65" unicode="&#x65;" d="M360 233L142 233Q142 133 158 108Q172 87 199 87Q225 87 239 107Q252 123 252 155L358 155Q355 78 313 34Q274-8 199-8Q127-8 85 35Q55 66 45.50 122Q36 178 36 264Q36 350 45.50 406Q55 462 85 493Q126 535 198 535Q269 535 311 493Q340 464 350 402Q360 340 360 233M254 311Q254 398 239 420Q224 441 198 441Q172 441 157 420Q142 398 142 311L254 311Z"  horiz-adv-x="394" vert-adv-y="1000"  />

      
      <glyph glyph-name="uni66" unicode="&#x66;" d="M252 432L179 432L179 0L73 0L73 432L19 432L19 513L73 513L73 558Q73 643 126 685Q169 718 252 718L252 623Q179 623 179 552L179 513L252 513L252 432Z"  horiz-adv-x="271" vert-adv-y="1000"  />

      
      <glyph glyph-name="uni67" unicode="&#x67;" d="M356 527L356-10Q356-102 311-147Q268-190 197-190Q124-190 83-149Q39-106 39-33L144-33Q144-65 158-83Q171-99 197-99Q221-99 235-82Q250-63 250-17L250 74Q237 57 221 46Q200 32 168 32Q113 32 78 71Q53 100 44.50 147Q36 194 36 284Q36 373 44.50 420Q53 467 78 496Q113 535 168 535Q202 535 223 521Q241 509 254 493L254 527L356 527M250 187L250 377Q250 410 234 426Q219 441 198 441Q174 441 159 420Q142 398 142 282Q142 166 159 144Q176 124 198 124Q220 124 234 138Q250 154 250 187Z"  horiz-adv-x="408" vert-adv-y="1000"  />

      
      <glyph glyph-name="uni68" unicode="&#x68;" d="M368 0L262 0L262 379Q262 409 247.50 424.50Q233 440 210 440Q187 440 172.50 424.50Q158 409 158 379L158 0L52 0L52 712L158 712L158 493Q171 511 189 521Q212 535 242 535Q303 535 338 494Q368 460 368 380L368 0Z"  horiz-adv-x="417" vert-adv-y="1000"  />

      
      <glyph glyph-name="uni69" unicode="&#x69;" d="M158 0L52 0L52 513L158 513L158 0M163 594L46 594L46 711L163 711L163 594Z"  horiz-adv-x="210" vert-adv-y="1000"  />

      
      <glyph glyph-name="uni6a" unicode="&#x6a;" d="M158-25Q158-111 104-152Q61-185-20-185L-20-90Q17-90 34.50-74Q52-58 52-19L52 513L158 513L158-25M163 594L46 594L46 711L163 711L163 594Z"  horiz-adv-x="210" vert-adv-y="1000"  />

      
      <glyph glyph-name="uni6b" unicode="&#x6b;" d="M409 0L292 0L203 222L158 151L158 0L52 0L52 712L158 712L158 302L291 527L402 527L271 318L409 0Z"  horiz-adv-x="416" vert-adv-y="1000"  />

      
      <glyph glyph-name="uni6c" unicode="&#x6c;" d="M227 0Q143 0 102 32Q49 72 49 160L49 712L155 712L155 166Q155 95 227 95L227 0Z"  horiz-adv-x="244" vert-adv-y="1000"  />

      
      <glyph glyph-name="uni6d" unicode="&#x6d;" d="M579 0L473 0L473 379Q473 408 458 424Q443 440 420 440Q397 440 382.50 424.50Q368 409 368 379L368 0L262 0L262 379Q262 409 247.50 424.50Q233 440 210 440Q187 440 172.50 424.50Q158 409 158 379L158 0L52 0L52 527L154 527L154 488Q172 512 189 521Q212 535 242 535Q307 535 345 481Q367 506 392 521Q417 535 448 535Q513 535 548 494Q579 459 579 380L579 0Z"  horiz-adv-x="628" vert-adv-y="1000"  />

      
      <glyph glyph-name="uni6e" unicode="&#x6e;" d="M368 0L262 0L262 379Q262 409 247.50 424.50Q233 440 210 440Q187 440 172.50 424.50Q158 409 158 379L158 0L52 0L52 527L154 527L154 488Q172 512 189 521Q212 535 242 535Q303 535 338 494Q368 460 368 380L368 0Z"  horiz-adv-x="417" vert-adv-y="1000"  />

      
      <glyph glyph-name="uni6f" unicode="&#x6f;" d="M323 480Q360 428 360 264Q360 100 323 48Q283-8 198-8Q113-8 73 48Q36 100 36 264Q36 428 73 480Q113 535 198 535Q283 535 323 480M254 264Q254 393 239 419Q225 441 198 441Q171 441 157 419Q142 393 142 264Q142 134 157 108Q170 87 198 87Q226 87 239 108Q254 134 254 264Z"  horiz-adv-x="396" vert-adv-y="1000"  />

      
      <glyph glyph-name="uni70" unicode="&#x70;" d="M365.50 413Q365.50 413 368.75 387.50Q372 362 372 264Q372 166 365 114.50Q358 63 335 33Q302-8 242-8Q212-8 189 6Q172 17 158 34L158-185L52-185L52 527L154 527L154 488Q162 504 189 521Q212 535 242 535Q302 535 335 494Q359 464 365.50 413M266 264Q266 398 249 420Q234 441 210 441Q188 441 174 426Q158 408 158 377L158 150Q158 117 174 101Q188 87 210 87Q235 87 249 107Q266 129 266 264Z"  horiz-adv-x="408" vert-adv-y="1000"  />

      
      <glyph glyph-name="uni71" unicode="&#x71;" d="M356-185L250-185L250 34Q236 17 219 6Q196-8 166-8Q107-8 73 33Q49 62 42.50 113Q36 164 36 264Q36 364 42.50 414.50Q49 465 73 494Q107 535 166 535Q196 535 219 521Q246 504 254 488L254 527L356 527L356-185M250 150L250 377Q250 410 234 426Q219 441 198 441Q174 441 159 420Q142 398 142 264Q142 129 159 107Q173 87 198 87Q220 87 234 101Q250 117 250 150Z"  horiz-adv-x="408" vert-adv-y="1000"  />

      
      <glyph glyph-name="uni72" unicode="&#x72;" d="M282 432L246 432Q208 432 183 407.50Q158 383 158 341L158 0L52 0L52 527L154 527L154 471Q170 495 200 513Q236 535 282 535L282 432Z"  horiz-adv-x="299" vert-adv-y="1000"  />

      
      <glyph glyph-name="uni73" unicode="&#x73;" d="M352 152Q352 82 305 35Q262-8 190-8Q115-8 74 35Q27 84 27 154L132 154Q132 122 150 104Q165 88 190 88Q215 88 231 103Q246 116 246 145Q246 168 235 184Q223 202 194 214L124 245Q70 269 47 306Q30 333 30 378Q30 443 76 491Q120 535 190 535Q259 535 301 495Q346 452 346 378L242 378Q242 410 227 426Q212 442 190 442Q166 442 151 427Q136 412 136 387Q136 368 144 356Q155 338 183 326L253 296Q307 272 330 238Q352 207 352 152Z"  horiz-adv-x="381" vert-adv-y="1000"  />

      
      <glyph glyph-name="uni74" unicode="&#x74;" d="M254 0Q167 0 126 32Q73 74 73 160L73 432L19 432L19 513L73 513L73 662L179 662L179 513L252 513L252 432L179 432L179 166Q179 95 254 95L254 0Z"  horiz-adv-x="274" vert-adv-y="1000"  />

      
      <glyph glyph-name="uni75" unicode="&#x75;" d="M365 0L264 0L264 40Q247 17 228 7Q203-8 175-8Q114-8 79 33Q49 67 49 147L49 527L155 527L155 148Q155 118 169.50 102.50Q184 87 207 87Q230 87 244.50 102.50Q259 118 259 148L259 527L365 527L365 0Z"  horiz-adv-x="417" vert-adv-y="1000"  />

      
      <glyph glyph-name="uni76" unicode="&#x76;" d="M377 527L247 0L135 0L4 527L121 527L191 168L260 527L377 527Z"  horiz-adv-x="381" vert-adv-y="1000"  />

      
      <glyph glyph-name="uni77" unicode="&#x77;" d="M573 527L455 0L350 0L287 342L225 0L120 0L4 527L122 527L177 168L242 527L333 527L399 168L454 527L573 527Z"  horiz-adv-x="577" vert-adv-y="1000"  />

      
      <glyph glyph-name="uni78" unicode="&#x78;" d="M382 0L264 0L195 164L126 0L9 0L133 268L15 527L132 527L195 367L258 527L376 527L256 268L382 0Z"  horiz-adv-x="391" vert-adv-y="1000"  />

      
      <glyph glyph-name="uni79" unicode="&#x79;" d="M377 527L229-67Q211-140 163.50-162.50Q116-185 32-185L32-91Q60-90 75-87.50Q90-85 105-72.50Q120-60 126-36L135 1L4 527L121 527L191 168L260 527L377 527Z"  horiz-adv-x="382" vert-adv-y="1000"  />

      
      <glyph glyph-name="uni7a" unicode="&#x7a;" d="M299 0L26 0L26 80L180 433L38 433L38 527L299 527L299 448L145 95L299 95L299 0Z"  horiz-adv-x="325" vert-adv-y="1000"  />

      
      <glyph glyph-name="uni7b" unicode="&#x7b;" d="M307-74L246-74Q191-74 152-38Q114-2 114 66L114 256Q114 279 101 294Q88 309 68 309L29 309L29 403L68 403Q88 403 101 418Q114 433 114 456L114 646Q114 714 152 750Q191 786 246 786L307 786L307 691L268 691Q247 691 233.50 676.50Q220 662 220 639L220 459Q220 405 193 378Q177 362 153 356Q177 350 193 334Q220 307 220 253L220 73Q220 50 233.50 35.50Q247 21 268 21L307 21L307-74Z"  horiz-adv-x="335" vert-adv-y="1000"  />

      
      <glyph glyph-name="uni7c" unicode="&#x7c;" d="M218-74L112-74L112 786L218 786L218-74Z"  horiz-adv-x="330" vert-adv-y="1000"  />

      
      <glyph glyph-name="uni7d" unicode="&#x7d;" d="M89-74L28-74L28 21L67 21Q88 21 101.50 35.50Q115 50 115 73L115 253Q115 307 142 334Q158 350 182 356Q158 362 142 378Q115 405 115 459L115 639Q115 662 101.50 676.50Q88 691 67 691L28 691L28 786L89 786Q144 786 183 750Q221 714 221 646L221 456Q221 433 234 418Q247 403 267 403L306 403L306 309L267 309Q247 309 234 294Q221 279 221 256L221 66Q221-2 183-38Q144-74 89-74Z"  horiz-adv-x="335" vert-adv-y="1000"  />

      
      <glyph glyph-name="uni7e" unicode="&#x7e;" d="M434 287Q368 221 308 221Q267 221 220 246Q182 266 154 266Q121 266 88 233L23 297Q89 363 149 363Q191 363 238 338Q276 318 303 318Q336 318 369 351L434 287Z"  horiz-adv-x="457" vert-adv-y="1000"  />

      
      <glyph glyph-name="unia1" unicode="&#xa1;" d="M170-185L64-185L64 328L170 328L170-185M179 404L56 404L56 527L179 527L179 404Z"  horiz-adv-x="257" vert-adv-y="1000"  />

      
      <glyph glyph-name="unia2" unicode="&#xa2;" d="M360 259Q357 181 315 141Q291 117 244 107L244 0L163 0L163 107Q109 117 78 157Q41 206 41 363Q41 520 78 569Q109 609 163 619L163 712L244 712L244 619Q284 613 314 586Q356 548 360 467L255 467Q255 497 242 514Q228 531 203 531Q175 531 162 511Q147 486 147 363Q147 240 162 215Q176 194 203 194Q227 194 242 212Q255 227 255 259L360 259Z"  horiz-adv-x="392" vert-adv-y="1000"  />

      
      <glyph glyph-name="unia3" unicode="&#xa3;" d="M427 0L95 0L95 324L32 324L32 405L95 405L95 527Q95 613 149.50 666.50Q204 720 286 720Q372 720 427 663L350 588Q324 619 286 619Q252 619 229.50 594.50Q207 570 207 528L207 405L287 405L287 324L207 324L207 101L427 101L427 0Z"  horiz-adv-x="460" vert-adv-y="1000"  />

      
      <glyph glyph-name="unia4" unicode="&#xa4;" d="M464 141L399 75L342 131Q299 106 253 106Q208 106 163 131L107 75L41 141L98 197Q73 238 73 286Q73 335 98 376L41 432L107 498L163 442Q206 466 253 466Q300 466 342 442L399 498L464 432L408 376Q433 333 433 286Q433 240 408 197L464 141M316 223Q316 223 329 236Q342 249 342 286Q342 323 316 349.50Q290 376 253 376Q216 376 190 349.50Q164 323 164 286Q164 249 190 223Q216 197 253 197Q290 197 316 223Z"  horiz-adv-x="505" vert-adv-y="1000"  />

      
      <glyph glyph-name="unia5" unicode="&#xa5;" d="M380 712L287 407L346 407L346 327L262 327L247 279L247 239L346 239L346 158L247 158L247 0L141 0L141 158L42 158L42 239L141 239L141 279L127 327L42 327L42 407L102 407L9 712L126 712L194 430L263 712L380 712Z"  horiz-adv-x="389" vert-adv-y="1000"  />

      
      <glyph glyph-name="unia6" unicode="&#xa6;" d="M218 438L112 438L112 784L218 784L218 438M218-72L112-72L112 274L218 274L218-72Z"  horiz-adv-x="330" vert-adv-y="1000"  />

      
      <glyph glyph-name="unia7" unicode="&#xa7;" d="M278 270Q278 318 273.50 338.50Q269 359 255 371Q238 386 215 386Q193 386 175 371Q162 359 156.50 338.50Q151 318 151 270Q151 223 156 202Q161 181 175 169Q192 154 215 154Q238 154 255 169Q278 189 278 270M384 270Q384 209 375 177Q366 145 335 119Q321 107 309 104Q342 83 358 56Q377 24 377-20Q377-91 330-138Q289-180 212-180Q140-180 96-136Q49-89 49-23L157-23Q157-51 173-68Q188-84 212-84Q239-84 253-70Q268-55 268-29Q268-8 257 8Q243 28 216 39L143 70Q113 83 93 102Q61 133 53 168.50Q45 204 45 270Q45 328 54.50 359Q64 390 94 416Q109 427 122 432Q87 454 71 481Q53 510 53 556Q53 622 99 668Q143 712 215 712Q278 712 321 677Q373 634 373 559L267 559Q267 588 252 603Q237 619 215 619Q192 619 177 604Q162 589 162 565Q162 544 170 530Q182 511 209 500L281 469Q319 454 340 433Q367 405 375.50 373Q384 341 384 270Z"  horiz-adv-x="429" vert-adv-y="1000"  />

      
      <glyph glyph-name="unia8" unicode="&#xa8;" d="M337 597L237 597L237 697L337 697L337 597M162 597L62 597L62 697L162 697L162 597Z"  horiz-adv-x="399" vert-adv-y="1000"  />

      
      <glyph glyph-name="unia9" unicode="&#xa9;" d="M678 612Q678 612 731 559Q784 506 784 356Q784 206 678 100Q572-6 422-6Q272-6 166 100Q60 206 60 356Q60 506 166 612Q272 718 422 718Q572 718 678 612M629 144Q629 144 671 186.50Q713 229 713 356Q713 483 629 568Q545 653 422 653Q299 653 215 568Q131 483 131 356Q131 229 215 144Q299 59 422 59Q545 59 629 144M526 268Q524 210 495 181Q468 154 424 154Q375 154 347 189Q329 210 323.50 246.50Q318 283 318 355Q318 427 323.50 464Q329 501 347 522Q375 557 424 557Q468 557 495 530Q524 501 526 442L462 442Q462 474 452 485Q442 497 424 497Q406 497 395 482Q382 461 382 355Q382 248 395 229Q406 214 424 214Q442 214 452 226Q462 237 462 268L526 268Z"  horiz-adv-x="844" vert-adv-y="1000"  />

      
      <glyph glyph-name="uniaa" unicode="&#xaa;" d="M289 294L207 294L207 327Q197 315 179 302Q158 290 132 290Q81 290 51 324Q25 353 25 416Q25 475 66 510Q100 539 164 539L201 539L201 593Q201 640 160 640Q142 640 131 627Q120 616 120 589L32 589Q32 647 68 682Q105 717 160 717Q218 717 252 684Q289 649 289 585L289 294M201 420L201 477L173 477Q143 477 130 465Q113 448 113 420Q113 364 157 364Q176 364 188.50 379Q201 394 201 420Z"  horiz-adv-x="331" vert-adv-y="1000"  />

      
      <glyph glyph-name="uniab" unicode="&#xab;" d="M185 27L24 276L185 524L185 366L124 276L185 184L185 27M367 27L207 276L367 524L367 366L305 276L367 184L367 27Z"  horiz-adv-x="414" vert-adv-y="1000"  />

      
      <glyph glyph-name="uniac" unicode="&#xac;" d="M407 142L306 142L306 252L51 252L51 353L407 353L407 142Z"  horiz-adv-x="457" vert-adv-y="1000"  />

      
      <glyph glyph-name="uniad" unicode="&#xad;" d="M249 238L47 238L47 339L249 339L249 238Z"  horiz-adv-x="295" vert-adv-y="1000"  />

      
      <glyph glyph-name="uniae" unicode="&#xae;" d="M678 612Q678 612 731 559Q784 506 784 356Q784 206 678 100Q572-6 422-6Q272-6 166 100Q60 206 60 356Q60 506 166 612Q272 718 422 718Q572 718 678 612M629 144Q629 144 671 186.50Q713 229 713 356Q713 483 629 568Q545 653 422 653Q299 653 215 568Q131 483 131 356Q131 229 215 144Q299 59 422 59Q545 59 629 144M544 158L477 158L428 318L393 318L393 158L328 158L328 552L432 552Q482 552 506 528Q532 501 532 435Q532 373 507 347Q500 339 488 332L544 158M468 435Q468 469 457 482Q447 492 432 492L393 492L393 378L432 378Q447 378 457 388Q468 400 468 435Z"  horiz-adv-x="844" vert-adv-y="1000"  />

      
      <glyph glyph-name="uniaf" unicode="&#xaf;" d="M322 610L77 610L77 681L322 681L322 610Z"  horiz-adv-x="399" vert-adv-y="1000"  />

      
      <glyph glyph-name="unib0" unicode="&#xb0;" d="M319.50 678.50Q319.50 678.50 343.25 654.75Q367 631 367 564Q367 497 319.50 449.50Q272 402 205 402Q138 402 90.50 449.50Q43 497 43 564Q43 631 90.50 678.50Q138 726 205 726Q272 726 319.50 678.50M254 515Q254 515 264 525Q274 535 274 564Q274 593 254 613.50Q234 634 205 634Q176 634 156 613.50Q136 593 136 564Q136 535 156 515Q176 495 205 495Q234 495 254 515Z"  horiz-adv-x="410" vert-adv-y="1000"  />

      
      <glyph glyph-name="unib1" unicode="&#xb1;" d="M413 316L279 316L279 182L178 182L178 316L44 316L44 417L178 417L178 551L279 551L279 417L413 417L413 316M413 13L44 13L44 114L413 114L413 13Z"  horiz-adv-x="457" vert-adv-y="1000"  />

      
      <glyph glyph-name="unib2" unicode="&#xb2;" d="M279 285L48 285L48 341L181 544Q202 578 202 616Q202 635 190.50 646Q179 657 161 657Q120 657 120 614L120 584L43 584L43 612Q43 663 76 690Q107 717 161 717Q211 717 243 693Q279 664 279 614Q279 568 249 522L131 345L279 345L279 285Z"  horiz-adv-x="321" vert-adv-y="1000"  />

      
      <glyph glyph-name="unib3" unicode="&#xb3;" d="M282 405Q282 366 276 345Q270 324 248 307Q218 280 163 280Q111 280 77 308Q46 333 46 388L46 406L123 406L123 386Q123 361 133 351Q146 340 163 340Q182 340 193 351Q205 366 205 410Q205 453 194 467Q184 480 162 480L137 480L137 537L162 537Q180 537 189 546Q202 558 202 602Q202 637 191 647Q181 657 163 657Q145 657 135 647Q125 637 125 616L125 592L48 592L48 612Q48 664 80 690Q111 717 163 717Q216 717 245 691Q279 661 279 603Q279 560 264 536Q252 517 233 509Q255 497 267 479Q282 453 282 405Z"  horiz-adv-x="321" vert-adv-y="1000"  />

      
      <glyph glyph-name="unib4" unicode="&#xb4;" d="M315 726L228 587L154 587L226 726L315 726Z"  horiz-adv-x="399" vert-adv-y="1000"  />

      
      <glyph glyph-name="unib5" unicode="&#xb5;" d="M367 0L265 0L265 40Q247 16 230 7Q205-8 174-8Q158-8 152 0L152-185L50-185L50 527L156 527L156 148Q156 119 171 103Q186 87 209 87Q232 87 246.50 102.50Q261 118 261 148L261 527L367 527L367 0Z"  horiz-adv-x="421" vert-adv-y="1000"  />

      
      <glyph glyph-name="unib6" unicode="&#xb6;" d="M549-185L443-185L443 611L342 611L342-185L236-185L236 286L184 286Q36 286 36 499Q36 712 184 712L549 712L549-185Z"  horiz-adv-x="602" vert-adv-y="1000"  />

      
      <glyph glyph-name="unib7" unicode="&#xb7;" d="M216 221L56 221L56 381L216 381L216 221Z"  horiz-adv-x="272" vert-adv-y="1000"  />

      
      <glyph glyph-name="unib8" unicode="&#xb8;" d="M243-40L190-194L114-194L175-40L243-40Z"  horiz-adv-x="399" vert-adv-y="1000"  />

      
      <glyph glyph-name="unib9" unicode="&#xb9;" d="M223 285L146 285L146 634L72 587L72 663L147 712L223 712L223 285Z"  horiz-adv-x="322" vert-adv-y="1000"  />

      
      <glyph glyph-name="uniba" unicode="&#xba;" d="M266 672Q297 631 297 502Q297 373 266 332Q235 288 165 288Q94 288 63 332Q32 373 32 502Q32 631 63 672Q94 716 165 716Q235 716 266 672M196 382Q209 402 209 502Q209 602 196 622Q185 639 165 639Q144 639 133 622Q120 602 120 502Q120 402 133 382Q144 365 165 365Q185 365 196 382Z"  horiz-adv-x="329" vert-adv-y="1000"  />

      
      <glyph glyph-name="unibb" unicode="&#xbb;" d="M389 276L229 27L229 184L290 276L229 366L229 524L389 276M207 276L47 27L47 184L109 276L47 366L47 524L207 276Z"  horiz-adv-x="414" vert-adv-y="1000"  />

      
      <glyph glyph-name="unibc" unicode="&#xbc;" d="M223 285L146 285L146 634L72 587L72 663L147 712L223 712L223 285M580 712L334 0L252 0L498 712L580 712M795 63L762 63L762 0L685 0L685 63L539 63L539 123L648 427L721 427L615 123L685 123L685 193L762 193L762 123L795 123L795 63Z"  horiz-adv-x="832" vert-adv-y="1000"  />

      
      <glyph glyph-name="unibd" unicode="&#xbd;" d="M223 285L146 285L146 634L72 587L72 663L147 712L223 712L223 285M580 712L334 0L252 0L498 712L580 712M789 0L558 0L558 56L691 259Q712 293 712 331Q712 350 700.50 361Q689 372 671 372Q630 372 630 329L630 299L553 299L553 327Q553 378 586 405Q618 432 671 432Q721 432 753 408Q789 379 789 329Q789 283 759 237L641 60L789 60L789 0Z"  horiz-adv-x="831" vert-adv-y="1000"  />

      
      <glyph glyph-name="unibe" unicode="&#xbe;" d="M282 405Q282 366 276 345Q270 324 248 307Q218 280 163 280Q111 280 77 308Q46 333 46 388L46 406L123 406L123 386Q123 361 133 351Q146 340 163 340Q182 340 193 351Q205 366 205 410Q205 453 194 467Q184 480 162 480L137 480L137 537L162 537Q180 537 189 546Q202 558 202 602Q202 637 191 647Q181 657 163 657Q145 657 135 647Q125 637 125 616L125 592L48 592L48 612Q48 664 80 690Q111 717 163 717Q216 717 245 691Q279 661 279 603Q279 560 264 536Q252 517 233 509Q255 497 267 479Q282 453 282 405M579 712L333 0L251 0L497 712L579 712M794 63L761 63L761 0L684 0L684 63L538 63L538 123L647 427L720 427L614 123L684 123L684 193L761 193L761 123L794 123L794 63Z"  horiz-adv-x="831" vert-adv-y="1000"  />

      
      <glyph glyph-name="unibf" unicode="&#xbf;" d="M370 1Q370-100 323-144Q272-191 203-191Q125-191 81-145Q33-97 33 4Q33 82 67 127L126 205Q149 236 149 270L149 328L255 328L255 258Q255 213 224 172L165 94Q139 60 139 1Q139-54 159-77Q176-96 202-96Q228-96 245-77Q264-56 264 1L370 1M264 404L141 404L141 527L264 527L264 404Z"  horiz-adv-x="426" vert-adv-y="1000"  />

      
      <glyph glyph-name="unic0" unicode="&#xc0;" d="M462 0L345 0L316 141L151 141L123 0L5 0L180 712L289 712L462 0M295 242L234 540L173 242L295 242M280 760L206 760L118 899L208 899L280 760Z"  horiz-adv-x="468" vert-adv-y="1000"  />

      
      <glyph glyph-name="unic1" unicode="&#xc1;" d="M462 0L345 0L316 141L151 141L123 0L5 0L180 712L289 712L462 0M295 242L234 540L173 242L295 242M350 899L263 760L189 760L261 899L350 899Z"  horiz-adv-x="468" vert-adv-y="1000"  />

      
      <glyph glyph-name="unic2" unicode="&#xc2;" d="M462 0L345 0L316 141L151 141L123 0L5 0L180 712L289 712L462 0M295 242L234 540L173 242L295 242M375 760L294 760L234 842L175 760L94 760L193 899L276 899L375 760Z"  horiz-adv-x="468" vert-adv-y="1000"  />

      
      <glyph glyph-name="unic3" unicode="&#xc3;" d="M462 0L345 0L316 141L151 141L123 0L5 0L180 712L289 712L462 0M295 242L234 540L173 242L295 242M381 814Q335 768 291 768Q261 768 230 785Q205 800 186 800Q163 800 140 777L94 823Q141 870 183 870Q216 870 245 853Q270 838 289 838Q312 838 334 861L381 814Z"  horiz-adv-x="468" vert-adv-y="1000"  />

      
      <glyph glyph-name="unic4" unicode="&#xc4;" d="M462 0L345 0L316 141L151 141L123 0L5 0L180 712L289 712L462 0M295 242L234 540L173 242L295 242M372 770L272 770L272 870L372 870L372 770M197 770L97 770L97 870L197 870L197 770Z"  horiz-adv-x="468" vert-adv-y="1000"  />

      
      <glyph glyph-name="unic5" unicode="&#xc5;" d="M462 0L345 0L316 141L151 141L123 0L5 0L180 712L289 712L462 0M295 242L234 540L173 242L295 242M308.50 931.50Q308.50 931.50 323.75 916.25Q339 901 339 858Q339 815 308.50 784.50Q278 754 234 754Q191 754 160.50 784.50Q130 815 130 858Q130 901 160.50 931.50Q191 962 234 962Q278 962 308.50 931.50M266.50 825.50Q266.50 825.50 273.25 832.25Q280 839 280 858Q280 877 266.50 890.50Q253 904 234 904Q215 904 202 890.50Q189 877 189 858Q189 839 202 825.50Q215 812 234 812Q253 812 266.50 825.50Z"  horiz-adv-x="468" vert-adv-y="1000"  />

      
      <glyph glyph-name="unic6" unicode="&#xc6;" d="M638 0L339 0L339 148L181 148L129 0L6 0L267 712L638 712L638 611L451 611L451 409L612 409L612 308L451 308L451 101L638 101L638 0M339 249L339 611L214 249L339 249Z"  horiz-adv-x="675" vert-adv-y="1000"  />

      
      <glyph glyph-name="unic7" unicode="&#xc7;" d="M413 189Q410 88 354 37Q306-8 231-8Q144-8 93 53Q60 93 50.50 155.50Q41 218 41 356Q41 494 50.50 556.50Q60 619 93 659Q144 720 231 720Q307 720 356 674Q410 625 413 524L301 524Q299 572 284 593Q268 619 231 619Q195 619 178 592Q163 568 158 515.50Q153 463 153 356Q153 249 158 196.50Q163 144 178 120Q195 93 231 93Q268 93 284 119Q299 142 301 189L413 189M267-40L214-194L138-194L199-40L267-40Z"  horiz-adv-x="447" vert-adv-y="1000"  />

      
      <glyph glyph-name="unic8" unicode="&#xc8;" d="M359 0L60 0L60 712L359 712L359 611L172 611L172 409L333 409L333 308L172 308L172 101L359 101L359 0M259 760L185 760L97 899L187 899L259 760Z"  horiz-adv-x="396" vert-adv-y="1000"  />

      
      <glyph glyph-name="unic9" unicode="&#xc9;" d="M359 0L60 0L60 712L359 712L359 611L172 611L172 409L333 409L333 308L172 308L172 101L359 101L359 0M329 899L242 760L168 760L240 899L329 899Z"  horiz-adv-x="396" vert-adv-y="1000"  />

      
      <glyph glyph-name="unica" unicode="&#xca;" d="M359 0L60 0L60 712L359 712L359 611L172 611L172 409L333 409L333 308L172 308L172 101L359 101L359 0M354 760L273 760L213 842L154 760L73 760L172 899L255 899L354 760Z"  horiz-adv-x="396" vert-adv-y="1000"  />

      
      <glyph glyph-name="unicb" unicode="&#xcb;" d="M359 0L60 0L60 712L359 712L359 611L172 611L172 409L333 409L333 308L172 308L172 101L359 101L359 0M351 770L251 770L251 870L351 870L351 770M176 770L76 770L76 870L176 870L176 770Z"  horiz-adv-x="396" vert-adv-y="1000"  />

      
      <glyph glyph-name="unicc" unicode="&#xcc;" d="M172 0L60 0L60 712L172 712L172 0M162 760L88 760L0 899L90 899L162 760Z"  horiz-adv-x="232" vert-adv-y="1000"  />

      
      <glyph glyph-name="unicd" unicode="&#xcd;" d="M172 0L60 0L60 712L172 712L172 0M232 899L145 760L71 760L143 899L232 899Z"  horiz-adv-x="232" vert-adv-y="1000"  />

      
      <glyph glyph-name="unice" unicode="&#xce;" d="M172 0L60 0L60 712L172 712L172 0M257 760L176 760L116 842L57 760L-24 760L75 899L158 899L257 760Z"  horiz-adv-x="232" vert-adv-y="1000"  />

      
      <glyph glyph-name="unicf" unicode="&#xcf;" d="M172 0L60 0L60 712L172 712L172 0M254 770L154 770L154 870L254 870L254 770M79 770L-21 770L-21 870L79 870L79 770Z"  horiz-adv-x="232" vert-adv-y="1000"  />

      
      <glyph glyph-name="unid0" unicode="&#xd0;" d="M26 314L26 402L77 402L77 712L258 712Q344 712 396 653Q430 616 439 554.50Q448 493 448 357Q448 221 439 158.50Q430 96 396 59Q344 0 258 0L77 0L77 314L26 314M336 357Q336 461 331.50 510Q327 559 312 582Q293 611 255 611L189 611L189 402L259 402L259 314L189 314L189 101L255 101Q293 101 312 130Q327 153 331.50 202.50Q336 252 336 357Z"  horiz-adv-x="489" vert-adv-y="1000"  />

      
      <glyph glyph-name="unid1" unicode="&#xd1;" d="M439 0L340 0L172 423L172 0L60 0L60 712L160 712L327 289L327 712L439 712L439 0M396 814Q350 768 306 768Q276 768 245 785Q220 800 201 800Q178 800 155 777L109 823Q156 870 198 870Q231 870 260 853Q285 838 304 838Q327 838 349 861L396 814Z"  horiz-adv-x="499" vert-adv-y="1000"  />

      
      <glyph glyph-name="unid2" unicode="&#xd2;" d="M412 557.50Q412 557.50 416.50 526.25Q421 495 421 356Q421 217 412 154.50Q403 92 369 53Q318-8 231-8Q144-8 93 53Q60 93 50.50 155.50Q41 218 41 356Q41 494 50.50 556.50Q60 619 93 659Q144 720 231 720Q318 720 369 659Q403 620 412 557.50M304.50 196.50Q304.50 196.50 306.75 222.75Q309 249 309 356Q309 463 304.50 515.50Q300 568 285 592Q268 619 231 619Q195 619 178 592Q153 552 153 356Q153 160 178 120Q195 93 231 93Q268 93 285 120Q300 144 304.50 196.50M277 760L203 760L115 899L205 899L277 760Z"  horiz-adv-x="462" vert-adv-y="1000"  />

      
      <glyph glyph-name="unid3" unicode="&#xd3;" d="M412 557.50Q412 557.50 416.50 526.25Q421 495 421 356Q421 217 412 154.50Q403 92 369 53Q318-8 231-8Q144-8 93 53Q60 93 50.50 155.50Q41 218 41 356Q41 494 50.50 556.50Q60 619 93 659Q144 720 231 720Q318 720 369 659Q403 620 412 557.50M304.50 196.50Q304.50 196.50 306.75 222.75Q309 249 309 356Q309 463 304.50 515.50Q300 568 285 592Q268 619 231 619Q195 619 178 592Q153 552 153 356Q153 160 178 120Q195 93 231 93Q268 93 285 120Q300 144 304.50 196.50M347 899L260 760L186 760L258 899L347 899Z"  horiz-adv-x="462" vert-adv-y="1000"  />

      
      <glyph glyph-name="unid4" unicode="&#xd4;" d="M412 557.50Q412 557.50 416.50 526.25Q421 495 421 356Q421 217 412 154.50Q403 92 369 53Q318-8 231-8Q144-8 93 53Q60 93 50.50 155.50Q41 218 41 356Q41 494 50.50 556.50Q60 619 93 659Q144 720 231 720Q318 720 369 659Q403 620 412 557.50M304.50 196.50Q304.50 196.50 306.75 222.75Q309 249 309 356Q309 463 304.50 515.50Q300 568 285 592Q268 619 231 619Q195 619 178 592Q153 552 153 356Q153 160 178 120Q195 93 231 93Q268 93 285 120Q300 144 304.50 196.50M372 760L291 760L231 842L172 760L91 760L190 899L273 899L372 760Z"  horiz-adv-x="462" vert-adv-y="1000"  />

      
      <glyph glyph-name="unid5" unicode="&#xd5;" d="M412 557.50Q412 557.50 416.50 526.25Q421 495 421 356Q421 217 412 154.50Q403 92 369 53Q318-8 231-8Q144-8 93 53Q60 93 50.50 155.50Q41 218 41 356Q41 494 50.50 556.50Q60 619 93 659Q144 720 231 720Q318 720 369 659Q403 620 412 557.50M304.50 196.50Q304.50 196.50 306.75 222.75Q309 249 309 356Q309 463 304.50 515.50Q300 568 285 592Q268 619 231 619Q195 619 178 592Q153 552 153 356Q153 160 178 120Q195 93 231 93Q268 93 285 120Q300 144 304.50 196.50M378 814Q332 768 288 768Q258 768 227 785Q202 800 183 800Q160 800 137 777L91 823Q138 870 180 870Q213 870 242 853Q267 838 286 838Q309 838 331 861L378 814Z"  horiz-adv-x="462" vert-adv-y="1000"  />

      
      <glyph glyph-name="unid6" unicode="&#xd6;" d="M412 557.50Q412 557.50 416.50 526.25Q421 495 421 356Q421 217 412 154.50Q403 92 369 53Q318-8 231-8Q144-8 93 53Q60 93 50.50 155.50Q41 218 41 356Q41 494 50.50 556.50Q60 619 93 659Q144 720 231 720Q318 720 369 659Q403 620 412 557.50M304.50 196.50Q304.50 196.50 306.75 222.75Q309 249 309 356Q309 463 304.50 515.50Q300 568 285 592Q268 619 231 619Q195 619 178 592Q153 552 153 356Q153 160 178 120Q195 93 231 93Q268 93 285 120Q300 144 304.50 196.50M369 770L269 770L269 870L369 870L369 770M194 770L94 770L94 870L194 870L194 770Z"  horiz-adv-x="462" vert-adv-y="1000"  />

      
      <glyph glyph-name="unid7" unicode="&#xd7;" d="M413 170L345 102L229 218L113 102L45 170L161 286L45 402L113 470L229 355L345 470L413 402L297 286L413 170Z"  horiz-adv-x="457" vert-adv-y="1000"  />

      
      <glyph glyph-name="unid8" unicode="&#xd8;" d="M421 356Q421 217 412 154.50Q403 92 369 53Q318-8 231-8Q184-8 144 11L125-44L51-44L88 59Q58 98 49.50 159.50Q41 221 41 356Q41 494 50.50 556.50Q60 619 93 659Q144 720 231 720Q281 720 318 700L338 756L412 756L375 651Q404 615 412.50 552.50Q421 490 421 356M153 356Q153 260 156 224L281 598Q263 619 231 619Q195 619 178 592Q153 552 153 356M309 356Q309 434 306 486L182 115Q196 93 231 93Q268 93 285 120Q300 144 304.50 196.50Q309 249 309 356Z"  horiz-adv-x="462" vert-adv-y="1000"  />

      
      <glyph glyph-name="unid9" unicode="&#xd9;" d="M417 175Q417 95 368 44Q317-8 236-8Q154-8 103 44Q54 95 54 175L54 712L166 712L166 169Q166 132 186 112.50Q206 93 236 93Q266 93 285.50 112.50Q305 132 305 169L305 712L417 712L417 175M281 760L207 760L119 899L209 899L281 760Z"  horiz-adv-x="471" vert-adv-y="1000"  />

      
      <glyph glyph-name="unida" unicode="&#xda;" d="M417 175Q417 95 368 44Q317-8 236-8Q154-8 103 44Q54 95 54 175L54 712L166 712L166 169Q166 132 186 112.50Q206 93 236 93Q266 93 285.50 112.50Q305 132 305 169L305 712L417 712L417 175M351 899L264 760L190 760L262 899L351 899Z"  horiz-adv-x="471" vert-adv-y="1000"  />

      
      <glyph glyph-name="unidb" unicode="&#xdb;" d="M417 175Q417 95 368 44Q317-8 236-8Q154-8 103 44Q54 95 54 175L54 712L166 712L166 169Q166 132 186 112.50Q206 93 236 93Q266 93 285.50 112.50Q305 132 305 169L305 712L417 712L417 175M376 760L295 760L235 842L176 760L95 760L194 899L277 899L376 760Z"  horiz-adv-x="471" vert-adv-y="1000"  />

      
      <glyph glyph-name="unidc" unicode="&#xdc;" d="M417 175Q417 95 368 44Q317-8 236-8Q154-8 103 44Q54 95 54 175L54 712L166 712L166 169Q166 132 186 112.50Q206 93 236 93Q266 93 285.50 112.50Q305 132 305 169L305 712L417 712L417 175M373 770L273 770L273 870L373 870L373 770M198 770L98 770L98 870L198 870L198 770Z"  horiz-adv-x="471" vert-adv-y="1000"  />

      
      <glyph glyph-name="unidd" unicode="&#xdd;" d="M388 712L250 279L250 0L138 0L138 279L0 712L124 712L194 430L265 712L388 712M312 899L225 760L151 760L223 899L312 899Z"  horiz-adv-x="389" vert-adv-y="1000"  />

      
      <glyph glyph-name="unide" unicode="&#xde;" d="M422 361Q422 248 378.50 195.50Q335 143 239 143L172 143L172 0L60 0L60 712L172 712L172 577L239 577Q335 577 378.50 525Q422 473 422 361M294 273Q294 273 302 287.50Q310 302 310 360Q310 418 294 447Q278 476 239 476L172 476L172 244L239 244Q278 244 294 273Z"  horiz-adv-x="459" vert-adv-y="1000"  />

      
      <glyph glyph-name="unidf" unicode="&#xdf;" d="M381 215Q381 170 379 145.50Q377 121 366.50 91Q356 61 334 40Q293 0 212 0L212 95Q244 95 257 112Q275 133 275 224Q275 306 260 329Q246 348 220 348L212 348L212 437L220 437Q240 437 254 454Q268 474 268 529Q268 584 253 607Q239 625 212 625Q188 625 173 608.50Q158 592 158 561L158 0L52 0L52 558Q52 634 97 677Q141 720 211 720Q286 720 327 679Q374 632 374 538Q374 471 357 437Q342 409 319 394Q345 376 358 353Q373 329 377 299.50Q381 270 381 215Z"  horiz-adv-x="416" vert-adv-y="1000"  />

      
      <glyph glyph-name="unie0" unicode="&#xe0;" d="M350 0L250 0L250 45Q232 20 218 10Q192-8 158-8Q97-8 59 36Q27 74 27 154Q27 229 76 272Q117 308 197 308L244 308L244 381Q244 442 193 442Q171 442 158 427Q142 410 142 378L36 378Q36 447 81 492Q124 535 192 535Q266 535 304 496Q350 450 350 372L350 0M244 155L244 233L209 233Q171 233 154 217Q133 198 133 158Q133 85 188 85Q212 85 228 104Q244 123 244 155M242 587L168 587L80 726L170 726L242 587Z"  horiz-adv-x="399" vert-adv-y="1000"  />

      
      <glyph glyph-name="unie1" unicode="&#xe1;" d="M350 0L250 0L250 45Q232 20 218 10Q192-8 158-8Q97-8 59 36Q27 74 27 154Q27 229 76 272Q117 308 197 308L244 308L244 381Q244 442 193 442Q171 442 158 427Q142 410 142 378L36 378Q36 447 81 492Q124 535 192 535Q266 535 304 496Q350 450 350 372L350 0M244 155L244 233L209 233Q171 233 154 217Q133 198 133 158Q133 85 188 85Q212 85 228 104Q244 123 244 155M313 726L225 587L151 587L223 726L313 726Z"  horiz-adv-x="399" vert-adv-y="1000"  />

      
      <glyph glyph-name="unie2" unicode="&#xe2;" d="M350 0L250 0L250 45Q232 20 218 10Q192-8 158-8Q97-8 59 36Q27 74 27 154Q27 229 76 272Q117 308 197 308L244 308L244 381Q244 442 193 442Q171 442 158 427Q142 410 142 378L36 378Q36 447 81 492Q124 535 192 535Q266 535 304 496Q350 450 350 372L350 0M244 155L244 233L209 233Q171 233 154 217Q133 198 133 158Q133 85 188 85Q212 85 228 104Q244 123 244 155M336 587L254 587L195 669L136 587L54 587L153 726L237 726L336 587Z"  horiz-adv-x="399" vert-adv-y="1000"  />

      
      <glyph glyph-name="unie3" unicode="&#xe3;" d="M350 0L250 0L250 45Q232 20 218 10Q192-8 158-8Q97-8 59 36Q27 74 27 154Q27 229 76 272Q117 308 197 308L244 308L244 381Q244 442 193 442Q171 442 158 427Q142 410 142 378L36 378Q36 447 81 492Q124 535 192 535Q266 535 304 496Q350 450 350 372L350 0M244 155L244 233L209 233Q171 233 154 217Q133 198 133 158Q133 85 188 85Q212 85 228 104Q244 123 244 155M342 642Q296 595 252 595Q222 595 191 612Q166 627 147 627Q124 627 101 604L55 650Q102 697 144 697Q177 697 206 680Q231 665 250 665Q273 665 295 688L342 642Z"  horiz-adv-x="399" vert-adv-y="1000"  />

      
      <glyph glyph-name="unie4" unicode="&#xe4;" d="M350 0L250 0L250 45Q232 20 218 10Q192-8 158-8Q97-8 59 36Q27 74 27 154Q27 229 76 272Q117 308 197 308L244 308L244 381Q244 442 193 442Q171 442 158 427Q142 410 142 378L36 378Q36 447 81 492Q124 535 192 535Q266 535 304 496Q350 450 350 372L350 0M244 155L244 233L209 233Q171 233 154 217Q133 198 133 158Q133 85 188 85Q212 85 228 104Q244 123 244 155M333 597L233 597L233 697L333 697L333 597M157 597L58 597L58 697L157 697L157 597Z"  horiz-adv-x="399" vert-adv-y="1000"  />

      
      <glyph glyph-name="unie5" unicode="&#xe5;" d="M350 0L250 0L250 45Q232 20 218 10Q192-8 158-8Q97-8 59 36Q27 74 27 154Q27 229 76 272Q117 308 197 308L244 308L244 381Q244 442 193 442Q171 442 158 427Q142 410 142 378L36 378Q36 447 81 492Q124 535 192 535Q266 535 304 496Q350 450 350 372L350 0M244 155L244 233L209 233Q171 233 154 217Q133 198 133 158Q133 85 188 85Q212 85 228 104Q244 123 244 155M300 689Q300 646 269 615.50Q238 585 195 585Q152 585 121.50 615.50Q91 646 91 689Q91 733 121.50 763.50Q152 794 195 794Q239 794 269.50 763.50Q300 733 300 689M227.50 657Q227.50 657 234.25 663.50Q241 670 241 689Q241 708 227.50 721.50Q214 735 195 735Q176 735 162.50 721.50Q149 708 149 689Q149 670 162.50 657Q176 644 195 644Q214 644 227.50 657Z"  horiz-adv-x="399" vert-adv-y="1000"  />

      
      <glyph glyph-name="unie6" unicode="&#xe6;" d="M244 155L244 233L209 233Q171 233 154 217Q133 198 133 158Q133 85 188 85Q212 85 228 104Q244 123 244 155M461 311Q461 398 446 420Q431 441 405 441Q379 441 364 420Q349 398 349 311L461 311M568 233L350 233Q350 131 366 108Q380 87 406 87Q432 87 447 108Q460 124 460 155L565 155Q562 79 521 34Q482-8 406-8Q352-8 317 18Q294 34 276 62Q255 29 234 14Q203-8 158-8Q97-8 59 36Q27 76 27 154Q27 229 76 272Q117 308 197 308L244 308L244 382Q244 411 230.50 426.50Q217 442 193 442Q169 442 156 426Q142 409 142 378L36 378Q36 447 81 492Q124 535 192 535Q249 535 280 511Q289 503 299 490Q305 499 315 507Q352 535 406 535Q477 535 519 493Q548 464 558 402Q568 340 568 233Z"  horiz-adv-x="602" vert-adv-y="1000"  />

      
      <glyph glyph-name="unie7" unicode="&#xe7;" d="M356 155Q351 72 310 31Q271-8 198-8Q113-8 73 48Q36 98 36 264Q36 428 73 480Q113 535 198 535Q268 535 309 497Q351 457 356 373L251 373Q249 407 237 422Q224 441 198 441Q171 441 157 419Q142 393 142 264Q142 135 157 108Q170 87 198 87Q224 87 237 105Q249 122 251 155L356 155M243-40L190-194L114-194L175-40L243-40Z"  horiz-adv-x="384" vert-adv-y="1000"  />

      
      <glyph glyph-name="unie8" unicode="&#xe8;" d="M360 233L142 233Q142 133 158 108Q172 87 199 87Q225 87 239 107Q252 123 252 155L358 155Q355 78 313 34Q274-8 199-8Q127-8 85 35Q55 66 45.50 122Q36 178 36 264Q36 350 45.50 406Q55 462 85 493Q126 535 198 535Q269 535 311 493Q340 464 350 402Q360 340 360 233M254 311Q254 398 239 420Q224 441 198 441Q172 441 157 420Q142 398 142 311L254 311M245 587L171 587L83 726L173 726L245 587Z"  horiz-adv-x="394" vert-adv-y="1000"  />

      
      <glyph glyph-name="unie9" unicode="&#xe9;" d="M360 233L142 233Q142 133 158 108Q172 87 199 87Q225 87 239 107Q252 123 252 155L358 155Q355 78 313 34Q274-8 199-8Q127-8 85 35Q55 66 45.50 122Q36 178 36 264Q36 350 45.50 406Q55 462 85 493Q126 535 198 535Q269 535 311 493Q340 464 350 402Q360 340 360 233M254 311Q254 398 239 420Q224 441 198 441Q172 441 157 420Q142 398 142 311L254 311M316 726L228 587L154 587L226 726L316 726Z"  horiz-adv-x="394" vert-adv-y="1000"  />

      
      <glyph glyph-name="uniea" unicode="&#xea;" d="M360 233L142 233Q142 133 158 108Q172 87 199 87Q225 87 239 107Q252 123 252 155L358 155Q355 78 313 34Q274-8 199-8Q127-8 85 35Q55 66 45.50 122Q36 178 36 264Q36 350 45.50 406Q55 462 85 493Q126 535 198 535Q269 535 311 493Q340 464 350 402Q360 340 360 233M254 311Q254 398 239 420Q224 441 198 441Q172 441 157 420Q142 398 142 311L254 311M339 587L257 587L198 669L139 587L57 587L156 726L240 726L339 587Z"  horiz-adv-x="394" vert-adv-y="1000"  />

      
      <glyph glyph-name="unieb" unicode="&#xeb;" d="M360 233L142 233Q142 133 158 108Q172 87 199 87Q225 87 239 107Q252 123 252 155L358 155Q355 78 313 34Q274-8 199-8Q127-8 85 35Q55 66 45.50 122Q36 178 36 264Q36 350 45.50 406Q55 462 85 493Q126 535 198 535Q269 535 311 493Q340 464 350 402Q360 340 360 233M254 311Q254 398 239 420Q224 441 198 441Q172 441 157 420Q142 398 142 311L254 311M336 597L236 597L236 697L336 697L336 597M160 597L61 597L61 697L160 697L160 597Z"  horiz-adv-x="394" vert-adv-y="1000"  />

      
      <glyph glyph-name="uniec" unicode="&#xec;" d="M158 0L52 0L52 513L158 513L158 0M151 587L77 587L-11 726L79 726L151 587Z"  horiz-adv-x="210" vert-adv-y="1000"  />

      
      <glyph glyph-name="unied" unicode="&#xed;" d="M158 0L52 0L52 513L158 513L158 0M223 726L135 587L61 587L133 726L223 726Z"  horiz-adv-x="210" vert-adv-y="1000"  />

      
      <glyph glyph-name="uniee" unicode="&#xee;" d="M158 0L52 0L52 513L158 513L158 0M246 587L164 587L105 669L46 587L-36 587L63 726L147 726L246 587Z"  horiz-adv-x="210" vert-adv-y="1000"  />

      
      <glyph glyph-name="unief" unicode="&#xef;" d="M158 0L52 0L52 513L158 513L158 0M244 597L144 597L144 697L244 697L244 597M68 597L-31 597L-31 697L68 697L68 597Z"  horiz-adv-x="210" vert-adv-y="1000"  />

      
      <glyph glyph-name="unif0" unicode="&#xf0;" d="M362 243Q362 94 323 44Q283-8 199-8Q116-8 76 44Q37 94 37 243Q37 334 44 381.50Q51 429 75 456Q109 494 169 494Q204 494 229 477L199 569L124 569L124 647L175 647L152 712L259 712L281 647L351 647L351 569L304 569L335 468Q362 378 362 243M256 245Q256 359 240 384Q228 404 199 404Q171 404 159 384Q143 359 143 245Q143 132 159 107Q171 87 199 87Q228 87 240 107Q256 132 256 245Z"  horiz-adv-x="400" vert-adv-y="1000"  />

      
      <glyph glyph-name="unif1" unicode="&#xf1;" d="M368 0L262 0L262 379Q262 409 247.50 424.50Q233 440 210 440Q187 440 172.50 424.50Q158 409 158 379L158 0L52 0L52 527L154 527L154 488Q172 512 189 521Q212 535 242 535Q303 535 338 494Q368 460 368 380L368 0M358 642Q312 595 268 595Q238 595 207 612Q182 627 163 627Q140 627 117 604L71 650Q118 697 160 697Q193 697 222 680Q247 665 266 665Q289 665 311 688L358 642Z"  horiz-adv-x="417" vert-adv-y="1000"  />

      
      <glyph glyph-name="unif2" unicode="&#xf2;" d="M323 480Q360 428 360 264Q360 100 323 48Q283-8 198-8Q113-8 73 48Q36 100 36 264Q36 428 73 480Q113 535 198 535Q283 535 323 480M254 264Q254 393 239 419Q225 441 198 441Q171 441 157 419Q142 393 142 264Q142 134 157 108Q170 87 198 87Q226 87 239 108Q254 134 254 264M245 587L171 587L83 726L173 726L245 587Z"  horiz-adv-x="396" vert-adv-y="1000"  />

      
      <glyph glyph-name="unif3" unicode="&#xf3;" d="M323 480Q360 428 360 264Q360 100 323 48Q283-8 198-8Q113-8 73 48Q36 100 36 264Q36 428 73 480Q113 535 198 535Q283 535 323 480M254 264Q254 393 239 419Q225 441 198 441Q171 441 157 419Q142 393 142 264Q142 134 157 108Q170 87 198 87Q226 87 239 108Q254 134 254 264M316 726L228 587L154 587L226 726L316 726Z"  horiz-adv-x="396" vert-adv-y="1000"  />

      
      <glyph glyph-name="unif4" unicode="&#xf4;" d="M323 480Q360 428 360 264Q360 100 323 48Q283-8 198-8Q113-8 73 48Q36 100 36 264Q36 428 73 480Q113 535 198 535Q283 535 323 480M254 264Q254 393 239 419Q225 441 198 441Q171 441 157 419Q142 393 142 264Q142 134 157 108Q170 87 198 87Q226 87 239 108Q254 134 254 264M339 587L257 587L198 669L139 587L57 587L156 726L240 726L339 587Z"  horiz-adv-x="396" vert-adv-y="1000"  />

      
      <glyph glyph-name="unif5" unicode="&#xf5;" d="M323 480Q360 428 360 264Q360 100 323 48Q283-8 198-8Q113-8 73 48Q36 100 36 264Q36 428 73 480Q113 535 198 535Q283 535 323 480M254 264Q254 393 239 419Q225 441 198 441Q171 441 157 419Q142 393 142 264Q142 134 157 108Q170 87 198 87Q226 87 239 108Q254 134 254 264M345 642Q299 595 255 595Q225 595 194 612Q169 627 150 627Q127 627 104 604L58 650Q105 697 147 697Q180 697 209 680Q234 665 253 665Q276 665 298 688L345 642Z"  horiz-adv-x="396" vert-adv-y="1000"  />

      
      <glyph glyph-name="unif6" unicode="&#xf6;" d="M323 480Q360 428 360 264Q360 100 323 48Q283-8 198-8Q113-8 73 48Q36 100 36 264Q36 428 73 480Q113 535 198 535Q283 535 323 480M254 264Q254 393 239 419Q225 441 198 441Q171 441 157 419Q142 393 142 264Q142 134 157 108Q170 87 198 87Q226 87 239 108Q254 134 254 264M336 597L236 597L236 697L336 697L336 597M160 597L61 597L61 697L160 697L160 597Z"  horiz-adv-x="396" vert-adv-y="1000"  />

      
      <glyph glyph-name="unif7" unicode="&#xf7;" d="M413 229L44 229L44 330L413 330L413 229M291 32L167 32L167 155L291 155L291 32M291 403L167 403L167 526L291 526L291 403Z"  horiz-adv-x="457" vert-adv-y="1000"  />

      
      <glyph glyph-name="unif8" unicode="&#xf8;" d="M367 571L326 476Q360 426 360 264Q360 100 323 48Q283-8 198-8Q151-8 121 7L100-44L29-44L70 52Q36 102 36 264Q36 428 73 480Q113 535 198 535Q245 535 275 520L296 571L367 571M235 429Q221 445 198 445Q170 445 157 423Q141 396 141 264Q141 219 144 204L235 429M255 264Q255 313 252 323L161 98Q175 82 198 82Q225 82 239 105Q255 132 255 264Z"  horiz-adv-x="394" vert-adv-y="1000"  />

      
      <glyph glyph-name="unif9" unicode="&#xf9;" d="M365 0L264 0L264 40Q247 17 228 7Q203-8 175-8Q114-8 79 33Q49 67 49 147L49 527L155 527L155 148Q155 118 169.50 102.50Q184 87 207 87Q230 87 244.50 102.50Q259 118 259 148L259 527L365 527L365 0M254 587L180 587L92 726L182 726L254 587Z"  horiz-adv-x="417" vert-adv-y="1000"  />

      
      <glyph glyph-name="unifa" unicode="&#xfa;" d="M365 0L264 0L264 40Q247 17 228 7Q203-8 175-8Q114-8 79 33Q49 67 49 147L49 527L155 527L155 148Q155 118 169.50 102.50Q184 87 207 87Q230 87 244.50 102.50Q259 118 259 148L259 527L365 527L365 0M325 726L237 587L163 587L235 726L325 726Z"  horiz-adv-x="417" vert-adv-y="1000"  />

      
      <glyph glyph-name="unifb" unicode="&#xfb;" d="M365 0L264 0L264 40Q247 17 228 7Q203-8 175-8Q114-8 79 33Q49 67 49 147L49 527L155 527L155 148Q155 118 169.50 102.50Q184 87 207 87Q230 87 244.50 102.50Q259 118 259 148L259 527L365 527L365 0M348 587L266 587L207 669L148 587L66 587L165 726L249 726L348 587Z"  horiz-adv-x="417" vert-adv-y="1000"  />

      
      <glyph glyph-name="unifc" unicode="&#xfc;" d="M365 0L264 0L264 40Q247 17 228 7Q203-8 175-8Q114-8 79 33Q49 67 49 147L49 527L155 527L155 148Q155 118 169.50 102.50Q184 87 207 87Q230 87 244.50 102.50Q259 118 259 148L259 527L365 527L365 0M345 597L245 597L245 697L345 697L345 597M169 597L70 597L70 697L169 697L169 597Z"  horiz-adv-x="417" vert-adv-y="1000"  />

      
      <glyph glyph-name="unifd" unicode="&#xfd;" d="M377 527L229-67Q211-140 163.50-162.50Q116-185 32-185L32-91Q60-90 75-87.50Q90-85 105-72.50Q120-60 126-36L135 1L4 527L121 527L191 168L260 527L377 527M311 726L223 587L149 587L221 726L311 726Z"  horiz-adv-x="382" vert-adv-y="1000"  />

      
      <glyph glyph-name="unife" unicode="&#xfe;" d="M374 264Q374 165 367 113.50Q360 62 336 33Q303-8 244-8Q215-8 190 6Q173 17 159 34L159-185L53-185L53 712L155 712L155 488Q165 505 190 521Q215 535 244 535Q303 535 336 494Q360 465 367 413.50Q374 362 374 264M268 264Q268 398 251 420Q235 441 211 441Q190 441 175 426Q159 410 159 377L159 150Q159 119 175 101Q189 87 211 87Q236 87 251 107Q268 129 268 264Z"  horiz-adv-x="411" vert-adv-y="1000"  />

      
      <glyph glyph-name="uniff" unicode="&#xff;" d="M377 527L229-67Q211-140 163.50-162.50Q116-185 32-185L32-91Q60-90 75-87.50Q90-85 105-72.50Q120-60 126-36L135 1L4 527L121 527L191 168L260 527L377 527M331 597L231 597L231 697L331 697L331 597M155 597L56 597L56 697L155 697L155 597Z"  horiz-adv-x="382" vert-adv-y="1000"  />

      
      <glyph glyph-name="uni0100" unicode="&#x0100;" d="M462 0L345 0L316 141L151 141L123 0L5 0L180 712L289 712L462 0M295 242L234 540L173 242L295 242M357 776L112 776L112 846L357 846L357 776Z"  horiz-adv-x="468" vert-adv-y="1000"  />

      
      <glyph glyph-name="uni0101" unicode="&#x0101;" d="M350 0L250 0L250 45Q232 20 218 10Q192-8 158-8Q97-8 59 36Q27 74 27 154Q27 229 76 272Q117 308 197 308L244 308L244 381Q244 442 193 442Q171 442 158 427Q142 410 142 378L36 378Q36 447 81 492Q124 535 192 535Q266 535 304 496Q350 450 350 372L350 0M244 155L244 233L209 233Q171 233 154 217Q133 198 133 158Q133 85 188 85Q212 85 228 104Q244 123 244 155M318 604L72 604L72 675L318 675L318 604Z"  horiz-adv-x="399" vert-adv-y="1000"  />

      
      <glyph glyph-name="uni0102" unicode="&#x0102;" d="M462 0L345 0L316 141L151 141L123 0L5 0L180 712L289 712L462 0M295 242L234 540L173 242L295 242M359 875Q357 814 322 785Q287 756 234 756Q181 756 146.50 785Q112 814 110 875L181 875Q185 829 234 829Q284 829 288 875L359 875Z"  horiz-adv-x="468" vert-adv-y="1000"  />

      
      <glyph glyph-name="uni0103" unicode="&#x0103;" d="M350 0L250 0L250 45Q232 20 218 10Q192-8 158-8Q97-8 59 36Q27 74 27 154Q27 229 76 272Q117 308 197 308L244 308L244 381Q244 442 193 442Q171 442 158 427Q142 410 142 378L36 378Q36 447 81 492Q124 535 192 535Q266 535 304 496Q350 450 350 372L350 0M244 155L244 233L209 233Q171 233 154 217Q133 198 133 158Q133 85 188 85Q212 85 228 104Q244 123 244 155M320 703Q318 642 283 613Q248 584 195 584Q142 584 107.50 613Q73 642 70 703L142 703Q146 657 195 657Q244 657 248 703L320 703Z"  horiz-adv-x="399" vert-adv-y="1000"  />

      
      <glyph glyph-name="uni0104" unicode="&#x0104;" d="M462 0L345 0L316 141L151 141L123 0L5 0L180 712L289 712L462 0M295 242L234 540L173 242L295 242M449-40L396-194L320-194L381-40L449-40Z"  horiz-adv-x="468" vert-adv-y="1000"  />

      
      <glyph glyph-name="uni0105" unicode="&#x0105;" d="M350 0L250 0L250 45Q232 20 218 10Q192-8 158-8Q97-8 59 36Q27 74 27 154Q27 229 76 272Q117 308 197 308L244 308L244 381Q244 442 193 442Q171 442 158 427Q142 410 142 378L36 378Q36 447 81 492Q124 535 192 535Q266 535 304 496Q350 450 350 372L350 0M244 155L244 233L209 233Q171 233 154 217Q133 198 133 158Q133 85 188 85Q212 85 228 104Q244 123 244 155M333-40L280-194L204-194L265-40L333-40Z"  horiz-adv-x="399" vert-adv-y="1000"  />

      
      <glyph glyph-name="uni0106" unicode="&#x0106;" d="M413 189Q410 88 354 37Q306-8 231-8Q144-8 93 53Q60 93 50.50 155.50Q41 218 41 356Q41 494 50.50 556.50Q60 619 93 659Q144 720 231 720Q307 720 356 674Q410 625 413 524L301 524Q299 572 284 593Q268 619 231 619Q195 619 178 592Q163 568 158 515.50Q153 463 153 356Q153 249 158 196.50Q163 144 178 120Q195 93 231 93Q268 93 284 119Q299 142 301 189L413 189M347 899L260 760L186 760L258 899L347 899Z"  horiz-adv-x="447" vert-adv-y="1000"  />

      
      <glyph glyph-name="uni0107" unicode="&#x0107;" d="M356 155Q351 72 310 31Q271-8 198-8Q113-8 73 48Q36 98 36 264Q36 428 73 480Q113 535 198 535Q268 535 309 497Q351 457 356 373L251 373Q249 407 237 422Q224 441 198 441Q171 441 157 419Q142 393 142 264Q142 135 157 108Q170 87 198 87Q224 87 237 105Q249 122 251 155L356 155M316 726L228 587L154 587L226 726L316 726Z"  horiz-adv-x="384" vert-adv-y="1000"  />

      
      <glyph glyph-name="uni0108" unicode="&#x0108;" d="M413 189Q410 88 354 37Q306-8 231-8Q144-8 93 53Q60 93 50.50 155.50Q41 218 41 356Q41 494 50.50 556.50Q60 619 93 659Q144 720 231 720Q307 720 356 674Q410 625 413 524L301 524Q299 572 284 593Q268 619 231 619Q195 619 178 592Q163 568 158 515.50Q153 463 153 356Q153 249 158 196.50Q163 144 178 120Q195 93 231 93Q268 93 284 119Q299 142 301 189L413 189M372 760L291 760L231 842L172 760L91 760L190 899L273 899L372 760Z"  horiz-adv-x="447" vert-adv-y="1000"  />

      
      <glyph glyph-name="uni0109" unicode="&#x0109;" d="M356 155Q351 72 310 31Q271-8 198-8Q113-8 73 48Q36 98 36 264Q36 428 73 480Q113 535 198 535Q268 535 309 497Q351 457 356 373L251 373Q249 407 237 422Q224 441 198 441Q171 441 157 419Q142 393 142 264Q142 135 157 108Q170 87 198 87Q224 87 237 105Q249 122 251 155L356 155M339 587L257 587L198 669L139 587L57 587L156 726L240 726L339 587Z"  horiz-adv-x="384" vert-adv-y="1000"  />

      
      <glyph glyph-name="uni010A" unicode="&#x010A;" d="M413 189Q410 88 354 37Q306-8 231-8Q144-8 93 53Q60 93 50.50 155.50Q41 218 41 356Q41 494 50.50 556.50Q60 619 93 659Q144 720 231 720Q307 720 356 674Q410 625 413 524L301 524Q299 572 284 593Q268 619 231 619Q195 619 178 592Q163 568 158 515.50Q153 463 153 356Q153 249 158 196.50Q163 144 178 120Q195 93 231 93Q268 93 284 119Q299 142 301 189L413 189M281 770L182 770L182 870L281 870L281 770Z"  horiz-adv-x="447" vert-adv-y="1000"  />

      
      <glyph glyph-name="uni010B" unicode="&#x010B;" d="M356 155Q351 72 310 31Q271-8 198-8Q113-8 73 48Q36 98 36 264Q36 428 73 480Q113 535 198 535Q268 535 309 497Q351 457 356 373L251 373Q249 407 237 422Q224 441 198 441Q171 441 157 419Q142 393 142 264Q142 135 157 108Q170 87 198 87Q224 87 237 105Q249 122 251 155L356 155M248 598L148 598L148 698L248 698L248 598Z"  horiz-adv-x="384" vert-adv-y="1000"  />

      
      <glyph glyph-name="uni010C" unicode="&#x010C;" d="M413 189Q410 88 354 37Q306-8 231-8Q144-8 93 53Q60 93 50.50 155.50Q41 218 41 356Q41 494 50.50 556.50Q60 619 93 659Q144 720 231 720Q307 720 356 674Q410 625 413 524L301 524Q299 572 284 593Q268 619 231 619Q195 619 178 592Q163 568 158 515.50Q153 463 153 356Q153 249 158 196.50Q163 144 178 120Q195 93 231 93Q268 93 284 119Q299 142 301 189L413 189M372 897L273 757L190 757L91 897L172 897L231 815L291 897L372 897Z"  horiz-adv-x="447" vert-adv-y="1000"  />

      
      <glyph glyph-name="uni010D" unicode="&#x010D;" d="M356 155Q351 72 310 31Q271-8 198-8Q113-8 73 48Q36 98 36 264Q36 428 73 480Q113 535 198 535Q268 535 309 497Q351 457 356 373L251 373Q249 407 237 422Q224 441 198 441Q171 441 157 419Q142 393 142 264Q142 135 157 108Q170 87 198 87Q224 87 237 105Q249 122 251 155L356 155M339 724L240 584L156 584L57 724L139 724L198 642L257 724L339 724Z"  horiz-adv-x="384" vert-adv-y="1000"  />

      
      <glyph glyph-name="uni010E" unicode="&#x010E;" d="M422 554.50Q422 554.50 426.50 523.75Q431 493 431 357Q431 221 422 158.50Q413 96 379 59Q327 0 241 0L60 0L60 712L241 712Q327 712 379 653Q413 616 422 554.50M319 357Q319 461 314.50 510Q310 559 295 582Q276 611 238 611L172 611L172 101L238 101Q276 101 295 130Q310 153 314.50 202.50Q319 252 319 357M375 897L276 757L193 757L94 897L175 897L234 815L294 897L375 897Z"  horiz-adv-x="472" vert-adv-y="1000"  />

      
      <glyph glyph-name="uni010F" unicode="&#x010F;" d="M356 0L254 0L254 40Q246 22 219 7Q196-8 166-8Q107-8 73 33Q49 62 42.50 113Q36 164 36 264Q36 364 42.50 414.50Q49 465 73 494Q107 535 166 535Q196 535 219 521Q234 513 250 493L250 712L356 712L356 0M250 150L250 377Q250 410 234 426Q219 441 198 441Q174 441 159 420Q142 398 142 264Q142 129 159 107Q173 87 198 87Q220 87 234 101Q250 117 250 150M500 741L464 587L397 587L421 741L500 741Z"  horiz-adv-x="408" vert-adv-y="1000"  />

      
      <glyph glyph-name="uni0110" unicode="&#x0110;" d="M439 554.50Q439 554.50 443.50 523.75Q448 493 448 357Q448 221 439 158.50Q430 96 396 59Q344 0 258 0L77 0L77 314L26 314L26 402L77 402L77 712L258 712Q344 712 396 653Q430 616 439 554.50M336 357Q336 461 331.50 510Q327 559 312 582Q293 611 255 611L189 611L189 402L259 402L259 314L189 314L189 101L255 101Q293 101 312 130Q327 153 331.50 202.50Q336 252 336 357Z"  horiz-adv-x="489" vert-adv-y="1000"  />

      
      <glyph glyph-name="uni0111" unicode="&#x0111;" d="M356 0L254 0L254 40Q246 22 219 7Q196-8 166-8Q107-8 73 33Q49 62 42.50 113Q36 164 36 264Q36 364 42.50 414.50Q49 465 73 494Q107 535 166 535Q196 535 219 521Q234 513 250 493L250 580L164 580L164 647L250 647L250 712L356 712L356 647L405 647L405 580L356 580L356 0M250 150L250 377Q250 411 234 426Q220 441 198 441Q174 441 159 420Q142 398 142 264Q142 129 159 107Q173 87 198 87Q220 87 234 101Q250 117 250 150Z"  horiz-adv-x="425" vert-adv-y="1000"  />

      
      <glyph glyph-name="uni0112" unicode="&#x0112;" d="M359 0L60 0L60 712L359 712L359 611L172 611L172 409L333 409L333 308L172 308L172 101L359 101L359 0M336 776L91 776L91 846L336 846L336 776Z"  horiz-adv-x="396" vert-adv-y="1000"  />

      
      <glyph glyph-name="uni0113" unicode="&#x0113;" d="M360 233L142 233Q142 133 158 108Q172 87 199 87Q225 87 239 107Q252 123 252 155L358 155Q355 78 313 34Q274-8 199-8Q127-8 85 35Q55 66 45.50 122Q36 178 36 264Q36 350 45.50 406Q55 462 85 493Q126 535 198 535Q269 535 311 493Q340 464 350 402Q360 340 360 233M254 311Q254 398 239 420Q224 441 198 441Q172 441 157 420Q142 398 142 311L254 311M321 604L75 604L75 675L321 675L321 604Z"  horiz-adv-x="394" vert-adv-y="1000"  />

      
      <glyph glyph-name="uni0114" unicode="&#x0114;" d="M359 0L60 0L60 712L359 712L359 611L172 611L172 409L333 409L333 308L172 308L172 101L359 101L359 0M338 875Q336 814 301 785Q266 756 213 756Q160 756 125.50 785Q91 814 89 875L160 875Q164 829 213 829Q263 829 267 875L338 875Z"  horiz-adv-x="396" vert-adv-y="1000"  />

      
      <glyph glyph-name="uni0115" unicode="&#x0115;" d="M360 233L142 233Q142 133 158 108Q172 87 199 87Q225 87 239 107Q252 123 252 155L358 155Q355 78 313 34Q274-8 199-8Q127-8 85 35Q55 66 45.50 122Q36 178 36 264Q36 350 45.50 406Q55 462 85 493Q126 535 198 535Q269 535 311 493Q340 464 350 402Q360 340 360 233M254 311Q254 398 239 420Q224 441 198 441Q172 441 157 420Q142 398 142 311L254 311M323 703Q321 642 286 613Q251 584 198 584Q145 584 110.50 613Q76 642 73 703L145 703Q149 657 198 657Q247 657 251 703L323 703Z"  horiz-adv-x="394" vert-adv-y="1000"  />

      
      <glyph glyph-name="uni0116" unicode="&#x0116;" d="M359 0L60 0L60 712L359 712L359 611L172 611L172 409L333 409L333 308L172 308L172 101L359 101L359 0M263 770L164 770L164 870L263 870L263 770Z"  horiz-adv-x="396" vert-adv-y="1000"  />

      
      <glyph glyph-name="uni0117" unicode="&#x0117;" d="M360 233L142 233Q142 133 158 108Q172 87 199 87Q225 87 239 107Q252 123 252 155L358 155Q355 78 313 34Q274-8 199-8Q127-8 85 35Q55 66 45.50 122Q36 178 36 264Q36 350 45.50 406Q55 462 85 493Q126 535 198 535Q269 535 311 493Q340 464 350 402Q360 340 360 233M254 311Q254 398 239 420Q224 441 198 441Q172 441 157 420Q142 398 142 311L254 311M248 598L148 598L148 698L248 698L248 598Z"  horiz-adv-x="394" vert-adv-y="1000"  />

      
      <glyph glyph-name="uni0118" unicode="&#x0118;" d="M359 0L60 0L60 712L359 712L359 611L172 611L172 409L333 409L333 308L172 308L172 101L359 101L359 0M353-40L300-194L224-194L285-40L353-40Z"  horiz-adv-x="396" vert-adv-y="1000"  />

      
      <glyph glyph-name="uni0119" unicode="&#x0119;" d="M360 233L142 233Q142 133 158 108Q172 87 199 87Q225 87 239 107Q252 123 252 155L358 155Q355 78 313 34Q274-8 199-8Q127-8 85 35Q55 66 45.50 122Q36 178 36 264Q36 350 45.50 406Q55 462 85 493Q126 535 198 535Q269 535 311 493Q340 464 350 402Q360 340 360 233M254 311Q254 398 239 420Q224 441 198 441Q172 441 157 420Q142 398 142 311L254 311M285-40L232-194L156-194L217-40L285-40Z"  horiz-adv-x="394" vert-adv-y="1000"  />

      
      <glyph glyph-name="uni011A" unicode="&#x011A;" d="M359 0L60 0L60 712L359 712L359 611L172 611L172 409L333 409L333 308L172 308L172 101L359 101L359 0M354 897L255 757L172 757L73 897L154 897L213 815L273 897L354 897Z"  horiz-adv-x="396" vert-adv-y="1000"  />

      
      <glyph glyph-name="uni011B" unicode="&#x011B;" d="M360 233L142 233Q142 133 158 108Q172 87 199 87Q225 87 239 107Q252 123 252 155L358 155Q355 78 313 34Q274-8 199-8Q127-8 85 35Q55 66 45.50 122Q36 178 36 264Q36 350 45.50 406Q55 462 85 493Q126 535 198 535Q269 535 311 493Q340 464 350 402Q360 340 360 233M254 311Q254 398 239 420Q224 441 198 441Q172 441 157 420Q142 398 142 311L254 311M339 724L240 584L156 584L57 724L139 724L198 642L257 724L339 724Z"  horiz-adv-x="394" vert-adv-y="1000"  />

      
      <glyph glyph-name="uni011C" unicode="&#x011C;" d="M413 190Q413 95 363.50 43.50Q314-8 231-8Q144-8 93 53Q60 93 50.50 155.50Q41 218 41 356Q41 494 50.50 556.50Q60 619 93 659Q144 720 231 720Q310 720 358 672Q410 619 413 523L301 523Q299 619 231 619Q195 619 178 592Q163 568 158 515.50Q153 463 153 356Q153 249 158 196.50Q163 144 178 120Q195 93 231 93Q266 93 283.50 118.50Q301 144 301 184L301 295L231 295L231 387L413 387L413 190M372 760L291 760L231 842L172 760L91 760L190 899L273 899L372 760Z"  horiz-adv-x="455" vert-adv-y="1000"  />

      
      <glyph glyph-name="uni011D" unicode="&#x011D;" d="M356 527L356-10Q356-102 311-147Q268-190 197-190Q124-190 83-149Q39-106 39-33L144-33Q144-65 158-83Q171-99 197-99Q221-99 235-82Q250-63 250-17L250 74Q237 57 221 46Q200 32 168 32Q113 32 78 71Q53 100 44.50 147Q36 194 36 284Q36 373 44.50 420Q53 467 78 496Q113 535 168 535Q202 535 223 521Q241 509 254 493L254 527L356 527M250 187L250 377Q250 410 234 426Q219 441 198 441Q174 441 159 420Q142 398 142 282Q142 166 159 144Q176 124 198 124Q220 124 234 138Q250 154 250 187M339 587L257 587L198 669L139 587L57 587L156 726L240 726L339 587Z"  horiz-adv-x="408" vert-adv-y="1000"  />

      
      <glyph glyph-name="uni011E" unicode="&#x011E;" d="M413 190Q413 95 363.50 43.50Q314-8 231-8Q144-8 93 53Q60 93 50.50 155.50Q41 218 41 356Q41 494 50.50 556.50Q60 619 93 659Q144 720 231 720Q310 720 358 672Q410 619 413 523L301 523Q299 619 231 619Q195 619 178 592Q163 568 158 515.50Q153 463 153 356Q153 249 158 196.50Q163 144 178 120Q195 93 231 93Q266 93 283.50 118.50Q301 144 301 184L301 295L231 295L231 387L413 387L413 190M356 875Q354 814 319 785Q284 756 231 756Q178 756 143.50 785Q109 814 107 875L178 875Q182 829 231 829Q281 829 285 875L356 875Z"  horiz-adv-x="455" vert-adv-y="1000"  />

      
      <glyph glyph-name="uni011F" unicode="&#x011F;" d="M356 527L356-10Q356-102 311-147Q268-190 197-190Q124-190 83-149Q39-106 39-33L144-33Q144-65 158-83Q171-99 197-99Q221-99 235-82Q250-63 250-17L250 74Q237 57 221 46Q200 32 168 32Q113 32 78 71Q53 100 44.50 147Q36 194 36 284Q36 373 44.50 420Q53 467 78 496Q113 535 168 535Q202 535 223 521Q241 509 254 493L254 527L356 527M250 187L250 377Q250 410 234 426Q219 441 198 441Q174 441 159 420Q142 398 142 282Q142 166 159 144Q176 124 198 124Q220 124 234 138Q250 154 250 187M323 703Q321 642 286 613Q251 584 198 584Q145 584 110.50 613Q76 642 73 703L145 703Q149 657 198 657Q247 657 251 703L323 703Z"  horiz-adv-x="408" vert-adv-y="1000"  />

      
      <glyph glyph-name="uni0120" unicode="&#x0120;" d="M413 190Q413 95 363.50 43.50Q314-8 231-8Q144-8 93 53Q60 93 50.50 155.50Q41 218 41 356Q41 494 50.50 556.50Q60 619 93 659Q144 720 231 720Q310 720 358 672Q410 619 413 523L301 523Q299 619 231 619Q195 619 178 592Q163 568 158 515.50Q153 463 153 356Q153 249 158 196.50Q163 144 178 120Q195 93 231 93Q266 93 283.50 118.50Q301 144 301 184L301 295L231 295L231 387L413 387L413 190M281 770L182 770L182 870L281 870L281 770Z"  horiz-adv-x="455" vert-adv-y="1000"  />

      
      <glyph glyph-name="uni0121" unicode="&#x0121;" d="M356 527L356-10Q356-102 311-147Q268-190 197-190Q124-190 83-149Q39-106 39-33L144-33Q144-65 158-83Q171-99 197-99Q221-99 235-82Q250-63 250-17L250 74Q237 57 221 46Q200 32 168 32Q113 32 78 71Q53 100 44.50 147Q36 194 36 284Q36 373 44.50 420Q53 467 78 496Q113 535 168 535Q202 535 223 521Q241 509 254 493L254 527L356 527M250 187L250 377Q250 410 234 426Q219 441 198 441Q174 441 159 420Q142 398 142 282Q142 166 159 144Q176 124 198 124Q220 124 234 138Q250 154 250 187M248 598L148 598L148 698L248 698L248 598Z"  horiz-adv-x="408" vert-adv-y="1000"  />

      
      <glyph glyph-name="uni0122" unicode="&#x0122;" d="M413 190Q413 95 363.50 43.50Q314-8 231-8Q144-8 93 53Q60 93 50.50 155.50Q41 218 41 356Q41 494 50.50 556.50Q60 619 93 659Q144 720 231 720Q310 720 358 672Q410 619 413 523L301 523Q299 619 231 619Q195 619 178 592Q163 568 158 515.50Q153 463 153 356Q153 249 158 196.50Q163 144 178 120Q195 93 231 93Q266 93 283.50 118.50Q301 144 301 184L301 295L231 295L231 387L413 387L413 190M267-40L214-194L138-194L199-40L267-40Z"  horiz-adv-x="455" vert-adv-y="1000"  />

      
      <glyph glyph-name="uni0123" unicode="&#x0123;" d="M356 527L356-10Q356-102 311-147Q268-190 197-190Q124-190 83-149Q39-106 39-33L144-33Q144-65 158-83Q171-99 197-99Q221-99 235-82Q250-63 250-17L250 74Q237 57 221 46Q200 32 168 32Q113 32 78 71Q53 100 44.50 147Q36 194 36 284Q36 373 44.50 420Q53 467 78 496Q113 535 168 535Q202 535 223 521Q241 509 254 493L254 527L356 527M250 187L250 377Q250 410 234 426Q219 441 198 441Q174 441 159 420Q142 398 142 282Q142 166 159 144Q176 124 198 124Q220 124 234 138Q250 154 250 187M168 587L221 741L297 741L236 587L168 587Z"  horiz-adv-x="408" vert-adv-y="1000"  />

      
      <glyph glyph-name="uni0124" unicode="&#x0124;" d="M423 0L311 0L311 311L172 311L172 0L60 0L60 712L172 712L172 412L311 412L311 712L423 712L423 0M382 760L301 760L241 842L182 760L101 760L200 899L283 899L382 760Z"  horiz-adv-x="483" vert-adv-y="1000"  />

      
      <glyph glyph-name="uni0125" unicode="&#x0125;" d="M368 0L262 0L262 379Q262 409 247.50 424.50Q233 440 210 440Q187 440 172.50 424.50Q158 409 158 379L158 0L52 0L52 712L158 712L158 493Q171 511 189 521Q212 535 242 535Q303 535 338 494Q368 460 368 380L368 0M248 759L166 759L107 841L48 759L-34 759L65 898L149 898L248 759Z"  horiz-adv-x="417" vert-adv-y="1000"  />

      
      <glyph glyph-name="uni0126" unicode="&#x0126;" d="M490 517L440 517L440 0L327 0L327 311L188 311L188 0L76 0L76 517L26 517L26 605L76 605L76 712L188 712L188 605L327 605L327 712L440 712L440 605L490 605L490 517M327 413L327 517L188 517L188 413L327 413Z"  horiz-adv-x="516" vert-adv-y="1000"  />

      
      <glyph glyph-name="uni0127" unicode="&#x0127;" d="M386 0L280 0L280 379Q280 409 265.50 424.50Q251 440 228 440Q205 440 190.50 424.50Q176 409 176 379L176 0L70 0L70 580L20 580L20 647L70 647L70 712L176 712L176 647L261 647L261 580L176 580L176 493Q189 511 207 521Q230 535 260 535Q321 535 356 494Q386 460 386 380L386 0Z"  horiz-adv-x="435" vert-adv-y="1000"  />

      
      <glyph glyph-name="uni0128" unicode="&#x0128;" d="M172 0L60 0L60 712L172 712L172 0M260 814Q214 768 170 768Q140 768 109 785Q84 800 65 800Q42 800 19 777L-27 823Q20 870 62 870Q95 870 124 853Q149 838 168 838Q191 838 213 861L260 814Z"  horiz-adv-x="232" vert-adv-y="1000"  />

      
      <glyph glyph-name="uni0129" unicode="&#x0129;" d="M158 0L52 0L52 513L158 513L158 0M253 642Q207 595 163 595Q133 595 102 612Q77 627 58 627Q35 627 12 604L-34 650Q13 697 55 697Q88 697 117 680Q142 665 161 665Q184 665 206 688L253 642Z"  horiz-adv-x="210" vert-adv-y="1000"  />

      
      <glyph glyph-name="uni012A" unicode="&#x012A;" d="M172 0L60 0L60 712L172 712L172 0M239 776L-6 776L-6 846L239 846L239 776Z"  horiz-adv-x="232" vert-adv-y="1000"  />

      
      <glyph glyph-name="uni012B" unicode="&#x012B;" d="M158 0L52 0L52 513L158 513L158 0M229 604L-17 604L-17 675L229 675L229 604Z"  horiz-adv-x="210" vert-adv-y="1000"  />

      
      <glyph glyph-name="uni012C" unicode="&#x012C;" d="M172 0L60 0L60 712L172 712L172 0M241 875Q239 814 204 785Q169 756 116 756Q63 756 28.50 785Q-6 814-8 875L63 875Q67 829 116 829Q166 829 170 875L241 875Z"  horiz-adv-x="232" vert-adv-y="1000"  />

      
      <glyph glyph-name="uni012D" unicode="&#x012D;" d="M158 0L52 0L52 513L158 513L158 0M230 703Q228 642 193 613Q158 584 105 584Q52 584 17.50 613Q-17 642-20 703L52 703Q56 657 105 657Q154 657 158 703L230 703Z"  horiz-adv-x="210" vert-adv-y="1000"  />

      
      <glyph glyph-name="uni012E" unicode="&#x012E;" d="M172 0L60 0L60 712L172 712L172 0M159-40L106-194L30-194L91-40L159-40Z"  horiz-adv-x="232" vert-adv-y="1000"  />

      
      <glyph glyph-name="uni012F" unicode="&#x012F;" d="M158 0L52 0L52 513L158 513L158 0M163 594L46 594L46 711L163 711L163 594M149-40L96-194L20-194L81-40L149-40Z"  horiz-adv-x="210" vert-adv-y="1000"  />

      
      <glyph glyph-name="uni0130" unicode="&#x0130;" d="M172 0L60 0L60 712L172 712L172 0M166 770L67 770L67 870L166 870L166 770Z"  horiz-adv-x="232" vert-adv-y="1000"  />

      
      <glyph glyph-name="uni0131" unicode="&#x0131;" d="M158 0L52 0L52 513L158 513L158 0Z"  horiz-adv-x="210" vert-adv-y="1000"  />

      
      <glyph glyph-name="uni0132" unicode="&#x0132;" d="M172 0L60 0L60 712L172 712L172 0M567 186Q567 96 518 46Q467-8 375-8Q289-8 235 49L313 124Q335 93 375 93Q411 93 433 117.50Q455 142 455 186L455 712L567 712L567 186Z"  horiz-adv-x="621" vert-adv-y="1000"  />

      
      <glyph glyph-name="uni0133" unicode="&#x0133;" d="M158 0L52 0L52 513L158 513L158 0M163 594L46 594L46 711L163 711L163 594M368-25Q368-111 314-152Q271-185 190-185L190-90Q227-90 244.50-74Q262-58 262-19L262 513L368 513L368-25M373 594L256 594L256 711L373 711L373 594Z"  horiz-adv-x="420" vert-adv-y="1000"  />

      
      <glyph glyph-name="uni0134" unicode="&#x0134;" d="M335 186Q335 96 286 46Q235-8 143-8Q57-8 3 49L81 124Q103 93 143 93Q179 93 201 117.50Q223 142 223 186L223 712L335 712L335 186M420 760L339 760L279 842L220 760L139 760L238 899L321 899L420 760Z"  horiz-adv-x="389" vert-adv-y="1000"  />

      
      <glyph glyph-name="uni0135" unicode="&#x0135;" d="M158-25Q158-111 104-152Q61-185-20-185L-20-90Q17-90 34.50-74Q52-58 52-19L52 513L158 513L158-25M246 587L164 587L105 669L46 587L-36 587L63 726L147 726L246 587Z"  horiz-adv-x="210" vert-adv-y="1000"  />

      
      <glyph glyph-name="uni0136" unicode="&#x0136;" d="M462 0L341 0L226 293L172 183L172 0L60 0L60 712L172 712L172 377L327 712L440 712L297 417L462 0M283-40L230-194L154-194L215-40L283-40Z"  horiz-adv-x="469" vert-adv-y="1000"  />

      
      <glyph glyph-name="uni0137" unicode="&#x0137;" d="M409 0L292 0L203 222L158 151L158 0L52 0L52 712L158 712L158 302L291 527L402 527L271 318L409 0M256-40L203-194L127-194L188-40L256-40Z"  horiz-adv-x="416" vert-adv-y="1000"  />

      
      <glyph glyph-name="uni0138" unicode="&#x0138;" d="M409 0L292 0L203 222L158 151L158 0L52 0L52 527L158 527L158 302L291 527L402 527L271 318L409 0Z"  horiz-adv-x="416" vert-adv-y="1000"  />

      
      <glyph glyph-name="uni0139" unicode="&#x0139;" d="M359 0L60 0L60 712L172 712L172 101L359 101L359 0M232 899L145 760L71 760L143 899L232 899Z"  horiz-adv-x="383" vert-adv-y="1000"  />

      
      <glyph glyph-name="uni013A" unicode="&#x013A;" d="M227 0Q143 0 102 32Q49 72 49 160L49 712L155 712L155 166Q155 95 227 95L227 0M219 900L131 761L57 761L129 900L219 900Z"  horiz-adv-x="244" vert-adv-y="1000"  />

      
      <glyph glyph-name="uni013B" unicode="&#x013B;" d="M359 0L60 0L60 712L172 712L172 101L359 101L359 0M255-40L202-194L126-194L187-40L255-40Z"  horiz-adv-x="383" vert-adv-y="1000"  />

      
      <glyph glyph-name="uni013C" unicode="&#x013C;" d="M227 0Q143 0 102 32Q49 72 49 160L49 712L155 712L155 166Q155 95 227 95L227 0M190-40L137-194L61-194L122-40L190-40Z"  horiz-adv-x="244" vert-adv-y="1000"  />

      
      <glyph glyph-name="uni013D" unicode="&#x013D;" d="M359 0L60 0L60 712L172 712L172 101L359 101L359 0M335 712L299 558L232 558L256 712L335 712Z"  horiz-adv-x="383" vert-adv-y="1000"  />

      
      <glyph glyph-name="uni013E" unicode="&#x013E;" d="M227 0Q143 0 102 32Q49 72 49 160L49 712L155 712L155 166Q155 95 227 95L227 0M298 741L262 587L195 587L219 741L298 741Z"  horiz-adv-x="244" vert-adv-y="1000"  />

      
      <glyph glyph-name="uni013F" unicode="&#x013F;" d="M359 0L60 0L60 712L172 712L172 101L359 101L359 0M356 308L256 308L256 408L356 408L356 308Z"  horiz-adv-x="383" vert-adv-y="1000"  />

      
      <glyph glyph-name="uni0140" unicode="&#x0140;" d="M227 0Q143 0 102 32Q49 72 49 160L49 712L155 712L155 166Q155 95 227 95L227 0M305 250L205 250L205 350L305 350L305 250Z"  horiz-adv-x="304" vert-adv-y="1000"  />

      
      <glyph glyph-name="uni0141" unicode="&#x0141;" d="M372 0L73 0L73 257L26 217L26 323L73 362L73 712L185 712L185 452L278 530L278 425L185 346L185 101L372 101L372 0Z"  horiz-adv-x="395" vert-adv-y="1000"  />

      
      <glyph glyph-name="uni0142" unicode="&#x0142;" d="M252 0Q169 0 128 32Q74 73 74 160L74 298L22 251L22 351L74 397L74 712L180 712L180 483L233 530L233 431L180 384L180 166Q180 95 252 95L252 0Z"  horiz-adv-x="272" vert-adv-y="1000"  />

      
      <glyph glyph-name="uni0143" unicode="&#x0143;" d="M439 0L340 0L172 423L172 0L60 0L60 712L160 712L327 289L327 712L439 712L439 0M365 899L278 760L204 760L276 899L365 899Z"  horiz-adv-x="499" vert-adv-y="1000"  />

      
      <glyph glyph-name="uni0144" unicode="&#x0144;" d="M368 0L262 0L262 379Q262 409 247.50 424.50Q233 440 210 440Q187 440 172.50 424.50Q158 409 158 379L158 0L52 0L52 527L154 527L154 488Q172 512 189 521Q212 535 242 535Q303 535 338 494Q368 460 368 380L368 0M329 726L241 587L167 587L239 726L329 726Z"  horiz-adv-x="417" vert-adv-y="1000"  />

      
      <glyph glyph-name="uni0145" unicode="&#x0145;" d="M439 0L340 0L172 423L172 0L60 0L60 712L160 712L327 289L327 712L439 712L439 0M283-40L230-194L154-194L215-40L283-40Z"  horiz-adv-x="499" vert-adv-y="1000"  />

      
      <glyph glyph-name="uni0146" unicode="&#x0146;" d="M368 0L262 0L262 379Q262 409 247.50 424.50Q233 440 210 440Q187 440 172.50 424.50Q158 409 158 379L158 0L52 0L52 527L154 527L154 488Q172 512 189 521Q212 535 242 535Q303 535 338 494Q368 460 368 380L368 0M246-40L193-194L117-194L178-40L246-40Z"  horiz-adv-x="417" vert-adv-y="1000"  />

      
      <glyph glyph-name="uni0147" unicode="&#x0147;" d="M439 0L340 0L172 423L172 0L60 0L60 712L160 712L327 289L327 712L439 712L439 0M390 897L291 757L208 757L109 897L190 897L249 815L309 897L390 897Z"  horiz-adv-x="499" vert-adv-y="1000"  />

      
      <glyph glyph-name="uni0148" unicode="&#x0148;" d="M368 0L262 0L262 379Q262 409 247.50 424.50Q233 440 210 440Q187 440 172.50 424.50Q158 409 158 379L158 0L52 0L52 527L154 527L154 488Q172 512 189 521Q212 535 242 535Q303 535 338 494Q368 460 368 380L368 0M352 724L253 584L169 584L70 724L152 724L211 642L270 724L352 724Z"  horiz-adv-x="417" vert-adv-y="1000"  />

      
      <glyph glyph-name="uni0149" unicode="&#x0149;" d="M404 0L298 0L298 379Q298 409 283.50 424.50Q269 440 246 440Q223 440 208.50 424.50Q194 409 194 379L194 0L88 0L88 527L190 527L190 488Q208 512 225 521Q248 535 278 535Q339 535 374 494Q404 460 404 380L404 0M79 604L0 548L0 741L79 741L79 604Z"  horiz-adv-x="453" vert-adv-y="1000"  />

      
      <glyph glyph-name="uni014A" unicode="&#x014A;" d="M261-194L261-99Q327-99 327-28L327 33L172 423L172 0L60 0L60 712L160 712L327 289L327 712L439 712L439-34Q439-120 385-161Q342-194 261-194Z"  horiz-adv-x="499" vert-adv-y="1000"  />

      
      <glyph glyph-name="uni014B" unicode="&#x014B;" d="M368-34Q368-120 314-161Q271-194 190-194L190-99Q227-99 244.50-83Q262-67 262-28L262 379Q262 409 247.50 424.50Q233 440 210 440Q187 440 172.50 424.50Q158 409 158 379L158 0L52 0L52 527L154 527L154 488Q172 512 189 521Q212 535 242 535Q303 535 338 494Q368 460 368 380L368-34Z"  horiz-adv-x="417" vert-adv-y="1000"  />

      
      <glyph glyph-name="uni014C" unicode="&#x014C;" d="M412 557.50Q412 557.50 416.50 526.25Q421 495 421 356Q421 217 412 154.50Q403 92 369 53Q318-8 231-8Q144-8 93 53Q60 93 50.50 155.50Q41 218 41 356Q41 494 50.50 556.50Q60 619 93 659Q144 720 231 720Q318 720 369 659Q403 620 412 557.50M304.50 196.50Q304.50 196.50 306.75 222.75Q309 249 309 356Q309 463 304.50 515.50Q300 568 285 592Q268 619 231 619Q195 619 178 592Q153 552 153 356Q153 160 178 120Q195 93 231 93Q268 93 285 120Q300 144 304.50 196.50M354 776L109 776L109 846L354 846L354 776Z"  horiz-adv-x="462" vert-adv-y="1000"  />

      
      <glyph glyph-name="uni014D" unicode="&#x014D;" d="M323 480Q360 428 360 264Q360 100 323 48Q283-8 198-8Q113-8 73 48Q36 100 36 264Q36 428 73 480Q113 535 198 535Q283 535 323 480M254 264Q254 393 239 419Q225 441 198 441Q171 441 157 419Q142 393 142 264Q142 134 157 108Q170 87 198 87Q226 87 239 108Q254 134 254 264M321 604L75 604L75 675L321 675L321 604Z"  horiz-adv-x="396" vert-adv-y="1000"  />

      
      <glyph glyph-name="uni014E" unicode="&#x014E;" d="M412 557.50Q412 557.50 416.50 526.25Q421 495 421 356Q421 217 412 154.50Q403 92 369 53Q318-8 231-8Q144-8 93 53Q60 93 50.50 155.50Q41 218 41 356Q41 494 50.50 556.50Q60 619 93 659Q144 720 231 720Q318 720 369 659Q403 620 412 557.50M304.50 196.50Q304.50 196.50 306.75 222.75Q309 249 309 356Q309 463 304.50 515.50Q300 568 285 592Q268 619 231 619Q195 619 178 592Q153 552 153 356Q153 160 178 120Q195 93 231 93Q268 93 285 120Q300 144 304.50 196.50M356 875Q354 814 319 785Q284 756 231 756Q178 756 143.50 785Q109 814 107 875L178 875Q182 829 231 829Q281 829 285 875L356 875Z"  horiz-adv-x="462" vert-adv-y="1000"  />

      
      <glyph glyph-name="uni014F" unicode="&#x014F;" d="M323 480Q360 428 360 264Q360 100 323 48Q283-8 198-8Q113-8 73 48Q36 100 36 264Q36 428 73 480Q113 535 198 535Q283 535 323 480M254 264Q254 393 239 419Q225 441 198 441Q171 441 157 419Q142 393 142 264Q142 134 157 108Q170 87 198 87Q226 87 239 108Q254 134 254 264M323 703Q321 642 286 613Q251 584 198 584Q145 584 110.50 613Q76 642 73 703L145 703Q149 657 198 657Q247 657 251 703L323 703Z"  horiz-adv-x="396" vert-adv-y="1000"  />

      
      <glyph glyph-name="uni0150" unicode="&#x0150;" d="M412 557.50Q412 557.50 416.50 526.25Q421 495 421 356Q421 217 412 154.50Q403 92 369 53Q318-8 231-8Q144-8 93 53Q60 93 50.50 155.50Q41 218 41 356Q41 494 50.50 556.50Q60 619 93 659Q144 720 231 720Q318 720 369 659Q403 620 412 557.50M304.50 196.50Q304.50 196.50 306.75 222.75Q309 249 309 356Q309 463 304.50 515.50Q300 568 285 592Q268 619 231 619Q195 619 178 592Q153 552 153 356Q153 160 178 120Q195 93 231 93Q268 93 285 120Q300 144 304.50 196.50M256 900L188 760L119 760L166 900L256 900M404 900L337 760L269 760L315 900L404 900Z"  horiz-adv-x="462" vert-adv-y="1000"  />

      
      <glyph glyph-name="uni0151" unicode="&#x0151;" d="M323 480Q360 428 360 264Q360 100 323 48Q283-8 198-8Q113-8 73 48Q36 100 36 264Q36 428 73 480Q113 535 198 535Q283 535 323 480M254 264Q254 393 239 419Q225 441 198 441Q171 441 157 419Q142 393 142 264Q142 134 157 108Q170 87 198 87Q226 87 239 108Q254 134 254 264M222 727L155 587L86 587L133 727L222 727M371 727L304 587L235 587L281 727L371 727Z"  horiz-adv-x="396" vert-adv-y="1000"  />

      
      <glyph glyph-name="uni0152" unicode="&#x0152;" d="M604 0L316 0L316 27Q281-8 226-8Q140-8 93 52Q62 92 51.50 164.50Q41 237 41 356Q41 479 51 550Q61 621 93 660Q141 720 226 720Q283 720 316 685L316 712L604 712L604 611L417 611L417 409L578 409L578 308L417 308L417 101L604 101L604 0M304.50 196.50Q304.50 196.50 306.75 222.75Q309 249 309 356Q309 463 304.50 515.50Q300 568 285 592Q268 619 231 619Q195 619 178 592Q153 552 153 356Q153 160 178 120Q195 93 231 93Q268 93 285 120Q300 144 304.50 196.50Z"  horiz-adv-x="642" vert-adv-y="1000"  />

      
      <glyph glyph-name="uni0153" unicode="&#x0153;" d="M578 233L360 233Q360 133 376 108Q390 87 417 87Q444 87 458 107Q470 123 470 155L576 155Q573 78 531 34Q493-8 417-8Q364-8 326 23Q319 28 309 42Q302 30 291 22Q253-8 198-8Q113-8 73 48Q36 98 36 264Q36 428 73 480Q113 535 198 535Q256 535 293 504Q302 497 309 485Q315 496 327 505Q366 535 416 535Q487 535 529 493Q558 464 568 402Q578 340 578 233M239 108Q254 135 254 264Q254 393 239 419Q225 441 198 441Q171 441 157 419Q142 393 142 264Q142 135 157 108Q170 87 198 87Q226 87 239 108M472 311Q472 398 457 420Q442 441 416 441Q389 441 376 420Q360 399 360 311L472 311Z"  horiz-adv-x="613" vert-adv-y="1000"  />

      
      <glyph glyph-name="uni0154" unicode="&#x0154;" d="M445 0L328 0L235 292L172 292L172 0L60 0L60 712L240 712Q337 712 379.50 662.50Q422 613 422 502Q422 431 403.50 386Q385 341 339 316L445 0M296 421.50Q296 421.50 303 435.75Q310 450 310 502Q310 554 296 582.50Q282 611 241 611L172 611L172 393L241 393Q282 393 296 421.50M345 899L258 760L184 760L256 899L345 899Z"  horiz-adv-x="478" vert-adv-y="1000"  />

      
      <glyph glyph-name="uni0155" unicode="&#x0155;" d="M282 432L246 432Q208 432 183 407.50Q158 383 158 341L158 0L52 0L52 527L154 527L154 471Q170 495 200 513Q236 535 282 535L282 432M271 726L183 587L109 587L181 726L271 726Z"  horiz-adv-x="299" vert-adv-y="1000"  />

      
      <glyph glyph-name="uni0156" unicode="&#x0156;" d="M445 0L328 0L235 292L172 292L172 0L60 0L60 712L240 712Q337 712 379.50 662.50Q422 613 422 502Q422 431 403.50 386Q385 341 339 316L445 0M296 421.50Q296 421.50 303 435.75Q310 450 310 502Q310 554 296 582.50Q282 611 241 611L172 611L172 393L241 393Q282 393 296 421.50M282-40L229-194L153-194L214-40L282-40Z"  horiz-adv-x="478" vert-adv-y="1000"  />

      
      <glyph glyph-name="uni0157" unicode="&#x0157;" d="M282 432L246 432Q208 432 183 407.50Q158 383 158 341L158 0L52 0L52 527L154 527L154 471Q170 495 200 513Q236 535 282 535L282 432M139-40L86-194L10-194L71-40L139-40Z"  horiz-adv-x="299" vert-adv-y="1000"  />

      
      <glyph glyph-name="uni0158" unicode="&#x0158;" d="M445 0L328 0L235 292L172 292L172 0L60 0L60 712L240 712Q337 712 379.50 662.50Q422 613 422 502Q422 431 403.50 386Q385 341 339 316L445 0M296 421.50Q296 421.50 303 435.75Q310 450 310 502Q310 554 296 582.50Q282 611 241 611L172 611L172 393L241 393Q282 393 296 421.50M370 897L271 757L188 757L89 897L170 897L229 815L289 897L370 897Z"  horiz-adv-x="478" vert-adv-y="1000"  />

      
      <glyph glyph-name="uni0159" unicode="&#x0159;" d="M282 432L246 432Q208 432 183 407.50Q158 383 158 341L158 0L52 0L52 527L154 527L154 471Q170 495 200 513Q236 535 282 535L282 432M296 724L197 584L113 584L14 724L96 724L155 642L214 724L296 724Z"  horiz-adv-x="299" vert-adv-y="1000"  />

      
      <glyph glyph-name="uni015A" unicode="&#x015A;" d="M404 197Q404 85 358 40Q309-7 219-7Q128-7 81 40Q35 86 35 193L147 193Q147 136 167 113Q184 94 219 94Q256 94 273 114Q292 136 292 193Q292 250 279.50 271.50Q267 293 225 310L140 345Q85 368 63 405.50Q41 443 41 524Q41 623 99 675Q148 718 221 718Q304 718 349 675Q399 626 399 520L287 520Q287 574 270 596Q254 617 220 617Q190 617 172 597Q153 575 153 527Q153 483 164 464.50Q175 446 212 431L296 397Q359 371 381.50 329Q404 287 404 197M343 899L256 760L182 760L254 899L343 899Z"  horiz-adv-x="442" vert-adv-y="1000"  />

      
      <glyph glyph-name="uni015B" unicode="&#x015B;" d="M352 152Q352 82 305 35Q262-8 190-8Q115-8 74 35Q27 84 27 154L132 154Q132 122 150 104Q165 88 190 88Q215 88 231 103Q246 116 246 145Q246 168 235 184Q223 202 194 214L124 245Q70 269 47 306Q30 333 30 378Q30 443 76 491Q120 535 190 535Q259 535 301 495Q346 452 346 378L242 378Q242 410 227 426Q212 442 190 442Q166 442 151 427Q136 412 136 387Q136 368 144 356Q155 338 183 326L253 296Q307 272 330 238Q352 207 352 152M310 726L222 587L148 587L220 726L310 726Z"  horiz-adv-x="381" vert-adv-y="1000"  />

      
      <glyph glyph-name="uni015C" unicode="&#x015C;" d="M404 197Q404 85 358 40Q309-7 219-7Q128-7 81 40Q35 86 35 193L147 193Q147 136 167 113Q184 94 219 94Q256 94 273 114Q292 136 292 193Q292 250 279.50 271.50Q267 293 225 310L140 345Q85 368 63 405.50Q41 443 41 524Q41 623 99 675Q148 718 221 718Q304 718 349 675Q399 626 399 520L287 520Q287 574 270 596Q254 617 220 617Q190 617 172 597Q153 575 153 527Q153 483 164 464.50Q175 446 212 431L296 397Q359 371 381.50 329Q404 287 404 197M369 760L288 760L228 842L169 760L88 760L187 899L270 899L369 760Z"  horiz-adv-x="442" vert-adv-y="1000"  />

      
      <glyph glyph-name="uni015D" unicode="&#x015D;" d="M352 152Q352 82 305 35Q262-8 190-8Q115-8 74 35Q27 84 27 154L132 154Q132 122 150 104Q165 88 190 88Q215 88 231 103Q246 116 246 145Q246 168 235 184Q223 202 194 214L124 245Q70 269 47 306Q30 333 30 378Q30 443 76 491Q120 535 190 535Q259 535 301 495Q346 452 346 378L242 378Q242 410 227 426Q212 442 190 442Q166 442 151 427Q136 412 136 387Q136 368 144 356Q155 338 183 326L253 296Q307 272 330 238Q352 207 352 152M334 587L252 587L193 669L134 587L52 587L151 726L235 726L334 587Z"  horiz-adv-x="381" vert-adv-y="1000"  />

      
      <glyph glyph-name="uni015E" unicode="&#x015E;" d="M404 197Q404 85 358 40Q309-7 219-7Q128-7 81 40Q35 86 35 193L147 193Q147 136 167 113Q184 94 219 94Q256 94 273 114Q292 136 292 193Q292 250 279.50 271.50Q267 293 225 310L140 345Q85 368 63 405.50Q41 443 41 524Q41 623 99 675Q148 718 221 718Q304 718 349 675Q399 626 399 520L287 520Q287 574 270 596Q254 617 220 617Q190 617 172 597Q153 575 153 527Q153 483 164 464.50Q175 446 212 431L296 397Q359 371 381.50 329Q404 287 404 197M253-40L200-194L124-194L185-40L253-40Z"  horiz-adv-x="442" vert-adv-y="1000"  />

      
      </font>
</defs>
</svg>
