<?xml version="1.0" standalone="no"?>
  <!DOCTYPE svg PUBLIC "-//W3C//DTD SVG 1.1//EN" "http://www.w3.org/Graphics/SVG/1.1/DTD/svg11.dtd" >
  <svg>
  <metadata>
  Created by font-carrier
  </metadata>
  <defs>
  <font id="DINPro-CondensedMedium" horiz-adv-x="1072" vert-adv-y="1072" >
    <font-face
      
      font-family="DIN Pro Cond Medium"
      
      font-weight="400"
      
      font-stretch="normal"
      
      units-per-em="1000"
      
      ascent="948"
      
      descent="-200"
      
    />
      <missing-glyph />

      

      
      <glyph glyph-name="uni21" unicode="&#x21;" d="M174 193L93 193L93 712L174 712L174 193M183 0L84 0L84 99L183 99L183 0Z"  horiz-adv-x="242" vert-adv-y="1000"  />

      
      <glyph glyph-name="uni22" unicode="&#x22;" d="M327 520L244 520L244 712L327 712L327 520M150 520L67 520L67 712L150 712L150 520Z"  horiz-adv-x="395" vert-adv-y="1000"  />

      
      <glyph glyph-name="uni23" unicode="&#x23;" d="M503 436L421 436L402 291L474 291L474 215L390 215L361 0L279 0L308 215L203 215L174 0L92 0L121 215L51 215L51 291L133 291L152 436L80 436L80 512L163 512L190 712L273 712L246 512L350 512L377 712L460 712L432 512L503 512L503 436M339 436L234 436L215 291L319 291L339 436Z"  horiz-adv-x="554" vert-adv-y="1000"  />

      
      <glyph glyph-name="uni24" unicode="&#x24;" d="M391 191Q391 81 346 36Q312 2 255-5L255-114L178-114L178-6Q116 2 82 36Q58 60 48 94Q38 128 38 186L124 186Q124 118 148 93Q158 81 178 75L178 337L140 353Q85 376 64 413.50Q43 451 43 531Q43 628 97 677Q130 707 178 716L178 806L255 806L255 716Q310 708 342 677Q389 631 389 531L303 531Q303 590 281 617Q271 629 255 636L255 401L291 386Q350 362 370.50 320Q391 278 391 191M305 189Q305 243 295 268.50Q285 294 255 310L255 76Q272 82 282 94Q305 119 305 189M178 428L178 636Q164 630 154 619Q129 591 129 534Q129 487 138.50 465Q148 443 178 428Z"  horiz-adv-x="434" vert-adv-y="1000"  />

      
      <glyph glyph-name="uni25" unicode="&#x25;" d="M624 102Q624 51 592 21.50Q560-8 511-8Q462-8 430 21.50Q398 51 398 102L398 256Q398 307 430 336.50Q462 366 511 366Q560 366 592 336.50Q624 307 624 256L624 102M276 456Q276 405 244 375.50Q212 346 163 346Q114 346 82.50 375.50Q51 405 51 456L51 610Q51 661 82.50 690.50Q114 720 163 720Q212 720 244 690.50Q276 661 276 610L276 456M494 712L246 0L181 0L429 712L494 712M556 103L556 254Q556 305 511 305Q466 305 466 254L466 103Q466 52 511 52Q556 52 556 103M208 458L208 609Q208 660 163 660Q119 660 119 609L119 458Q119 407 163 407Q208 407 208 458Z"  horiz-adv-x="675" vert-adv-y="1000"  />

      
      <glyph glyph-name="uni26" unicode="&#x26;" d="M489 0L402 0L354 73Q319 32 284 12Q249-8 199-8Q128-8 82 40Q36 88 36 169Q36 230 63.50 281Q91 332 151 389Q104 454 86.50 490Q69 526 69 568Q69 636 106.50 677.50Q144 719 206 719Q273 719 309 679.50Q345 640 345 577Q345 517 321.50 473Q298 429 245 377L354 212Q385 271 392 362L464 362Q456 234 399 141L489 0M313 137L191 324Q114 247 114 176Q114 128 139 97Q164 66 206 66Q260 66 313 137M270 575Q270 606 252.50 626Q235 646 207 646Q177 646 160.50 624Q144 602 144 570Q144 525 204 442Q239 478 254.50 506Q270 534 270 575Z"  horiz-adv-x="492" vert-adv-y="1000"  />

      
      <glyph glyph-name="uni27" unicode="&#x27;" d="M151 520L67 520L67 712L151 712L151 520Z"  horiz-adv-x="218" vert-adv-y="1000"  />

      
      <glyph glyph-name="uni28" unicode="&#x28;" d="M203-39L148-94Q93-39 75-6Q53 33 53 102L53 610Q53 679 75 718Q93 751 148 806L203 751Q160 708 149 687Q134 657 134 604L134 108Q134 55 149 25Q160 4 203-39Z"  horiz-adv-x="244" vert-adv-y="1000"  />

      
      <glyph glyph-name="uni29" unicode="&#x29;" d="M191 102Q191 33 169-6Q151-39 96-94L41-39Q84 4 95 25Q110 55 110 108L110 604Q110 657 95 687Q84 708 41 751L96 806Q151 751 169 718Q191 679 191 610L191 102Z"  horiz-adv-x="244" vert-adv-y="1000"  />

      
      <glyph glyph-name="uni2a" unicode="&#x2a;" d="M346 492L316 440L224 496L227 370L166 370L170 496L77 440L47 492L142 543L47 593L77 646L170 589L166 715L227 715L224 589L316 646L346 593L250 543L346 492Z"  horiz-adv-x="393" vert-adv-y="1000"  />

      
      <glyph glyph-name="uni2b" unicode="&#x2b;" d="M398 244L261 244L261 107L184 107L184 244L46 244L46 321L184 321L184 459L261 459L261 321L398 321L398 244Z"  horiz-adv-x="444" vert-adv-y="1000"  />

      
      <glyph glyph-name="uni2c" unicode="&#x2c;" d="M149-56L57-124L57 100L149 100L149-56Z"  horiz-adv-x="207" vert-adv-y="1000"  />

      
      <glyph glyph-name="uni2d" unicode="&#x2d;" d="M247 244L51 244L51 321L247 321L247 244Z"  horiz-adv-x="298" vert-adv-y="1000"  />

      
      <glyph glyph-name="uni2e" unicode="&#x2e;" d="M158 0L59 0L59 99L158 99L158 0Z"  horiz-adv-x="216" vert-adv-y="1000"  />

      
      <glyph glyph-name="uni2f" unicode="&#x2f;" d="M268 786L83-74L4-74L189 786L268 786Z"  horiz-adv-x="272" vert-adv-y="1000"  />

      
      <glyph glyph-name="uni30" unicode="&#x30;" d="M333 140Q333 70 293 30Q253-8 190-8Q128-8 88 30Q48 70 48 140L48 572Q48 642 88 682Q128 720 190 720Q253 720 293 682Q333 642 333 572L333 140M252 137L252 575Q252 610 234.50 628.50Q217 647 190 647Q163 647 146 628.50Q129 610 129 575L129 137Q129 102 146 83.50Q163 65 190 65Q217 65 234.50 83.50Q252 102 252 137Z"  horiz-adv-x="381" vert-adv-y="1000"  />

      
      <glyph glyph-name="uni31" unicode="&#x31;" d="M252 0L171 0L171 617L67 532L67 626L171 712L252 712L252 0Z"  horiz-adv-x="381" vert-adv-y="1000"  />

      
      <glyph glyph-name="uni32" unicode="&#x32;" d="M336 0L49 0L49 68L223 437Q255 507 255 575Q255 610 238 628.50Q221 647 194 647Q167 647 149.50 628.50Q132 610 132 575L132 527L51 527L51 573Q51 642 91 682Q131 720 194 720Q256 720 294 684Q336 644 336 572Q336 499 295 411L136 73L336 73L336 0Z"  horiz-adv-x="381" vert-adv-y="1000"  />

      
      <glyph glyph-name="uni33" unicode="&#x33;" d="M334 200Q334 127 325.50 91Q317 55 291 30Q251-8 188-8Q122-8 86 30Q45 68 45 140L45 185L126 185L126 137Q126 102 143.50 83.50Q161 65 188 65Q216 65 231 84Q253 109 253 200Q253 263 248.50 286.50Q244 310 232 325Q216 344 188 344L150 344L150 414L188 414Q215 414 227 429Q247 452 247 531Q247 608 229 630Q214 647 188 647Q162 647 146.50 629Q131 611 131 577L131 527L50 527L50 573Q50 644 89 683Q128 720 188 720Q251 720 287 684Q328 643 328 536Q328 453 310 419Q296 394 270 379Q296 362 311 340Q325 317 329.50 288.50Q334 260 334 200Z"  horiz-adv-x="381" vert-adv-y="1000"  />

      
      <glyph glyph-name="uni34" unicode="&#x34;" d="M353 117L303 117L303 0L222 0L222 117L29 117L29 190L211 712L289 712L112 190L222 190L222 353L303 353L303 190L353 190L353 117Z"  horiz-adv-x="381" vert-adv-y="1000"  />

      
      <glyph glyph-name="uni35" unicode="&#x35;" d="M337 228Q337 145 329 105.50Q321 66 293 34Q256-8 191-8Q127-8 88 29Q47 70 47 140L47 180L128 180L128 140Q128 103 145.50 84Q163 65 191 65Q218 65 235 86Q247 101 251 129.50Q255 158 255 228Q255 341 236 369Q219 393 191 393Q164 393 146 373.50Q128 354 128 321L128 297L51 297L51 712L328 712L328 639L126 639L126 418Q138 437 161 451Q183 465 213 465Q269 465 302 424Q322 400 329.50 359Q337 318 337 228Z"  horiz-adv-x="381" vert-adv-y="1000"  />

      
      <glyph glyph-name="uni36" unicode="&#x36;" d="M336 213Q336 138 328.50 101.50Q321 65 301 40Q265-8 190-8Q118-8 81 40Q60 68 52.50 104Q45 140 45 213Q45 316 74 392L194 712L277 712L162 415Q184 432 213 432Q268 432 300 391Q320 367 328 331Q336 295 336 213M255 214Q255 319 235 345Q220 364 191 364Q162 364 147 345Q126 320 126 214Q126 108 147 84Q162 65 191 65Q218 65 235 84Q255 107 255 214Z"  horiz-adv-x="381" vert-adv-y="1000"  />

      
      <glyph glyph-name="uni37" unicode="&#x37;" d="M339 645L151 0L69 0L257 639L119 639L119 534L40 534L40 712L339 712L339 645Z"  horiz-adv-x="381" vert-adv-y="1000"  />

      
      <glyph glyph-name="uni38" unicode="&#x38;" d="M336 199Q336 129 328 93.50Q320 58 293 31Q256-8 191-8Q127-8 88 31Q61 58 53 93.50Q45 129 45 199Q45 258 49.50 286Q54 314 68 336Q82 359 109 376Q83 394 70 417Q50 454 50 533Q50 592 59 625.50Q68 659 92 683Q129 720 190 720Q253 720 289 683Q313 659 322 625.50Q331 592 331 533Q331 454 311 417Q298 394 272 376Q299 359 313 336Q327 314 331.50 286Q336 258 336 199M255 202Q255 260 251 284Q247 308 234 323Q218 342 191 342Q163 342 147 323Q134 308 130 284Q126 260 126 202Q126 109 147 84Q162 65 191 65Q218 65 234 84Q255 109 255 202M250 529Q250 610 229 632Q214 647 191 647Q167 647 152 632Q131 610 131 529Q131 447 152 425Q166 411 191 411Q215 411 229 425Q250 447 250 529Z"  horiz-adv-x="381" vert-adv-y="1000"  />

      
      <glyph glyph-name="uni39" unicode="&#x39;" d="M336 499Q336 396 307 320L187 0L104 0L220 297Q197 280 169 280Q114 280 81 321Q61 345 53 381Q45 417 45 499Q45 574 53 610.50Q61 647 81 672Q116 720 191 720Q263 720 300 672Q321 644 328.50 608Q336 572 336 499M255 498Q255 605 235 628Q218 647 191 647Q162 647 147 628Q126 604 126 498Q126 392 147 367Q162 348 191 348Q218 348 235 367Q255 390 255 498Z"  horiz-adv-x="381" vert-adv-y="1000"  />

      
      <glyph glyph-name="uni3a" unicode="&#x3a;" d="M183 326L84 326L84 425L183 425L183 326M183 0L84 0L84 99L183 99L183 0Z"  horiz-adv-x="242" vert-adv-y="1000"  />

      
      <glyph glyph-name="uni3b" unicode="&#x3b;" d="M180-56L88-124L88 100L180 100L180-56M183 326L84 326L84 425L183 425L183 326Z"  horiz-adv-x="242" vert-adv-y="1000"  />

      
      <glyph glyph-name="uni3c" unicode="&#x3c;" d="M347 75L34 257L34 318L347 501L347 411L131 288L347 165L347 75Z"  horiz-adv-x="381" vert-adv-y="1000"  />

      
      <glyph glyph-name="uni3d" unicode="&#x3d;" d="M398 320L46 320L46 397L398 397L398 320M398 158L46 158L46 235L398 235L398 158Z"  horiz-adv-x="444" vert-adv-y="1000"  />

      
      <glyph glyph-name="uni3e" unicode="&#x3e;" d="M347 257L34 75L34 165L250 288L34 411L34 501L347 318L347 257Z"  horiz-adv-x="381" vert-adv-y="1000"  />

      
      <glyph glyph-name="uni3f" unicode="&#x3f;" d="M362 535Q362 461 331 416L272 331Q250 299 250 261L250 193L169 193L169 271Q169 313 197 355L255 440Q281 478 281 537Q281 599 258 625Q240 645 208 645Q179 645 160 626Q138 603 138 544L57 544Q57 634 100 676Q144 718 208 718Q277 718 318 677Q362 633 362 535M259 0L160 0L160 99L259 99L259 0Z"  horiz-adv-x="400" vert-adv-y="1000"  />

      
      <glyph glyph-name="uni40" unicode="&#x40;" d="M504 0L426 0L426 40Q415 21 394 8Q368-8 338-8Q283-8 250 30Q219 64 219 137L219 342Q219 416 250 450Q283 487 338 487Q368 487 394 472Q413 459 423 444L423 550Q423 643 337 643L218 643Q177 643 154.50 619.50Q132 596 132 550L132 119Q132 73 160 46L102-11Q51 36 51 117L51 558Q51 629 94 672Q134 712 202 712L353 712Q421 712 461 672Q504 629 504 558L504 0M423 137L423 343Q423 378 406 396.50Q389 415 362 415Q335 415 317.50 396.50Q300 378 300 343L300 137Q300 102 317.50 83.50Q335 65 362 65Q389 65 406 83.50Q423 102 423 137Z"  horiz-adv-x="562" vert-adv-y="1000"  />

      
      <glyph glyph-name="uni41" unicode="&#x41;" d="M419 0L328 0L294 168L129 168L95 0L5 0L171 712L254 712L419 0M278 245L212 573L145 245L278 245Z"  horiz-adv-x="424" vert-adv-y="1000"  />

      
      <glyph glyph-name="uni42" unicode="&#x42;" d="M394 200Q394 137 383.50 103Q373 69 348 43Q306 0 217 0L64 0L64 712L217 712Q305 712 347 669Q370 645 379.50 613.50Q389 582 389 525Q389 439 347 398Q330 381 307 371Q331 364 351 345Q377 320 385.50 286Q394 252 394 200M308 205Q308 273 284.50 303Q261 333 212 333L150 333L150 77L212 77Q262 77 285 105.50Q308 134 308 205M303 521Q303 584 282 609.50Q261 635 213 635L150 635L150 407L213 407Q259 407 281 434Q303 461 303 521Z"  horiz-adv-x="444" vert-adv-y="1000"  />

      
      <glyph glyph-name="uni43" unicode="&#x43;" d="M385 176Q383 79 331 31Q287-8 221-8Q144-8 99 44Q65 83 56 142Q47 201 47 356Q47 511 56 570Q65 629 99 668Q144 720 221 720Q290 720 334 678Q383 630 385 537L300 537Q298 592 277 618Q257 643 221 643Q182 643 162 616Q144 591 138.50 539Q133 487 133 356Q133 225 138.50 173Q144 121 162 96Q182 69 221 69Q257 69 277 94Q298 122 300 176L385 176Z"  horiz-adv-x="423" vert-adv-y="1000"  />

      
      <glyph glyph-name="uni44" unicode="&#x44;" d="M392 567.50Q392 567.50 396.50 537.75Q401 508 401 356Q401 204 392 144.50Q383 85 350 50Q305 0 228 0L64 0L64 712L228 712Q305 712 350 662Q383 627 392 567.50M310 176Q310 176 312.50 200Q315 224 315 356Q315 488 310 536Q305 584 286 608Q264 635 225 635L150 635L150 77L225 77Q264 77 286 104Q305 128 310 176Z"  horiz-adv-x="448" vert-adv-y="1000"  />

      
      <glyph glyph-name="uni45" unicode="&#x45;" d="M339 0L64 0L64 712L339 712L339 635L150 635L150 396L313 396L313 319L150 319L150 77L339 77L339 0Z"  horiz-adv-x="380" vert-adv-y="1000"  />

      
      <glyph glyph-name="uni46" unicode="&#x46;" d="M339 635L150 635L150 396L313 396L313 319L150 319L150 0L64 0L64 712L339 712L339 635Z"  horiz-adv-x="375" vert-adv-y="1000"  />

      
      <glyph glyph-name="uni47" unicode="&#x47;" d="M386 171Q385 85 339.50 38.50Q294-8 221-8Q146-8 99 44Q66 81 56.50 141.50Q47 202 47 356Q47 510 56.50 570.50Q66 631 99 668Q146 720 221 720Q292 720 336 676Q383 629 385 536L300 536Q298 643 221 643Q182 643 162 616Q144 591 138.50 539Q133 487 133 356Q133 225 138.50 173Q144 121 162 96Q182 69 221 69Q258 69 279 96.50Q300 124 300 168L300 311L221 311L221 382L386 382L386 171Z"  horiz-adv-x="434" vert-adv-y="1000"  />

      
      <glyph glyph-name="uni48" unicode="&#x48;" d="M394 0L308 0L308 324L150 324L150 0L64 0L64 712L150 712L150 401L308 401L308 712L394 712L394 0Z"  horiz-adv-x="458" vert-adv-y="1000"  />

      
      <glyph glyph-name="uni49" unicode="&#x49;" d="M150 0L64 0L64 712L150 712L150 0Z"  horiz-adv-x="215" vert-adv-y="1000"  />

      
      <glyph glyph-name="uni4a" unicode="&#x4a;" d="M303 170Q303 86 258 40Q212-8 132-8Q54-8 5 46L66 103Q91 69 132 69Q169 69 193 95.50Q217 122 217 170L217 712L303 712L303 170Z"  horiz-adv-x="361" vert-adv-y="1000"  />

      
      <glyph glyph-name="uni4b" unicode="&#x4b;" d="M431 0L338 0L212 322L150 199L150 0L64 0L64 712L150 712L150 351L322 712L410 712L266 418L431 0Z"  horiz-adv-x="439" vert-adv-y="1000"  />

      
      <glyph glyph-name="uni4c" unicode="&#x4c;" d="M339 0L64 0L64 712L150 712L150 77L339 77L339 0Z"  horiz-adv-x="361" vert-adv-y="1000"  />

      
      <glyph glyph-name="uni4d" unicode="&#x4d;" d="M513 0L427 0L427 507L314 174L261 174L150 499L150 0L64 0L64 712L145 712L289 316L432 712L513 712L513 0Z"  horiz-adv-x="578" vert-adv-y="1000"  />

      
      <glyph glyph-name="uni4e" unicode="&#x4e;" d="M412 0L334 0L150 487L150 0L64 0L64 712L144 712L326 225L326 712L412 712L412 0Z"  horiz-adv-x="477" vert-adv-y="1000"  />

      
      <glyph glyph-name="uni4f" unicode="&#x4f;" d="M385.50 570.50Q385.50 570.50 390.25 540.25Q395 510 395 356Q395 202 385.50 141.50Q376 81 343 44Q296-8 221-8Q146-8 99 44Q66 81 56.50 141.50Q47 202 47 356Q47 510 56.50 570.50Q66 631 99 668Q146 720 221 720Q296 720 343 668Q376 631 385.50 570.50M303 173.50Q303 173.50 306 199.75Q309 226 309 356Q309 486 303 538.50Q297 591 279 616Q259 643 221 643Q182 643 162 616Q144 591 138.50 539Q133 487 133 356Q133 225 138.50 173Q144 121 162 96Q182 69 221 69Q259 69 279 96Q297 121 303 173.50Z"  horiz-adv-x="442" vert-adv-y="1000"  />

      
      <glyph glyph-name="uni50" unicode="&#x50;" d="M393 504Q393 392 350.50 344.50Q308 297 224 297L150 297L150 0L64 0L64 712L224 712Q309 712 351 665Q393 618 393 504M307 504Q307 575 286 605Q265 635 221 635L150 635L150 374L221 374Q265 374 286 404Q307 434 307 504Z"  horiz-adv-x="435" vert-adv-y="1000"  />

      
      <glyph glyph-name="uni51" unicode="&#x51;" d="M421 25L380-24L323 24Q283-8 221-8Q143-8 99 44Q67 83 57 144Q47 205 47 356Q47 507 57 568Q67 629 99 668Q143 720 221 720Q299 720 343 668Q375 629 385 568Q395 507 395 356Q395 221 389 163.50Q383 106 364 73L421 25M309 356Q309 486 303 538.50Q297 591 279 617Q261 643 221 643Q182 643 162 617Q144 591 138.50 539.50Q133 488 133 356Q133 224 138.50 172.50Q144 121 162 95Q182 69 221 69Q243 69 258 78L211 118L252 166L293 131Q309 174 309 356Z"  horiz-adv-x="442" vert-adv-y="1000"  />

      
      <glyph glyph-name="uni52" unicode="&#x52;" d="M416 0L325 0L227 306L150 306L150 0L64 0L64 712L225 712Q310 712 351.50 666.50Q393 621 393 509Q393 434 373 389Q353 344 307 323L416 0M289.50 414Q289.50 414 298.25 430Q307 446 307 509Q307 572 289.50 603.50Q272 635 226 635L150 635L150 382L226 382Q272 382 289.50 414Z"  horiz-adv-x="455" vert-adv-y="1000"  />

      
      <glyph glyph-name="uni53" unicode="&#x53;" d="M377 191Q377 80 333 36Q288-7 207-7Q125-7 82 36Q58 60 48 94Q38 128 38 186L124 186Q124 118 148 93Q168 71 207 71Q247 71 268 94Q291 119 291 189Q291 251 277.50 276.50Q264 302 221 320L140 353Q85 376 64 413.50Q43 451 43 531Q43 628 97 677Q141 718 210 718Q285 718 328 677Q375 631 375 531L289 531Q289 590 267 617Q248 641 209 641Q174 641 154 619Q129 591 129 534Q129 481 142 459Q155 437 197 419L277 386Q336 362 356.50 320Q377 278 377 191Z"  horiz-adv-x="420" vert-adv-y="1000"  />

      
      <glyph glyph-name="uni54" unicode="&#x54;" d="M346 635L227 635L227 0L141 0L141 635L21 635L21 712L346 712L346 635Z"  horiz-adv-x="367" vert-adv-y="1000"  />

      
      <glyph glyph-name="uni55" unicode="&#x55;" d="M387 162Q387 85 341 39Q294-8 222-8Q151-8 104 39Q58 85 58 162L58 712L144 712L144 157Q144 116 166.50 92.50Q189 69 222 69Q256 69 278.50 92.50Q301 116 301 157L301 712L387 712L387 162Z"  horiz-adv-x="445" vert-adv-y="1000"  />

      
      <glyph glyph-name="uni56" unicode="&#x56;" d="M400 712L246 0L158 0L4 712L99 712L202 139L306 712L400 712Z"  horiz-adv-x="404" vert-adv-y="1000"  />

      
      <glyph glyph-name="uni57" unicode="&#x57;" d="M648 712L526 0L437 0L326 573L216 0L127 0L4 712L99 712L172 139L278 712L374 712L482 139L554 712L648 712Z"  horiz-adv-x="652" vert-adv-y="1000"  />

      
      <glyph glyph-name="uni58" unicode="&#x58;" d="M388 0L294 0L201 282L109 0L15 0L151 370L26 712L120 712L201 452L283 712L377 712L248 370L388 0Z"  horiz-adv-x="403" vert-adv-y="1000"  />

      
      <glyph glyph-name="uni59" unicode="&#x59;" d="M351 712L219 288L219 0L133 0L133 288L2 712L96 712L176 408L256 712L351 712Z"  horiz-adv-x="353" vert-adv-y="1000"  />

      
      <glyph glyph-name="uni5a" unicode="&#x5a;" d="M318 0L31 0L31 65L229 635L44 635L44 712L318 712L318 647L121 77L318 77L318 0Z"  horiz-adv-x="349" vert-adv-y="1000"  />

      
      <glyph glyph-name="uni5b" unicode="&#x5b;" d="M230-74L58-74L58 786L230 786L230 715L139 715L139-3L230-3L230-74Z"  horiz-adv-x="259" vert-adv-y="1000"  />

      
      <glyph glyph-name="uni5c" unicode="&#x5c;" d="M268-74L189-74L4 786L83 786L268-74Z"  horiz-adv-x="272" vert-adv-y="1000"  />

      
      <glyph glyph-name="uni5d" unicode="&#x5d;" d="M201-74L29-74L29-3L120-3L120 715L29 715L29 786L201 786L201-74Z"  horiz-adv-x="259" vert-adv-y="1000"  />

      
      <glyph glyph-name="uni5e" unicode="&#x5e;" d="M398 436L318 436L228 635L138 436L57 436L191 717L264 717L398 436Z"  horiz-adv-x="455" vert-adv-y="1000"  />

      
      <glyph glyph-name="uni5f" unicode="&#x5f;" d="M444-144L0-144L0-83L444-83L444-144Z"  horiz-adv-x="444" vert-adv-y="1000"  />

      
      <glyph glyph-name="uni60" unicode="&#x60;" d="M225 586L163 586L82 721L156 721L225 586Z"  horiz-adv-x="377" vert-adv-y="1000"  />

      
      <glyph glyph-name="uni61" unicode="&#x61;" d="M322 0L245 0L245 46Q233 26 215 11Q190-8 154-8Q100-8 65 31Q32 69 32 147Q32 223 78 264Q118 299 188 299L241 299L241 381Q241 455 180 455Q157 455 140 438Q121 418 121 378L40 378Q40 448 80 488Q118 526 180 526Q245 526 281 490Q322 447 322 376L322 0M241 144L241 240L195 240Q157 240 137 221Q113 199 113 150Q113 63 176 63Q205 63 223 85.50Q241 108 241 144Z"  horiz-adv-x="375" vert-adv-y="1000"  />

      
      <glyph glyph-name="uni62" unicode="&#x62;" d="M340 410.50Q340 410.50 343.50 385.25Q347 360 347 259Q347 158 340 108Q333 58 309 31Q276-8 223-8Q193-8 167 8Q145 23 136 40L136 0L57 0L57 712L138 712L138 482Q149 498 167 510Q190 526 223 526Q277 526 309 488Q333 461 340 410.50M261 138.50Q261 138.50 263 156.75Q265 175 265 259Q265 343 261 379.50Q257 416 244 432Q228 453 200 453Q174 453 158 437Q138 417 138 378L138 141Q138 101 158 81Q174 65 200 65Q228 65 244 86Q257 102 261 138.50Z"  horiz-adv-x="387" vert-adv-y="1000"  />

      
      <glyph glyph-name="uni63" unicode="&#x63;" d="M330 145Q327 67 289 28Q253-8 187-8Q114-8 78 40Q40 89 40 259Q40 346 48 397.50Q56 449 78 478Q114 526 187 526Q252 526 288 491Q326 455 330 374L249 374Q249 415 233 434Q217 453 188 453Q158 453 142 431Q129 414 125.50 377Q122 340 122 259Q122 179 125.50 142Q129 105 142 87Q158 65 188 65Q216 65 232 84Q249 103 249 145L330 145Z"  horiz-adv-x="362" vert-adv-y="1000"  />

      
      <glyph glyph-name="uni64" unicode="&#x64;" d="M330 0L251 0L251 40Q241 20 220 8Q193-8 164-8Q111-8 78 31Q55 58 47.50 109Q40 160 40 259Q40 358 47.50 409.50Q55 461 78 488Q110 526 164 526Q194 526 220 511Q234 503 249 482L249 712L330 712L330 0M249 141L249 378Q249 417 229 437Q213 453 187 453Q159 453 143 432Q130 416 126 379.50Q122 343 122 259Q122 175 126 138.50Q130 102 143 86Q159 65 187 65Q213 65 229 81Q249 101 249 141Z"  horiz-adv-x="387" vert-adv-y="1000"  />

      
      <glyph glyph-name="uni65" unicode="&#x65;" d="M335 240L122 240Q122 114 143 87Q158 65 189 65Q218 65 235 85Q252 105 252 145L333 145Q332 73 291 30Q254-8 189-8Q123-8 86 32Q59 61 49.50 115Q40 169 40 259Q40 350 49 403.50Q58 457 85 486Q122 526 187 526Q252 526 289 486Q317 457 326 401Q335 345 335 240M253 301Q253 408 233 432Q217 453 187 453Q158 453 142 432Q122 408 122 301L253 301Z"  horiz-adv-x="372" vert-adv-y="1000"  />

      
      <glyph glyph-name="uni66" unicode="&#x66;" d="M237 455L157 455L157 0L76 0L76 455L17 455L17 518L76 518L76 568Q76 646 121 683Q160 716 237 716L237 643Q157 643 157 565L157 518L237 518L237 455Z"  horiz-adv-x="254" vert-adv-y="1000"  />

      
      <glyph glyph-name="uni67" unicode="&#x67;" d="M330 518L330-12Q330-114 288-157Q250-197 186-197Q120-197 82-160Q43-121 43-48L124-48Q124-91 141-110Q158-127 185-127Q212-127 229-108Q249-87 249-17L249 62Q235 42 220 33Q198 17 166 17Q113 17 81 55Q57 82 48.50 129.50Q40 177 40 272Q40 367 48.50 414Q57 461 81 489Q114 526 166 526Q199 526 222 510Q239 499 251 482L251 518L330 518M249 164L249 378Q249 417 229 437Q213 453 187 453Q159 453 143 432Q130 416 126 382.50Q122 349 122 271Q122 193 126 159.50Q130 126 143 109Q161 88 187 88Q212 88 229 105Q249 125 249 164Z"  horiz-adv-x="387" vert-adv-y="1000"  />

      
      <glyph glyph-name="uni68" unicode="&#x68;" d="M342 0L261 0L261 381Q261 416 243.50 434.50Q226 453 199 453Q172 453 155 434.50Q138 416 138 381L138 0L57 0L57 712L138 712L138 481Q150 500 167 510Q193 526 223 526Q278 526 311 488Q342 454 342 381L342 0Z"  horiz-adv-x="395" vert-adv-y="1000"  />

      
      <glyph glyph-name="uni69" unicode="&#x69;" d="M138 0L57 0L57 518L138 518L138 0M145 610L50 610L50 704L145 704L145 610Z"  horiz-adv-x="195" vert-adv-y="1000"  />

      
      <glyph glyph-name="uni6a" unicode="&#x6a;" d="M138-46Q138-124 92-162Q54-194-21-194L-21-121Q18-121 37.50-103Q57-85 57-43L57 518L138 518L138-46M145 610L50 610L50 704L145 704L145 610Z"  horiz-adv-x="195" vert-adv-y="1000"  />

      
      <glyph glyph-name="uni6b" unicode="&#x6b;" d="M383 0L293 0L194 244L138 155L138 0L57 0L57 712L138 712L138 272L285 518L371 518L245 316L383 0Z"  horiz-adv-x="395" vert-adv-y="1000"  />

      
      <glyph glyph-name="uni6c" unicode="&#x6c;" d="M211 0Q137 0 99 32Q53 70 53 148L53 712L134 712L134 151Q134 73 211 73L211 0Z"  horiz-adv-x="228" vert-adv-y="1000"  />

      
      <glyph glyph-name="uni6d" unicode="&#x6d;" d="M545 0L464 0L464 381Q464 415 447 433.50Q430 452 403 452Q376 452 359 433.50Q342 415 342 381L342 0L261 0L261 381Q261 415 243.50 433.50Q226 452 199 452Q172 452 155 433.50Q138 415 138 381L138 0L57 0L57 518L135 518L135 478Q146 497 167 510Q193 526 223 526Q253 526 279.50 511Q306 496 322 472Q342 497 363 510Q389 526 422 526Q482 526 515 488Q545 455 545 381L545 0Z"  horiz-adv-x="599" vert-adv-y="1000"  />

      
      <glyph glyph-name="uni6e" unicode="&#x6e;" d="M342 0L261 0L261 381Q261 415 243.50 433.50Q226 452 199 452Q172 452 155 433.50Q138 415 138 381L138 0L57 0L57 518L135 518L135 478Q146 497 167 510Q193 526 223 526Q278 526 311 488Q342 454 342 381L342 0Z"  horiz-adv-x="395" vert-adv-y="1000"  />

      
      <glyph glyph-name="uni6f" unicode="&#x6f;" d="M327.50 398Q327.50 398 331.25 372.50Q335 347 335 259Q335 171 327.50 120Q320 69 298 40Q262-8 188-8Q115-8 79 40Q57 69 49 120.50Q41 172 41 259Q41 346 49 397.50Q57 449 79 478Q115 526 188 526Q262 526 298 478Q320 449 327.50 398M250.50 142Q250.50 142 252.25 160.50Q254 179 254 259Q254 339 250.50 376Q247 413 234 431Q218 453 188 453Q159 453 143 431Q130 413 126 375Q122 337 122 259Q122 181 126 143Q130 105 143 87Q159 65 188 65Q218 65 234 87Q247 105 250.50 142Z"  horiz-adv-x="376" vert-adv-y="1000"  />

      
      <glyph glyph-name="uni70" unicode="&#x70;" d="M339.50 409.50Q339.50 409.50 343.25 383.75Q347 358 347 259Q347 160 339.50 109Q332 58 309 31Q276-8 223-8Q192-8 167 7Q151 18 138 36L138-194L57-194L57 518L136 518L136 478Q142 490 167 510Q192 526 223 526Q277 526 309 488Q332 461 339.50 409.50M261 138.50Q261 138.50 263 156.75Q265 175 265 259Q265 343 261 379.50Q257 416 244 432Q228 453 200 453Q174 453 158 437Q138 417 138 378L138 141Q138 101 158 81Q174 65 200 65Q228 65 244 86Q257 102 261 138.50Z"  horiz-adv-x="387" vert-adv-y="1000"  />

      
      <glyph glyph-name="uni71" unicode="&#x71;" d="M330-194L249-194L249 36Q236 18 220 7Q194-8 164-8Q111-8 78 31Q55 58 47.50 109Q40 160 40 259Q40 358 47.50 409.50Q55 461 78 488Q110 526 164 526Q195 526 220 510Q245 490 251 478L251 518L330 518L330-194M249 141L249 378Q249 417 229 437Q213 453 187 453Q159 453 143 432Q130 416 126 379.50Q122 343 122 259Q122 175 126 138.50Q130 102 143 86Q159 65 187 65Q213 65 229 81Q249 101 249 141Z"  horiz-adv-x="387" vert-adv-y="1000"  />

      
      <glyph glyph-name="uni72" unicode="&#x72;" d="M256 448L232 448Q190 448 164 422.50Q138 397 138 353L138 0L57 0L57 518L135 518L135 463Q146 483 171 500Q208 526 256 526L256 448Z"  horiz-adv-x="272" vert-adv-y="1000"  />

      
      <glyph glyph-name="uni73" unicode="&#x73;" d="M328 141Q328 77 284 33Q244-8 178-8Q112-8 74 32Q30 77 30 146L110 146Q110 106 132 83Q150 65 178 65Q208 65 227 84Q247 104 247 136Q247 163 234 183Q221 203 188 220L121 254Q71 279 50 314Q34 342 34 382Q34 444 77 487Q116 526 179 526Q243 526 280 489Q322 449 322 375L242 375Q242 417 223 437Q206 455 179 455Q151 455 134 438Q115 419 115 388Q115 366 124 350Q135 331 167 316L233 283Q285 258 306 224Q328 191 328 141Z"  horiz-adv-x="359" vert-adv-y="1000"  />

      
      <glyph glyph-name="uni74" unicode="&#x74;" d="M240 0Q159 0 121 32Q76 69 76 148L76 455L17 455L17 518L76 518L76 660L157 660L157 518L237 518L237 455L157 455L157 151Q157 73 240 73L240 0Z"  horiz-adv-x="260" vert-adv-y="1000"  />

      
      <glyph glyph-name="uni75" unicode="&#x75;" d="M338 0L260 0L260 40Q249 21 228 8Q202-8 172-8Q117-8 84 30Q53 64 53 137L53 518L134 518L134 137Q134 102 151.50 83.50Q169 65 196 65Q223 65 240 83.50Q257 102 257 137L257 518L338 518L338 0Z"  horiz-adv-x="395" vert-adv-y="1000"  />

      
      <glyph glyph-name="uni76" unicode="&#x76;" d="M339 518L215 0L129 0L4 518L93 518L172 128L250 518L339 518Z"  horiz-adv-x="343" vert-adv-y="1000"  />

      
      <glyph glyph-name="uni77" unicode="&#x77;" d="M522 518L413 0L331 0L261 379L193 0L111 0L4 518L96 518L155 128L224 518L297 518L370 128L430 518L522 518Z"  horiz-adv-x="526" vert-adv-y="1000"  />

      
      <glyph glyph-name="uni78" unicode="&#x78;" d="M343 0L253 0L178 187L103 0L13 0L131 264L19 518L109 518L178 337L247 518L337 518L223 264L343 0Z"  horiz-adv-x="356" vert-adv-y="1000"  />

      
      <glyph glyph-name="uni79" unicode="&#x79;" d="M339 518L193-83Q178-148 135.50-171Q93-194 21-194L21-122Q61-122 83-109Q105-96 114-62L130 1L4 518L93 518L172 129L250 518L339 518Z"  horiz-adv-x="345" vert-adv-y="1000"  />

      
      <glyph glyph-name="uni7a" unicode="&#x7a;" d="M277 0L24 0L24 62L187 446L35 446L35 518L277 518L277 456L114 73L277 73L277 0Z"  horiz-adv-x="301" vert-adv-y="1000"  />

      
      <glyph glyph-name="uni7b" unicode="&#x7b;" d="M282-74L240-74Q185-74 150-39Q115-4 115 61L115 253Q115 284 99 302Q83 320 58 320L29 320L29 392L58 392Q83 392 99 410Q115 428 115 459L115 651Q115 716 150 751Q185 786 240 786L282 786L282 713L254 713Q229 713 212.50 695.50Q196 678 196 647L196 461Q196 405 167 376Q154 362 134 356Q153 350 167 336Q196 309 196 251L196 65Q196 34 212.50 16.50Q229-1 254-1L282-1L282-74Z"  horiz-adv-x="311" vert-adv-y="1000"  />

      
      <glyph glyph-name="uni7c" unicode="&#x7c;" d="M186-74L105-74L105 786L186 786L186-74Z"  horiz-adv-x="290" vert-adv-y="1000"  />

      
      <glyph glyph-name="uni7d" unicode="&#x7d;" d="M282 320L254 320Q229 320 213 302Q197 284 197 253L197 61Q197-5 161-39Q126-74 71-74L29-74L29-1L58-1Q83-1 99.50 16.50Q116 34 116 65L116 251Q116 308 144 336Q158 350 178 356Q156 363 144 376Q116 404 116 461L116 647Q116 678 99.50 695.50Q83 713 58 713L29 713L29 786L71 786Q126 786 161 751Q197 717 197 651L197 459Q197 428 213 410Q229 392 254 392L282 392L282 320Z"  horiz-adv-x="311" vert-adv-y="1000"  />

      
      <glyph glyph-name="uni7e" unicode="&#x7e;" d="M410 285Q380 255 355 240Q330 225 297 225Q265 225 219.50 247Q174 269 150 269Q117 269 84 236L35 284Q64 313 89 328.50Q114 344 147 344Q180 344 226 322Q272 300 295 300Q326 300 360 334L410 285Z"  horiz-adv-x="444" vert-adv-y="1000"  />

      
      <glyph glyph-name="unia1" unicode="&#xa1;" d="M149-194L68-194L68 325L149 325L149-194M158 419L59 419L59 518L158 518L158 419Z"  horiz-adv-x="242" vert-adv-y="1000"  />

      
      <glyph glyph-name="unia2" unicode="&#xa2;" d="M332 250Q330 177 292 140Q266 116 223 108L223 0L159 0L159 107Q110 115 81 151Q59 178 51.50 227Q44 276 44 360Q44 444 51.50 493Q59 542 81 569Q110 605 159 613L159 712L223 712L223 613Q265 607 291 582Q330 545 332 469L252 469Q252 509 236 527Q228 535 223 538L223 183Q231 189 235 193Q252 211 252 250L332 250M159 183L159 537Q153 534 145 524Q132 507 128.50 472Q125 437 125 360Q125 283 128.50 248Q132 213 145 196Q153 186 159 183Z"  horiz-adv-x="367" vert-adv-y="1000"  />

      
      <glyph glyph-name="unia3" unicode="&#xa3;" d="M395 0L97 0L97 338L33 338L33 400L97 400L97 544Q97 625 146 672.50Q195 720 268 720Q345 720 395 667L335 610Q309 643 268 643Q232 643 207.50 616.50Q183 590 183 546L183 400L268 400L268 338L183 338L183 77L395 77L395 0Z"  horiz-adv-x="427" vert-adv-y="1000"  />

      
      <glyph glyph-name="unia4" unicode="&#xa4;" d="M449 127L398 76L342 133Q297 103 247 103Q196 103 151 133L95 76L44 127L101 183Q72 226 72 278Q72 330 101 374L44 430L95 481L151 425Q193 453 247 453Q300 453 342 425L398 481L449 430L392 374Q422 329 422 278Q422 228 392 183L449 127M320 205Q320 205 335 220Q350 235 350 278Q350 321 320 351.50Q290 382 247 382Q204 382 173.50 352Q143 322 143 278Q143 235 173.50 205Q204 175 247 175Q290 175 320 205Z"  horiz-adv-x="493" vert-adv-y="1000"  />

      
      <glyph glyph-name="unia5" unicode="&#xa5;" d="M345 712L253 405L308 405L308 343L234 343L217 288L217 248L308 248L308 186L217 186L217 0L135 0L135 186L44 186L44 248L135 248L135 288L119 343L44 343L44 405L99 405L7 712L98 712L176 408L255 712L345 712Z"  horiz-adv-x="353" vert-adv-y="1000"  />

      
      <glyph glyph-name="unia6" unicode="&#xa6;" d="M186 437L105 437L105 785L186 785L186 437M186-73L105-73L105 275L186 275L186-73Z"  horiz-adv-x="290" vert-adv-y="1000"  />

      
      <glyph glyph-name="unia7" unicode="&#xa7;" d="M357 271Q357 206 348.50 173.50Q340 141 313 117Q294 100 273 97Q316 69 330 44Q349 13 349-33Q349-99 308-140Q269-180 202-180Q138-180 98-140Q58-98 56-35L139-35Q139-67 158-89Q174-107 202-107Q232-107 249-89Q266-70 266-38Q266-10 254 7Q242 27 209 43L140 77Q113 91 96 106Q68 134 60 168.50Q52 203 52 271Q52 334 61 365.50Q70 397 97 422Q114 439 137 442Q95 468 78 497Q61 526 61 570Q61 631 103 673Q140 712 206 712Q263 712 302 679Q346 641 348 570L266 570Q266 602 248 623Q231 640 206 640Q179 640 163 624Q144 606 144 576Q144 550 154 533Q165 514 195 499L264 465Q298 450 316 432Q342 405 349.50 374Q357 343 357 271M270.50 194.50Q270.50 194.50 273.25 206.25Q276 218 276 271Q276 324 271 347Q266 370 251 384Q233 402 205 402Q178 402 158 385Q144 372 138.50 348.50Q133 325 133 271Q133 181 158 157Q178 139 205 139Q233 139 251 157Q265 171 270.50 194.50Z"  horiz-adv-x="409" vert-adv-y="1000"  />

      
      <glyph glyph-name="unia8" unicode="&#xa8;" d="M151 601L69 601L69 683L151 683L151 601M307 601L226 601L226 683L307 683L307 601Z"  horiz-adv-x="377" vert-adv-y="1000"  />

      
      <glyph glyph-name="unia9" unicode="&#xa9;" d="M682 612Q682 612 735 559Q788 506 788 356Q788 206 682 100Q576-6 426-6Q276-6 170 100Q64 206 64 356Q64 506 170 612Q276 718 426 718Q576 718 682 612M642 136.50Q642 136.50 686 181.25Q730 226 730 356Q730 486 642 575.50Q554 665 426 665Q299 665 211 575.50Q123 486 123 356Q123 226 211 136.50Q299 47 426 47Q554 47 642 136.50M526 265Q525 208 496 179Q469 152 428 152Q382 152 354 185Q337 205 331 243.50Q325 282 325 356Q325 430 331 468Q337 506 354 526Q382 559 428 559Q469 559 496 532Q525 503 526 446L472 446Q472 482 459 496Q449 509 428 509Q407 509 395 493Q379 472 379 356Q379 239 395 218Q407 202 428 202Q449 202 459 215Q472 229 472 265L526 265Z"  horiz-adv-x="853" vert-adv-y="1000"  />

      
      <glyph glyph-name="uniaa" unicode="&#xaa;" d="M268 307L204 307L204 340Q193 324 178 315Q158 302 130 302Q84 302 56 333Q29 362 29 422Q29 480 69 514Q99 541 158 541L200 541L200 601Q200 657 151 657Q130 657 117 642Q103 628 103 596L35 596Q35 652 69 685Q100 716 151 716Q204 716 234 686Q268 654 268 595L268 307M200 426L200 491L163 491Q133 491 118 477Q97 459 97 425Q97 360 148 360Q171 360 185.50 378.50Q200 397 200 426Z"  horiz-adv-x="314" vert-adv-y="1000"  />

      
      <glyph glyph-name="uniab" unicode="&#xab;" d="M174 42L26 272L174 501L174 374L106 272L174 169L174 42M341 42L193 272L341 501L341 374L272 272L341 169L341 42Z"  horiz-adv-x="392" vert-adv-y="1000"  />

      
      <glyph glyph-name="uniac" unicode="&#xac;" d="M394 146L317 146L317 253L50 253L50 330L394 330L394 146Z"  horiz-adv-x="444" vert-adv-y="1000"  />

      
      <glyph glyph-name="uniad" unicode="&#xad;" d="M247 244L51 244L51 321L247 321L247 244Z"  horiz-adv-x="298" vert-adv-y="1000"  />

      
      <glyph glyph-name="uniae" unicode="&#xae;" d="M682 612Q682 612 735 559Q788 506 788 356Q788 206 682 100Q576-6 426-6Q276-6 170 100Q64 206 64 356Q64 506 170 612Q276 718 426 718Q576 718 682 612M642 136.50Q642 136.50 686 181.25Q730 226 730 356Q730 486 642 575.50Q554 665 426 665Q299 665 211 575.50Q123 486 123 356Q123 226 211 136.50Q299 47 426 47Q554 47 642 136.50M544 157L488 157L436 325L389 325L389 157L335 157L335 554L437 554Q481 554 505 530Q532 503 532 439Q532 377 506 351Q498 343 486 336L544 157M478 439Q478 480 466 493Q455 504 437 504L389 504L389 374L437 374Q454 374 465 385Q478 399 478 439Z"  horiz-adv-x="853" vert-adv-y="1000"  />

      
      <glyph glyph-name="uniaf" unicode="&#xaf;" d="M303 612L74 612L74 669L303 669L303 612Z"  horiz-adv-x="377" vert-adv-y="1000"  />

      
      <glyph glyph-name="unib0" unicode="&#xb0;" d="M303.50 679.50Q303.50 679.50 325.25 657.75Q347 636 347 575Q347 514 303.50 470Q260 426 198 426Q136 426 92.50 470Q49 514 49 575Q49 636 92.50 679.50Q136 723 198 723Q260 723 303.50 679.50M275 575Q275 608 253 630.50Q231 653 198 653Q165 653 143 631Q121 609 121 575Q121 541 143 518.50Q165 496 198 496Q231 496 253 518.50Q275 541 275 575Z"  horiz-adv-x="396" vert-adv-y="1000"  />

      
      <glyph glyph-name="unib1" unicode="&#xb1;" d="M398 301L261 301L261 164L184 164L184 301L46 301L46 378L184 378L184 515L261 515L261 378L398 378L398 301M398 24L46 24L46 101L398 101L398 24Z"  horiz-adv-x="444" vert-adv-y="1000"  />

      
      <glyph glyph-name="unib2" unicode="&#xb2;" d="M261 285L43 285L43 332L178 542Q201 577 201 618Q201 640 187 654Q173 668 150 668Q101 668 101 612L101 588L40 588L40 610Q40 663 70 690Q102 717 150 717Q197 717 228 693Q261 667 261 616Q261 568 231 521L110 334L261 334L261 285Z"  horiz-adv-x="299" vert-adv-y="1000"  />

      
      <glyph glyph-name="unib3" unicode="&#xb3;" d="M263 402Q263 364 257 343.50Q251 323 232 306Q201 280 152 280Q100 280 70 307Q42 333 42 390L42 405L103 405L103 389Q103 354 116 342Q131 329 152 329Q176 329 187 342Q203 360 203 405Q203 451 190 468Q175 484 151 484L125 484L125 531L151 531Q172 531 185 543Q200 557 200 604Q200 644 185 656Q173 668 152 668Q129 668 117 655Q105 643 105 613L105 594L44 594L44 611Q44 665 72 690Q104 717 152 717Q202 717 230 691Q261 661 261 605Q261 560 244 535Q231 517 209 507Q232 498 247 477Q263 452 263 402Z"  horiz-adv-x="299" vert-adv-y="1000"  />

      
      <glyph glyph-name="unib4" unicode="&#xb4;" d="M294 721L213 586L152 586L220 721L294 721Z"  horiz-adv-x="377" vert-adv-y="1000"  />

      
      <glyph glyph-name="unib5" unicode="&#xb5;" d="M341 0L262 0L262 40Q251 20 231 8Q205-8 173-8Q144-8 134 6L134-194L56-194L56 518L137 518L137 137Q137 102 154 83.50Q171 65 198 65Q225 65 242.50 83.50Q260 102 260 137L260 518L341 518L341 0Z"  horiz-adv-x="399" vert-adv-y="1000"  />

      
      <glyph glyph-name="unib6" unicode="&#xb6;" d="M512-194L431-194L431 636L320 636L320-194L239-194L239 296L185 296Q41 296 41 504Q41 712 185 712L512 712L512-194Z"  horiz-adv-x="570" vert-adv-y="1000"  />

      
      <glyph glyph-name="unib7" unicode="&#xb7;" d="M203 233L62 233L62 374L203 374L203 233Z"  horiz-adv-x="266" vert-adv-y="1000"  />

      
      <glyph glyph-name="unib8" unicode="&#xb8;" d="M226-38L176-182L112-182L169-38L226-38Z"  horiz-adv-x="377" vert-adv-y="1000"  />

      
      <glyph glyph-name="unib9" unicode="&#xb9;" d="M199 285L139 285L139 649L67 602L67 663L139 712L199 712L199 285Z"  horiz-adv-x="300" vert-adv-y="1000"  />

      
      <glyph glyph-name="uniba" unicode="&#xba;" d="M245 678Q276 638 276 508Q276 378 245 338Q216 301 156 301Q96 301 67 338Q37 376 37 508Q37 640 67 678Q97 716 156 716Q215 716 245 678M191 377Q208 400 208 508Q208 616 191 639Q179 656 156 656Q133 656 121 639Q105 617 105 508Q105 399 121 377Q133 361 156 361Q179 361 191 377Z"  horiz-adv-x="313" vert-adv-y="1000"  />

      
      <glyph glyph-name="unibb" unicode="&#xbb;" d="M366 272L218 42L218 169L286 272L218 374L218 501L366 272M199 272L51 42L51 169L120 272L51 374L51 501L199 272Z"  horiz-adv-x="392" vert-adv-y="1000"  />

      
      <glyph glyph-name="unibc" unicode="&#xbc;" d="M199 285L139 285L139 649L67 602L67 663L139 712L199 712L199 285M541 712L294 0L230 0L476 712L541 712M739 63L707 63L707 0L647 0L647 63L499 63L499 112L616 427L675 427L560 112L647 112L647 199L707 199L707 112L739 112L739 63Z"  horiz-adv-x="771" vert-adv-y="1000"  />

      
      <glyph glyph-name="unibd" unicode="&#xbd;" d="M199 285L139 285L139 649L67 602L67 663L139 712L199 712L199 285M541 712L294 0L230 0L476 712L541 712M732 0L514 0L514 47L649 257Q672 292 672 333Q672 355 658 369Q644 383 621 383Q572 383 572 327L572 303L511 303L511 325Q511 378 541 405Q573 432 621 432Q668 432 699 408Q732 382 732 331Q732 283 702 236L581 49L732 49L732 0Z"  horiz-adv-x="770" vert-adv-y="1000"  />

      
      <glyph glyph-name="unibe" unicode="&#xbe;" d="M263 402Q263 364 257 343.50Q251 323 232 306Q201 280 152 280Q100 280 70 307Q42 333 42 390L42 405L103 405L103 389Q103 354 116 342Q131 329 152 329Q176 329 187 342Q203 360 203 405Q203 451 190 468Q175 484 151 484L125 484L125 531L151 531Q172 531 185 543Q200 557 200 604Q200 644 185 656Q173 668 152 668Q129 668 117 655Q105 643 105 613L105 594L44 594L44 611Q44 665 72 690Q104 717 152 717Q202 717 230 691Q261 661 261 605Q261 560 244 535Q231 517 209 507Q232 498 247 477Q263 452 263 402M540 712L293 0L229 0L475 712L540 712M738 63L706 63L706 0L646 0L646 63L498 63L498 112L615 427L674 427L559 112L646 112L646 199L706 199L706 112L738 112L738 63Z"  horiz-adv-x="770" vert-adv-y="1000"  />

      
      <glyph glyph-name="unibf" unicode="&#xbf;" d="M344-26Q344-116 301-158Q257-200 192-200Q123-200 82-159Q38-115 38-17Q38 57 69 102L128 187Q150 219 150 257L150 325L231 325L231 247Q231 205 203 163L145 78Q119 40 119-19Q119-80 143-107Q161-127 192-127Q221-127 240-108Q263-84 263-26L344-26M240 419L141 419L141 518L240 518L240 419Z"  horiz-adv-x="400" vert-adv-y="1000"  />

      
      <glyph glyph-name="unic0" unicode="&#xc0;" d="M419 0L328 0L294 168L129 168L95 0L5 0L171 712L254 712L419 0M278 245L212 573L145 245L278 245M251 762L189 762L108 897L182 897L251 762Z"  horiz-adv-x="424" vert-adv-y="1000"  />

      
      <glyph glyph-name="unic1" unicode="&#xc1;" d="M419 0L328 0L294 168L129 168L95 0L5 0L171 712L254 712L419 0M278 245L212 573L145 245L278 245M320 897L239 762L177 762L246 897L320 897Z"  horiz-adv-x="424" vert-adv-y="1000"  />

      
      <glyph glyph-name="unic2" unicode="&#xc2;" d="M419 0L328 0L294 168L129 168L95 0L5 0L171 712L254 712L419 0M278 245L212 573L145 245L278 245M340 762L274 762L214 849L154 762L88 762L181 897L247 897L340 762Z"  horiz-adv-x="424" vert-adv-y="1000"  />

      
      <glyph glyph-name="unic3" unicode="&#xc3;" d="M419 0L328 0L294 168L129 168L95 0L5 0L171 712L254 712L419 0M278 245L212 573L145 245L278 245M347 814Q305 772 267 772Q239 772 210 788Q181 804 166 804Q146 804 121 781L85 818Q127 861 164 861Q192 861 219.50 844.50Q247 828 265 828Q286 828 309 851L347 814Z"  horiz-adv-x="424" vert-adv-y="1000"  />

      
      <glyph glyph-name="unic4" unicode="&#xc4;" d="M419 0L328 0L294 168L129 168L95 0L5 0L171 712L254 712L419 0M278 245L212 573L145 245L278 245M333 777L251 777L251 858L333 858L333 777M177 777L95 777L95 858L177 858L177 777Z"  horiz-adv-x="424" vert-adv-y="1000"  />

      
      <glyph glyph-name="unic5" unicode="&#xc5;" d="M419 0L328 0L294 168L129 168L95 0L5 0L171 712L254 712L419 0M278 245L212 573L145 245L278 245M283 919Q283 919 297.50 904.50Q312 890 312 850Q312 810 283 781Q254 752 214 752Q174 752 145 781Q116 810 116 850Q116 890 145 919Q174 948 214 948Q254 948 283 919M248.50 815.50Q248.50 815.50 255.75 822.75Q263 830 263 850Q263 870 248.50 884.50Q234 899 214 899Q194 899 179.50 884.50Q165 870 165 850Q165 830 179.50 815.50Q194 801 214 801Q234 801 248.50 815.50Z"  horiz-adv-x="424" vert-adv-y="1000"  />

      
      <glyph glyph-name="unic6" unicode="&#xc6;" d="M598 0L324 0L324 172L161 172L100 0L5 0L268 712L598 712L598 635L410 635L410 396L572 396L572 319L410 319L410 77L598 77L598 0M324 250L324 635L188 250L324 250Z"  horiz-adv-x="640" vert-adv-y="1000"  />

      
      <glyph glyph-name="unic7" unicode="&#xc7;" d="M385 176Q383 79 331 31Q287-8 221-8Q144-8 99 44Q65 83 56 142Q47 201 47 356Q47 511 56 570Q65 629 99 668Q144 720 221 720Q290 720 334 678Q383 630 385 537L300 537Q298 592 277 618Q257 643 221 643Q182 643 162 616Q144 591 138.50 539Q133 487 133 356Q133 225 138.50 173Q144 121 162 96Q182 69 221 69Q257 69 277 94Q298 122 300 176L385 176M251-38L201-182L137-182L194-38L251-38Z"  horiz-adv-x="423" vert-adv-y="1000"  />

      
      <glyph glyph-name="unic8" unicode="&#xc8;" d="M339 0L64 0L64 712L339 712L339 635L150 635L150 396L313 396L313 319L150 319L150 77L339 77L339 0M242 762L180 762L99 897L173 897L242 762Z"  horiz-adv-x="380" vert-adv-y="1000"  />

      
      <glyph glyph-name="unic9" unicode="&#xc9;" d="M339 0L64 0L64 712L339 712L339 635L150 635L150 396L313 396L313 319L150 319L150 77L339 77L339 0M311 897L230 762L168 762L237 897L311 897Z"  horiz-adv-x="380" vert-adv-y="1000"  />

      
      <glyph glyph-name="unica" unicode="&#xca;" d="M339 0L64 0L64 712L339 712L339 635L150 635L150 396L313 396L313 319L150 319L150 77L339 77L339 0M331 762L265 762L205 849L145 762L79 762L172 897L238 897L331 762Z"  horiz-adv-x="380" vert-adv-y="1000"  />

      
      <glyph glyph-name="unicb" unicode="&#xcb;" d="M339 0L64 0L64 712L339 712L339 635L150 635L150 396L313 396L313 319L150 319L150 77L339 77L339 0M324 777L242 777L242 858L324 858L324 777M168 777L86 777L86 858L168 858L168 777Z"  horiz-adv-x="380" vert-adv-y="1000"  />

      
      <glyph glyph-name="unicc" unicode="&#xcc;" d="M150 0L64 0L64 712L150 712L150 0M145 762L83 762L2 897L76 897L145 762Z"  horiz-adv-x="215" vert-adv-y="1000"  />

      
      <glyph glyph-name="unicd" unicode="&#xcd;" d="M150 0L64 0L64 712L150 712L150 0M214 897L133 762L71 762L140 897L214 897Z"  horiz-adv-x="215" vert-adv-y="1000"  />

      
      <glyph glyph-name="unice" unicode="&#xce;" d="M150 0L64 0L64 712L150 712L150 0M234 762L168 762L108 849L48 762L-18 762L75 897L141 897L234 762Z"  horiz-adv-x="215" vert-adv-y="1000"  />

      
      <glyph glyph-name="unicf" unicode="&#xcf;" d="M150 0L64 0L64 712L150 712L150 0M227 777L145 777L145 858L227 858L227 777M71 777L-11 777L-11 858L71 858L71 777Z"  horiz-adv-x="215" vert-adv-y="1000"  />

      
      <glyph glyph-name="unid0" unicode="&#xd0;" d="M403.50 564Q403.50 564 407.75 533.50Q412 503 412 356Q412 209 403.50 148Q395 87 361 50Q314 0 239 0L75 0L75 323L23 323L23 392L75 392L75 712L239 712Q314 712 361 662Q395 625 403.50 564M321 177.50Q321 177.50 323.50 202.25Q326 227 326 356Q326 485 321 534.50Q316 584 297 608Q277 635 236 635L161 635L161 392L242 392L242 323L161 323L161 77L236 77Q277 77 297 104Q316 128 321 177.50Z"  horiz-adv-x="459" vert-adv-y="1000"  />

      
      <glyph glyph-name="unid1" unicode="&#xd1;" d="M412 0L334 0L150 487L150 0L64 0L64 712L144 712L326 225L326 712L412 712L412 0M371 814Q329 772 291 772Q263 772 234 788Q205 804 190 804Q170 804 145 781L109 818Q151 861 188 861Q216 861 243.50 844.50Q271 828 289 828Q310 828 333 851L371 814Z"  horiz-adv-x="477" vert-adv-y="1000"  />

      
      <glyph glyph-name="unid2" unicode="&#xd2;" d="M385.50 570.50Q385.50 570.50 390.25 540.25Q395 510 395 356Q395 202 385.50 141.50Q376 81 343 44Q296-8 221-8Q146-8 99 44Q66 81 56.50 141.50Q47 202 47 356Q47 510 56.50 570.50Q66 631 99 668Q146 720 221 720Q296 720 343 668Q376 631 385.50 570.50M303 173.50Q303 173.50 306 199.75Q309 226 309 356Q309 486 303 538.50Q297 591 279 616Q259 643 221 643Q182 643 162 616Q144 591 138.50 539Q133 487 133 356Q133 225 138.50 173Q144 121 162 96Q182 69 221 69Q259 69 279 96Q297 121 303 173.50M258 762L196 762L115 897L189 897L258 762Z"  horiz-adv-x="442" vert-adv-y="1000"  />

      
      <glyph glyph-name="unid3" unicode="&#xd3;" d="M385.50 570.50Q385.50 570.50 390.25 540.25Q395 510 395 356Q395 202 385.50 141.50Q376 81 343 44Q296-8 221-8Q146-8 99 44Q66 81 56.50 141.50Q47 202 47 356Q47 510 56.50 570.50Q66 631 99 668Q146 720 221 720Q296 720 343 668Q376 631 385.50 570.50M303 173.50Q303 173.50 306 199.75Q309 226 309 356Q309 486 303 538.50Q297 591 279 616Q259 643 221 643Q182 643 162 616Q144 591 138.50 539Q133 487 133 356Q133 225 138.50 173Q144 121 162 96Q182 69 221 69Q259 69 279 96Q297 121 303 173.50M327 897L246 762L184 762L253 897L327 897Z"  horiz-adv-x="442" vert-adv-y="1000"  />

      
      <glyph glyph-name="unid4" unicode="&#xd4;" d="M385.50 570.50Q385.50 570.50 390.25 540.25Q395 510 395 356Q395 202 385.50 141.50Q376 81 343 44Q296-8 221-8Q146-8 99 44Q66 81 56.50 141.50Q47 202 47 356Q47 510 56.50 570.50Q66 631 99 668Q146 720 221 720Q296 720 343 668Q376 631 385.50 570.50M303 173.50Q303 173.50 306 199.75Q309 226 309 356Q309 486 303 538.50Q297 591 279 616Q259 643 221 643Q182 643 162 616Q144 591 138.50 539Q133 487 133 356Q133 225 138.50 173Q144 121 162 96Q182 69 221 69Q259 69 279 96Q297 121 303 173.50M347 762L281 762L221 849L161 762L95 762L188 897L254 897L347 762Z"  horiz-adv-x="442" vert-adv-y="1000"  />

      
      <glyph glyph-name="unid5" unicode="&#xd5;" d="M385.50 570.50Q385.50 570.50 390.25 540.25Q395 510 395 356Q395 202 385.50 141.50Q376 81 343 44Q296-8 221-8Q146-8 99 44Q66 81 56.50 141.50Q47 202 47 356Q47 510 56.50 570.50Q66 631 99 668Q146 720 221 720Q296 720 343 668Q376 631 385.50 570.50M303 173.50Q303 173.50 306 199.75Q309 226 309 356Q309 486 303 538.50Q297 591 279 616Q259 643 221 643Q182 643 162 616Q144 591 138.50 539Q133 487 133 356Q133 225 138.50 173Q144 121 162 96Q182 69 221 69Q259 69 279 96Q297 121 303 173.50M354 814Q312 772 274 772Q246 772 217 788Q188 804 173 804Q153 804 128 781L92 818Q134 861 171 861Q199 861 226.50 844.50Q254 828 272 828Q293 828 316 851L354 814Z"  horiz-adv-x="442" vert-adv-y="1000"  />

      
      <glyph glyph-name="unid6" unicode="&#xd6;" d="M385.50 570.50Q385.50 570.50 390.25 540.25Q395 510 395 356Q395 202 385.50 141.50Q376 81 343 44Q296-8 221-8Q146-8 99 44Q66 81 56.50 141.50Q47 202 47 356Q47 510 56.50 570.50Q66 631 99 668Q146 720 221 720Q296 720 343 668Q376 631 385.50 570.50M303 173.50Q303 173.50 306 199.75Q309 226 309 356Q309 486 303 538.50Q297 591 279 616Q259 643 221 643Q182 643 162 616Q144 591 138.50 539Q133 487 133 356Q133 225 138.50 173Q144 121 162 96Q182 69 221 69Q259 69 279 96Q297 121 303 173.50M340 777L258 777L258 858L340 858L340 777M184 777L102 777L102 858L184 858L184 777Z"  horiz-adv-x="442" vert-adv-y="1000"  />

      
      <glyph glyph-name="unid7" unicode="&#xd7;" d="M391 161L339 109L222 225L106 109L53 161L170 278L53 394L106 447L222 330L339 447L391 394L275 278L391 161Z"  horiz-adv-x="444" vert-adv-y="1000"  />

      
      <glyph glyph-name="unid8" unicode="&#xd8;" d="M395 356Q395 202 385.50 141.50Q376 81 343 44Q296-8 221-8Q172-8 138 12L119-44L57-44L91 52Q63 88 55 150Q47 212 47 356Q47 510 56.50 570.50Q66 631 99 668Q146 720 221 720Q269 720 304 700L322 756L384 756L352 659Q379 623 387 561Q395 499 395 356M277 621Q257 643 221 643Q182 643 162 616Q144 591 138.50 539Q133 487 133 356Q133 221 141 180L277 621M309 356Q309 491 301 531L165 91Q184 69 221 69Q259 69 279 96Q298 121 303.50 172.50Q309 224 309 356Z"  horiz-adv-x="431" vert-adv-y="1000"  />

      
      <glyph glyph-name="unid9" unicode="&#xd9;" d="M387 162Q387 85 341 39Q294-8 222-8Q151-8 104 39Q58 85 58 162L58 712L144 712L144 157Q144 116 166.50 92.50Q189 69 222 69Q256 69 278.50 92.50Q301 116 301 157L301 712L387 712L387 162M259 762L197 762L116 897L190 897L259 762Z"  horiz-adv-x="445" vert-adv-y="1000"  />

      
      <glyph glyph-name="unida" unicode="&#xda;" d="M387 162Q387 85 341 39Q294-8 222-8Q151-8 104 39Q58 85 58 162L58 712L144 712L144 157Q144 116 166.50 92.50Q189 69 222 69Q256 69 278.50 92.50Q301 116 301 157L301 712L387 712L387 162M328 897L247 762L185 762L254 897L328 897Z"  horiz-adv-x="445" vert-adv-y="1000"  />

      
      <glyph glyph-name="unidb" unicode="&#xdb;" d="M387 162Q387 85 341 39Q294-8 222-8Q151-8 104 39Q58 85 58 162L58 712L144 712L144 157Q144 116 166.50 92.50Q189 69 222 69Q256 69 278.50 92.50Q301 116 301 157L301 712L387 712L387 162M348 762L282 762L222 849L162 762L96 762L189 897L255 897L348 762Z"  horiz-adv-x="445" vert-adv-y="1000"  />

      
      <glyph glyph-name="unidc" unicode="&#xdc;" d="M387 162Q387 85 341 39Q294-8 222-8Q151-8 104 39Q58 85 58 162L58 712L144 712L144 157Q144 116 166.50 92.50Q189 69 222 69Q256 69 278.50 92.50Q301 116 301 157L301 712L387 712L387 162M341 777L259 777L259 858L341 858L341 777M185 777L103 777L103 858L185 858L185 777Z"  horiz-adv-x="445" vert-adv-y="1000"  />

      
      <glyph glyph-name="unidd" unicode="&#xdd;" d="M351 712L219 288L219 0L133 0L133 288L2 712L96 712L176 408L256 712L351 712M285 897L204 762L142 762L211 897L285 897Z"  horiz-adv-x="353" vert-adv-y="1000"  />

      
      <glyph glyph-name="unide" unicode="&#xde;" d="M351 521Q351 521 372 497.50Q393 474 393 360Q393 246 351 199Q309 152 224 152L150 152L150 0L64 0L64 712L150 712L150 568L224 568Q309 568 351 521M286.50 259.50Q286.50 259.50 296.75 274.75Q307 290 307 360Q307 430 286.50 460Q266 490 223 490L150 490L150 229L223 229Q266 229 286.50 259.50Z"  horiz-adv-x="435" vert-adv-y="1000"  />

      
      <glyph glyph-name="unidf" unicode="&#xdf;" d="M355 219Q355 145 347.50 105Q340 65 311 37Q274 0 201 0L201 73Q235 73 253 92Q265 107 269.50 135Q274 163 274 225Q274 326 254 354Q239 375 209 375L201 375L201 444L208 444Q231 444 246 461Q265 484 265 545Q265 604 246 627Q231 647 201 647Q173 647 155.50 628Q138 609 138 573L138 0L57 0L57 571Q57 642 98 681Q137 720 200 720Q266 720 304 682Q329 657 337.50 627Q346 597 346 551Q346 483 328 451Q316 429 292 411Q311 401 327 378Q344 355 349.50 322Q355 289 355 219Z"  horiz-adv-x="394" vert-adv-y="1000"  />

      
      <glyph glyph-name="unie0" unicode="&#xe0;" d="M322 0L245 0L245 46Q233 26 215 11Q190-8 154-8Q100-8 65 31Q32 69 32 147Q32 223 78 264Q118 299 188 299L241 299L241 381Q241 455 180 455Q157 455 140 438Q121 418 121 378L40 378Q40 448 80 488Q118 526 180 526Q245 526 281 490Q322 447 322 376L322 0M241 144L241 240L195 240Q157 240 137 221Q113 199 113 150Q113 63 176 63Q205 63 223 85.50Q241 108 241 144M222 586L160 586L79 721L153 721L222 586Z"  horiz-adv-x="375" vert-adv-y="1000"  />

      
      <glyph glyph-name="unie1" unicode="&#xe1;" d="M322 0L245 0L245 46Q233 26 215 11Q190-8 154-8Q100-8 65 31Q32 69 32 147Q32 223 78 264Q118 299 188 299L241 299L241 381Q241 455 180 455Q157 455 140 438Q121 418 121 378L40 378Q40 448 80 488Q118 526 180 526Q245 526 281 490Q322 447 322 376L322 0M241 144L241 240L195 240Q157 240 137 221Q113 199 113 150Q113 63 176 63Q205 63 223 85.50Q241 108 241 144M290 721L209 586L148 586L216 721L290 721Z"  horiz-adv-x="375" vert-adv-y="1000"  />

      
      <glyph glyph-name="unie2" unicode="&#xe2;" d="M322 0L245 0L245 46Q233 26 215 11Q190-8 154-8Q100-8 65 31Q32 69 32 147Q32 223 78 264Q118 299 188 299L241 299L241 381Q241 455 180 455Q157 455 140 438Q121 418 121 378L40 378Q40 448 80 488Q118 526 180 526Q245 526 281 490Q322 447 322 376L322 0M241 144L241 240L195 240Q157 240 137 221Q113 199 113 150Q113 63 176 63Q205 63 223 85.50Q241 108 241 144M310 586L243 586L183 673L124 586L57 586L150 721L217 721L310 586Z"  horiz-adv-x="375" vert-adv-y="1000"  />

      
      <glyph glyph-name="unie3" unicode="&#xe3;" d="M322 0L245 0L245 46Q233 26 215 11Q190-8 154-8Q100-8 65 31Q32 69 32 147Q32 223 78 264Q118 299 188 299L241 299L241 381Q241 455 180 455Q157 455 140 438Q121 418 121 378L40 378Q40 448 80 488Q118 526 180 526Q245 526 281 490Q322 447 322 376L322 0M241 144L241 240L195 240Q157 240 137 221Q113 199 113 150Q113 63 176 63Q205 63 223 85.50Q241 108 241 144M317 638Q274 596 237 596Q210 596 179 613Q154 628 136 628Q114 628 91 605L55 643Q97 685 134 685Q164 685 192 668Q217 653 235 653Q256 653 279 676L317 638Z"  horiz-adv-x="375" vert-adv-y="1000"  />

      
      <glyph glyph-name="unie4" unicode="&#xe4;" d="M322 0L245 0L245 46Q233 26 215 11Q190-8 154-8Q100-8 65 31Q32 69 32 147Q32 223 78 264Q118 299 188 299L241 299L241 381Q241 455 180 455Q157 455 140 438Q121 418 121 378L40 378Q40 448 80 488Q118 526 180 526Q245 526 281 490Q322 447 322 376L322 0M241 144L241 240L195 240Q157 240 137 221Q113 199 113 150Q113 63 176 63Q205 63 223 85.50Q241 108 241 144M302 601L221 601L221 683L302 683L302 601M146 601L64 601L64 683L146 683L146 601Z"  horiz-adv-x="375" vert-adv-y="1000"  />

      
      <glyph glyph-name="unie5" unicode="&#xe5;" d="M322 0L245 0L245 46Q233 26 215 11Q190-8 154-8Q100-8 65 31Q32 69 32 147Q32 223 78 264Q118 299 188 299L241 299L241 381Q241 455 180 455Q157 455 140 438Q121 418 121 378L40 378Q40 448 80 488Q118 526 180 526Q245 526 281 490Q322 447 322 376L322 0M241 144L241 240L195 240Q157 240 137 221Q113 199 113 150Q113 63 176 63Q205 63 223 85.50Q241 108 241 144M252.50 750.50Q252.50 750.50 266.75 736.25Q281 722 281 681Q281 640 252.50 611.50Q224 583 183 583Q143 583 114.50 612Q86 641 86 681Q86 721 114.50 750Q143 779 183 779Q224 779 252.50 750.50M218 646.50Q218 646.50 225.50 653.75Q233 661 233 681Q233 701 218 715.50Q203 730 183 730Q163 730 148.50 715.50Q134 701 134 681Q134 661 148.50 646.50Q163 632 183 632Q203 632 218 646.50Z"  horiz-adv-x="375" vert-adv-y="1000"  />

      
      <glyph glyph-name="unie6" unicode="&#xe6;" d="M535 240L322 240Q322 114 343 87Q360 65 389 65Q417 65 435 85Q453 104 453 145L533 145Q531 74 492 30Q455-8 389-8Q339-8 303 20Q283 36 267 64Q248 30 228 15Q198-8 154-8Q100-8 65 31Q32 67 32 147Q32 223 78 264Q118 299 188 299L241 299L241 381Q241 455 181 455Q155 455 139 437Q121 418 121 378L40 378Q40 448 80 488Q118 526 180 526Q234 526 266 500Q273 494 285 478Q288 483 300 495Q336 526 388 526Q451 526 490 486Q517 457 526 401.50Q535 346 535 240M241 144L241 240L195 240Q159 240 137 221Q113 197 113 150Q113 63 176 63Q204 63 222.50 86Q241 109 241 144M453 301Q453 408 433 432Q417 453 387 453Q358 453 342 432Q322 408 322 301L453 301Z"  horiz-adv-x="573" vert-adv-y="1000"  />

      
      <glyph glyph-name="unie7" unicode="&#xe7;" d="M330 145Q327 67 289 28Q253-8 187-8Q114-8 78 40Q40 89 40 259Q40 346 48 397.50Q56 449 78 478Q114 526 187 526Q252 526 288 491Q326 455 330 374L249 374Q249 415 233 434Q217 453 188 453Q158 453 142 431Q129 414 125.50 377Q122 340 122 259Q122 179 125.50 142Q129 105 142 87Q158 65 188 65Q216 65 232 84Q249 103 249 145L330 145M226-38L176-182L112-182L169-38L226-38Z"  horiz-adv-x="362" vert-adv-y="1000"  />

      
      <glyph glyph-name="unie8" unicode="&#xe8;" d="M335 240L122 240Q122 114 143 87Q158 65 189 65Q218 65 235 85Q252 105 252 145L333 145Q332 73 291 30Q254-8 189-8Q123-8 86 32Q59 61 49.50 115Q40 169 40 259Q40 350 49 403.50Q58 457 85 486Q122 526 187 526Q252 526 289 486Q317 457 326 401Q335 345 335 240M253 301Q253 408 233 432Q217 453 187 453Q158 453 142 432Q122 408 122 301L253 301M226 586L164 586L83 721L157 721L226 586Z"  horiz-adv-x="372" vert-adv-y="1000"  />

      
      <glyph glyph-name="unie9" unicode="&#xe9;" d="M335 240L122 240Q122 114 143 87Q158 65 189 65Q218 65 235 85Q252 105 252 145L333 145Q332 73 291 30Q254-8 189-8Q123-8 86 32Q59 61 49.50 115Q40 169 40 259Q40 350 49 403.50Q58 457 85 486Q122 526 187 526Q252 526 289 486Q317 457 326 401Q335 345 335 240M253 301Q253 408 233 432Q217 453 187 453Q158 453 142 432Q122 408 122 301L253 301M294 721L213 586L152 586L220 721L294 721Z"  horiz-adv-x="372" vert-adv-y="1000"  />

      
      <glyph glyph-name="uniea" unicode="&#xea;" d="M335 240L122 240Q122 114 143 87Q158 65 189 65Q218 65 235 85Q252 105 252 145L333 145Q332 73 291 30Q254-8 189-8Q123-8 86 32Q59 61 49.50 115Q40 169 40 259Q40 350 49 403.50Q58 457 85 486Q122 526 187 526Q252 526 289 486Q317 457 326 401Q335 345 335 240M253 301Q253 408 233 432Q217 453 187 453Q158 453 142 432Q122 408 122 301L253 301M314 586L247 586L187 673L128 586L61 586L154 721L221 721L314 586Z"  horiz-adv-x="372" vert-adv-y="1000"  />

      
      <glyph glyph-name="unieb" unicode="&#xeb;" d="M335 240L122 240Q122 114 143 87Q158 65 189 65Q218 65 235 85Q252 105 252 145L333 145Q332 73 291 30Q254-8 189-8Q123-8 86 32Q59 61 49.50 115Q40 169 40 259Q40 350 49 403.50Q58 457 85 486Q122 526 187 526Q252 526 289 486Q317 457 326 401Q335 345 335 240M253 301Q253 408 233 432Q217 453 187 453Q158 453 142 432Q122 408 122 301L253 301M306 601L225 601L225 683L306 683L306 601M150 601L68 601L68 683L150 683L150 601Z"  horiz-adv-x="372" vert-adv-y="1000"  />

      
      <glyph glyph-name="uniec" unicode="&#xec;" d="M138 0L57 0L57 518L138 518L138 0M135 586L73 586L-8 721L66 721L135 586Z"  horiz-adv-x="195" vert-adv-y="1000"  />

      
      <glyph glyph-name="unied" unicode="&#xed;" d="M138 0L57 0L57 518L138 518L138 0M205 721L124 586L63 586L131 721L205 721Z"  horiz-adv-x="195" vert-adv-y="1000"  />

      
      <glyph glyph-name="uniee" unicode="&#xee;" d="M138 0L57 0L57 518L138 518L138 0M225 586L158 586L98 673L39 586L-28 586L65 721L132 721L225 586Z"  horiz-adv-x="195" vert-adv-y="1000"  />

      
      <glyph glyph-name="unief" unicode="&#xef;" d="M138 0L57 0L57 518L138 518L138 0M218 601L137 601L137 683L218 683L218 601M62 601L-20 601L-20 683L62 683L62 601Z"  horiz-adv-x="195" vert-adv-y="1000"  />

      
      <glyph glyph-name="unif0" unicode="&#xf0;" d="M335 246Q335 162 327 113Q319 64 297 37Q260-8 188-8Q117-8 80 37Q41 85 41 246Q41 340 48.50 388.50Q56 437 79 463Q111 500 168 500Q200 500 226 484L195 575L117 575L117 636L175 636L148 712L230 712L257 636L328 636L328 575L276 575L311 467Q335 391 335 246M250.50 137Q250.50 137 252.25 154Q254 171 254 247Q254 323 250.50 357.50Q247 392 234 409Q218 430 188 430Q159 430 143 409Q130 392 126 356.50Q122 321 122 247Q122 173 126 138Q130 103 143 86Q159 65 188 65Q218 65 234 86Q247 103 250.50 137Z"  horiz-adv-x="378" vert-adv-y="1000"  />

      
      <glyph glyph-name="unif1" unicode="&#xf1;" d="M342 0L261 0L261 381Q261 415 243.50 433.50Q226 452 199 452Q172 452 155 433.50Q138 415 138 381L138 0L57 0L57 518L135 518L135 478Q146 497 167 510Q193 526 223 526Q278 526 311 488Q342 454 342 381L342 0M334 638Q291 596 254 596Q227 596 196 613Q171 628 153 628Q131 628 108 605L72 643Q114 685 151 685Q181 685 209 668Q234 653 252 653Q273 653 296 676L334 638Z"  horiz-adv-x="395" vert-adv-y="1000"  />

      
      <glyph glyph-name="unif2" unicode="&#xf2;" d="M327.50 398Q327.50 398 331.25 372.50Q335 347 335 259Q335 171 327.50 120Q320 69 298 40Q262-8 188-8Q115-8 79 40Q57 69 49 120.50Q41 172 41 259Q41 346 49 397.50Q57 449 79 478Q115 526 188 526Q262 526 298 478Q320 449 327.50 398M250.50 142Q250.50 142 252.25 160.50Q254 179 254 259Q254 339 250.50 376Q247 413 234 431Q218 453 188 453Q159 453 143 431Q130 413 126 375Q122 337 122 259Q122 181 126 143Q130 105 143 87Q159 65 188 65Q218 65 234 87Q247 105 250.50 142M227 586L165 586L84 721L158 721L227 586Z"  horiz-adv-x="376" vert-adv-y="1000"  />

      
      <glyph glyph-name="unif3" unicode="&#xf3;" d="M327.50 398Q327.50 398 331.25 372.50Q335 347 335 259Q335 171 327.50 120Q320 69 298 40Q262-8 188-8Q115-8 79 40Q57 69 49 120.50Q41 172 41 259Q41 346 49 397.50Q57 449 79 478Q115 526 188 526Q262 526 298 478Q320 449 327.50 398M250.50 142Q250.50 142 252.25 160.50Q254 179 254 259Q254 339 250.50 376Q247 413 234 431Q218 453 188 453Q159 453 143 431Q130 413 126 375Q122 337 122 259Q122 181 126 143Q130 105 143 87Q159 65 188 65Q218 65 234 87Q247 105 250.50 142M295 721L214 586L153 586L221 721L295 721Z"  horiz-adv-x="376" vert-adv-y="1000"  />

      
      <glyph glyph-name="unif4" unicode="&#xf4;" d="M327.50 398Q327.50 398 331.25 372.50Q335 347 335 259Q335 171 327.50 120Q320 69 298 40Q262-8 188-8Q115-8 79 40Q57 69 49 120.50Q41 172 41 259Q41 346 49 397.50Q57 449 79 478Q115 526 188 526Q262 526 298 478Q320 449 327.50 398M250.50 142Q250.50 142 252.25 160.50Q254 179 254 259Q254 339 250.50 376Q247 413 234 431Q218 453 188 453Q159 453 143 431Q130 413 126 375Q122 337 122 259Q122 181 126 143Q130 105 143 87Q159 65 188 65Q218 65 234 87Q247 105 250.50 142M315 586L248 586L188 673L129 586L62 586L155 721L222 721L315 586Z"  horiz-adv-x="376" vert-adv-y="1000"  />

      
      <glyph glyph-name="unif5" unicode="&#xf5;" d="M327.50 398Q327.50 398 331.25 372.50Q335 347 335 259Q335 171 327.50 120Q320 69 298 40Q262-8 188-8Q115-8 79 40Q57 69 49 120.50Q41 172 41 259Q41 346 49 397.50Q57 449 79 478Q115 526 188 526Q262 526 298 478Q320 449 327.50 398M250.50 142Q250.50 142 252.25 160.50Q254 179 254 259Q254 339 250.50 376Q247 413 234 431Q218 453 188 453Q159 453 143 431Q130 413 126 375Q122 337 122 259Q122 181 126 143Q130 105 143 87Q159 65 188 65Q218 65 234 87Q247 105 250.50 142M322 638Q279 596 242 596Q215 596 184 613Q159 628 141 628Q119 628 96 605L60 643Q102 685 139 685Q169 685 197 668Q222 653 240 653Q261 653 284 676L322 638Z"  horiz-adv-x="376" vert-adv-y="1000"  />

      
      <glyph glyph-name="unif6" unicode="&#xf6;" d="M327.50 398Q327.50 398 331.25 372.50Q335 347 335 259Q335 171 327.50 120Q320 69 298 40Q262-8 188-8Q115-8 79 40Q57 69 49 120.50Q41 172 41 259Q41 346 49 397.50Q57 449 79 478Q115 526 188 526Q262 526 298 478Q320 449 327.50 398M250.50 142Q250.50 142 252.25 160.50Q254 179 254 259Q254 339 250.50 376Q247 413 234 431Q218 453 188 453Q159 453 143 431Q130 413 126 375Q122 337 122 259Q122 181 126 143Q130 105 143 87Q159 65 188 65Q218 65 234 87Q247 105 250.50 142M307 601L226 601L226 683L307 683L307 601M151 601L69 601L69 683L151 683L151 601Z"  horiz-adv-x="376" vert-adv-y="1000"  />

      
      <glyph glyph-name="unif7" unicode="&#xf7;" d="M398 238L46 238L46 316L398 316L398 238M273 394L173 394L173 493L273 493L273 394M273 60L173 60L173 160L273 160L273 60Z"  horiz-adv-x="444" vert-adv-y="1000"  />

      
      <glyph glyph-name="unif8" unicode="&#xf8;" d="M339 562L302 471Q334 423 334 259Q334 171 326.50 120Q319 69 297 40Q261-8 187-8Q145-8 114 9L94-44L36-44L72 47Q40 97 40 259Q40 346 48 397.50Q56 449 78 478Q114 526 187 526Q229 526 260 509L281 562L339 562M254 259Q254 335 248 357L145 80Q161 62 187 62Q217 62 233 84Q246 102 250 140.50Q254 179 254 259M230 438Q214 456 187 456Q158 456 142 434Q129 416 125 377.50Q121 339 121 259Q121 179 126 161L230 438Z"  horiz-adv-x="370" vert-adv-y="1000"  />

      
      <glyph glyph-name="unif9" unicode="&#xf9;" d="M338 0L260 0L260 40Q249 21 228 8Q202-8 172-8Q117-8 84 30Q53 64 53 137L53 518L134 518L134 137Q134 102 151.50 83.50Q169 65 196 65Q223 65 240 83.50Q257 102 257 137L257 518L338 518L338 0M234 586L172 586L91 721L165 721L234 586Z"  horiz-adv-x="395" vert-adv-y="1000"  />

      
      <glyph glyph-name="unifa" unicode="&#xfa;" d="M338 0L260 0L260 40Q249 21 228 8Q202-8 172-8Q117-8 84 30Q53 64 53 137L53 518L134 518L134 137Q134 102 151.50 83.50Q169 65 196 65Q223 65 240 83.50Q257 102 257 137L257 518L338 518L338 0M302 721L221 586L160 586L228 721L302 721Z"  horiz-adv-x="395" vert-adv-y="1000"  />

      
      <glyph glyph-name="unifb" unicode="&#xfb;" d="M338 0L260 0L260 40Q249 21 228 8Q202-8 172-8Q117-8 84 30Q53 64 53 137L53 518L134 518L134 137Q134 102 151.50 83.50Q169 65 196 65Q223 65 240 83.50Q257 102 257 137L257 518L338 518L338 0M322 586L255 586L195 673L136 586L69 586L162 721L229 721L322 586Z"  horiz-adv-x="395" vert-adv-y="1000"  />

      
      <glyph glyph-name="unifc" unicode="&#xfc;" d="M338 0L260 0L260 40Q249 21 228 8Q202-8 172-8Q117-8 84 30Q53 64 53 137L53 518L134 518L134 137Q134 102 151.50 83.50Q169 65 196 65Q223 65 240 83.50Q257 102 257 137L257 518L338 518L338 0M314 601L233 601L233 683L314 683L314 601M158 601L76 601L76 683L158 683L158 601Z"  horiz-adv-x="395" vert-adv-y="1000"  />

      
      <glyph glyph-name="unifd" unicode="&#xfd;" d="M339 518L193-83Q178-148 135.50-171Q93-194 21-194L21-122Q61-122 83-109Q105-96 114-62L130 1L4 518L93 518L172 129L250 518L339 518M282 721L201 586L140 586L208 721L282 721Z"  horiz-adv-x="345" vert-adv-y="1000"  />

      
      <glyph glyph-name="unife" unicode="&#xfe;" d="M139 712L139 482Q152 500 168 511Q192 526 224 526Q278 526 310 488Q333 461 340.50 409.50Q348 358 348 259Q348 160 340.50 109Q333 58 310 31Q277-8 224-8Q192-8 168 7Q152 18 139 36L139-194L58-194L58 712L139 712M262 138.50Q262 138.50 264 156.75Q266 175 266 259Q266 343 262 379.50Q258 416 245 432Q229 453 201 453Q175 453 159 437Q139 417 139 378L139 141Q139 101 159 81Q175 65 201 65Q229 65 245 86Q258 102 262 138.50Z"  horiz-adv-x="389" vert-adv-y="1000"  />

      
      <glyph glyph-name="uniff" unicode="&#xff;" d="M339 518L193-83Q178-148 135.50-171Q93-194 21-194L21-122Q61-122 83-109Q105-96 114-62L130 1L4 518L93 518L172 129L250 518L339 518M294 601L213 601L213 683L294 683L294 601M138 601L56 601L56 683L138 683L138 601Z"  horiz-adv-x="345" vert-adv-y="1000"  />

      
      <glyph glyph-name="uni0100" unicode="&#x0100;" d="M419 0L328 0L294 168L129 168L95 0L5 0L171 712L254 712L419 0M278 245L212 573L145 245L278 245M327 780L99 780L99 838L327 838L327 780Z"  horiz-adv-x="424" vert-adv-y="1000"  />

      
      <glyph glyph-name="uni0101" unicode="&#x0101;" d="M322 0L245 0L245 46Q233 26 215 11Q190-8 154-8Q100-8 65 31Q32 69 32 147Q32 223 78 264Q118 299 188 299L241 299L241 381Q241 455 180 455Q157 455 140 438Q121 418 121 378L40 378Q40 448 80 488Q118 526 180 526Q245 526 281 490Q322 447 322 376L322 0M241 144L241 240L195 240Q157 240 137 221Q113 199 113 150Q113 63 176 63Q205 63 223 85.50Q241 108 241 144M298 608L69 608L69 665L298 665L298 608Z"  horiz-adv-x="375" vert-adv-y="1000"  />

      
      <glyph glyph-name="uni0102" unicode="&#x0102;" d="M419 0L328 0L294 168L129 168L95 0L5 0L171 712L254 712L419 0M278 245L212 573L145 245L278 245M331 866Q324 755 213 755Q102 755 95 866L154 866Q160 814 213 814Q266 814 272 866L331 866Z"  horiz-adv-x="424" vert-adv-y="1000"  />

      
      <glyph glyph-name="uni0103" unicode="&#x0103;" d="M322 0L245 0L245 46Q233 26 215 11Q190-8 154-8Q100-8 65 31Q32 69 32 147Q32 223 78 264Q118 299 188 299L241 299L241 381Q241 455 180 455Q157 455 140 438Q121 418 121 378L40 378Q40 448 80 488Q118 526 180 526Q245 526 281 490Q322 447 322 376L322 0M241 144L241 240L195 240Q157 240 137 221Q113 199 113 150Q113 63 176 63Q205 63 223 85.50Q241 108 241 144M301 694Q294 582 183 582Q73 582 66 694L124 694Q131 641 183 641Q236 641 243 694L301 694Z"  horiz-adv-x="375" vert-adv-y="1000"  />

      
      <glyph glyph-name="uni0104" unicode="&#x0104;" d="M419 0L328 0L294 168L129 168L95 0L5 0L171 712L254 712L419 0M278 245L212 573L145 245L278 245M407-38L357-182L293-182L350-38L407-38Z"  horiz-adv-x="424" vert-adv-y="1000"  />

      
      <glyph glyph-name="uni0105" unicode="&#x0105;" d="M322 0L245 0L245 46Q233 26 215 11Q190-8 154-8Q100-8 65 31Q32 69 32 147Q32 223 78 264Q118 299 188 299L241 299L241 381Q241 455 180 455Q157 455 140 438Q121 418 121 378L40 378Q40 448 80 488Q118 526 180 526Q245 526 281 490Q322 447 322 376L322 0M241 144L241 240L195 240Q157 240 137 221Q113 199 113 150Q113 63 176 63Q205 63 223 85.50Q241 108 241 144M312-38L262-182L198-182L255-38L312-38Z"  horiz-adv-x="375" vert-adv-y="1000"  />

      
      <glyph glyph-name="uni0106" unicode="&#x0106;" d="M385 176Q383 79 331 31Q287-8 221-8Q144-8 99 44Q65 83 56 142Q47 201 47 356Q47 511 56 570Q65 629 99 668Q144 720 221 720Q290 720 334 678Q383 630 385 537L300 537Q298 592 277 618Q257 643 221 643Q182 643 162 616Q144 591 138.50 539Q133 487 133 356Q133 225 138.50 173Q144 121 162 96Q182 69 221 69Q257 69 277 94Q298 122 300 176L385 176M327 897L246 762L184 762L253 897L327 897Z"  horiz-adv-x="423" vert-adv-y="1000"  />

      
      <glyph glyph-name="uni0107" unicode="&#x0107;" d="M330 145Q327 67 289 28Q253-8 187-8Q114-8 78 40Q40 89 40 259Q40 346 48 397.50Q56 449 78 478Q114 526 187 526Q252 526 288 491Q326 455 330 374L249 374Q249 415 233 434Q217 453 188 453Q158 453 142 431Q129 414 125.50 377Q122 340 122 259Q122 179 125.50 142Q129 105 142 87Q158 65 188 65Q216 65 232 84Q249 103 249 145L330 145M294 721L213 586L152 586L220 721L294 721Z"  horiz-adv-x="362" vert-adv-y="1000"  />

      
      <glyph glyph-name="uni0108" unicode="&#x0108;" d="M385 176Q383 79 331 31Q287-8 221-8Q144-8 99 44Q65 83 56 142Q47 201 47 356Q47 511 56 570Q65 629 99 668Q144 720 221 720Q290 720 334 678Q383 630 385 537L300 537Q298 592 277 618Q257 643 221 643Q182 643 162 616Q144 591 138.50 539Q133 487 133 356Q133 225 138.50 173Q144 121 162 96Q182 69 221 69Q257 69 277 94Q298 122 300 176L385 176M347 762L281 762L221 849L161 762L95 762L188 897L254 897L347 762Z"  horiz-adv-x="423" vert-adv-y="1000"  />

      
      <glyph glyph-name="uni0109" unicode="&#x0109;" d="M330 145Q327 67 289 28Q253-8 187-8Q114-8 78 40Q40 89 40 259Q40 346 48 397.50Q56 449 78 478Q114 526 187 526Q252 526 288 491Q326 455 330 374L249 374Q249 415 233 434Q217 453 188 453Q158 453 142 431Q129 414 125.50 377Q122 340 122 259Q122 179 125.50 142Q129 105 142 87Q158 65 188 65Q216 65 232 84Q249 103 249 145L330 145M314 586L247 586L187 673L128 586L61 586L154 721L221 721L314 586Z"  horiz-adv-x="362" vert-adv-y="1000"  />

      
      <glyph glyph-name="uni010A" unicode="&#x010A;" d="M385 176Q383 79 331 31Q287-8 221-8Q144-8 99 44Q65 83 56 142Q47 201 47 356Q47 511 56 570Q65 629 99 668Q144 720 221 720Q290 720 334 678Q383 630 385 537L300 537Q298 592 277 618Q257 643 221 643Q182 643 162 616Q144 591 138.50 539Q133 487 133 356Q133 225 138.50 173Q144 121 162 96Q182 69 221 69Q257 69 277 94Q298 122 300 176L385 176M262 777L180 777L180 858L262 858L262 777Z"  horiz-adv-x="423" vert-adv-y="1000"  />

      
      <glyph glyph-name="uni010B" unicode="&#x010B;" d="M330 145Q327 67 289 28Q253-8 187-8Q114-8 78 40Q40 89 40 259Q40 346 48 397.50Q56 449 78 478Q114 526 187 526Q252 526 288 491Q326 455 330 374L249 374Q249 415 233 434Q217 453 188 453Q158 453 142 431Q129 414 125.50 377Q122 340 122 259Q122 179 125.50 142Q129 105 142 87Q158 65 188 65Q216 65 232 84Q249 103 249 145L330 145M228 604L147 604L147 686L228 686L228 604Z"  horiz-adv-x="362" vert-adv-y="1000"  />

      
      <glyph glyph-name="uni010C" unicode="&#x010C;" d="M385 176Q383 79 331 31Q287-8 221-8Q144-8 99 44Q65 83 56 142Q47 201 47 356Q47 511 56 570Q65 629 99 668Q144 720 221 720Q290 720 334 678Q383 630 385 537L300 537Q298 592 277 618Q257 643 221 643Q182 643 162 616Q144 591 138.50 539Q133 487 133 356Q133 225 138.50 173Q144 121 162 96Q182 69 221 69Q257 69 277 94Q298 122 300 176L385 176M347 892L254 758L188 758L95 892L161 892L221 805L281 892L347 892Z"  horiz-adv-x="423" vert-adv-y="1000"  />

      
      <glyph glyph-name="uni010D" unicode="&#x010D;" d="M330 145Q327 67 289 28Q253-8 187-8Q114-8 78 40Q40 89 40 259Q40 346 48 397.50Q56 449 78 478Q114 526 187 526Q252 526 288 491Q326 455 330 374L249 374Q249 415 233 434Q217 453 188 453Q158 453 142 431Q129 414 125.50 377Q122 340 122 259Q122 179 125.50 142Q129 105 142 87Q158 65 188 65Q216 65 232 84Q249 103 249 145L330 145M314 717L221 582L154 582L61 717L128 717L187 630L247 717L314 717Z"  horiz-adv-x="362" vert-adv-y="1000"  />

      
      <glyph glyph-name="uni010E" unicode="&#x010E;" d="M392 567.50Q392 567.50 396.50 537.75Q401 508 401 356Q401 204 392 144.50Q383 85 350 50Q305 0 228 0L64 0L64 712L228 712Q305 712 350 662Q383 627 392 567.50M310 176Q310 176 312.50 200Q315 224 315 356Q315 488 310 536Q305 584 286 608Q264 635 225 635L150 635L150 77L225 77Q264 77 286 104Q305 128 310 176M348 892L255 758L189 758L96 892L162 892L222 805L282 892L348 892Z"  horiz-adv-x="448" vert-adv-y="1000"  />

      
      <glyph glyph-name="uni010F" unicode="&#x010F;" d="M330 0L251 0L251 40Q241 20 220 8Q193-8 164-8Q111-8 78 31Q55 58 47.50 109Q40 160 40 259Q40 358 47.50 409.50Q55 461 78 488Q110 526 164 526Q194 526 220 511Q234 503 249 482L249 712L330 712L330 0M249 141L249 378Q249 417 229 437Q213 453 187 453Q159 453 143 432Q130 416 126 379.50Q122 343 122 259Q122 175 126 138.50Q130 102 143 86Q159 65 187 65Q213 65 229 81Q249 101 249 141M461 730L427 586L372 586L395 730L461 730Z"  horiz-adv-x="387" vert-adv-y="1000"  />

      
      <glyph glyph-name="uni0110" unicode="&#x0110;" d="M403.50 564Q403.50 564 407.75 533.50Q412 503 412 356Q412 209 403.50 148Q395 87 361 50Q316 0 239 0L75 0L75 323L23 323L23 392L75 392L75 712L239 712Q316 712 361 662Q395 625 403.50 564M321 177.50Q321 177.50 323.50 202.25Q326 227 326 356Q326 485 321 534.50Q316 584 297 608Q277 635 236 635L161 635L161 392L242 392L242 323L161 323L161 77L236 77Q277 77 297 104Q316 128 321 177.50Z"  horiz-adv-x="459" vert-adv-y="1000"  />

      
      <glyph glyph-name="uni0111" unicode="&#x0111;" d="M330 0L251 0L251 40Q241 20 220 8Q193-8 164-8Q111-8 78 31Q55 58 47.50 109Q40 160 40 259Q40 358 47.50 409.50Q55 461 78 488Q110 526 164 526Q194 526 220 511Q234 503 249 482L249 582L161 582L161 636L249 636L249 712L330 712L330 636L383 636L383 582L330 582L330 0M249 141L249 378Q249 417 229 437Q213 453 187 453Q159 453 143 432Q130 416 126 379.50Q122 343 122 259Q122 175 126 138.50Q130 102 143 86Q159 65 187 65Q213 65 229 81Q249 101 249 141Z"  horiz-adv-x="408" vert-adv-y="1000"  />

      
      <glyph glyph-name="uni0112" unicode="&#x0112;" d="M339 0L64 0L64 712L339 712L339 635L150 635L150 396L313 396L313 319L150 319L150 77L339 77L339 0M319 780L91 780L91 838L319 838L319 780Z"  horiz-adv-x="380" vert-adv-y="1000"  />

      
      <glyph glyph-name="uni0113" unicode="&#x0113;" d="M335 240L122 240Q122 114 143 87Q158 65 189 65Q218 65 235 85Q252 105 252 145L333 145Q332 73 291 30Q254-8 189-8Q123-8 86 32Q59 61 49.50 115Q40 169 40 259Q40 350 49 403.50Q58 457 85 486Q122 526 187 526Q252 526 289 486Q317 457 326 401Q335 345 335 240M253 301Q253 408 233 432Q217 453 187 453Q158 453 142 432Q122 408 122 301L253 301M302 608L73 608L73 665L302 665L302 608Z"  horiz-adv-x="372" vert-adv-y="1000"  />

      
      <glyph glyph-name="uni0114" unicode="&#x0114;" d="M339 0L64 0L64 712L339 712L339 635L150 635L150 396L313 396L313 319L150 319L150 77L339 77L339 0M326 865Q319 756 205 756Q91 756 84 865L146 865Q152 812 205 812Q258 812 264 865L326 865Z"  horiz-adv-x="380" vert-adv-y="1000"  />

      
      <glyph glyph-name="uni0115" unicode="&#x0115;" d="M335 240L122 240Q122 114 143 87Q158 65 189 65Q218 65 235 85Q252 105 252 145L333 145Q332 73 291 30Q254-8 189-8Q123-8 86 32Q59 61 49.50 115Q40 169 40 259Q40 350 49 403.50Q58 457 85 486Q122 526 187 526Q252 526 289 486Q317 457 326 401Q335 345 335 240M253 301Q253 408 233 432Q217 453 187 453Q158 453 142 432Q122 408 122 301L253 301M305 694Q298 582 187 582Q77 582 70 694L128 694Q135 641 187 641Q240 641 247 694L305 694Z"  horiz-adv-x="372" vert-adv-y="1000"  />

      
      <glyph glyph-name="uni0116" unicode="&#x0116;" d="M339 0L64 0L64 712L339 712L339 635L150 635L150 396L313 396L313 319L150 319L150 77L339 77L339 0M246 777L164 777L164 858L246 858L246 777Z"  horiz-adv-x="380" vert-adv-y="1000"  />

      
      <glyph glyph-name="uni0117" unicode="&#x0117;" d="M335 240L122 240Q122 114 143 87Q158 65 189 65Q218 65 235 85Q252 105 252 145L333 145Q332 73 291 30Q254-8 189-8Q123-8 86 32Q59 61 49.50 115Q40 169 40 259Q40 350 49 403.50Q58 457 85 486Q122 526 187 526Q252 526 289 486Q317 457 326 401Q335 345 335 240M253 301Q253 408 233 432Q217 453 187 453Q158 453 142 432Q122 408 122 301L253 301M228 604L147 604L147 686L228 686L228 604Z"  horiz-adv-x="372" vert-adv-y="1000"  />

      
      <glyph glyph-name="uni0118" unicode="&#x0118;" d="M339 0L64 0L64 712L339 712L339 635L150 635L150 396L313 396L313 319L150 319L150 77L339 77L339 0M327-38L277-182L213-182L270-38L327-38Z"  horiz-adv-x="380" vert-adv-y="1000"  />

      
      <glyph glyph-name="uni0119" unicode="&#x0119;" d="M335 240L122 240Q122 114 143 87Q158 65 189 65Q218 65 235 85Q252 105 252 145L333 145Q332 73 291 30Q254-8 189-8Q123-8 86 32Q59 61 49.50 115Q40 169 40 259Q40 350 49 403.50Q58 457 85 486Q122 526 187 526Q252 526 289 486Q317 457 326 401Q335 345 335 240M253 301Q253 408 233 432Q217 453 187 453Q158 453 142 432Q122 408 122 301L253 301M267-38L217-182L153-182L210-38L267-38Z"  horiz-adv-x="372" vert-adv-y="1000"  />

      
      <glyph glyph-name="uni011A" unicode="&#x011A;" d="M339 0L64 0L64 712L339 712L339 635L150 635L150 396L313 396L313 319L150 319L150 77L339 77L339 0M331 892L238 758L172 758L79 892L145 892L205 805L265 892L331 892Z"  horiz-adv-x="380" vert-adv-y="1000"  />

      
      <glyph glyph-name="uni011B" unicode="&#x011B;" d="M335 240L122 240Q122 114 143 87Q158 65 189 65Q218 65 235 85Q252 105 252 145L333 145Q332 73 291 30Q254-8 189-8Q123-8 86 32Q59 61 49.50 115Q40 169 40 259Q40 350 49 403.50Q58 457 85 486Q122 526 187 526Q252 526 289 486Q317 457 326 401Q335 345 335 240M253 301Q253 408 233 432Q217 453 187 453Q158 453 142 432Q122 408 122 301L253 301M314 717L221 582L154 582L61 717L128 717L187 630L247 717L314 717Z"  horiz-adv-x="372" vert-adv-y="1000"  />

      
      <glyph glyph-name="uni011C" unicode="&#x011C;" d="M386 171Q385 85 339.50 38.50Q294-8 221-8Q146-8 99 44Q66 81 56.50 141.50Q47 202 47 356Q47 510 56.50 570.50Q66 631 99 668Q146 720 221 720Q292 720 336 676Q383 629 385 536L300 536Q298 643 221 643Q182 643 162 616Q144 591 138.50 539Q133 487 133 356Q133 225 138.50 173Q144 121 162 96Q182 69 221 69Q258 69 279 96.50Q300 124 300 168L300 311L221 311L221 382L386 382L386 171M347 762L281 762L221 849L161 762L95 762L188 897L254 897L347 762Z"  horiz-adv-x="434" vert-adv-y="1000"  />

      
      <glyph glyph-name="uni011D" unicode="&#x011D;" d="M330 518L330-12Q330-114 288-157Q250-197 186-197Q120-197 82-160Q43-121 43-48L124-48Q124-91 141-110Q158-127 185-127Q212-127 229-108Q249-87 249-17L249 62Q235 42 220 33Q198 17 166 17Q113 17 81 55Q57 82 48.50 129.50Q40 177 40 272Q40 367 48.50 414Q57 461 81 489Q114 526 166 526Q199 526 222 510Q239 499 251 482L251 518L330 518M249 164L249 378Q249 417 229 437Q213 453 187 453Q159 453 143 432Q130 416 126 382.50Q122 349 122 271Q122 193 126 159.50Q130 126 143 109Q161 88 187 88Q212 88 229 105Q249 125 249 164M314 586L247 586L187 673L128 586L61 586L154 721L221 721L314 586Z"  horiz-adv-x="387" vert-adv-y="1000"  />

      
      <glyph glyph-name="uni011E" unicode="&#x011E;" d="M386 171Q385 85 339.50 38.50Q294-8 221-8Q146-8 99 44Q66 81 56.50 141.50Q47 202 47 356Q47 510 56.50 570.50Q66 631 99 668Q146 720 221 720Q292 720 336 676Q383 629 385 536L300 536Q298 643 221 643Q182 643 162 616Q144 591 138.50 539Q133 487 133 356Q133 225 138.50 173Q144 121 162 96Q182 69 221 69Q258 69 279 96.50Q300 124 300 168L300 311L221 311L221 382L386 382L386 171M339 866Q332 755 221 755Q110 755 103 866L162 866Q168 814 221 814Q274 814 280 866L339 866Z"  horiz-adv-x="434" vert-adv-y="1000"  />

      
      <glyph glyph-name="uni011F" unicode="&#x011F;" d="M330 518L330-12Q330-114 288-157Q250-197 186-197Q120-197 82-160Q43-121 43-48L124-48Q124-91 141-110Q158-127 185-127Q212-127 229-108Q249-87 249-17L249 62Q235 42 220 33Q198 17 166 17Q113 17 81 55Q57 82 48.50 129.50Q40 177 40 272Q40 367 48.50 414Q57 461 81 489Q114 526 166 526Q199 526 222 510Q239 499 251 482L251 518L330 518M249 164L249 378Q249 417 229 437Q213 453 187 453Q159 453 143 432Q130 416 126 382.50Q122 349 122 271Q122 193 126 159.50Q130 126 143 109Q161 88 187 88Q212 88 229 105Q249 125 249 164M305 694Q298 582 187 582Q77 582 70 694L128 694Q135 641 187 641Q240 641 247 694L305 694Z"  horiz-adv-x="387" vert-adv-y="1000"  />

      
      <glyph glyph-name="uni0120" unicode="&#x0120;" d="M386 171Q385 85 339.50 38.50Q294-8 221-8Q146-8 99 44Q66 81 56.50 141.50Q47 202 47 356Q47 510 56.50 570.50Q66 631 99 668Q146 720 221 720Q292 720 336 676Q383 629 385 536L300 536Q298 643 221 643Q182 643 162 616Q144 591 138.50 539Q133 487 133 356Q133 225 138.50 173Q144 121 162 96Q182 69 221 69Q258 69 279 96.50Q300 124 300 168L300 311L221 311L221 382L386 382L386 171M262 777L180 777L180 858L262 858L262 777Z"  horiz-adv-x="434" vert-adv-y="1000"  />

      
      <glyph glyph-name="uni0121" unicode="&#x0121;" d="M330 518L330-12Q330-114 288-157Q250-197 186-197Q120-197 82-160Q43-121 43-48L124-48Q124-91 141-110Q158-127 185-127Q212-127 229-108Q249-87 249-17L249 62Q235 42 220 33Q198 17 166 17Q113 17 81 55Q57 82 48.50 129.50Q40 177 40 272Q40 367 48.50 414Q57 461 81 489Q114 526 166 526Q199 526 222 510Q239 499 251 482L251 518L330 518M249 164L249 378Q249 417 229 437Q213 453 187 453Q159 453 143 432Q130 416 126 382.50Q122 349 122 271Q122 193 126 159.50Q130 126 143 109Q161 88 187 88Q212 88 229 105Q249 125 249 164M228 604L147 604L147 686L228 686L228 604Z"  horiz-adv-x="387" vert-adv-y="1000"  />

      
      <glyph glyph-name="uni0122" unicode="&#x0122;" d="M386 171Q385 85 339.50 38.50Q294-8 221-8Q146-8 99 44Q66 81 56.50 141.50Q47 202 47 356Q47 510 56.50 570.50Q66 631 99 668Q146 720 221 720Q292 720 336 676Q383 629 385 536L300 536Q298 643 221 643Q182 643 162 616Q144 591 138.50 539Q133 487 133 356Q133 225 138.50 173Q144 121 162 96Q182 69 221 69Q258 69 279 96.50Q300 124 300 168L300 311L221 311L221 382L386 382L386 171M251-38L201-182L137-182L194-38L251-38Z"  horiz-adv-x="434" vert-adv-y="1000"  />

      
      <glyph glyph-name="uni0123" unicode="&#x0123;" d="M330 518L330-12Q330-114 288-157Q250-197 186-197Q120-197 82-160Q43-121 43-48L124-48Q124-91 141-110Q158-127 185-127Q212-127 229-108Q249-87 249-17L249 62Q235 42 220 33Q198 17 166 17Q113 17 81 55Q57 82 48.50 129.50Q40 177 40 272Q40 367 48.50 414Q57 461 81 489Q114 526 166 526Q199 526 222 510Q239 499 251 482L251 518L330 518M249 164L249 378Q249 417 229 437Q213 453 187 453Q159 453 143 432Q130 416 126 382.50Q122 349 122 271Q122 193 126 159.50Q130 126 143 109Q161 88 187 88Q212 88 229 105Q249 125 249 164M161 586L210 730L275 730L218 586L161 586Z"  horiz-adv-x="387" vert-adv-y="1000"  />

      
      <glyph glyph-name="uni0124" unicode="&#x0124;" d="M394 0L308 0L308 324L150 324L150 0L64 0L64 712L150 712L150 401L308 401L308 712L394 712L394 0M355 762L289 762L229 849L169 762L103 762L196 897L262 897L355 762Z"  horiz-adv-x="458" vert-adv-y="1000"  />

      
      <glyph glyph-name="uni0125" unicode="&#x0125;" d="M342 0L261 0L261 381Q261 416 243.50 434.50Q226 453 199 453Q172 453 155 434.50Q138 416 138 381L138 0L57 0L57 712L138 712L138 481Q150 500 167 510Q193 526 223 526Q278 526 311 488Q342 454 342 381L342 0M226 761L159 761L99 848L40 761L-27 761L66 896L133 896L226 761Z"  horiz-adv-x="395" vert-adv-y="1000"  />

      
      <glyph glyph-name="uni0126" unicode="&#x0126;" d="M455 519L405 519L405 0L319 0L319 323L161 323L161 0L75 0L75 519L25 519L25 587L75 587L75 712L161 712L161 587L319 587L319 712L405 712L405 587L455 587L455 519M319 401L319 519L161 519L161 401L319 401Z"  horiz-adv-x="480" vert-adv-y="1000"  />

      
      <glyph glyph-name="uni0127" unicode="&#x0127;" d="M365 0L284 0L284 381Q284 416 266.50 434.50Q249 453 222 453Q195 453 178 434.50Q161 416 161 381L161 0L80 0L80 582L25 582L25 636L80 636L80 712L161 712L161 636L247 636L247 582L161 582L161 481Q173 500 190 510Q216 526 246 526Q301 526 334 488Q365 454 365 381L365 0Z"  horiz-adv-x="419" vert-adv-y="1000"  />

      
      <glyph glyph-name="uni0128" unicode="&#x0128;" d="M150 0L64 0L64 712L150 712L150 0M239 814Q197 772 159 772Q131 772 102 788Q73 804 58 804Q38 804 13 781L-23 818Q19 861 56 861Q84 861 111.50 844.50Q139 828 157 828Q178 828 201 851L239 814Z"  horiz-adv-x="215" vert-adv-y="1000"  />

      
      <glyph glyph-name="uni0129" unicode="&#x0129;" d="M138 0L57 0L57 518L138 518L138 0M231 638Q188 596 151 596Q124 596 93 613Q68 628 50 628Q28 628 5 605L-31 643Q11 685 48 685Q78 685 106 668Q131 653 149 653Q170 653 193 676L231 638Z"  horiz-adv-x="195" vert-adv-y="1000"  />

      
      <glyph glyph-name="uni012A" unicode="&#x012A;" d="M150 0L64 0L64 712L150 712L150 0M222 780L-6 780L-6 838L222 838L222 780Z"  horiz-adv-x="215" vert-adv-y="1000"  />

      
      <glyph glyph-name="uni012B" unicode="&#x012B;" d="M138 0L57 0L57 518L138 518L138 0M214 608L-15 608L-15 665L214 665L214 608Z"  horiz-adv-x="195" vert-adv-y="1000"  />

      
      <glyph glyph-name="uni012C" unicode="&#x012C;" d="M150 0L64 0L64 712L150 712L150 0M226 866Q219 755 108 755Q-3 755-10 866L49 866Q55 814 108 814Q161 814 167 866L226 866Z"  horiz-adv-x="215" vert-adv-y="1000"  />

      
      <glyph glyph-name="uni012D" unicode="&#x012D;" d="M138 0L57 0L57 518L138 518L138 0M215 694Q208 582 97 582Q-13 582-20 694L38 694Q45 641 97 641Q150 641 157 694L215 694Z"  horiz-adv-x="195" vert-adv-y="1000"  />

      
      <glyph glyph-name="uni012E" unicode="&#x012E;" d="M150 0L64 0L64 712L150 712L150 0M143-38L93-182L29-182L86-38L143-38Z"  horiz-adv-x="215" vert-adv-y="1000"  />

      
      <glyph glyph-name="uni012F" unicode="&#x012F;" d="M138 0L57 0L57 518L138 518L138 0M145 610L50 610L50 704L145 704L145 610M133-38L83-182L19-182L76-38L133-38Z"  horiz-adv-x="195" vert-adv-y="1000"  />

      
      <glyph glyph-name="uni0130" unicode="&#x0130;" d="M150 0L64 0L64 712L150 712L150 0M149 777L67 777L67 858L149 858L149 777Z"  horiz-adv-x="215" vert-adv-y="1000"  />

      
      <glyph glyph-name="uni0131" unicode="&#x0131;" d="M138 0L57 0L57 518L138 518L138 0Z"  horiz-adv-x="195" vert-adv-y="1000"  />

      
      <glyph glyph-name="uni0132" unicode="&#x0132;" d="M150 0L64 0L64 712L150 712L150 0M518 170Q518 86 473 40Q426-8 347-8Q269-8 220 46L281 103Q306 69 347 69Q384 69 408 95.50Q432 122 432 170L432 712L518 712L518 170Z"  horiz-adv-x="576" vert-adv-y="1000"  />

      
      <glyph glyph-name="uni0133" unicode="&#x0133;" d="M138 0L57 0L57 518L138 518L138 0M145 610L50 610L50 704L145 704L145 610M333-46Q333-124 287-162Q249-194 174-194L174-121Q213-121 232.50-103Q252-85 252-43L252 518L333 518L333-46M340 610L245 610L245 704L340 704L340 610Z"  horiz-adv-x="390" vert-adv-y="1000"  />

      
      <glyph glyph-name="uni0134" unicode="&#x0134;" d="M303 170Q303 86 258 40Q212-8 132-8Q54-8 5 46L66 103Q91 69 132 69Q169 69 193 95.50Q217 122 217 170L217 712L303 712L303 170M386 762L320 762L260 849L200 762L134 762L227 897L293 897L386 762Z"  horiz-adv-x="361" vert-adv-y="1000"  />

      
      <glyph glyph-name="uni0135" unicode="&#x0135;" d="M138-46Q138-123 92-161Q54-194-21-194L-21-121Q18-121 37.50-103Q57-85 57-43L57 518L138 518L138-46M225 586L158 586L98 673L39 586L-28 586L65 721L132 721L225 586Z"  horiz-adv-x="195" vert-adv-y="1000"  />

      
      <glyph glyph-name="uni0136" unicode="&#x0136;" d="M431 0L338 0L212 322L150 199L150 0L64 0L64 712L150 712L150 351L322 712L410 712L266 418L431 0M265-38L215-182L151-182L208-38L265-38Z"  horiz-adv-x="439" vert-adv-y="1000"  />

      
      <glyph glyph-name="uni0137" unicode="&#x0137;" d="M383 0L293 0L194 244L138 155L138 0L57 0L57 712L138 712L138 272L285 518L371 518L245 316L383 0M242-38L192-182L128-182L185-38L242-38Z"  horiz-adv-x="395" vert-adv-y="1000"  />

      
      <glyph glyph-name="uni0138" unicode="&#x0138;" d="M383 0L293 0L194 244L138 155L138 0L57 0L57 518L138 518L138 272L285 518L371 518L245 316L383 0Z"  horiz-adv-x="395" vert-adv-y="1000"  />

      
      <glyph glyph-name="uni0139" unicode="&#x0139;" d="M339 0L64 0L64 712L150 712L150 77L339 77L339 0M214 897L133 762L71 762L140 897L214 897Z"  horiz-adv-x="361" vert-adv-y="1000"  />

      
      <glyph glyph-name="uni013A" unicode="&#x013A;" d="M211 0Q137 0 99 32Q53 70 53 148L53 712L134 712L134 151Q134 73 211 73L211 0M196 895L115 760L54 760L122 895L196 895Z"  horiz-adv-x="228" vert-adv-y="1000"  />

      
      <glyph glyph-name="uni013B" unicode="&#x013B;" d="M339 0L64 0L64 712L150 712L150 77L339 77L339 0M241-38L191-182L127-182L184-38L241-38Z"  horiz-adv-x="361" vert-adv-y="1000"  />

      
      <glyph glyph-name="uni013C" unicode="&#x013C;" d="M211 0Q137 0 99 32Q53 70 53 148L53 712L134 712L134 151Q134 73 211 73L211 0M172-38L122-182L58-182L115-38L172-38Z"  horiz-adv-x="228" vert-adv-y="1000"  />

      
      <glyph glyph-name="uni013D" unicode="&#x013D;" d="M339 0L64 0L64 712L150 712L150 77L339 77L339 0M301 712L267 568L212 568L235 712L301 712Z"  horiz-adv-x="361" vert-adv-y="1000"  />

      
      <glyph glyph-name="uni013E" unicode="&#x013E;" d="M211 0Q137 0 99 32Q53 70 53 148L53 712L134 712L134 151Q134 73 211 73L211 0M266 730L232 586L177 586L200 730L266 730Z"  horiz-adv-x="228" vert-adv-y="1000"  />

      
      <glyph glyph-name="uni013F" unicode="&#x013F;" d="M339 0L64 0L64 712L150 712L150 77L339 77L339 0M328 316L247 316L247 398L328 398L328 316Z"  horiz-adv-x="361" vert-adv-y="1000"  />

      
      <glyph glyph-name="uni0140" unicode="&#x0140;" d="M216 0Q142 0 104 32Q58 70 58 148L58 712L139 712L139 151Q139 73 216 73L216 0M259 262L178 262L178 344L259 344L259 262Z"  horiz-adv-x="245" vert-adv-y="1000"  />

      
      <glyph glyph-name="uni0141" unicode="&#x0141;" d="M347 0L73 0L73 276L25 232L25 317L73 361L73 712L159 712L159 432L253 516L253 431L159 347L159 77L347 77L347 0Z"  horiz-adv-x="370" vert-adv-y="1000"  />

      
      <glyph glyph-name="uni0142" unicode="&#x0142;" d="M235 0Q170 0 135 24Q124 32 113 45Q91 70 84 109Q76 149 76 191L76 308L19 253L19 334L76 390L76 712L157 712L157 459L215 516L215 434L157 378L157 155Q157 72 235 72L235 0Z"  horiz-adv-x="255" vert-adv-y="1000"  />

      
      <glyph glyph-name="uni0143" unicode="&#x0143;" d="M412 0L334 0L150 487L150 0L64 0L64 712L144 712L326 225L326 712L412 712L412 0M344 897L263 762L201 762L270 897L344 897Z"  horiz-adv-x="477" vert-adv-y="1000"  />

      
      <glyph glyph-name="uni0144" unicode="&#x0144;" d="M342 0L261 0L261 381Q261 415 243.50 433.50Q226 452 199 452Q172 452 155 433.50Q138 415 138 381L138 0L57 0L57 518L135 518L135 478Q146 497 167 510Q193 526 223 526Q278 526 311 488Q342 454 342 381L342 0M307 721L226 586L165 586L233 721L307 721Z"  horiz-adv-x="395" vert-adv-y="1000"  />

      
      <glyph glyph-name="uni0145" unicode="&#x0145;" d="M412 0L334 0L150 487L150 0L64 0L64 712L144 712L326 225L326 712L412 712L412 0M265-38L215-182L151-182L208-38L265-38Z"  horiz-adv-x="477" vert-adv-y="1000"  />

      
      <glyph glyph-name="uni0146" unicode="&#x0146;" d="M342 0L261 0L261 381Q261 415 243.50 433.50Q226 452 199 452Q172 452 155 433.50Q138 415 138 381L138 0L57 0L57 518L135 518L135 478Q146 497 167 510Q193 526 223 526Q278 526 311 488Q342 454 342 381L342 0M233-38L183-182L119-182L176-38L233-38Z"  horiz-adv-x="395" vert-adv-y="1000"  />

      
      <glyph glyph-name="uni0147" unicode="&#x0147;" d="M412 0L334 0L150 487L150 0L64 0L64 712L144 712L326 225L326 712L412 712L412 0M364 892L271 758L205 758L112 892L178 892L238 805L298 892L364 892Z"  horiz-adv-x="477" vert-adv-y="1000"  />

      
      <glyph glyph-name="uni0148" unicode="&#x0148;" d="M342 0L261 0L261 381Q261 415 243.50 433.50Q226 452 199 452Q172 452 155 433.50Q138 415 138 381L138 0L57 0L57 518L135 518L135 478Q146 497 167 510Q193 526 223 526Q278 526 311 488Q342 454 342 381L342 0M327 717L234 582L167 582L74 717L141 717L200 630L260 717L327 717Z"  horiz-adv-x="395" vert-adv-y="1000"  />

      
      <glyph glyph-name="uni0149" unicode="&#x0149;" d="M362 0L281 0L281 381Q281 415 263.50 433.50Q246 452 219 452Q192 452 175 433.50Q158 415 158 381L158 0L77 0L77 518L155 518L155 478Q166 497 187 510Q213 526 243 526Q298 526 331 488Q362 454 362 381L362 0M66 606L0 557L0 730L66 730L66 606Z"  horiz-adv-x="415" vert-adv-y="1000"  />

      
      <glyph glyph-name="uni014A" unicode="&#x014A;" d="M412-34Q412-111 366-149Q328-182 253-182L253-109Q295-109 314.50-91Q334-73 334-31L334 0L150 487L150 0L64 0L64 712L144 712L326 225L326 712L412 712L412-34Z"  horiz-adv-x="477" vert-adv-y="1000"  />

      
      <glyph glyph-name="uni014B" unicode="&#x014B;" d="M342-34Q342-111 296-149Q258-182 183-182L183-109Q222-109 241.50-91Q261-73 261-31L261 381Q261 416 243.50 434.50Q226 453 199 453Q172 453 155 434.50Q138 416 138 381L138 0L57 0L57 518L135 518L135 478Q146 497 167 510Q193 526 223 526Q278 526 311 488Q342 454 342 381L342-34Z"  horiz-adv-x="395" vert-adv-y="1000"  />

      
      <glyph glyph-name="uni014C" unicode="&#x014C;" d="M385.50 570.50Q385.50 570.50 390.25 540.25Q395 510 395 356Q395 202 385.50 141.50Q376 81 343 44Q296-8 221-8Q146-8 99 44Q66 81 56.50 141.50Q47 202 47 356Q47 510 56.50 570.50Q66 631 99 668Q146 720 221 720Q296 720 343 668Q376 631 385.50 570.50M303 173.50Q303 173.50 306 199.75Q309 226 309 356Q309 486 303 538.50Q297 591 279 616Q259 643 221 643Q182 643 162 616Q144 591 138.50 539Q133 487 133 356Q133 225 138.50 173Q144 121 162 96Q182 69 221 69Q259 69 279 96Q297 121 303 173.50M335 780L107 780L107 838L335 838L335 780Z"  horiz-adv-x="442" vert-adv-y="1000"  />

      
      <glyph glyph-name="uni014D" unicode="&#x014D;" d="M327.50 398Q327.50 398 331.25 372.50Q335 347 335 259Q335 171 327.50 120Q320 69 298 40Q262-8 188-8Q115-8 79 40Q57 69 49 120.50Q41 172 41 259Q41 346 49 397.50Q57 449 79 478Q115 526 188 526Q262 526 298 478Q320 449 327.50 398M250.50 142Q250.50 142 252.25 160.50Q254 179 254 259Q254 339 250.50 376Q247 413 234 431Q218 453 188 453Q159 453 143 431Q130 413 126 375Q122 337 122 259Q122 181 126 143Q130 105 143 87Q159 65 188 65Q218 65 234 87Q247 105 250.50 142M303 608L74 608L74 665L303 665L303 608Z"  horiz-adv-x="376" vert-adv-y="1000"  />

      
      <glyph glyph-name="uni014E" unicode="&#x014E;" d="M385.50 570.50Q385.50 570.50 390.25 540.25Q395 510 395 356Q395 202 385.50 141.50Q376 81 343 44Q296-8 221-8Q146-8 99 44Q66 81 56.50 141.50Q47 202 47 356Q47 510 56.50 570.50Q66 631 99 668Q146 720 221 720Q296 720 343 668Q376 631 385.50 570.50M303 173.50Q303 173.50 306 199.75Q309 226 309 356Q309 486 303 538.50Q297 591 279 616Q259 643 221 643Q182 643 162 616Q144 591 138.50 539Q133 487 133 356Q133 225 138.50 173Q144 121 162 96Q182 69 221 69Q259 69 279 96Q297 121 303 173.50M339 870Q332 759 221 759Q110 759 103 870L162 870Q168 818 221 818Q274 818 280 870L339 870Z"  horiz-adv-x="442" vert-adv-y="1000"  />

      
      <glyph glyph-name="uni014F" unicode="&#x014F;" d="M327.50 398Q327.50 398 331.25 372.50Q335 347 335 259Q335 171 327.50 120Q320 69 298 40Q262-8 188-8Q115-8 79 40Q57 69 49 120.50Q41 172 41 259Q41 346 49 397.50Q57 449 79 478Q115 526 188 526Q262 526 298 478Q320 449 327.50 398M250.50 142Q250.50 142 252.25 160.50Q254 179 254 259Q254 339 250.50 376Q247 413 234 431Q218 453 188 453Q159 453 143 431Q130 413 126 375Q122 337 122 259Q122 181 126 143Q130 105 143 87Q159 65 188 65Q218 65 234 87Q247 105 250.50 142M306 694Q299 582 188 582Q78 582 71 694L129 694Q136 641 188 641Q241 641 248 694L306 694Z"  horiz-adv-x="376" vert-adv-y="1000"  />

      
      <glyph glyph-name="uni0150" unicode="&#x0150;" d="M385.50 570.50Q385.50 570.50 390.25 540.25Q395 510 395 356Q395 202 385.50 141.50Q376 81 343 44Q296-8 221-8Q146-8 99 44Q66 81 56.50 141.50Q47 202 47 356Q47 510 56.50 570.50Q66 631 99 668Q146 720 221 720Q296 720 343 668Q376 631 385.50 570.50M303 173.50Q303 173.50 306 199.75Q309 226 309 356Q309 486 303 538.50Q297 591 279 616Q259 643 221 643Q182 643 162 616Q144 591 138.50 539Q133 487 133 356Q133 225 138.50 173Q144 121 162 96Q182 69 221 69Q259 69 279 96Q297 121 303 173.50M248 897L180 762L121 762L174 897L248 897M385 897L317 762L259 762L311 897L385 897Z"  horiz-adv-x="442" vert-adv-y="1000"  />

      
      <glyph glyph-name="uni0151" unicode="&#x0151;" d="M327.50 398Q327.50 398 331.25 372.50Q335 347 335 259Q335 171 327.50 120Q320 69 298 40Q262-8 188-8Q115-8 79 40Q57 69 49 120.50Q41 172 41 259Q41 346 49 397.50Q57 449 79 478Q115 526 188 526Q262 526 298 478Q320 449 327.50 398M250.50 142Q250.50 142 252.25 160.50Q254 179 254 259Q254 339 250.50 376Q247 413 234 431Q218 453 188 453Q159 453 143 431Q130 413 126 375Q122 337 122 259Q122 181 126 143Q130 105 143 87Q159 65 188 65Q218 65 234 87Q247 105 250.50 142M215 721L147 586L88 586L141 721L215 721M352 721L284 586L226 586L278 721L352 721Z"  horiz-adv-x="376" vert-adv-y="1000"  />

      
      <glyph glyph-name="uni0152" unicode="&#x0152;" d="M580 0L313 0L313 33Q280-8 217-8Q140-8 99 43Q67 81 57 147.50Q47 214 47 356Q47 500 56.50 566Q66 632 99 669Q142 720 217 720Q282 720 313 679L313 712L580 712L580 635L392 635L392 396L554 396L554 319L392 319L392 77L580 77L580 0M303.50 172.50Q303.50 172.50 306.25 198.25Q309 224 309 356Q309 488 303.50 539.50Q298 591 279 616Q260 643 221 643Q182 643 163 616Q144 591 138.50 539.50Q133 488 133 356Q133 224 138.50 172.50Q144 121 163 96Q182 69 221 69Q260 69 279 96Q298 121 303.50 172.50Z"  horiz-adv-x="622" vert-adv-y="1000"  />

      
      <glyph glyph-name="uni0153" unicode="&#x0153;" d="M548 240L335 240Q335 114 356 87Q371 65 402 65Q431 65 448 85Q465 105 465 145L546 145Q545 73 504 30Q467-8 402-8Q348-8 313 24Q302 35 295 49Q288 34 277 24Q240-8 187-8Q114-8 78 40Q40 89 40 259Q40 346 48 397.50Q56 449 78 478Q114 526 187 526Q243 526 278 493Q286 486 295 470Q301 484 313 494Q351 526 401 526Q465 526 502 486Q530 457 539 401Q548 345 548 240M466 301Q466 408 446 432Q430 453 400 453Q371 453 355 432Q335 408 335 301L466 301M250.50 142Q250.50 142 252.25 160.50Q254 179 254 259Q254 339 250.50 376Q247 413 234 431Q218 453 188 453Q159 453 143 431Q130 413 126 375Q122 337 122 259Q122 181 126 143Q130 105 143 87Q159 65 188 65Q218 65 234 87Q247 105 250.50 142Z"  horiz-adv-x="586" vert-adv-y="1000"  />

      
      <glyph glyph-name="uni0154" unicode="&#x0154;" d="M416 0L325 0L227 306L150 306L150 0L64 0L64 712L225 712Q310 712 351.50 666.50Q393 621 393 509Q393 434 373 389Q353 344 307 323L416 0M289.50 414Q289.50 414 298.25 430Q307 446 307 509Q307 572 289.50 603.50Q272 635 226 635L150 635L150 382L226 382Q272 382 289.50 414M322 897L241 762L179 762L248 897L322 897Z"  horiz-adv-x="455" vert-adv-y="1000"  />

      
      <glyph glyph-name="uni0155" unicode="&#x0155;" d="M256 448L232 448Q190 448 164 422.50Q138 397 138 353L138 0L57 0L57 518L135 518L135 463Q146 483 171 500Q208 526 256 526L256 448M248 721L167 586L106 586L174 721L248 721Z"  horiz-adv-x="272" vert-adv-y="1000"  />

      
      <glyph glyph-name="uni0156" unicode="&#x0156;" d="M416 0L325 0L227 306L150 306L150 0L64 0L64 712L225 712Q310 712 351.50 666.50Q393 621 393 509Q393 434 373 389Q353 344 307 323L416 0M289.50 414Q289.50 414 298.25 430Q307 446 307 509Q307 572 289.50 603.50Q272 635 226 635L150 635L150 382L226 382Q272 382 289.50 414M263-38L213-182L149-182L206-38L263-38Z"  horiz-adv-x="455" vert-adv-y="1000"  />

      
      <glyph glyph-name="uni0157" unicode="&#x0157;" d="M256 448L232 448Q190 448 164 422.50Q138 397 138 353L138 0L57 0L57 518L135 518L135 463Q146 483 171 500Q208 526 256 526L256 448M133-38L83-182L19-182L76-38L133-38Z"  horiz-adv-x="272" vert-adv-y="1000"  />

      
      <glyph glyph-name="uni0158" unicode="&#x0158;" d="M416 0L325 0L227 306L150 306L150 0L64 0L64 712L225 712Q310 712 351.50 666.50Q393 621 393 509Q393 434 373 389Q353 344 307 323L416 0M289.50 414Q289.50 414 298.25 430Q307 446 307 509Q307 572 289.50 603.50Q272 635 226 635L150 635L150 382L226 382Q272 382 289.50 414M342 892L249 758L183 758L90 892L156 892L216 805L276 892L342 892Z"  horiz-adv-x="455" vert-adv-y="1000"  />

      
      </font>
</defs>
</svg>
