<?xml version="1.0" standalone="no"?>
  <!DOCTYPE svg PUBLIC "-//W3C//DTD SVG 1.1//EN" "http://www.w3.org/Graphics/SVG/1.1/DTD/svg11.dtd" >
  <svg>
  <metadata>
  Created by font-carrier
  </metadata>
  <defs>
  <font id="DINPro-CondensedRegular" horiz-adv-x="986" vert-adv-y="986" >
    <font-face
      
      font-family="DIN Pro Cond"
      
      font-weight="400"
      
      font-stretch="normal"
      
      units-per-em="1000"
      
      ascent="933"
      
      descent="-209"
      
    />
      <missing-glyph />

      

      
      <glyph glyph-name="uni21" unicode="&#x21;" d="M156 187L100 187L100 712L156 712L156 187M165 0L90 0L90 75L165 75L165 0Z"  horiz-adv-x="227" vert-adv-y="1000"  />

      
      <glyph glyph-name="uni22" unicode="&#x22;" d="M127 529L62 529L62 712L127 712L127 529M290 529L226 529L226 712L290 712L290 529Z"  horiz-adv-x="352" vert-adv-y="1000"  />

      
      <glyph glyph-name="uni23" unicode="&#x23;" d="M444 444L365 444L345 281L418 281L418 230L337 230L308 0L254 0L283 230L181 230L152 0L98 0L127 230L55 230L55 281L134 281L155 444L82 444L82 494L162 494L190 712L244 712L216 494L318 494L346 712L400 712L372 494L444 494L444 444M311 444L209 444L188 281L290 281L311 444Z"  horiz-adv-x="500" vert-adv-y="1000"  />

      
      <glyph glyph-name="uni24" unicode="&#x24;" d="M351 186Q351 76 307 32Q277 2 226-4L226-114L173-114L173-5Q116 0 84 32Q60 57 51 88Q42 119 42 178L101 178Q101 100 129 72Q147 54 173 50L173 348L141 361Q86 383 66.50 420.50Q47 458 47 539Q47 634 96 680Q128 710 173 716L173 806L226 806L226 716Q276 710 307 679Q332 654 341 622.50Q350 591 350 541L291 541Q291 608 264 639Q248 656 226 662L226 389L259 376Q314 354 332.50 311.50Q351 269 351 186M292 184Q292 249 278.50 278.50Q265 308 226 326L226 51Q251 57 264 72Q292 102 292 184M173 411L173 662Q151 656 137 642Q106 611 106 540Q106 480 119 454.50Q132 429 173 411Z"  horiz-adv-x="404" vert-adv-y="1000"  />

      
      <glyph glyph-name="uni25" unicode="&#x25;" d="M252 446Q252 401 224 373.50Q196 346 153 346Q110 346 82.50 373.50Q55 401 55 446L55 621Q55 666 82.50 693Q110 720 153 720Q196 720 224 693Q252 666 252 621L252 446M562 92Q562 47 534.50 19.50Q507-8 464-8Q421-8 393.50 19.50Q366 47 366 92L366 266Q366 311 393.50 338.50Q421 366 464 366Q507 366 534.50 338.50Q562 311 562 266L562 92M456 712L208 0L161 0L409 712L456 712M514 92L514 266Q514 293 501 308Q488 323 464 323Q440 323 427 308Q414 293 414 266L414 92Q414 65 427 50Q440 35 464 35Q488 35 501 50Q514 65 514 92M203 446L203 620Q203 647 190 662Q177 677 153 677Q104 677 104 620L104 446Q104 389 153 389Q177 389 190 404Q203 419 203 446Z"  horiz-adv-x="617" vert-adv-y="1000"  />

      
      <glyph glyph-name="uni26" unicode="&#x26;" d="M481 0L417 0L362 84Q325 38 288 15Q251-8 196-8Q128-8 83 38.50Q38 85 38 164Q38 227 67 277Q96 327 162 388Q107 466 89.50 500.50Q72 535 72 575Q72 635 107 676.50Q142 718 205 718Q269 718 304 681Q339 644 339 584Q339 524 315 481.50Q291 439 230 381L362 182Q402 247 409 350L463 350Q453 221 394 132L481 0M332 130L191 344Q140 294 117 253.50Q94 213 94 169Q94 116 123 80Q152 44 202 44Q265 44 332 130M285 582Q285 619 263 643Q241 667 206 667Q167 667 147 640Q127 613 127 577Q127 547 141.50 517.50Q156 488 201 425Q246 469 265.50 501.50Q285 534 285 582Z"  horiz-adv-x="486" vert-adv-y="1000"  />

      
      <glyph glyph-name="uni27" unicode="&#x27;" d="M127 529L62 529L62 712L127 712L127 529Z"  horiz-adv-x="189" vert-adv-y="1000"  />

      
      <glyph glyph-name="uni28" unicode="&#x28;" d="M181-56L143-94Q94-45 78-14Q58 24 58 83L58 629Q58 688 78 726Q94 757 143 806L181 768Q139 726 129 705Q114 676 114 623L114 89Q114 36 129 7Q139-14 181-56Z"  horiz-adv-x="222" vert-adv-y="1000"  />

      
      <glyph glyph-name="uni29" unicode="&#x29;" d="M164 83Q164 24 144-14Q129-43 78-94L40-56Q84-12 93 7Q108 36 108 89L108 623Q108 676 93 705Q84 724 40 768L78 806Q129 755 144 726Q164 688 164 629L164 83Z"  horiz-adv-x="222" vert-adv-y="1000"  />

      
      <glyph glyph-name="uni2a" unicode="&#x2a;" d="M318 505L296 465L205 520L207 393L162 393L165 520L73 465L51 505L144 555L51 605L73 645L165 590L162 717L207 717L205 590L296 645L318 605L225 555L318 505Z"  horiz-adv-x="369" vert-adv-y="1000"  />

      
      <glyph glyph-name="uni2b" unicode="&#x2b;" d="M383 251L242 251L242 110L189 110L189 251L49 251L49 304L189 304L189 444L242 444L242 304L383 304L383 251Z"  horiz-adv-x="431" vert-adv-y="1000"  />

      
      <glyph glyph-name="uni2c" unicode="&#x2c;" d="M127-48L58-99L58 77L127 77L127-48Z"  horiz-adv-x="184" vert-adv-y="1000"  />

      
      <glyph glyph-name="uni2d" unicode="&#x2d;" d="M246 251L55 251L55 304L246 304L246 251Z"  horiz-adv-x="301" vert-adv-y="1000"  />

      
      <glyph glyph-name="uni2e" unicode="&#x2e;" d="M137 0L62 0L62 75L137 75L137 0Z"  horiz-adv-x="199" vert-adv-y="1000"  />

      
      <glyph glyph-name="uni2f" unicode="&#x2f;" d="M244 786L59-74L2-74L187 786L244 786Z"  horiz-adv-x="246" vert-adv-y="1000"  />

      
      <glyph glyph-name="uni30" unicode="&#x30;" d="M307 128Q307 63 271 27Q236-8 180-8Q125-8 90 27Q54 63 54 128L54 584Q54 649 90 685Q125 720 180 720Q236 720 271 685Q307 649 307 584L307 128M251 125L251 587Q251 627 231 648.50Q211 670 180 670Q149 670 129.50 648.50Q110 627 110 587L110 125Q110 85 129.50 63.50Q149 42 180 42Q211 42 231 63.50Q251 85 251 125Z"  horiz-adv-x="361" vert-adv-y="1000"  />

      
      <glyph glyph-name="uni31" unicode="&#x31;" d="M221 0L165 0L165 646L63 558L63 625L165 712L221 712L221 0Z"  horiz-adv-x="361" vert-adv-y="1000"  />

      
      <glyph glyph-name="uni32" unicode="&#x32;" d="M311 0L51 0L51 47L221 437Q255 515 255 587Q255 627 235.50 648.50Q216 670 185 670Q154 670 134 648.50Q114 627 114 587L114 536L58 536L58 586Q58 649 94 685Q129 720 185 720Q240 720 274 686Q311 649 311 584Q311 515 270 419L111 50L311 50L311 0Z"  horiz-adv-x="361" vert-adv-y="1000"  />

      
      <glyph glyph-name="uni33" unicode="&#x33;" d="M307 196Q307 121 299 86.50Q291 52 267 27Q232-8 176-8Q120-8 86 26Q49 63 49 127L49 176L105 176L105 126Q105 86 125 64Q145 42 176 42Q208 42 225 63Q239 80 245 107Q251 134 251 196Q251 268 246 293.50Q241 319 226 336Q206 357 176 357L135 357L135 406L176 406Q207 406 221 423Q245 448 245 538Q245 625 223 651Q207 670 176 670Q146 670 128 648.50Q110 627 110 587L110 536L54 536L54 585Q54 653 89 686Q123 720 176 720Q231 720 264 687Q284 667 292.50 634.50Q301 602 301 540Q301 452 281 419Q268 395 241 381Q267 367 281 347Q297 324 302 296Q307 268 307 196Z"  horiz-adv-x="361" vert-adv-y="1000"  />

      
      <glyph glyph-name="uni34" unicode="&#x34;" d="M328 124L278 124L278 0L222 0L222 124L34 124L34 174L214 712L269 712L90 174L222 174L222 373L278 373L278 174L328 174L328 124Z"  horiz-adv-x="361" vert-adv-y="1000"  />

      
      <glyph glyph-name="uni35" unicode="&#x35;" d="M311 224Q311 139 303 99Q295 59 271 32Q237-8 180-8Q123-8 90 25Q52 63 52 127L52 174L108 174L108 129Q108 86 128 64Q148 42 181 42Q212 42 230 67Q244 86 249.50 117.50Q255 149 255 224Q255 297 249.50 329.50Q244 362 230 382Q213 408 180 408Q149 408 128.50 385Q108 362 108 325L108 292L56 292L56 712L301 712L301 662L107 662L107 410Q118 429 140 443Q164 457 194 457Q244 457 275 418Q296 393 303.50 353.50Q311 314 311 224Z"  horiz-adv-x="361" vert-adv-y="1000"  />

      
      <glyph glyph-name="uni36" unicode="&#x36;" d="M310 210Q310 129 303 93.50Q296 58 274 31Q242-8 180-8Q118-8 87 31Q65 58 57.50 94Q50 130 50 210Q50 323 79 401L194 712L250 712L136 406Q162 427 194 427Q244 427 275 391Q296 368 303 333.50Q310 299 310 210M254 211Q254 278 249 310Q244 342 230 358Q212 379 180 379Q148 379 130 358Q116 342 111 310Q106 278 106 211Q106 91 130 63Q148 42 180 42Q212 42 230 63Q254 91 254 211Z"  horiz-adv-x="361" vert-adv-y="1000"  />

      
      <glyph glyph-name="uni37" unicode="&#x37;" d="M314 667L124 0L65 0L256 662L102 662L102 546L47 546L47 712L314 712L314 667Z"  horiz-adv-x="361" vert-adv-y="1000"  />

      
      <glyph glyph-name="uni38" unicode="&#x38;" d="M310 196Q310 121 302.50 86.50Q295 52 271 27Q236-8 180-8Q125-8 90 27Q66 52 58 87Q50 122 50 196Q50 266 55.50 294.50Q61 323 76 345Q89 366 116 380Q91 393 76 418Q55 456 55 539Q55 601 63.50 633.50Q72 666 93 687Q128 720 180 720Q234 720 267 687Q288 666 296.50 633.50Q305 601 305 539Q305 454 285 418Q271 395 245 380Q272 366 285 345Q300 323 305 295Q310 267 310 196M254 197Q254 266 249 292Q244 318 229 335Q211 356 180 356Q149 356 131 335Q116 318 111 292Q106 266 106 197Q106 135 111.50 107.50Q117 80 131 63Q149 42 180 42Q211 42 229 63Q243 80 248.50 107.50Q254 135 254 197M249 537Q249 628 226 652Q208 670 180 670Q153 670 135 652Q111 627 111 537Q111 448 136 422Q152 405 180 405Q209 405 225 422Q249 447 249 537Z"  horiz-adv-x="361" vert-adv-y="1000"  />

      
      <glyph glyph-name="uni39" unicode="&#x39;" d="M310 502Q310 389 281 311L167 0L110 0L225 306Q199 285 167 285Q117 285 86 321Q65 344 57.50 379Q50 414 50 502Q50 583 57.50 619Q65 655 87 681Q120 720 181 720Q241 720 274 681Q296 654 303 618.50Q310 583 310 502M249 401.50Q249 401.50 251.50 417.25Q254 433 254 501Q254 569 249 601Q244 633 230 649Q210 670 180 670Q150 670 130 649Q116 633 111 601Q106 569 106 501Q106 433 111 401.50Q116 370 130 354Q150 333 180 333Q210 333 230 354Q244 370 249 401.50Z"  horiz-adv-x="361" vert-adv-y="1000"  />

      
      <glyph glyph-name="uni3a" unicode="&#x3a;" d="M165 339L90 339L90 415L165 415L165 339M165 0L90 0L90 75L165 75L165 0Z"  horiz-adv-x="227" vert-adv-y="1000"  />

      
      <glyph glyph-name="uni3b" unicode="&#x3b;" d="M162-48L93-99L93 77L162 77L162-48M165 339L90 339L90 415L165 415L165 339Z"  horiz-adv-x="227" vert-adv-y="1000"  />

      
      <glyph glyph-name="uni3c" unicode="&#x3c;" d="M327 90L34 259L34 308L327 478L327 415L98 284L327 153L327 90Z"  horiz-adv-x="361" vert-adv-y="1000"  />

      
      <glyph glyph-name="uni3d" unicode="&#x3d;" d="M383 314L49 314L49 367L383 367L383 314M383 171L49 171L49 224L383 224L383 171Z"  horiz-adv-x="431" vert-adv-y="1000"  />

      
      <glyph glyph-name="uni3e" unicode="&#x3e;" d="M327 259L34 90L34 153L263 284L34 415L34 478L327 308L327 259Z"  horiz-adv-x="361" vert-adv-y="1000"  />

      
      <glyph glyph-name="uni3f" unicode="&#x3f;" d="M332 547Q332 478 303 432L245 339Q223 305 223 265L223 187L167 187L167 272Q167 314 192 354L250 447Q276 488 276 548Q276 616 248 646Q228 668 193 668Q160 668 139 647Q113 621 113 561L57 561Q57 643 96 681Q133 718 193 718Q255 718 291 681Q313 659 322.50 629.50Q332 600 332 547M233 0L158 0L158 75L233 75L233 0Z"  horiz-adv-x="375" vert-adv-y="1000"  />

      
      <glyph glyph-name="uni40" unicode="&#x40;" d="M454 0L399 0L399 41Q388 22 371 10Q345-8 312-8Q264-8 232 26Q201 59 201 127L201 350Q201 417 232 450Q264 484 312 484Q346 484 372 468Q389 458 398 439L398 567Q398 614 374 639Q350 664 308 664L201 664Q160 664 135.50 639Q111 614 111 567L111 101Q111 54 138 29L99-9Q55 29 55 103L55 569Q55 636 94 675Q131 712 193 712L316 712Q378 712 415 675Q454 636 454 569L454 0M398 125L398 351Q398 391 378.50 412.50Q359 434 328 434Q297 434 277 412.50Q257 391 257 351L257 125Q257 85 277 63.50Q297 42 328 42Q359 42 378.50 63.50Q398 85 398 125Z"  horiz-adv-x="515" vert-adv-y="1000"  />

      
      <glyph glyph-name="uni41" unicode="&#x41;" d="M374 0L311 0L272 195L106 195L68 0L4 0L163 712L218 712L374 0M261 248L189 606L118 248L261 248Z"  horiz-adv-x="379" vert-adv-y="1000"  />

      
      <glyph glyph-name="uni42" unicode="&#x42;" d="M363 196Q363 132 353 99Q343 66 319 41Q279 0 196 0L69 0L69 712L197 712Q279 712 317 671Q340 647 348.50 616Q357 585 357 529Q357 442 314 398Q292 376 269 370Q299 362 319 342Q363 298 363 196M304 198Q304 343 198 343L128 343L128 53L198 53Q252 53 278 84.50Q304 116 304 198M298 527Q298 601 273.50 630Q249 659 198 659L128 659L128 395L198 395Q298 395 298 527Z"  horiz-adv-x="416" vert-adv-y="1000"  />

      
      <glyph glyph-name="uni43" unicode="&#x43;" d="M358 163Q356 70 308 26Q271-8 210-8Q143-8 104 34Q72 68 63 126.50Q54 185 54 356Q54 527 63 585.50Q72 644 104 678Q143 720 210 720Q274 720 312 682Q356 638 358 549L299 549Q299 614 271 643Q249 667 210 667Q170 667 147 641Q125 616 119 564.50Q113 513 113 356Q113 199 119 147.50Q125 96 147 71Q170 45 210 45Q249 45 271 69Q299 98 299 163L358 163Z"  horiz-adv-x="399" vert-adv-y="1000"  />

      
      <glyph glyph-name="uni44" unicode="&#x44;" d="M362 580Q362 580 366.50 551.50Q371 523 371 356Q371 189 362 132Q353 75 321 41Q282 0 215 0L69 0L69 712L215 712Q282 712 321 671Q353 637 362 580M306 151.50Q306 151.50 309 176.25Q312 201 312 356Q312 511 306 560.50Q300 610 277 634Q255 659 212 659L128 659L128 53L212 53Q255 53 277 78Q300 102 306 151.50Z"  horiz-adv-x="424" vert-adv-y="1000"  />

      
      <glyph glyph-name="uni45" unicode="&#x45;" d="M317 0L69 0L69 712L317 712L317 659L128 659L128 383L291 383L291 330L128 330L128 53L317 53L317 0Z"  horiz-adv-x="364" vert-adv-y="1000"  />

      
      <glyph glyph-name="uni46" unicode="&#x46;" d="M317 659L128 659L128 383L291 383L291 330L128 330L128 0L69 0L69 712L317 712L317 659Z"  horiz-adv-x="359" vert-adv-y="1000"  />

      
      <glyph glyph-name="uni47" unicode="&#x47;" d="M358 152Q358 75 315.50 33.50Q273-8 210-8Q143-8 104 34Q72 68 63 126.50Q54 185 54 356Q54 527 63 585.50Q72 644 104 678Q143 720 210 720Q275 720 314 681Q356 636 358 549L299 549Q299 667 210 667Q170 667 147 641Q125 616 119 564.50Q113 513 113 356Q113 199 119 147.50Q125 96 147 71Q170 45 210 45Q250 45 274.50 73.50Q299 102 299 152L299 327L210 327L210 377L358 377L358 152Z"  horiz-adv-x="412" vert-adv-y="1000"  />

      
      <glyph glyph-name="uni48" unicode="&#x48;" d="M363 0L304 0L304 336L128 336L128 0L69 0L69 712L128 712L128 389L304 389L304 712L363 712L363 0Z"  horiz-adv-x="432" vert-adv-y="1000"  />

      
      <glyph glyph-name="uni49" unicode="&#x49;" d="M128 0L69 0L69 712L128 712L128 0Z"  horiz-adv-x="197" vert-adv-y="1000"  />

      
      <glyph glyph-name="uni4a" unicode="&#x4a;" d="M271 153Q271 75 229 33Q188-8 121-8Q50-8 8 42L51 81Q77 45 121 45Q161 45 186.50 73.50Q212 102 212 153L212 712L271 712L271 153Z"  horiz-adv-x="332" vert-adv-y="1000"  />

      
      <glyph glyph-name="uni4b" unicode="&#x4b;" d="M399 0L335 0L197 352L128 216L128 0L69 0L69 712L128 712L128 325L317 712L380 712L234 418L399 0Z"  horiz-adv-x="409" vert-adv-y="1000"  />

      
      <glyph glyph-name="uni4c" unicode="&#x4c;" d="M317 0L69 0L69 712L128 712L128 53L317 53L317 0Z"  horiz-adv-x="339" vert-adv-y="1000"  />

      
      <glyph glyph-name="uni4d" unicode="&#x4d;" d="M488 0L429 0L429 573L299 197L256 197L128 561L128 0L69 0L69 712L128 712L278 293L429 712L488 712L488 0Z"  horiz-adv-x="557" vert-adv-y="1000"  />

      
      <glyph glyph-name="uni4e" unicode="&#x4e;" d="M385 0L327 0L128 555L128 0L69 0L69 712L128 712L326 157L326 712L385 712L385 0Z"  horiz-adv-x="454" vert-adv-y="1000"  />

      
      <glyph glyph-name="uni4f" unicode="&#x4f;" d="M358 585.50Q358 585.50 362.50 556.25Q367 527 367 356Q367 185 358 126.50Q349 68 317 34Q278-8 210-8Q143-8 104 34Q72 68 63 126.50Q54 185 54 356Q54 527 63 585.50Q72 644 104 678Q143 720 210 720Q278 720 317 678Q349 644 358 585.50M302 147.50Q302 147.50 305 173.25Q308 199 308 356Q308 513 302 564.50Q296 616 274 641Q251 667 210 667Q170 667 147 641Q125 616 119 564.50Q113 513 113 356Q113 199 119 147.50Q125 96 147 71Q170 45 210 45Q251 45 274 71Q296 96 302 147.50Z"  horiz-adv-x="421" vert-adv-y="1000"  />

      
      <glyph glyph-name="uni50" unicode="&#x50;" d="M322.50 670Q322.50 670 342.75 649Q363 628 363 513Q363 398 322.50 356.50Q282 315 209 315L128 315L128 0L69 0L69 712L209 712Q282 712 322.50 670M279 398.50Q279 398.50 291.50 413.75Q304 429 304 513Q304 597 279 628Q254 659 206 659L128 659L128 368L206 368Q254 368 279 398.50Z"  horiz-adv-x="410" vert-adv-y="1000"  />

      
      <glyph glyph-name="uni51" unicode="&#x51;" d="M390 10L360-25L304 21Q265-8 210-8Q143-8 104 34Q72 68 63 126.50Q54 185 54 356Q54 527 63 585.50Q72 644 104 678Q143 720 210 720Q278 720 317 678Q349 644 358 585.50Q367 527 367 356Q367 205 361 146.50Q355 88 335 57L390 10M308 356Q308 515 302 565.50Q296 616 274 642Q252 667 210 667Q169 667 147 642Q125 616 119 565.50Q113 515 113 356Q113 197 119 146.50Q125 96 147 70Q169 45 210 45Q241 45 260 58L204 106L234 141L288 96Q301 121 304.50 171Q308 221 308 356Z"  horiz-adv-x="421" vert-adv-y="1000"  />

      
      <glyph glyph-name="uni52" unicode="&#x52;" d="M386 0L323 0L220 319L128 319L128 0L69 0L69 712L209 712Q283 712 323 671Q363 630 363 515Q363 363 275 330L386 0M283.50 407Q283.50 407 293.75 424.50Q304 442 304 515Q304 588 283.50 623.50Q263 659 211 659L128 659L128 372L211 372Q263 372 283.50 407Z"  horiz-adv-x="432" vert-adv-y="1000"  />

      
      <glyph glyph-name="uni53" unicode="&#x53;" d="M350 186Q350 76 306 32Q268-6 195-6Q121-6 83 32Q59 57 50 88Q41 119 41 178L100 178Q100 99 128 71Q152 47 195 47Q241 47 263 71Q291 101 291 184Q291 252 276 282Q261 312 216 330L140 361Q85 383 65.50 420.50Q46 458 46 539Q46 634 95 680Q135 718 199 718Q267 718 306 679Q331 654 340 622.50Q349 591 349 541L290 541Q290 608 263 639Q240 665 198 665Q159 665 136 642Q105 611 105 540Q105 478 119.50 452.50Q134 427 182 407L258 376Q313 354 331.50 311.50Q350 269 350 186Z"  horiz-adv-x="396" vert-adv-y="1000"  />

      
      <glyph glyph-name="uni54" unicode="&#x54;" d="M319 659L200 659L200 0L141 0L141 659L22 659L22 712L319 712L319 659Z"  horiz-adv-x="341" vert-adv-y="1000"  />

      
      <glyph glyph-name="uni55" unicode="&#x55;" d="M356 148Q356 75 314 33Q271-8 209-8Q147-8 104 33Q61 76 61 148L61 712L120 712L120 143Q120 98 145.50 71.50Q171 45 209 45Q247 45 272 71.50Q297 98 297 143L297 712L356 712L356 148Z"  horiz-adv-x="417" vert-adv-y="1000"  />

      
      <glyph glyph-name="uni56" unicode="&#x56;" d="M366 712L214 0L156 0L4 712L69 712L185 106L301 712L366 712Z"  horiz-adv-x="370" vert-adv-y="1000"  />

      
      <glyph glyph-name="uni57" unicode="&#x57;" d="M583 712L475 0L413 0L294 607L176 0L114 0L4 712L69 712L145 106L260 712L327 712L444 106L519 712L583 712Z"  horiz-adv-x="587" vert-adv-y="1000"  />

      
      <glyph glyph-name="uni58" unicode="&#x58;" d="M353 0L289 0L186 308L84 0L19 0L151 371L30 712L95 712L186 430L278 712L342 712L218 371L353 0Z"  horiz-adv-x="372" vert-adv-y="1000"  />

      
      <glyph glyph-name="uni59" unicode="&#x59;" d="M312 712L187 298L187 0L128 0L128 298L3 712L68 712L157 386L247 712L312 712Z"  horiz-adv-x="315" vert-adv-y="1000"  />

      
      <glyph glyph-name="uni5a" unicode="&#x5a;" d="M294 0L30 0L30 46L233 659L44 659L44 712L294 712L294 666L92 53L294 53L294 0Z"  horiz-adv-x="324" vert-adv-y="1000"  />

      
      <glyph glyph-name="uni5b" unicode="&#x5b;" d="M206-74L62-74L62 786L206 786L206 738L118 738L118-26L206-26L206-74Z"  horiz-adv-x="236" vert-adv-y="1000"  />

      
      <glyph glyph-name="uni5c" unicode="&#x5c;" d="M244-74L187-74L2 786L59 786L244-74Z"  horiz-adv-x="246" vert-adv-y="1000"  />

      
      <glyph glyph-name="uni5d" unicode="&#x5d;" d="M174-74L30-74L30-26L118-26L118 738L30 738L30 786L174 786L174-74Z"  horiz-adv-x="236" vert-adv-y="1000"  />

      
      <glyph glyph-name="uni5e" unicode="&#x5e;" d="M378 439L321 439L224 660L127 439L69 439L198 718L250 718L378 439Z"  horiz-adv-x="448" vert-adv-y="1000"  />

      
      <glyph glyph-name="uni5f" unicode="&#x5f;" d="M431-134L0-134L0-90L431-90L431-134Z"  horiz-adv-x="431" vert-adv-y="1000"  />

      
      <glyph glyph-name="uni60" unicode="&#x60;" d="M204 586L155 586L81 716L139 716L204 586Z"  horiz-adv-x="354" vert-adv-y="1000"  />

      
      <glyph glyph-name="uni61" unicode="&#x61;" d="M294 0L240 0L240 46Q230 26 212 12Q185-8 151-8Q103-8 70 26Q37 61 37 141Q37 217 80 256Q117 290 180 290L238 290L238 381Q238 468 168 468Q141 468 122 449Q99 425 99 378L43 378Q43 446 80 483Q114 517 168 517Q229 517 259 485Q294 448 294 379L294 0M238 134L238 246L182 246Q143 246 120 224Q93 197 93 142Q93 42 164 42Q197 42 217.50 68Q238 94 238 134Z"  horiz-adv-x="352" vert-adv-y="1000"  />

      
      <glyph glyph-name="uni62" unicode="&#x62;" d="M313.50 405.50Q313.50 405.50 317.25 380.75Q321 356 321 254Q321 152 313.50 103Q306 54 283 28Q251-8 203-8Q169-8 146 9Q126 23 117 40L117 0L62 0L62 712L118 712L118 470Q130 489 146 500Q169 517 203 517Q251 517 283 481Q306 455 313.50 405.50M260 122.50Q260 122.50 262.50 142.25Q265 162 265 254Q265 346 260 385.50Q255 425 239 444Q220 467 190 467Q161 467 142 448Q118 426 118 378L118 131Q118 84 142 61Q161 42 190 42Q220 42 239 64Q255 83 260 122.50Z"  horiz-adv-x="365" vert-adv-y="1000"  />

      
      <glyph glyph-name="uni63" unicode="&#x63;" d="M303 134Q301 59 267 25Q234-8 177-8Q117-8 83 32Q61 58 53 108.50Q45 159 45 254Q45 349 53 399.50Q61 450 83 476Q116 517 177 517Q235 517 267 485Q301 452 303 374L248 374Q248 425 228 446Q210 467 178 467Q144 467 126 444Q110 424 105.50 383Q101 342 101 254Q101 166 105.50 125.50Q110 85 126 65Q144 42 178 42Q207 42 227 62Q248 84 248 134L303 134Z"  horiz-adv-x="340" vert-adv-y="1000"  />

      
      <glyph glyph-name="uni64" unicode="&#x64;" d="M303 0L248 0L248 41Q240 23 220 10Q194-8 162-8Q114-8 83 28Q61 53 53 103.50Q45 154 45 254Q45 354 53 404Q61 454 83 481Q112 517 162 517Q198 517 220 501Q236 489 247 471L247 712L303 712L303 0M247 131L247 378Q247 425 224 448Q203 467 175 467Q146 467 127 444Q111 425 106 385.50Q101 346 101 254Q101 162 106 122.50Q111 83 127 64Q146 42 175 42Q203 42 224 61Q247 84 247 131Z"  horiz-adv-x="365" vert-adv-y="1000"  />

      
      <glyph glyph-name="uni65" unicode="&#x65;" d="M309 246L101 246Q101 161 106 122Q111 83 127 65Q146 42 178 42Q211 42 230 62Q252 85 252 134L307 134Q307 65 270 27Q236-8 178-8Q121-8 86 29Q62 55 53.50 106.50Q45 158 45 254Q45 352 53.50 403Q62 454 86 480Q120 517 177 517Q234 517 268 480Q292 453 300.50 401Q309 349 309 246M253 291Q252 416 227 444Q208 467 177 467Q145 467 126 444Q102 417 101 291L253 291Z"  horiz-adv-x="349" vert-adv-y="1000"  />

      
      <glyph glyph-name="uni66" unicode="&#x66;" d="M221 465L134 465L134 0L78 0L78 465L16 465L16 509L78 509L78 578Q78 646 116 681Q153 714 221 714L221 663Q134 663 134 578L134 509L221 509L221 465Z"  horiz-adv-x="237" vert-adv-y="1000"  />

      
      <glyph glyph-name="uni67" unicode="&#x67;" d="M303 509L303-15Q303-79 295-111.50Q287-144 265-168Q230-205 174-205Q116-205 82-171Q47-135 47-64L102-64Q102-115 124-137Q142-156 173-156Q204-156 223-134Q247-109 247-16L247 49Q238 33 220 20Q195 3 163 3Q115 3 84 38Q61 64 53 112.50Q45 161 45 260Q45 360 53 408Q61 456 84 481Q116 517 163 517Q196 517 221 500Q238 488 248 470L248 509L303 509M247 141L247 378Q247 425 224 448Q203 467 175 467Q146 467 127 444Q111 425 106 387Q101 349 101 259Q101 169 106 131Q111 93 127 74Q146 52 175 52Q207 52 224 70Q247 96 247 141Z"  horiz-adv-x="365" vert-adv-y="1000"  />

      
      <glyph glyph-name="uni68" unicode="&#x68;" d="M315 0L259 0L259 383Q259 423 239.50 444.50Q220 466 189 466Q158 466 138 444.50Q118 423 118 383L118 0L62 0L62 712L118 712L118 469Q124 483 146 499Q172 517 204 517Q251 517 284 482Q315 449 315 382L315 0Z"  horiz-adv-x="373" vert-adv-y="1000"  />

      
      <glyph glyph-name="uni69" unicode="&#x69;" d="M118 0L62 0L62 509L118 509L118 0M126 626L54 626L54 698L126 698L126 626Z"  horiz-adv-x="181" vert-adv-y="1000"  />

      
      <glyph glyph-name="uni6a" unicode="&#x6a;" d="M118-68Q118-136 80-171Q46-203-21-203L-21-153Q62-153 62-67L62 509L118 509L118-68M126 626L54 626L54 698L126 698L126 626Z"  horiz-adv-x="181" vert-adv-y="1000"  />

      
      <glyph glyph-name="uni6b" unicode="&#x6b;" d="M357 0L295 0L185 265L118 159L118 0L62 0L62 712L118 712L118 242L279 509L340 509L220 314L357 0Z"  horiz-adv-x="373" vert-adv-y="1000"  />

      
      <glyph glyph-name="uni6c" unicode="&#x6c;" d="M196 0Q129 0 95 32Q57 67 57 136L57 712L113 712L113 136Q113 50 196 50L196 0Z"  horiz-adv-x="212" vert-adv-y="1000"  />

      
      <glyph glyph-name="uni6d" unicode="&#x6d;" d="M512 0L456 0L456 383Q456 423 436.50 444.50Q417 466 386 466Q355 466 335 444.50Q315 423 315 383L315 0L259 0L259 383Q259 423 239.50 444.50Q220 466 189 466Q158 466 138 444.50Q118 423 118 383L118 0L62 0L62 509L117 509L117 468Q127 486 146 499Q172 517 204 517Q232 517 258 502Q284 487 299 463Q316 488 334 499Q362 517 395 517Q448 517 481 482Q512 449 512 382L512 0Z"  horiz-adv-x="570" vert-adv-y="1000"  />

      
      <glyph glyph-name="uni6e" unicode="&#x6e;" d="M315 0L259 0L259 383Q259 423 239.50 444.50Q220 466 189 466Q158 466 138 444.50Q118 423 118 383L118 0L62 0L62 509L117 509L117 468Q127 486 146 499Q172 517 204 517Q251 517 284 482Q315 449 315 382L315 0Z"  horiz-adv-x="373" vert-adv-y="1000"  />

      
      <glyph glyph-name="uni6f" unicode="&#x6f;" d="M301 399Q301 399 305 374Q309 349 309 254Q309 159 301 109Q293 59 271 32Q238-8 177-8Q116-8 83 32Q61 59 53 109Q45 159 45 254Q45 349 53 399Q61 449 83 476Q116 517 177 517Q238 517 271 476Q293 449 301 399M248 125Q248 125 250.50 145Q253 165 253 254Q253 343 248 383.50Q243 424 227 444Q208 467 177 467Q145 467 126 444Q110 424 105.50 384Q101 344 101 254Q101 164 105.50 124.50Q110 85 126 65Q145 42 177 42Q208 42 227 65Q243 85 248 125Z"  horiz-adv-x="353" vert-adv-y="1000"  />

      
      <glyph glyph-name="uni70" unicode="&#x70;" d="M313 404.50Q313 404.50 317 379.25Q321 354 321 254Q321 154 313 104Q305 54 283 28Q251-8 204-8Q169-8 146 8Q131 18 118 38L118-203L62-203L62 509L117 509L117 468Q125 485 146 499Q172 517 204 517Q251 517 283 481Q305 455 313 404.50M260 122.50Q260 122.50 262.50 142.25Q265 162 265 254Q265 346 260 385.50Q255 425 239 444Q220 467 190 467Q161 467 142 448Q118 426 118 378L118 131Q118 84 142 61Q161 42 190 42Q220 42 239 64Q255 83 260 122.50Z"  horiz-adv-x="366" vert-adv-y="1000"  />

      
      <glyph glyph-name="uni71" unicode="&#x71;" d="M303-203L247-203L247 38Q234 17 220 8Q195-8 162-8Q116-8 83 28Q60 54 52.50 103.50Q45 153 45 254Q45 355 52.50 405Q60 455 83 481Q114 517 162 517Q194 517 220 499Q240 486 248 468L248 509L303 509L303-203M247 131L247 378Q247 425 224 448Q203 467 175 467Q146 467 127 444Q111 425 106 385.50Q101 346 101 254Q101 162 106 122.50Q111 83 127 64Q146 42 175 42Q203 42 224 61Q247 84 247 131Z"  horiz-adv-x="365" vert-adv-y="1000"  />

      
      <glyph glyph-name="uni72" unicode="&#x72;" d="M229 464L217 464Q172 464 145 437.50Q118 411 118 365L118 0L62 0L62 509L117 509L117 455Q125 472 142 487Q175 517 229 517L229 464Z"  horiz-adv-x="245" vert-adv-y="1000"  />

      
      <glyph glyph-name="uni73" unicode="&#x73;" d="M303 130Q303 71 263 31Q224-8 166-8Q109-8 73 28Q33 69 33 138L89 138Q89 89 115 63Q136 42 166 42Q201 42 224 65Q247 88 247 128Q247 161 233 183Q217 208 182 227L118 262Q72 288 52 322Q38 349 38 386Q38 442 78 482Q113 517 169 517Q226 517 260 483Q297 446 297 373L241 373Q241 424 219 447Q200 467 169 467Q135 467 116 448Q94 427 94 388Q94 361 104 344Q113 328 151 306L214 270Q263 243 283 210Q303 177 303 130Z"  horiz-adv-x="336" vert-adv-y="1000"  />

      
      <glyph glyph-name="uni74" unicode="&#x74;" d="M225 0Q150 0 116 32Q78 67 78 136L78 465L16 465L16 509L78 509L78 658L134 658L134 509L221 509L221 465L134 465L134 136Q134 50 225 50L225 0Z"  horiz-adv-x="245" vert-adv-y="1000"  />

      
      <glyph glyph-name="uni75" unicode="&#x75;" d="M311 0L256 0L256 41Q246 23 227 10Q201-8 169-8Q121-8 89 26Q58 59 58 127L58 509L114 509L114 126Q114 86 133.50 64.50Q153 43 184 43Q215 43 235 64.50Q255 86 255 126L255 509L311 509L311 0Z"  horiz-adv-x="373" vert-adv-y="1000"  />

      
      <glyph glyph-name="uni76" unicode="&#x76;" d="M301 509L182 0L123 0L4 509L66 509L153 88L240 509L301 509Z"  horiz-adv-x="305" vert-adv-y="1000"  />

      
      <glyph glyph-name="uni77" unicode="&#x77;" d="M470 509L371 0L311 0L234 416L161 0L101 0L4 509L69 509L132 88L206 509L262 509L340 88L405 509L470 509Z"  horiz-adv-x="474" vert-adv-y="1000"  />

      
      <glyph glyph-name="uni78" unicode="&#x78;" d="M304 0L242 0L161 210L79 0L17 0L129 259L23 509L85 509L161 307L236 509L298 509L190 259L304 0Z"  horiz-adv-x="321" vert-adv-y="1000"  />

      
      <glyph glyph-name="uni79" unicode="&#x79;" d="M301 509L157-99Q143-156 106.50-179.50Q70-203 9-203L9-153Q85-153 102-88L125 2L4 509L66 509L153 89L240 509L301 509Z"  horiz-adv-x="308" vert-adv-y="1000"  />

      
      <glyph glyph-name="uni7a" unicode="&#x7a;" d="M255 0L22 0L22 44L194 459L32 459L32 509L255 509L255 465L83 50L255 50L255 0Z"  horiz-adv-x="276" vert-adv-y="1000"  />

      
      <glyph glyph-name="uni7b" unicode="&#x7b;" d="M258-74L234-74Q182-74 149-41Q115-7 115 56L115 250Q115 289 96 310Q77 331 47 331L30 331L30 381L47 381Q77 381 96 402Q115 423 115 462L115 656Q115 719 149 753Q182 786 234 786L258 786L258 736L240 736Q210 736 190.50 714.50Q171 693 171 655L171 464Q171 403 141 373Q131 363 114 356Q128 352 141 339Q171 307 171 248L171 57Q171 19 190.50-2.50Q210-24 240-24L258-24L258-74Z"  horiz-adv-x="287" vert-adv-y="1000"  />

      
      <glyph glyph-name="uni7c" unicode="&#x7c;" d="M153-74L97-74L97 786L153 786L153-74Z"  horiz-adv-x="251" vert-adv-y="1000"  />

      
      <glyph glyph-name="uni7d" unicode="&#x7d;" d="M258 331L240 331Q210 331 191 310Q172 289 172 250L172 56Q172-7 138-41Q105-74 53-74L30-74L30-24L47-24Q77-24 96.50-2.50Q116 19 116 57L116 248Q116 308 147 339Q158 350 173 356Q158 361 147 373Q116 404 116 464L116 655Q116 693 96.50 714.50Q77 736 47 736L30 736L30 786L53 786Q105 786 138 753Q172 719 172 656L172 462Q172 423 191 402Q210 381 240 381L258 381L258 331Z"  horiz-adv-x="287" vert-adv-y="1000"  />

      
      <glyph glyph-name="uni7e" unicode="&#x7e;" d="M385 283Q354 252 333 241Q312 230 286 230Q260 230 205 254Q164 273 145 273Q128 273 115 266Q102 259 81 238L47 272Q79 304 99 315Q119 326 145 326Q168 326 226 301Q264 283 286 283Q304 283 317 289.50Q330 296 351 317L385 283Z"  horiz-adv-x="431" vert-adv-y="1000"  />

      
      <glyph glyph-name="unia1" unicode="&#xa1;" d="M127-203L71-203L71 322L127 322L127-203M137 434L62 434L62 509L137 509L137 434Z"  horiz-adv-x="227" vert-adv-y="1000"  />

      
      <glyph glyph-name="unia2" unicode="&#xa2;" d="M304 242Q302 171 269 138Q243 113 201 107L201 0L156 0L156 108Q112 114 84 145Q62 170 54 218Q46 266 46 357Q46 448 54 496Q62 544 84 569Q112 600 156 606L156 712L201 712L201 607Q242 602 268 578Q302 545 304 472L249 472Q249 520 230 540Q219 552 201 557L201 157Q217 162 228 173Q249 194 249 242L304 242M156 158L156 556Q139 550 128 538Q112 519 107 480.50Q102 442 102 357Q102 272 107 233.50Q112 195 128 176Q139 164 156 158Z"  horiz-adv-x="342" vert-adv-y="1000"  />

      
      <glyph glyph-name="unia3" unicode="&#xa3;" d="M362 0L99 0L99 351L35 351L35 395L99 395L99 562Q99 636 142.50 678Q186 720 249 720Q320 720 362 670L320 632Q295 667 249 667Q210 667 184 639Q158 611 158 565L158 395L249 395L249 351L158 351L158 53L362 53L362 0Z"  horiz-adv-x="393" vert-adv-y="1000"  />

      
      <glyph glyph-name="unia4" unicode="&#xa4;" d="M432 113L397 78L340 135Q295 101 239 101Q183 101 138 135L82 78L46 113L103 170Q69 215 69 271Q69 328 103 372L46 428L82 463L138 407Q182 440 239 440Q296 440 340 407L397 463L432 428L375 372Q409 328 409 271Q409 215 375 170L432 113M323 187Q323 187 340.50 204.50Q358 222 358 271Q358 320 323.50 354.50Q289 389 239 389Q190 389 155.50 354.50Q121 320 121 271Q121 221 155.50 186.50Q190 152 239 152Q288 152 323 187Z"  horiz-adv-x="478" vert-adv-y="1000"  />

      
      <glyph glyph-name="unia5" unicode="&#xa5;" d="M310 712L218 403L269 403L269 359L205 359L186 298L186 258L269 258L269 214L186 214L186 0L128 0L128 214L45 214L45 258L128 258L128 298L111 359L45 359L45 403L97 403L5 712L68 712L157 386L247 712L310 712Z"  horiz-adv-x="315" vert-adv-y="1000"  />

      
      <glyph glyph-name="unia6" unicode="&#xa6;" d="M153 437L97 437L97 785L153 785L153 437M153-73L97-73L97 275L153 275L153-73Z"  horiz-adv-x="251" vert-adv-y="1000"  />

      
      <glyph glyph-name="unia7" unicode="&#xa7;" d="M330 271Q330 203 321.50 170.50Q313 138 290 116Q267 95 235 89Q254 78 262.50 72Q271 66 282.50 55Q294 44 302 31Q321-1 321-46Q321-106 285-143Q249-180 191-180Q137-180 101-144Q64-108 64-47L120-47Q120-84 143-110Q160-130 191-130Q225-130 244-109Q264-89 264-48Q264-12 251 7Q237 29 202 48L136 85Q112 98 99 111Q74 136 66.50 169.50Q59 203 59 271Q59 338 68 371Q77 404 100 426Q121 447 154 453Q104 481 85 514Q69 543 69 585Q69 642 107 678Q141 712 197 712Q249 712 283 681Q320 645 322 581L266 581Q266 618 244 643Q225 662 197 662Q166 662 148 644Q126 623 126 588Q126 554 137 537Q149 515 181 497L247 461Q277 445 291 431Q316 406 323 375Q330 344 330 271M274 271Q274 330 269 355.50Q264 381 248 397Q227 419 194 419Q163 419 142 398Q127 383 121 357Q115 331 115 271Q115 214 121 187Q127 160 142 145Q163 124 194 124Q227 124 248 145Q263 162 268.50 188Q274 214 274 271Z"  horiz-adv-x="389" vert-adv-y="1000"  />

      
      <glyph glyph-name="unia8" unicode="&#xa8;" d="M278 606L214 606L214 669L278 669L278 606M140 606L77 606L77 669L140 669L140 606Z"  horiz-adv-x="354" vert-adv-y="1000"  />

      
      <glyph glyph-name="unia9" unicode="&#xa9;" d="M687 612Q687 612 740 559Q793 506 793 356Q793 206 687 100Q581-6 431-6Q281-6 175 100Q69 206 69 356Q69 506 175 612Q281 718 431 718Q581 718 687 612M654.50 129Q654.50 129 700.75 176Q747 223 747 356Q747 489 654.50 583Q562 677 431 677Q300 677 207 583Q114 489 114 356Q114 223 207 129Q300 35 431 35Q562 35 654.50 129M525 262Q525 204 498 177Q473 151 431 151Q389 151 362 181Q345 201 339 239Q333 277 333 356Q333 435 339 473Q345 511 362 531Q389 561 431 561Q473 561 498 535Q525 507 525 449L483 449Q483 491 467 507Q452 522 431 522Q409 522 394 505Q375 482 375 356Q375 284 378.50 252.50Q382 221 394 207Q409 190 431 190Q452 190 467 205Q483 221 483 262L525 262Z"  horiz-adv-x="862" vert-adv-y="1000"  />

      
      <glyph glyph-name="uniaa" unicode="&#xaa;" d="M246 320L201 320L201 353Q194 341 178 328Q157 314 128 314Q89 314 61 342Q33 372 33 429Q33 484 72 518Q100 543 152 543L198 543L198 609Q198 638 183.50 656.50Q169 675 142 675Q119 675 103 659Q86 641 86 603L39 603Q39 659 69 689Q96 716 142 716Q188 716 216 688Q246 658 246 606L246 320M198 431L198 506L153 506Q122 506 105 491Q81 467 81 430Q81 355 139 355Q165 355 181.50 376.50Q198 398 198 431Z"  horiz-adv-x="297" vert-adv-y="1000"  />

      
      <glyph glyph-name="uniab" unicode="&#xab;" d="M316 58L180 268L316 478L316 382L240 268L316 153L316 58M164 58L29 268L164 478L164 382L89 268L164 153L164 58Z"  horiz-adv-x="371" vert-adv-y="1000"  />

      
      <glyph glyph-name="uniac" unicode="&#xac;" d="M381 151L328 151L328 255L50 255L50 308L381 308L381 151Z"  horiz-adv-x="431" vert-adv-y="1000"  />

      
      <glyph glyph-name="uniad" unicode="&#xad;" d="M246 251L55 251L55 304L246 304L246 251Z"  horiz-adv-x="301" vert-adv-y="1000"  />

      
      <glyph glyph-name="uniae" unicode="&#xae;" d="M687 612Q687 612 740 559Q793 506 793 356Q793 206 687 100Q581-6 431-6Q281-6 175 100Q69 206 69 356Q69 506 175 612Q281 718 431 718Q581 718 687 612M654.50 129Q654.50 129 700.75 176Q747 223 747 356Q747 489 654.50 583Q562 677 431 677Q300 677 207 583Q114 489 114 356Q114 223 207 129Q300 35 431 35Q562 35 654.50 129M543 157L498 157L444 331L386 331L386 157L343 157L343 556L441 556Q480 556 505 533Q531 507 531 443Q531 406 525.50 387.50Q520 369 505 354Q498 347 484 340L543 157M474 383Q489 399 489 443Q489 487 474 503Q461 516 442 516L386 516L386 370L442 370Q461 370 474 383Z"  horiz-adv-x="862" vert-adv-y="1000"  />

      
      <glyph glyph-name="uniaf" unicode="&#xaf;" d="M283 611L71 611L71 656L283 656L283 611Z"  horiz-adv-x="354" vert-adv-y="1000"  />

      
      <glyph glyph-name="unib0" unicode="&#xb0;" d="M287 680.50Q287 680.50 307 660.75Q327 641 327 585Q327 529 287 489Q247 449 191 449Q135 449 95.50 489Q56 529 56 585Q56 641 95.50 680.50Q135 720 191 720Q247 720 287 680.50M277 585Q277 622 252.50 647Q228 672 191 672Q154 672 129.50 647Q105 622 105 585Q105 547 129.50 522Q154 497 191 497Q228 497 252.50 522Q277 547 277 585Z"  horiz-adv-x="382" vert-adv-y="1000"  />

      
      <glyph glyph-name="unib1" unicode="&#xb1;" d="M383 286L242 286L242 145L189 145L189 286L49 286L49 339L189 339L189 480L242 480L242 339L383 339L383 286M383 36L49 36L49 89L383 89L383 36Z"  horiz-adv-x="431" vert-adv-y="1000"  />

      
      <glyph glyph-name="unib2" unicode="&#xb2;" d="M242 285L38 285L38 322L175 540Q199 579 199 619Q199 646 182.50 662.50Q166 679 139 679Q80 679 80 610L80 592L37 592L37 609Q37 664 64 690Q93 717 139 717Q182 717 212 693Q242 669 242 619Q242 570 212 521L88 323L242 323L242 285Z"  horiz-adv-x="277" vert-adv-y="1000"  />

      
      <glyph glyph-name="unib3" unicode="&#xb3;" d="M245 399Q245 362 238.50 342Q232 322 215 306Q189 280 140 280Q92 280 63 307Q38 334 38 392L38 405L81 405L81 392Q81 348 99 333Q114 318 140 318Q167 318 182 333Q202 353 202 400Q202 448 185 468Q169 487 140 487L111 487L111 525L140 525Q163 525 180 539Q199 557 199 607Q199 649 180 665Q167 679 140 679Q113 679 98 664Q82 648 82 610L82 597L39 597L39 609Q39 666 64 690Q94 717 140 717Q186 717 214 691Q242 664 242 607Q242 559 224 535Q208 515 185 506Q212 498 227 475Q245 449 245 399Z"  horiz-adv-x="277" vert-adv-y="1000"  />

      
      <glyph glyph-name="unib4" unicode="&#xb4;" d="M273 716L198 586L149 586L215 716L273 716Z"  horiz-adv-x="354" vert-adv-y="1000"  />

      
      <glyph glyph-name="unib5" unicode="&#xb5;" d="M315 0L260 0L260 41Q250 23 231 10Q205-8 173-8Q132-8 117 13L117-204L62-204L62 509L118 509L118 125Q118 85 137.50 63.50Q157 42 188 42Q219 42 239 63.50Q259 85 259 125L259 509L315 509L315 0Z"  horiz-adv-x="378" vert-adv-y="1000"  />

      
      <glyph glyph-name="unib6" unicode="&#xb6;" d="M475-204L419-204L419 660L299 660L299-204L243-204L243 307L187 307Q46 307 46 509Q46 712 187 712L475 712L475-204Z"  horiz-adv-x="538" vert-adv-y="1000"  />

      
      <glyph glyph-name="unib7" unicode="&#xb7;" d="M191 245L68 245L68 368L191 368L191 245Z"  horiz-adv-x="259" vert-adv-y="1000"  />

      
      <glyph glyph-name="unib8" unicode="&#xb8;" d="M209-37L163-171L110-171L163-37L209-37Z"  horiz-adv-x="354" vert-adv-y="1000"  />

      
      <glyph glyph-name="unib9" unicode="&#xb9;" d="M174 285L131 285L131 664L62 617L62 664L131 712L174 712L174 285Z"  horiz-adv-x="277" vert-adv-y="1000"  />

      
      <glyph glyph-name="uniba" unicode="&#xba;" d="M223 685Q254 652 254 515Q254 378 223 345Q195 314 148 314Q100 314 72 345Q54 364 48 403Q42 442 42 515Q42 588 48 627Q54 666 72 685Q99 715 148 715Q196 715 223 685M207 515Q207 631 186 657Q173 673 148 673Q122 673 109 657Q89 632 89 515Q89 396 109 372Q122 356 148 356Q173 356 186 372Q207 398 207 515Z"  horiz-adv-x="296" vert-adv-y="1000"  />

      
      <glyph glyph-name="unibb" unicode="&#xbb;" d="M342 268L206 58L206 153L282 268L206 382L206 478L342 268M191 268L55 58L55 153L131 268L55 382L55 478L191 268Z"  horiz-adv-x="371" vert-adv-y="1000"  />

      
      <glyph glyph-name="unibc" unicode="&#xbc;" d="M174 285L131 285L131 664L62 617L62 664L131 712L174 712L174 285M501 712L254 0L207 0L454 712L501 712M682 64L650 64L650 0L607 0L607 64L459 64L459 102L584 427L627 427L503 102L607 102L607 205L650 205L650 102L682 102L682 64Z"  horiz-adv-x="708" vert-adv-y="1000"  />

      
      <glyph glyph-name="unibd" unicode="&#xbd;" d="M174 285L131 285L131 664L62 617L62 664L131 712L174 712L174 285M501 712L254 0L207 0L454 712L501 712M673 0L469 0L469 37L606 255Q630 294 630 334Q630 361 613.50 377.50Q597 394 570 394Q511 394 511 325L511 307L468 307L468 324Q468 379 495 405Q524 432 570 432Q613 432 643 408Q673 384 673 334Q673 285 643 236L519 38L673 38L673 0Z"  horiz-adv-x="708" vert-adv-y="1000"  />

      
      <glyph glyph-name="unibe" unicode="&#xbe;" d="M245 399Q245 362 238.50 342Q232 322 215 306Q189 280 140 280Q92 280 63 307Q38 334 38 392L38 405L81 405L81 392Q81 348 99 333Q114 318 140 318Q167 318 182 333Q202 353 202 400Q202 448 185 468Q169 487 140 487L111 487L111 525L140 525Q163 525 180 539Q199 557 199 607Q199 649 180 665Q167 679 140 679Q113 679 98 664Q82 648 82 610L82 597L39 597L39 609Q39 666 64 690Q94 717 140 717Q186 717 214 691Q242 664 242 607Q242 559 224 535Q208 515 185 506Q212 498 227 475Q245 449 245 399M501 712L254 0L207 0L454 712L501 712M682 64L650 64L650 0L607 0L607 64L459 64L459 102L584 427L627 427L503 102L607 102L607 205L650 205L650 102L682 102L682 64Z"  horiz-adv-x="708" vert-adv-y="1000"  />

      
      <glyph glyph-name="unibf" unicode="&#xbf;" d="M317-53Q317-134 278-172Q241-209 182-209Q119-209 83-172Q43-131 43-38Q43 31 72 77L130 170Q151 202 151 244L151 322L207 322L207 237Q207 192 183 154L125 62Q99 21 99-39Q99-107 127-137Q147-159 182-159Q214-159 235-138Q261-112 261-53L317-53M217 434L142 434L142 509L217 509L217 434Z"  horiz-adv-x="375" vert-adv-y="1000"  />

      
      <glyph glyph-name="unic0" unicode="&#xc0;" d="M374 0L311 0L272 195L106 195L68 0L4 0L163 712L218 712L374 0M261 248L189 606L118 248L261 248M219 764L170 764L95 894L154 894L219 764Z"  horiz-adv-x="379" vert-adv-y="1000"  />

      
      <glyph glyph-name="unic1" unicode="&#xc1;" d="M374 0L311 0L272 195L106 195L68 0L4 0L163 712L218 712L374 0M261 248L189 606L118 248L261 248M288 894L213 764L164 764L229 894L288 894Z"  horiz-adv-x="379" vert-adv-y="1000"  />

      
      <glyph glyph-name="unic2" unicode="&#xc2;" d="M374 0L311 0L272 195L106 195L68 0L4 0L163 712L218 712L374 0M261 248L189 606L118 248L261 248M303 764L251 764L192 856L132 764L80 764L167 894L217 894L303 764Z"  horiz-adv-x="379" vert-adv-y="1000"  />

      
      <glyph glyph-name="unic3" unicode="&#xc3;" d="M374 0L311 0L272 195L106 195L68 0L4 0L163 712L218 712L374 0M261 248L189 606L118 248L261 248M311 813Q272 775 240 775Q217 775 186 792Q161 808 144 808Q125 808 101 784L73 813Q111 851 143 851Q169 851 197 834Q224 818 239 818Q258 818 282 842L311 813Z"  horiz-adv-x="379" vert-adv-y="1000"  />

      
      <glyph glyph-name="unic4" unicode="&#xc4;" d="M374 0L311 0L272 195L106 195L68 0L4 0L163 712L218 712L374 0M261 248L189 606L118 248L261 248M292 784L229 784L229 847L292 847L292 784M154 784L91 784L91 847L154 847L154 784Z"  horiz-adv-x="379" vert-adv-y="1000"  />

      
      <glyph glyph-name="unic5" unicode="&#xc5;" d="M374 0L311 0L272 195L106 195L68 0L4 0L163 712L218 712L374 0M261 248L189 606L118 248L261 248M256 906Q256 906 269.50 892.50Q283 879 283 842Q283 805 256 778Q229 751 192 751Q154 751 127.50 777.50Q101 804 101 842Q101 880 127.50 906.50Q154 933 192 933Q229 933 256 906M228.50 804.50Q228.50 804.50 236.25 812.25Q244 820 244 842Q244 864 228.50 879Q213 894 192 894Q170 894 154.50 879Q139 864 139 842Q139 820 154.50 804.50Q170 789 192 789Q213 789 228.50 804.50Z"  horiz-adv-x="379" vert-adv-y="1000"  />

      
      <glyph glyph-name="unic6" unicode="&#xc6;" d="M558 0L309 0L309 197L141 197L69 0L5 0L270 712L558 712L558 659L368 659L368 383L532 383L532 330L368 330L368 53L558 53L558 0M309 250L309 660L160 250L309 250Z"  horiz-adv-x="604" vert-adv-y="1000"  />

      
      <glyph glyph-name="unic7" unicode="&#xc7;" d="M358 163Q356 70 308 26Q271-8 210-8Q143-8 104 34Q72 68 63 126.50Q54 185 54 356Q54 527 63 585.50Q72 644 104 678Q143 720 210 720Q274 720 312 682Q356 638 358 549L299 549Q299 614 271 643Q249 667 210 667Q170 667 147 641Q125 616 119 564.50Q113 513 113 356Q113 199 119 147.50Q125 96 147 71Q170 45 210 45Q249 45 271 69Q299 98 299 163L358 163M236-37L190-171L137-171L190-37L236-37Z"  horiz-adv-x="399" vert-adv-y="1000"  />

      
      <glyph glyph-name="unic8" unicode="&#xc8;" d="M317 0L69 0L69 712L317 712L317 659L128 659L128 383L291 383L291 330L128 330L128 53L317 53L317 0M225 764L176 764L101 894L160 894L225 764Z"  horiz-adv-x="364" vert-adv-y="1000"  />

      
      <glyph glyph-name="unic9" unicode="&#xc9;" d="M317 0L69 0L69 712L317 712L317 659L128 659L128 383L291 383L291 330L128 330L128 53L317 53L317 0M294 894L219 764L170 764L235 894L294 894Z"  horiz-adv-x="364" vert-adv-y="1000"  />

      
      <glyph glyph-name="unica" unicode="&#xca;" d="M317 0L69 0L69 712L317 712L317 659L128 659L128 383L291 383L291 330L128 330L128 53L317 53L317 0M309 764L257 764L198 856L138 764L86 764L173 894L223 894L309 764Z"  horiz-adv-x="364" vert-adv-y="1000"  />

      
      <glyph glyph-name="unicb" unicode="&#xcb;" d="M317 0L69 0L69 712L317 712L317 659L128 659L128 383L291 383L291 330L128 330L128 53L317 53L317 0M298 784L235 784L235 847L298 847L298 784M160 784L97 784L97 847L160 847L160 784Z"  horiz-adv-x="364" vert-adv-y="1000"  />

      
      <glyph glyph-name="unicc" unicode="&#xcc;" d="M128 0L69 0L69 712L128 712L128 0M126 764L77 764L2 894L61 894L126 764Z"  horiz-adv-x="197" vert-adv-y="1000"  />

      
      <glyph glyph-name="unicd" unicode="&#xcd;" d="M128 0L69 0L69 712L128 712L128 0M195 894L120 764L71 764L136 894L195 894Z"  horiz-adv-x="197" vert-adv-y="1000"  />

      
      <glyph glyph-name="unice" unicode="&#xce;" d="M128 0L69 0L69 712L128 712L128 0M210 764L158 764L99 856L39 764L-13 764L74 894L124 894L210 764Z"  horiz-adv-x="197" vert-adv-y="1000"  />

      
      <glyph glyph-name="unicf" unicode="&#xcf;" d="M128 0L69 0L69 712L128 712L128 0M199 784L136 784L136 847L199 847L199 784M61 784L-2 784L-2 847L61 847L61 784Z"  horiz-adv-x="197" vert-adv-y="1000"  />

      
      <glyph glyph-name="unid0" unicode="&#xd0;" d="M366.50 579.50Q366.50 579.50 370.75 550.75Q375 522 375 356Q375 190 366.50 132.50Q358 75 325 41Q286 0 220 0L73 0L73 332L20 332L20 381L73 381L73 712L220 712Q286 712 325 671Q358 637 366.50 579.50M310 152Q310 152 313 176.50Q316 201 316 356Q316 511 310 560Q304 609 281 634Q258 659 217 659L132 659L132 381L223 381L223 332L132 332L132 53L217 53Q258 53 281 78Q304 103 310 152Z"  horiz-adv-x="429" vert-adv-y="1000"  />

      
      <glyph glyph-name="unid1" unicode="&#xd1;" d="M385 0L327 0L128 555L128 0L69 0L69 712L128 712L326 157L326 712L385 712L385 0M346 813Q307 775 275 775Q252 775 221 792Q196 808 179 808Q160 808 136 784L108 813Q146 851 178 851Q204 851 232 834Q259 818 274 818Q293 818 317 842L346 813Z"  horiz-adv-x="454" vert-adv-y="1000"  />

      
      <glyph glyph-name="unid2" unicode="&#xd2;" d="M358 585.50Q358 585.50 362.50 556.25Q367 527 367 356Q367 185 358 126.50Q349 68 317 34Q278-8 210-8Q143-8 104 34Q72 68 63 126.50Q54 185 54 356Q54 527 63 585.50Q72 644 104 678Q143 720 210 720Q278 720 317 678Q349 644 358 585.50M302 147.50Q302 147.50 305 173.25Q308 199 308 356Q308 513 302 564.50Q296 616 274 641Q251 667 210 667Q170 667 147 641Q125 616 119 564.50Q113 513 113 356Q113 199 119 147.50Q125 96 147 71Q170 45 210 45Q251 45 274 71Q296 96 302 147.50M238 764L189 764L114 894L173 894L238 764Z"  horiz-adv-x="421" vert-adv-y="1000"  />

      
      <glyph glyph-name="unid3" unicode="&#xd3;" d="M358 585.50Q358 585.50 362.50 556.25Q367 527 367 356Q367 185 358 126.50Q349 68 317 34Q278-8 210-8Q143-8 104 34Q72 68 63 126.50Q54 185 54 356Q54 527 63 585.50Q72 644 104 678Q143 720 210 720Q278 720 317 678Q349 644 358 585.50M302 147.50Q302 147.50 305 173.25Q308 199 308 356Q308 513 302 564.50Q296 616 274 641Q251 667 210 667Q170 667 147 641Q125 616 119 564.50Q113 513 113 356Q113 199 119 147.50Q125 96 147 71Q170 45 210 45Q251 45 274 71Q296 96 302 147.50M307 894L232 764L183 764L248 894L307 894Z"  horiz-adv-x="421" vert-adv-y="1000"  />

      
      <glyph glyph-name="unid4" unicode="&#xd4;" d="M358 585.50Q358 585.50 362.50 556.25Q367 527 367 356Q367 185 358 126.50Q349 68 317 34Q278-8 210-8Q143-8 104 34Q72 68 63 126.50Q54 185 54 356Q54 527 63 585.50Q72 644 104 678Q143 720 210 720Q278 720 317 678Q349 644 358 585.50M302 147.50Q302 147.50 305 173.25Q308 199 308 356Q308 513 302 564.50Q296 616 274 641Q251 667 210 667Q170 667 147 641Q125 616 119 564.50Q113 513 113 356Q113 199 119 147.50Q125 96 147 71Q170 45 210 45Q251 45 274 71Q296 96 302 147.50M322 764L270 764L211 856L151 764L99 764L186 894L236 894L322 764Z"  horiz-adv-x="421" vert-adv-y="1000"  />

      
      <glyph glyph-name="unid5" unicode="&#xd5;" d="M358 585.50Q358 585.50 362.50 556.25Q367 527 367 356Q367 185 358 126.50Q349 68 317 34Q278-8 210-8Q143-8 104 34Q72 68 63 126.50Q54 185 54 356Q54 527 63 585.50Q72 644 104 678Q143 720 210 720Q278 720 317 678Q349 644 358 585.50M302 147.50Q302 147.50 305 173.25Q308 199 308 356Q308 513 302 564.50Q296 616 274 641Q251 667 210 667Q170 667 147 641Q125 616 119 564.50Q113 513 113 356Q113 199 119 147.50Q125 96 147 71Q170 45 210 45Q251 45 274 71Q296 96 302 147.50M330 813Q291 775 259 775Q236 775 205 792Q180 808 163 808Q144 808 120 784L92 813Q130 851 162 851Q188 851 216 834Q243 818 258 818Q277 818 301 842L330 813Z"  horiz-adv-x="421" vert-adv-y="1000"  />

      
      <glyph glyph-name="unid6" unicode="&#xd6;" d="M358 585.50Q358 585.50 362.50 556.25Q367 527 367 356Q367 185 358 126.50Q349 68 317 34Q278-8 210-8Q143-8 104 34Q72 68 63 126.50Q54 185 54 356Q54 527 63 585.50Q72 644 104 678Q143 720 210 720Q278 720 317 678Q349 644 358 585.50M302 147.50Q302 147.50 305 173.25Q308 199 308 356Q308 513 302 564.50Q296 616 274 641Q251 667 210 667Q170 667 147 641Q125 616 119 564.50Q113 513 113 356Q113 199 119 147.50Q125 96 147 71Q170 45 210 45Q251 45 274 71Q296 96 302 147.50M311 784L248 784L248 847L311 847L311 784M173 784L110 784L110 847L173 847L173 784Z"  horiz-adv-x="421" vert-adv-y="1000"  />

      
      <glyph glyph-name="unid7" unicode="&#xd7;" d="M370 152L333 115L216 233L98 115L62 152L179 269L62 387L98 423L216 306L333 423L370 387L252 269L370 152Z"  horiz-adv-x="431" vert-adv-y="1000"  />

      
      <glyph glyph-name="unid8" unicode="&#xd8;" d="M367 356Q367 185 358 126.50Q349 68 317 34Q278-8 210-8Q165-8 131 12L114-44L64-44L93 46Q68 78 61 138.50Q54 199 54 356Q54 527 63 585.50Q72 644 104 678Q143 720 210 720Q257 720 290 699L307 756L357 756L329 665Q353 633 360 572.50Q367 512 367 356M272 644Q251 667 210 667Q170 667 147 641Q125 616 119 564.50Q113 513 113 356Q113 172 124 130L272 644M308 356Q308 537 298 581L149 68Q169 45 210 45Q251 45 274 71Q296 96 302 147.50Q308 199 308 356Z"  horiz-adv-x="405" vert-adv-y="1000"  />

      
      <glyph glyph-name="unid9" unicode="&#xd9;" d="M356 148Q356 75 314 33Q271-8 209-8Q147-8 104 33Q61 76 61 148L61 712L120 712L120 143Q120 98 145.50 71.50Q171 45 209 45Q247 45 272 71.50Q297 98 297 143L297 712L356 712L356 148M237 764L188 764L113 894L172 894L237 764Z"  horiz-adv-x="417" vert-adv-y="1000"  />

      
      <glyph glyph-name="unida" unicode="&#xda;" d="M356 148Q356 75 314 33Q271-8 209-8Q147-8 104 33Q61 76 61 148L61 712L120 712L120 143Q120 98 145.50 71.50Q171 45 209 45Q247 45 272 71.50Q297 98 297 143L297 712L356 712L356 148M306 894L231 764L182 764L247 894L306 894Z"  horiz-adv-x="417" vert-adv-y="1000"  />

      
      <glyph glyph-name="unidb" unicode="&#xdb;" d="M356 148Q356 75 314 33Q271-8 209-8Q147-8 104 33Q61 76 61 148L61 712L120 712L120 143Q120 98 145.50 71.50Q171 45 209 45Q247 45 272 71.50Q297 98 297 143L297 712L356 712L356 148M321 764L269 764L210 856L150 764L98 764L185 894L235 894L321 764Z"  horiz-adv-x="417" vert-adv-y="1000"  />

      
      <glyph glyph-name="unidc" unicode="&#xdc;" d="M356 148Q356 75 314 33Q271-8 209-8Q147-8 104 33Q61 76 61 148L61 712L120 712L120 143Q120 98 145.50 71.50Q171 45 209 45Q247 45 272 71.50Q297 98 297 143L297 712L356 712L356 148M310 784L247 784L247 847L310 847L310 784M172 784L109 784L109 847L172 847L172 784Z"  horiz-adv-x="417" vert-adv-y="1000"  />

      
      <glyph glyph-name="unidd" unicode="&#xdd;" d="M312 712L187 298L187 0L128 0L128 298L3 712L68 712L157 386L247 712L312 712M257 894L182 764L133 764L198 894L257 894Z"  horiz-adv-x="315" vert-adv-y="1000"  />

      
      <glyph glyph-name="unide" unicode="&#xde;" d="M322.50 516.50Q322.50 516.50 342.75 495.75Q363 475 363 360Q363 245 322.50 203Q282 161 209 161L128 161L128 0L69 0L69 712L128 712L128 558L209 558Q282 558 322.50 516.50M279.50 244.50Q279.50 244.50 291.75 259.75Q304 275 304 359Q304 443 279.50 474Q255 505 207 505L128 505L128 214L207 214Q255 214 279.50 244.50Z"  horiz-adv-x="409" vert-adv-y="1000"  />

      
      <glyph glyph-name="unidf" unicode="&#xdf;" d="M328 224Q328 141 321 100.50Q314 60 288 34Q254 0 189 0L189 50Q227 50 248 71Q272 95 272 227Q272 353 248 380Q230 402 198 402L189 402L189 450L196 450Q222 450 238 469Q262 496 262 562Q262 623 240 649Q220 670 189 670Q158 670 138 648Q118 626 118 586L118 0L62 0L62 584Q62 649 98 685Q135 720 189 720Q246 720 280 686Q302 663 310 636.50Q318 610 318 564Q318 499 299 465Q286 443 265 429Q282 421 295 404Q315 382 321.50 346Q328 310 328 224Z"  horiz-adv-x="373" vert-adv-y="1000"  />

      
      <glyph glyph-name="unie0" unicode="&#xe0;" d="M294 0L240 0L240 46Q230 26 212 12Q185-8 151-8Q103-8 70 26Q37 61 37 141Q37 217 80 256Q117 290 180 290L238 290L238 381Q238 468 168 468Q141 468 122 449Q99 425 99 378L43 378Q43 446 80 483Q114 517 168 517Q229 517 259 485Q294 448 294 379L294 0M238 134L238 246L182 246Q143 246 120 224Q93 197 93 142Q93 42 164 42Q197 42 217.50 68Q238 94 238 134M202 586L153 586L78 716L136 716L202 586Z"  horiz-adv-x="352" vert-adv-y="1000"  />

      
      <glyph glyph-name="unie1" unicode="&#xe1;" d="M294 0L240 0L240 46Q230 26 212 12Q185-8 151-8Q103-8 70 26Q37 61 37 141Q37 217 80 256Q117 290 180 290L238 290L238 381Q238 468 168 468Q141 468 122 449Q99 425 99 378L43 378Q43 446 80 483Q114 517 168 517Q229 517 259 485Q294 448 294 379L294 0M238 134L238 246L182 246Q143 246 120 224Q93 197 93 142Q93 42 164 42Q197 42 217.50 68Q238 94 238 134M268 716L194 586L145 586L210 716L268 716Z"  horiz-adv-x="352" vert-adv-y="1000"  />

      
      <glyph glyph-name="unie2" unicode="&#xe2;" d="M294 0L240 0L240 46Q230 26 212 12Q185-8 151-8Q103-8 70 26Q37 61 37 141Q37 217 80 256Q117 290 180 290L238 290L238 381Q238 468 168 468Q141 468 122 449Q99 425 99 378L43 378Q43 446 80 483Q114 517 168 517Q229 517 259 485Q294 448 294 379L294 0M238 134L238 246L182 246Q143 246 120 224Q93 197 93 142Q93 42 164 42Q197 42 217.50 68Q238 94 238 134M283 586L232 586L172 678L112 586L60 586L147 716L197 716L283 586Z"  horiz-adv-x="352" vert-adv-y="1000"  />

      
      <glyph glyph-name="unie3" unicode="&#xe3;" d="M294 0L240 0L240 46Q230 26 212 12Q185-8 151-8Q103-8 70 26Q37 61 37 141Q37 217 80 256Q117 290 180 290L238 290L238 381Q238 468 168 468Q141 468 122 449Q99 425 99 378L43 378Q43 446 80 483Q114 517 168 517Q229 517 259 485Q294 448 294 379L294 0M238 134L238 246L182 246Q143 246 120 224Q93 197 93 142Q93 42 164 42Q197 42 217.50 68Q238 94 238 134M292 635Q253 597 221 597Q198 597 167 614Q142 630 125 630Q106 630 82 606L54 635Q92 673 124 673Q150 673 178 656Q205 640 220 640Q239 640 263 664L292 635Z"  horiz-adv-x="352" vert-adv-y="1000"  />

      
      <glyph glyph-name="unie4" unicode="&#xe4;" d="M294 0L240 0L240 46Q230 26 212 12Q185-8 151-8Q103-8 70 26Q37 61 37 141Q37 217 80 256Q117 290 180 290L238 290L238 381Q238 468 168 468Q141 468 122 449Q99 425 99 378L43 378Q43 446 80 483Q114 517 168 517Q229 517 259 485Q294 448 294 379L294 0M238 134L238 246L182 246Q143 246 120 224Q93 197 93 142Q93 42 164 42Q197 42 217.50 68Q238 94 238 134M272 606L209 606L209 669L272 669L272 606M135 606L71 606L71 669L135 669L135 606Z"  horiz-adv-x="352" vert-adv-y="1000"  />

      
      <glyph glyph-name="unie5" unicode="&#xe5;" d="M294 0L240 0L240 46Q230 26 212 12Q185-8 151-8Q103-8 70 26Q37 61 37 141Q37 217 80 256Q117 290 180 290L238 290L238 381Q238 468 168 468Q141 468 122 449Q99 425 99 378L43 378Q43 446 80 483Q114 517 168 517Q229 517 259 485Q294 448 294 379L294 0M238 134L238 246L182 246Q143 246 120 224Q93 197 93 142Q93 42 164 42Q197 42 217.50 68Q238 94 238 134M236.50 736.50Q236.50 736.50 249.75 723.25Q263 710 263 672Q263 634 236.50 607.50Q210 581 172 581Q134 581 107.50 607.50Q81 634 81 672Q81 710 107.50 736.50Q134 763 172 763Q210 763 236.50 736.50M224 672Q224 694 208.50 709.50Q193 725 172 725Q150 725 134.50 709.50Q119 694 119 672Q119 651 134.50 635.50Q150 620 172 620Q193 620 208.50 635.50Q224 651 224 672Z"  horiz-adv-x="352" vert-adv-y="1000"  />

      
      <glyph glyph-name="unie6" unicode="&#xe6;" d="M502 246L294 246Q294 163 299 123.50Q304 84 320 65Q339 42 372 42Q403 42 423 62Q445 84 445 134L500 134Q500 65 463 27Q429-8 372-8Q321-8 289 22Q269 42 258 67Q244 31 222 15Q192-8 151-8Q103-8 70 26Q37 61 37 141Q37 217 80 256Q117 290 180 290L238 290L238 381Q238 468 168 468Q139 468 122 449Q99 426 99 378L43 378Q43 446 80 483Q114 517 168 517Q222 517 252 489Q263 478 270 464Q277 475 285 483Q317 517 370 517Q427 517 461 480Q485 453 493.50 401Q502 349 502 246M238 134L238 246L182 246Q142 246 120 224Q93 199 93 142Q93 42 164 42Q197 42 217.50 68Q238 94 238 134M446 291Q445 361 440 394.50Q435 428 420 444Q401 467 370 467Q338 467 319 444Q295 417 294 291L446 291Z"  horiz-adv-x="544" vert-adv-y="1000"  />

      
      <glyph glyph-name="unie7" unicode="&#xe7;" d="M303 134Q301 59 267 25Q234-8 177-8Q117-8 83 32Q61 58 53 108.50Q45 159 45 254Q45 349 53 399.50Q61 450 83 476Q116 517 177 517Q235 517 267 485Q301 452 303 374L248 374Q248 425 228 446Q210 467 178 467Q144 467 126 444Q110 424 105.50 383Q101 342 101 254Q101 166 105.50 125.50Q110 85 126 65Q144 42 178 42Q207 42 227 62Q248 84 248 134L303 134M209-37L163-171L110-171L163-37L209-37Z"  horiz-adv-x="340" vert-adv-y="1000"  />

      
      <glyph glyph-name="unie8" unicode="&#xe8;" d="M309 246L101 246Q101 161 106 122Q111 83 127 65Q146 42 178 42Q211 42 230 62Q252 85 252 134L307 134Q307 65 270 27Q236-8 178-8Q121-8 86 29Q62 55 53.50 106.50Q45 158 45 254Q45 352 53.50 403Q62 454 86 480Q120 517 177 517Q234 517 268 480Q292 453 300.50 401Q309 349 309 246M253 291Q252 416 227 444Q208 467 177 467Q145 467 126 444Q102 417 101 291L253 291M207 586L158 586L83 716L141 716L207 586Z"  horiz-adv-x="349" vert-adv-y="1000"  />

      
      <glyph glyph-name="unie9" unicode="&#xe9;" d="M309 246L101 246Q101 161 106 122Q111 83 127 65Q146 42 178 42Q211 42 230 62Q252 85 252 134L307 134Q307 65 270 27Q236-8 178-8Q121-8 86 29Q62 55 53.50 106.50Q45 158 45 254Q45 352 53.50 403Q62 454 86 480Q120 517 177 517Q234 517 268 480Q292 453 300.50 401Q309 349 309 246M253 291Q252 416 227 444Q208 467 177 467Q145 467 126 444Q102 417 101 291L253 291M273 716L199 586L150 586L215 716L273 716Z"  horiz-adv-x="349" vert-adv-y="1000"  />

      
      <glyph glyph-name="uniea" unicode="&#xea;" d="M309 246L101 246Q101 161 106 122Q111 83 127 65Q146 42 178 42Q211 42 230 62Q252 85 252 134L307 134Q307 65 270 27Q236-8 178-8Q121-8 86 29Q62 55 53.50 106.50Q45 158 45 254Q45 352 53.50 403Q62 454 86 480Q120 517 177 517Q234 517 268 480Q292 453 300.50 401Q309 349 309 246M253 291Q252 416 227 444Q208 467 177 467Q145 467 126 444Q102 417 101 291L253 291M288 586L237 586L177 678L117 586L65 586L152 716L202 716L288 586Z"  horiz-adv-x="349" vert-adv-y="1000"  />

      
      <glyph glyph-name="unieb" unicode="&#xeb;" d="M309 246L101 246Q101 161 106 122Q111 83 127 65Q146 42 178 42Q211 42 230 62Q252 85 252 134L307 134Q307 65 270 27Q236-8 178-8Q121-8 86 29Q62 55 53.50 106.50Q45 158 45 254Q45 352 53.50 403Q62 454 86 480Q120 517 177 517Q234 517 268 480Q292 453 300.50 401Q309 349 309 246M253 291Q252 416 227 444Q208 467 177 467Q145 467 126 444Q102 417 101 291L253 291M277 606L214 606L214 669L277 669L277 606M140 606L76 606L76 669L140 669L140 606Z"  horiz-adv-x="349" vert-adv-y="1000"  />

      
      <glyph glyph-name="uniec" unicode="&#xec;" d="M119 0L63 0L63 509L119 509L119 0M119 586L70 586L-5 716L53 716L119 586Z"  horiz-adv-x="181" vert-adv-y="1000"  />

      
      <glyph glyph-name="unied" unicode="&#xed;" d="M119 0L63 0L63 509L119 509L119 0M187 716L113 586L64 586L129 716L187 716Z"  horiz-adv-x="181" vert-adv-y="1000"  />

      
      <glyph glyph-name="uniee" unicode="&#xee;" d="M119 0L63 0L63 509L119 509L119 0M202 586L151 586L91 678L31 586L-21 586L66 716L116 716L202 586Z"  horiz-adv-x="181" vert-adv-y="1000"  />

      
      <glyph glyph-name="unief" unicode="&#xef;" d="M119 0L63 0L63 509L119 509L119 0M191 606L128 606L128 669L191 669L191 606M54 606L-10 606L-10 669L54 669L54 606Z"  horiz-adv-x="181" vert-adv-y="1000"  />

      
      <glyph glyph-name="unif0" unicode="&#xf0;" d="M309 249Q309 155 301 106Q293 57 271 31Q238-8 177-8Q116-8 83 31Q61 57 53 106Q45 155 45 249Q45 347 53 396Q61 445 83 470Q115 505 168 505Q201 505 223 491L191 582L109 582L109 626L176 626L143 712L200 712L232 626L304 626L304 582L247 582L286 467Q309 397 309 249M248.50 122Q248.50 122 250.75 141.50Q253 161 253 250Q253 339 248.50 377.50Q244 416 228 435Q209 457 177 457Q146 457 127 435Q111 416 106 376.50Q101 337 101 250Q101 163 106 123Q111 83 127 64Q146 42 177 42Q209 42 228 64Q244 83 248.50 122Z"  horiz-adv-x="355" vert-adv-y="1000"  />

      
      <glyph glyph-name="unif1" unicode="&#xf1;" d="M315 0L259 0L259 383Q259 423 239.50 444.50Q220 466 189 466Q158 466 138 444.50Q118 423 118 383L118 0L62 0L62 509L117 509L117 468Q127 486 146 499Q172 517 204 517Q251 517 284 482Q315 449 315 382L315 0M310 635Q271 597 239 597Q216 597 185 614Q160 630 143 630Q124 630 100 606L72 635Q110 673 142 673Q168 673 196 656Q223 640 238 640Q257 640 281 664L310 635Z"  horiz-adv-x="373" vert-adv-y="1000"  />

      
      <glyph glyph-name="unif2" unicode="&#xf2;" d="M301 399Q301 399 305 374Q309 349 309 254Q309 159 301 109Q293 59 271 32Q238-8 177-8Q116-8 83 32Q61 59 53 109Q45 159 45 254Q45 349 53 399Q61 449 83 476Q116 517 177 517Q238 517 271 476Q293 449 301 399M248 125Q248 125 250.50 145Q253 165 253 254Q253 343 248 383.50Q243 424 227 444Q208 467 177 467Q145 467 126 444Q110 424 105.50 384Q101 344 101 254Q101 164 105.50 124.50Q110 85 126 65Q145 42 177 42Q208 42 227 65Q243 85 248 125M207 586L158 586L83 716L141 716L207 586Z"  horiz-adv-x="353" vert-adv-y="1000"  />

      
      <glyph glyph-name="unif3" unicode="&#xf3;" d="M301 399Q301 399 305 374Q309 349 309 254Q309 159 301 109Q293 59 271 32Q238-8 177-8Q116-8 83 32Q61 59 53 109Q45 159 45 254Q45 349 53 399Q61 449 83 476Q116 517 177 517Q238 517 271 476Q293 449 301 399M248 125Q248 125 250.50 145Q253 165 253 254Q253 343 248 383.50Q243 424 227 444Q208 467 177 467Q145 467 126 444Q110 424 105.50 384Q101 344 101 254Q101 164 105.50 124.50Q110 85 126 65Q145 42 177 42Q208 42 227 65Q243 85 248 125M273 716L199 586L150 586L215 716L273 716Z"  horiz-adv-x="353" vert-adv-y="1000"  />

      
      <glyph glyph-name="unif4" unicode="&#xf4;" d="M301 399Q301 399 305 374Q309 349 309 254Q309 159 301 109Q293 59 271 32Q238-8 177-8Q116-8 83 32Q61 59 53 109Q45 159 45 254Q45 349 53 399Q61 449 83 476Q116 517 177 517Q238 517 271 476Q293 449 301 399M248 125Q248 125 250.50 145Q253 165 253 254Q253 343 248 383.50Q243 424 227 444Q208 467 177 467Q145 467 126 444Q110 424 105.50 384Q101 344 101 254Q101 164 105.50 124.50Q110 85 126 65Q145 42 177 42Q208 42 227 65Q243 85 248 125M288 586L237 586L177 678L117 586L65 586L152 716L202 716L288 586Z"  horiz-adv-x="353" vert-adv-y="1000"  />

      
      <glyph glyph-name="unif5" unicode="&#xf5;" d="M301 399Q301 399 305 374Q309 349 309 254Q309 159 301 109Q293 59 271 32Q238-8 177-8Q116-8 83 32Q61 59 53 109Q45 159 45 254Q45 349 53 399Q61 449 83 476Q116 517 177 517Q238 517 271 476Q293 449 301 399M248 125Q248 125 250.50 145Q253 165 253 254Q253 343 248 383.50Q243 424 227 444Q208 467 177 467Q145 467 126 444Q110 424 105.50 384Q101 344 101 254Q101 164 105.50 124.50Q110 85 126 65Q145 42 177 42Q208 42 227 65Q243 85 248 125M297 635Q258 597 226 597Q203 597 172 614Q147 630 130 630Q111 630 87 606L59 635Q97 673 129 673Q155 673 183 656Q210 640 225 640Q244 640 268 664L297 635Z"  horiz-adv-x="353" vert-adv-y="1000"  />

      
      <glyph glyph-name="unif6" unicode="&#xf6;" d="M301 399Q301 399 305 374Q309 349 309 254Q309 159 301 109Q293 59 271 32Q238-8 177-8Q116-8 83 32Q61 59 53 109Q45 159 45 254Q45 349 53 399Q61 449 83 476Q116 517 177 517Q238 517 271 476Q293 449 301 399M248 125Q248 125 250.50 145Q253 165 253 254Q253 343 248 383.50Q243 424 227 444Q208 467 177 467Q145 467 126 444Q110 424 105.50 384Q101 344 101 254Q101 164 105.50 124.50Q110 85 126 65Q145 42 177 42Q208 42 227 65Q243 85 248 125M277 606L214 606L214 669L277 669L277 606M140 606L76 606L76 669L140 669L140 606Z"  horiz-adv-x="353" vert-adv-y="1000"  />

      
      <glyph glyph-name="unif7" unicode="&#xf7;" d="M383 248L49 248L49 301L383 301L383 248M254 89L179 89L179 165L254 165L254 89M254 384L179 384L179 459L254 459L254 384Z"  horiz-adv-x="431" vert-adv-y="1000"  />

      
      <glyph glyph-name="unif8" unicode="&#xf8;" d="M311 553L279 466Q309 418 309 254Q309 159 301 109Q293 59 271 32Q238-8 177-8Q135-8 108 10L88-44L42-44L75 43Q45 91 45 254Q45 349 53 399Q61 449 83 476Q116 517 177 517Q216 517 245 498L265 553L311 553M226 447Q207 468 177 468Q144 468 126 445Q110 425 105.50 385Q101 345 101 254Q101 150 109 119L226 447M253 254Q253 359 245 390L128 61Q146 41 177 41Q209 41 227 64Q243 84 248 124.50Q253 165 253 254Z"  horiz-adv-x="347" vert-adv-y="1000"  />

      
      <glyph glyph-name="unif9" unicode="&#xf9;" d="M311 0L256 0L256 41Q246 23 227 10Q201-8 169-8Q121-8 89 26Q58 59 58 127L58 509L114 509L114 126Q114 86 133.50 64.50Q153 43 184 43Q215 43 235 64.50Q255 86 255 126L255 509L311 509L311 0M214 586L165 586L90 716L148 716L214 586Z"  horiz-adv-x="373" vert-adv-y="1000"  />

      
      <glyph glyph-name="unifa" unicode="&#xfa;" d="M311 0L256 0L256 41Q246 23 227 10Q201-8 169-8Q121-8 89 26Q58 59 58 127L58 509L114 509L114 126Q114 86 133.50 64.50Q153 43 184 43Q215 43 235 64.50Q255 86 255 126L255 509L311 509L311 0M280 716L206 586L157 586L222 716L280 716Z"  horiz-adv-x="373" vert-adv-y="1000"  />

      
      <glyph glyph-name="unifb" unicode="&#xfb;" d="M311 0L256 0L256 41Q246 23 227 10Q201-8 169-8Q121-8 89 26Q58 59 58 127L58 509L114 509L114 126Q114 86 133.50 64.50Q153 43 184 43Q215 43 235 64.50Q255 86 255 126L255 509L311 509L311 0M295 586L244 586L184 678L124 586L72 586L159 716L209 716L295 586Z"  horiz-adv-x="373" vert-adv-y="1000"  />

      
      <glyph glyph-name="unifc" unicode="&#xfc;" d="M311 0L256 0L256 41Q246 23 227 10Q201-8 169-8Q121-8 89 26Q58 59 58 127L58 509L114 509L114 126Q114 86 133.50 64.50Q153 43 184 43Q215 43 235 64.50Q255 86 255 126L255 509L311 509L311 0M284 606L221 606L221 669L284 669L284 606M147 606L83 606L83 669L147 669L147 606Z"  horiz-adv-x="373" vert-adv-y="1000"  />

      
      <glyph glyph-name="unifd" unicode="&#xfd;" d="M301 509L157-99Q143-156 106.50-179.50Q70-203 9-203L9-153Q85-153 102-88L125 2L4 509L66 509L153 89L240 509L301 509M254 716L180 586L131 586L196 716L254 716Z"  horiz-adv-x="308" vert-adv-y="1000"  />

      
      <glyph glyph-name="unife" unicode="&#xfe;" d="M321 254Q321 155 313 104Q305 53 283 28Q252-8 204-8Q171-8 146 8Q130 17 119 38L119-203L63-203L63 712L118 712L118 468Q126 486 146 499Q172 517 204 517Q251 517 283 481Q305 455 313 404.50Q321 354 321 254M260 122.50Q260 122.50 262.50 142.25Q265 162 265 254Q265 346 260 385.50Q255 425 239 444Q220 467 191 467Q163 467 142 448Q119 425 119 378L119 131Q119 84 142 61Q163 42 191 42Q220 42 239 64Q255 83 260 122.50Z"  horiz-adv-x="366" vert-adv-y="1000"  />

      
      <glyph glyph-name="uniff" unicode="&#xff;" d="M301 509L157-99Q143-156 106.50-179.50Q70-203 9-203L9-153Q85-153 102-88L125 2L4 509L66 509L153 89L240 509L301 509M258 606L195 606L195 669L258 669L258 606M121 606L57 606L57 669L121 669L121 606Z"  horiz-adv-x="308" vert-adv-y="1000"  />

      
      <glyph glyph-name="uni0100" unicode="&#x0100;" d="M374 0L311 0L272 195L106 195L68 0L4 0L163 712L218 712L374 0M261 248L189 606L118 248L261 248M298 785L86 785L86 830L298 830L298 785Z"  horiz-adv-x="379" vert-adv-y="1000"  />

      
      <glyph glyph-name="uni0101" unicode="&#x0101;" d="M294 0L240 0L240 46Q230 26 212 12Q185-8 151-8Q103-8 70 26Q37 61 37 141Q37 217 80 256Q117 290 180 290L238 290L238 381Q238 468 168 468Q141 468 122 449Q99 425 99 378L43 378Q43 446 80 483Q114 517 168 517Q229 517 259 485Q294 448 294 379L294 0M238 134L238 246L182 246Q143 246 120 224Q93 197 93 142Q93 42 164 42Q197 42 217.50 68Q238 94 238 134M278 611L66 611L66 656L278 656L278 611Z"  horiz-adv-x="352" vert-adv-y="1000"  />

      
      <glyph glyph-name="uni0102" unicode="&#x0102;" d="M374 0L311 0L272 195L106 195L68 0L4 0L163 712L218 712L374 0M261 248L189 606L118 248L261 248M302 858Q293 754 192 754Q90 754 81 858L127 858Q134 798 192 798Q248 798 256 858L302 858Z"  horiz-adv-x="379" vert-adv-y="1000"  />

      
      <glyph glyph-name="uni0103" unicode="&#x0103;" d="M294 0L240 0L240 46Q230 26 212 12Q185-8 151-8Q103-8 70 26Q37 61 37 141Q37 217 80 256Q117 290 180 290L238 290L238 381Q238 468 168 468Q141 468 122 449Q99 425 99 378L43 378Q43 446 80 483Q114 517 168 517Q229 517 259 485Q294 448 294 379L294 0M238 134L238 246L182 246Q143 246 120 224Q93 197 93 142Q93 42 164 42Q197 42 217.50 68Q238 94 238 134M282 684Q273 580 172 580Q71 580 61 684L107 684Q114 624 172 624Q228 624 237 684L282 684Z"  horiz-adv-x="352" vert-adv-y="1000"  />

      
      <glyph glyph-name="uni0104" unicode="&#x0104;" d="M374 0L311 0L272 195L106 195L68 0L4 0L163 712L218 712L374 0M261 248L189 606L118 248L261 248M365-37L319-171L266-171L319-37L365-37Z"  horiz-adv-x="379" vert-adv-y="1000"  />

      
      <glyph glyph-name="uni0105" unicode="&#x0105;" d="M294 0L240 0L240 46Q230 26 212 12Q185-8 151-8Q103-8 70 26Q37 61 37 141Q37 217 80 256Q117 290 180 290L238 290L238 381Q238 468 168 468Q141 468 122 449Q99 425 99 378L43 378Q43 446 80 483Q114 517 168 517Q229 517 259 485Q294 448 294 379L294 0M238 134L238 246L182 246Q143 246 120 224Q93 197 93 142Q93 42 164 42Q197 42 217.50 68Q238 94 238 134M291-37L245-171L192-171L245-37L291-37Z"  horiz-adv-x="352" vert-adv-y="1000"  />

      
      <glyph glyph-name="uni0106" unicode="&#x0106;" d="M358 163Q356 70 308 26Q271-8 210-8Q143-8 104 34Q72 68 63 126.50Q54 185 54 356Q54 527 63 585.50Q72 644 104 678Q143 720 210 720Q274 720 312 682Q356 638 358 549L299 549Q299 614 271 643Q249 667 210 667Q170 667 147 641Q125 616 119 564.50Q113 513 113 356Q113 199 119 147.50Q125 96 147 71Q170 45 210 45Q249 45 271 69Q299 98 299 163L358 163M307 894L232 764L183 764L248 894L307 894Z"  horiz-adv-x="399" vert-adv-y="1000"  />

      
      <glyph glyph-name="uni0107" unicode="&#x0107;" d="M303 134Q301 59 267 25Q234-8 177-8Q117-8 83 32Q61 58 53 108.50Q45 159 45 254Q45 349 53 399.50Q61 450 83 476Q116 517 177 517Q235 517 267 485Q301 452 303 374L248 374Q248 425 228 446Q210 467 178 467Q144 467 126 444Q110 424 105.50 383Q101 342 101 254Q101 166 105.50 125.50Q110 85 126 65Q144 42 178 42Q207 42 227 62Q248 84 248 134L303 134M273 716L199 586L150 586L215 716L273 716Z"  horiz-adv-x="340" vert-adv-y="1000"  />

      
      <glyph glyph-name="uni0108" unicode="&#x0108;" d="M358 163Q356 70 308 26Q271-8 210-8Q143-8 104 34Q72 68 63 126.50Q54 185 54 356Q54 527 63 585.50Q72 644 104 678Q143 720 210 720Q274 720 312 682Q356 638 358 549L299 549Q299 614 271 643Q249 667 210 667Q170 667 147 641Q125 616 119 564.50Q113 513 113 356Q113 199 119 147.50Q125 96 147 71Q170 45 210 45Q249 45 271 69Q299 98 299 163L358 163M322 764L270 764L211 856L151 764L99 764L186 894L236 894L322 764Z"  horiz-adv-x="399" vert-adv-y="1000"  />

      
      <glyph glyph-name="uni0109" unicode="&#x0109;" d="M303 134Q301 59 267 25Q234-8 177-8Q117-8 83 32Q61 58 53 108.50Q45 159 45 254Q45 349 53 399.50Q61 450 83 476Q116 517 177 517Q235 517 267 485Q301 452 303 374L248 374Q248 425 228 446Q210 467 178 467Q144 467 126 444Q110 424 105.50 383Q101 342 101 254Q101 166 105.50 125.50Q110 85 126 65Q144 42 178 42Q207 42 227 62Q248 84 248 134L303 134M288 586L237 586L177 678L117 586L65 586L152 716L202 716L288 586Z"  horiz-adv-x="340" vert-adv-y="1000"  />

      
      <glyph glyph-name="uni010A" unicode="&#x010A;" d="M358 163Q356 70 308 26Q271-8 210-8Q143-8 104 34Q72 68 63 126.50Q54 185 54 356Q54 527 63 585.50Q72 644 104 678Q143 720 210 720Q274 720 312 682Q356 638 358 549L299 549Q299 614 271 643Q249 667 210 667Q170 667 147 641Q125 616 119 564.50Q113 513 113 356Q113 199 119 147.50Q125 96 147 71Q170 45 210 45Q249 45 271 69Q299 98 299 163L358 163M242 784L179 784L179 847L242 847L242 784Z"  horiz-adv-x="399" vert-adv-y="1000"  />

      
      <glyph glyph-name="uni010B" unicode="&#x010B;" d="M303 134Q301 59 267 25Q234-8 177-8Q117-8 83 32Q61 58 53 108.50Q45 159 45 254Q45 349 53 399.50Q61 450 83 476Q116 517 177 517Q235 517 267 485Q301 452 303 374L248 374Q248 425 228 446Q210 467 178 467Q144 467 126 444Q110 424 105.50 383Q101 342 101 254Q101 166 105.50 125.50Q110 85 126 65Q144 42 178 42Q207 42 227 62Q248 84 248 134L303 134M208 610L145 610L145 673L208 673L208 610Z"  horiz-adv-x="340" vert-adv-y="1000"  />

      
      <glyph glyph-name="uni010C" unicode="&#x010C;" d="M358 163Q356 70 308 26Q271-8 210-8Q143-8 104 34Q72 68 63 126.50Q54 185 54 356Q54 527 63 585.50Q72 644 104 678Q143 720 210 720Q274 720 312 682Q356 638 358 549L299 549Q299 614 271 643Q249 667 210 667Q170 667 147 641Q125 616 119 564.50Q113 513 113 356Q113 199 119 147.50Q125 96 147 71Q170 45 210 45Q249 45 271 69Q299 98 299 163L358 163M322 887L236 758L186 758L99 887L151 887L211 796L270 887L322 887Z"  horiz-adv-x="399" vert-adv-y="1000"  />

      
      <glyph glyph-name="uni010D" unicode="&#x010D;" d="M303 134Q301 59 267 25Q234-8 177-8Q117-8 83 32Q61 58 53 108.50Q45 159 45 254Q45 349 53 399.50Q61 450 83 476Q116 517 177 517Q235 517 267 485Q301 452 303 374L248 374Q248 425 228 446Q210 467 178 467Q144 467 126 444Q110 424 105.50 383Q101 342 101 254Q101 166 105.50 125.50Q110 85 126 65Q144 42 178 42Q207 42 227 62Q248 84 248 134L303 134M288 709L202 580L152 580L65 709L117 709L177 618L237 709L288 709Z"  horiz-adv-x="340" vert-adv-y="1000"  />

      
      <glyph glyph-name="uni010E" unicode="&#x010E;" d="M362 580Q362 580 366.50 551.50Q371 523 371 356Q371 189 362 132Q353 75 321 41Q282 0 215 0L69 0L69 712L215 712Q282 712 321 671Q353 637 362 580M306 151.50Q306 151.50 309 176.25Q312 201 312 356Q312 511 306 560.50Q300 610 277 634Q255 659 212 659L128 659L128 53L212 53Q255 53 277 78Q300 102 306 151.50M321 887L235 758L185 758L98 887L150 887L210 796L269 887L321 887Z"  horiz-adv-x="424" vert-adv-y="1000"  />

      
      <glyph glyph-name="uni010F" unicode="&#x010F;" d="M303 0L248 0L248 41Q240 23 220 10Q194-8 162-8Q114-8 83 28Q61 53 53 103.50Q45 154 45 254Q45 354 53 404Q61 454 83 481Q112 517 162 517Q198 517 220 501Q236 489 247 471L247 712L303 712L303 0M247 131L247 378Q247 425 224 448Q203 467 175 467Q146 467 127 444Q111 425 106 385.50Q101 346 101 254Q101 162 106 122.50Q111 83 127 64Q146 42 175 42Q203 42 224 61Q247 84 247 131M423 719L393 585L349 585L370 719L423 719Z"  horiz-adv-x="365" vert-adv-y="1000"  />

      
      <glyph glyph-name="uni0110" unicode="&#x0110;" d="M366.50 579.50Q366.50 579.50 370.75 550.75Q375 522 375 356Q375 190 366.50 132.50Q358 75 325 41Q286 0 220 0L73 0L73 332L20 332L20 381L73 381L73 712L220 712Q286 712 325 671Q358 637 366.50 579.50M310 152Q310 152 313 176.50Q316 201 316 356Q316 511 310 560Q304 609 281 634Q258 659 217 659L132 659L132 381L223 381L223 332L132 332L132 53L217 53Q258 53 281 78Q304 103 310 152Z"  horiz-adv-x="429" vert-adv-y="1000"  />

      
      <glyph glyph-name="uni0111" unicode="&#x0111;" d="M303 0L248 0L248 41Q240 23 220 10Q194-8 162-8Q114-8 83 28Q61 53 53 103.50Q45 154 45 254Q45 354 53 404Q61 454 83 481Q112 517 162 517Q198 517 220 501Q236 489 247 471L247 584L157 584L157 626L247 626L247 712L303 712L303 626L361 626L361 584L303 584L303 0M247 131L247 378Q247 425 224 448Q203 467 175 467Q146 467 127 444Q111 425 106 385.50Q101 346 101 254Q101 162 106 122.50Q111 83 127 64Q146 42 175 42Q203 42 224 61Q247 84 247 131Z"  horiz-adv-x="377" vert-adv-y="1000"  />

      
      <glyph glyph-name="uni0112" unicode="&#x0112;" d="M317 0L69 0L69 712L317 712L317 659L128 659L128 383L291 383L291 330L128 330L128 53L317 53L317 0M304 785L92 785L92 830L304 830L304 785Z"  horiz-adv-x="364" vert-adv-y="1000"  />

      
      <glyph glyph-name="uni0113" unicode="&#x0113;" d="M309 246L101 246Q101 161 106 122Q111 83 127 65Q146 42 178 42Q211 42 230 62Q252 85 252 134L307 134Q307 65 270 27Q236-8 178-8Q121-8 86 29Q62 55 53.50 106.50Q45 158 45 254Q45 352 53.50 403Q62 454 86 480Q120 517 177 517Q234 517 268 480Q292 453 300.50 401Q309 349 309 246M253 291Q252 416 227 444Q208 467 177 467Q145 467 126 444Q102 417 101 291L253 291M283 611L71 611L71 656L283 656L283 611Z"  horiz-adv-x="349" vert-adv-y="1000"  />

      
      <glyph glyph-name="uni0114" unicode="&#x0114;" d="M317 0L69 0L69 712L317 712L317 659L128 659L128 383L291 383L291 330L128 330L128 53L317 53L317 0M309 858Q300 754 199 754Q97 754 88 858L134 858Q142 798 199 798Q256 798 263 858L309 858Z"  horiz-adv-x="364" vert-adv-y="1000"  />

      
      <glyph glyph-name="uni0115" unicode="&#x0115;" d="M309 246L101 246Q101 161 106 122Q111 83 127 65Q146 42 178 42Q211 42 230 62Q252 85 252 134L307 134Q307 65 270 27Q236-8 178-8Q121-8 86 29Q62 55 53.50 106.50Q45 158 45 254Q45 352 53.50 403Q62 454 86 480Q120 517 177 517Q234 517 268 480Q292 453 300.50 401Q309 349 309 246M253 291Q252 416 227 444Q208 467 177 467Q145 467 126 444Q102 417 101 291L253 291M288 684Q279 580 178 580Q77 580 67 684L113 684Q120 624 178 624Q234 624 243 684L288 684Z"  horiz-adv-x="349" vert-adv-y="1000"  />

      
      <glyph glyph-name="uni0116" unicode="&#x0116;" d="M317 0L69 0L69 712L317 712L317 659L128 659L128 383L291 383L291 330L128 330L128 53L317 53L317 0M229 784L166 784L166 847L229 847L229 784Z"  horiz-adv-x="364" vert-adv-y="1000"  />

      
      <glyph glyph-name="uni0117" unicode="&#x0117;" d="M309 246L101 246Q101 161 106 122Q111 83 127 65Q146 42 178 42Q211 42 230 62Q252 85 252 134L307 134Q307 65 270 27Q236-8 178-8Q121-8 86 29Q62 55 53.50 106.50Q45 158 45 254Q45 352 53.50 403Q62 454 86 480Q120 517 177 517Q234 517 268 480Q292 453 300.50 401Q309 349 309 246M253 291Q252 416 227 444Q208 467 177 467Q145 467 126 444Q102 417 101 291L253 291M208 610L145 610L145 673L208 673L208 610Z"  horiz-adv-x="349" vert-adv-y="1000"  />

      
      <glyph glyph-name="uni0118" unicode="&#x0118;" d="M317 0L69 0L69 712L317 712L317 659L128 659L128 383L291 383L291 330L128 330L128 53L317 53L317 0M300-37L254-171L201-171L254-37L300-37Z"  horiz-adv-x="364" vert-adv-y="1000"  />

      
      <glyph glyph-name="uni0119" unicode="&#x0119;" d="M309 246L101 246Q101 161 106 122Q111 83 127 65Q146 42 178 42Q211 42 230 62Q252 85 252 134L307 134Q307 65 270 27Q236-8 178-8Q121-8 86 29Q62 55 53.50 106.50Q45 158 45 254Q45 352 53.50 403Q62 454 86 480Q120 517 177 517Q234 517 268 480Q292 453 300.50 401Q309 349 309 246M253 291Q252 416 227 444Q208 467 177 467Q145 467 126 444Q102 417 101 291L253 291M249-37L203-171L150-171L203-37L249-37Z"  horiz-adv-x="349" vert-adv-y="1000"  />

      
      <glyph glyph-name="uni011A" unicode="&#x011A;" d="M317 0L69 0L69 712L317 712L317 659L128 659L128 383L291 383L291 330L128 330L128 53L317 53L317 0M309 887L223 758L173 758L86 887L138 887L198 796L257 887L309 887Z"  horiz-adv-x="364" vert-adv-y="1000"  />

      
      <glyph glyph-name="uni011B" unicode="&#x011B;" d="M309 246L101 246Q101 161 106 122Q111 83 127 65Q146 42 178 42Q211 42 230 62Q252 85 252 134L307 134Q307 65 270 27Q236-8 178-8Q121-8 86 29Q62 55 53.50 106.50Q45 158 45 254Q45 352 53.50 403Q62 454 86 480Q120 517 177 517Q234 517 268 480Q292 453 300.50 401Q309 349 309 246M253 291Q252 416 227 444Q208 467 177 467Q145 467 126 444Q102 417 101 291L253 291M288 709L202 580L152 580L65 709L117 709L177 618L237 709L288 709Z"  horiz-adv-x="349" vert-adv-y="1000"  />

      
      <glyph glyph-name="uni011C" unicode="&#x011C;" d="M358 152Q358 75 315.50 33.50Q273-8 210-8Q143-8 104 34Q72 68 63 126.50Q54 185 54 356Q54 527 63 585.50Q72 644 104 678Q143 720 210 720Q275 720 314 681Q356 636 358 549L299 549Q299 667 210 667Q170 667 147 641Q125 616 119 564.50Q113 513 113 356Q113 199 119 147.50Q125 96 147 71Q170 45 210 45Q250 45 274.50 73.50Q299 102 299 152L299 327L210 327L210 377L358 377L358 152M322 764L270 764L211 856L151 764L99 764L186 894L236 894L322 764Z"  horiz-adv-x="412" vert-adv-y="1000"  />

      
      <glyph glyph-name="uni011D" unicode="&#x011D;" d="M303 509L303-15Q303-79 295-111.50Q287-144 265-168Q230-205 174-205Q116-205 82-171Q47-135 47-64L102-64Q102-115 124-137Q142-156 173-156Q204-156 223-134Q247-109 247-16L247 49Q238 33 220 20Q195 3 163 3Q115 3 84 38Q61 64 53 112.50Q45 161 45 260Q45 360 53 408Q61 456 84 481Q116 517 163 517Q196 517 221 500Q238 488 248 470L248 509L303 509M247 141L247 378Q247 425 224 448Q203 467 175 467Q146 467 127 444Q111 425 106 387Q101 349 101 259Q101 169 106 131Q111 93 127 74Q146 52 175 52Q207 52 224 70Q247 96 247 141M287 586L236 586L176 678L116 586L64 586L151 716L201 716L287 586Z"  horiz-adv-x="365" vert-adv-y="1000"  />

      
      <glyph glyph-name="uni011E" unicode="&#x011E;" d="M358 152Q358 75 315.50 33.50Q273-8 210-8Q143-8 104 34Q72 68 63 126.50Q54 185 54 356Q54 527 63 585.50Q72 644 104 678Q143 720 210 720Q275 720 314 681Q356 636 358 549L299 549Q299 667 210 667Q170 667 147 641Q125 616 119 564.50Q113 513 113 356Q113 199 119 147.50Q125 96 147 71Q170 45 210 45Q250 45 274.50 73.50Q299 102 299 152L299 327L210 327L210 377L358 377L358 152M321 858Q312 754 211 754Q109 754 100 858L146 858Q154 798 211 798Q268 798 275 858L321 858Z"  horiz-adv-x="412" vert-adv-y="1000"  />

      
      <glyph glyph-name="uni011F" unicode="&#x011F;" d="M303 509L303-15Q303-79 295-111.50Q287-144 265-168Q230-205 174-205Q116-205 82-171Q47-135 47-64L102-64Q102-115 124-137Q142-156 173-156Q204-156 223-134Q247-109 247-16L247 49Q238 33 220 20Q195 3 163 3Q115 3 84 38Q61 64 53 112.50Q45 161 45 260Q45 360 53 408Q61 456 84 481Q116 517 163 517Q196 517 221 500Q238 488 248 470L248 509L303 509M247 141L247 378Q247 425 224 448Q203 467 175 467Q146 467 127 444Q111 425 106 387Q101 349 101 259Q101 169 106 131Q111 93 127 74Q146 52 175 52Q207 52 224 70Q247 96 247 141M286 684Q277 580 176 580Q75 580 65 684L111 684Q118 624 176 624Q232 624 241 684L286 684Z"  horiz-adv-x="365" vert-adv-y="1000"  />

      
      <glyph glyph-name="uni0120" unicode="&#x0120;" d="M358 152Q358 75 315.50 33.50Q273-8 210-8Q143-8 104 34Q72 68 63 126.50Q54 185 54 356Q54 527 63 585.50Q72 644 104 678Q143 720 210 720Q275 720 314 681Q356 636 358 549L299 549Q299 667 210 667Q170 667 147 641Q125 616 119 564.50Q113 513 113 356Q113 199 119 147.50Q125 96 147 71Q170 45 210 45Q250 45 274.50 73.50Q299 102 299 152L299 327L210 327L210 377L358 377L358 152M242 784L179 784L179 847L242 847L242 784Z"  horiz-adv-x="412" vert-adv-y="1000"  />

      
      <glyph glyph-name="uni0121" unicode="&#x0121;" d="M303 509L303-15Q303-79 295-111.50Q287-144 265-168Q230-205 174-205Q116-205 82-171Q47-135 47-64L102-64Q102-115 124-137Q142-156 173-156Q204-156 223-134Q247-109 247-16L247 49Q238 33 220 20Q195 3 163 3Q115 3 84 38Q61 64 53 112.50Q45 161 45 260Q45 360 53 408Q61 456 84 481Q116 517 163 517Q196 517 221 500Q238 488 248 470L248 509L303 509M247 141L247 378Q247 425 224 448Q203 467 175 467Q146 467 127 444Q111 425 106 387Q101 349 101 259Q101 169 106 131Q111 93 127 74Q146 52 175 52Q207 52 224 70Q247 96 247 141M207 610L144 610L144 673L207 673L207 610Z"  horiz-adv-x="365" vert-adv-y="1000"  />

      
      <glyph glyph-name="uni0122" unicode="&#x0122;" d="M358 152Q358 75 315.50 33.50Q273-8 210-8Q143-8 104 34Q72 68 63 126.50Q54 185 54 356Q54 527 63 585.50Q72 644 104 678Q143 720 210 720Q275 720 314 681Q356 636 358 549L299 549Q299 667 210 667Q170 667 147 641Q125 616 119 564.50Q113 513 113 356Q113 199 119 147.50Q125 96 147 71Q170 45 210 45Q250 45 274.50 73.50Q299 102 299 152L299 327L210 327L210 377L358 377L358 152M236-37L190-171L137-171L190-37L236-37Z"  horiz-adv-x="412" vert-adv-y="1000"  />

      
      <glyph glyph-name="uni0123" unicode="&#x0123;" d="M303 509L303-15Q303-79 295-111.50Q287-144 265-168Q230-205 174-205Q116-205 82-171Q47-135 47-64L102-64Q102-115 124-137Q142-156 173-156Q204-156 223-134Q247-109 247-16L247 49Q238 33 220 20Q195 3 163 3Q115 3 84 38Q61 64 53 112.50Q45 161 45 260Q45 360 53 408Q61 456 84 481Q116 517 163 517Q196 517 221 500Q238 488 248 470L248 509L303 509M247 141L247 378Q247 425 224 448Q203 467 175 467Q146 467 127 444Q111 425 106 387Q101 349 101 259Q101 169 106 131Q111 93 127 74Q146 52 175 52Q207 52 224 70Q247 96 247 141M152 586L198 720L251 720L198 586L152 586Z"  horiz-adv-x="365" vert-adv-y="1000"  />

      
      <glyph glyph-name="uni0124" unicode="&#x0124;" d="M363 0L304 0L304 336L128 336L128 0L69 0L69 712L128 712L128 389L304 389L304 712L363 712L363 0M327 764L275 764L216 856L156 764L104 764L191 894L241 894L327 764Z"  horiz-adv-x="432" vert-adv-y="1000"  />

      
      <glyph glyph-name="uni0125" unicode="&#x0125;" d="M315 0L259 0L259 383Q259 423 239.50 444.50Q220 466 189 466Q158 466 138 444.50Q118 423 118 383L118 0L62 0L62 712L118 712L118 469Q124 483 146 499Q172 517 204 517Q251 517 284 482Q315 449 315 382L315 0M202 764L151 764L91 856L31 764L-21 764L66 894L116 894L202 764Z"  horiz-adv-x="373" vert-adv-y="1000"  />

      
      <glyph glyph-name="uni0126" unicode="&#x0126;" d="M419 520L368 520L368 0L309 0L309 335L133 335L133 0L73 0L73 520L23 520L23 568L73 568L73 712L133 712L133 568L309 568L309 712L368 712L368 568L419 568L419 520M309 389L309 520L133 520L133 389L309 389Z"  horiz-adv-x="442" vert-adv-y="1000"  />

      
      <glyph glyph-name="uni0127" unicode="&#x0127;" d="M329 0L273 0L273 383Q273 423 253.50 444.50Q234 466 203 466Q172 466 152 444.50Q132 423 132 383L132 0L76 0L76 584L16 584L16 626L76 626L76 712L132 712L132 626L219 626L219 584L132 584L132 469Q138 483 160 499Q186 517 218 517Q265 517 298 482Q329 449 329 382L329 0Z"  horiz-adv-x="387" vert-adv-y="1000"  />

      
      <glyph glyph-name="uni0128" unicode="&#x0128;" d="M128 0L69 0L69 712L128 712L128 0M218 813Q179 775 147 775Q124 775 93 792Q68 808 51 808Q32 808 8 784L-20 813Q18 851 50 851Q76 851 104 834Q131 818 146 818Q165 818 189 842L218 813Z"  horiz-adv-x="197" vert-adv-y="1000"  />

      
      <glyph glyph-name="uni0129" unicode="&#x0129;" d="M119 0L63 0L63 509L119 509L119 0M211 635Q172 597 140 597Q117 597 86 614Q61 630 44 630Q25 630 1 606L-27 635Q11 673 43 673Q69 673 97 656Q124 640 139 640Q158 640 182 664L211 635Z"  horiz-adv-x="181" vert-adv-y="1000"  />

      
      <glyph glyph-name="uni012A" unicode="&#x012A;" d="M128 0L69 0L69 712L128 712L128 0M205 785L-7 785L-7 830L205 830L205 785Z"  horiz-adv-x="197" vert-adv-y="1000"  />

      
      <glyph glyph-name="uni012B" unicode="&#x012B;" d="M119 0L63 0L63 509L119 509L119 0M197 611L-15 611L-15 656L197 656L197 611Z"  horiz-adv-x="181" vert-adv-y="1000"  />

      
      <glyph glyph-name="uni012C" unicode="&#x012C;" d="M128 0L69 0L69 712L128 712L128 0M210 858Q201 754 100 754Q-2 754-11 858L35 858Q42 798 100 798Q156 798 164 858L210 858Z"  horiz-adv-x="197" vert-adv-y="1000"  />

      
      <glyph glyph-name="uni012D" unicode="&#x012D;" d="M119 0L63 0L63 509L119 509L119 0M202 684Q193 580 92 580Q-9 580-19 684L27 684Q34 624 92 624Q148 624 157 684L202 684Z"  horiz-adv-x="181" vert-adv-y="1000"  />

      
      <glyph glyph-name="uni012E" unicode="&#x012E;" d="M128 0L69 0L69 712L128 712L128 0M127-37L81-171L28-171L81-37L127-37Z"  horiz-adv-x="197" vert-adv-y="1000"  />

      
      <glyph glyph-name="uni012F" unicode="&#x012F;" d="M118 0L62 0L62 509L118 509L118 0M126 626L54 626L54 698L126 698L126 626M118-37L72-171L19-171L72-37L118-37Z"  horiz-adv-x="181" vert-adv-y="1000"  />

      
      <glyph glyph-name="uni0130" unicode="&#x0130;" d="M128 0L69 0L69 712L128 712L128 0M130 784L67 784L67 847L130 847L130 784Z"  horiz-adv-x="197" vert-adv-y="1000"  />

      
      <glyph glyph-name="uni0131" unicode="&#x0131;" d="M119 0L63 0L63 509L119 509L119 0Z"  horiz-adv-x="181" vert-adv-y="1000"  />

      
      <glyph glyph-name="uni0132" unicode="&#x0132;" d="M128 0L69 0L69 712L128 712L128 0M468 153Q468 75 426 33Q385-8 318-8Q247-8 205 42L248 81Q274 45 318 45Q358 45 383.50 73.50Q409 102 409 153L409 712L468 712L468 153Z"  horiz-adv-x="529" vert-adv-y="1000"  />

      
      <glyph glyph-name="uni0133" unicode="&#x0133;" d="M118 0L62 0L62 509L118 509L118 0M126 626L54 626L54 698L126 698L126 626M299-68Q299-136 261-171Q227-203 160-203L160-153Q243-153 243-67L243 509L299 509L299-68M307 626L235 626L235 698L307 698L307 626Z"  horiz-adv-x="362" vert-adv-y="1000"  />

      
      <glyph glyph-name="uni0134" unicode="&#x0134;" d="M271 153Q271 75 229 33Q188-8 121-8Q50-8 8 42L51 81Q77 45 121 45Q161 45 186.50 73.50Q212 102 212 153L212 712L271 712L271 153M353 764L301 764L242 856L182 764L130 764L217 894L267 894L353 764Z"  horiz-adv-x="332" vert-adv-y="1000"  />

      
      <glyph glyph-name="uni0135" unicode="&#x0135;" d="M118-67Q118-136 80-171Q46-203-21-203L-21-153Q20-153 41-133Q62-113 62-67L62 509L118 509L118-67M202 586L151 586L91 678L31 586L-21 586L66 716L116 716L202 586Z"  horiz-adv-x="181" vert-adv-y="1000"  />

      
      <glyph glyph-name="uni0136" unicode="&#x0136;" d="M399 0L335 0L197 352L128 216L128 0L69 0L69 712L128 712L128 325L317 712L380 712L234 418L399 0M247-37L201-171L148-171L201-37L247-37Z"  horiz-adv-x="409" vert-adv-y="1000"  />

      
      <glyph glyph-name="uni0137" unicode="&#x0137;" d="M357 0L295 0L185 265L118 159L118 0L62 0L62 712L118 712L118 242L279 509L340 509L220 314L357 0M227-37L181-171L128-171L181-37L227-37Z"  horiz-adv-x="373" vert-adv-y="1000"  />

      
      <glyph glyph-name="uni0138" unicode="&#x0138;" d="M357 0L295 0L185 265L118 159L118 0L62 0L62 509L118 509L118 242L279 509L340 509L220 314L357 0Z"  horiz-adv-x="373" vert-adv-y="1000"  />

      
      <glyph glyph-name="uni0139" unicode="&#x0139;" d="M317 0L69 0L69 712L128 712L128 53L317 53L317 0M195 894L120 764L71 764L136 894L195 894Z"  horiz-adv-x="339" vert-adv-y="1000"  />

      
      <glyph glyph-name="uni013A" unicode="&#x013A;" d="M196 0Q129 0 95 32Q57 67 57 136L57 712L113 712L113 136Q113 50 196 50L196 0M181 890L107 760L58 760L123 890L181 890Z"  horiz-adv-x="212" vert-adv-y="1000"  />

      
      <glyph glyph-name="uni013B" unicode="&#x013B;" d="M317 0L69 0L69 712L128 712L128 53L317 53L317 0M228-37L182-171L129-171L182-37L228-37Z"  horiz-adv-x="339" vert-adv-y="1000"  />

      
      <glyph glyph-name="uni013C" unicode="&#x013C;" d="M196 0Q129 0 95 32Q57 67 57 136L57 712L113 712L113 136Q113 50 196 50L196 0M163-37L117-171L64-171L117-37L163-37Z"  horiz-adv-x="212" vert-adv-y="1000"  />

      
      <glyph glyph-name="uni013D" unicode="&#x013D;" d="M317 0L69 0L69 712L128 712L128 53L317 53L317 0M266 712L236 578L192 578L213 712L266 712Z"  horiz-adv-x="339" vert-adv-y="1000"  />

      
      <glyph glyph-name="uni013E" unicode="&#x013E;" d="M196 0Q129 0 95 32Q57 67 57 136L57 712L113 712L113 136Q113 50 196 50L196 0M233 719L203 585L159 585L180 719L233 719Z"  horiz-adv-x="212" vert-adv-y="1000"  />

      
      <glyph glyph-name="uni013F" unicode="&#x013F;" d="M317 0L69 0L69 712L128 712L128 53L317 53L317 0M301 324L238 324L238 387L301 387L301 324Z"  horiz-adv-x="339" vert-adv-y="1000"  />

      
      <glyph glyph-name="uni0140" unicode="&#x0140;" d="M196 0Q129 0 95 32Q57 67 57 136L57 712L113 712L113 136Q113 50 196 50L196 0M223 274L160 274L160 337L223 337L223 274Z"  horiz-adv-x="208" vert-adv-y="1000"  />

      
      <glyph glyph-name="uni0141" unicode="&#x0141;" d="M318 0L70 0L70 294L20 247L20 311L70 359L70 712L129 712L129 412L224 502L224 438L129 347L129 53L318 53L318 0Z"  horiz-adv-x="341" vert-adv-y="1000"  />

      
      <glyph glyph-name="uni0142" unicode="&#x0142;" d="M218 0Q151 0 117 32Q79 67 79 136L79 320L17 256L17 319L79 383L79 712L135 712L135 436L198 502L198 439L135 373L135 136Q135 50 218 50L218 0Z"  horiz-adv-x="238" vert-adv-y="1000"  />

      
      <glyph glyph-name="uni0143" unicode="&#x0143;" d="M385 0L327 0L128 555L128 0L69 0L69 712L128 712L326 157L326 712L385 712L385 0M323 894L248 764L199 764L264 894L323 894Z"  horiz-adv-x="454" vert-adv-y="1000"  />

      
      <glyph glyph-name="uni0144" unicode="&#x0144;" d="M315 0L259 0L259 383Q259 423 239.50 444.50Q220 466 189 466Q158 466 138 444.50Q118 423 118 383L118 0L62 0L62 509L117 509L117 468Q127 486 146 499Q172 517 204 517Q251 517 284 482Q315 449 315 382L315 0M286 716L212 586L163 586L228 716L286 716Z"  horiz-adv-x="373" vert-adv-y="1000"  />

      
      <glyph glyph-name="uni0145" unicode="&#x0145;" d="M385 0L327 0L128 555L128 0L69 0L69 712L128 712L326 157L326 712L385 712L385 0M247-37L201-171L148-171L201-37L247-37Z"  horiz-adv-x="454" vert-adv-y="1000"  />

      
      <glyph glyph-name="uni0146" unicode="&#x0146;" d="M315 0L259 0L259 383Q259 423 239.50 444.50Q220 466 189 466Q158 466 138 444.50Q118 423 118 383L118 0L62 0L62 509L117 509L117 468Q127 486 146 499Q172 517 204 517Q251 517 284 482Q315 449 315 382L315 0M219-37L173-171L120-171L173-37L219-37Z"  horiz-adv-x="373" vert-adv-y="1000"  />

      
      <glyph glyph-name="uni0147" unicode="&#x0147;" d="M385 0L327 0L128 555L128 0L69 0L69 712L128 712L326 157L326 712L385 712L385 0M338 887L252 758L202 758L115 887L167 887L227 796L286 887L338 887Z"  horiz-adv-x="454" vert-adv-y="1000"  />

      
      <glyph glyph-name="uni0148" unicode="&#x0148;" d="M315 0L259 0L259 383Q259 423 239.50 444.50Q220 466 189 466Q158 466 138 444.50Q118 423 118 383L118 0L62 0L62 509L117 509L117 468Q127 486 146 499Q172 517 204 517Q251 517 284 482Q315 449 315 382L315 0M301 709L215 580L165 580L78 709L130 709L190 618L250 709L301 709Z"  horiz-adv-x="373" vert-adv-y="1000"  />

      
      <glyph glyph-name="uni0149" unicode="&#x0149;" d="M325 0L269 0L269 383Q269 423 249.50 444.50Q230 466 199 466Q168 466 148 444.50Q128 423 128 383L128 0L72 0L72 509L127 509L127 468Q137 486 156 499Q182 517 214 517Q261 517 294 482Q325 449 325 382L325 0M52 607L0 567L0 719L52 719L52 607Z"  horiz-adv-x="383" vert-adv-y="1000"  />

      
      <glyph glyph-name="uni014A" unicode="&#x014A;" d="M246-120Q286-119 306.50-99.50Q327-80 327-34L327 0L128 555L128 0L69 0L69 712L128 712L326 157L326 712L385 712L385-34Q385-103 347-138Q313-170 246-170L246-120Z"  horiz-adv-x="454" vert-adv-y="1000"  />

      
      <glyph glyph-name="uni014B" unicode="&#x014B;" d="M315-35Q315-104 277-139Q243-171 176-171L176-121Q217-121 238-101Q259-81 259-35L259 383Q259 423 239.50 444.50Q220 466 189 466Q158 466 138 444.50Q118 423 118 383L118 0L62 0L62 509L117 509L117 468Q127 486 146 499Q172 517 204 517Q251 517 284 482Q315 449 315 382L315-35Z"  horiz-adv-x="373" vert-adv-y="1000"  />

      
      <glyph glyph-name="uni014C" unicode="&#x014C;" d="M358 585.50Q358 585.50 362.50 556.25Q367 527 367 356Q367 185 358 126.50Q349 68 317 34Q278-8 210-8Q143-8 104 34Q72 68 63 126.50Q54 185 54 356Q54 527 63 585.50Q72 644 104 678Q143 720 210 720Q278 720 317 678Q349 644 358 585.50M302 147.50Q302 147.50 305 173.25Q308 199 308 356Q308 513 302 564.50Q296 616 274 641Q251 667 210 667Q170 667 147 641Q125 616 119 564.50Q113 513 113 356Q113 199 119 147.50Q125 96 147 71Q170 45 210 45Q251 45 274 71Q296 96 302 147.50M317 785L105 785L105 830L317 830L317 785Z"  horiz-adv-x="421" vert-adv-y="1000"  />

      
      <glyph glyph-name="uni014D" unicode="&#x014D;" d="M301 399Q301 399 305 374Q309 349 309 254Q309 159 301 109Q293 59 271 32Q238-8 177-8Q116-8 83 32Q61 59 53 109Q45 159 45 254Q45 349 53 399Q61 449 83 476Q116 517 177 517Q238 517 271 476Q293 449 301 399M248 125Q248 125 250.50 145Q253 165 253 254Q253 343 248 383.50Q243 424 227 444Q208 467 177 467Q145 467 126 444Q110 424 105.50 384Q101 344 101 254Q101 164 105.50 124.50Q110 85 126 65Q145 42 177 42Q208 42 227 65Q243 85 248 125M283 611L71 611L71 656L283 656L283 611Z"  horiz-adv-x="353" vert-adv-y="1000"  />

      
      <glyph glyph-name="uni014E" unicode="&#x014E;" d="M358 585.50Q358 585.50 362.50 556.25Q367 527 367 356Q367 185 358 126.50Q349 68 317 34Q278-8 210-8Q143-8 104 34Q72 68 63 126.50Q54 185 54 356Q54 527 63 585.50Q72 644 104 678Q143 720 210 720Q278 720 317 678Q349 644 358 585.50M302 147.50Q302 147.50 305 173.25Q308 199 308 356Q308 513 302 564.50Q296 616 274 641Q251 667 210 667Q170 667 147 641Q125 616 119 564.50Q113 513 113 356Q113 199 119 147.50Q125 96 147 71Q170 45 210 45Q251 45 274 71Q296 96 302 147.50M322 858Q313 754 212 754Q110 754 101 858L147 858Q154 798 212 798Q268 798 276 858L322 858Z"  horiz-adv-x="421" vert-adv-y="1000"  />

      
      <glyph glyph-name="uni014F" unicode="&#x014F;" d="M301 399Q301 399 305 374Q309 349 309 254Q309 159 301 109Q293 59 271 32Q238-8 177-8Q116-8 83 32Q61 59 53 109Q45 159 45 254Q45 349 53 399Q61 449 83 476Q116 517 177 517Q238 517 271 476Q293 449 301 399M248 125Q248 125 250.50 145Q253 165 253 254Q253 343 248 383.50Q243 424 227 444Q208 467 177 467Q145 467 126 444Q110 424 105.50 384Q101 344 101 254Q101 164 105.50 124.50Q110 85 126 65Q145 42 177 42Q208 42 227 65Q243 85 248 125M288 684Q279 580 178 580Q77 580 67 684L113 684Q120 624 178 624Q234 624 243 684L288 684Z"  horiz-adv-x="353" vert-adv-y="1000"  />

      
      <glyph glyph-name="uni0150" unicode="&#x0150;" d="M358 585.50Q358 585.50 362.50 556.25Q367 527 367 356Q367 185 358 126.50Q349 68 317 34Q278-8 210-8Q143-8 104 34Q72 68 63 126.50Q54 185 54 356Q54 527 63 585.50Q72 644 104 678Q143 720 210 720Q278 720 317 678Q349 644 358 585.50M302 147.50Q302 147.50 305 173.25Q308 199 308 356Q308 513 302 564.50Q296 616 274 641Q251 667 210 667Q170 667 147 641Q125 616 119 564.50Q113 513 113 356Q113 199 119 147.50Q125 96 147 71Q170 45 210 45Q251 45 274 71Q296 96 302 147.50M241 894L171 764L123 764L182 894L241 894M367 894L297 764L250 764L308 894L367 894Z"  horiz-adv-x="421" vert-adv-y="1000"  />

      
      <glyph glyph-name="uni0151" unicode="&#x0151;" d="M301 399Q301 399 305 374Q309 349 309 254Q309 159 301 109Q293 59 271 32Q238-8 177-8Q116-8 83 32Q61 59 53 109Q45 159 45 254Q45 349 53 399Q61 449 83 476Q116 517 177 517Q238 517 271 476Q293 449 301 399M248 125Q248 125 250.50 145Q253 165 253 254Q253 343 248 383.50Q243 424 227 444Q208 467 177 467Q145 467 126 444Q110 424 105.50 384Q101 344 101 254Q101 164 105.50 124.50Q110 85 126 65Q145 42 177 42Q208 42 227 65Q243 85 248 125M205 716L136 586L88 586L147 716L205 716M331 716L262 586L215 586L273 716L331 716Z"  horiz-adv-x="353" vert-adv-y="1000"  />

      
      <glyph glyph-name="uni0152" unicode="&#x0152;" d="M556 0L310 0L310 40Q276-8 209-8Q143-8 104 34Q72 69 63 129.50Q54 190 54 356Q54 522 63 582.50Q72 643 104 678Q143 720 209 720Q277 720 310 672L310 712L556 712L556 659L366 659L366 383L530 383L530 330L366 330L366 53L556 53L556 0M302 148Q302 148 305 173.50Q308 199 308 356Q308 513 302 564Q296 615 274 641Q251 667 210 667Q170 667 147 641Q125 615 119 564Q113 513 113 356Q113 199 119 148Q125 97 147 71Q170 45 210 45Q251 45 274 71Q296 97 302 148Z"  horiz-adv-x="602" vert-adv-y="1000"  />

      
      <glyph glyph-name="uni0153" unicode="&#x0153;" d="M516 246L309 246Q309 161 314 122Q319 83 335 65Q354 42 386 42Q420 42 437 62Q460 85 460 134L515 134Q515 66 477 27Q445-8 386-8Q334-8 300 26Q287 41 281 55Q275 41 262 26Q231-8 177-8Q117-8 83 32Q61 59 53 109Q45 159 45 254Q45 349 53 399.50Q61 450 83 476Q116 517 177 517Q229 517 263 483Q274 470 281 454Q288 471 300 483Q334 517 384 517Q441 517 475 480Q499 453 507.50 401Q516 349 516 246M248 124.50Q248 124.50 250.50 144.75Q253 165 253 254Q253 343 248 383.50Q243 424 227 444Q208 467 177 467Q145 467 126 444Q110 424 105.50 384Q101 344 101 254Q101 163 105.50 123.50Q110 84 126 65Q144 42 177 42Q209 42 227 65Q243 84 248 124.50M460 291Q460 361 455 394Q450 427 435 444Q416 467 384 467Q353 467 334 444Q319 427 314 394Q309 361 309 291L460 291Z"  horiz-adv-x="559" vert-adv-y="1000"  />

      
      <glyph glyph-name="uni0154" unicode="&#x0154;" d="M386 0L323 0L220 319L128 319L128 0L69 0L69 712L209 712Q283 712 323 671Q363 630 363 515Q363 363 275 330L386 0M283.50 407Q283.50 407 293.75 424.50Q304 442 304 515Q304 588 283.50 623.50Q263 659 211 659L128 659L128 372L211 372Q263 372 283.50 407M298 894L223 764L174 764L239 894L298 894Z"  horiz-adv-x="432" vert-adv-y="1000"  />

      
      <glyph glyph-name="uni0155" unicode="&#x0155;" d="M229 464L217 464Q172 464 145 437.50Q118 411 118 365L118 0L62 0L62 509L117 509L117 455Q125 472 142 487Q175 517 229 517L229 464M226 716L152 586L103 586L168 716L226 716Z"  horiz-adv-x="245" vert-adv-y="1000"  />

      
      <glyph glyph-name="uni0156" unicode="&#x0156;" d="M386 0L323 0L220 319L128 319L128 0L69 0L69 712L209 712Q283 712 323 671Q363 630 363 515Q363 363 275 330L386 0M283.50 407Q283.50 407 293.75 424.50Q304 442 304 515Q304 588 283.50 623.50Q263 659 211 659L128 659L128 372L211 372Q263 372 283.50 407M244-37L198-171L145-171L198-37L244-37Z"  horiz-adv-x="432" vert-adv-y="1000"  />

      
      <glyph glyph-name="uni0157" unicode="&#x0157;" d="M229 464L217 464Q172 464 145 437.50Q118 411 118 365L118 0L62 0L62 509L117 509L117 455Q125 472 142 487Q175 517 229 517L229 464M118-37L72-171L19-171L72-37L118-37Z"  horiz-adv-x="245" vert-adv-y="1000"  />

      
      <glyph glyph-name="uni0158" unicode="&#x0158;" d="M386 0L323 0L220 319L128 319L128 0L69 0L69 712L209 712Q283 712 323 671Q363 630 363 515Q363 363 275 330L386 0M283.50 407Q283.50 407 293.75 424.50Q304 442 304 515Q304 588 283.50 623.50Q263 659 211 659L128 659L128 372L211 372Q263 372 283.50 407M313 887L227 758L177 758L90 887L142 887L202 796L261 887L313 887Z"  horiz-adv-x="432" vert-adv-y="1000"  />

      
      </font>
</defs>
</svg>
