<?xml version="1.0" standalone="no"?>
  <!DOCTYPE svg PUBLIC "-//W3C//DTD SVG 1.1//EN" "http://www.w3.org/Graphics/SVG/1.1/DTD/svg11.dtd" >
  <svg>
  <metadata>
  Created by font-carrier
  </metadata>
  <defs>
  <font id="DINPro" horiz-adv-x="1233" vert-adv-y="1233" >
    <font-face
      
      font-family="DIN Pro Regular"
      
      font-weight="400"
      
      font-stretch="normal"
      
      units-per-em="1000"
      
      ascent="985"
      
      descent="-226"
      
    />
      <missing-glyph />

      

      
      <glyph glyph-name="uni21" unicode="&#x21;" d="M215 712L204 200L142 200L132 712L215 712M216 0L130 0L130 84L216 84L216 0Z"  horiz-adv-x="316" vert-adv-y="1000"  />

      
      <glyph glyph-name="uni22" unicode="&#x22;" d="M335 542L256 542L256 712L335 712L335 542M167 542L88 542L88 712L167 712L167 542Z"  horiz-adv-x="423" vert-adv-y="1000"  />

      
      <glyph glyph-name="uni23" unicode="&#x23;" d="M602 432L506 432L483 291L572 291L572 227L473 227L437 0L363 0L399 227L239 227L204 0L130 0L166 227L77 227L77 291L177 291L200 432L108 432L108 498L209 498L243 713L318 713L283 498L442 498L476 713L549 713L515 498L602 498L602 432M432 432L273 432L250 291L409 291L432 432Z"  horiz-adv-x="653" vert-adv-y="1000"  />

      
      <glyph glyph-name="uni24" unicode="&#x24;" d="M540 196Q540 110 481 56.50Q422 3 322-4L322-114L262-114L262-6Q192-3 140.50 19Q89 41 42 88L94 140Q167 67 266 63L266 328L246 330Q171 337 116 384Q61 433 61 517Q61 602 115 656Q169 710 262 717L262 806L322 806L322 717Q428 712 508 640L459 591Q398 646 319 651L319 392L350 387Q438 372 479 337Q540 285 540 196M464 194Q464 253 429 283Q422 289 415.50 293.50Q409 298 399.50 302Q390 306 385.50 308Q381 310 369 312Q357 314 354 315Q351 316 336 318Q321 320 319 320L319 63Q387 68 425.50 102.50Q464 137 464 194M266 399L266 651Q204 646 170 611Q136 576 136 520Q136 466 168 438Q204 408 266 399Z"  horiz-adv-x="596" vert-adv-y="1000"  />

      
      <glyph glyph-name="uni25" unicode="&#x25;" d="M277 481L277 582Q277 669 200 669Q122 669 122 582L122 481Q122 395 200 395Q277 395 277 481M335 479Q335 418 297.50 381.50Q260 345 200 345Q140 345 102.50 381.50Q65 418 65 479L65 584Q65 645 103 682Q141 719 200 719Q259 719 297 682Q335 645 335 584L335 479M711 130L711 230Q711 317 634 317Q556 317 556 230L556 130Q556 43 634 43Q711 43 711 130M769 127Q769 66 731 29.50Q693-7 634-7Q575-7 537 29.50Q499 66 499 127L499 232Q499 293 537 330Q575 367 634 367Q693 367 731 330Q769 293 769 232L769 127M614 712L280 0L220 0L554 712L614 712Z"  horiz-adv-x="833" vert-adv-y="1000"  />

      
      <glyph glyph-name="uni26" unicode="&#x26;" d="M671 0L576 0L512 78Q422-6 302-6Q199-6 138 50.50Q77 107 77 201Q77 239 89 271Q101 303 126 329.50Q151 356 172.50 372.50Q194 389 231 414Q206 444 194 460.50Q182 477 168 508Q154 539 154 569Q154 633 198.50 675.50Q243 718 311 718Q378 718 422 675Q466 632 466 568Q466 495 387 441L334 405L516 186Q538 219 546.50 254Q555 289 556 349L628 349Q626 208 562 131L671 0M469 130L273 366Q241 344 226.50 333Q212 322 190.50 300.50Q169 279 160 255.50Q151 232 151 203Q151 140 193 100.50Q235 61 301 61Q392 61 469 130M395 568Q395 604 371 628.50Q347 653 311 653Q275 653 252 629.50Q229 606 229 570Q229 546 242.50 521.50Q256 497 293 453L331 479Q362 500 378.50 520Q395 540 395 568Z"  horiz-adv-x="739" vert-adv-y="1000"  />

      
      <glyph glyph-name="uni27" unicode="&#x27;" d="M167 542L88 542L88 712L167 712L167 542Z"  horiz-adv-x="255" vert-adv-y="1000"  />

      
      <glyph glyph-name="uni28" unicode="&#x28;" d="M236-43L185-94Q130-39 113-8Q92 33 92 95L92 617Q92 682 113 720Q130 751 185 806L236 755Q194 716 181 690Q167 665 167 611L167 101Q167 50 181 22Q193-1 236-43Z"  horiz-adv-x="298" vert-adv-y="1000"  />

      
      <glyph glyph-name="uni29" unicode="&#x29;" d="M112-94L61-43Q104-1 116 22Q130 50 130 101L130 611Q130 665 116 690Q103 716 61 755L112 806Q167 751 184 720Q205 682 205 617L205 95Q205 33 184-8Q167-39 112-94Z"  horiz-adv-x="298" vert-adv-y="1000"  />

      
      <glyph glyph-name="uni2a" unicode="&#x2a;" d="M407 472L379 423L262 494L266 357L208 357L212 494L96 423L67 472L187 537L67 603L96 651L212 580L208 717L266 717L262 580L379 651L407 603L287 537L407 472Z"  horiz-adv-x="474" vert-adv-y="1000"  />

      
      <glyph glyph-name="uni2b" unicode="&#x2b;" d="M470 234L295 234L295 58L228 58L228 234L52 234L52 301L228 301L228 475L295 475L295 301L470 301L470 234Z"  horiz-adv-x="522" vert-adv-y="1000"  />

      
      <glyph glyph-name="uni2c" unicode="&#x2c;" d="M176-65L88-144L88 88L176 88L176-65Z"  horiz-adv-x="264" vert-adv-y="1000"  />

      
      <glyph glyph-name="uni2d" unicode="&#x2d;" d="M350 236L76 236L76 303L350 303L350 236Z"  horiz-adv-x="426" vert-adv-y="1000"  />

      
      <glyph glyph-name="uni2e" unicode="&#x2e;" d="M182 0L88 0L88 94L182 94L182 0Z"  horiz-adv-x="270" vert-adv-y="1000"  />

      
      <glyph glyph-name="uni2f" unicode="&#x2f;" d="M356 786L71-74L0-74L285 786L356 786Z"  horiz-adv-x="355" vert-adv-y="1000"  />

      
      <glyph glyph-name="uni30" unicode="&#x30;" d="M456 190Q456 103 400.50 48.50Q345-6 261-6Q176-6 121 48Q66 102 66 190L66 522Q66 610 121 664Q176 718 261 718Q345 718 400.50 663.50Q456 609 456 522L456 190M384 194L384 518Q384 578 351.50 616Q319 654 261 654Q203 654 170.50 616Q138 578 138 518L138 194Q138 134 170.50 96Q203 58 261 58Q319 58 351.50 96Q384 134 384 194Z"  horiz-adv-x="522" vert-adv-y="1000"  />

      
      <glyph glyph-name="uni31" unicode="&#x31;" d="M330 0L258 0L258 632L125 515L125 597L258 712L330 712L330 0Z"  horiz-adv-x="522" vert-adv-y="1000"  />

      
      <glyph glyph-name="uni32" unicode="&#x32;" d="M461 0L68 0L68 64L349 421Q389 473 389 526Q389 584 356 619Q323 654 265 654Q211 654 176 622Q141 590 141 525L69 525Q69 610 123 664Q177 718 265 718Q353 718 407 665.50Q461 613 461 526Q461 485 448 453Q435 421 404 382L155 64L461 64L461 0Z"  horiz-adv-x="522" vert-adv-y="1000"  />

      
      <glyph glyph-name="uni33" unicode="&#x33;" d="M460 194Q460 99 401 46Q342-7 251-7Q162-7 104 40.50Q46 88 42 181L114 181Q118 118 156.50 87.50Q195 57 251 57Q310 57 349 94Q388 131 388 195Q388 333 248 333L233 333L233 396L248 396Q312 396 343.50 429.50Q375 463 375 525Q375 587 340 621Q305 655 251 655Q195 655 161.50 623Q128 591 123 536L51 536Q57 621 112.50 670Q168 719 251 719Q338 719 392.50 666Q447 613 447 526Q447 412 351 368Q460 327 460 194Z"  horiz-adv-x="522" vert-adv-y="1000"  />

      
      <glyph glyph-name="uni34" unicode="&#x34;" d="M482 113L395 113L395 0L324 0L324 113L40 113L40 178L297 712L374 712L117 178L324 178L324 380L395 380L395 178L482 178L482 113Z"  horiz-adv-x="522" vert-adv-y="1000"  />

      
      <glyph glyph-name="uni35" unicode="&#x35;" d="M462 235Q462 171 451 126Q440 81 405 46Q352-7 263-7Q171-7 120 44Q76 89 70 168L142 168Q156 57 263 57Q318 57 351 90Q390 129 390 235Q390 272 385.50 299.50Q381 327 369 353.50Q357 380 332 394Q307 408 270 408Q224 408 193.50 389Q163 370 152 338L87 338L87 712L447 712L447 648L152 648L152 422Q196 471 280 471Q358 471 403 426Q462 367 462 235Z"  horiz-adv-x="522" vert-adv-y="1000"  />

      
      <glyph glyph-name="uni36" unicode="&#x36;" d="M460 205Q460 113 406 53.50Q352-6 263-6Q173-6 119 50Q65 106 65 199Q65 269 110 359L285 712L359 712L200 392Q233 407 275 407Q358 407 409 350.50Q460 294 460 205M388 202Q388 264 354.50 305Q321 346 262 346Q205 346 171 307Q137 268 137 202Q137 137 171 97.50Q205 58 262 58Q319 58 353.50 97.50Q388 137 388 202Z"  horiz-adv-x="522" vert-adv-y="1000"  />

      
      <glyph glyph-name="uni37" unicode="&#x37;" d="M471 648L224 0L148 0L395 648L147 648L147 536L76 536L76 712L471 712L471 648Z"  horiz-adv-x="522" vert-adv-y="1000"  />

      
      <glyph glyph-name="uni38" unicode="&#x38;" d="M471 196Q471 107 411 50.50Q351-6 261-6Q171-6 111 50.50Q51 107 51 196Q51 308 158 369Q65 422 65 527Q65 610 120.50 664Q176 718 261 718Q346 718 401.50 664Q457 610 457 527Q457 422 365 369Q471 309 471 196M359.50 98Q359.50 98 379.25 118Q399 138 399 197Q399 256 359.50 296Q320 336 261 336Q202 336 162.50 296Q123 256 123 197Q123 138 162.50 98Q202 58 261 58Q320 58 359.50 98M350.50 434.50Q350.50 434.50 367.75 452.25Q385 470 385 526Q385 582 350.50 618Q316 654 261 654Q206 654 171.50 618Q137 582 137 526Q137 470 171.50 434.50Q206 399 261 399Q316 399 350.50 434.50Z"  horiz-adv-x="522" vert-adv-y="1000"  />

      
      <glyph glyph-name="uni39" unicode="&#x39;" d="M457 513Q457 443 412 353L237 0L162 0L322 320Q289 305 246 305Q164 305 113 361.50Q62 418 62 507Q62 599 116 658.50Q170 718 259 718Q349 718 403 662Q457 606 457 513M385 510Q385 575 350.50 614.50Q316 654 259 654Q202 654 168 614.50Q134 575 134 510Q134 448 167 407Q200 366 259 366Q316 366 350.50 405Q385 444 385 510Z"  horiz-adv-x="522" vert-adv-y="1000"  />

      
      <glyph glyph-name="uni3a" unicode="&#x3a;" d="M209 301L115 301L115 395L209 395L209 301M209 0L115 0L115 94L209 94L209 0Z"  horiz-adv-x="297" vert-adv-y="1000"  />

      
      <glyph glyph-name="uni3b" unicode="&#x3b;" d="M205-65L117-144L117 88L205 88L205-65M209 301L115 301L115 395L209 395L209 301Z"  horiz-adv-x="297" vert-adv-y="1000"  />

      
      <glyph glyph-name="uni3c" unicode="&#x3c;" d="M426 68L95 236L95 302L426 470L426 393L176 269L426 145L426 68Z"  horiz-adv-x="522" vert-adv-y="1000"  />

      
      <glyph glyph-name="uni3d" unicode="&#x3d;" d="M470 320L52 320L52 387L470 387L470 320M470 151L52 151L52 217L470 217L470 151Z"  horiz-adv-x="522" vert-adv-y="1000"  />

      
      <glyph glyph-name="uni3e" unicode="&#x3e;" d="M426 236L95 68L95 145L345 269L95 393L95 470L426 302L426 236Z"  horiz-adv-x="522" vert-adv-y="1000"  />

      
      <glyph glyph-name="uni3f" unicode="&#x3f;" d="M451 536Q451 481 406 415L324 297Q306 270 306 239L306 200L234 200L234 240Q234 290 265 334L346 451Q379 500 379 536Q379 587 346.50 620.50Q314 654 264 654Q212 654 180 619Q148 584 148 535L76 535Q76 612 130 665Q184 718 264 718Q344 718 397.50 666.50Q451 615 451 536M313 0L227 0L227 84L313 84L313 0Z"  horiz-adv-x="497" vert-adv-y="1000"  />

      
      <glyph glyph-name="uni40" unicode="&#x40;" d="M641 0L572 0L572 55Q523-7 438-7Q350-7 302 54Q277 85 267.50 126.50Q258 168 258 238Q258 367 299 421Q345 483 437 483Q520 483 571 420L571 498Q571 572 532 612Q492 652 421 652L291 652Q222 652 182 612Q160 590 151 564.50Q142 539 142 498L142 161Q142 114 153.50 89.50Q165 65 199 40L150-9Q104 25 88 59.50Q72 94 72 160L72 496Q72 600 128 657Q183 713 282 713L430 713Q528 713 584 657Q641 600 641 496L641 0M571 238Q571 277 566.50 306.50Q562 336 550 363.50Q538 391 513 406Q488 421 450 421Q379 421 354 371.50Q329 322 329 238Q329 199 333.50 169.50Q338 140 350 112.50Q362 85 387 70Q412 55 450 55Q521 55 546 104.50Q571 154 571 238Z"  horiz-adv-x="713" vert-adv-y="1000"  />

      
      <glyph glyph-name="uni41" unicode="&#x41;" d="M599 0L518 0L461 161L150 161L93 0L12 0L274 712L338 712L599 0M439 227L307 603L173 227L439 227Z"  horiz-adv-x="611" vert-adv-y="1000"  />

      
      <glyph glyph-name="uni42" unicode="&#x42;" d="M592 197Q592 102 534.50 51Q477 0 380 0L103 0L103 712L371 712Q465 712 523 661Q581 610 581 522Q581 467 551.50 425Q522 383 476 366Q529 347 560.50 303Q592 259 592 197M477.50 103.50Q477.50 103.50 496.75 121.25Q516 139 516 199Q516 259 477.50 294Q439 329 373 329L179 329L179 68L373 68Q439 68 477.50 103.50M466 428.50Q466 428.50 485.50 444.25Q505 460 505 521Q505 582 466.50 613Q428 644 365 644L179 644L179 397L365 397Q427 397 466 428.50Z"  horiz-adv-x="668" vert-adv-y="1000"  />

      
      <glyph glyph-name="uni43" unicode="&#x43;" d="M572 206Q553 107 487 50.50Q421-6 325-6Q217-6 147 64Q100 111 88 167Q76 223 76 356Q76 489 88 545Q100 601 147 648Q217 718 325 718Q422 718 487.50 662Q553 606 572 506L494 506Q480 573 435.50 611.50Q391 650 325 650Q252 650 202 600Q170 567 161 519.50Q152 472 152 356Q152 240 161 192.50Q170 145 202 112Q252 62 325 62Q391 62 436.50 100.50Q482 139 496 206L572 206Z"  horiz-adv-x="637" vert-adv-y="1000"  />

      
      <glyph glyph-name="uni44" unicode="&#x44;" d="M595 466Q595 466 596 447Q597 428 597 356Q597 284 595 246Q593 208 578 157.50Q563 107 534 75Q465 0 347 0L103 0L103 712L347 712Q465 712 534 637Q563 605 578 554.50Q593 504 595 466M519 259Q519 259 520 276Q521 293 521 356Q521 419 519 453Q517 487 506.50 528Q496 569 474 592Q427 644 334 644L179 644L179 68L334 68Q427 68 474 120Q496 143 506.50 184Q517 225 519 259Z"  horiz-adv-x="673" vert-adv-y="1000"  />

      
      <glyph glyph-name="uni45" unicode="&#x45;" d="M545 0L103 0L103 712L545 712L545 644L179 644L179 393L491 393L491 325L179 325L179 68L545 68L545 0Z"  horiz-adv-x="600" vert-adv-y="1000"  />

      
      <glyph glyph-name="uni46" unicode="&#x46;" d="M545 644L179 644L179 382L491 382L491 314L179 314L179 0L103 0L103 712L545 712L545 644Z"  horiz-adv-x="580" vert-adv-y="1000"  />

      
      <glyph glyph-name="uni47" unicode="&#x47;" d="M576 259Q576 196 562.50 155Q549 114 515 76Q440-6 325-6Q217-6 147 64Q100 111 88 167Q76 223 76 356Q76 489 88 545Q100 601 147 648Q217 718 325 718Q424 718 491.50 658.50Q559 599 574 505L498 505Q483 573 437.50 611.50Q392 650 325 650Q250 650 202 600Q170 567 161 519.50Q152 472 152 356Q152 240 161 192.50Q170 145 202 112Q250 62 325 62Q410 62 460 123Q500 173 500 252L500 307L325 307L325 372L576 372L576 259Z"  horiz-adv-x="650" vert-adv-y="1000"  />

      
      <glyph glyph-name="uni48" unicode="&#x48;" d="M593 0L517 0L517 325L179 325L179 0L103 0L103 712L179 712L179 393L517 393L517 712L593 712L593 0Z"  horiz-adv-x="696" vert-adv-y="1000"  />

      
      <glyph glyph-name="uni49" unicode="&#x49;" d="M179 0L103 0L103 712L179 712L179 0Z"  horiz-adv-x="282" vert-adv-y="1000"  />

      
      <glyph glyph-name="uni4a" unicode="&#x4a;" d="M408 216Q408 114 346.50 54Q285-6 186-6Q87-6 23 58L74 109Q97 86 121.50 74Q146 62 186 62Q256 62 294 104.50Q332 147 332 226L332 712L408 712L408 216Z"  horiz-adv-x="501" vert-adv-y="1000"  />

      
      <glyph glyph-name="uni4b" unicode="&#x4b;" d="M636 0L546 0L329 379L179 199L179 0L103 0L103 712L179 712L179 303L511 712L604 712L380 437L636 0Z"  horiz-adv-x="650" vert-adv-y="1000"  />

      
      <glyph glyph-name="uni4c" unicode="&#x4c;" d="M543 0L103 0L103 712L179 712L179 68L543 68L543 0Z"  horiz-adv-x="573" vert-adv-y="1000"  />

      
      <glyph glyph-name="uni4d" unicode="&#x4d;" d="M713 0L637 0L637 541L442 112L377 112L179 541L179 0L103 0L103 712L179 712L411 207L637 712L713 712L713 0Z"  horiz-adv-x="816" vert-adv-y="1000"  />

      
      <glyph glyph-name="uni4e" unicode="&#x4e;" d="M629 0L557 0L179 571L179 0L103 0L103 712L175 712L553 143L553 712L629 712L629 0Z"  horiz-adv-x="732" vert-adv-y="1000"  />

      
      <glyph glyph-name="uni4f" unicode="&#x4f;" d="M562 544Q562 544 568 516Q574 488 574 356Q574 224 562 168Q550 112 502 64Q432-6 325-6Q217-6 147 64Q100 111 88 167Q76 223 76 356Q76 489 88 545Q100 601 147 648Q217 718 325 718Q432 718 502 648Q550 600 562 544M489 192.50Q489 192.50 493.50 216.25Q498 240 498 356Q498 472 489 519.50Q480 567 448 600Q398 650 325 650Q252 650 202 600Q170 567 161 519.50Q152 472 152 356Q152 240 161 192.50Q170 145 202 112Q252 62 325 62Q398 62 448 112Q480 145 489 192.50Z"  horiz-adv-x="650" vert-adv-y="1000"  />

      
      <glyph glyph-name="uni50" unicode="&#x50;" d="M588 503Q588 408 526.50 350.50Q465 293 368 293L179 293L179 0L103 0L103 712L368 712Q466 712 527 654.50Q588 597 588 503M471.50 397.50Q471.50 397.50 491.75 415.75Q512 434 512 503Q512 572 471.50 608Q431 644 362 644L179 644L179 361L362 361Q431 361 471.50 397.50Z"  horiz-adv-x="630" vert-adv-y="1000"  />

      
      <glyph glyph-name="uni51" unicode="&#x51;" d="M574 356Q574 237 565.50 184Q557 131 525 89L603 11L557-35L478 43Q416-6 325-6Q217-6 147 64Q100 111 88 167Q76 223 76 356Q76 489 88 545Q100 601 147 648Q217 718 325 718Q432 718 502 648Q550 600 562 544Q574 488 574 356M498 356Q498 472 489 519.50Q480 567 448 600Q400 650 325 650Q250 650 202 600Q170 567 161 519.50Q152 472 152 356Q152 240 161 192.50Q170 145 202 112Q250 62 325 62Q385 62 426 96L336 186L382 232L468 145Q487 175 492.50 219Q498 263 498 356Z"  horiz-adv-x="649" vert-adv-y="1000"  />

      
      <glyph glyph-name="uni52" unicode="&#x52;" d="M601 0L512 0L350 316L179 316L179 0L103 0L103 712L376 712Q470 712 528.50 658.50Q587 605 587 514Q587 438 545 388Q503 338 432 323L601 0M472.50 416.50Q472.50 416.50 491.75 433.25Q511 450 511 513Q511 576 472 610Q433 644 369 644L179 644L179 383L369 383Q434 383 472.50 416.50Z"  horiz-adv-x="656" vert-adv-y="1000"  />

      
      <glyph glyph-name="uni53" unicode="&#x53;" d="M532 196Q532 103 465 48.50Q398-6 286-6Q206-6 149 16Q92 38 43 88L94 139Q137 96 181.50 79Q226 62 288 62Q367 62 412 96.50Q457 131 457 194Q457 252 422 283Q395 308 329 318L246 330Q162 343 116 384Q61 433 61 518Q61 609 122.50 663.50Q184 718 289 718Q356 718 405.50 699.50Q455 681 501 640L452 591Q387 653 286 653Q215 653 175 617Q135 581 135 520Q135 465 167 437Q198 410 260 400L343 387Q393 379 420.50 368.50Q448 358 472 336Q532 284 532 196Z"  horiz-adv-x="588" vert-adv-y="1000"  />

      
      <glyph glyph-name="uni54" unicode="&#x54;" d="M518 644L312 644L312 0L236 0L236 644L30 644L30 712L518 712L518 644Z"  horiz-adv-x="548" vert-adv-y="1000"  />

      
      <glyph glyph-name="uni55" unicode="&#x55;" d="M590 235Q590 129 519.50 61.50Q449-6 341-6Q233-6 163 61.50Q93 129 93 235L93 712L169 712L169 241Q169 160 216 111Q263 62 341 62Q419 62 466.50 111Q514 160 514 241L514 712L590 712L590 235Z"  horiz-adv-x="683" vert-adv-y="1000"  />

      
      <glyph glyph-name="uni56" unicode="&#x56;" d="M538 712L304 0L242 0L8 712L88 712L273 136L458 712L538 712Z"  horiz-adv-x="546" vert-adv-y="1000"  />

      
      <glyph glyph-name="uni57" unicode="&#x57;" d="M838 712L656 0L585 0L427 570L269 0L198 0L16 712L97 712L236 138L393 712L461 712L618 138L757 712L838 712Z"  horiz-adv-x="854" vert-adv-y="1000"  />

      
      <glyph glyph-name="uni58" unicode="&#x58;" d="M536 0L448 0L275 299L101 0L15 0L233 365L29 712L117 712L275 431L433 712L521 712L316 365L536 0Z"  horiz-adv-x="551" vert-adv-y="1000"  />

      
      <glyph glyph-name="uni59" unicode="&#x59;" d="M506 712L296 294L296 0L220 0L220 294L8 712L90 712L258 371L424 712L506 712Z"  horiz-adv-x="514" vert-adv-y="1000"  />

      
      <glyph glyph-name="uni5a" unicode="&#x5a;" d="M499 0L57 0L57 72L413 644L71 644L71 712L499 712L499 648L140 68L499 68L499 0Z"  horiz-adv-x="556" vert-adv-y="1000"  />

      
      <glyph glyph-name="uni5b" unicode="&#x5b;" d="M269-74L92-74L92 786L269 786L269 722L164 722L164-10L269-10L269-74Z"  horiz-adv-x="313" vert-adv-y="1000"  />

      
      <glyph glyph-name="uni5c" unicode="&#x5c;" d="M355-74L284-74L0 783L71 783L355-74Z"  horiz-adv-x="355" vert-adv-y="1000"  />

      
      <glyph glyph-name="uni5d" unicode="&#x5d;" d="M221-74L44-74L44-12L152-12L152 724L44 724L44 786L221 786L221-74Z"  horiz-adv-x="313" vert-adv-y="1000"  />

      
      <glyph glyph-name="uni5e" unicode="&#x5e;" d="M465 413L391 413L269 641L146 413L72 413L236 718L302 718L465 413Z"  horiz-adv-x="537" vert-adv-y="1000"  />

      
      <glyph glyph-name="uni5f" unicode="&#x5f;" d="M537-165L0-165L0-114L537-114L537-165Z"  horiz-adv-x="537" vert-adv-y="1000"  />

      
      <glyph glyph-name="uni60" unicode="&#x60;" d="M299 594L233 594L125 747L211 747L299 594Z"  horiz-adv-x="500" vert-adv-y="1000"  />

      
      <glyph glyph-name="uni61" unicode="&#x61;" d="M441 0L369 0L369 47Q340 18 308 6Q276-6 227-6Q134-6 88 39Q51 75 51 139Q51 205 95.50 243Q140 281 222 281L369 281L369 328Q369 383 339.50 409.50Q310 436 243 436Q197 436 169.50 423Q142 410 119 379L70 424Q101 466 141 482Q181 498 244 498Q441 498 441 334L441 0M369 174L369 227L232 227Q121 227 121 140Q121 56 235 56Q308 56 344 89Q369 113 369 174Z"  horiz-adv-x="526" vert-adv-y="1000"  />

      
      <glyph glyph-name="uni62" unicode="&#x62;" d="M481 246Q481 98 421 37Q378-6 301-6Q213-6 162 59L162 0L90 0L90 712L162 712L162 435Q213 498 301 498Q378 498 421 455Q481 395 481 246M404.50 175Q404.50 175 406.75 190Q409 205 409 246Q409 287 404.50 317Q400 347 388 375.50Q376 404 350 419Q324 434 286 434Q255 434 232 423.50Q209 413 195.50 396Q182 379 174.50 353Q167 327 164.50 302.50Q162 278 162 246Q162 214 164.50 189.50Q167 165 174.50 139Q182 113 195.50 96Q209 79 232 68.50Q255 58 286 58Q324 58 350 73Q376 88 388 116.50Q400 145 404.50 175Z"  horiz-adv-x="545" vert-adv-y="1000"  />

      
      <glyph glyph-name="uni63" unicode="&#x63;" d="M443 67Q405 26 369 10Q333-6 281-6Q184-6 123.50 59Q63 124 63 246Q63 368 123.50 433Q184 498 281 498Q333 498 369 482Q405 466 443 425L394 379Q366 410 341 422Q316 434 281 434Q206 434 167 378Q135 333 135 246Q135 159 167 114Q206 58 281 58Q316 58 341 70.50Q366 83 394 114L443 67Z"  horiz-adv-x="490" vert-adv-y="1000"  />

      
      <glyph glyph-name="uni64" unicode="&#x64;" d="M455 0L384 0L384 59Q355 22 322 8Q289-6 244-6Q167-6 124 37Q64 98 64 246Q64 395 124 455Q167 498 244 498Q289 498 321.50 484.50Q354 471 383 435L383 712L455 712L455 0M378.50 175Q378.50 175 380.75 190Q383 205 383 246Q383 287 378.50 317Q374 347 362 375.50Q350 404 324 419Q298 434 260 434Q229 434 206 423.50Q183 413 169.50 396Q156 379 148.50 353Q141 327 138.50 302.50Q136 278 136 246Q136 214 138.50 189.50Q141 165 148.50 139Q156 113 169.50 96Q183 79 206 68.50Q229 58 260 58Q298 58 324 73Q350 88 362 116.50Q374 145 378.50 175Z"  horiz-adv-x="545" vert-adv-y="1000"  />

      
      <glyph glyph-name="uni65" unicode="&#x65;" d="M467 227L135 227Q135 145 172 101Q209 57 280 57Q322 57 350.50 70Q379 83 409 113L458 70Q418 30 378 12Q338-6 278-6Q176-6 119.50 56.50Q63 119 63 246Q63 365 117 431.50Q171 498 265 498Q360 498 413.50 434.50Q467 371 467 259L467 227M396 281Q392 338 380 363Q345 437 265 437Q185 437 150 363Q138 337 135 281L396 281Z"  horiz-adv-x="530" vert-adv-y="1000"  />

      
      <glyph glyph-name="uni66" unicode="&#x66;" d="M283 437L178 437L178 0L106 0L106 437L43 437L43 492L106 492L106 582Q106 640 138.50 677Q171 714 231 714L283 714L283 652L244 652Q178 652 178 580L178 492L283 492L283 437Z"  horiz-adv-x="314" vert-adv-y="1000"  />

      
      <glyph glyph-name="uni67" unicode="&#x67;" d="M453-15Q453-108 398-167Q343-226 248-226Q194-226 157.50-211Q121-196 81-160L128-114Q158-141 182-152Q206-163 246-163Q314-163 347.50-121Q381-79 381-12L381 65Q331 1 243 1Q168 1 124 45Q64 105 64 250Q64 395 124 455Q167 498 244 498Q333 498 382 434L382 492L453 492L453-15M376.50 182Q376.50 182 378.75 196.50Q381 211 381 250Q381 289 376.50 318Q372 347 360 375.50Q348 404 322.50 419Q297 434 259 434Q221 434 195 419Q169 404 157 375.50Q145 347 140.50 318Q136 289 136 250Q136 211 140.50 182Q145 153 157 124.50Q169 96 195 81Q221 66 259 66Q297 66 322.50 81Q348 96 360 124.50Q372 153 376.50 182Z"  horiz-adv-x="543" vert-adv-y="1000"  />

      
      <glyph glyph-name="uni68" unicode="&#x68;" d="M477 0L405 0L405 304Q405 368 373.50 401Q342 434 285 434Q227 434 194.50 401Q162 368 162 304L162 0L90 0L90 712L162 712L162 438Q216 498 300 498Q383 498 430 449Q477 400 477 316L477 0Z"  horiz-adv-x="562" vert-adv-y="1000"  />

      
      <glyph glyph-name="uni69" unicode="&#x69;" d="M162 0L90 0L90 492L162 492L162 0M167 632L86 632L86 713L167 713L167 632Z"  horiz-adv-x="252" vert-adv-y="1000"  />

      
      <glyph glyph-name="uni6a" unicode="&#x6a;" d="M162-89Q162-148 130.50-184.50Q99-221 37-221L-15-221L-15-158L24-158Q60-158 75-140.50Q90-123 90-86L90 492L162 492L162-89M167 632L86 632L86 713L167 713L167 632Z"  horiz-adv-x="253" vert-adv-y="1000"  />

      
      <glyph glyph-name="uni6b" unicode="&#x6b;" d="M503 0L414 0L258 252L162 142L162 0L90 0L90 712L162 712L162 236L384 492L474 492L307 304L503 0Z"  horiz-adv-x="536" vert-adv-y="1000"  />

      
      <glyph glyph-name="uni6c" unicode="&#x6c;" d="M265 0L213 0Q151 0 119.50 36Q88 72 88 131L88 712L160 712L160 134Q160 97 175 79.50Q190 62 226 62L265 62L265 0Z"  horiz-adv-x="294" vert-adv-y="1000"  />

      
      <glyph glyph-name="uni6d" unicode="&#x6d;" d="M794 0L722 0L722 303Q722 367 690 400.50Q658 434 601 434Q546 434 512 401Q478 368 478 311L478 0L406 0L406 303Q406 367 374 400.50Q342 434 285 434Q228 434 195 400Q162 366 162 303L162 0L90 0L90 492L162 492L162 438Q214 498 301 498Q406 498 452 416Q510 498 614 498Q693 498 741 452Q794 401 794 315L794 0Z"  horiz-adv-x="879" vert-adv-y="1000"  />

      
      <glyph glyph-name="uni6e" unicode="&#x6e;" d="M477 0L405 0L405 303Q405 367 373 400.50Q341 434 284 434Q227 434 194.50 400Q162 366 162 303L162 0L90 0L90 492L162 492L162 438Q214 498 300 498Q380 498 426 452Q477 402 477 315L477 0Z"  horiz-adv-x="562" vert-adv-y="1000"  />

      
      <glyph glyph-name="uni6f" unicode="&#x6f;" d="M466 246Q466 111 406 50Q352-6 265-6Q178-6 124 50Q64 111 64 246Q64 382 124 442Q178 498 265 498Q352 498 406 442Q466 382 466 246M394 246Q394 359 355 398Q319 434 265 434Q212 434 176 398Q136 358 136 246Q136 134 176 94Q212 58 265 58Q319 58 355 94Q394 134 394 246Z"  horiz-adv-x="530" vert-adv-y="1000"  />

      
      <glyph glyph-name="uni70" unicode="&#x70;" d="M481 246Q481 98 421 37Q378-6 301-6Q213-6 162 58L162-220L90-220L90 492L162 492L162 434Q213 498 301 498Q378 498 421 455Q481 395 481 246M404.50 175Q404.50 175 406.75 190Q409 205 409 246Q409 287 404.50 317Q400 347 388 375.50Q376 404 350 419Q324 434 286 434Q255 434 232 423.50Q209 413 195.50 396Q182 379 174.50 353Q167 327 164.50 302.50Q162 278 162 246Q162 214 164.50 189.50Q167 165 174.50 139Q182 113 195.50 96Q209 79 232 68.50Q255 58 286 58Q324 58 350 73Q376 88 388 116.50Q400 145 404.50 175Z"  horiz-adv-x="545" vert-adv-y="1000"  />

      
      <glyph glyph-name="uni71" unicode="&#x71;" d="M455-220L383-220L383 58Q332-6 244-6Q167-6 124 37Q64 98 64 246Q64 395 124 455Q167 498 244 498Q333 498 384 434L384 492L455 492L455-220M378.50 175Q378.50 175 380.75 190Q383 205 383 246Q383 287 378.50 317Q374 347 362 375.50Q350 404 324 419Q298 434 260 434Q229 434 206 423.50Q183 413 169.50 396Q156 379 148.50 353Q141 327 138.50 302.50Q136 278 136 246Q136 214 138.50 189.50Q141 165 148.50 139Q156 113 169.50 96Q183 79 206 68.50Q229 58 260 58Q298 58 324 73Q350 88 362 116.50Q374 145 378.50 175Z"  horiz-adv-x="545" vert-adv-y="1000"  />

      
      <glyph glyph-name="uni72" unicode="&#x72;" d="M418 452L365 398Q345 418 326.50 426Q308 434 280 434Q227 434 194.50 396.50Q162 359 162 302L162 0L90 0L90 492L162 492L162 432Q182 463 219.50 480.50Q257 498 300 498Q372 498 418 452Z"  horiz-adv-x="421" vert-adv-y="1000"  />

      
      <glyph glyph-name="uni73" unicode="&#x73;" d="M445 144Q445 74 390.50 34Q336-6 245-6Q115-6 43 65L91 113Q145 56 244 56Q306 56 340.50 78Q375 100 375 143Q375 208 293 215L212 222Q65 234 65 354Q65 420 115 459Q165 498 246 498Q357 498 423 445L376 398Q325 437 245 437Q192 437 163.50 416Q135 395 135 356Q135 323 156 306Q177 289 223 284L300 277Q370 270 407.50 240Q445 210 445 144Z"  horiz-adv-x="496" vert-adv-y="1000"  />

      
      <glyph glyph-name="uni74" unicode="&#x74;" d="M279 0L228 0Q167 0 134.50 37Q102 74 102 132L102 437L40 437L40 492L102 492L102 643L174 643L174 492L279 492L279 437L174 437L174 134Q174 62 241 62L279 62L279 0Z"  horiz-adv-x="332" vert-adv-y="1000"  />

      
      <glyph glyph-name="uni75" unicode="&#x75;" d="M472 0L401 0L401 55Q348-6 262-6Q181-6 135 40Q85 89 85 178L85 492L157 492L157 189Q157 125 188.50 91.50Q220 58 277 58Q334 58 367 92Q400 126 400 189L400 492L472 492L472 0Z"  horiz-adv-x="562" vert-adv-y="1000"  />

      
      <glyph glyph-name="uni76" unicode="&#x76;" d="M436 492L255 0L191 0L11 492L89 492L223 97L358 492L436 492Z"  horiz-adv-x="447" vert-adv-y="1000"  />

      
      <glyph glyph-name="uni77" unicode="&#x77;" d="M713 492L558 0L491 0L362 382L234 0L167 0L11 492L89 492L202 97L331 492L393 492L523 97L635 492L713 492Z"  horiz-adv-x="724" vert-adv-y="1000"  />

      
      <glyph glyph-name="uni78" unicode="&#x78;" d="M445 0L358 0L240 191L120 0L33 0L200 251L40 492L127 492L240 310L351 492L438 492L278 251L445 0Z"  horiz-adv-x="478" vert-adv-y="1000"  />

      
      <glyph glyph-name="uni79" unicode="&#x79;" d="M436 492L212-119Q198-158 177-177Q142-211 81-211L50-211L50-147L72-147Q108-147 124.50-134Q141-121 153-86L188 10L11 492L89 492L224 97L358 492L436 492Z"  horiz-adv-x="447" vert-adv-y="1000"  />

      
      <glyph glyph-name="uni7a" unicode="&#x7a;" d="M407 0L50 0L50 62L324 428L65 428L65 492L407 492L407 431L132 64L407 64L407 0Z"  horiz-adv-x="459" vert-adv-y="1000"  />

      
      <glyph glyph-name="uni7b" unicode="&#x7b;" d="M305-74L268-74Q197-74 167-44Q137-14 137 55L137 246Q137 288 119 306Q101 324 74 324L48 324L48 388L74 388Q101 388 119 406Q137 424 137 466L137 657Q137 726 167 756Q197 786 268 786L305 786L305 722L282 722Q236 722 223 709Q209 695 209 644L209 456Q209 416 193 393.50Q177 371 146 356Q177 341 193 318.50Q209 296 209 256L209 68Q209 17 223 3Q236-10 282-10L305-10L305-74Z"  horiz-adv-x="354" vert-adv-y="1000"  />

      
      <glyph glyph-name="uni7c" unicode="&#x7c;" d="M199-74L127-74L127 786L199 786L199-74Z"  horiz-adv-x="326" vert-adv-y="1000"  />

      
      <glyph glyph-name="uni7d" unicode="&#x7d;" d="M305 324L280 324Q253 324 235 306Q217 288 217 246L217 55Q217-14 187-44Q157-74 86-74L48-74L48-10L72-10Q117-10 130 3Q145 18 145 68L145 256Q145 296 161 318.50Q177 341 208 356Q177 371 161 393.50Q145 416 145 456L145 644Q145 694 130 709Q117 722 72 722L48 722L48 786L86 786Q157 786 187 756Q217 726 217 657L217 466Q217 424 235 406Q253 388 280 388L305 388L305 324Z"  horiz-adv-x="354" vert-adv-y="1000"  />

      
      <glyph glyph-name="uni7e" unicode="&#x7e;" d="M490 278Q449 237 422.50 223.50Q396 210 361 210Q324 210 255 241Q203 265 177 265Q155 265 138 256.50Q121 248 93 220L49 265Q90 306 116.50 319.50Q143 333 178 333Q214 333 283 302Q335 278 361 278Q383 278 400 286.50Q417 295 445 323L490 278Z"  horiz-adv-x="539" vert-adv-y="1000"  />

      
      <glyph glyph-name="unia1" unicode="&#xa1;" d="M184-220L101-220L111 292L173 292L184-220M185 408L99 408L99 492L185 492L185 408Z"  horiz-adv-x="316" vert-adv-y="1000"  />

      
      <glyph glyph-name="unia2" unicode="&#xa2;" d="M448 189Q414 152 380.50 135Q347 118 303 115L303 0L244 0L244 117Q160 129 111.50 194.50Q63 260 63 366Q63 472 111.50 537.50Q160 603 244 615L244 712L303 712L303 617Q347 614 380.50 597Q414 580 448 543L399 497Q354 548 299 552L299 180Q354 184 399 235L448 189M248 182L248 550Q199 541 168 498Q135 452 135 366Q135 280 168 234Q199 191 248 182Z"  horiz-adv-x="498" vert-adv-y="1000"  />

      
      <glyph glyph-name="unia3" unicode="&#xa3;" d="M496 0L110 0L110 330L47 330L47 384L110 384L110 496Q110 597 172 657.50Q234 718 333 718Q432 718 496 654L444 603Q420 627 396.50 638.50Q373 650 333 650Q263 650 225 607.50Q187 565 187 486L187 384L333 384L333 330L187 330L187 68L496 68L496 0Z"  horiz-adv-x="548" vert-adv-y="1000"  />

      
      <glyph glyph-name="unia4" unicode="&#xa4;" d="M582 65L536 19L461 93Q402 49 330 49Q257 49 198 93L124 19L78 65L152 139Q108 198 108 271Q108 344 152 403L78 476L124 522L198 449Q255 492 330 492Q404 492 461 449L536 522L582 476L508 403Q552 344 552 271Q552 198 508 139L582 65M439.50 160.50Q439.50 160.50 462.25 183.25Q485 206 485 271Q485 336 439.50 381Q394 426 330 426Q265 426 219.50 380.50Q174 335 174 271Q174 206 220 160.50Q266 115 330 115Q394 115 439.50 160.50Z"  horiz-adv-x="660" vert-adv-y="1000"  />

      
      <glyph glyph-name="unia5" unicode="&#xa5;" d="M506 712L349 401L449 401L449 347L322 347L296 294L296 242L449 242L449 187L296 187L296 0L219 0L219 187L65 187L65 242L219 242L219 294L193 347L65 347L65 401L165 401L8 712L90 712L258 371L425 712L506 712Z"  horiz-adv-x="514" vert-adv-y="1000"  />

      
      <glyph glyph-name="unia6" unicode="&#xa6;" d="M199 436L127 436L127 786L199 786L199 436M199-74L127-74L127 276L199 276L199-74Z"  horiz-adv-x="335" vert-adv-y="1000"  />

      
      <glyph glyph-name="unia7" unicode="&#xa7;" d="M470 254Q470 197 440 154.50Q410 112 366 90Q410 74 436.50 36.50Q463-1 463-54Q463-131 410.50-178.50Q358-226 279-226Q201-226 147.50-184Q94-142 90-65L163-65Q167-111 197.50-135.50Q228-160 279-160Q331-160 360.50-132.50Q390-105 390-55Q390-20 366.50 7.50Q343 35 302 47L224 69Q158 88 122.50 135.50Q87 183 87 252Q87 310 117 352Q147 394 192 416Q99 458 99 554Q99 627 149.50 672.50Q200 718 279 718Q358 718 408 675.50Q458 633 461 561L389 561Q382 654 279 654Q228 654 199.50 628.50Q171 603 171 555Q171 483 255 459L333 437Q398 418 434 370Q470 322 470 254M397 253Q397 313 365 345Q329 381 279 381Q226 381 193 345Q160 309 160 253Q160 197 193 161Q226 125 279 125Q332 125 365 161Q397 196 397 253Z"  horiz-adv-x="557" vert-adv-y="1000"  />

      
      <glyph glyph-name="unia8" unicode="&#xa8;" d="M392 602L320 602L320 691L392 691L392 602M180 602L108 602L108 691L180 691L180 602Z"  horiz-adv-x="500" vert-adv-y="1000"  />

      
      <glyph glyph-name="unia9" unicode="&#xa9;" d="M696 612Q696 612 749 559Q802 506 802 356Q802 206 696 100Q590-6 440-6Q290-6 184 100Q78 206 78 356Q78 506 184 612Q290 718 440 718Q590 718 696 612M655 138.50Q655 138.50 699.50 183.75Q744 229 744 356Q744 483 655 573.50Q566 664 440 664Q314 664 225.50 573.50Q137 483 137 356Q137 229 225.50 138.50Q314 48 440 48Q566 48 655 138.50M576 205Q518 153 445 153Q360 153 313.50 209Q267 265 267 356Q267 447 313.50 503.50Q360 560 445 560Q516 560 576 507L540 471Q496 510 445 510Q381 510 352 467.50Q323 425 323 356Q323 287 352 245Q381 203 445 203Q497 203 540 241L576 205Z"  horiz-adv-x="881" vert-adv-y="1000"  />

      
      <glyph glyph-name="uniaa" unicode="&#xaa;" d="M365 319L307 319L307 355Q265 314 196 314Q122 314 86 350Q56 382 56 429Q56 482 91.50 512.50Q127 543 191 543L306 543L306 579Q306 622 283.50 642.50Q261 663 209 663Q172 663 150.50 653.50Q129 644 111 619L70 656Q96 689 128.50 702.50Q161 716 210 716Q365 716 365 584L365 319M306 458L306 498L199 498Q115 498 115 431Q115 366 201 366Q261 366 287 391Q306 409 306 458Z"  horiz-adv-x="449" vert-adv-y="1000"  />

      
      <glyph glyph-name="uniab" unicode="&#xab;" d="M250 58L40 268L250 478L250 388L130 268L250 147L250 58M476 58L266 268L476 478L476 388L355 268L476 147L476 58Z"  horiz-adv-x="554" vert-adv-y="1000"  />

      
      <glyph glyph-name="uniac" unicode="&#xac;" d="M471 103L404 103L404 240L51 240L51 307L471 307L471 103Z"  horiz-adv-x="522" vert-adv-y="1000"  />

      
      <glyph glyph-name="uniad" unicode="&#xad;" d="M350 236L76 236L76 303L350 303L350 236Z"  horiz-adv-x="426" vert-adv-y="1000"  />

      
      <glyph glyph-name="uniae" unicode="&#xae;" d="M696 612Q696 612 749 559Q802 506 802 356Q802 206 696 100Q590-6 440-6Q290-6 184 100Q78 206 78 356Q78 506 184 612Q290 718 440 718Q590 718 696 612M655.50 137.50Q655.50 137.50 700.25 182.75Q745 228 745 356Q745 484 655.50 574.50Q566 665 440 665Q314 665 225 574.50Q136 484 136 356Q136 228 225 137.50Q314 47 440 47Q566 47 655.50 137.50M592 158L528 158L437 320L377 320L377 158L322 158L322 555L457 555Q509 555 545.50 520.50Q582 486 582 436Q582 353 497 327L592 158M505 386.50Q505 386.50 515.50 396.25Q526 406 526 436Q526 466 505 486Q484 506 451 506L377 506L377 367L451 367Q484 367 505 386.50Z"  horiz-adv-x="881" vert-adv-y="1000"  />

      
      <glyph glyph-name="uniaf" unicode="&#xaf;" d="M99 613L99 670L400 670L400 613L99 613Z"  horiz-adv-x="500" vert-adv-y="1000"  />

      
      <glyph glyph-name="unib0" unicode="&#xb0;" d="M348 673Q348 673 372 649Q396 625 396 557Q396 489 348 441Q300 393 232 393Q164 393 115.50 441Q67 489 67 557Q67 625 115.50 673Q164 721 232 721Q300 721 348 673M305.50 481.50Q305.50 481.50 320.25 496.75Q335 512 335 557Q335 602 305 632.50Q275 663 231 663Q187 663 157.50 632.50Q128 602 128 557Q128 512 158 481.50Q188 451 232 451Q276 451 305.50 481.50Z"  horiz-adv-x="463" vert-adv-y="1000"  />

      
      <glyph glyph-name="unib1" unicode="&#xb1;" d="M470 289L295 289L295 112L228 112L228 289L52 289L52 356L228 356L228 531L295 531L295 356L470 356L470 289M470 0L52 0L52 67L470 67L470 0Z"  horiz-adv-x="522" vert-adv-y="1000"  />

      
      <glyph glyph-name="unib2" unicode="&#xb2;" d="M287 285L41 285L41 337L206 539Q229 568 229 597Q229 627 211.50 645.50Q194 664 164 664Q136 664 117.50 647.50Q99 631 99 597L41 597Q41 651 75.50 683.50Q110 716 164 716Q219 716 253 683.50Q287 651 287 597Q287 553 248 505L110 337L287 337L287 285Z"  horiz-adv-x="318" vert-adv-y="1000"  />

      
      <glyph glyph-name="unib3" unicode="&#xb3;" d="M293 405Q293 346 256.50 313Q220 280 164 280Q109 280 72 310.50Q35 341 33 399L91 399Q92 366 113 349Q134 332 164 332Q196 332 216 351.50Q236 371 236 405Q236 439 217 458.50Q198 478 161 478L152 478L152 528L161 528Q195 528 212 546Q229 564 229 596Q229 628 210 646Q191 664 163 664Q134 664 116 647Q98 630 96 601L39 601Q42 654 77 685Q112 716 163 716Q217 716 251.50 683Q286 650 286 597Q286 530 232 505Q293 479 293 405Z"  horiz-adv-x="318" vert-adv-y="1000"  />

      
      <glyph glyph-name="unib4" unicode="&#xb4;" d="M375 747L267 594L201 594L289 747L375 747Z"  horiz-adv-x="500" vert-adv-y="1000"  />

      
      <glyph glyph-name="unib5" unicode="&#xb5;" d="M471 0L399 0L399 55Q346-6 261-6Q195-6 155 31L155-220L83-220L83 492L155 492L155 189Q155 125 187 91.50Q219 58 276 58Q333 58 366 92Q399 126 399 189L399 492L471 492L471 0Z"  horiz-adv-x="561" vert-adv-y="1000"  />

      
      <glyph glyph-name="unib6" unicode="&#xb6;" d="M500-220L428-220L428 644L311 644L311-220L239-220L239 326Q152 326 97 383.50Q42 441 42 518Q42 601 100.50 656.50Q159 712 259 712L500 712L500-220Z"  horiz-adv-x="603" vert-adv-y="1000"  />

      
      <glyph glyph-name="unib7" unicode="&#xb7;" d="M182 223L88 223L88 317L182 317L182 223Z"  horiz-adv-x="270" vert-adv-y="1000"  />

      
      <glyph glyph-name="unib8" unicode="&#xb8;" d="M313-67L254-216L175-216L246-67L313-67Z"  horiz-adv-x="500" vert-adv-y="1000"  />

      
      <glyph glyph-name="unib9" unicode="&#xb9;" d="M207 285L150 285L150 648L67 575L67 641L150 712L207 712L207 285Z"  horiz-adv-x="318" vert-adv-y="1000"  />

      
      <glyph glyph-name="uniba" unicode="&#xba;" d="M339 671Q387 622 387 515Q387 408 339 359Q295 315 227 315Q159 315 115 359Q67 408 67 515Q67 622 115 671Q160 716 227 716Q294 716 339 671M328 515Q328 603 297 634Q269 662 227 662Q185 662 157 634Q127 604 127 515Q127 427 157 397Q186 368 227 368Q268 368 297 397Q328 428 328 515Z"  horiz-adv-x="455" vert-adv-y="1000"  />

      
      <glyph glyph-name="unibb" unicode="&#xbb;" d="M514 268L304 58L304 147L424 268L304 388L304 478L514 268M288 268L78 58L78 147L199 268L78 388L78 478L288 268Z"  horiz-adv-x="554" vert-adv-y="1000"  />

      
      <glyph glyph-name="unibc" unicode="&#xbc;" d="M207 285L150 285L150 648L67 575L67 641L150 712L207 712L207 285M607 712L274 0L214 0L547 712L607 712M801 65L754 65L754 0L697 0L697 65L525 65L525 117L676 427L738 427L587 117L697 117L697 222L754 222L754 117L801 117L801 65Z"  horiz-adv-x="821" vert-adv-y="1000"  />

      
      <glyph glyph-name="unibd" unicode="&#xbd;" d="M207 285L150 285L150 648L67 575L67 641L150 712L207 712L207 285M607 712L274 0L214 0L547 712L607 712M790 0L544 0L544 52L709 254Q732 283 732 312Q732 342 714.50 360.50Q697 379 667 379Q639 379 620.50 362.50Q602 346 602 312L544 312Q544 366 578.50 398.50Q613 431 667 431Q722 431 756 398.50Q790 366 790 312Q790 268 751 220L613 52L790 52L790 0Z"  horiz-adv-x="821" vert-adv-y="1000"  />

      
      <glyph glyph-name="unibe" unicode="&#xbe;" d="M293 405Q293 346 256.50 313.50Q220 281 164 281Q109 281 72 311Q35 341 33 400L91 400Q93 366 113.50 349.50Q134 333 164 333Q195 333 215.50 352.50Q236 372 236 406Q236 440 217 459Q198 478 161 478L152 478L152 529L161 529Q194 529 211.50 547Q229 565 229 596Q229 628 210 646Q191 664 163 664Q134 664 116 647Q98 630 96 601L39 601Q42 654 77 685Q112 716 163 716Q218 716 252 683.50Q286 651 286 597Q286 531 232 506Q293 480 293 405M607 712L274 0L214 0L547 712L607 712M801 65L754 65L754 0L697 0L697 65L525 65L525 117L676 427L738 427L587 117L697 117L697 222L754 222L754 117L801 117L801 65Z"  horiz-adv-x="821" vert-adv-y="1000"  />

      
      <glyph glyph-name="unibf" unicode="&#xbf;" d="M421-43Q421-120 367.50-173Q314-226 234-226Q154-226 100-174Q46-122 46-43Q46 10 92 77L174 195Q192 222 192 253L192 293L264 293L264 252Q264 204 232 158L151 42Q118-7 118-43Q118-93 151-127Q184-161 234-161Q286-161 317.50-126.50Q349-92 349-43L421-43M270 408L185 408L185 492L270 492L270 408Z"  horiz-adv-x="497" vert-adv-y="1000"  />

      
      <glyph glyph-name="unic0" unicode="&#xc0;" d="M599 0L518 0L461 161L150 161L93 0L12 0L274 712L338 712L599 0M439 227L307 603L173 227L439 227M353 780L284 780L179 934L262 934L353 780Z"  horiz-adv-x="611" vert-adv-y="1000"  />

      
      <glyph glyph-name="unic1" unicode="&#xc1;" d="M599 0L518 0L461 161L150 161L93 0L12 0L274 712L338 712L599 0M439 227L307 603L173 227L439 227M425 934L320 780L251 780L342 934L425 934Z"  horiz-adv-x="611" vert-adv-y="1000"  />

      
      <glyph glyph-name="unic2" unicode="&#xc2;" d="M599 0L518 0L461 161L150 161L93 0L12 0L274 712L338 712L599 0M439 227L307 603L173 227L439 227M461 780L392 780L302 885L211 780L142 780L268 933L336 933L461 780Z"  horiz-adv-x="611" vert-adv-y="1000"  />

      
      <glyph glyph-name="unic3" unicode="&#xc3;" d="M599 0L518 0L461 161L150 161L93 0L12 0L274 712L338 712L599 0M439 227L307 603L173 227L439 227M459 844Q408 794 364 794Q332 794 293 817Q257 838 237 838Q210 838 178 806L141 842Q192 893 236 893Q270 893 307 869Q339 849 363 849Q390 849 422 881L459 844Z"  horiz-adv-x="611" vert-adv-y="1000"  />

      
      <glyph glyph-name="unic4" unicode="&#xc4;" d="M599 0L518 0L461 161L150 161L93 0L12 0L274 712L338 712L599 0M439 227L307 603L173 227L439 227M448 789L376 789L376 878L448 878L448 789M236 789L164 789L164 878L236 878L236 789Z"  horiz-adv-x="611" vert-adv-y="1000"  />

      
      <glyph glyph-name="unic5" unicode="&#xc5;" d="M599 0L518 0L461 161L150 161L93 0L12 0L274 712L338 712L599 0M439 227L307 603L173 227L439 227M385.50 950.50Q385.50 950.50 402.75 933.25Q420 916 420 867Q420 818 385.50 783Q351 748 302 748Q253 748 218.50 783Q184 818 184 867Q184 916 218.50 950.50Q253 985 302 985Q351 985 385.50 950.50M371 867Q371 895 351 915Q331 935 302 935Q273 935 253 915Q233 895 233 867Q233 838 253.50 818Q274 798 302 798Q330 798 350.50 818Q371 838 371 867Z"  horiz-adv-x="611" vert-adv-y="1000"  />

      
      <glyph glyph-name="unic6" unicode="&#xc6;" d="M867 0L426 0L426 169L179 169L91 0L8 0L384 712L867 712L867 644L501 644L501 391L813 391L813 323L501 323L501 68L867 68L867 0M426 235L426 644L212 235L426 235Z"  horiz-adv-x="922" vert-adv-y="1000"  />

      
      <glyph glyph-name="unic7" unicode="&#xc7;" d="M572 206Q553 107 487 50.50Q421-6 325-6Q217-6 147 64Q100 111 88 167Q76 223 76 356Q76 489 88 545Q100 601 147 648Q217 718 325 718Q422 718 487.50 662Q553 606 572 506L494 506Q480 573 435.50 611.50Q391 650 325 650Q252 650 202 600Q170 567 161 519.50Q152 472 152 356Q152 240 161 192.50Q170 145 202 112Q252 62 325 62Q391 62 436.50 100.50Q482 139 496 206L572 206M370-67L311-216L232-216L303-67L370-67Z"  horiz-adv-x="637" vert-adv-y="1000"  />

      
      <glyph glyph-name="unic8" unicode="&#xc8;" d="M545 0L103 0L103 712L545 712L545 644L179 644L179 393L491 393L491 325L179 325L179 68L545 68L545 0M364 780L295 780L190 934L273 934L364 780Z"  horiz-adv-x="600" vert-adv-y="1000"  />

      
      <glyph glyph-name="unic9" unicode="&#xc9;" d="M545 0L103 0L103 712L545 712L545 644L179 644L179 393L491 393L491 325L179 325L179 68L545 68L545 0M436 934L331 780L262 780L353 934L436 934Z"  horiz-adv-x="600" vert-adv-y="1000"  />

      
      <glyph glyph-name="unica" unicode="&#xca;" d="M545 0L103 0L103 712L545 712L545 644L179 644L179 393L491 393L491 325L179 325L179 68L545 68L545 0M472 780L403 780L313 885L222 780L153 780L279 933L347 933L472 780Z"  horiz-adv-x="600" vert-adv-y="1000"  />

      
      <glyph glyph-name="unicb" unicode="&#xcb;" d="M545 0L103 0L103 712L545 712L545 644L179 644L179 393L491 393L491 325L179 325L179 68L545 68L545 0M455 789L383 789L383 878L455 878L455 789M243 789L171 789L171 878L243 878L243 789Z"  horiz-adv-x="600" vert-adv-y="1000"  />

      
      <glyph glyph-name="unicc" unicode="&#xcc;" d="M179 0L103 0L103 712L179 712L179 0M181 780L112 780L7 934L90 934L181 780Z"  horiz-adv-x="282" vert-adv-y="1000"  />

      
      <glyph glyph-name="unicd" unicode="&#xcd;" d="M179 0L103 0L103 712L179 712L179 0M275 934L170 780L101 780L192 934L275 934Z"  horiz-adv-x="282" vert-adv-y="1000"  />

      
      <glyph glyph-name="unice" unicode="&#xce;" d="M179 0L103 0L103 712L179 712L179 0M299 780L230 780L140 885L49 780L-20 780L106 933L174 933L299 780Z"  horiz-adv-x="282" vert-adv-y="1000"  />

      
      <glyph glyph-name="unicf" unicode="&#xcf;" d="M179 0L103 0L103 712L179 712L179 0M283 789L211 789L211 878L283 878L283 789M71 789L-1 789L-1 878L71 878L71 789Z"  horiz-adv-x="282" vert-adv-y="1000"  />

      
      <glyph glyph-name="unid0" unicode="&#xd0;" d="M611 356Q611 287 608.50 246.50Q606 206 591.50 156Q577 106 548 75Q479 0 361 0L117 0L117 330L39 330L39 389L117 389L117 712L361 712Q479 712 548 637Q577 605 592 554.50Q607 504 609 466Q611 428 611 356M533 259Q533 259 534 276Q535 293 535 356Q535 419 533 453Q531 487 520.50 528Q510 569 488 592Q441 644 348 644L193 644L193 389L355 389L355 330L193 330L193 68L348 68Q441 68 488 120Q510 143 520.50 184Q531 225 533 259Z"  horiz-adv-x="687" vert-adv-y="1000"  />

      
      <glyph glyph-name="unid1" unicode="&#xd1;" d="M629 0L557 0L179 571L179 0L103 0L103 712L175 712L553 143L553 712L629 712L629 0M523 844Q472 794 428 794Q396 794 357 817Q321 838 301 838Q274 838 242 806L205 842Q256 893 300 893Q334 893 371 869Q403 849 427 849Q454 849 486 881L523 844Z"  horiz-adv-x="732" vert-adv-y="1000"  />

      
      <glyph glyph-name="unid2" unicode="&#xd2;" d="M562 544Q562 544 568 516Q574 488 574 356Q574 224 562 168Q550 112 502 64Q432-6 325-6Q217-6 147 64Q100 111 88 167Q76 223 76 356Q76 489 88 545Q100 601 147 648Q217 718 325 718Q432 718 502 648Q550 600 562 544M489 192.50Q489 192.50 493.50 216.25Q498 240 498 356Q498 472 489 519.50Q480 567 448 600Q398 650 325 650Q252 650 202 600Q170 567 161 519.50Q152 472 152 356Q152 240 161 192.50Q170 145 202 112Q252 62 325 62Q398 62 448 112Q480 145 489 192.50M376 780L307 780L202 934L285 934L376 780Z"  horiz-adv-x="650" vert-adv-y="1000"  />

      
      <glyph glyph-name="unid3" unicode="&#xd3;" d="M562 544Q562 544 568 516Q574 488 574 356Q574 224 562 168Q550 112 502 64Q432-6 325-6Q217-6 147 64Q100 111 88 167Q76 223 76 356Q76 489 88 545Q100 601 147 648Q217 718 325 718Q432 718 502 648Q550 600 562 544M489 192.50Q489 192.50 493.50 216.25Q498 240 498 356Q498 472 489 519.50Q480 567 448 600Q398 650 325 650Q252 650 202 600Q170 567 161 519.50Q152 472 152 356Q152 240 161 192.50Q170 145 202 112Q252 62 325 62Q398 62 448 112Q480 145 489 192.50M448 934L343 780L274 780L365 934L448 934Z"  horiz-adv-x="650" vert-adv-y="1000"  />

      
      <glyph glyph-name="unid4" unicode="&#xd4;" d="M562 544Q562 544 568 516Q574 488 574 356Q574 224 562 168Q550 112 502 64Q432-6 325-6Q217-6 147 64Q100 111 88 167Q76 223 76 356Q76 489 88 545Q100 601 147 648Q217 718 325 718Q432 718 502 648Q550 600 562 544M489 192.50Q489 192.50 493.50 216.25Q498 240 498 356Q498 472 489 519.50Q480 567 448 600Q398 650 325 650Q252 650 202 600Q170 567 161 519.50Q152 472 152 356Q152 240 161 192.50Q170 145 202 112Q252 62 325 62Q398 62 448 112Q480 145 489 192.50M484 780L415 780L325 885L234 780L165 780L291 933L359 933L484 780Z"  horiz-adv-x="650" vert-adv-y="1000"  />

      
      <glyph glyph-name="unid5" unicode="&#xd5;" d="M562 544Q562 544 568 516Q574 488 574 356Q574 224 562 168Q550 112 502 64Q432-6 325-6Q217-6 147 64Q100 111 88 167Q76 223 76 356Q76 489 88 545Q100 601 147 648Q217 718 325 718Q432 718 502 648Q550 600 562 544M489 192.50Q489 192.50 493.50 216.25Q498 240 498 356Q498 472 489 519.50Q480 567 448 600Q398 650 325 650Q252 650 202 600Q170 567 161 519.50Q152 472 152 356Q152 240 161 192.50Q170 145 202 112Q252 62 325 62Q398 62 448 112Q480 145 489 192.50M482 844Q431 794 387 794Q355 794 316 817Q280 838 260 838Q233 838 201 806L164 842Q215 893 259 893Q292 893 330 869Q362 849 386 849Q413 849 445 881L482 844Z"  horiz-adv-x="650" vert-adv-y="1000"  />

      
      <glyph glyph-name="unid6" unicode="&#xd6;" d="M562 544Q562 544 568 516Q574 488 574 356Q574 224 562 168Q550 112 502 64Q432-6 325-6Q217-6 147 64Q100 111 88 167Q76 223 76 356Q76 489 88 545Q100 601 147 648Q217 718 325 718Q432 718 502 648Q550 600 562 544M489 192.50Q489 192.50 493.50 216.25Q498 240 498 356Q498 472 489 519.50Q480 567 448 600Q398 650 325 650Q252 650 202 600Q170 567 161 519.50Q152 472 152 356Q152 240 161 192.50Q170 145 202 112Q252 62 325 62Q398 62 448 112Q480 145 489 192.50M467 789L395 789L395 878L467 878L467 789M255 789L183 789L183 878L255 878L255 789Z"  horiz-adv-x="650" vert-adv-y="1000"  />

      
      <glyph glyph-name="unid7" unicode="&#xd7;" d="M457 119L412 74L261 225L110 74L65 119L216 270L65 421L110 466L261 314L412 466L457 421L305 270L457 119Z"  horiz-adv-x="522" vert-adv-y="1000"  />

      
      <glyph glyph-name="unid8" unicode="&#xd8;" d="M562 546Q562 546 568 518Q574 490 574 356Q574 222 562.50 167.50Q551 113 502 64Q432-6 325-6Q255-6 199 25L166-44L101-44L151 60Q101 109 88.50 165Q76 221 76 356Q76 489 88 545Q100 601 147 648Q217 718 325 718Q399 718 450 687L484 756L549 756L499 651Q550 602 562 546M152 356Q152 254 158.50 207Q165 160 187 130L421 622Q381 650 325 650Q250 650 202 600Q170 567 161 519.50Q152 472 152 356M498 356Q498 458 491.50 504.50Q485 551 463 582L229 90Q271 62 325 62Q398 62 448 112Q480 145 489 192.50Q498 240 498 356Z"  horiz-adv-x="650" vert-adv-y="1000"  />

      
      <glyph glyph-name="unid9" unicode="&#xd9;" d="M590 235Q590 129 519.50 61.50Q449-6 341-6Q233-6 163 61.50Q93 129 93 235L93 712L169 712L169 241Q169 160 216 111Q263 62 341 62Q419 62 466.50 111Q514 160 514 241L514 712L590 712L590 235M392 780L323 780L218 934L301 934L392 780Z"  horiz-adv-x="683" vert-adv-y="1000"  />

      
      <glyph glyph-name="unida" unicode="&#xda;" d="M590 235Q590 129 519.50 61.50Q449-6 341-6Q233-6 163 61.50Q93 129 93 235L93 712L169 712L169 241Q169 160 216 111Q263 62 341 62Q419 62 466.50 111Q514 160 514 241L514 712L590 712L590 235M464 934L359 780L290 780L381 934L464 934Z"  horiz-adv-x="683" vert-adv-y="1000"  />

      
      <glyph glyph-name="unidb" unicode="&#xdb;" d="M590 235Q590 129 519.50 61.50Q449-6 341-6Q233-6 163 61.50Q93 129 93 235L93 712L169 712L169 241Q169 160 216 111Q263 62 341 62Q419 62 466.50 111Q514 160 514 241L514 712L590 712L590 235M500 780L431 780L341 885L250 780L181 780L307 933L375 933L500 780Z"  horiz-adv-x="683" vert-adv-y="1000"  />

      
      <glyph glyph-name="unidc" unicode="&#xdc;" d="M590 235Q590 129 519.50 61.50Q449-6 341-6Q233-6 163 61.50Q93 129 93 235L93 712L169 712L169 241Q169 160 216 111Q263 62 341 62Q419 62 466.50 111Q514 160 514 241L514 712L590 712L590 235M483 789L411 789L411 878L483 878L483 789M271 789L199 789L199 878L271 878L271 789Z"  horiz-adv-x="683" vert-adv-y="1000"  />

      
      <glyph glyph-name="unidd" unicode="&#xdd;" d="M506 712L296 294L296 0L220 0L220 294L8 712L90 712L258 371L424 712L506 712M380 934L275 780L206 780L297 934L380 934Z"  horiz-adv-x="514" vert-adv-y="1000"  />

      
      <glyph glyph-name="unide" unicode="&#xde;" d="M527 511.50Q527 511.50 557.50 482.75Q588 454 588 359Q588 264 527 207Q466 150 368 150L179 150L179 0L103 0L103 712L179 712L179 569L368 569Q466 569 527 511.50M471 254Q471 254 491.50 272Q512 290 512 359Q512 428 471 464Q430 500 361 500L179 500L179 218L361 218Q430 218 471 254Z"  horiz-adv-x="642" vert-adv-y="1000"  />

      
      <glyph glyph-name="unidf" unicode="&#xdf;" d="M484 141Q484 73 445 36Q405 0 342 0L288 0L288 62L328 62Q361 62 387 82Q412 103 412 149L412 318Q412 362 391 380Q370 401 332 401L288 401L288 461L324 461Q364 461 388 485.50Q412 510 412 552Q412 599 381 627Q350 656 287 656Q163 656 163 521L163 0L90 0L90 524Q90 617 143.50 668Q197 719 291 719Q376 719 430 677Q484 635 484 553Q484 474 421 434Q456 416 470 389Q484 362 484 314L484 141Z"  horiz-adv-x="556" vert-adv-y="1000"  />

      
      <glyph glyph-name="unie0" unicode="&#xe0;" d="M441 0L369 0L369 47Q340 18 308 6Q276-6 227-6Q134-6 88 39Q51 75 51 139Q51 205 95.50 243Q140 281 222 281L369 281L369 328Q369 383 339.50 409.50Q310 436 243 436Q197 436 169.50 423Q142 410 119 379L70 424Q101 466 141 482Q181 498 244 498Q441 498 441 334L441 0M369 174L369 227L232 227Q121 227 121 140Q121 56 235 56Q308 56 344 89Q369 113 369 174M302 594L233 594L128 747L211 747L302 594Z"  horiz-adv-x="526" vert-adv-y="1000"  />

      
      <glyph glyph-name="unie1" unicode="&#xe1;" d="M441 0L369 0L369 47Q340 18 308 6Q276-6 227-6Q134-6 88 39Q51 75 51 139Q51 205 95.50 243Q140 281 222 281L369 281L369 328Q369 383 339.50 409.50Q310 436 243 436Q197 436 169.50 423Q142 410 119 379L70 424Q101 466 141 482Q181 498 244 498Q441 498 441 334L441 0M369 174L369 227L232 227Q121 227 121 140Q121 56 235 56Q308 56 344 89Q369 113 369 174M376 747L271 594L202 594L293 747L376 747Z"  horiz-adv-x="526" vert-adv-y="1000"  />

      
      <glyph glyph-name="unie2" unicode="&#xe2;" d="M441 0L369 0L369 47Q340 18 308 6Q276-6 227-6Q134-6 88 39Q51 75 51 139Q51 205 95.50 243Q140 281 222 281L369 281L369 328Q369 383 339.50 409.50Q310 436 243 436Q197 436 169.50 423Q142 410 119 379L70 424Q101 466 141 482Q181 498 244 498Q441 498 441 334L441 0M369 174L369 227L232 227Q121 227 121 140Q121 56 235 56Q308 56 344 89Q369 113 369 174M412 594L343 594L252 698L162 594L93 594L218 747L286 747L412 594Z"  horiz-adv-x="526" vert-adv-y="1000"  />

      
      <glyph glyph-name="unie3" unicode="&#xe3;" d="M441 0L369 0L369 47Q340 18 308 6Q276-6 227-6Q134-6 88 39Q51 75 51 139Q51 205 95.50 243Q140 281 222 281L369 281L369 328Q369 383 339.50 409.50Q310 436 243 436Q197 436 169.50 423Q142 410 119 379L70 424Q101 466 141 482Q181 498 244 498Q441 498 441 334L441 0M369 174L369 227L232 227Q121 227 121 140Q121 56 235 56Q308 56 344 89Q369 113 369 174M409 658Q359 607 314 607Q284 607 243 631Q208 651 187 651Q160 651 128 619L91 655Q142 706 186 706Q219 706 257 682Q292 662 313 662Q340 662 372 694L409 658Z"  horiz-adv-x="526" vert-adv-y="1000"  />

      
      <glyph glyph-name="unie4" unicode="&#xe4;" d="M441 0L369 0L369 47Q340 18 308 6Q276-6 227-6Q134-6 88 39Q51 75 51 139Q51 205 95.50 243Q140 281 222 281L369 281L369 328Q369 383 339.50 409.50Q310 436 243 436Q197 436 169.50 423Q142 410 119 379L70 424Q101 466 141 482Q181 498 244 498Q441 498 441 334L441 0M369 174L369 227L232 227Q121 227 121 140Q121 56 235 56Q308 56 344 89Q369 113 369 174M394 602L322 602L322 691L394 691L394 602M182 602L110 602L110 691L182 691L182 602Z"  horiz-adv-x="526" vert-adv-y="1000"  />

      
      <glyph glyph-name="unie5" unicode="&#xe5;" d="M441 0L369 0L369 47Q340 18 308 6Q276-6 227-6Q134-6 88 39Q51 75 51 139Q51 205 95.50 243Q140 281 222 281L369 281L369 328Q369 383 339.50 409.50Q310 436 243 436Q197 436 169.50 423Q142 410 119 379L70 424Q101 466 141 482Q181 498 244 498Q441 498 441 334L441 0M369 174L369 227L232 227Q121 227 121 140Q121 56 235 56Q308 56 344 89Q369 113 369 174M335.50 770.50Q335.50 770.50 352.75 753.25Q370 736 370 687Q370 638 335.50 603Q301 568 252 568Q203 568 168.50 603Q134 638 134 687Q134 736 168.50 770.50Q203 805 252 805Q301 805 335.50 770.50M321 687Q321 715 301 735Q281 755 252 755Q223 755 203 735Q183 715 183 687Q183 658 203.50 638Q224 618 252 618Q280 618 300.50 638Q321 658 321 687Z"  horiz-adv-x="526" vert-adv-y="1000"  />

      
      <glyph glyph-name="unie6" unicode="&#xe6;" d="M773 227L440 227Q440 145 477.50 101Q515 57 586 57Q628 57 656.50 70Q685 83 714 113L764 70Q724 30 683 12Q642-6 582-6Q461-6 407 79Q375 32 333.50 13Q292-6 227-6Q134-6 88 39Q51 75 51 139Q51 205 95.50 243Q140 281 222 281L369 281L369 328Q369 383 339.50 409.50Q310 436 243 436Q197 436 169.50 423Q142 410 119 379L70 424Q101 466 141 482Q181 498 244 498Q376 498 417 421Q468 498 571 498Q666 498 719.50 434Q773 370 773 259L773 227M369 227L232 227Q121 227 121 140Q121 56 235 56Q308 56 344 89Q369 113 369 174L369 227M701 281Q698 334 686 363Q672 397 641 417Q610 437 571 437Q531 437 500 417Q469 397 456 363Q444 332 440 281L701 281Z"  horiz-adv-x="835" vert-adv-y="1000"  />

      
      <glyph glyph-name="unie7" unicode="&#xe7;" d="M443 67Q405 26 369 10Q333-6 281-6Q184-6 123.50 59Q63 124 63 246Q63 368 123.50 433Q184 498 281 498Q333 498 369 482Q405 466 443 425L394 379Q366 410 341 422Q316 434 281 434Q206 434 167 378Q135 333 135 246Q135 159 167 114Q206 58 281 58Q316 58 341 70.50Q366 83 394 114L443 67M313-67L254-216L175-216L246-67L313-67Z"  horiz-adv-x="490" vert-adv-y="1000"  />

      
      <glyph glyph-name="unie8" unicode="&#xe8;" d="M467 227L135 227Q135 145 172 101Q209 57 280 57Q322 57 350.50 70Q379 83 409 113L458 70Q418 30 378 12Q338-6 278-6Q176-6 119.50 56.50Q63 119 63 246Q63 365 117 431.50Q171 498 265 498Q360 498 413.50 434.50Q467 371 467 259L467 227M396 281Q392 338 380 363Q345 437 265 437Q185 437 150 363Q138 337 135 281L396 281M318 594L249 594L144 747L227 747L318 594Z"  horiz-adv-x="530" vert-adv-y="1000"  />

      
      <glyph glyph-name="unie9" unicode="&#xe9;" d="M467 227L135 227Q135 145 172 101Q209 57 280 57Q322 57 350.50 70Q379 83 409 113L458 70Q418 30 378 12Q338-6 278-6Q176-6 119.50 56.50Q63 119 63 246Q63 365 117 431.50Q171 498 265 498Q360 498 413.50 434.50Q467 371 467 259L467 227M396 281Q392 338 380 363Q345 437 265 437Q185 437 150 363Q138 337 135 281L396 281M392 747L287 594L218 594L309 747L392 747Z"  horiz-adv-x="530" vert-adv-y="1000"  />

      
      <glyph glyph-name="uniea" unicode="&#xea;" d="M467 227L135 227Q135 145 172 101Q209 57 280 57Q322 57 350.50 70Q379 83 409 113L458 70Q418 30 378 12Q338-6 278-6Q176-6 119.50 56.50Q63 119 63 246Q63 365 117 431.50Q171 498 265 498Q360 498 413.50 434.50Q467 371 467 259L467 227M396 281Q392 338 380 363Q345 437 265 437Q185 437 150 363Q138 337 135 281L396 281M428 594L359 594L268 698L178 594L109 594L234 747L302 747L428 594Z"  horiz-adv-x="530" vert-adv-y="1000"  />

      
      <glyph glyph-name="unieb" unicode="&#xeb;" d="M467 227L135 227Q135 145 172 101Q209 57 280 57Q322 57 350.50 70Q379 83 409 113L458 70Q418 30 378 12Q338-6 278-6Q176-6 119.50 56.50Q63 119 63 246Q63 365 117 431.50Q171 498 265 498Q360 498 413.50 434.50Q467 371 467 259L467 227M396 281Q392 338 380 363Q345 437 265 437Q185 437 150 363Q138 337 135 281L396 281M409 602L337 602L337 691L409 691L409 602M197 602L125 602L125 691L197 691L197 602Z"  horiz-adv-x="530" vert-adv-y="1000"  />

      
      <glyph glyph-name="uniec" unicode="&#xec;" d="M162 0L90 0L90 492L162 492L162 0M164 594L95 594L-10 747L73 747L164 594Z"  horiz-adv-x="252" vert-adv-y="1000"  />

      
      <glyph glyph-name="unied" unicode="&#xed;" d="M162 0L90 0L90 492L162 492L162 0M263 747L158 594L89 594L180 747L263 747Z"  horiz-adv-x="252" vert-adv-y="1000"  />

      
      <glyph glyph-name="uniee" unicode="&#xee;" d="M162 0L90 0L90 492L162 492L162 0M289 594L220 594L129 698L39 594L-30 594L95 747L163 747L289 594Z"  horiz-adv-x="252" vert-adv-y="1000"  />

      
      <glyph glyph-name="unief" unicode="&#xef;" d="M162 0L90 0L90 492L162 492L162 0M269 602L197 602L197 691L269 691L269 602M57 602L-15 602L-15 691L57 691L57 602Z"  horiz-adv-x="252" vert-adv-y="1000"  />

      
      <glyph glyph-name="unif0" unicode="&#xf0;" d="M465 244Q465 109 405 49Q352-6 265-6Q178-6 125 49Q66 108 66 244Q66 380 125 439Q175 491 261 491Q300 491 322 481L264 580L148 580L148 632L236 632L189 714L264 714L311 632L393 632L393 580L339 580L402 469Q441 401 453 356Q465 311 465 244M393 244Q393 356 354 395Q318 431 265 431Q213 431 177 395Q138 356 138 244Q138 133 177 94Q213 58 265 58Q318 58 354 94Q393 133 393 244Z"  horiz-adv-x="530" vert-adv-y="1000"  />

      
      <glyph glyph-name="unif1" unicode="&#xf1;" d="M477 0L405 0L405 303Q405 367 373 400.50Q341 434 284 434Q227 434 194.50 400Q162 366 162 303L162 0L90 0L90 492L162 492L162 438Q214 498 300 498Q380 498 426 452Q477 402 477 315L477 0M442 658Q392 607 347 607Q317 607 276 631Q241 651 220 651Q193 651 161 619L124 655Q175 706 219 706Q252 706 290 682Q325 662 346 662Q373 662 405 694L442 658Z"  horiz-adv-x="562" vert-adv-y="1000"  />

      
      <glyph glyph-name="unif2" unicode="&#xf2;" d="M466 246Q466 111 406 50Q352-6 265-6Q178-6 124 50Q64 111 64 246Q64 382 124 442Q178 498 265 498Q352 498 406 442Q466 382 466 246M394 246Q394 359 355 398Q319 434 265 434Q212 434 176 398Q136 358 136 246Q136 134 176 94Q212 58 265 58Q319 58 355 94Q394 134 394 246M305 594L236 594L131 747L214 747L305 594Z"  horiz-adv-x="530" vert-adv-y="1000"  />

      
      <glyph glyph-name="unif3" unicode="&#xf3;" d="M466 246Q466 111 406 50Q352-6 265-6Q178-6 124 50Q64 111 64 246Q64 382 124 442Q178 498 265 498Q352 498 406 442Q466 382 466 246M394 246Q394 359 355 398Q319 434 265 434Q212 434 176 398Q136 358 136 246Q136 134 176 94Q212 58 265 58Q319 58 355 94Q394 134 394 246M389 747L284 594L215 594L306 747L389 747Z"  horiz-adv-x="530" vert-adv-y="1000"  />

      
      <glyph glyph-name="unif4" unicode="&#xf4;" d="M466 246Q466 111 406 50Q352-6 265-6Q178-6 124 50Q64 111 64 246Q64 382 124 442Q178 498 265 498Q352 498 406 442Q466 382 466 246M394 246Q394 359 355 398Q319 434 265 434Q212 434 176 398Q136 358 136 246Q136 134 176 94Q212 58 265 58Q319 58 355 94Q394 134 394 246M425 594L356 594L265 698L175 594L106 594L231 747L299 747L425 594Z"  horiz-adv-x="530" vert-adv-y="1000"  />

      
      <glyph glyph-name="unif5" unicode="&#xf5;" d="M466 246Q466 111 406 50Q352-6 265-6Q178-6 124 50Q64 111 64 246Q64 382 124 442Q178 498 265 498Q352 498 406 442Q466 382 466 246M394 246Q394 359 355 398Q319 434 265 434Q212 434 176 398Q136 358 136 246Q136 134 176 94Q212 58 265 58Q319 58 355 94Q394 134 394 246M422 658Q372 607 327 607Q297 607 256 631Q221 651 200 651Q173 651 141 619L104 655Q155 706 199 706Q232 706 270 682Q305 662 326 662Q353 662 385 694L422 658Z"  horiz-adv-x="530" vert-adv-y="1000"  />

      
      <glyph glyph-name="unif6" unicode="&#xf6;" d="M466 246Q466 111 406 50Q352-6 265-6Q178-6 124 50Q64 111 64 246Q64 382 124 442Q178 498 265 498Q352 498 406 442Q466 382 466 246M394 246Q394 359 355 398Q319 434 265 434Q212 434 176 398Q136 358 136 246Q136 134 176 94Q212 58 265 58Q319 58 355 94Q394 134 394 246M407 602L335 602L335 691L407 691L407 602M195 602L123 602L123 691L195 691L195 602Z"  horiz-adv-x="530" vert-adv-y="1000"  />

      
      <glyph glyph-name="unif7" unicode="&#xf7;" d="M471 236L51 236L51 303L471 303L471 236M304 49L218 49L218 135L304 135L304 49M304 404L218 404L218 490L304 490L304 404Z"  horiz-adv-x="522" vert-adv-y="1000"  />

      
      <glyph glyph-name="unif8" unicode="&#xf8;" d="M466 246Q466 111 406 50Q350-6 265-6Q206-6 160 21L122-44L65-44L122 52Q64 112 64 246Q64 381 124 442Q180 498 265 498Q324 498 370 471L409 536L465 536L408 440Q466 380 466 246M394 246Q394 340 370 379L193 80Q224 58 265 58Q319 58 355 94Q394 133 394 246M337 413Q307 434 265 434Q212 434 176 398Q136 358 136 246Q136 154 161 113L337 413Z"  horiz-adv-x="530" vert-adv-y="1000"  />

      
      <glyph glyph-name="unif9" unicode="&#xf9;" d="M472 0L401 0L401 55Q348-6 262-6Q181-6 135 40Q85 89 85 178L85 492L157 492L157 189Q157 125 188.50 91.50Q220 58 277 58Q334 58 367 92Q400 126 400 189L400 492L472 492L472 0M328 594L259 594L154 747L237 747L328 594Z"  horiz-adv-x="562" vert-adv-y="1000"  />

      
      <glyph glyph-name="unifa" unicode="&#xfa;" d="M472 0L401 0L401 55Q348-6 262-6Q181-6 135 40Q85 89 85 178L85 492L157 492L157 189Q157 125 188.50 91.50Q220 58 277 58Q334 58 367 92Q400 126 400 189L400 492L472 492L472 0M402 747L297 594L228 594L319 747L402 747Z"  horiz-adv-x="562" vert-adv-y="1000"  />

      
      <glyph glyph-name="unifb" unicode="&#xfb;" d="M472 0L401 0L401 55Q348-6 262-6Q181-6 135 40Q85 89 85 178L85 492L157 492L157 189Q157 125 188.50 91.50Q220 58 277 58Q334 58 367 92Q400 126 400 189L400 492L472 492L472 0M438 594L369 594L278 698L188 594L119 594L244 747L312 747L438 594Z"  horiz-adv-x="562" vert-adv-y="1000"  />

      
      <glyph glyph-name="unifc" unicode="&#xfc;" d="M472 0L401 0L401 55Q348-6 262-6Q181-6 135 40Q85 89 85 178L85 492L157 492L157 189Q157 125 188.50 91.50Q220 58 277 58Q334 58 367 92Q400 126 400 189L400 492L472 492L472 0M419 602L347 602L347 691L419 691L419 602M207 602L135 602L135 691L207 691L207 602Z"  horiz-adv-x="562" vert-adv-y="1000"  />

      
      <glyph glyph-name="unifd" unicode="&#xfd;" d="M436 492L212-119Q198-158 177-177Q142-211 81-211L50-211L50-147L72-147Q108-147 124.50-134Q141-121 153-86L188 10L11 492L89 492L224 97L358 492L436 492M348 747L243 594L174 594L265 747L348 747Z"  horiz-adv-x="447" vert-adv-y="1000"  />

      
      <glyph glyph-name="unife" unicode="&#xfe;" d="M481 246Q481 98 421 37Q378-6 301-6Q213-6 162 58L162-220L90-220L90 712L162 712L162 435Q213 498 301 498Q378 498 421 455Q481 395 481 246M404.50 175Q404.50 175 406.75 190Q409 205 409 246Q409 287 404.50 317Q400 347 388 375.50Q376 404 350 419Q324 434 286 434Q255 434 232 423.50Q209 413 195.50 396Q182 379 174.50 353Q167 327 164.50 302.50Q162 278 162 246Q162 214 164.50 189.50Q167 165 174.50 139Q182 113 195.50 96Q209 79 232 68.50Q255 58 286 58Q324 58 350 73Q376 88 388 116.50Q400 145 404.50 175Z"  horiz-adv-x="546" vert-adv-y="1000"  />

      
      <glyph glyph-name="uniff" unicode="&#xff;" d="M436 492L212-119Q198-158 177-177Q142-211 81-211L50-211L50-147L72-147Q108-147 124.50-134Q141-121 153-86L188 10L11 492L89 492L224 97L358 492L436 492M366 602L294 602L294 691L366 691L366 602M154 602L82 602L82 691L154 691L154 602Z"  horiz-adv-x="447" vert-adv-y="1000"  />

      
      <glyph glyph-name="uni0100" unicode="&#x0100;" d="M599 0L518 0L461 161L150 161L93 0L12 0L274 712L338 712L599 0M439 227L307 603L173 227L439 227M154 798L154 855L455 855L455 798L154 798Z"  horiz-adv-x="611" vert-adv-y="1000"  />

      
      <glyph glyph-name="uni0101" unicode="&#x0101;" d="M441 0L369 0L369 47Q340 18 308 6Q276-6 227-6Q134-6 88 39Q51 75 51 139Q51 205 95.50 243Q140 281 222 281L369 281L369 328Q369 383 339.50 409.50Q310 436 243 436Q197 436 169.50 423Q142 410 119 379L70 424Q101 466 141 482Q181 498 244 498Q441 498 441 334L441 0M369 174L369 227L232 227Q121 227 121 140Q121 56 235 56Q308 56 344 89Q369 113 369 174M414 602L113 602L113 658L414 658L414 602Z"  horiz-adv-x="526" vert-adv-y="1000"  />

      
      <glyph glyph-name="uni0102" unicode="&#x0102;" d="M599 0L518 0L461 161L150 161L93 0L12 0L274 712L338 712L599 0M439 227L307 603L173 227L439 227M472 933Q460 794 307 794Q154 794 142 933L198 933Q203 893 232 871.50Q261 850 307 850Q353 850 382 871.50Q411 893 416 933L472 933Z"  horiz-adv-x="611" vert-adv-y="1000"  />

      
      <glyph glyph-name="uni0103" unicode="&#x0103;" d="M441 0L369 0L369 47Q340 18 308 6Q276-6 227-6Q134-6 88 39Q51 75 51 139Q51 205 95.50 243Q140 281 222 281L369 281L369 328Q369 383 339.50 409.50Q310 436 243 436Q197 436 169.50 423Q142 410 119 379L70 424Q101 466 141 482Q181 498 244 498Q441 498 441 334L441 0M369 174L369 227L232 227Q121 227 121 140Q121 56 235 56Q308 56 344 89Q369 113 369 174M409 709Q397 570 244 570Q91 570 79 709L135 709Q140 669 169 647.50Q198 626 244 626Q290 626 319 647.50Q348 669 353 709L409 709Z"  horiz-adv-x="526" vert-adv-y="1000"  />

      
      <glyph glyph-name="uni0104" unicode="&#x0104;" d="M599 0L518 0L461 161L150 161L93 0L12 0L274 712L338 712L599 0M439 227L307 603L173 227L439 227M585-67L526-216L447-216L518-67L585-67Z"  horiz-adv-x="611" vert-adv-y="1000"  />

      
      <glyph glyph-name="uni0105" unicode="&#x0105;" d="M441 0L369 0L369 47Q340 18 308 6Q276-6 227-6Q134-6 88 39Q51 75 51 139Q51 205 95.50 243Q140 281 222 281L369 281L369 328Q369 383 339.50 409.50Q310 436 243 436Q197 436 169.50 423Q142 410 119 379L70 424Q101 466 141 482Q181 498 244 498Q441 498 441 334L441 0M369 174L369 227L232 227Q121 227 121 140Q121 56 235 56Q308 56 344 89Q369 113 369 174M436-67L377-216L298-216L369-67L436-67Z"  horiz-adv-x="526" vert-adv-y="1000"  />

      
      <glyph glyph-name="uni0106" unicode="&#x0106;" d="M572 206Q553 107 487 50.50Q421-6 325-6Q217-6 147 64Q100 111 88 167Q76 223 76 356Q76 489 88 545Q100 601 147 648Q217 718 325 718Q422 718 487.50 662Q553 606 572 506L494 506Q480 573 435.50 611.50Q391 650 325 650Q252 650 202 600Q170 567 161 519.50Q152 472 152 356Q152 240 161 192.50Q170 145 202 112Q252 62 325 62Q391 62 436.50 100.50Q482 139 496 206L572 206M441 934L336 780L267 780L358 934L441 934Z"  horiz-adv-x="637" vert-adv-y="1000"  />

      
      <glyph glyph-name="uni0107" unicode="&#x0107;" d="M443 67Q405 26 369 10Q333-6 281-6Q184-6 123.50 59Q63 124 63 246Q63 368 123.50 433Q184 498 281 498Q333 498 369 482Q405 466 443 425L394 379Q366 410 341 422Q316 434 281 434Q206 434 167 378Q135 333 135 246Q135 159 167 114Q206 58 281 58Q316 58 341 70.50Q366 83 394 114L443 67M390 747L285 594L216 594L307 747L390 747Z"  horiz-adv-x="490" vert-adv-y="1000"  />

      
      <glyph glyph-name="uni0108" unicode="&#x0108;" d="M572 206Q553 107 487 50.50Q421-6 325-6Q217-6 147 64Q100 111 88 167Q76 223 76 356Q76 489 88 545Q100 601 147 648Q217 718 325 718Q422 718 487.50 662Q553 606 572 506L494 506Q480 573 435.50 611.50Q391 650 325 650Q252 650 202 600Q170 567 161 519.50Q152 472 152 356Q152 240 161 192.50Q170 145 202 112Q252 62 325 62Q391 62 436.50 100.50Q482 139 496 206L572 206M484 780L415 780L325 885L234 780L165 780L291 933L359 933L484 780Z"  horiz-adv-x="637" vert-adv-y="1000"  />

      
      <glyph glyph-name="uni0109" unicode="&#x0109;" d="M443 67Q405 26 369 10Q333-6 281-6Q184-6 123.50 59Q63 124 63 246Q63 368 123.50 433Q184 498 281 498Q333 498 369 482Q405 466 443 425L394 379Q366 410 341 422Q316 434 281 434Q206 434 167 378Q135 333 135 246Q135 159 167 114Q206 58 281 58Q316 58 341 70.50Q366 83 394 114L443 67M440 594L371 594L280 698L190 594L121 594L246 747L314 747L440 594Z"  horiz-adv-x="490" vert-adv-y="1000"  />

      
      <glyph glyph-name="uni010A" unicode="&#x010A;" d="M572 206Q553 107 487 50.50Q421-6 325-6Q217-6 147 64Q100 111 88 167Q76 223 76 356Q76 489 88 545Q100 601 147 648Q217 718 325 718Q422 718 487.50 662Q553 606 572 506L494 506Q480 573 435.50 611.50Q391 650 325 650Q252 650 202 600Q170 567 161 519.50Q152 472 152 356Q152 240 161 192.50Q170 145 202 112Q252 62 325 62Q391 62 436.50 100.50Q482 139 496 206L572 206M286 797L286 873L361 873L361 797L286 797Z"  horiz-adv-x="637" vert-adv-y="1000"  />

      
      <glyph glyph-name="uni010B" unicode="&#x010B;" d="M443 67Q405 26 369 10Q333-6 281-6Q184-6 123.50 59Q63 124 63 246Q63 368 123.50 433Q184 498 281 498Q333 498 369 482Q405 466 443 425L394 379Q366 410 341 422Q316 434 281 434Q206 434 167 378Q135 333 135 246Q135 159 167 114Q206 58 281 58Q316 58 341 70.50Q366 83 394 114L443 67M242 610L242 687L317 687L317 610L242 610Z"  horiz-adv-x="490" vert-adv-y="1000"  />

      
      <glyph glyph-name="uni010C" unicode="&#x010C;" d="M572 206Q553 107 487 50.50Q421-6 325-6Q217-6 147 64Q100 111 88 167Q76 223 76 356Q76 489 88 545Q100 601 147 648Q217 718 325 718Q422 718 487.50 662Q553 606 572 506L494 506Q480 573 435.50 611.50Q391 650 325 650Q252 650 202 600Q170 567 161 519.50Q152 472 152 356Q152 240 161 192.50Q170 145 202 112Q252 62 325 62Q391 62 436.50 100.50Q482 139 496 206L572 206M478 933L352 780L284 780L159 933L228 933L318 829L409 933L478 933Z"  horiz-adv-x="637" vert-adv-y="1000"  />

      
      <glyph glyph-name="uni010D" unicode="&#x010D;" d="M443 67Q405 26 369 10Q333-6 281-6Q184-6 123.50 59Q63 124 63 246Q63 368 123.50 433Q184 498 281 498Q333 498 369 482Q405 466 443 425L394 379Q366 410 341 422Q316 434 281 434Q206 434 167 378Q135 333 135 246Q135 159 167 114Q206 58 281 58Q316 58 341 70.50Q366 83 394 114L443 67M440 747L315 594L247 594L121 747L190 747L281 642L371 747L440 747Z"  horiz-adv-x="490" vert-adv-y="1000"  />

      
      <glyph glyph-name="uni010E" unicode="&#x010E;" d="M595 466Q595 466 596 447Q597 428 597 356Q597 284 595 246Q593 208 578 157.50Q563 107 534 75Q465 0 347 0L103 0L103 712L347 712Q465 712 534 637Q563 605 578 554.50Q593 504 595 466M519 259Q519 259 520 276Q521 293 521 356Q521 419 519 453Q517 487 506.50 528Q496 569 474 592Q427 644 334 644L179 644L179 68L334 68Q427 68 474 120Q496 143 506.50 184Q517 225 519 259M496 933L370 780L302 780L177 933L246 933L336 829L427 933L496 933Z"  horiz-adv-x="673" vert-adv-y="1000"  />

      
      <glyph glyph-name="uni010F" unicode="&#x010F;" d="M455 0L384 0L384 59Q355 22 322 8Q289-6 244-6Q167-6 124 37Q64 98 64 246Q64 395 124 455Q167 498 244 498Q289 498 321.50 484.50Q354 471 383 435L383 712L455 712L455 0M378.50 175Q378.50 175 380.75 190Q383 205 383 246Q383 287 378.50 317Q374 347 362 375.50Q350 404 324 419Q298 434 260 434Q229 434 206 423.50Q183 413 169.50 396Q156 379 148.50 353Q141 327 138.50 302.50Q136 278 136 246Q136 214 138.50 189.50Q141 165 148.50 139Q156 113 169.50 96Q183 79 206 68.50Q229 58 260 58Q298 58 324 73Q350 88 362 116.50Q374 145 378.50 175M626 719L575 567L517 567L556 719L626 719Z"  horiz-adv-x="545" vert-adv-y="1000"  />

      
      <glyph glyph-name="uni0110" unicode="&#x0110;" d="M611 356Q611 287 608.50 246.50Q606 206 591.50 156Q577 106 548 75Q479 0 361 0L117 0L117 330L39 330L39 389L117 389L117 712L361 712Q479 712 548 637Q577 605 592 554.50Q607 504 609 466Q611 428 611 356M533 259Q533 259 534 276Q535 293 535 356Q535 419 533 453Q531 487 520.50 528Q510 569 488 592Q441 644 348 644L193 644L193 389L355 389L355 330L193 330L193 68L348 68Q441 68 488 120Q510 143 520.50 184Q531 225 533 259Z"  horiz-adv-x="687" vert-adv-y="1000"  />

      
      <glyph glyph-name="uni0111" unicode="&#x0111;" d="M455 0L384 0L384 59Q355 22 322 8Q289-6 244-6Q167-6 124 37Q64 98 64 246Q64 395 124 455Q167 498 244 498Q289 498 321.50 484.50Q354 471 383 435L383 572L301 572L301 620L383 620L383 712L455 712L455 620L523 620L523 572L455 572L455 0M378.50 175Q378.50 175 380.75 190Q383 205 383 246Q383 287 378.50 317Q374 347 362 375.50Q350 404 324 419Q298 434 260 434Q229 434 206 423.50Q183 413 169.50 396Q156 379 148.50 353Q141 327 138.50 302.50Q136 278 136 246Q136 214 138.50 189.50Q141 165 148.50 139Q156 113 169.50 96Q183 79 206 68.50Q229 58 260 58Q298 58 324 73Q350 88 362 116.50Q374 145 378.50 175Z"  horiz-adv-x="545" vert-adv-y="1000"  />

      
      <glyph glyph-name="uni0112" unicode="&#x0112;" d="M545 0L103 0L103 712L545 712L545 644L179 644L179 393L491 393L491 325L179 325L179 68L545 68L545 0M161 798L161 855L462 855L462 798L161 798Z"  horiz-adv-x="600" vert-adv-y="1000"  />

      
      <glyph glyph-name="uni0113" unicode="&#x0113;" d="M467 227L135 227Q135 145 172 101Q209 57 280 57Q322 57 350.50 70Q379 83 409 113L458 70Q418 30 378 12Q338-6 278-6Q176-6 119.50 56.50Q63 119 63 246Q63 365 117 431.50Q171 498 265 498Q360 498 413.50 434.50Q467 371 467 259L467 227M396 281Q392 338 380 363Q345 437 265 437Q185 437 150 363Q138 337 135 281L396 281M415 602L114 602L114 658L415 658L415 602Z"  horiz-adv-x="530" vert-adv-y="1000"  />

      
      <glyph glyph-name="uni0114" unicode="&#x0114;" d="M545 0L103 0L103 712L545 712L545 644L179 644L179 393L491 393L491 325L179 325L179 68L545 68L545 0M478 933Q466 794 313 794Q160 794 148 933L204 933Q209 893 238 871.50Q267 850 313 850Q359 850 388 871.50Q417 893 422 933L478 933Z"  horiz-adv-x="600" vert-adv-y="1000"  />

      
      <glyph glyph-name="uni0115" unicode="&#x0115;" d="M467 227L135 227Q135 145 172 101Q209 57 280 57Q322 57 350.50 70Q379 83 409 113L458 70Q418 30 378 12Q338-6 278-6Q176-6 119.50 56.50Q63 119 63 246Q63 365 117 431.50Q171 498 265 498Q360 498 413.50 434.50Q467 371 467 259L467 227M396 281Q392 338 380 363Q345 437 265 437Q185 437 150 363Q138 337 135 281L396 281M432 729Q420 590 267 590Q114 590 102 729L158 729Q163 689 192 667.50Q221 646 267 646Q313 646 342 667.50Q371 689 376 729L432 729Z"  horiz-adv-x="530" vert-adv-y="1000"  />

      
      <glyph glyph-name="uni0116" unicode="&#x0116;" d="M545 0L103 0L103 712L545 712L545 644L179 644L179 393L491 393L491 325L179 325L179 68L545 68L545 0M274 797L274 873L349 873L349 797L274 797Z"  horiz-adv-x="600" vert-adv-y="1000"  />

      
      <glyph glyph-name="uni0117" unicode="&#x0117;" d="M467 227L135 227Q135 145 172 101Q209 57 280 57Q322 57 350.50 70Q379 83 409 113L458 70Q418 30 378 12Q338-6 278-6Q176-6 119.50 56.50Q63 119 63 246Q63 365 117 431.50Q171 498 265 498Q360 498 413.50 434.50Q467 371 467 259L467 227M396 281Q392 338 380 363Q345 437 265 437Q185 437 150 363Q138 337 135 281L396 281M226 610L226 687L301 687L301 610L226 610Z"  horiz-adv-x="530" vert-adv-y="1000"  />

      
      <glyph glyph-name="uni0118" unicode="&#x0118;" d="M545 0L103 0L103 712L545 712L545 644L179 644L179 393L491 393L491 325L179 325L179 68L545 68L545 0M545-67L486-216L407-216L478-67L545-67Z"  horiz-adv-x="600" vert-adv-y="1000"  />

      
      <glyph glyph-name="uni0119" unicode="&#x0119;" d="M467 227L135 227Q135 145 172 101Q209 57 280 57Q322 57 350.50 70Q379 83 409 113L458 70Q418 30 378 12Q338-6 278-6Q176-6 119.50 56.50Q63 119 63 246Q63 365 117 431.50Q171 498 265 498Q360 498 413.50 434.50Q467 371 467 259L467 227M396 281Q392 338 380 363Q345 437 265 437Q185 437 150 363Q138 337 135 281L396 281M369-67L310-216L231-216L302-67L369-67Z"  horiz-adv-x="530" vert-adv-y="1000"  />

      
      <glyph glyph-name="uni011A" unicode="&#x011A;" d="M545 0L103 0L103 712L545 712L545 644L179 644L179 393L491 393L491 325L179 325L179 68L545 68L545 0M471 933L345 780L277 780L152 933L221 933L311 829L402 933L471 933Z"  horiz-adv-x="600" vert-adv-y="1000"  />

      
      <glyph glyph-name="uni011B" unicode="&#x011B;" d="M467 227L135 227Q135 145 172 101Q209 57 280 57Q322 57 350.50 70Q379 83 409 113L458 70Q418 30 378 12Q338-6 278-6Q176-6 119.50 56.50Q63 119 63 246Q63 365 117 431.50Q171 498 265 498Q360 498 413.50 434.50Q467 371 467 259L467 227M396 281Q392 338 380 363Q345 437 265 437Q185 437 150 363Q138 337 135 281L396 281M424 747L299 594L231 594L105 747L174 747L265 642L355 747L424 747Z"  horiz-adv-x="530" vert-adv-y="1000"  />

      
      <glyph glyph-name="uni011C" unicode="&#x011C;" d="M576 259Q576 196 562.50 155Q549 114 515 76Q440-6 325-6Q217-6 147 64Q100 111 88 167Q76 223 76 356Q76 489 88 545Q100 601 147 648Q217 718 325 718Q424 718 491.50 658.50Q559 599 574 505L498 505Q483 573 437.50 611.50Q392 650 325 650Q250 650 202 600Q170 567 161 519.50Q152 472 152 356Q152 240 161 192.50Q170 145 202 112Q250 62 325 62Q410 62 460 123Q500 173 500 252L500 307L325 307L325 372L576 372L576 259M484 780L415 780L325 885L234 780L165 780L291 933L359 933L484 780Z"  horiz-adv-x="650" vert-adv-y="1000"  />

      
      <glyph glyph-name="uni011D" unicode="&#x011D;" d="M453-15Q453-108 398-167Q343-226 248-226Q194-226 157.50-211Q121-196 81-160L128-114Q158-141 182-152Q206-163 246-163Q314-163 347.50-121Q381-79 381-12L381 65Q331 1 243 1Q168 1 124 45Q64 105 64 250Q64 395 124 455Q167 498 244 498Q333 498 382 434L382 492L453 492L453-15M376.50 182Q376.50 182 378.75 196.50Q381 211 381 250Q381 289 376.50 318Q372 347 360 375.50Q348 404 322.50 419Q297 434 259 434Q221 434 195 419Q169 404 157 375.50Q145 347 140.50 318Q136 289 136 250Q136 211 140.50 182Q145 153 157 124.50Q169 96 195 81Q221 66 259 66Q297 66 322.50 81Q348 96 360 124.50Q372 153 376.50 182M419 594L350 594L259 698L169 594L100 594L225 747L293 747L419 594Z"  horiz-adv-x="543" vert-adv-y="1000"  />

      
      <glyph glyph-name="uni011E" unicode="&#x011E;" d="M576 259Q576 196 562.50 155Q549 114 515 76Q440-6 325-6Q217-6 147 64Q100 111 88 167Q76 223 76 356Q76 489 88 545Q100 601 147 648Q217 718 325 718Q424 718 491.50 658.50Q559 599 574 505L498 505Q483 573 437.50 611.50Q392 650 325 650Q250 650 202 600Q170 567 161 519.50Q152 472 152 356Q152 240 161 192.50Q170 145 202 112Q250 62 325 62Q410 62 460 123Q500 173 500 252L500 307L325 307L325 372L576 372L576 259M490 933Q478 794 325 794Q172 794 160 933L216 933Q221 893 250 871.50Q279 850 325 850Q371 850 400 871.50Q429 893 434 933L490 933Z"  horiz-adv-x="650" vert-adv-y="1000"  />

      
      <glyph glyph-name="uni011F" unicode="&#x011F;" d="M453-15Q453-108 398-167Q343-226 248-226Q194-226 157.50-211Q121-196 81-160L128-114Q158-141 182-152Q206-163 246-163Q314-163 347.50-121Q381-79 381-12L381 65Q331 1 243 1Q168 1 124 45Q64 105 64 250Q64 395 124 455Q167 498 244 498Q333 498 382 434L382 492L453 492L453-15M376.50 182Q376.50 182 378.75 196.50Q381 211 381 250Q381 289 376.50 318Q372 347 360 375.50Q348 404 322.50 419Q297 434 259 434Q221 434 195 419Q169 404 157 375.50Q145 347 140.50 318Q136 289 136 250Q136 211 140.50 182Q145 153 157 124.50Q169 96 195 81Q221 66 259 66Q297 66 322.50 81Q348 96 360 124.50Q372 153 376.50 182M424 709Q412 570 259 570Q106 570 94 709L150 709Q155 669 184 647.50Q213 626 259 626Q305 626 334 647.50Q363 669 368 709L424 709Z"  horiz-adv-x="543" vert-adv-y="1000"  />

      
      <glyph glyph-name="uni0120" unicode="&#x0120;" d="M576 259Q576 196 562.50 155Q549 114 515 76Q440-6 325-6Q217-6 147 64Q100 111 88 167Q76 223 76 356Q76 489 88 545Q100 601 147 648Q217 718 325 718Q424 718 491.50 658.50Q559 599 574 505L498 505Q483 573 437.50 611.50Q392 650 325 650Q250 650 202 600Q170 567 161 519.50Q152 472 152 356Q152 240 161 192.50Q170 145 202 112Q250 62 325 62Q410 62 460 123Q500 173 500 252L500 307L325 307L325 372L576 372L576 259M286 797L286 873L361 873L361 797L286 797Z"  horiz-adv-x="650" vert-adv-y="1000"  />

      
      <glyph glyph-name="uni0121" unicode="&#x0121;" d="M453-15Q453-108 398-167Q343-226 248-226Q194-226 157.50-211Q121-196 81-160L128-114Q158-141 182-152Q206-163 246-163Q314-163 347.50-121Q381-79 381-12L381 65Q331 1 243 1Q168 1 124 45Q64 105 64 250Q64 395 124 455Q167 498 244 498Q333 498 382 434L382 492L453 492L453-15M376.50 182Q376.50 182 378.75 196.50Q381 211 381 250Q381 289 376.50 318Q372 347 360 375.50Q348 404 322.50 419Q297 434 259 434Q221 434 195 419Q169 404 157 375.50Q145 347 140.50 318Q136 289 136 250Q136 211 140.50 182Q145 153 157 124.50Q169 96 195 81Q221 66 259 66Q297 66 322.50 81Q348 96 360 124.50Q372 153 376.50 182M220 610L220 687L295 687L295 610L220 610Z"  horiz-adv-x="543" vert-adv-y="1000"  />

      
      <glyph glyph-name="uni0122" unicode="&#x0122;" d="M576 259Q576 196 562.50 155Q549 114 515 76Q440-6 325-6Q217-6 147 64Q100 111 88 167Q76 223 76 356Q76 489 88 545Q100 601 147 648Q217 718 325 718Q424 718 491.50 658.50Q559 599 574 505L498 505Q483 573 437.50 611.50Q392 650 325 650Q250 650 202 600Q170 567 161 519.50Q152 472 152 356Q152 240 161 192.50Q170 145 202 112Q250 62 325 62Q410 62 460 123Q500 173 500 252L500 307L325 307L325 372L576 372L576 259M329-216L251-216L322-67L388-67L329-216Z"  horiz-adv-x="650" vert-adv-y="1000"  />

      
      <glyph glyph-name="uni0123" unicode="&#x0123;" d="M453-15Q453-108 398-167Q343-226 248-226Q194-226 157.50-211Q121-196 81-160L128-114Q158-141 182-152Q206-163 246-163Q314-163 347.50-121Q381-79 381-12L381 65Q331 1 243 1Q168 1 124 45Q64 105 64 250Q64 395 124 455Q167 498 244 498Q333 498 382 434L382 492L453 492L453-15M376.50 182Q376.50 182 378.75 196.50Q381 211 381 250Q381 289 376.50 318Q372 347 360 375.50Q348 404 322.50 419Q297 434 259 434Q221 434 195 419Q169 404 157 375.50Q145 347 140.50 318Q136 289 136 250Q136 211 140.50 182Q145 153 157 124.50Q169 96 195 81Q221 66 259 66Q297 66 322.50 81Q348 96 360 124.50Q372 153 376.50 182M396 747L288 594L222 594L310 747L396 747Z"  horiz-adv-x="543" vert-adv-y="1000"  />

      
      <glyph glyph-name="uni0124" unicode="&#x0124;" d="M593 0L517 0L517 325L179 325L179 0L103 0L103 712L179 712L179 393L517 393L517 712L593 712L593 0M507 780L438 780L348 885L257 780L188 780L314 933L382 933L507 780Z"  horiz-adv-x="696" vert-adv-y="1000"  />

      
      <glyph glyph-name="uni0125" unicode="&#x0125;" d="M477 0L405 0L405 304Q405 368 373.50 401Q342 434 285 434Q227 434 194.50 401Q162 368 162 304L162 0L90 0L90 712L162 712L162 438Q216 498 300 498Q383 498 430 449Q477 400 477 316L477 0M287 780L218 780L127 884L37 780L-32 780L93 933L161 933L287 780Z"  horiz-adv-x="562" vert-adv-y="1000"  />

      
      <glyph glyph-name="uni0126" unicode="&#x0126;" d="M678 515L604 515L604 0L528 0L528 325L190 325L190 0L114 0L114 515L40 515L40 573L114 573L114 712L190 712L190 573L528 573L528 712L604 712L604 573L678 573L678 515M528 393L528 515L190 515L190 393L528 393Z"  horiz-adv-x="718" vert-adv-y="1000"  />

      
      <glyph glyph-name="uni0127" unicode="&#x0127;" d="M477 0L405 0L405 304Q405 367 373.50 400.50Q342 434 285 434Q228 434 195 400.50Q162 367 162 304L162 0L90 0L90 572L30 572L30 620L90 620L90 712L162 712L162 620L286 620L286 572L162 572L162 438Q215 498 300 498Q383 498 430 449Q477 400 477 316L477 0Z"  horiz-adv-x="562" vert-adv-y="1000"  />

      
      <glyph glyph-name="uni0128" unicode="&#x0128;" d="M179 0L103 0L103 712L179 712L179 0M298 844Q247 794 203 794Q171 794 132 817Q96 838 76 838Q49 838 17 806L-20 842Q31 893 75 893Q108 893 146 869Q178 849 202 849Q229 849 261 881L298 844Z"  horiz-adv-x="282" vert-adv-y="1000"  />

      
      <glyph glyph-name="uni0129" unicode="&#x0129;" d="M162 0L90 0L90 492L162 492L162 0M285 658Q235 607 190 607Q160 607 119 631Q84 651 63 651Q36 651 4 619L-33 655Q18 706 62 706Q96 706 133 682Q168 662 189 662Q216 662 248 694L285 658Z"  horiz-adv-x="252" vert-adv-y="1000"  />

      
      <glyph glyph-name="uni012A" unicode="&#x012A;" d="M179 0L103 0L103 712L179 712L179 0M-9 798L-9 855L292 855L292 798L-9 798Z"  horiz-adv-x="282" vert-adv-y="1000"  />

      
      <glyph glyph-name="uni012B" unicode="&#x012B;" d="M162 0L90 0L90 492L162 492L162 0M278 602L-23 602L-23 658L278 658L278 602Z"  horiz-adv-x="252" vert-adv-y="1000"  />

      
      <glyph glyph-name="uni012C" unicode="&#x012C;" d="M179 0L103 0L103 712L179 712L179 0M305 933Q293 794 140 794Q-13 794-25 933L31 933Q36 893 65 871.50Q94 850 140 850Q186 850 215 871.50Q244 893 249 933L305 933Z"  horiz-adv-x="282" vert-adv-y="1000"  />

      
      <glyph glyph-name="uni012D" unicode="&#x012D;" d="M162 0L90 0L90 492L162 492L162 0M291 729Q279 590 126 590Q-27 590-39 729L17 729Q22 689 51 667.50Q80 646 126 646Q172 646 201 667.50Q230 689 235 729L291 729Z"  horiz-adv-x="252" vert-adv-y="1000"  />

      
      <glyph glyph-name="uni012E" unicode="&#x012E;" d="M179 0L103 0L103 712L179 712L179 0M170-67L111-216L32-216L103-67L170-67Z"  horiz-adv-x="282" vert-adv-y="1000"  />

      
      <glyph glyph-name="uni012F" unicode="&#x012F;" d="M162 0L90 0L90 492L162 492L162 0M167 632L86 632L86 713L167 713L167 632M158-67L99-216L20-216L91-67L158-67Z"  horiz-adv-x="252" vert-adv-y="1000"  />

      
      <glyph glyph-name="uni0130" unicode="&#x0130;" d="M179 0L103 0L103 712L179 712L179 0M103 797L103 873L178 873L178 797L103 797Z"  horiz-adv-x="282" vert-adv-y="1000"  />

      
      <glyph glyph-name="uni0131" unicode="&#x0131;" d="M162 0L90 0L90 492L162 492L162 0Z"  horiz-adv-x="252" vert-adv-y="1000"  />

      
      <glyph glyph-name="uni0132" unicode="&#x0132;" d="M179 0L103 0L103 712L179 712L179 0M690 216Q690 114 628.50 54Q567-6 468-6Q369-6 305 58L356 109Q379 86 403.50 74Q428 62 468 62Q538 62 576 104.50Q614 147 614 226L614 712L690 712L690 216Z"  horiz-adv-x="783" vert-adv-y="1000"  />

      
      <glyph glyph-name="uni0133" unicode="&#x0133;" d="M162 0L90 0L90 492L162 492L162 0M167 632L86 632L86 713L167 713L167 632M415-89Q415-148 383.50-184.50Q352-221 290-221L238-221L238-158L277-158Q313-158 328-140.50Q343-123 343-86L343 492L415 492L415-89M420 632L339 632L339 713L420 713L420 632Z"  horiz-adv-x="506" vert-adv-y="1000"  />

      
      <glyph glyph-name="uni0134" unicode="&#x0134;" d="M408 216Q408 114 346.50 54Q285-6 186-6Q87-6 23 58L74 109Q97 86 121.50 74Q146 62 186 62Q256 62 294 104.50Q332 147 332 226L332 712L408 712L408 216M529 780L460 780L370 885L279 780L210 780L336 933L404 933L529 780Z"  horiz-adv-x="501" vert-adv-y="1000"  />

      
      <glyph glyph-name="uni0135" unicode="&#x0135;" d="M162-89Q162-148 130.50-184.50Q99-221 37-221L-15-221L-15-158L24-158Q60-158 75-140.50Q90-123 90-86L90 492L162 492L162-89M286 594L217 594L126 698L36 594L-33 594L92 747L160 747L286 594Z"  horiz-adv-x="253" vert-adv-y="1000"  />

      
      <glyph glyph-name="uni0136" unicode="&#x0136;" d="M636 0L546 0L329 379L179 199L179 0L103 0L103 712L179 712L179 303L511 712L604 712L380 437L636 0M328-216L250-216L321-67L387-67L328-216Z"  horiz-adv-x="650" vert-adv-y="1000"  />

      
      <glyph glyph-name="uni0137" unicode="&#x0137;" d="M503 0L414 0L258 252L162 142L162 0L90 0L90 712L162 712L162 236L384 492L474 492L307 304L503 0M271-216L193-216L264-67L330-67L271-216Z"  horiz-adv-x="536" vert-adv-y="1000"  />

      
      <glyph glyph-name="uni0138" unicode="&#x0138;" d="M503 0L414 0L258 252L162 142L162 0L90 0L90 492L162 492L162 236L384 492L474 492L307 304L503 0Z"  horiz-adv-x="536" vert-adv-y="1000"  />

      
      <glyph glyph-name="uni0139" unicode="&#x0139;" d="M543 0L103 0L103 712L179 712L179 68L543 68L543 0M275 934L170 780L101 780L192 934L275 934Z"  horiz-adv-x="573" vert-adv-y="1000"  />

      
      <glyph glyph-name="uni013A" unicode="&#x013A;" d="M265 0L213 0Q151 0 119.50 36Q88 72 88 131L88 712L160 712L160 134Q160 97 175 79.50Q190 62 226 62L265 62L265 0M261 934L156 780L87 780L178 934L261 934Z"  horiz-adv-x="294" vert-adv-y="1000"  />

      
      <glyph glyph-name="uni013B" unicode="&#x013B;" d="M543 0L103 0L103 712L179 712L179 68L543 68L543 0M289-216L211-216L282-67L348-67L289-216Z"  horiz-adv-x="573" vert-adv-y="1000"  />

      
      <glyph glyph-name="uni013C" unicode="&#x013C;" d="M265 0L213 0Q151 0 119.50 36Q88 72 88 131L88 712L160 712L160 134Q160 97 175 79.50Q190 62 226 62L265 62L265 0M152-216L74-216L145-67L211-67L152-216Z"  horiz-adv-x="294" vert-adv-y="1000"  />

      
      <glyph glyph-name="uni013D" unicode="&#x013D;" d="M543 0L103 0L103 712L179 712L179 68L543 68L543 0M405 712L354 560L296 560L335 712L405 712Z"  horiz-adv-x="573" vert-adv-y="1000"  />

      
      <glyph glyph-name="uni013E" unicode="&#x013E;" d="M265 0L213 0Q151 0 119.50 36Q88 72 88 131L88 712L160 712L160 134Q160 97 175 79.50Q190 62 226 62L265 62L265 0M331 719L280 567L222 567L261 719L331 719Z"  horiz-adv-x="294" vert-adv-y="1000"  />

      
      <glyph glyph-name="uni013F" unicode="&#x013F;" d="M543 0L103 0L103 712L179 712L179 68L543 68L543 0M389 320L389 396L464 396L464 320L389 320Z"  horiz-adv-x="573" vert-adv-y="1000"  />

      
      <glyph glyph-name="uni0140" unicode="&#x0140;" d="M265 0L213 0Q151 0 119.50 36Q88 72 88 131L88 712L160 712L160 134Q160 97 175 79.50Q190 62 226 62L265 62L265 0M233 231L233 308L308 308L308 231L233 231Z"  horiz-adv-x="294" vert-adv-y="1000"  />

      
      <glyph glyph-name="uni0141" unicode="&#x0141;" d="M552 0L112 0L112 289L39 243L39 310L112 356L112 712L189 712L189 404L343 502L343 436L189 338L189 68L552 68L552 0Z"  horiz-adv-x="582" vert-adv-y="1000"  />

      
      <glyph glyph-name="uni0142" unicode="&#x0142;" d="M278 0L226 0Q164 0 132 36Q100 72 100 131L100 342L37 303L37 365L100 404L100 712L172 712L172 448L253 498L253 436L172 386L172 134Q172 97 187 79.50Q202 62 238 62L278 62L278 0Z"  horiz-adv-x="315" vert-adv-y="1000"  />

      
      <glyph glyph-name="uni0143" unicode="&#x0143;" d="M629 0L557 0L179 571L179 0L103 0L103 712L175 712L553 143L553 712L629 712L629 0M489 934L384 780L315 780L406 934L489 934Z"  horiz-adv-x="732" vert-adv-y="1000"  />

      
      <glyph glyph-name="uni0144" unicode="&#x0144;" d="M477 0L405 0L405 303Q405 367 373 400.50Q341 434 284 434Q227 434 194.50 400Q162 366 162 303L162 0L90 0L90 492L162 492L162 438Q214 498 300 498Q380 498 426 452Q477 402 477 315L477 0M405 747L300 594L231 594L322 747L405 747Z"  horiz-adv-x="562" vert-adv-y="1000"  />

      
      <glyph glyph-name="uni0145" unicode="&#x0145;" d="M629 0L557 0L179 571L179 0L103 0L103 712L175 712L553 143L553 712L629 712L629 0M359-216L281-216L352-67L418-67L359-216Z"  horiz-adv-x="732" vert-adv-y="1000"  />

      
      <glyph glyph-name="uni0146" unicode="&#x0146;" d="M477 0L405 0L405 303Q405 367 373 400.50Q341 434 284 434Q227 434 194.50 400Q162 366 162 303L162 0L90 0L90 492L162 492L162 438Q214 498 300 498Q380 498 426 452Q477 402 477 315L477 0M284-216L206-216L277-67L343-67L284-216Z"  horiz-adv-x="562" vert-adv-y="1000"  />

      
      <glyph glyph-name="uni0147" unicode="&#x0147;" d="M629 0L557 0L179 571L179 0L103 0L103 712L175 712L553 143L553 712L629 712L629 0M526 933L400 780L332 780L207 933L276 933L366 829L457 933L526 933Z"  horiz-adv-x="732" vert-adv-y="1000"  />

      
      <glyph glyph-name="uni0148" unicode="&#x0148;" d="M477 0L405 0L405 303Q405 367 373 400.50Q341 434 284 434Q227 434 194.50 400Q162 366 162 303L162 0L90 0L90 492L162 492L162 438Q214 498 300 498Q380 498 426 452Q477 402 477 315L477 0M440 747L315 594L247 594L121 747L190 747L281 642L371 747L440 747Z"  horiz-adv-x="562" vert-adv-y="1000"  />

      
      <glyph glyph-name="uni0149" unicode="&#x0149;" d="M477 0L405 0L405 303Q405 367 373 400.50Q341 434 284 434Q227 434 194.50 400Q162 366 162 303L162 0L90 0L90 492L162 492L162 438Q214 498 300 498Q380 498 426 452Q477 402 477 315L477 0M90 594L22 529L22 719L90 719L90 594Z"  horiz-adv-x="562" vert-adv-y="1000"  />

      
      <glyph glyph-name="uni014A" unicode="&#x014A;" d="M629-84Q629-143 597.50-179.50Q566-216 504-216L452-216L452-153L489-153Q523-153 538-135.50Q553-118 553-81L553 6L179 571L179 0L103 0L103 712L175 712L553 143L553 712L629 712L629-84Z"  horiz-adv-x="732" vert-adv-y="1000"  />

      
      <glyph glyph-name="uni014B" unicode="&#x014B;" d="M477-84Q477-143 445.50-179.50Q414-216 352-216L300-216L300-153L339-153Q375-153 390-135.50Q405-118 405-81L405 303Q405 367 373 400.50Q341 434 284 434Q227 434 194.50 400Q162 366 162 303L162 0L90 0L90 492L162 492L162 438Q214 498 300 498Q380 498 426 452Q477 402 477 315L477-84Z"  horiz-adv-x="562" vert-adv-y="1000"  />

      
      <glyph glyph-name="uni014C" unicode="&#x014C;" d="M562 544Q562 544 568 516Q574 488 574 356Q574 224 562 168Q550 112 502 64Q432-6 325-6Q217-6 147 64Q100 111 88 167Q76 223 76 356Q76 489 88 545Q100 601 147 648Q217 718 325 718Q432 718 502 648Q550 600 562 544M489 192.50Q489 192.50 493.50 216.25Q498 240 498 356Q498 472 489 519.50Q480 567 448 600Q398 650 325 650Q252 650 202 600Q170 567 161 519.50Q152 472 152 356Q152 240 161 192.50Q170 145 202 112Q252 62 325 62Q398 62 448 112Q480 145 489 192.50M173 798L173 855L474 855L474 798L173 798Z"  horiz-adv-x="650" vert-adv-y="1000"  />

      
      <glyph glyph-name="uni014D" unicode="&#x014D;" d="M466 246Q466 111 406 50Q352-6 265-6Q178-6 124 50Q64 111 64 246Q64 382 124 442Q178 498 265 498Q352 498 406 442Q466 382 466 246M394 246Q394 359 355 398Q319 434 265 434Q212 434 176 398Q136 358 136 246Q136 134 176 94Q212 58 265 58Q319 58 355 94Q394 134 394 246M416 602L115 602L115 658L416 658L416 602Z"  horiz-adv-x="530" vert-adv-y="1000"  />

      
      <glyph glyph-name="uni014E" unicode="&#x014E;" d="M562 544Q562 544 568 516Q574 488 574 356Q574 224 562 168Q550 112 502 64Q432-6 325-6Q217-6 147 64Q100 111 88 167Q76 223 76 356Q76 489 88 545Q100 601 147 648Q217 718 325 718Q432 718 502 648Q550 600 562 544M489 192.50Q489 192.50 493.50 216.25Q498 240 498 356Q498 472 489 519.50Q480 567 448 600Q398 650 325 650Q252 650 202 600Q170 567 161 519.50Q152 472 152 356Q152 240 161 192.50Q170 145 202 112Q252 62 325 62Q398 62 448 112Q480 145 489 192.50M490 933Q478 794 325 794Q172 794 160 933L216 933Q221 893 250 871.50Q279 850 325 850Q371 850 400 871.50Q429 893 434 933L490 933Z"  horiz-adv-x="650" vert-adv-y="1000"  />

      
      <glyph glyph-name="uni014F" unicode="&#x014F;" d="M466 246Q466 111 406 50Q352-6 265-6Q178-6 124 50Q64 111 64 246Q64 382 124 442Q178 498 265 498Q352 498 406 442Q466 382 466 246M394 246Q394 359 355 398Q319 434 265 434Q212 434 176 398Q136 358 136 246Q136 134 176 94Q212 58 265 58Q319 58 355 94Q394 134 394 246M430 729Q418 590 265 590Q112 590 100 729L156 729Q161 689 190 667.50Q219 646 265 646Q311 646 340 667.50Q369 689 374 729L430 729Z"  horiz-adv-x="530" vert-adv-y="1000"  />

      
      <glyph glyph-name="uni0150" unicode="&#x0150;" d="M562 544Q562 544 568 516Q574 488 574 356Q574 224 562 168Q550 112 502 64Q432-6 325-6Q217-6 147 64Q100 111 88 167Q76 223 76 356Q76 489 88 545Q100 601 147 648Q217 718 325 718Q432 718 502 648Q550 600 562 544M489 192.50Q489 192.50 493.50 216.25Q498 240 498 356Q498 472 489 519.50Q480 567 448 600Q398 650 325 650Q252 650 202 600Q170 567 161 519.50Q152 472 152 356Q152 240 161 192.50Q170 145 202 112Q252 62 325 62Q398 62 448 112Q480 145 489 192.50M379 934L271 781L205 781L294 934L379 934M542 934L433 781L368 781L457 934L542 934Z"  horiz-adv-x="650" vert-adv-y="1000"  />

      
      <glyph glyph-name="uni0151" unicode="&#x0151;" d="M466 246Q466 111 406 50Q352-6 265-6Q178-6 124 50Q64 111 64 246Q64 382 124 442Q178 498 265 498Q352 498 406 442Q466 382 466 246M394 246Q394 359 355 398Q319 434 265 434Q212 434 176 398Q136 358 136 246Q136 134 176 94Q212 58 265 58Q319 58 355 94Q394 134 394 246M319 747L211 594L145 594L234 747L319 747M482 747L373 594L308 594L397 747L482 747Z"  horiz-adv-x="530" vert-adv-y="1000"  />

      
      <glyph glyph-name="uni0152" unicode="&#x0152;" d="M324-6Q217-6 147 64Q100 111 88 167Q76 223 76 356Q76 489 88 545Q100 601 147 648Q217 718 324 718Q432 718 497 638L497 712L931 712L931 645L573 645L573 391L878 391L878 327L573 327L573 67L931 67L931 0L497 0L497 74Q432-6 324-6M325 62Q399 62 448 113Q480 146 488.50 192Q497 238 497 356Q497 474 488.50 520Q480 566 448 599Q399 650 325 650Q250 650 202 600Q170 567 161 519.50Q152 472 152 356Q152 240 161 192.50Q170 145 202 112Q250 62 325 62Z"  horiz-adv-x="989" vert-adv-y="1000"  />

      
      <glyph glyph-name="uni0153" unicode="&#x0153;" d="M798 227L466 227Q466 145 503 101Q540 57 611 57Q653 57 681.50 70Q710 83 740 113L789 70Q749 30 709 12Q669-6 609-6Q485-6 432 89Q409 44 365 19Q321-6 265-6Q178-6 124 50Q64 111 64 246Q64 382 124 442Q178 498 265 498Q383 498 433 403Q482 498 596 498Q691 498 744.50 434Q798 370 798 260L798 227M727 281Q723 338 711 363Q676 437 596 437Q516 437 481 363Q469 337 466 281L727 281M394 246Q394 359 355 398Q319 434 265 434Q212 434 176 398Q136 358 136 246Q136 134 176 94Q212 58 265 58Q319 58 355 94Q394 134 394 246Z"  horiz-adv-x="861" vert-adv-y="1000"  />

      
      <glyph glyph-name="uni0154" unicode="&#x0154;" d="M601 0L512 0L350 316L179 316L179 0L103 0L103 712L376 712Q470 712 528.50 658.50Q587 605 587 514Q587 438 545 388Q503 338 432 323L601 0M472.50 416.50Q472.50 416.50 491.75 433.25Q511 450 511 513Q511 576 472 610Q433 644 369 644L179 644L179 383L369 383Q434 383 472.50 416.50M451 934L346 780L277 780L368 934L451 934Z"  horiz-adv-x="656" vert-adv-y="1000"  />

      
      <glyph glyph-name="uni0155" unicode="&#x0155;" d="M418 452L365 398Q345 418 326.50 426Q308 434 280 434Q227 434 194.50 396.50Q162 359 162 302L162 0L90 0L90 492L162 492L162 432Q182 463 219.50 480.50Q257 498 300 498Q372 498 418 452M335 747L230 594L161 594L252 747L335 747Z"  horiz-adv-x="421" vert-adv-y="1000"  />

      
      <glyph glyph-name="uni0156" unicode="&#x0156;" d="M601 0L512 0L350 316L179 316L179 0L103 0L103 712L376 712Q470 712 528.50 658.50Q587 605 587 514Q587 438 545 388Q503 338 432 323L601 0M472.50 416.50Q472.50 416.50 491.75 433.25Q511 450 511 513Q511 576 472 610Q433 644 369 644L179 644L179 383L369 383Q434 383 472.50 416.50M331-216L253-216L324-67L390-67L331-216Z"  horiz-adv-x="656" vert-adv-y="1000"  />

      
      <glyph glyph-name="uni0157" unicode="&#x0157;" d="M418 452L365 398Q345 418 326.50 426Q308 434 280 434Q227 434 194.50 396.50Q162 359 162 302L162 0L90 0L90 492L162 492L162 432Q182 463 219.50 480.50Q257 498 300 498Q372 498 418 452M101-216L23-216L94-67L160-67L101-216Z"  horiz-adv-x="421" vert-adv-y="1000"  />

      
      <glyph glyph-name="uni0158" unicode="&#x0158;" d="M601 0L512 0L350 316L179 316L179 0L103 0L103 712L376 712Q470 712 528.50 658.50Q587 605 587 514Q587 438 545 388Q503 338 432 323L601 0M472.50 416.50Q472.50 416.50 491.75 433.25Q511 450 511 513Q511 576 472 610Q433 644 369 644L179 644L179 383L369 383Q434 383 472.50 416.50M488 933L362 780L294 780L169 933L238 933L328 829L419 933L488 933Z"  horiz-adv-x="656" vert-adv-y="1000"  />

      
      <glyph glyph-name="uni0159" unicode="&#x0159;" d="M418 452L365 398Q345 418 326.50 426Q308 434 280 434Q227 434 194.50 396.50Q162 359 162 302L162 0L90 0L90 492L162 492L162 432Q182 463 219.50 480.50Q257 498 300 498Q372 498 418 452M390 747L265 594L197 594L71 747L140 747L231 642L321 747L390 747Z"  horiz-adv-x="421" vert-adv-y="1000"  />

      
      <glyph glyph-name="uni015A" unicode="&#x015A;" d="M532 196Q532 103 465 48.50Q398-6 286-6Q206-6 149 16Q92 38 43 88L94 139Q137 96 181.50 79Q226 62 288 62Q367 62 412 96.50Q457 131 457 194Q457 252 422 283Q395 308 329 318L246 330Q162 343 116 384Q61 433 61 518Q61 609 122.50 663.50Q184 718 289 718Q356 718 405.50 699.50Q455 681 501 640L452 591Q387 653 286 653Q215 653 175 617Q135 581 135 520Q135 465 167 437Q198 410 260 400L343 387Q393 379 420.50 368.50Q448 358 472 336Q532 284 532 196M417 934L312 780L243 780L334 934L417 934Z"  horiz-adv-x="588" vert-adv-y="1000"  />

      
      </font>
</defs>
</svg>
