<?xml version="1.0" standalone="no"?>
  <!DOCTYPE svg PUBLIC "-//W3C//DTD SVG 1.1//EN" "http://www.w3.org/Graphics/SVG/1.1/DTD/svg11.dtd" >
  <svg>
  <metadata>
  Created by font-carrier
  </metadata>
  <defs>
  <font id="DINPro-Black" horiz-adv-x="1241" vert-adv-y="1241" >
    <font-face
      
      font-family="DIN Pro Black"
      
      font-weight="400"
      
      font-stretch="normal"
      
      units-per-em="1000"
      
      ascent="1031"
      
      descent="-197"
      
    />
      <missing-glyph />

      

      
      <glyph glyph-name="uni21" unicode="&#x21;" d="M306 712L262 237L144 237L100 712L306 712M287 0L119 0L119 161L287 161L287 0Z"  horiz-adv-x="366" vert-adv-y="1000"  />

      
      <glyph glyph-name="uni22" unicode="&#x22;" d="M431 478L284 478L284 712L431 712L431 478M204 478L57 478L57 712L204 712L204 478Z"  horiz-adv-x="488" vert-adv-y="1000"  />

      
      <glyph glyph-name="uni23" unicode="&#x23;" d="M666 412L583 412L570 324L628 324L628 169L545 169L518 0L344 0L371 169L281 169L254 0L80 0L107 169L49 169L49 324L132 324L145 412L87 412L87 567L170 567L194 720L368 720L344 567L434 567L458 720L632 720L608 567L666 567L666 412M409 412L319 412L306 324L396 324L409 412Z"  horiz-adv-x="713" vert-adv-y="1000"  />

      
      <glyph glyph-name="uni24" unicode="&#x24;" d="M590 218Q590 128 530.50 71Q471 14 376-1L376-114L250-114L250-6Q92-1 5 88L117 200Q165 152 270 150L270 282L231 287Q138 299 88 350Q39 400 39 493Q39 581 95.50 641.50Q152 702 250 715L250 806L376 806L376 717Q503 709 579 633L469 523Q433 559 356 564L356 439L397 433Q491 420 537 374Q590 322 590 218M418 214Q418 242 404 256Q390 271 356 275L356 153Q418 165 418 214M270 445L270 563Q239 557 223.50 539Q208 521 208 499Q208 480 222 466Q239 449 270 445Z"  horiz-adv-x="633" vert-adv-y="1000"  />

      
      <glyph glyph-name="uni25" unicode="&#x25;" d="M812 133Q812 66 768.50 30Q725-6 661-6Q597-6 553.50 30Q510 66 510 133L510 228Q510 295 553.50 331Q597 367 661 367Q725 367 768.50 331Q812 295 812 228L812 133M347 484Q347 417 303.50 381Q260 345 196 345Q132 345 88.50 381Q45 417 45 484L45 579Q45 646 88.50 682Q132 718 196 718Q260 718 303.50 682Q347 646 347 579L347 484M661 712L322 0L196 0L535 712L661 712M231 488L231 575Q231 614 196 614Q161 614 161 575L161 488Q161 449 196 449Q231 449 231 488M696 137L696 224Q696 263 661 263Q626 263 626 224L626 137Q626 98 661 98Q696 98 696 137Z"  horiz-adv-x="857" vert-adv-y="1000"  />

      
      <glyph glyph-name="uni26" unicode="&#x26;" d="M710 0L504 0L459 52Q434 33 417.50 23Q401 13 367 3.50Q333-6 290-6Q49-6 49 216Q49 319 162 394Q95 469 95 541Q95 622 149.50 670Q204 718 304 718Q397 718 450 668.50Q503 619 503 539Q503 495 482 465.50Q461 436 412 401L383 380L467 283Q494 314 500 386L654 386Q643 242 571 163L710 0M360 168L249 295Q207 266 207 217Q207 185 231.50 163.50Q256 142 290 142Q330 142 360 168M349 538Q349 557 337.50 568.50Q326 580 304 580Q259 580 259 537Q259 517 297 479L321 496Q349 516 349 538Z"  horiz-adv-x="710" vert-adv-y="1000"  />

      
      <glyph glyph-name="uni27" unicode="&#x27;" d="M205 478L57 478L57 712L205 712L205 478Z"  horiz-adv-x="262" vert-adv-y="1000"  />

      
      <glyph glyph-name="uni28" unicode="&#x28;" d="M309 16L199-94Q196-91 182-77Q168-63 163.50-58.50Q159-54 147.50-41.50Q136-29 129.50-21.50Q123-14 115-2.50Q107 9 101 19Q72 67 72 163L72 549Q72 645 101 693Q107 703 115 714.50Q123 726 129.50 733.50Q136 741 147.50 753.50Q159 766 163.50 770.50Q168 775 182 789Q196 803 199 806L309 696Q268 655 252 629Q236 602 236 543L236 169Q236 110 252 83Q268 57 309 16Z"  horiz-adv-x="358" vert-adv-y="1000"  />

      
      <glyph glyph-name="uni29" unicode="&#x29;" d="M286 163Q286 67 257 19Q251 9 243-2.50Q235-14 228.50-21.50Q222-29 210.50-41.50Q199-54 194.50-58.50Q190-63 176-77Q162-91 159-94L49 16Q90 57 106 83Q122 110 122 169L122 543Q122 602 106 629Q90 655 49 696L159 806Q162 803 176 789Q190 775 194.50 770.50Q199 766 210.50 753.50Q222 741 228.50 733.50Q235 726 243 714.50Q251 703 257 693Q286 645 286 549L286 163Z"  horiz-adv-x="358" vert-adv-y="1000"  />

      
      <glyph glyph-name="uni2a" unicode="&#x2a;" d="M459 453L403 356L304 420L309 302L197 302L202 420L103 356L47 453L152 507L47 561L103 658L202 594L197 712L309 712L304 594L403 658L459 561L354 507L459 453Z"  horiz-adv-x="506" vert-adv-y="1000"  />

      
      <glyph glyph-name="uni2b" unicode="&#x2b;" d="M507 206L355 206L355 54L201 54L201 206L49 206L49 360L201 360L201 512L355 512L355 360L507 360L507 206Z"  horiz-adv-x="556" vert-adv-y="1000"  />

      
      <glyph glyph-name="uni2c" unicode="&#x2c;" d="M231-50L57-178L57 174L231 174L231-50Z"  horiz-adv-x="288" vert-adv-y="1000"  />

      
      <glyph glyph-name="uni2d" unicode="&#x2d;" d="M377 218L49 218L49 372L377 372L377 218Z"  horiz-adv-x="426" vert-adv-y="1000"  />

      
      <glyph glyph-name="uni2e" unicode="&#x2e;" d="M237 0L57 0L57 180L237 180L237 0Z"  horiz-adv-x="294" vert-adv-y="1000"  />

      
      <glyph glyph-name="uni2f" unicode="&#x2f;" d="M437 786L152-74L0-74L285 786L437 786Z"  horiz-adv-x="431" vert-adv-y="1000"  />

      
      <glyph glyph-name="uni30" unicode="&#x30;" d="M507 216Q507 111 440 52.50Q373-6 278-6Q183-6 116 52.50Q49 111 49 216L49 496Q49 601 116 659.50Q183 718 278 718Q373 718 440 659.50Q507 601 507 496L507 216M343 215L343 496Q343 532 324.50 551Q306 570 278 570Q250 570 231.50 551Q213 532 213 496L213 215Q213 179 231.50 160.50Q250 142 278 142Q306 142 324.50 160.50Q343 179 343 215Z"  horiz-adv-x="556" vert-adv-y="1000"  />

      
      <glyph glyph-name="uni31" unicode="&#x31;" d="M406 0L242 0L242 537L90 405L90 580L242 712L406 712L406 0Z"  horiz-adv-x="556" vert-adv-y="1000"  />

      
      <glyph glyph-name="uni32" unicode="&#x32;" d="M511 0L53 0L53 148L311 428Q347 467 347 504Q347 534 330.50 552Q314 570 283 570Q256 570 236.50 554Q217 538 217 501L53 501Q53 602 119.50 660Q186 718 283 718Q384 718 447.50 660Q511 602 511 503Q511 451 491 415Q471 379 423 328L253 148L511 148L511 0Z"  horiz-adv-x="556" vert-adv-y="1000"  />

      
      <glyph glyph-name="uni33" unicode="&#x33;" d="M516 213Q516 107 448 50.50Q380-6 279-6Q216-6 164.50 15.50Q113 37 77.50 89Q42 141 42 217L206 217Q206 181 226.50 161.50Q247 142 279 142Q312 142 332 161.50Q352 181 352 218Q352 250 330.50 271.50Q309 293 276 293L253 293L253 435L276 435Q310 435 327 455Q344 475 344 502Q344 534 325 552Q306 570 279 570Q252 570 233 552Q214 534 214 503L50 503Q50 601 115.50 659.50Q181 718 279 718Q378 718 443 658.50Q508 599 508 507Q508 415 434 368Q516 311 516 213Z"  horiz-adv-x="556" vert-adv-y="1000"  />

      
      <glyph glyph-name="uni34" unicode="&#x34;" d="M530 94L477 94L477 0L321 0L321 94L26 94L26 250L262 712L442 712L206 250L321 250L321 344L477 344L477 250L530 250L530 94Z"  horiz-adv-x="556" vert-adv-y="1000"  />

      
      <glyph glyph-name="uni35" unicode="&#x35;" d="M512 243Q512 176 498 135Q484 94 446 55Q385-6 281-6Q174-6 112 56Q88 80 74 110Q60 140 56.50 162Q53 184 50 217L214 217Q222 142 281 142Q309 142 327 160Q348 181 348 243Q348 299 331 321.50Q314 344 281 344Q264 344 251.50 339Q239 334 231.50 325Q224 316 221 309.50Q218 303 214 293L63 293L63 712L497 712L497 564L212 564L212 454Q248 482 308 482Q396 482 446 432Q486 392 499 347Q512 302 512 243Z"  horiz-adv-x="556" vert-adv-y="1000"  />

      
      <glyph glyph-name="uni36" unicode="&#x36;" d="M512 223Q512 114 444 54Q376-6 275-6Q174-6 106 54Q38 114 38 223Q38 293 100 418L243 712L423 712L282 433Q296 438 322 438Q394 438 453 380Q512 322 512 223M327 163.50Q327 163.50 337.50 174.25Q348 185 348 223Q348 261 327 282.50Q306 304 275 304Q244 304 223 282.50Q202 261 202 223Q202 185 223 163.50Q244 142 275 142Q306 142 327 163.50Z"  horiz-adv-x="556" vert-adv-y="1000"  />

      
      <glyph glyph-name="uni37" unicode="&#x37;" d="M522 564L300 0L120 0L342 564L190 564L190 452L34 452L34 712L522 712L522 564Z"  horiz-adv-x="556" vert-adv-y="1000"  />

      
      <glyph glyph-name="uni38" unicode="&#x38;" d="M517 213Q517 107 449.50 50.50Q382-6 278-6Q174-6 106.50 50.50Q39 107 39 213Q39 254 55.50 288.50Q72 323 85 336Q98 349 119 366Q46 427 46 507Q46 604 114 661Q182 718 278 718Q374 718 442 661Q510 604 510 507Q510 427 437 366Q458 349 471 336Q484 323 500.50 288.50Q517 254 517 213M331 164Q331 164 342 175Q353 186 353 217Q353 248 331 270Q309 292 278 292Q247 292 225 270Q203 248 203 217Q203 186 225 164Q247 142 278 142Q309 142 331 164M326 454Q326 454 336 464Q346 474 346 502Q346 530 326 550Q306 570 278 570Q250 570 230 550Q210 530 210 502Q210 474 230 454Q250 434 278 434Q306 434 326 454Z"  horiz-adv-x="556" vert-adv-y="1000"  />

      
      <glyph glyph-name="uni39" unicode="&#x39;" d="M518 489Q518 446 504 405.50Q490 365 456 295L313 0L133 0L274 279Q260 274 234 274Q162 274 103 332Q44 390 44 489Q44 598 112 658Q180 718 281 718Q382 718 450 658Q518 598 518 489M333 429.50Q333 429.50 343.50 440.25Q354 451 354 489Q354 527 333 548.50Q312 570 281 570Q250 570 229 548.50Q208 527 208 489Q208 451 229 429.50Q250 408 281 408Q312 408 333 429.50Z"  horiz-adv-x="556" vert-adv-y="1000"  />

      
      <glyph glyph-name="uni3a" unicode="&#x3a;" d="M260 253L80 253L80 433L260 433L260 253M260 0L80 0L80 180L260 180L260 0Z"  horiz-adv-x="317" vert-adv-y="1000"  />

      
      <glyph glyph-name="uni3b" unicode="&#x3b;" d="M257-50L83-178L83 174L257 174L257-50M260 253L80 253L80 433L260 433L260 253Z"  horiz-adv-x="317" vert-adv-y="1000"  />

      
      <glyph glyph-name="uni3c" unicode="&#x3c;" d="M503 26L53 224L53 366L503 564L503 391L268 295L503 199L503 26Z"  horiz-adv-x="556" vert-adv-y="1000"  />

      
      <glyph glyph-name="uni3d" unicode="&#x3d;" d="M507 340L49 340L49 494L507 494L507 340M507 96L49 96L49 250L507 250L507 96Z"  horiz-adv-x="556" vert-adv-y="1000"  />

      
      <glyph glyph-name="uni3e" unicode="&#x3e;" d="M503 224L53 26L53 199L288 295L53 391L53 564L503 366L503 224Z"  horiz-adv-x="556" vert-adv-y="1000"  />

      
      <glyph glyph-name="uni3f" unicode="&#x3f;" d="M508 508Q508 446 457 380L388 293Q370 271 370 246L370 237L206 237L206 260Q206 323 247 371L317 453Q344 484 344 509Q344 536 328.50 553Q313 570 284 570Q224 570 224 507L60 507Q60 605 124.50 661.50Q189 718 284 718Q378 718 443 662.50Q508 607 508 508M372 0L204 0L204 161L372 161L372 0Z"  horiz-adv-x="538" vert-adv-y="1000"  />

      
      <glyph glyph-name="uni40" unicode="&#x40;" d="M735 0L584 0L584 40Q536-6 471-6Q397-6 351 38Q319 68 311 108Q303 148 303 226Q303 304 311 343.50Q319 383 351 414Q397 458 470 458Q536 458 579 417L579 443Q579 506 547 538Q515 570 452 570L332 570Q269 570 237 538Q205 506 205 443L205 181Q205 151 213 133Q221 115 241 95L128-18Q85 25 67 65.50Q49 106 49 171L49 449Q49 521 63 569.50Q77 618 113 654Q149 690 198.50 704Q248 718 321 718L463 718Q535 718 584.50 704.50Q634 691 671 654Q707 618 721 569.50Q735 521 735 449L735 0M564.50 152Q564.50 152 571.75 163Q579 174 579 226Q579 278 564.50 300Q550 322 519 322Q488 322 473.50 300Q459 278 459 226Q459 174 473.50 152Q488 130 519 130Q550 130 564.50 152Z"  horiz-adv-x="784" vert-adv-y="1000"  />

      
      <glyph glyph-name="uni41" unicode="&#x41;" d="M653 0L470 0L437 106L218 106L183 0L0 0L259 712L394 712L653 0M391 252L331 442L267 252L391 252Z"  horiz-adv-x="653" vert-adv-y="1000"  />

      
      <glyph glyph-name="uni42" unicode="&#x42;" d="M604 210Q604 111 542 55.50Q480 0 382 0L72 0L72 712L367 712Q476 712 535 656Q594 600 594 506Q594 418 516 365Q532 355 543 346.50Q554 338 570 319.50Q586 301 595 273Q604 245 604 210M413.50 175.50Q413.50 175.50 421.25 184.75Q429 194 429 220Q429 246 413.50 264Q398 282 365 282L247 282L247 157L365 157Q398 157 413.50 175.50M404 456Q404 456 411.50 464.50Q419 473 419 497Q419 521 404 538Q389 555 356 555L247 555L247 439L356 439Q389 439 404 456Z"  horiz-adv-x="653" vert-adv-y="1000"  />

      
      <glyph glyph-name="uni43" unicode="&#x43;" d="M589 226Q570 112 497.50 53Q425-6 320-6Q200-6 122 72Q96 98 80 128Q64 158 58 199Q52 240 50.50 269Q49 298 49 356Q49 414 50.50 443Q52 472 58 513Q64 554 80 584Q96 614 122 640Q200 718 320 718Q425 718 497.50 659Q570 600 589 486L411 486Q390 562 320 562Q274 562 251 532Q237 514 230.50 479.50Q224 445 224 356Q224 267 230.50 232.50Q237 198 251 180Q274 150 320 150Q390 150 411 226L589 226Z"  horiz-adv-x="609" vert-adv-y="1000"  />

      
      <glyph glyph-name="uni44" unicode="&#x44;" d="M596.50 507.50Q596.50 507.50 599.25 484.75Q602 462 602 356Q602 250 596.50 204.50Q591 159 567 120Q493 0 336 0L72 0L72 712L336 712Q493 712 567 592Q591 553 596.50 507.50M423 241Q423 241 425 255.50Q427 270 427 356Q427 442 423 471Q419 500 408 516Q381 556 324 556L247 556L247 156L324 156Q381 156 408 196Q419 212 423 241Z"  horiz-adv-x="651" vert-adv-y="1000"  />

      
      <glyph glyph-name="uni45" unicode="&#x45;" d="M556 0L72 0L72 712L556 712L556 556L247 556L247 437L511 437L511 281L247 281L247 156L556 156L556 0Z"  horiz-adv-x="608" vert-adv-y="1000"  />

      
      <glyph glyph-name="uni46" unicode="&#x46;" d="M556 556L247 556L247 431L511 431L511 275L247 275L247 0L72 0L72 712L556 712L556 556Z"  horiz-adv-x="596" vert-adv-y="1000"  />

      
      <glyph glyph-name="uni47" unicode="&#x47;" d="M598 311Q598 223 582 169Q566 115 526 74Q449-6 319-6Q200-6 122 72Q96 98 80 128Q64 158 58 199Q52 240 50.50 269Q49 298 49 356Q49 414 50.50 443Q52 472 58 513Q64 554 80 584Q96 614 122 640Q200 718 319 718Q446 718 514 650Q582 582 597 482L421 482Q410 524 386.50 543Q363 562 319 562Q274 562 250 531Q236 513 230 479.50Q224 446 224 356Q224 266 230 232Q236 198 250 180Q273 150 319 150Q371 150 397 178Q424 205 424 254L424 264L319 264L319 410L598 410L598 311Z"  horiz-adv-x="647" vert-adv-y="1000"  />

      
      <glyph glyph-name="uni48" unicode="&#x48;" d="M608 0L433 0L433 282L247 282L247 0L72 0L72 712L247 712L247 438L433 438L433 712L608 712L608 0Z"  horiz-adv-x="680" vert-adv-y="1000"  />

      
      <glyph glyph-name="uni49" unicode="&#x49;" d="M247 0L72 0L72 712L247 712L247 0Z"  horiz-adv-x="319" vert-adv-y="1000"  />

      
      <glyph glyph-name="uni4a" unicode="&#x4a;" d="M454 244Q454 125 374.50 59.50Q295-6 186-6Q123-6 79 11.50Q35 29-8 72L107 186Q143 150 186 150Q229 150 254 174.50Q279 199 279 248L279 712L454 712L454 244Z"  horiz-adv-x="516" vert-adv-y="1000"  />

      
      <glyph glyph-name="uni4b" unicode="&#x4b;" d="M673 0L469 0L305 292L245 223L245 0L72 0L72 712L245 712L245 460L451 712L665 712L422 424L673 0Z"  horiz-adv-x="673" vert-adv-y="1000"  />

      
      <glyph glyph-name="uni4c" unicode="&#x4c;" d="M546 0L72 0L72 712L247 712L247 156L546 156L546 0Z"  horiz-adv-x="576" vert-adv-y="1000"  />

      
      <glyph glyph-name="uni4d" unicode="&#x4d;" d="M736 0L561 0L561 341L460 165L348 165L247 341L247 0L72 0L72 712L244 712L404 398L564 712L736 712L736 0Z"  horiz-adv-x="808" vert-adv-y="1000"  />

      
      <glyph glyph-name="uni4e" unicode="&#x4e;" d="M628 0L475 0L247 358L247 0L72 0L72 712L225 712L453 354L453 712L628 712L628 0Z"  horiz-adv-x="700" vert-adv-y="1000"  />

      
      <glyph glyph-name="uni4f" unicode="&#x4f;" d="M589.50 443Q589.50 443 590.25 428.50Q591 414 591 356Q591 298 589.50 269Q588 240 582 199Q576 158 560 128Q544 98 518 72Q440-6 320-6Q200-6 122 72Q96 98 80 128Q64 158 58 199Q52 240 50.50 269Q49 298 49 356Q49 414 50.50 443Q52 472 58 513Q64 554 80 584Q96 614 122 640Q200 718 320 718Q440 718 518 640Q544 614 560 584Q576 554 582 513Q588 472 589.50 443M410 233Q410 233 413 249.50Q416 266 416 356Q416 446 410 479.50Q404 513 390 531Q366 562 320 562Q274 562 250 531Q236 513 230 479.50Q224 446 224 356Q224 266 230 233Q236 200 250 182Q274 150 320 150Q366 150 390 182Q404 200 410 233Z"  horiz-adv-x="640" vert-adv-y="1000"  />

      
      <glyph glyph-name="uni50" unicode="&#x50;" d="M532 644.50Q532 644.50 564.50 610.75Q597 577 597 483Q597 389 532 321.50Q467 254 354 254L247 254L247 0L72 0L72 712L354 712Q467 712 532 644.50M401 432.50Q401 432.50 411.50 443.25Q422 454 422 483Q422 512 401 533.50Q380 555 346 555L247 555L247 411L346 411Q380 411 401 432.50Z"  horiz-adv-x="627" vert-adv-y="1000"  />

      
      <glyph glyph-name="uni51" unicode="&#x51;" d="M591 356Q591 292 589.50 260Q588 228 578.50 185.50Q569 143 550 112L602 61L513-28L458 26Q400-6 320-6Q200-6 122 72Q96 98 80 128Q64 158 58 199Q52 240 50.50 269Q49 298 49 356Q49 414 50.50 443Q52 472 58 513Q64 554 80 584Q96 614 122 640Q200 718 320 718Q440 718 518 640Q544 614 560 584Q576 554 582 513Q588 472 589.50 443Q591 414 591 356M416 356Q416 446 410 479.50Q404 513 390 531Q366 562 320 562Q274 562 250 531Q236 513 230 479.50Q224 446 224 356Q224 266 230 233Q236 200 250 182Q274 150 320 150Q329 150 334 151L289 196L378 285L412 251Q416 299 416 356Z"  horiz-adv-x="640" vert-adv-y="1000"  />

      
      <glyph glyph-name="uni52" unicode="&#x52;" d="M635 0L432 0L306 265L247 265L247 0L72 0L72 712L354 712Q467 712 532 644.50Q597 577 597 483Q597 416 563 368.50Q529 321 481 297L635 0M401 432.50Q401 432.50 411.50 443.25Q422 454 422 483Q422 512 401 533.50Q380 555 346 555L247 555L247 411L346 411Q380 411 401 432.50Z"  horiz-adv-x="652" vert-adv-y="1000"  />

      
      <glyph glyph-name="uni53" unicode="&#x53;" d="M550 218Q550 113 471.50 53.50Q393-6 275-6Q187-6 121.50 14.50Q56 35 5 88L117 200Q167 150 276 150Q378 150 378 214Q378 241 364 256Q349 271 317 275L231 287Q136 301 88 350Q39 400 39 493Q39 592 109.50 655Q180 718 299 718Q454 718 539 633L429 523Q403 549 372.50 557Q342 565 294 565Q252 565 230 545Q208 525 208 499Q208 480 222 466Q239 449 271 445L357 433Q451 420 497 374Q550 322 550 218Z"  horiz-adv-x="593" vert-adv-y="1000"  />

      
      <glyph glyph-name="uni54" unicode="&#x54;" d="M555 556L380 556L380 0L205 0L205 556L30 556L30 712L555 712L555 556Z"  horiz-adv-x="585" vert-adv-y="1000"  />

      
      <glyph glyph-name="uni55" unicode="&#x55;" d="M600 250Q600 136 521.50 65Q443-6 329-6Q215-6 137.50 65Q60 136 60 250L60 712L235 712L235 254Q235 205 260 177.50Q285 150 329 150Q373 150 399 177.50Q425 205 425 254L425 712L600 712L600 250Z"  horiz-adv-x="660" vert-adv-y="1000"  />

      
      <glyph glyph-name="uni56" unicode="&#x56;" d="M601 712L365 0L235 0L0 712L181 712L301 314L419 712L601 712Z"  horiz-adv-x="601" vert-adv-y="1000"  />

      
      <glyph glyph-name="uni57" unicode="&#x57;" d="M906 712L711 0L568 0L453 351L338 0L196 0L0 712L183 712L276 336L391 712L515 712L630 336L723 712L906 712Z"  horiz-adv-x="906" vert-adv-y="1000"  />

      
      <glyph glyph-name="uni58" unicode="&#x58;" d="M634 0L434 0L317 219L200 0L0 0L222 365L14 712L213 712L317 511L421 712L620 712L412 365L634 0Z"  horiz-adv-x="634" vert-adv-y="1000"  />

      
      <glyph glyph-name="uni59" unicode="&#x59;" d="M605 712L390 290L390 0L215 0L215 290L0 712L191 712L303 456L414 712L605 712Z"  horiz-adv-x="605" vert-adv-y="1000"  />

      
      <glyph glyph-name="uni5a" unicode="&#x5a;" d="M513 0L30 0L30 136L303 556L42 556L42 712L513 712L513 576L239 156L513 156L513 0Z"  horiz-adv-x="543" vert-adv-y="1000"  />

      
      <glyph glyph-name="uni5b" unicode="&#x5b;" d="M376-74L72-74L72 786L376 786L376 638L236 638L236 74L376 74L376-74Z"  horiz-adv-x="416" vert-adv-y="1000"  />

      
      <glyph glyph-name="uni5c" unicode="&#x5c;" d="M431-74L279-74L0 768L152 768L431-74Z"  horiz-adv-x="431" vert-adv-y="1000"  />

      
      <glyph glyph-name="uni5d" unicode="&#x5d;" d="M344-74L40-74L40 74L180 74L180 638L40 638L40 786L344 786L344-74Z"  horiz-adv-x="416" vert-adv-y="1000"  />

      
      <glyph glyph-name="uni5e" unicode="&#x5e;" d="M583 375L410 375L320 540L230 375L57 375L244 720L396 720L583 375Z"  horiz-adv-x="640" vert-adv-y="1000"  />

      
      <glyph glyph-name="uni5f" unicode="&#x5f;" d="M640-186L0-186L0-78L640-78L640-186Z"  horiz-adv-x="640" vert-adv-y="1000"  />

      
      <glyph glyph-name="uni60" unicode="&#x60;" d="M341 610L224 610L123 790L276 790L341 610Z"  horiz-adv-x="500" vert-adv-y="1000"  />

      
      <glyph glyph-name="uni61" unicode="&#x61;" d="M483 0L323 0L323 44Q297 18 270.50 6.50Q244-5 203-5Q122-5 74 43Q27 90 27 169Q27 235 74 280Q121 325 213 325L319 325L319 339Q319 375 300 390.50Q281 406 238 406Q191 406 153 368L51 470Q92 511 135 527.50Q178 544 246 544Q483 544 483 349L483 0M319 202L319 216L241 216Q184 216 184 172Q184 152 199 140Q214 128 243 128Q280 128 302 147Q319 163 319 202Z"  horiz-adv-x="536" vert-adv-y="1000"  />

      
      <glyph glyph-name="uni62" unicode="&#x62;" d="M524 360Q524 360 525 344Q526 328 526 269Q526 210 524 178Q522 146 510 106.50Q498 67 475 43Q428-6 345-6Q271-6 221 44L221 0L62 0L62 712L226 712L226 499Q271 544 346 544Q428 544 475 495Q498 471 510 431.50Q522 392 524 360M349 172Q349 172 355.50 187Q362 202 362 269Q362 336 349 366Q336 396 294 396Q252 396 239 366Q226 336 226 269Q226 202 239 172Q252 142 294 142Q336 142 349 172Z"  horiz-adv-x="569" vert-adv-y="1000"  />

      
      <glyph glyph-name="uni63" unicode="&#x63;" d="M457 63Q388-6 280-6Q248-6 218.50-0.50Q189 5 155 23Q121 41 96 70Q71 99 54.50 150.50Q38 202 38 269Q38 336 54.50 387.50Q71 439 96 468Q121 497 155 515Q189 533 218.50 538.50Q248 544 280 544Q388 544 457 475L346 364Q314 396 280 396Q250 396 229 375Q202 347 202 269Q202 191 229 163Q250 142 280 142Q314 142 346 174L457 63Z"  horiz-adv-x="475" vert-adv-y="1000"  />

      
      <glyph glyph-name="uni64" unicode="&#x64;" d="M507 0L348 0L348 44Q298-6 224-6Q141-6 94 43Q71 67 59 106.50Q47 146 45 178Q43 210 43 269Q43 328 45 360Q47 392 59 431.50Q71 471 94 495Q141 544 223 544Q298 544 343 499L343 712L507 712L507 0M330 172Q330 172 336.50 187Q343 202 343 269Q343 336 330 366Q317 396 275 396Q233 396 220 366Q207 336 207 269Q207 202 220 172Q233 142 275 142Q317 142 330 172Z"  horiz-adv-x="569" vert-adv-y="1000"  />

      
      <glyph glyph-name="uni65" unicode="&#x65;" d="M521 216L199 216Q199 181 224.50 156.50Q250 132 294 132Q334 132 357.50 142.50Q381 153 405 177L503 79Q459 35 412 14.50Q365-6 294-6Q38-6 38 269Q38 398 104.50 471Q171 544 279 544Q393 544 457 471.50Q521 399 521 284L521 216M359 325Q359 348 350 367Q331 409 279 409Q227 409 208 367Q199 348 199 325L359 325Z"  horiz-adv-x="559" vert-adv-y="1000"  />

      
      <glyph glyph-name="uni66" unicode="&#x66;" d="M333 391L243 391L243 0L79 0L79 391L30 391L30 517L79 517L79 564Q79 627 121 675Q163 723 246 723L333 723L333 585L276 585Q243 585 243 552L243 517L333 517L333 391Z"  horiz-adv-x="358" vert-adv-y="1000"  />

      
      <glyph glyph-name="uni67" unicode="&#x67;" d="M499 39Q499-57 432-118.50Q365-180 256-180Q189-180 141-164.50Q93-149 54-110L156-8Q190-42 248-42Q295-42 315-17Q335 8 335 40L335 79Q290 34 219 34Q141 34 93 82Q59 116 51 159Q43 202 43 289Q43 376 51 419Q59 462 93 496Q141 544 220 544Q290 544 340 494L340 538L499 538L499 39M333.50 248.50Q333.50 248.50 334.25 256.25Q335 264 335 289Q335 314 333.50 329.50Q332 345 326 362Q320 379 306.50 387.50Q293 396 271 396Q249 396 235.50 387.50Q222 379 216 362Q210 345 208.50 329.50Q207 314 207 289Q207 264 208.50 248.50Q210 233 216 216Q222 199 235.50 190.50Q249 182 271 182Q293 182 306.50 190.50Q320 199 326 216Q332 233 333.50 248.50Z"  horiz-adv-x="561" vert-adv-y="1000"  />

      
      <glyph glyph-name="uni68" unicode="&#x68;" d="M522 0L358 0L358 322Q358 363 337 379.50Q316 396 292 396Q268 396 247 379.50Q226 363 226 322L226 0L62 0L62 712L226 712L226 494Q274 544 347 544Q422 544 468 498Q522 444 522 344L522 0Z"  horiz-adv-x="579" vert-adv-y="1000"  />

      
      <glyph glyph-name="uni69" unicode="&#x69;" d="M226 0L62 0L62 517L226 517L226 0M226 593L62 593L62 718L226 718L226 593Z"  horiz-adv-x="288" vert-adv-y="1000"  />

      
      <glyph glyph-name="uni6a" unicode="&#x6a;" d="M226-21Q226-84 184-132Q142-180 59-180L-28-180L-28-42L29-42Q62-42 62-9L62 517L226 517L226-21M226 593L62 593L62 718L226 718L226 593Z"  horiz-adv-x="288" vert-adv-y="1000"  />

      
      <glyph glyph-name="uni6b" unicode="&#x6b;" d="M573 0L370 0L258 197L226 162L226 0L62 0L62 712L226 712L226 350L371 538L568 538L370 315L573 0Z"  horiz-adv-x="573" vert-adv-y="1000"  />

      
      <glyph glyph-name="uni6c" unicode="&#x6c;" d="M311 0L224 0Q141 0 99 48Q57 96 57 159L57 712L221 712L221 171Q221 138 254 138L311 138L311 0Z"  horiz-adv-x="341" vert-adv-y="1000"  />

      
      <glyph glyph-name="uni6d" unicode="&#x6d;" d="M818 0L654 0L654 322Q654 363 633 379.50Q612 396 588 396Q564 396 543 379.50Q522 363 522 322L522 0L358 0L358 322Q358 363 337 379.50Q316 396 292 396Q268 396 247 379.50Q226 363 226 322L226 0L62 0L62 538L222 538L222 494Q272 544 347 544Q428 544 478 487Q543 544 630 544Q713 544 759 498Q818 439 818 344L818 0Z"  horiz-adv-x="875" vert-adv-y="1000"  />

      
      <glyph glyph-name="uni6e" unicode="&#x6e;" d="M522 0L358 0L358 322Q358 363 337 379.50Q316 396 292 396Q268 396 247 379.50Q226 363 226 322L226 0L62 0L62 538L222 538L222 494Q272 544 347 544Q422 544 468 498Q522 444 522 344L522 0Z"  horiz-adv-x="579" vert-adv-y="1000"  />

      
      <glyph glyph-name="uni6f" unicode="&#x6f;" d="M507 269Q507 189 494.50 144.50Q482 100 448 63Q383-6 275-6Q167-6 102 63Q68 100 55.50 144.50Q43 189 43 269Q43 348 56 393.50Q69 439 102 475Q167 544 275 544Q383 544 448 475Q481 439 494 393.50Q507 348 507 269M319 157Q343 181 343 269Q343 357 319 381Q304 396 275 396Q246 396 231 381Q207 357 207 269Q207 181 231 157Q246 142 275 142Q304 142 319 157Z"  horiz-adv-x="550" vert-adv-y="1000"  />

      
      <glyph glyph-name="uni70" unicode="&#x70;" d="M524 360Q524 360 525 344Q526 328 526 269Q526 210 524 178Q522 146 510 106.50Q498 67 475 43Q428-6 346-6Q271-6 226 39L226-174L62-174L62 538L221 538L221 494Q271 544 345 544Q428 544 475 495Q498 471 510 431.50Q522 392 524 360M349 172Q349 172 355.50 187Q362 202 362 269Q362 336 349 366Q336 396 294 396Q252 396 239 366Q226 336 226 269Q226 202 239 172Q252 142 294 142Q336 142 349 172Z"  horiz-adv-x="569" vert-adv-y="1000"  />

      
      <glyph glyph-name="uni71" unicode="&#x71;" d="M507-174L343-174L343 39Q298-6 223-6Q141-6 94 43Q71 67 59 106.50Q47 146 45 178Q43 210 43 269Q43 328 45 360Q47 392 59 431.50Q71 471 94 495Q141 544 224 544Q298 544 348 494L348 538L507 538L507-174M330 172Q330 172 336.50 187Q343 202 343 269Q343 336 330 366Q317 396 275 396Q233 396 220 366Q207 336 207 269Q207 202 220 172Q233 142 275 142Q317 142 330 172Z"  horiz-adv-x="569" vert-adv-y="1000"  />

      
      <glyph glyph-name="uni72" unicode="&#x72;" d="M475 494L351 368Q323 396 292 396Q269 396 247.50 379Q226 362 226 322L226 0L62 0L62 538L222 538L222 494Q272 544 349 544Q425 544 475 494Z"  horiz-adv-x="475" vert-adv-y="1000"  />

      
      <glyph glyph-name="uni73" unicode="&#x73;" d="M477 176Q477 86 411 40Q345-6 244-6Q194-6 162-2.50Q130 1 87.50 19Q45 37 10 72L116 178Q161 133 247 133Q272 133 294.50 141Q317 149 317 168Q317 198 278 202L195 210Q39 225 39 366Q39 450 102.50 497Q166 544 253 544Q399 544 465 478L364 377Q332 409 250 409Q223 409 210 399Q197 389 197 378Q197 352 232 348L315 340Q396 332 436.50 288Q477 244 477 176Z"  horiz-adv-x="504" vert-adv-y="1000"  />

      
      <glyph glyph-name="uni74" unicode="&#x74;" d="M323 0L241 0Q158 0 116 48Q74 96 74 159L74 391L25 391L25 517L74 517L74 671L238 671L238 517L323 517L323 391L238 391L238 171Q238 138 271 138L323 138L323 0Z"  horiz-adv-x="363" vert-adv-y="1000"  />

      
      <glyph glyph-name="uni75" unicode="&#x75;" d="M517 0L357 0L357 44Q307-6 232-6Q157-6 111 40Q57 94 57 194L57 538L221 538L221 216Q221 175 242 158.50Q263 142 287 142Q311 142 332 158.50Q353 175 353 216L353 538L517 538L517 0Z"  horiz-adv-x="579" vert-adv-y="1000"  />

      
      <glyph glyph-name="uni76" unicode="&#x76;" d="M521 538L323 0L198 0L0 538L172 538L261 259L349 538L521 538Z"  horiz-adv-x="521" vert-adv-y="1000"  />

      
      <glyph glyph-name="uni77" unicode="&#x77;" d="M780 538L618 0L487 0L390 295L293 0L162 0L0 538L173 538L240 259L333 538L447 538L540 259L607 538L780 538Z"  horiz-adv-x="780" vert-adv-y="1000"  />

      
      <glyph glyph-name="uni78" unicode="&#x78;" d="M556 0L359 0L277 136L197 0L0 0L187 275L7 538L204 538L277 408L352 538L549 538L369 275L556 0Z"  horiz-adv-x="556" vert-adv-y="1000"  />

      
      <glyph glyph-name="uni79" unicode="&#x79;" d="M522 538L299-64Q283-109 257-135Q215-180 136-180L74-180L74-32L109-32Q132-32 144-24Q156-16 164 8L179 53L0 538L172 538L263 259L350 538L522 538Z"  horiz-adv-x="514" vert-adv-y="1000"  />

      
      <glyph glyph-name="uni7a" unicode="&#x7a;" d="M449 0L30 0L30 121L235 390L42 390L42 538L449 538L449 417L240 148L449 148L449 0Z"  horiz-adv-x="489" vert-adv-y="1000"  />

      
      <glyph glyph-name="uni7b" unicode="&#x7b;" d="M478-74L338-74Q261-74 219-32Q171 16 171 85L171 204Q171 247 154 264Q136 282 98 282L40 282L40 430L98 430Q136 430 154 448Q171 465 171 508L171 627Q171 696 219 744Q261 786 338 786L478 786L478 638L408 638Q365 638 351 624Q335 608 335 560L335 456Q335 375 262 356Q335 337 335 256L335 152Q335 104 351 88Q365 74 408 74L478 74L478-74Z"  horiz-adv-x="518" vert-adv-y="1000"  />

      
      <glyph glyph-name="uni7c" unicode="&#x7c;" d="M264-74L100-74L100 786L264 786L264-74Z"  horiz-adv-x="364" vert-adv-y="1000"  />

      
      <glyph glyph-name="uni7d" unicode="&#x7d;" d="M478 282L420 282Q382 282 364 264Q347 247 347 204L347 85Q347 16 299-32Q257-74 180-74L40-74L40 74L110 74Q153 74 167 88Q183 104 183 152L183 256Q183 337 256 356Q183 375 183 456L183 560Q183 608 167 624Q153 638 110 638L40 638L40 786L180 786Q257 786 299 744Q347 696 347 627L347 508Q347 465 364 448Q382 430 420 430L478 430L478 282Z"  horiz-adv-x="518" vert-adv-y="1000"  />

      
      <glyph glyph-name="uni7e" unicode="&#x7e;" d="M616 283Q565 232 522.50 209.50Q480 187 429 187Q364 187 306 221Q263 246 222 246Q175 246 134 205L30 309Q81 360 122.50 382.50Q164 405 215 405Q280 405 338 371Q381 346 422 346Q469 346 510 387L616 283Z"  horiz-adv-x="646" vert-adv-y="1000"  />

      
      <glyph glyph-name="unia1" unicode="&#xa1;" d="M266-174L60-174L104 301L222 301L266-174M247 377L79 377L79 538L247 538L247 377Z"  horiz-adv-x="366" vert-adv-y="1000"  />

      
      <glyph glyph-name="unia2" unicode="&#xa2;" d="M481 174Q422 115 350 98L350 0L224 0L224 98Q142 117 90 184.50Q38 252 38 366Q38 480 90 547.50Q142 615 224 634L224 712L350 712L350 634Q422 617 481 558L374 451Q349 476 330 484L330 248Q349 256 374 281L481 174M244 250L244 482Q236 476 232 472Q202 440 202 366Q202 293 231 261Q239 253 244 250Z"  horiz-adv-x="499" vert-adv-y="1000"  />

      
      <glyph glyph-name="unia3" unicode="&#xa3;" d="M557 0L95 0L95 278L35 278L35 404L95 404L95 468Q95 587 174.50 652.50Q254 718 363 718Q426 718 470 700.50Q514 683 557 640L442 526Q406 562 363 562Q320 562 295 537.50Q270 513 270 464L270 404L363 404L363 278L270 278L270 156L557 156L557 0Z"  horiz-adv-x="597" vert-adv-y="1000"  />

      
      <glyph glyph-name="unia4" unicode="&#xa4;" d="M627 114L518 5L445 78Q391 52 337 52Q283 52 229 78L156 5L47 114L120 187Q94 241 94 295Q94 349 120 403L47 476L156 585L229 512Q283 538 337 538Q391 538 445 512L518 585L627 476L554 403Q580 349 580 295Q580 241 554 187L627 114M404 228Q404 228 418 242Q432 256 432 295Q432 334 404 362Q376 390 337 390Q298 390 270 362Q242 334 242 295Q242 256 270 228Q298 200 337 200Q376 200 404 228Z"  horiz-adv-x="674" vert-adv-y="1000"  />

      
      <glyph glyph-name="unia5" unicode="&#xa5;" d="M605 712L480 466L540 466L540 340L415 340L390 290L390 240L540 240L540 114L390 114L390 0L215 0L215 114L65 114L65 240L215 240L215 290L190 340L65 340L65 466L125 466L0 712L191 712L303 456L414 712L605 712Z"  horiz-adv-x="605" vert-adv-y="1000"  />

      
      <glyph glyph-name="unia6" unicode="&#xa6;" d="M264 436L100 436L100 786L264 786L264 436M264-74L100-74L100 276L264 276L264-74Z"  horiz-adv-x="364" vert-adv-y="1000"  />

      
      <glyph glyph-name="unia7" unicode="&#xa7;" d="M475 285Q475 239 449 202Q423 165 394 145Q465 102 465 10Q465-84 403-132Q341-180 259-180Q220-180 185.50-170Q151-160 120-139.50Q89-119 71-81Q53-43 53 7L209 7Q209-11 222.50-24Q236-37 259-37Q283-37 296-25Q309-13 309 4Q309 40 250 62L196 82Q115 112 80 152Q45 192 45 273Q45 320 71.50 357Q98 394 128 413Q62 453 62 539Q62 612 111.50 665Q161 718 261 718Q363 718 411.50 667Q460 616 460 537L308 537Q308 579 261 579Q238 579 226 568.50Q214 558 214 544Q214 516 270 496L324 476Q405 446 440 406Q475 366 475 285M299 226Q319 244 319 279Q319 314 299 332Q284 345 260 345Q236 345 221 332Q201 314 201 279Q201 244 221 226Q236 213 260 213Q284 213 299 226Z"  horiz-adv-x="516" vert-adv-y="1000"  />

      
      <glyph glyph-name="unia8" unicode="&#xa8;" d="M430 609L296 609L296 754L430 754L430 609M204 609L70 609L70 754L204 754L204 609Z"  horiz-adv-x="500" vert-adv-y="1000"  />

      
      <glyph glyph-name="unia9" unicode="&#xa9;" d="M667 612Q667 612 720 559Q773 506 773 356Q773 206 667 100Q561-6 411-6Q261-6 155 100Q49 206 49 356Q49 506 155 612Q261 718 411 718Q561 718 667 612M596.50 165.50Q596.50 165.50 633.25 202.75Q670 240 670 356Q670 472 596.50 546.50Q523 621 411 621Q299 621 225.50 546.50Q152 472 152 356Q152 240 225.50 165.50Q299 91 411 91Q523 91 596.50 165.50M552 216Q492 164 420 164Q345 164 292 212.50Q239 261 239 356Q239 451 292 499.50Q345 548 420 548Q492 548 552 496L485 429Q452 456 420 456Q384 456 363 430.50Q342 405 342 356Q342 307 363 281.50Q384 256 420 256Q452 256 485 283L552 216Z"  horiz-adv-x="822" vert-adv-y="1000"  />

      
      <glyph glyph-name="uniaa" unicode="&#xaa;" d="M407 283L279 283L279 318Q240 279 183 279Q120 279 81 318Q43 356 43 418Q43 471 80 507Q117 543 189 543L276 543L276 554Q276 583 261 595.50Q246 608 211 608Q187 608 173.50 602Q160 596 143 579L61 661Q94 694 128 706Q162 718 218 718Q407 718 407 562L407 283M276 444L276 456L210 456Q191 456 180.50 446.50Q170 437 170 422Q170 407 181 397Q192 387 211 387Q248 387 263 402Q276 415 276 444Z"  horiz-adv-x="457" vert-adv-y="1000"  />

      
      <glyph glyph-name="uniab" unicode="&#xab;" d="M303 9L30 280L303 550L303 357L224 280L303 202L303 9M612 9L339 280L612 550L612 357L531 280L612 202L612 9Z"  horiz-adv-x="672" vert-adv-y="1000"  />

      
      <glyph glyph-name="uniac" unicode="&#xac;" d="M513 88L359 88L359 238L43 238L43 392L513 392L513 88Z"  horiz-adv-x="556" vert-adv-y="1000"  />

      
      <glyph glyph-name="uniad" unicode="&#xad;" d="M377 218L49 218L49 372L377 372L377 218Z"  horiz-adv-x="426" vert-adv-y="1000"  />

      
      <glyph glyph-name="uniae" unicode="&#xae;" d="M667 612Q667 612 720 559Q773 506 773 356Q773 206 667 100Q561-6 411-6Q261-6 155 100Q49 206 49 356Q49 506 155 612Q261 718 411 718Q561 718 667 612M596.50 165.50Q596.50 165.50 633.25 202.75Q670 240 670 356Q670 472 596.50 546.50Q523 621 411 621Q299 621 225.50 546.50Q152 472 152 356Q152 240 225.50 165.50Q299 91 411 91Q523 91 596.50 165.50M580 167L463 167L406 308L375 308L375 167L272 167L272 545L441 545Q501 545 535.50 509Q570 473 570 423Q570 356 509 325L580 167M456 396Q456 396 461.50 401.50Q467 407 467 423Q467 439 456 450Q445 461 427 461L375 461L375 385L427 385Q445 385 456 396Z"  horiz-adv-x="822" vert-adv-y="1000"  />

      
      <glyph glyph-name="uniaf" unicode="&#xaf;" d="M413 629L87 629L87 734L413 734L413 629Z"  horiz-adv-x="500" vert-adv-y="1000"  />

      
      <glyph glyph-name="unib0" unicode="&#xb0;" d="M381.50 672.50Q381.50 672.50 410.25 643.75Q439 615 439 534Q439 453 381.50 395.50Q324 338 243 338Q162 338 104.50 395.50Q47 453 47 534Q47 615 104.50 672.50Q162 730 243 730Q324 730 381.50 672.50M289 488Q289 488 298.50 497.50Q308 507 308 534Q308 561 289 580Q270 599 243 599Q216 599 197 580Q178 561 178 534Q178 507 197 488Q216 469 243 469Q270 469 289 488Z"  horiz-adv-x="486" vert-adv-y="1000"  />

      
      <glyph glyph-name="unib1" unicode="&#xb1;" d="M507 371L355 371L355 219L201 219L201 371L49 371L49 525L201 525L201 677L355 677L355 525L507 525L507 371M507 0L49 0L49 154L507 154L507 0Z"  horiz-adv-x="556" vert-adv-y="1000"  />

      
      <glyph glyph-name="unib2" unicode="&#xb2;" d="M316 285L29 285L29 389L180 543Q202 565 202 583Q202 596 194 604Q186 612 173 612Q145 612 145 582L29 582Q29 646 70.50 681Q112 716 173 716Q236 716 276 680.50Q316 645 316 583Q316 549 302.50 526Q289 503 257 472L170 389L316 389L316 285Z"  horiz-adv-x="340" vert-adv-y="1000"  />

      
      <glyph glyph-name="unib3" unicode="&#xb3;" d="M320 416Q320 350 277.50 315.50Q235 281 172 281Q111 281 68 315Q25 349 25 421L140 421Q140 385 172 385Q204 385 204 420Q204 434 194 444Q184 454 171 454L155 454L155 553L171 553Q186 553 193.50 562.50Q201 572 201 582Q201 596 192.50 604Q184 612 173 612Q161 612 153 604Q145 596 145 581L29 581Q29 642 70.50 679Q112 716 173 716Q235 716 275.50 679Q316 642 316 586Q316 537 276 506Q320 465 320 416Z"  horiz-adv-x="340" vert-adv-y="1000"  />

      
      <glyph glyph-name="unib4" unicode="&#xb4;" d="M427 790L326 610L209 610L274 790L427 790Z"  horiz-adv-x="500" vert-adv-y="1000"  />

      
      <glyph glyph-name="unib5" unicode="&#xb5;" d="M522 0L362 0L362 44Q312-6 237-6L226-6L226-174L62-174L62 538L226 538L226 216Q226 175 247 158.50Q268 142 292 142Q316 142 337 158.50Q358 175 358 216L358 538L522 538L522 0Z"  horiz-adv-x="584" vert-adv-y="1000"  />

      
      <glyph glyph-name="unib6" unicode="&#xb6;" d="M635-174L471-174L471 556L381 556L381-174L217-174L217 298Q147 298 88.50 358Q30 418 30 503Q30 607 96 659.50Q162 712 271 712L635 712L635-174Z"  horiz-adv-x="707" vert-adv-y="1000"  />

      
      <glyph glyph-name="unib7" unicode="&#xb7;" d="M237 205L57 205L57 385L237 385L237 205Z"  horiz-adv-x="294" vert-adv-y="1000"  />

      
      <glyph glyph-name="unib8" unicode="&#xb8;" d="M334-53L298-197L152-197L219-53L334-53Z"  horiz-adv-x="500" vert-adv-y="1000"  />

      
      <glyph glyph-name="unib9" unicode="&#xb9;" d="M258 285L142 285L142 582L47 500L47 630L142 712L258 712L258 285Z"  horiz-adv-x="340" vert-adv-y="1000"  />

      
      <glyph glyph-name="uniba" unicode="&#xba;" d="M419 498Q419 434 408.50 398Q398 362 371 333Q320 278 233 278Q146 278 95 333Q68 362 57.50 398Q47 434 47 498Q47 561 57.50 597.50Q68 634 95 663Q146 718 233 718Q320 718 371 663Q398 634 408.50 597.50Q419 561 419 498M268 408Q287 427 287 498Q287 569 268 588Q256 600 233 600Q210 600 198 588Q179 569 179 498Q179 427 198 408Q210 396 233 396Q256 396 268 408Z"  horiz-adv-x="466" vert-adv-y="1000"  />

      
      <glyph glyph-name="unibb" unicode="&#xbb;" d="M642 280L369 9L369 202L448 280L369 357L369 550L642 280M333 280L60 9L60 202L140 280L60 357L60 550L333 280Z"  horiz-adv-x="672" vert-adv-y="1000"  />

      
      <glyph glyph-name="unibc" unicode="&#xbc;" d="M258 285L142 285L142 582L47 500L47 630L142 712L258 712L258 285M683 712L344 0L218 0L557 712L683 712M893 55L867 55L867 0L753 0L753 55L574 55L574 159L712 427L839 427L698 159L753 159L753 200L867 200L867 159L893 159L893 55Z"  horiz-adv-x="901" vert-adv-y="1000"  />

      
      <glyph glyph-name="unibd" unicode="&#xbd;" d="M258 285L142 285L142 582L47 500L47 630L142 712L258 712L258 285M683 712L344 0L218 0L557 712L683 712M877 0L590 0L590 104L741 258Q763 280 763 298Q763 311 755 319Q747 327 734 327Q706 327 706 297L590 297Q590 361 631.50 396Q673 431 734 431Q797 431 837 395.50Q877 360 877 298Q877 264 863.50 241Q850 218 818 187L731 104L877 104L877 0Z"  horiz-adv-x="901" vert-adv-y="1000"  />

      
      <glyph glyph-name="unibe" unicode="&#xbe;" d="M320 416Q320 350 277.50 315.50Q235 281 172 281Q111 281 68 315Q25 349 25 421L140 421Q140 385 172 385Q204 385 204 420Q204 434 194 444Q184 454 171 454L155 454L155 553L171 553Q186 553 193.50 562.50Q201 572 201 582Q201 596 192.50 604Q184 612 173 612Q161 612 153 604Q145 596 145 581L29 581Q29 642 70.50 679Q112 716 173 716Q235 716 275.50 679Q316 642 316 586Q316 537 276 506Q320 465 320 416M683 712L344 0L218 0L557 712L683 712M893 55L867 55L867 0L753 0L753 55L574 55L574 159L712 427L839 427L698 159L753 159L753 200L867 200L867 159L893 159L893 55Z"  horiz-adv-x="901" vert-adv-y="1000"  />

      
      <glyph glyph-name="unibf" unicode="&#xbf;" d="M478 31Q478-67 413.50-123.50Q349-180 254-180Q160-180 95-124.50Q30-69 30 30Q30 92 81 158L150 245Q168 267 168 292L168 301L332 301L332 278Q332 215 291 167L221 85Q194 54 194 29Q194 2 209.50-15Q225-32 254-32Q314-32 314 31L478 31M334 377L166 377L166 538L334 538L334 377Z"  horiz-adv-x="538" vert-adv-y="1000"  />

      
      <glyph glyph-name="unic0" unicode="&#xc0;" d="M653 0L470 0L437 106L218 106L183 0L0 0L259 712L394 712L653 0M391 252L331 442L267 252L391 252M393 782L276 782L175 962L328 962L393 782Z"  horiz-adv-x="653" vert-adv-y="1000"  />

      
      <glyph glyph-name="unic1" unicode="&#xc1;" d="M653 0L470 0L437 106L218 106L183 0L0 0L259 712L394 712L653 0M391 252L331 442L267 252L391 252M477 962L376 782L259 782L324 962L477 962Z"  horiz-adv-x="653" vert-adv-y="1000"  />

      
      <glyph glyph-name="unic2" unicode="&#xc2;" d="M653 0L470 0L437 106L218 106L183 0L0 0L259 712L394 712L653 0M391 252L331 442L267 252L391 252M527 782L405 782L326 865L247 782L125 782L261 961L391 961L527 782Z"  horiz-adv-x="653" vert-adv-y="1000"  />

      
      <glyph glyph-name="unic3" unicode="&#xc3;" d="M653 0L470 0L437 106L218 106L183 0L0 0L259 712L394 712L653 0M391 252L331 442L267 252L391 252M519 851Q485 817 457.50 802.50Q430 788 396 788Q352 788 315 810Q286 827 259 827Q228 827 201 800L133 869Q167 903 194 917.50Q221 932 255 932Q299 932 336 910Q365 893 391 893Q422 893 449 920L519 851Z"  horiz-adv-x="653" vert-adv-y="1000"  />

      
      <glyph glyph-name="unic4" unicode="&#xc4;" d="M653 0L470 0L437 106L218 106L183 0L0 0L259 712L394 712L653 0M391 252L331 442L267 252L391 252M506 781L372 781L372 926L506 926L506 781M280 781L146 781L146 926L280 926L280 781Z"  horiz-adv-x="653" vert-adv-y="1000"  />

      
      <glyph glyph-name="unic5" unicode="&#xc5;" d="M653 0L470 0L437 106L218 106L183 0L0 0L259 712L394 712L653 0M391 252L331 442L267 252L391 252M464 893Q464 836 423.50 795.50Q383 755 326 755Q269 755 228.50 795.50Q188 836 188 893Q188 950 228.50 990.50Q269 1031 326 1031Q383 1031 423.50 991Q464 951 464 893M362.50 856.50Q362.50 856.50 370.25 864.25Q378 872 378 893Q378 914 362.50 929.50Q347 945 326 945Q305 945 289.50 929.50Q274 914 274 893Q274 872 289.50 856.50Q305 841 326 841Q347 841 362.50 856.50Z"  horiz-adv-x="653" vert-adv-y="1000"  />

      
      <glyph glyph-name="unic6" unicode="&#xc6;" d="M961 0L477 0L477 149L265 149L188 0L0 0L370 712L961 712L961 556L652 556L652 437L916 437L916 281L652 281L652 156L961 156L961 0M477 295L477 556L341 295L477 295Z"  horiz-adv-x="1013" vert-adv-y="1000"  />

      
      <glyph glyph-name="unic7" unicode="&#xc7;" d="M589 226Q570 112 497.50 53Q425-6 320-6Q200-6 122 72Q96 98 80 128Q64 158 58 199Q52 240 50.50 269Q49 298 49 356Q49 414 50.50 443Q52 472 58 513Q64 554 80 584Q96 614 122 640Q200 718 320 718Q425 718 497.50 659Q570 600 589 486L411 486Q390 562 320 562Q274 562 251 532Q237 514 230.50 479.50Q224 445 224 356Q224 267 230.50 232.50Q237 198 251 180Q274 150 320 150Q390 150 411 226L589 226M386-53L350-197L204-197L271-53L386-53Z"  horiz-adv-x="609" vert-adv-y="1000"  />

      
      <glyph glyph-name="unic8" unicode="&#xc8;" d="M556 0L72 0L72 712L556 712L556 556L247 556L247 437L511 437L511 281L247 281L247 156L556 156L556 0M375 782L258 782L157 962L310 962L375 782Z"  horiz-adv-x="608" vert-adv-y="1000"  />

      
      <glyph glyph-name="unic9" unicode="&#xc9;" d="M556 0L72 0L72 712L556 712L556 556L247 556L247 437L511 437L511 281L247 281L247 156L556 156L556 0M459 962L358 782L241 782L306 962L459 962Z"  horiz-adv-x="608" vert-adv-y="1000"  />

      
      <glyph glyph-name="unica" unicode="&#xca;" d="M556 0L72 0L72 712L556 712L556 556L247 556L247 437L511 437L511 281L247 281L247 156L556 156L556 0M509 782L387 782L308 865L229 782L107 782L243 961L373 961L509 782Z"  horiz-adv-x="608" vert-adv-y="1000"  />

      
      <glyph glyph-name="unicb" unicode="&#xcb;" d="M556 0L72 0L72 712L556 712L556 556L247 556L247 437L511 437L511 281L247 281L247 156L556 156L556 0M488 781L354 781L354 926L488 926L488 781M262 781L128 781L128 926L262 926L262 781Z"  horiz-adv-x="608" vert-adv-y="1000"  />

      
      <glyph glyph-name="unicc" unicode="&#xcc;" d="M247 0L72 0L72 712L247 712L247 0M227 782L110 782L9 962L162 962L227 782Z"  horiz-adv-x="319" vert-adv-y="1000"  />

      
      <glyph glyph-name="unicd" unicode="&#xcd;" d="M247 0L72 0L72 712L247 712L247 0M310 962L209 782L92 782L157 962L310 962Z"  horiz-adv-x="319" vert-adv-y="1000"  />

      
      <glyph glyph-name="unice" unicode="&#xce;" d="M247 0L72 0L72 712L247 712L247 0M362 782L240 782L161 865L82 782L-40 782L96 961L226 961L362 782Z"  horiz-adv-x="319" vert-adv-y="1000"  />

      
      <glyph glyph-name="unicf" unicode="&#xcf;" d="M247 0L72 0L72 712L247 712L247 0M341 781L207 781L207 926L341 926L341 781M115 781L-19 781L-19 926L115 926L115 781Z"  horiz-adv-x="319" vert-adv-y="1000"  />

      
      <glyph glyph-name="unid0" unicode="&#xd0;" d="M451 241Q451 241 453 255.50Q455 270 455 356Q455 442 451 471Q447 500 436 516Q409 556 352 556L275 556L275 426L365 426L365 292L275 292L275 156L352 156Q409 156 436 196Q447 212 451 241M624.50 507.50Q624.50 507.50 627.25 484.75Q630 462 630 356Q630 250 624.50 204.50Q619 159 595 120Q521 0 364 0L100 0L100 292L35 292L35 426L100 426L100 712L364 712Q521 712 595 592Q619 553 624.50 507.50Z"  horiz-adv-x="679" vert-adv-y="1000"  />

      
      <glyph glyph-name="unid1" unicode="&#xd1;" d="M628 0L475 0L247 358L247 0L72 0L72 712L225 712L453 354L453 712L628 712L628 0M543 851Q509 817 481.50 802.50Q454 788 420 788Q376 788 339 810Q310 827 283 827Q252 827 225 800L157 869Q191 903 218 917.50Q245 932 279 932Q323 932 360 910Q389 893 415 893Q446 893 473 920L543 851Z"  horiz-adv-x="700" vert-adv-y="1000"  />

      
      <glyph glyph-name="unid2" unicode="&#xd2;" d="M589.50 443Q589.50 443 590.25 428.50Q591 414 591 356Q591 298 589.50 269Q588 240 582 199Q576 158 560 128Q544 98 518 72Q440-6 320-6Q200-6 122 72Q96 98 80 128Q64 158 58 199Q52 240 50.50 269Q49 298 49 356Q49 414 50.50 443Q52 472 58 513Q64 554 80 584Q96 614 122 640Q200 718 320 718Q440 718 518 640Q544 614 560 584Q576 554 582 513Q588 472 589.50 443M410 233Q410 233 413 249.50Q416 266 416 356Q416 446 410 479.50Q404 513 390 531Q366 562 320 562Q274 562 250 531Q236 513 230 479.50Q224 446 224 356Q224 266 230 233Q236 200 250 182Q274 150 320 150Q366 150 390 182Q404 200 410 233M387 782L270 782L169 962L322 962L387 782Z"  horiz-adv-x="640" vert-adv-y="1000"  />

      
      <glyph glyph-name="unid3" unicode="&#xd3;" d="M589.50 443Q589.50 443 590.25 428.50Q591 414 591 356Q591 298 589.50 269Q588 240 582 199Q576 158 560 128Q544 98 518 72Q440-6 320-6Q200-6 122 72Q96 98 80 128Q64 158 58 199Q52 240 50.50 269Q49 298 49 356Q49 414 50.50 443Q52 472 58 513Q64 554 80 584Q96 614 122 640Q200 718 320 718Q440 718 518 640Q544 614 560 584Q576 554 582 513Q588 472 589.50 443M410 233Q410 233 413 249.50Q416 266 416 356Q416 446 410 479.50Q404 513 390 531Q366 562 320 562Q274 562 250 531Q236 513 230 479.50Q224 446 224 356Q224 266 230 233Q236 200 250 182Q274 150 320 150Q366 150 390 182Q404 200 410 233M471 962L370 782L253 782L318 962L471 962Z"  horiz-adv-x="640" vert-adv-y="1000"  />

      
      <glyph glyph-name="unid4" unicode="&#xd4;" d="M589.50 443Q589.50 443 590.25 428.50Q591 414 591 356Q591 298 589.50 269Q588 240 582 199Q576 158 560 128Q544 98 518 72Q440-6 320-6Q200-6 122 72Q96 98 80 128Q64 158 58 199Q52 240 50.50 269Q49 298 49 356Q49 414 50.50 443Q52 472 58 513Q64 554 80 584Q96 614 122 640Q200 718 320 718Q440 718 518 640Q544 614 560 584Q576 554 582 513Q588 472 589.50 443M410 233Q410 233 413 249.50Q416 266 416 356Q416 446 410 479.50Q404 513 390 531Q366 562 320 562Q274 562 250 531Q236 513 230 479.50Q224 446 224 356Q224 266 230 233Q236 200 250 182Q274 150 320 150Q366 150 390 182Q404 200 410 233M521 782L399 782L320 865L241 782L119 782L255 961L385 961L521 782Z"  horiz-adv-x="640" vert-adv-y="1000"  />

      
      <glyph glyph-name="unid5" unicode="&#xd5;" d="M589.50 443Q589.50 443 590.25 428.50Q591 414 591 356Q591 298 589.50 269Q588 240 582 199Q576 158 560 128Q544 98 518 72Q440-6 320-6Q200-6 122 72Q96 98 80 128Q64 158 58 199Q52 240 50.50 269Q49 298 49 356Q49 414 50.50 443Q52 472 58 513Q64 554 80 584Q96 614 122 640Q200 718 320 718Q440 718 518 640Q544 614 560 584Q576 554 582 513Q588 472 589.50 443M410 233Q410 233 413 249.50Q416 266 416 356Q416 446 410 479.50Q404 513 390 531Q366 562 320 562Q274 562 250 531Q236 513 230 479.50Q224 446 224 356Q224 266 230 233Q236 200 250 182Q274 150 320 150Q366 150 390 182Q404 200 410 233M513 851Q479 817 451.50 802.50Q424 788 390 788Q346 788 309 810Q280 827 253 827Q222 827 195 800L127 869Q161 903 188 917.50Q215 932 249 932Q293 932 330 910Q359 893 385 893Q416 893 443 920L513 851Z"  horiz-adv-x="640" vert-adv-y="1000"  />

      
      <glyph glyph-name="unid6" unicode="&#xd6;" d="M589.50 443Q589.50 443 590.25 428.50Q591 414 591 356Q591 298 589.50 269Q588 240 582 199Q576 158 560 128Q544 98 518 72Q440-6 320-6Q200-6 122 72Q96 98 80 128Q64 158 58 199Q52 240 50.50 269Q49 298 49 356Q49 414 50.50 443Q52 472 58 513Q64 554 80 584Q96 614 122 640Q200 718 320 718Q440 718 518 640Q544 614 560 584Q576 554 582 513Q588 472 589.50 443M410 233Q410 233 413 249.50Q416 266 416 356Q416 446 410 479.50Q404 513 390 531Q366 562 320 562Q274 562 250 531Q236 513 230 479.50Q224 446 224 356Q224 266 230 233Q236 200 250 182Q274 150 320 150Q366 150 390 182Q404 200 410 233M500 781L366 781L366 926L500 926L500 781M274 781L140 781L140 926L274 926L274 781Z"  horiz-adv-x="640" vert-adv-y="1000"  />

      
      <glyph glyph-name="unid7" unicode="&#xd7;" d="M517 161L413 57L278 192L144 57L39 161L175 295L39 430L143 534L277 399L412 534L517 430L381 295L517 161Z"  horiz-adv-x="556" vert-adv-y="1000"  />

      
      <glyph glyph-name="unid8" unicode="&#xd8;" d="M589.50 443Q589.50 443 590.25 428.50Q591 414 591 356Q591 298 589.50 269Q588 240 582 199Q576 158 560 128Q544 98 518 72Q440-6 320-6Q260-6 215 12L188-44L70-44L125 69Q98 96 81.50 126.50Q65 157 58.50 198.50Q52 240 50.50 269Q49 298 49 356Q49 414 50.50 443Q52 472 58 513Q64 554 80 584Q96 614 122 640Q200 718 320 718Q380 718 425 700L452 756L570 756L516 642Q543 615 559 585Q575 555 581.50 513.50Q588 472 589.50 443M416 356Q416 414 413 449L276 161Q295 150 320 150Q366 150 390 182Q404 200 410 233Q416 266 416 356M364 552Q344 562 320 562Q274 562 250 531Q236 513 230 479.50Q224 446 224 356Q224 298 227 263L364 552Z"  horiz-adv-x="640" vert-adv-y="1000"  />

      
      <glyph glyph-name="unid9" unicode="&#xd9;" d="M600 250Q600 136 521.50 65Q443-6 329-6Q215-6 137.50 65Q60 136 60 250L60 712L235 712L235 254Q235 205 260 177.50Q285 150 329 150Q373 150 399 177.50Q425 205 425 254L425 712L600 712L600 250M397 782L280 782L179 962L332 962L397 782Z"  horiz-adv-x="660" vert-adv-y="1000"  />

      
      <glyph glyph-name="unida" unicode="&#xda;" d="M600 250Q600 136 521.50 65Q443-6 329-6Q215-6 137.50 65Q60 136 60 250L60 712L235 712L235 254Q235 205 260 177.50Q285 150 329 150Q373 150 399 177.50Q425 205 425 254L425 712L600 712L600 250M481 962L380 782L263 782L328 962L481 962Z"  horiz-adv-x="660" vert-adv-y="1000"  />

      
      <glyph glyph-name="unidb" unicode="&#xdb;" d="M600 250Q600 136 521.50 65Q443-6 329-6Q215-6 137.50 65Q60 136 60 250L60 712L235 712L235 254Q235 205 260 177.50Q285 150 329 150Q373 150 399 177.50Q425 205 425 254L425 712L600 712L600 250M531 782L409 782L330 865L251 782L129 782L265 961L395 961L531 782Z"  horiz-adv-x="660" vert-adv-y="1000"  />

      
      <glyph glyph-name="unidc" unicode="&#xdc;" d="M600 250Q600 136 521.50 65Q443-6 329-6Q215-6 137.50 65Q60 136 60 250L60 712L235 712L235 254Q235 205 260 177.50Q285 150 329 150Q373 150 399 177.50Q425 205 425 254L425 712L600 712L600 250M510 781L376 781L376 926L510 926L510 781M284 781L150 781L150 926L284 926L284 781Z"  horiz-adv-x="660" vert-adv-y="1000"  />

      
      <glyph glyph-name="unidd" unicode="&#xdd;" d="M605 712L390 290L390 0L215 0L215 290L0 712L191 712L303 456L414 712L605 712M453 962L352 782L235 782L300 962L453 962Z"  horiz-adv-x="605" vert-adv-y="1000"  />

      
      <glyph glyph-name="unide" unicode="&#xde;" d="M532 521.50Q532 521.50 564.50 487.75Q597 454 597 360Q597 266 532 198.50Q467 131 354 131L247 131L247 0L72 0L72 712L247 712L247 589L354 589Q467 589 532 521.50M401 309.50Q401 309.50 411.50 320.25Q422 331 422 360Q422 389 401 410.50Q380 432 346 432L247 432L247 288L346 288Q380 288 401 309.50Z"  horiz-adv-x="627" vert-adv-y="1000"  />

      
      <glyph glyph-name="unidf" unicode="&#xdf;" d="M534 173Q534 88 492 45Q447 0 354 0L302 0L302 138L321 138Q344 138 356 150Q369 162 369 186L369 315Q369 338 357 350Q345 363 321 363L302 363L302 489L325 489Q369 489 369 531Q369 550 357 560Q340 575 302 575Q260 575 243.50 558Q227 541 227 505L227 0L62 0L62 519Q62 623 127.50 670.50Q193 718 302 718Q409 718 471.50 673Q534 628 534 537Q534 463 473 428Q534 398 534 325L534 173Z"  horiz-adv-x="584" vert-adv-y="1000"  />

      
      <glyph glyph-name="unie0" unicode="&#xe0;" d="M483 0L323 0L323 44Q297 18 270.50 6.50Q244-5 203-5Q122-5 74 43Q27 90 27 169Q27 235 74 280Q121 325 213 325L319 325L319 339Q319 375 300 390.50Q281 406 238 406Q191 406 153 368L51 470Q92 511 135 527.50Q178 544 246 544Q483 544 483 349L483 0M319 202L319 216L241 216Q184 216 184 172Q184 152 199 140Q214 128 243 128Q280 128 302 147Q319 163 319 202M332 610L215 610L114 790L267 790L332 610Z"  horiz-adv-x="536" vert-adv-y="1000"  />

      
      <glyph glyph-name="unie1" unicode="&#xe1;" d="M483 0L323 0L323 44Q297 18 270.50 6.50Q244-5 203-5Q122-5 74 43Q27 90 27 169Q27 235 74 280Q121 325 213 325L319 325L319 339Q319 375 300 390.50Q281 406 238 406Q191 406 153 368L51 470Q92 511 135 527.50Q178 544 246 544Q483 544 483 349L483 0M319 202L319 216L241 216Q184 216 184 172Q184 152 199 140Q214 128 243 128Q280 128 302 147Q319 163 319 202M418 790L317 610L200 610L265 790L418 790Z"  horiz-adv-x="536" vert-adv-y="1000"  />

      
      <glyph glyph-name="unie2" unicode="&#xe2;" d="M483 0L323 0L323 44Q297 18 270.50 6.50Q244-5 203-5Q122-5 74 43Q27 90 27 169Q27 235 74 280Q121 325 213 325L319 325L319 339Q319 375 300 390.50Q281 406 238 406Q191 406 153 368L51 470Q92 511 135 527.50Q178 544 246 544Q483 544 483 349L483 0M319 202L319 216L241 216Q184 216 184 172Q184 152 199 140Q214 128 243 128Q280 128 302 147Q319 163 319 202M467 610L345 610L266 693L187 610L65 610L201 789L331 789L467 610Z"  horiz-adv-x="536" vert-adv-y="1000"  />

      
      <glyph glyph-name="unie3" unicode="&#xe3;" d="M483 0L323 0L323 44Q297 18 270.50 6.50Q244-5 203-5Q122-5 74 43Q27 90 27 169Q27 235 74 280Q121 325 213 325L319 325L319 339Q319 375 300 390.50Q281 406 238 406Q191 406 153 368L51 470Q92 511 135 527.50Q178 544 246 544Q483 544 483 349L483 0M319 202L319 216L241 216Q184 216 184 172Q184 152 199 140Q214 128 243 128Q280 128 302 147Q319 163 319 202M459 679Q425 645 397.50 630.50Q370 616 336 616Q292 616 255 638Q226 655 199 655Q168 655 141 628L73 697Q107 731 134 745.50Q161 760 195 760Q239 760 276 738Q305 721 331 721Q362 721 389 748L459 679Z"  horiz-adv-x="536" vert-adv-y="1000"  />

      
      <glyph glyph-name="unie4" unicode="&#xe4;" d="M483 0L323 0L323 44Q297 18 270.50 6.50Q244-5 203-5Q122-5 74 43Q27 90 27 169Q27 235 74 280Q121 325 213 325L319 325L319 339Q319 375 300 390.50Q281 406 238 406Q191 406 153 368L51 470Q92 511 135 527.50Q178 544 246 544Q483 544 483 349L483 0M319 202L319 216L241 216Q184 216 184 172Q184 152 199 140Q214 128 243 128Q280 128 302 147Q319 163 319 202M220 609L86 609L86 754L220 754L220 609M446 609L312 609L312 754L446 754L446 609Z"  horiz-adv-x="536" vert-adv-y="1000"  />

      
      <glyph glyph-name="unie5" unicode="&#xe5;" d="M483 0L323 0L323 44Q297 18 270.50 6.50Q244-5 203-5Q122-5 74 43Q27 90 27 169Q27 235 74 280Q121 325 213 325L319 325L319 339Q319 375 300 390.50Q281 406 238 406Q191 406 153 368L51 470Q92 511 135 527.50Q178 544 246 544Q483 544 483 349L483 0M319 202L319 216L241 216Q184 216 184 172Q184 152 199 140Q214 128 243 128Q280 128 302 147Q319 163 319 202M404 731Q404 674 363.50 633.50Q323 593 266 593Q209 593 168.50 633.50Q128 674 128 731Q128 788 168.50 828.50Q209 869 266 869Q323 869 363.50 829Q404 789 404 731M302.50 694.50Q302.50 694.50 310.25 702.25Q318 710 318 731Q318 752 302.50 767.50Q287 783 266 783Q245 783 229.50 767.50Q214 752 214 731Q214 710 229.50 694.50Q245 679 266 679Q287 679 302.50 694.50Z"  horiz-adv-x="536" vert-adv-y="1000"  />

      
      <glyph glyph-name="unie6" unicode="&#xe6;" d="M802 216L480 216Q480 181 505.50 156.50Q531 132 575 132Q615 132 638.50 142.50Q662 153 686 177L784 79Q740 35 693 14.50Q646-6 575-6Q452-6 387 59Q342 18 302 6Q262-6 203-6Q123-6 74 43Q27 90 27 169Q27 235 74 280Q121 325 213 325L319 325L319 339Q319 375 300 390.50Q281 406 238 406Q191 406 153 368L51 470Q92 511 135 527.50Q178 544 246 544Q358 544 416 499Q474 544 560 544Q674 544 738 471.50Q802 399 802 284L802 216M640 325Q640 348 631 367Q612 409 560 409Q508 409 489 367Q480 348 480 325L640 325M319 202L319 216L241 216Q184 216 184 172Q184 152 199 140Q214 128 243 128Q280 128 302 147Q319 163 319 202Z"  horiz-adv-x="840" vert-adv-y="1000"  />

      
      <glyph glyph-name="unie7" unicode="&#xe7;" d="M457 63Q388-6 280-6Q248-6 218.50-0.50Q189 5 155 23Q121 41 96 70Q71 99 54.50 150.50Q38 202 38 269Q38 336 54.50 387.50Q71 439 96 468Q121 497 155 515Q189 533 218.50 538.50Q248 544 280 544Q388 544 457 475L346 364Q314 396 280 396Q250 396 229 375Q202 347 202 269Q202 191 229 163Q250 142 280 142Q314 142 346 174L457 63M334-53L298-197L152-197L219-53L334-53Z"  horiz-adv-x="475" vert-adv-y="1000"  />

      
      <glyph glyph-name="unie8" unicode="&#xe8;" d="M521 216L199 216Q199 181 224.50 156.50Q250 132 294 132Q334 132 357.50 142.50Q381 153 405 177L503 79Q459 35 412 14.50Q365-6 294-6Q38-6 38 269Q38 398 104.50 471Q171 544 279 544Q393 544 457 471.50Q521 399 521 284L521 216M359 325Q359 348 350 367Q331 409 279 409Q227 409 208 367Q199 348 199 325L359 325M349 610L232 610L131 790L284 790L349 610Z"  horiz-adv-x="559" vert-adv-y="1000"  />

      
      <glyph glyph-name="unie9" unicode="&#xe9;" d="M521 216L199 216Q199 181 224.50 156.50Q250 132 294 132Q334 132 357.50 142.50Q381 153 405 177L503 79Q459 35 412 14.50Q365-6 294-6Q38-6 38 269Q38 398 104.50 471Q171 544 279 544Q393 544 457 471.50Q521 399 521 284L521 216M359 325Q359 348 350 367Q331 409 279 409Q227 409 208 367Q199 348 199 325L359 325M435 790L334 610L217 610L282 790L435 790Z"  horiz-adv-x="559" vert-adv-y="1000"  />

      
      <glyph glyph-name="uniea" unicode="&#xea;" d="M521 216L199 216Q199 181 224.50 156.50Q250 132 294 132Q334 132 357.50 142.50Q381 153 405 177L503 79Q459 35 412 14.50Q365-6 294-6Q38-6 38 269Q38 398 104.50 471Q171 544 279 544Q393 544 457 471.50Q521 399 521 284L521 216M359 325Q359 348 350 367Q331 409 279 409Q227 409 208 367Q199 348 199 325L359 325M484 610L362 610L283 693L204 610L82 610L218 789L348 789L484 610Z"  horiz-adv-x="559" vert-adv-y="1000"  />

      
      <glyph glyph-name="unieb" unicode="&#xeb;" d="M521 216L199 216Q199 181 224.50 156.50Q250 132 294 132Q334 132 357.50 142.50Q381 153 405 177L503 79Q459 35 412 14.50Q365-6 294-6Q38-6 38 269Q38 398 104.50 471Q171 544 279 544Q393 544 457 471.50Q521 399 521 284L521 216M359 325Q359 348 350 367Q331 409 279 409Q227 409 208 367Q199 348 199 325L359 325M237 609L103 609L103 754L237 754L237 609M463 609L329 609L329 754L463 754L463 609Z"  horiz-adv-x="559" vert-adv-y="1000"  />

      
      <glyph glyph-name="uniec" unicode="&#xec;" d="M226 0L62 0L62 517L226 517L226 0M226 610L109 610L8 790L161 790L226 610Z"  horiz-adv-x="288" vert-adv-y="1000"  />

      
      <glyph glyph-name="unied" unicode="&#xed;" d="M226 0L62 0L62 517L226 517L226 0M280 790L179 610L62 610L127 790L280 790Z"  horiz-adv-x="288" vert-adv-y="1000"  />

      
      <glyph glyph-name="uniee" unicode="&#xee;" d="M226 0L62 0L62 517L226 517L226 0M347 610L225 610L146 693L67 610L-55 610L81 789L211 789L347 610Z"  horiz-adv-x="288" vert-adv-y="1000"  />

      
      <glyph glyph-name="unief" unicode="&#xef;" d="M226 0L62 0L62 517L226 517L226 0M100 609L-34 609L-34 754L100 754L100 609M326 609L192 609L192 754L326 754L326 609Z"  horiz-adv-x="288" vert-adv-y="1000"  />

      
      <glyph glyph-name="unif0" unicode="&#xf0;" d="M499 259Q499 182 487 138.50Q475 95 442 60Q380-6 275-6Q170-6 108 60Q75 95 63 138.50Q51 182 51 259Q51 336 63 379.50Q75 423 108 458Q135 487 177 505Q214 522 254 523L234 563L121 563L121 677L178 677L156 723L332 723L354 677L451 677L451 563L410 563L436 506Q473 424 486 378Q499 332 499 259M314 156Q335 177 335 259Q335 341 314 362Q300 376 275 376Q250 376 236 362Q215 341 215 259Q215 177 236 156Q250 142 275 142Q300 142 314 156Z"  horiz-adv-x="550" vert-adv-y="1000"  />

      
      <glyph glyph-name="unif1" unicode="&#xf1;" d="M522 0L358 0L358 322Q358 363 337 379.50Q316 396 292 396Q268 396 247 379.50Q226 363 226 322L226 0L62 0L62 538L222 538L222 494Q272 544 347 544Q422 544 468 498Q522 444 522 344L522 0M485 679Q451 645 423.50 630.50Q396 616 362 616Q318 616 281 638Q252 655 225 655Q194 655 167 628L99 697Q133 731 160 745.50Q187 760 221 760Q265 760 302 738Q331 721 357 721Q388 721 415 748L485 679Z"  horiz-adv-x="579" vert-adv-y="1000"  />

      
      <glyph glyph-name="unif2" unicode="&#xf2;" d="M507 269Q507 189 494.50 144.50Q482 100 448 63Q383-6 275-6Q167-6 102 63Q68 100 55.50 144.50Q43 189 43 269Q43 348 56 393.50Q69 439 102 475Q167 544 275 544Q383 544 448 475Q481 439 494 393.50Q507 348 507 269M319 157Q343 181 343 269Q343 357 319 381Q304 396 275 396Q246 396 231 381Q207 357 207 269Q207 181 231 157Q246 142 275 142Q304 142 319 157M341 610L224 610L123 790L276 790L341 610Z"  horiz-adv-x="550" vert-adv-y="1000"  />

      
      <glyph glyph-name="unif3" unicode="&#xf3;" d="M507 269Q507 189 494.50 144.50Q482 100 448 63Q383-6 275-6Q167-6 102 63Q68 100 55.50 144.50Q43 189 43 269Q43 348 56 393.50Q69 439 102 475Q167 544 275 544Q383 544 448 475Q481 439 494 393.50Q507 348 507 269M319 157Q343 181 343 269Q343 357 319 381Q304 396 275 396Q246 396 231 381Q207 357 207 269Q207 181 231 157Q246 142 275 142Q304 142 319 157M427 790L326 610L209 610L274 790L427 790Z"  horiz-adv-x="550" vert-adv-y="1000"  />

      
      <glyph glyph-name="unif4" unicode="&#xf4;" d="M507 269Q507 189 494.50 144.50Q482 100 448 63Q383-6 275-6Q167-6 102 63Q68 100 55.50 144.50Q43 189 43 269Q43 348 56 393.50Q69 439 102 475Q167 544 275 544Q383 544 448 475Q481 439 494 393.50Q507 348 507 269M319 157Q343 181 343 269Q343 357 319 381Q304 396 275 396Q246 396 231 381Q207 357 207 269Q207 181 231 157Q246 142 275 142Q304 142 319 157M476 610L354 610L275 693L196 610L74 610L210 789L340 789L476 610Z"  horiz-adv-x="550" vert-adv-y="1000"  />

      
      <glyph glyph-name="unif5" unicode="&#xf5;" d="M507 269Q507 189 494.50 144.50Q482 100 448 63Q383-6 275-6Q167-6 102 63Q68 100 55.50 144.50Q43 189 43 269Q43 348 56 393.50Q69 439 102 475Q167 544 275 544Q383 544 448 475Q481 439 494 393.50Q507 348 507 269M319 157Q343 181 343 269Q343 357 319 381Q304 396 275 396Q246 396 231 381Q207 357 207 269Q207 181 231 157Q246 142 275 142Q304 142 319 157M468 679Q434 645 406.50 630.50Q379 616 345 616Q301 616 264 638Q235 655 208 655Q177 655 150 628L82 697Q116 731 143 745.50Q170 760 204 760Q248 760 285 738Q314 721 340 721Q371 721 398 748L468 679Z"  horiz-adv-x="550" vert-adv-y="1000"  />

      
      <glyph glyph-name="unif6" unicode="&#xf6;" d="M507 269Q507 189 494.50 144.50Q482 100 448 63Q383-6 275-6Q167-6 102 63Q68 100 55.50 144.50Q43 189 43 269Q43 348 56 393.50Q69 439 102 475Q167 544 275 544Q383 544 448 475Q481 439 494 393.50Q507 348 507 269M319 157Q343 181 343 269Q343 357 319 381Q304 396 275 396Q246 396 231 381Q207 357 207 269Q207 181 231 157Q246 142 275 142Q304 142 319 157M229 609L95 609L95 754L229 754L229 609M455 609L321 609L321 754L455 754L455 609Z"  horiz-adv-x="550" vert-adv-y="1000"  />

      
      <glyph glyph-name="unif7" unicode="&#xf7;" d="M356 0L200 0L200 156L356 156L356 0M513 218L43 218L43 372L513 372L513 218M356 434L200 434L200 590L356 590L356 434Z"  horiz-adv-x="556" vert-adv-y="1000"  />

      
      <glyph glyph-name="unif8" unicode="&#xf8;" d="M507 269Q507 189 494.50 144.50Q482 100 448 63Q383-6 275-6Q218-6 171 14L137-44L44-44L105 60Q65 102 54 148Q43 194 43 269Q43 348 56 393.50Q69 439 102 475Q167 544 275 544Q332 544 379 524L413 582L506 582L445 478Q484 436 495.50 389Q507 342 507 269M343 269Q343 305 341 319L241 149Q254 142 275 142Q304 142 319 157Q343 181 343 269M309 389Q296 396 275 396Q246 396 231 381Q207 357 207 269Q207 233 209 219L309 389Z"  horiz-adv-x="550" vert-adv-y="1000"  />

      
      <glyph glyph-name="unif9" unicode="&#xf9;" d="M517 0L357 0L357 44Q307-6 232-6Q157-6 111 40Q57 94 57 194L57 538L221 538L221 216Q221 175 242 158.50Q263 142 287 142Q311 142 332 158.50Q353 175 353 216L353 538L517 538L517 0M353 610L236 610L135 790L288 790L353 610Z"  horiz-adv-x="579" vert-adv-y="1000"  />

      
      <glyph glyph-name="unifa" unicode="&#xfa;" d="M517 0L357 0L357 44Q307-6 232-6Q157-6 111 40Q57 94 57 194L57 538L221 538L221 216Q221 175 242 158.50Q263 142 287 142Q311 142 332 158.50Q353 175 353 216L353 538L517 538L517 0M439 790L338 610L221 610L286 790L439 790Z"  horiz-adv-x="579" vert-adv-y="1000"  />

      
      <glyph glyph-name="unifb" unicode="&#xfb;" d="M517 0L357 0L357 44Q307-6 232-6Q157-6 111 40Q57 94 57 194L57 538L221 538L221 216Q221 175 242 158.50Q263 142 287 142Q311 142 332 158.50Q353 175 353 216L353 538L517 538L517 0M488 610L366 610L287 693L208 610L86 610L222 789L352 789L488 610Z"  horiz-adv-x="579" vert-adv-y="1000"  />

      
      <glyph glyph-name="unifc" unicode="&#xfc;" d="M517 0L357 0L357 44Q307-6 232-6Q157-6 111 40Q57 94 57 194L57 538L221 538L221 216Q221 175 242 158.50Q263 142 287 142Q311 142 332 158.50Q353 175 353 216L353 538L517 538L517 0M241 609L107 609L107 754L241 754L241 609M467 609L333 609L333 754L467 754L467 609Z"  horiz-adv-x="579" vert-adv-y="1000"  />

      
      <glyph glyph-name="unifd" unicode="&#xfd;" d="M522 538L299-64Q283-109 257-135Q215-180 136-180L74-180L74-32L109-32Q132-32 144-24Q156-16 164 8L179 53L0 538L172 538L263 259L350 538L522 538M414 790L313 610L196 610L261 790L414 790Z"  horiz-adv-x="514" vert-adv-y="1000"  />

      
      <glyph glyph-name="unife" unicode="&#xfe;" d="M524 360Q524 360 525 344Q526 328 526 269Q526 210 524 178Q522 146 510 106.50Q498 67 475 43Q428-6 346-6Q271-6 226 39L226-174L62-174L62 712L226 712L226 499Q271 544 346 544Q428 544 475 495Q498 471 510 431.50Q522 392 524 360M349 172Q349 172 355.50 187Q362 202 362 269Q362 336 349 366Q336 396 294 396Q252 396 239 366Q226 336 226 269Q226 202 239 172Q252 142 294 142Q336 142 349 172Z"  horiz-adv-x="571" vert-adv-y="1000"  />

      
      <glyph glyph-name="uniff" unicode="&#xff;" d="M522 538L299-64Q283-109 257-135Q215-180 136-180L74-180L74-32L109-32Q132-32 144-24Q156-16 164 8L179 53L0 538L172 538L263 259L350 538L522 538M216 609L82 609L82 754L216 754L216 609M442 609L308 609L308 754L442 754L442 609Z"  horiz-adv-x="514" vert-adv-y="1000"  />

      
      <glyph glyph-name="uni0100" unicode="&#x0100;" d="M653 0L470 0L437 106L218 106L183 0L0 0L259 712L394 712L653 0M391 252L331 442L267 252L391 252M489 791L163 791L163 896L489 896L489 791Z"  horiz-adv-x="653" vert-adv-y="1000"  />

      
      <glyph glyph-name="uni0101" unicode="&#x0101;" d="M483 0L323 0L323 44Q297 18 270.50 6.50Q244-5 203-5Q122-5 74 43Q27 90 27 169Q27 235 74 280Q121 325 213 325L319 325L319 339Q319 375 300 390.50Q281 406 238 406Q191 406 153 368L51 470Q92 511 135 527.50Q178 544 246 544Q483 544 483 349L483 0M319 202L319 216L241 216Q184 216 184 172Q184 152 199 140Q214 128 243 128Q280 128 302 147Q319 163 319 202M429 629L103 629L103 734L429 734L429 629Z"  horiz-adv-x="536" vert-adv-y="1000"  />

      
      <glyph glyph-name="uni0102" unicode="&#x0102;" d="M653 0L470 0L437 106L218 106L183 0L0 0L259 712L394 712L653 0M391 252L331 442L267 252L391 252M490 931Q488 849 440 811.50Q392 774 326 774Q260 774 212 811.50Q164 849 162 931L268 931Q272 884 326 884Q380 884 384 931L490 931Z"  horiz-adv-x="653" vert-adv-y="1000"  />

      
      <glyph glyph-name="uni0103" unicode="&#x0103;" d="M483 0L323 0L323 44Q297 18 270.50 6.50Q244-5 203-5Q122-5 74 43Q27 90 27 169Q27 235 74 280Q121 325 213 325L319 325L319 339Q319 375 300 390.50Q281 406 238 406Q191 406 153 368L51 470Q92 511 135 527.50Q178 544 246 544Q483 544 483 349L483 0M319 202L319 216L241 216Q184 216 184 172Q184 152 199 140Q214 128 243 128Q280 128 302 147Q319 163 319 202M430 759Q428 677 380 639.50Q332 602 266 602Q200 602 152 639.50Q104 677 102 759L208 759Q212 712 266 712Q320 712 324 759L430 759Z"  horiz-adv-x="536" vert-adv-y="1000"  />

      
      <glyph glyph-name="uni0104" unicode="&#x0104;" d="M653 0L470 0L437 106L218 106L183 0L0 0L259 712L394 712L653 0M391 252L331 442L267 252L391 252M585-56L549-200L403-200L470-56L585-56Z"  horiz-adv-x="653" vert-adv-y="1000"  />

      
      <glyph glyph-name="uni0105" unicode="&#x0105;" d="M483 0L323 0L323 44Q297 18 270.50 6.50Q244-5 203-5Q122-5 74 43Q27 90 27 169Q27 235 74 280Q121 325 213 325L319 325L319 339Q319 375 300 390.50Q281 406 238 406Q191 406 153 368L51 470Q92 511 135 527.50Q178 544 246 544Q483 544 483 349L483 0M319 202L319 216L241 216Q184 216 184 172Q184 152 199 140Q214 128 243 128Q280 128 302 147Q319 163 319 202M438-56L402-200L256-200L323-56L438-56Z"  horiz-adv-x="536" vert-adv-y="1000"  />

      
      <glyph glyph-name="uni0106" unicode="&#x0106;" d="M589 226Q570 112 497.50 53Q425-6 320-6Q200-6 122 72Q96 98 80 128Q64 158 58 199Q52 240 50.50 269Q49 298 49 356Q49 414 50.50 443Q52 472 58 513Q64 554 80 584Q96 614 122 640Q200 718 320 718Q425 718 497.50 659Q570 600 589 486L411 486Q390 562 320 562Q274 562 251 532Q237 514 230.50 479.50Q224 445 224 356Q224 267 230.50 232.50Q237 198 251 180Q274 150 320 150Q390 150 411 226L589 226M455 962L354 782L237 782L302 962L455 962Z"  horiz-adv-x="609" vert-adv-y="1000"  />

      
      <glyph glyph-name="uni0107" unicode="&#x0107;" d="M457 63Q388-6 280-6Q248-6 218.50-0.50Q189 5 155 23Q121 41 96 70Q71 99 54.50 150.50Q38 202 38 269Q38 336 54.50 387.50Q71 439 96 468Q121 497 155 515Q189 533 218.50 538.50Q248 544 280 544Q388 544 457 475L346 364Q314 396 280 396Q250 396 229 375Q202 347 202 269Q202 191 229 163Q250 142 280 142Q314 142 346 174L457 63M427 790L326 610L209 610L274 790L427 790Z"  horiz-adv-x="475" vert-adv-y="1000"  />

      
      <glyph glyph-name="uni0108" unicode="&#x0108;" d="M589 226Q570 112 497.50 53Q425-6 320-6Q200-6 122 72Q96 98 80 128Q64 158 58 199Q52 240 50.50 269Q49 298 49 356Q49 414 50.50 443Q52 472 58 513Q64 554 80 584Q96 614 122 640Q200 718 320 718Q425 718 497.50 659Q570 600 589 486L411 486Q390 562 320 562Q274 562 251 532Q237 514 230.50 479.50Q224 445 224 356Q224 267 230.50 232.50Q237 198 251 180Q274 150 320 150Q390 150 411 226L589 226M520 782L398 782L319 865L240 782L118 782L254 961L384 961L520 782Z"  horiz-adv-x="609" vert-adv-y="1000"  />

      
      <glyph glyph-name="uni0109" unicode="&#x0109;" d="M457 63Q388-6 280-6Q248-6 218.50-0.50Q189 5 155 23Q121 41 96 70Q71 99 54.50 150.50Q38 202 38 269Q38 336 54.50 387.50Q71 439 96 468Q121 497 155 515Q189 533 218.50 538.50Q248 544 280 544Q388 544 457 475L346 364Q314 396 280 396Q250 396 229 375Q202 347 202 269Q202 191 229 163Q250 142 280 142Q314 142 346 174L457 63M481 610L359 610L280 693L201 610L79 610L215 789L345 789L481 610Z"  horiz-adv-x="475" vert-adv-y="1000"  />

      
      <glyph glyph-name="uni010A" unicode="&#x010A;" d="M589 226Q570 112 497.50 53Q425-6 320-6Q200-6 122 72Q96 98 80 128Q64 158 58 199Q52 240 50.50 269Q49 298 49 356Q49 414 50.50 443Q52 472 58 513Q64 554 80 584Q96 614 122 640Q200 718 320 718Q425 718 497.50 659Q570 600 589 486L411 486Q390 562 320 562Q274 562 251 532Q237 514 230.50 479.50Q224 445 224 356Q224 267 230.50 232.50Q237 198 251 180Q274 150 320 150Q390 150 411 226L589 226M386 785L248 785L248 923L386 923L386 785Z"  horiz-adv-x="609" vert-adv-y="1000"  />

      
      <glyph glyph-name="uni010B" unicode="&#x010B;" d="M457 63Q388-6 280-6Q248-6 218.50-0.50Q189 5 155 23Q121 41 96 70Q71 99 54.50 150.50Q38 202 38 269Q38 336 54.50 387.50Q71 439 96 468Q121 497 155 515Q189 533 218.50 538.50Q248 544 280 544Q388 544 457 475L346 364Q314 396 280 396Q250 396 229 375Q202 347 202 269Q202 191 229 163Q250 142 280 142Q314 142 346 174L457 63M349 613L211 613L211 751L349 751L349 613Z"  horiz-adv-x="475" vert-adv-y="1000"  />

      
      <glyph glyph-name="uni010C" unicode="&#x010C;" d="M589 226Q570 112 497.50 53Q425-6 320-6Q200-6 122 72Q96 98 80 128Q64 158 58 199Q52 240 50.50 269Q49 298 49 356Q49 414 50.50 443Q52 472 58 513Q64 554 80 584Q96 614 122 640Q200 718 320 718Q425 718 497.50 659Q570 600 589 486L411 486Q390 562 320 562Q274 562 251 532Q237 514 230.50 479.50Q224 445 224 356Q224 267 230.50 232.50Q237 198 251 180Q274 150 320 150Q390 150 411 226L589 226M520 961L384 782L254 782L118 961L240 961L319 878L398 961L520 961Z"  horiz-adv-x="609" vert-adv-y="1000"  />

      
      <glyph glyph-name="uni010D" unicode="&#x010D;" d="M457 63Q388-6 280-6Q248-6 218.50-0.50Q189 5 155 23Q121 41 96 70Q71 99 54.50 150.50Q38 202 38 269Q38 336 54.50 387.50Q71 439 96 468Q121 497 155 515Q189 533 218.50 538.50Q248 544 280 544Q388 544 457 475L346 364Q314 396 280 396Q250 396 229 375Q202 347 202 269Q202 191 229 163Q250 142 280 142Q314 142 346 174L457 63M481 789L345 610L215 610L79 789L201 789L280 706L359 789L481 789Z"  horiz-adv-x="475" vert-adv-y="1000"  />

      
      <glyph glyph-name="uni010E" unicode="&#x010E;" d="M596.50 507.50Q596.50 507.50 599.25 484.75Q602 462 602 356Q602 250 596.50 204.50Q591 159 567 120Q493 0 336 0L72 0L72 712L336 712Q493 712 567 592Q591 553 596.50 507.50M423 241Q423 241 425 255.50Q427 270 427 356Q427 442 423 471Q419 500 408 516Q381 556 324 556L247 556L247 156L324 156Q381 156 408 196Q419 212 423 241M526 961L390 782L260 782L124 961L246 961L325 878L404 961L526 961Z"  horiz-adv-x="651" vert-adv-y="1000"  />

      
      <glyph glyph-name="uni010F" unicode="&#x010F;" d="M526 0L367 0L367 44Q317-6 243-6Q160-6 113 43Q90 67 78 106.50Q66 146 64 178Q62 210 62 269Q62 328 64 360Q66 392 78 431.50Q90 471 113 495Q160 544 242 544Q317 544 362 499L362 712L526 712L526 0M349 172Q349 172 355.50 187Q362 202 362 269Q362 336 349 366Q336 396 294 396Q252 396 239 366Q226 336 226 269Q226 202 239 172Q252 142 294 142Q336 142 349 172M739 753L675 580L565 580L599 753L739 753Z"  horiz-adv-x="569" vert-adv-y="1000"  />

      
      <glyph glyph-name="uni0110" unicode="&#x0110;" d="M451 241Q451 241 453 255.50Q455 270 455 356Q455 442 451 471Q447 500 436 516Q409 556 352 556L275 556L275 426L365 426L365 292L275 292L275 156L352 156Q409 156 436 196Q447 212 451 241M624.50 507.50Q624.50 507.50 627.25 484.75Q630 462 630 356Q630 250 624.50 204.50Q619 159 595 120Q521 0 364 0L100 0L100 292L35 292L35 426L100 426L100 712L364 712Q521 712 595 592Q619 553 624.50 507.50Z"  horiz-adv-x="679" vert-adv-y="1000"  />

      
      <glyph glyph-name="uni0111" unicode="&#x0111;" d="M507 0L348 0L348 44Q298-6 224-6Q141-6 94 43Q71 67 59 106.50Q47 146 45 178Q43 210 43 269Q43 328 45 360Q47 392 59 431.50Q71 471 94 495Q141 544 223 544Q298 544 343 499L343 564L275 564L275 666L343 666L343 712L507 712L507 666L551 666L551 564L507 564L507 0M330 172Q330 172 336.50 187Q343 202 343 269Q343 336 330 366Q317 396 275 396Q233 396 220 366Q207 336 207 269Q207 202 220 172Q233 142 275 142Q317 142 330 172Z"  horiz-adv-x="597" vert-adv-y="1000"  />

      
      <glyph glyph-name="uni0112" unicode="&#x0112;" d="M556 0L72 0L72 712L556 712L556 556L247 556L247 437L511 437L511 281L247 281L247 156L556 156L556 0M467 791L141 791L141 896L467 896L467 791Z"  horiz-adv-x="608" vert-adv-y="1000"  />

      
      <glyph glyph-name="uni0113" unicode="&#x0113;" d="M521 216L199 216Q199 181 224.50 156.50Q250 132 294 132Q334 132 357.50 142.50Q381 153 405 177L503 79Q459 35 412 14.50Q365-6 294-6Q38-6 38 269Q38 398 104.50 471Q171 544 279 544Q393 544 457 471.50Q521 399 521 284L521 216M359 325Q359 348 350 367Q331 409 279 409Q227 409 208 367Q199 348 199 325L359 325M446 629L120 629L120 734L446 734L446 629Z"  horiz-adv-x="559" vert-adv-y="1000"  />

      
      <glyph glyph-name="uni0114" unicode="&#x0114;" d="M556 0L72 0L72 712L556 712L556 556L247 556L247 437L511 437L511 281L247 281L247 156L556 156L556 0M473 931Q471 849 423 811.50Q375 774 309 774Q243 774 195 811.50Q147 849 145 931L251 931Q255 884 309 884Q363 884 367 931L473 931Z"  horiz-adv-x="608" vert-adv-y="1000"  />

      
      <glyph glyph-name="uni0115" unicode="&#x0115;" d="M521 216L199 216Q199 181 224.50 156.50Q250 132 294 132Q334 132 357.50 142.50Q381 153 405 177L503 79Q459 35 412 14.50Q365-6 294-6Q38-6 38 269Q38 398 104.50 471Q171 544 279 544Q393 544 457 471.50Q521 399 521 284L521 216M359 325Q359 348 350 367Q331 409 279 409Q227 409 208 367Q199 348 199 325L359 325M447 759Q445 677 397 639.50Q349 602 283 602Q217 602 169 639.50Q121 677 119 759L225 759Q229 712 283 712Q337 712 341 759L447 759Z"  horiz-adv-x="559" vert-adv-y="1000"  />

      
      <glyph glyph-name="uni0116" unicode="&#x0116;" d="M556 0L72 0L72 712L556 712L556 556L247 556L247 437L511 437L511 281L247 281L247 156L556 156L556 0M373 785L235 785L235 923L373 923L373 785Z"  horiz-adv-x="608" vert-adv-y="1000"  />

      
      <glyph glyph-name="uni0117" unicode="&#x0117;" d="M521 216L199 216Q199 181 224.50 156.50Q250 132 294 132Q334 132 357.50 142.50Q381 153 405 177L503 79Q459 35 412 14.50Q365-6 294-6Q38-6 38 269Q38 398 104.50 471Q171 544 279 544Q393 544 457 471.50Q521 399 521 284L521 216M359 325Q359 348 350 367Q331 409 279 409Q227 409 208 367Q199 348 199 325L359 325M352 613L214 613L214 751L352 751L352 613Z"  horiz-adv-x="559" vert-adv-y="1000"  />

      
      <glyph glyph-name="uni0118" unicode="&#x0118;" d="M556 0L72 0L72 712L556 712L556 556L247 556L247 437L511 437L511 281L247 281L247 156L556 156L556 0M556-56L520-200L374-200L441-56L556-56Z"  horiz-adv-x="608" vert-adv-y="1000"  />

      
      <glyph glyph-name="uni0119" unicode="&#x0119;" d="M521 216L199 216Q199 181 224.50 156.50Q250 132 294 132Q334 132 357.50 142.50Q381 153 405 177L503 79Q459 35 412 14.50Q365-6 294-6Q38-6 38 269Q38 398 104.50 471Q171 544 279 544Q393 544 457 471.50Q521 399 521 284L521 216M359 325Q359 348 350 367Q331 409 279 409Q227 409 208 367Q199 348 199 325L359 325M430-56L394-200L248-200L315-56L430-56Z"  horiz-adv-x="559" vert-adv-y="1000"  />

      
      <glyph glyph-name="uni011A" unicode="&#x011A;" d="M556 0L72 0L72 712L556 712L556 556L247 556L247 437L511 437L511 281L247 281L247 156L556 156L556 0M505 961L369 782L239 782L103 961L225 961L304 878L383 961L505 961Z"  horiz-adv-x="608" vert-adv-y="1000"  />

      
      <glyph glyph-name="uni011B" unicode="&#x011B;" d="M521 216L199 216Q199 181 224.50 156.50Q250 132 294 132Q334 132 357.50 142.50Q381 153 405 177L503 79Q459 35 412 14.50Q365-6 294-6Q38-6 38 269Q38 398 104.50 471Q171 544 279 544Q393 544 457 471.50Q521 399 521 284L521 216M359 325Q359 348 350 367Q331 409 279 409Q227 409 208 367Q199 348 199 325L359 325M481 789L345 610L215 610L79 789L201 789L280 706L359 789L481 789Z"  horiz-adv-x="559" vert-adv-y="1000"  />

      
      <glyph glyph-name="uni011C" unicode="&#x011C;" d="M598 311Q598 223 582 169Q566 115 526 74Q449-6 319-6Q200-6 122 72Q96 98 80 128Q64 158 58 199Q52 240 50.50 269Q49 298 49 356Q49 414 50.50 443Q52 472 58 513Q64 554 80 584Q96 614 122 640Q200 718 319 718Q446 718 514 650Q582 582 597 482L421 482Q410 524 386.50 543Q363 562 319 562Q274 562 250 531Q236 513 230 479.50Q224 446 224 356Q224 266 230 232Q236 198 250 180Q273 150 319 150Q371 150 397 178Q424 205 424 254L424 264L319 264L319 410L598 410L598 311M520 782L398 782L319 865L240 782L118 782L254 961L384 961L520 782Z"  horiz-adv-x="647" vert-adv-y="1000"  />

      
      <glyph glyph-name="uni011D" unicode="&#x011D;" d="M499 39Q499-57 432-118.50Q365-180 256-180Q189-180 141-164.50Q93-149 54-110L156-8Q190-42 248-42Q295-42 315-17Q335 8 335 40L335 79Q290 34 219 34Q141 34 93 82Q59 116 51 159Q43 202 43 289Q43 376 51 419Q59 462 93 496Q141 544 220 544Q290 544 340 494L340 538L499 538L499 39M333.50 248.50Q333.50 248.50 334.25 256.25Q335 264 335 289Q335 314 333.50 329.50Q332 345 326 362Q320 379 306.50 387.50Q293 396 271 396Q249 396 235.50 387.50Q222 379 216 362Q210 345 208.50 329.50Q207 314 207 289Q207 264 208.50 248.50Q210 233 216 216Q222 199 235.50 190.50Q249 182 271 182Q293 182 306.50 190.50Q320 199 326 216Q332 233 333.50 248.50M472 610L350 610L271 693L192 610L70 610L206 789L336 789L472 610Z"  horiz-adv-x="561" vert-adv-y="1000"  />

      
      <glyph glyph-name="uni011E" unicode="&#x011E;" d="M598 311Q598 223 582 169Q566 115 526 74Q449-6 319-6Q200-6 122 72Q96 98 80 128Q64 158 58 199Q52 240 50.50 269Q49 298 49 356Q49 414 50.50 443Q52 472 58 513Q64 554 80 584Q96 614 122 640Q200 718 319 718Q446 718 514 650Q582 582 597 482L421 482Q410 524 386.50 543Q363 562 319 562Q274 562 250 531Q236 513 230 479.50Q224 446 224 356Q224 266 230 232Q236 198 250 180Q273 150 319 150Q371 150 397 178Q424 205 424 254L424 264L319 264L319 410L598 410L598 311M483 931Q481 849 433 811.50Q385 774 319 774Q253 774 205 811.50Q157 849 155 931L261 931Q265 884 319 884Q373 884 377 931L483 931Z"  horiz-adv-x="647" vert-adv-y="1000"  />

      
      <glyph glyph-name="uni011F" unicode="&#x011F;" d="M499 39Q499-57 432-118.50Q365-180 256-180Q189-180 141-164.50Q93-149 54-110L156-8Q190-42 248-42Q295-42 315-17Q335 8 335 40L335 79Q290 34 219 34Q141 34 93 82Q59 116 51 159Q43 202 43 289Q43 376 51 419Q59 462 93 496Q141 544 220 544Q290 544 340 494L340 538L499 538L499 39M333.50 248.50Q333.50 248.50 334.25 256.25Q335 264 335 289Q335 314 333.50 329.50Q332 345 326 362Q320 379 306.50 387.50Q293 396 271 396Q249 396 235.50 387.50Q222 379 216 362Q210 345 208.50 329.50Q207 314 207 289Q207 264 208.50 248.50Q210 233 216 216Q222 199 235.50 190.50Q249 182 271 182Q293 182 306.50 190.50Q320 199 326 216Q332 233 333.50 248.50M435 759Q433 677 385 639.50Q337 602 271 602Q205 602 157 639.50Q109 677 107 759L213 759Q217 712 271 712Q325 712 329 759L435 759Z"  horiz-adv-x="561" vert-adv-y="1000"  />

      
      <glyph glyph-name="uni0120" unicode="&#x0120;" d="M598 311Q598 223 582 169Q566 115 526 74Q449-6 319-6Q200-6 122 72Q96 98 80 128Q64 158 58 199Q52 240 50.50 269Q49 298 49 356Q49 414 50.50 443Q52 472 58 513Q64 554 80 584Q96 614 122 640Q200 718 319 718Q446 718 514 650Q582 582 597 482L421 482Q410 524 386.50 543Q363 562 319 562Q274 562 250 531Q236 513 230 479.50Q224 446 224 356Q224 266 230 232Q236 198 250 180Q273 150 319 150Q371 150 397 178Q424 205 424 254L424 264L319 264L319 410L598 410L598 311M388 785L250 785L250 923L388 923L388 785Z"  horiz-adv-x="647" vert-adv-y="1000"  />

      
      <glyph glyph-name="uni0121" unicode="&#x0121;" d="M499 39Q499-57 432-118.50Q365-180 256-180Q189-180 141-164.50Q93-149 54-110L156-8Q190-42 248-42Q295-42 315-17Q335 8 335 40L335 79Q290 34 219 34Q141 34 93 82Q59 116 51 159Q43 202 43 289Q43 376 51 419Q59 462 93 496Q141 544 220 544Q290 544 340 494L340 538L499 538L499 39M333.50 248.50Q333.50 248.50 334.25 256.25Q335 264 335 289Q335 314 333.50 329.50Q332 345 326 362Q320 379 306.50 387.50Q293 396 271 396Q249 396 235.50 387.50Q222 379 216 362Q210 345 208.50 329.50Q207 314 207 289Q207 264 208.50 248.50Q210 233 216 216Q222 199 235.50 190.50Q249 182 271 182Q293 182 306.50 190.50Q320 199 326 216Q332 233 333.50 248.50M340 613L202 613L202 751L340 751L340 613Z"  horiz-adv-x="561" vert-adv-y="1000"  />

      
      <glyph glyph-name="uni0122" unicode="&#x0122;" d="M598 311Q598 223 582 169Q566 115 526 74Q449-6 319-6Q200-6 122 72Q96 98 80 128Q64 158 58 199Q52 240 50.50 269Q49 298 49 356Q49 414 50.50 443Q52 472 58 513Q64 554 80 584Q96 614 122 640Q200 718 319 718Q446 718 514 650Q582 582 597 482L421 482Q410 524 386.50 543Q363 562 319 562Q274 562 250 531Q236 513 230 479.50Q224 446 224 356Q224 266 230 232Q236 198 250 180Q273 150 319 150Q371 150 397 178Q424 205 424 254L424 264L319 264L319 410L598 410L598 311M406-53L370-197L224-197L291-53L406-53Z"  horiz-adv-x="647" vert-adv-y="1000"  />

      
      <glyph glyph-name="uni0123" unicode="&#x0123;" d="M499 39Q499-57 432-118.50Q365-180 256-180Q189-180 141-164.50Q93-149 54-110L156-8Q190-42 248-42Q295-42 315-17Q335 8 335 40L335 79Q290 34 219 34Q141 34 93 82Q59 116 51 159Q43 202 43 289Q43 376 51 419Q59 462 93 496Q141 544 220 544Q290 544 340 494L340 538L499 538L499 39M333.50 248.50Q333.50 248.50 334.25 256.25Q335 264 335 289Q335 314 333.50 329.50Q332 345 326 362Q320 379 306.50 387.50Q293 396 271 396Q249 396 235.50 387.50Q222 379 216 362Q210 345 208.50 329.50Q207 314 207 289Q207 264 208.50 248.50Q210 233 216 216Q222 199 235.50 190.50Q249 182 271 182Q293 182 306.50 190.50Q320 199 326 216Q332 233 333.50 248.50M439 790L321 610L222 610L271 790L439 790Z"  horiz-adv-x="561" vert-adv-y="1000"  />

      
      <glyph glyph-name="uni0124" unicode="&#x0124;" d="M608 0L433 0L433 282L247 282L247 0L72 0L72 712L247 712L247 438L433 438L433 712L608 712L608 0M541 782L419 782L340 865L261 782L139 782L275 961L405 961L541 782Z"  horiz-adv-x="680" vert-adv-y="1000"  />

      
      <glyph glyph-name="uni0125" unicode="&#x0125;" d="M522 0L358 0L358 322Q358 363 337 379.50Q316 396 292 396Q268 396 247 379.50Q226 363 226 322L226 0L62 0L62 712L226 712L226 494Q274 544 347 544Q422 544 468 498Q522 444 522 344L522 0M345 782L223 782L144 865L65 782L-57 782L79 961L209 961L345 782Z"  horiz-adv-x="579" vert-adv-y="1000"  />

      
      <glyph glyph-name="uni0126" unicode="&#x0126;" d="M636 0L461 0L461 282L275 282L275 0L100 0L100 504L35 504L35 638L100 638L100 712L275 712L275 638L461 638L461 712L636 712L636 638L703 638L703 504L636 504L636 0M461 438L461 504L275 504L275 438L461 438Z"  horiz-adv-x="738" vert-adv-y="1000"  />

      
      <glyph glyph-name="uni0127" unicode="&#x0127;" d="M550 0L386 0L386 322Q386 363 365 379.50Q344 396 320 396Q296 396 275 379.50Q254 363 254 322L254 0L90 0L90 564L46 564L46 666L90 666L90 712L254 712L254 666L317 666L317 564L254 564L254 494Q302 544 375 544Q450 544 496 498Q550 444 550 344L550 0Z"  horiz-adv-x="607" vert-adv-y="1000"  />

      
      <glyph glyph-name="uni0128" unicode="&#x0128;" d="M247 0L72 0L72 712L247 712L247 0M354 851Q320 817 292.50 802.50Q265 788 231 788Q187 788 150 810Q121 827 94 827Q63 827 36 800L-32 869Q2 903 29 917.50Q56 932 90 932Q134 932 171 910Q200 893 226 893Q257 893 284 920L354 851Z"  horiz-adv-x="319" vert-adv-y="1000"  />

      
      <glyph glyph-name="uni0129" unicode="&#x0129;" d="M226 0L62 0L62 517L226 517L226 0M339 679Q305 645 277.50 630.50Q250 616 216 616Q172 616 135 638Q106 655 79 655Q48 655 21 628L-47 697Q-13 731 14 745.50Q41 760 75 760Q119 760 156 738Q185 721 211 721Q242 721 269 748L339 679Z"  horiz-adv-x="288" vert-adv-y="1000"  />

      
      <glyph glyph-name="uni012A" unicode="&#x012A;" d="M247 0L72 0L72 712L247 712L247 0M323 791L-3 791L-3 896L323 896L323 791Z"  horiz-adv-x="319" vert-adv-y="1000"  />

      
      <glyph glyph-name="uni012B" unicode="&#x012B;" d="M226 0L62 0L62 517L226 517L226 0M307 629L-19 629L-19 734L307 734L307 629Z"  horiz-adv-x="288" vert-adv-y="1000"  />

      
      <glyph glyph-name="uni012C" unicode="&#x012C;" d="M247 0L72 0L72 712L247 712L247 0M325 931Q323 849 275 811.50Q227 774 161 774Q95 774 47 811.50Q-1 849-3 931L103 931Q107 884 161 884Q215 884 219 931L325 931Z"  horiz-adv-x="319" vert-adv-y="1000"  />

      
      <glyph glyph-name="uni012D" unicode="&#x012D;" d="M226 0L62 0L62 517L226 517L226 0M310 759Q308 677 260 639.50Q212 602 146 602Q80 602 32 639.50Q-16 677-18 759L88 759Q92 712 146 712Q200 712 204 759L310 759Z"  horiz-adv-x="288" vert-adv-y="1000"  />

      
      <glyph glyph-name="uni012E" unicode="&#x012E;" d="M247 0L72 0L72 712L247 712L247 0M187-56L151-200L5-200L72-56L187-56Z"  horiz-adv-x="319" vert-adv-y="1000"  />

      
      <glyph glyph-name="uni012F" unicode="&#x012F;" d="M226 0L62 0L62 517L226 517L226 0M226 593L62 593L62 718L226 718L226 593M177-56L141-200L-5-200L62-56L177-56Z"  horiz-adv-x="288" vert-adv-y="1000"  />

      
      <glyph glyph-name="uni0130" unicode="&#x0130;" d="M247 0L72 0L72 712L247 712L247 0M228 785L90 785L90 923L228 923L228 785Z"  horiz-adv-x="319" vert-adv-y="1000"  />

      
      <glyph glyph-name="uni0131" unicode="&#x0131;" d="M226 0L62 0L62 517L226 517L226 0Z"  horiz-adv-x="288" vert-adv-y="1000"  />

      
      <glyph glyph-name="uni0132" unicode="&#x0132;" d="M247 0L72 0L72 712L247 712L247 0M773 244Q773 125 693.50 59.50Q614-6 505-6Q442-6 398 11.50Q354 29 311 72L426 186Q462 150 505 150Q548 150 573 174.50Q598 199 598 248L598 712L773 712L773 244Z"  horiz-adv-x="835" vert-adv-y="1000"  />

      
      <glyph glyph-name="uni0133" unicode="&#x0133;" d="M226 0L62 0L62 517L226 517L226 0M226 593L62 593L62 718L226 718L226 593M514-21Q514-84 472-132Q430-180 347-180L260-180L260-42L317-42Q350-42 350-9L350 517L514 517L514-21M514 593L350 593L350 718L514 718L514 593Z"  horiz-adv-x="576" vert-adv-y="1000"  />

      
      <glyph glyph-name="uni0134" unicode="&#x0134;" d="M454 244Q454 125 374.50 59.50Q295-6 186-6Q123-6 79 11.50Q35 29-8 72L107 186Q143 150 186 150Q229 150 254 174.50Q279 199 279 248L279 712L454 712L454 244M567 782L445 782L366 865L287 782L165 782L301 961L431 961L567 782Z"  horiz-adv-x="516" vert-adv-y="1000"  />

      
      <glyph glyph-name="uni0135" unicode="&#x0135;" d="M226-21Q226-84 184-132Q142-180 59-180L-28-180L-28-42L29-42Q62-42 62-9L62 517L226 517L226-21M345 610L223 610L144 693L65 610L-57 610L79 789L209 789L345 610Z"  horiz-adv-x="288" vert-adv-y="1000"  />

      
      <glyph glyph-name="uni0136" unicode="&#x0136;" d="M673 0L469 0L305 292L245 223L245 0L72 0L72 712L245 712L245 460L451 712L665 712L422 424L673 0M419-53L383-197L237-197L304-53L419-53Z"  horiz-adv-x="673" vert-adv-y="1000"  />

      
      <glyph glyph-name="uni0137" unicode="&#x0137;" d="M573 0L370 0L258 197L226 162L226 0L62 0L62 712L226 712L226 350L371 538L568 538L370 315L573 0M369-53L333-197L187-197L254-53L369-53Z"  horiz-adv-x="573" vert-adv-y="1000"  />

      
      <glyph glyph-name="uni0138" unicode="&#x0138;" d="M573 0L370 0L258 197L226 162L226 0L62 0L62 538L226 538L226 350L371 538L568 538L370 315L573 0Z"  horiz-adv-x="573" vert-adv-y="1000"  />

      
      <glyph glyph-name="uni0139" unicode="&#x0139;" d="M546 0L72 0L72 712L247 712L247 156L546 156L546 0M310 962L209 782L92 782L157 962L310 962Z"  horiz-adv-x="576" vert-adv-y="1000"  />

      
      <glyph glyph-name="uni013A" unicode="&#x013A;" d="M311 0L224 0Q141 0 99 48Q57 96 57 159L57 712L221 712L221 171Q221 138 254 138L311 138L311 0M275 962L174 782L57 782L122 962L275 962Z"  horiz-adv-x="341" vert-adv-y="1000"  />

      
      <glyph glyph-name="uni013B" unicode="&#x013B;" d="M546 0L72 0L72 712L247 712L247 156L546 156L546 0M371-53L335-197L189-197L256-53L371-53Z"  horiz-adv-x="576" vert-adv-y="1000"  />

      
      <glyph glyph-name="uni013C" unicode="&#x013C;" d="M311 0L224 0Q141 0 99 48Q57 96 57 159L57 712L221 712L221 171Q221 138 254 138L311 138L311 0M254-53L218-197L72-197L139-53L254-53Z"  horiz-adv-x="341" vert-adv-y="1000"  />

      
      <glyph glyph-name="uni013D" unicode="&#x013D;" d="M546 0L72 0L72 712L247 712L247 156L546 156L546 0M504 712L440 539L330 539L364 712L504 712Z"  horiz-adv-x="576" vert-adv-y="1000"  />

      
      <glyph glyph-name="uni013E" unicode="&#x013E;" d="M311 0L224 0Q141 0 99 48Q57 96 57 159L57 712L221 712L221 171Q221 138 254 138L311 138L311 0M453 753L389 580L279 580L313 753L453 753Z"  horiz-adv-x="341" vert-adv-y="1000"  />

      
      <glyph glyph-name="uni013F" unicode="&#x013F;" d="M546 0L72 0L72 712L247 712L247 156L546 156L546 0M512 289L374 289L374 427L512 427L512 289Z"  horiz-adv-x="576" vert-adv-y="1000"  />

      
      <glyph glyph-name="uni0140" unicode="&#x0140;" d="M311 0L224 0Q141 0 99 48Q57 96 57 159L57 712L221 712L221 171Q221 138 254 138L311 138L311 0M440 224L302 224L302 362L440 362L440 224Z"  horiz-adv-x="463" vert-adv-y="1000"  />

      
      <glyph glyph-name="uni0141" unicode="&#x0141;" d="M569 0L95 0L95 217L35 179L35 325L95 363L95 712L270 712L270 473L383 544L383 399L270 328L270 156L569 156L569 0Z"  horiz-adv-x="599" vert-adv-y="1000"  />

      
      <glyph glyph-name="uni0142" unicode="&#x0142;" d="M328 0L241 0Q158 0 116 48Q74 96 74 159L74 279L25 249L25 386L74 416L74 712L238 712L238 514L287 544L287 407L238 377L238 171Q238 138 271 138L328 138L328 0Z"  horiz-adv-x="348" vert-adv-y="1000"  />

      
      <glyph glyph-name="uni0143" unicode="&#x0143;" d="M628 0L475 0L247 358L247 0L72 0L72 712L225 712L453 354L453 712L628 712L628 0M501 962L400 782L283 782L348 962L501 962Z"  horiz-adv-x="700" vert-adv-y="1000"  />

      
      <glyph glyph-name="uni0144" unicode="&#x0144;" d="M522 0L358 0L358 322Q358 363 337 379.50Q316 396 292 396Q268 396 247 379.50Q226 363 226 322L226 0L62 0L62 538L222 538L222 494Q272 544 347 544Q422 544 468 498Q522 444 522 344L522 0M439 790L338 610L221 610L286 790L439 790Z"  horiz-adv-x="579" vert-adv-y="1000"  />

      
      <glyph glyph-name="uni0145" unicode="&#x0145;" d="M628 0L475 0L247 358L247 0L72 0L72 712L225 712L453 354L453 712L628 712L628 0M433-53L397-197L251-197L318-53L433-53Z"  horiz-adv-x="700" vert-adv-y="1000"  />

      
      <glyph glyph-name="uni0146" unicode="&#x0146;" d="M522 0L358 0L358 322Q358 363 337 379.50Q316 396 292 396Q268 396 247 379.50Q226 363 226 322L226 0L62 0L62 538L222 538L222 494Q272 544 347 544Q422 544 468 498Q522 444 522 344L522 0M372-53L336-197L190-197L257-53L372-53Z"  horiz-adv-x="579" vert-adv-y="1000"  />

      
      <glyph glyph-name="uni0147" unicode="&#x0147;" d="M628 0L475 0L247 358L247 0L72 0L72 712L225 712L453 354L453 712L628 712L628 0M551 961L415 782L285 782L149 961L271 961L350 878L429 961L551 961Z"  horiz-adv-x="700" vert-adv-y="1000"  />

      
      <glyph glyph-name="uni0148" unicode="&#x0148;" d="M522 0L358 0L358 322Q358 363 337 379.50Q316 396 292 396Q268 396 247 379.50Q226 363 226 322L226 0L62 0L62 538L222 538L222 494Q272 544 347 544Q422 544 468 498Q522 444 522 344L522 0M493 789L357 610L227 610L91 789L213 789L292 706L371 789L493 789Z"  horiz-adv-x="579" vert-adv-y="1000"  />

      
      <glyph glyph-name="uni0149" unicode="&#x0149;" d="M522 0L358 0L358 322Q358 363 337 379.50Q316 396 292 396Q268 396 247 379.50Q226 363 226 322L226 0L62 0L62 538L222 538L222 494Q272 544 347 544Q422 544 468 498Q522 444 522 344L522 0M61 639L-78 538L-78 753L61 753L61 639Z"  horiz-adv-x="579" vert-adv-y="1000"  />

      
      <glyph glyph-name="uni014A" unicode="&#x014A;" d="M628-41Q628-104 586-152Q544-200 461-200L374-200L374-62L420-62Q453-62 453-29L453 34L247 358L247 0L72 0L72 712L225 712L453 354L453 712L628 712L628-41Z"  horiz-adv-x="700" vert-adv-y="1000"  />

      
      <glyph glyph-name="uni014B" unicode="&#x014B;" d="M522-38Q522-101 480-149Q438-197 355-197L268-197L268-59L325-59Q358-59 358-26L358 322Q358 363 337 379.50Q316 396 292 396Q268 396 247 379.50Q226 363 226 322L226 0L62 0L62 538L222 538L222 494Q272 544 347 544Q422 544 468 498Q522 444 522 344L522-38Z"  horiz-adv-x="579" vert-adv-y="1000"  />

      
      <glyph glyph-name="uni014C" unicode="&#x014C;" d="M589.50 443Q589.50 443 590.25 428.50Q591 414 591 356Q591 298 589.50 269Q588 240 582 199Q576 158 560 128Q544 98 518 72Q440-6 320-6Q200-6 122 72Q96 98 80 128Q64 158 58 199Q52 240 50.50 269Q49 298 49 356Q49 414 50.50 443Q52 472 58 513Q64 554 80 584Q96 614 122 640Q200 718 320 718Q440 718 518 640Q544 614 560 584Q576 554 582 513Q588 472 589.50 443M410 233Q410 233 413 249.50Q416 266 416 356Q416 446 410 479.50Q404 513 390 531Q366 562 320 562Q274 562 250 531Q236 513 230 479.50Q224 446 224 356Q224 266 230 233Q236 200 250 182Q274 150 320 150Q366 150 390 182Q404 200 410 233M483 791L157 791L157 896L483 896L483 791Z"  horiz-adv-x="640" vert-adv-y="1000"  />

      
      <glyph glyph-name="uni014D" unicode="&#x014D;" d="M507 269Q507 189 494.50 144.50Q482 100 448 63Q383-6 275-6Q167-6 102 63Q68 100 55.50 144.50Q43 189 43 269Q43 348 56 393.50Q69 439 102 475Q167 544 275 544Q383 544 448 475Q481 439 494 393.50Q507 348 507 269M319 157Q343 181 343 269Q343 357 319 381Q304 396 275 396Q246 396 231 381Q207 357 207 269Q207 181 231 157Q246 142 275 142Q304 142 319 157M438 629L112 629L112 734L438 734L438 629Z"  horiz-adv-x="550" vert-adv-y="1000"  />

      
      <glyph glyph-name="uni014E" unicode="&#x014E;" d="M589.50 443Q589.50 443 590.25 428.50Q591 414 591 356Q591 298 589.50 269Q588 240 582 199Q576 158 560 128Q544 98 518 72Q440-6 320-6Q200-6 122 72Q96 98 80 128Q64 158 58 199Q52 240 50.50 269Q49 298 49 356Q49 414 50.50 443Q52 472 58 513Q64 554 80 584Q96 614 122 640Q200 718 320 718Q440 718 518 640Q544 614 560 584Q576 554 582 513Q588 472 589.50 443M410 233Q410 233 413 249.50Q416 266 416 356Q416 446 410 479.50Q404 513 390 531Q366 562 320 562Q274 562 250 531Q236 513 230 479.50Q224 446 224 356Q224 266 230 233Q236 200 250 182Q274 150 320 150Q366 150 390 182Q404 200 410 233M485 931Q483 849 435 811.50Q387 774 321 774Q255 774 207 811.50Q159 849 157 931L263 931Q267 884 321 884Q375 884 379 931L485 931Z"  horiz-adv-x="640" vert-adv-y="1000"  />

      
      <glyph glyph-name="uni014F" unicode="&#x014F;" d="M507 269Q507 189 494.50 144.50Q482 100 448 63Q383-6 275-6Q167-6 102 63Q68 100 55.50 144.50Q43 189 43 269Q43 348 56 393.50Q69 439 102 475Q167 544 275 544Q383 544 448 475Q481 439 494 393.50Q507 348 507 269M319 157Q343 181 343 269Q343 357 319 381Q304 396 275 396Q246 396 231 381Q207 357 207 269Q207 181 231 157Q246 142 275 142Q304 142 319 157M439 759Q437 677 389 639.50Q341 602 275 602Q209 602 161 639.50Q113 677 111 759L217 759Q221 712 275 712Q329 712 333 759L439 759Z"  horiz-adv-x="550" vert-adv-y="1000"  />

      
      <glyph glyph-name="uni0150" unicode="&#x0150;" d="M589.50 443Q589.50 443 590.25 428.50Q591 414 591 356Q591 298 589.50 269Q588 240 582 199Q576 158 560 128Q544 98 518 72Q440-6 320-6Q200-6 122 72Q96 98 80 128Q64 158 58 199Q52 240 50.50 269Q49 298 49 356Q49 414 50.50 443Q52 472 58 513Q64 554 80 584Q96 614 122 640Q200 718 320 718Q440 718 518 640Q544 614 560 584Q576 554 582 513Q588 472 589.50 443M410 233Q410 233 413 249.50Q416 266 416 356Q416 446 410 479.50Q404 513 390 531Q366 562 320 562Q274 562 250 531Q236 513 230 479.50Q224 446 224 356Q224 266 230 233Q236 200 250 182Q274 150 320 150Q366 150 390 182Q404 200 410 233M574 962L473 782L356 782L421 962L574 962M349 962L248 782L131 782L196 962L349 962Z"  horiz-adv-x="640" vert-adv-y="1000"  />

      
      <glyph glyph-name="uni0151" unicode="&#x0151;" d="M507 269Q507 189 494.50 144.50Q482 100 448 63Q383-6 275-6Q167-6 102 63Q68 100 55.50 144.50Q43 189 43 269Q43 348 56 393.50Q69 439 102 475Q167 544 275 544Q383 544 448 475Q481 439 494 393.50Q507 348 507 269M319 157Q343 181 343 269Q343 357 319 381Q304 396 275 396Q246 396 231 381Q207 357 207 269Q207 181 231 157Q246 142 275 142Q304 142 319 157M528 790L427 610L310 610L375 790L528 790M303 790L202 610L85 610L150 790L303 790Z"  horiz-adv-x="550" vert-adv-y="1000"  />

      
      <glyph glyph-name="uni0152" unicode="&#x0152;" d="M900 0L416 0L416 26Q382-6 314-6Q250-6 205.50 12Q161 30 121 70Q95 96 79.50 127.50Q64 159 58 201.50Q52 244 50.50 273Q49 302 49 356Q49 410 50.50 439Q52 468 58 510.50Q64 553 79.50 584.50Q95 616 121 642Q161 682 206 700Q251 718 315 718Q382 718 416 686L416 712L900 712L900 556L591 556L591 437L855 437L855 281L591 281L591 156L900 156L900 0M410 233Q410 233 413 249.50Q416 266 416 356Q416 446 410 479.50Q404 513 390 531Q366 562 320 562Q274 562 250 531Q236 513 230 479.50Q224 446 224 356Q224 266 230 233Q236 200 250 182Q274 150 320 150Q366 150 390 182Q404 200 410 233Z"  horiz-adv-x="952" vert-adv-y="1000"  />

      
      <glyph glyph-name="uni0153" unicode="&#x0153;" d="M826 216L504 216Q504 181 529.50 156.50Q555 132 599 132Q639 132 662.50 142.50Q686 153 710 177L808 79Q764 35 717 14.50Q670-6 599-6Q490-6 428 44Q367-6 275-6Q167-6 102 63Q68 100 55.50 144.50Q43 189 43 269Q43 348 56 393.50Q69 439 102 475Q167 544 275 544Q369 544 431 491Q492 544 584 544Q697 544 761.50 471.50Q826 399 826 289L826 216M319 157Q343 181 343 269Q343 357 319 381Q304 396 275 396Q246 396 231 381Q207 357 207 269Q207 181 231 157Q246 142 275 142Q304 142 319 157M664 325Q664 349 655 367Q637 409 584 409Q531 409 513 367Q504 349 504 325L664 325Z"  horiz-adv-x="864" vert-adv-y="1000"  />

      
      <glyph glyph-name="uni0154" unicode="&#x0154;" d="M635 0L432 0L306 265L247 265L247 0L72 0L72 712L354 712Q467 712 532 644.50Q597 577 597 483Q597 416 563 368.50Q529 321 481 297L635 0M401 432.50Q401 432.50 411.50 443.25Q422 454 422 483Q422 512 401 533.50Q380 555 346 555L247 555L247 411L346 411Q380 411 401 432.50M477 962L376 782L259 782L324 962L477 962Z"  horiz-adv-x="652" vert-adv-y="1000"  />

      
      <glyph glyph-name="uni0155" unicode="&#x0155;" d="M475 494L351 368Q323 396 292 396Q269 396 247.50 379Q226 362 226 322L226 0L62 0L62 538L222 538L222 494Q272 544 349 544Q425 544 475 494M390 790L289 610L172 610L237 790L390 790Z"  horiz-adv-x="475" vert-adv-y="1000"  />

      
      </font>
</defs>
</svg>
