<?xml version="1.0" standalone="no"?>
  <!DOCTYPE svg PUBLIC "-//W3C//DTD SVG 1.1//EN" "http://www.w3.org/Graphics/SVG/1.1/DTD/svg11.dtd" >
  <svg>
  <metadata>
  Created by font-carrier
  </metadata>
  <defs>
  <font id="DINPro-MediumItalic" horiz-adv-x="1167" vert-adv-y="1167" >
    <font-face
      
      font-family="DIN Pro Medium"
      
      font-weight="400"
      
      font-stretch="normal"
      
      units-per-em="1000"
      
      ascent="992"
      
      descent="-211"
      
    />
      <missing-glyph />

      

      
      <glyph glyph-name="uni21" unicode="&#x21;" d="M323 712L203 209L127 209L206 712L323 712M201 109L179 0L72 0L94 109L201 109Z"  horiz-adv-x="315" vert-adv-y="1000"  />

      
      <glyph glyph-name="uni22" unicode="&#x22;" d="M440 712L402 521L306 521L345 712L440 712M262 712L224 521L128 521L167 712L262 712Z"  horiz-adv-x="422" vert-adv-y="1000"  />

      
      <glyph glyph-name="uni23" unicode="&#x23;" d="M652 518L634 430L547 430L501 298L580 298L562 210L470 210L397 0L294 0L368 210L235 210L161 0L59 0L132 210L57 210L75 298L163 298L210 430L129 430L147 518L240 518L309 716L412 716L342 518L476 518L544 716L647 716L578 518L652 518M445 430L312 430L265 298L398 298L445 430Z"  horiz-adv-x="646" vert-adv-y="1000"  />

      
      <glyph glyph-name="uni24" unicode="&#x24;" d="M584 633L511 570Q467 623 392 627L349 402L375 396Q457 377 494.50 334.50Q532 292 532 221Q532 166 510.50 122.50Q489 79 452.50 52.50Q416 26 372.50 11.50Q329-3 281-6L260-114L183-114L204-4Q138 0 92 22.50Q46 45 6 93L81 159Q138 90 229 86L273 317L245 324Q101 361 101 485Q101 575 163.50 643Q226 711 340 718L357 806L434 806L417 716Q522 707 584 633M429 210Q429 256 405 276Q381 296 331 306L290 85Q351 93 390 127Q429 161 429 210M332 628Q275 621 239 583.50Q203 546 203 496Q203 433 291 413L332 628Z"  horiz-adv-x="581" vert-adv-y="1000"  />

      
      <glyph glyph-name="uni25" unicode="&#x25;" d="M750 260Q750 244 746 224L727 129Q700-6 574-6Q526-6 492 20.50Q458 47 458 101Q458 117 462 137L481 232Q508 367 634 367Q682 367 716 340.50Q750 314 750 260M677 252Q677 303 626 303Q567 303 553 232L534 137Q531 122 531 109Q531 58 582 58Q641 58 655 129L674 224Q677 239 677 252M695 712L235 0L155 0L615 712L695 712M391 611Q391 595 387 575L368 480Q341 345 215 345Q167 345 133 371.50Q99 398 99 452Q99 468 103 488L122 583Q149 718 275 718Q323 718 357 691.50Q391 665 391 611M318 603Q318 654 267 654Q208 654 194 583L175 488Q172 473 172 460Q172 409 223 409Q282 409 296 480L315 575Q318 590 318 603Z"  horiz-adv-x="808" vert-adv-y="1000"  />

      
      <glyph glyph-name="uni26" unicode="&#x26;" d="M627 356Q603 223 517 137L605 0L486 0L443 70Q354-6 240-6Q159-6 105 37.50Q51 81 51 167Q51 252 96 305.50Q141 359 232 414Q187 488 187 542Q187 610 233 664Q279 718 375 718Q453 718 486.50 675.50Q520 633 520 579Q520 492 418 429L361 393L468 214Q516 266 533 356L627 356M396 144L274 343Q211 305 180.50 268Q150 231 150 179Q150 136 177 108.50Q204 81 249 81Q326 81 396 144M426 576Q426 604 410 619.50Q394 635 369 635Q330 635 308 607.50Q286 580 286 542Q286 510 318 459L355 482Q390 504 408 525Q426 546 426 576Z"  horiz-adv-x="697" vert-adv-y="1000"  />

      
      <glyph glyph-name="uni27" unicode="&#x27;" d="M262 712L224 521L128 521L167 712L262 712Z"  horiz-adv-x="244" vert-adv-y="1000"  />

      
      <glyph glyph-name="uni28" unicode="&#x28;" d="M341 734Q295 695 278 672Q258 645 248 596L154 130Q147 93 147 71Q147 26 194-29L120-94Q50-11 50 60Q50 86 59 134L152 602Q168 677 194 714Q219 751 286 806L341 734Z"  horiz-adv-x="301" vert-adv-y="1000"  />

      
      <glyph glyph-name="uni29" unicode="&#x29;" d="M292 652Q292 626 283 578L190 110Q174 35 148-2Q123-39 56-94L1-22Q47 17 64 40Q84 67 94 116L188 582Q195 619 195 641Q195 687 149 741L222 806Q292 723 292 652Z"  horiz-adv-x="301" vert-adv-y="1000"  />

      
      <glyph glyph-name="uni2a" unicode="&#x2a;" d="M467 552L347 515L443 436L397 383L306 469L285 345L216 359L245 481L128 437L105 503L225 539L128 619L175 672L266 586L286 710L355 696L327 574L444 618L467 552Z"  horiz-adv-x="461" vert-adv-y="1000"  />

      
      <glyph glyph-name="uni2b" unicode="&#x2b;" d="M472 322L454 232L295 232L261 62L170 62L204 232L45 232L63 322L222 322L256 493L347 493L313 322L472 322Z"  horiz-adv-x="506" vert-adv-y="1000"  />

      
      <glyph glyph-name="uni2c" unicode="&#x2c;" d="M161 116L126-60L-2-155L52 116L161 116Z"  horiz-adv-x="262" vert-adv-y="1000"  />

      
      <glyph glyph-name="uni2d" unicode="&#x2d;" d="M356 323L338 232L61 232L78 323L356 323Z"  horiz-adv-x="405" vert-adv-y="1000"  />

      
      <glyph glyph-name="uni2e" unicode="&#x2e;" d="M164 122L140 0L24 0L48 122L164 122Z"  horiz-adv-x="264" vert-adv-y="1000"  />

      
      <glyph glyph-name="uni2f" unicode="&#x2f;" d="M473 786L31-74L-65-74L378 786L473 786Z"  horiz-adv-x="363" vert-adv-y="1000"  />

      
      <glyph glyph-name="uni30" unicode="&#x30;" d="M505 555Q505 532 500 507L439 201Q417 90 352.50 42Q288-6 211-6Q138-6 91 37.50Q44 81 44 157Q44 180 49 205L110 511Q132 622 196.50 670Q261 718 338 718Q411 718 458 674.50Q505 631 505 555M409 550Q409 592 386.50 612Q364 632 332 632Q289 632 253.50 604Q218 576 206 513L145 202Q140 180 140 162Q140 120 162.50 100Q185 80 217 80Q260 80 295.50 108Q331 136 343 199L404 510Q409 532 409 550Z"  horiz-adv-x="506" vert-adv-y="1000"  />

      
      <glyph glyph-name="uni31" unicode="&#x31;" d="M430 712L287 0L191 0L311 600L154 484L176 598L333 712L430 712Z"  horiz-adv-x="506" vert-adv-y="1000"  />

      
      <glyph glyph-name="uni32" unicode="&#x32;" d="M507 548Q507 492 483.50 451Q460 410 413 361L150 86L426 86L409 0L9 0L27 86L347 421Q380 456 394.50 483Q409 510 409 544Q409 587 387.50 609.50Q366 632 327 632Q230 632 204 521L107 521Q125 618 184.50 668Q244 718 336 718Q416 718 461.50 673.50Q507 629 507 548Z"  horiz-adv-x="506" vert-adv-y="1000"  />

      
      <glyph glyph-name="uni33" unicode="&#x33;" d="M496 557Q496 493 466.50 441.50Q437 390 379 365Q449 331 449 236Q449 137 383 65Q317-7 215-7Q125-7 76 37.50Q27 82 27 156Q27 177 29 188L124 188Q123 180 123 167Q123 128 146.50 104Q170 80 215 80Q273 80 312.50 125.50Q352 171 352 233Q352 322 257 322L240 322L256 406L274 406Q328 406 363.50 448.50Q399 491 399 548Q399 587 377.50 609.50Q356 632 317 632Q275 632 241.50 604.50Q208 577 196 530L98 530Q121 624 181.50 671.50Q242 719 330 719Q405 719 450.50 674Q496 629 496 557Z"  horiz-adv-x="506" vert-adv-y="1000"  />

      
      <glyph glyph-name="uni34" unicode="&#x34;" d="M467 200L448 110L374 110L352 0L259 0L281 110L4 110L22 200L359 712L467 712L130 200L298 200L331 364L424 364L391 200L467 200Z"  horiz-adv-x="506" vert-adv-y="1000"  />

      
      <glyph glyph-name="uni35" unicode="&#x35;" d="M529 712L512 626L236 626L197 434Q243 473 312 473Q387 473 425 429Q463 385 463 318Q463 277 455 237Q430 109 374 53Q316-7 218-7Q136-7 92.50 37.50Q49 82 49 151Q49 169 51 182L144 182Q143 174 143 161Q143 125 162.50 102.50Q182 80 221 80Q281 80 312 121.50Q343 163 357 237Q364 272 364 305Q364 391 289 391Q214 391 175 325L89 325L166 712L529 712Z"  horiz-adv-x="506" vert-adv-y="1000"  />

      
      <glyph glyph-name="uni36" unicode="&#x36;" d="M449 229Q449 128 386.50 61Q324-6 231-6Q137-6 90 48.50Q43 103 43 178Q43 227 60.50 269Q78 311 121 377L343 712L449 712L241 401Q268 410 289 410Q362 410 405.50 360.50Q449 311 449 229M352 226Q352 273 327 302Q302 331 260 331Q203 331 171 285.50Q139 240 139 185Q139 138 163.50 109Q188 80 230 80Q285 80 318.50 124.50Q352 169 352 226Z"  horiz-adv-x="506" vert-adv-y="1000"  />

      
      <glyph glyph-name="uni37" unicode="&#x37;" d="M557 712L540 626L195 0L88 0L434 626L224 626L203 518L110 518L148 712L557 712Z"  horiz-adv-x="506" vert-adv-y="1000"  />

      
      <glyph glyph-name="uni38" unicode="&#x38;" d="M507 545Q507 485 475 435Q443 385 391 361Q456 314 456 224Q456 128 393 61Q330-6 218-6Q138-6 85.50 39.50Q33 85 33 172Q33 313 163 374Q107 419 107 496Q107 590 170 654Q233 718 331 718Q408 718 457.50 670.50Q507 623 507 545M358 225Q358 269 332.50 296.50Q307 324 264 324Q205 324 167.50 282.50Q130 241 130 179Q130 135 155.50 107.50Q181 80 224 80Q284 80 321 121Q358 162 358 225M410 544Q410 583 387.50 607.50Q365 632 325 632Q271 632 237.50 591Q204 550 204 496Q204 457 226 432.50Q248 408 288 408Q342 408 376 449Q410 490 410 544Z"  horiz-adv-x="506" vert-adv-y="1000"  />

      
      <glyph glyph-name="uni39" unicode="&#x39;" d="M506 534Q506 485 488.50 443Q471 401 428 335L206 0L100 0L309 311Q282 302 260 302Q187 302 144 351.50Q101 401 101 483Q101 584 163 651Q225 718 318 718Q412 718 459 663.50Q506 609 506 534M410 527Q410 574 385.50 603Q361 632 319 632Q264 632 231 588Q198 544 198 486Q198 439 222.50 410Q247 381 289 381Q346 381 378 426.50Q410 472 410 527Z"  horiz-adv-x="506" vert-adv-y="1000"  />

      
      <glyph glyph-name="uni3a" unicode="&#x3a;" d="M190 122L165 0L50 0L74 122L190 122M244 407L220 286L104 286L129 407L244 407Z"  horiz-adv-x="288" vert-adv-y="1000"  />

      
      <glyph glyph-name="uni3b" unicode="&#x3b;" d="M186 116L151-60L22-155L76 116L186 116M245 407L221 286L105 286L130 407L245 407Z"  horiz-adv-x="288" vert-adv-y="1000"  />

      
      <glyph glyph-name="uni3c" unicode="&#x3c;" d="M464 501L443 394L181 277L398 155L378 57L61 242L79 326L464 501Z"  horiz-adv-x="506" vert-adv-y="1000"  />

      
      <glyph glyph-name="uni3d" unicode="&#x3d;" d="M491 416L473 326L64 326L82 416L491 416M455 229L437 139L28 139L46 229L455 229Z"  horiz-adv-x="506" vert-adv-y="1000"  />

      
      <glyph glyph-name="uni3e" unicode="&#x3e;" d="M456 311L439 227L54 52L74 159L337 276L119 398L139 496L456 311Z"  horiz-adv-x="506" vert-adv-y="1000"  />

      
      <glyph glyph-name="uni3f" unicode="&#x3f;" d="M504 565Q504 482 433 403L337 295Q316 271 309 240L302 209L205 209L213 247Q225 304 264 347L359 452Q407 505 407 557Q407 589 387.50 610Q368 631 333 631Q289 631 259 604.50Q229 578 219 532L121 532Q138 623 198 670.50Q258 718 347 718Q412 718 458 676Q504 634 504 565M292 109L271 0L164 0L185 109L292 109Z"  horiz-adv-x="486" vert-adv-y="1000"  />

      
      <glyph glyph-name="uni40" unicode="&#x40;" d="M692 546Q692 511 685 478L589 0L499 0L509 51Q458-7 383-7Q316-7 279.50 33Q243 73 243 132Q243 172 256 234Q271 308 287 349.50Q303 391 333 422Q385 475 466 475Q543 475 579 417L592 484Q598 518 598 529Q598 568 576 595Q547 630 485 630L365 630Q299 630 257 594Q218 561 202 484L138 168Q133 141 133 119Q133 87 164 56L90-9Q38 46 38 104Q38 131 45 166L108 483Q131 601 189 656Q251 715 367 715L510 715Q607 715 655 659Q692 617 692 546M553 313Q553 347 536 370.50Q519 394 480 394Q424 394 395 354.50Q366 315 349 234Q339 187 339 156Q339 122 356 98.50Q373 75 412 75Q468 75 497 114Q526 153 543 234Q553 281 553 313Z"  horiz-adv-x="700" vert-adv-y="1000"  />

      
      <glyph glyph-name="uni41" unicode="&#x41;" d="M537 0L432 0L414 146L146 146L69 0L-42 0L348 712L431 712L537 0M405 231L362 558L189 231L405 231Z"  horiz-adv-x="594" vert-adv-y="1000"  />

      
      <glyph glyph-name="uni42" unicode="&#x42;" d="M612 549Q612 493 583.50 442Q555 391 488 362Q563 321 563 232Q563 129 496.50 64.50Q430 0 328 0L38 0L181 712L430 712Q527 712 569.50 663.50Q612 615 612 549M459 228Q459 270 435 293.50Q411 317 366 317L205 317L160 91L325 91Q385 91 422 129.50Q459 168 459 228M508 536Q508 621 414 621L266 621L223 408L375 408Q437 408 472.50 446.50Q508 485 508 536Z"  horiz-adv-x="630" vert-adv-y="1000"  />

      
      <glyph glyph-name="uni43" unicode="&#x43;" d="M594 503L491 503Q490 560 461.50 594Q433 628 379 628Q312 628 264 577Q239 551 223 506Q207 461 186 356Q164 245 164 197Q164 145 197 114.50Q230 84 280 84Q339 84 379.50 119.50Q420 155 439 209L545 209Q512 105 439.50 49.50Q367-6 272-6Q179-6 120 48.50Q61 103 61 191Q61 247 83 356Q108 482 127.50 538Q147 594 189 638Q264 718 384 718Q486 718 540 658.50Q594 599 594 503Z"  horiz-adv-x="599" vert-adv-y="1000"  />

      
      <glyph glyph-name="uni44" unicode="&#x44;" d="M613 516Q613 471 592 362Q566 230 543 170Q520 110 474 67Q403 0 283 0L38 0L181 712L408 712Q497 712 555 664.50Q613 617 613 516M510 508Q510 563 479.50 592.50Q449 622 390 622L266 622L160 90L282 90Q357 90 406 135Q433 160 451.50 209.50Q470 259 489 362Q510 471 510 508Z"  horiz-adv-x="632" vert-adv-y="1000"  />

      
      <glyph glyph-name="uni45" unicode="&#x45;" d="M613 712L595 622L266 622L223 404L505 404L487 314L205 314L160 90L495 90L477 0L38 0L181 712L613 712Z"  horiz-adv-x="575" vert-adv-y="1000"  />

      
      <glyph glyph-name="uni46" unicode="&#x46;" d="M613 712L595 622L266 622L221 396L503 396L485 305L202 305L141 0L38 0L181 712L613 712Z"  horiz-adv-x="556" vert-adv-y="1000"  />

      
      <glyph glyph-name="uni47" unicode="&#x47;" d="M598 502L495 502Q493 561 463.50 594.50Q434 628 381 628Q313 628 265 577Q238 550 222.50 504.50Q207 459 186 356Q164 245 164 197Q164 145 197.50 114.50Q231 84 280 84Q337 84 386.50 126.50Q436 169 452 252L460 297L315 297L331 383L579 383L559 276Q534 145 465 73Q388-6 273-6Q176-6 118.50 49Q61 104 61 191Q61 252 83 356Q110 489 129 541.50Q148 594 190 638Q226 676 278 697Q330 718 385 718Q487 718 542 658.50Q597 599 598 502Z"  horiz-adv-x="618" vert-adv-y="1000"  />

      
      <glyph glyph-name="uni48" unicode="&#x48;" d="M661 712L518 0L415 0L478 315L205 315L141 0L38 0L181 712L284 712L223 405L497 405L558 712L661 712Z"  horiz-adv-x="656" vert-adv-y="1000"  />

      
      <glyph glyph-name="uni49" unicode="&#x49;" d="M284 712L141 0L38 0L181 712L284 712Z"  horiz-adv-x="279" vert-adv-y="1000"  />

      
      <glyph glyph-name="uni4a" unicode="&#x4a;" d="M494 712L396 219Q372 102 302.50 48Q233-6 145-6Q36-6-21 65L53 129Q90 84 148 84Q199 84 239.50 120Q280 156 295 229L391 712L494 712Z"  horiz-adv-x="481" vert-adv-y="1000"  />

      
      <glyph glyph-name="uni4b" unicode="&#x4b;" d="M685 712L410 424L574 0L461 0L328 355L182 210L140 0L38 0L181 712L283 712L212 355L557 712L685 712Z"  horiz-adv-x="629" vert-adv-y="1000"  />

      
      <glyph glyph-name="uni4c" unicode="&#x4c;" d="M488 90L470 0L38 0L181 712L284 712L160 90L488 90Z"  horiz-adv-x="548" vert-adv-y="1000"  />

      
      <glyph glyph-name="uni4d" unicode="&#x4d;" d="M778 712L635 0L532 0L629 480L406 144L330 144L239 484L142 0L38 0L181 712L279 712L389 276L677 712L778 712Z"  horiz-adv-x="773" vert-adv-y="1000"  />

      
      <glyph glyph-name="uni4e" unicode="&#x4e;" d="M691 712L548 0L458 0L244 510L141 0L38 0L181 712L272 712L486 202L588 712L691 712Z"  horiz-adv-x="686" vert-adv-y="1000"  />

      
      <glyph glyph-name="uni4f" unicode="&#x4f;" d="M592 521Q592 465 570 356Q545 231 525 174Q505 117 464 74Q388-6 267-6Q174-6 117.50 49Q61 104 61 191Q61 247 83 356Q108 481 128 538Q148 595 189 638Q265 718 385 718Q479 718 535.50 663Q592 608 592 521M489 513Q489 567 457 597.50Q425 628 379 628Q311 628 263 577Q239 552 223 505.50Q207 459 186 356Q164 245 164 199Q164 145 196 114.50Q228 84 274 84Q342 84 390 135Q414 160 430 206.50Q446 253 467 356Q489 467 489 513Z"  horiz-adv-x="614" vert-adv-y="1000"  />

      
      <glyph glyph-name="uni50" unicode="&#x50;" d="M615 532Q615 429 545.50 358Q476 287 357 287L199 287L141 0L38 0L181 712L428 712Q519 712 567 661Q615 610 615 532M512 524Q512 567 488 594Q464 621 413 621L266 621L217 377L361 377Q430 377 471 420Q512 463 512 524Z"  horiz-adv-x="598" vert-adv-y="1000"  />

      
      <glyph glyph-name="uni51" unicode="&#x51;" d="M592 521Q592 465 570 356Q546 239 528 183.50Q510 128 476 87L530 17L466-39L411 32Q350-6 267-6Q174-6 117.50 49Q61 104 61 191Q61 247 83 356Q108 481 128 538Q148 595 189 638Q265 718 385 718Q479 718 535.50 663Q592 608 592 521M489 513Q489 567 457 597.50Q425 628 379 628Q311 628 263 577Q239 552 223 505.50Q207 459 186 356Q164 245 164 199Q164 145 196 114.50Q228 84 274 84Q320 84 355 106L292 188L356 245L414 169Q439 216 467 356Q489 467 489 513Z"  horiz-adv-x="614" vert-adv-y="1000"  />

      
      <glyph glyph-name="uni52" unicode="&#x52;" d="M615 534Q615 459 568.50 397.50Q522 336 438 314L539 0L426 0L335 304L203 304L141 0L38 0L181 712L429 712Q526 712 570.50 661.50Q615 611 615 534M511 529Q511 573 486.50 597Q462 621 414 621L266 621L219 390L368 390Q437 390 474 432.50Q511 475 511 529Z"  horiz-adv-x="626" vert-adv-y="1000"  />

      
      <glyph glyph-name="uni53" unicode="&#x53;" d="M564 634L492 571Q443 629 357 629Q288 629 246 589Q204 549 204 496Q204 434 293 412L355 397Q440 377 476.50 335Q513 293 513 218Q513 111 434 52.50Q355-6 237-6Q157-6 103.50 17Q50 40 6 92L82 158Q140 85 246 85Q316 85 363 121Q410 157 410 211Q410 254 387.50 274.50Q365 295 322 305L259 320Q186 337 143.50 379Q101 421 101 485Q101 580 172 649Q243 718 369 718Q496 718 564 634Z"  horiz-adv-x="561" vert-adv-y="1000"  />

      
      <glyph glyph-name="uni54" unicode="&#x54;" d="M595 712L577 621L393 621L268 0L165 0L290 621L102 621L121 712L595 712Z"  horiz-adv-x="532" vert-adv-y="1000"  />

      
      <glyph glyph-name="uni55" unicode="&#x55;" d="M656 712L561 239Q537 119 461.50 56.50Q386-6 280-6Q194-6 133 46.50Q72 99 72 192Q72 219 79 254L170 712L273 712L180 246Q175 216 175 198Q175 151 202.50 118Q230 85 287 85Q351 85 398 128Q445 171 461 251L553 712L656 712Z"  horiz-adv-x="642" vert-adv-y="1000"  />

      
      <glyph glyph-name="uni56" unicode="&#x56;" d="M623 712L261 0L179 0L97 712L199 712L255 186L513 712L623 712Z"  horiz-adv-x="536" vert-adv-y="1000"  />

      
      <glyph glyph-name="uni57" unicode="&#x57;" d="M910 712L596 0L507 0L469 504L228 0L139 0L102 712L208 712L225 197L465 712L547 712L583 197L800 712L910 712Z"  horiz-adv-x="831" vert-adv-y="1000"  />

      
      <glyph glyph-name="uni58" unicode="&#x58;" d="M617 712L355 361L497 0L382 0L282 277L80 0L-40 0L240 371L109 712L224 712L313 454L497 712L617 712Z"  horiz-adv-x="553" vert-adv-y="1000"  />

      
      <glyph glyph-name="uni59" unicode="&#x59;" d="M605 712L321 289L263 0L160 0L219 294L94 712L203 712L288 393L492 712L605 712Z"  horiz-adv-x="521" vert-adv-y="1000"  />

      
      <glyph glyph-name="uni5a" unicode="&#x5a;" d="M570 712L553 630L137 91L452 91L434 0L-3 0L14 87L427 621L128 621L146 712L570 712Z"  horiz-adv-x="529" vert-adv-y="1000"  />

      
      <glyph glyph-name="uni5b" unicode="&#x5b;" d="M391 786L374 700L268 700L130 12L245 12L228-74L17-74L188 786L391 786Z"  horiz-adv-x="329" vert-adv-y="1000"  />

      
      <glyph glyph-name="uni5c" unicode="&#x5c;" d="M292-74L204-74L105 778L194 778L292-74Z"  horiz-adv-x="357" vert-adv-y="1000"  />

      
      <glyph glyph-name="uni5d" unicode="&#x5d;" d="M354 786L183-74L-20-74L-3 10L105 10L243 702L126 702L143 786L354 786Z"  horiz-adv-x="329" vert-adv-y="1000"  />

      
      <glyph glyph-name="uni5e" unicode="&#x5e;" d="M514 401L418 401L351 616L198 401L94 401L320 719L414 719L514 401Z"  horiz-adv-x="547" vert-adv-y="1000"  />

      
      <glyph glyph-name="uni5f" unicode="&#x5f;" d="M436-102L423-168L-83-168L-70-102L436-102Z"  horiz-adv-x="506" vert-adv-y="1000"  />

      
      <glyph glyph-name="uni60" unicode="&#x60;" d="M360 595L283 595L212 754L309 754L360 595Z"  horiz-adv-x="508" vert-adv-y="1000"  />

      
      <glyph glyph-name="uni61" unicode="&#x61;" d="M456 376Q456 356 451 334L384 0L290 0L300 47Q247-6 167-6Q102-6 60 28Q18 62 18 123Q18 196 64 242Q117 295 212 295L346 295L355 336Q358 350 358 366Q358 431 271 431Q197 431 148 377L95 442Q163 513 281 513Q352 513 404 481Q456 449 456 376M333 227L221 227Q172 227 143 201Q114 175 114 131Q114 74 195 74Q252 74 289 109Q314 134 324 182L333 227Z"  horiz-adv-x="505" vert-adv-y="1000"  />

      
      <glyph glyph-name="uni62" unicode="&#x62;" d="M485 359Q485 320 472 254Q458 177 439.50 127Q421 77 388 44Q338-6 256-6Q167-6 133 58L122 0L27 0L169 712L266 712L216 456Q263 513 343 513Q408 513 446.50 474Q485 435 485 359M386 339Q386 427 311 427Q251 427 221 382.50Q191 338 175 254Q164 192 164 168Q164 80 240 80Q300 80 329.50 124.50Q359 169 375 254Q386 316 386 339Z"  horiz-adv-x="526" vert-adv-y="1000"  />

      
      <glyph glyph-name="uni63" unicode="&#x63;" d="M457 440L384 377Q349 427 299 427Q248 427 208 386Q164 341 148 254Q141 219 141 183Q141 133 165.50 106.50Q190 80 231 80Q289 80 337 131L392 61Q322-6 223-6Q142-6 93 43.50Q44 93 44 176Q44 218 51 254Q76 387 145 450Q214 513 309 513Q404 513 457 440Z"  horiz-adv-x="462" vert-adv-y="1000"  />

      
      <glyph glyph-name="uni64" unicode="&#x64;" d="M541 712L399 0L305 0L316 54Q265-6 183-6Q108-6 75 36.50Q42 79 42 144Q42 184 56 254Q87 410 139 462Q190 513 272 513Q356 513 392 451L444 712L541 712M364 340Q364 427 288 427Q228 427 198.50 383Q169 339 153 254Q142 192 142 167Q142 80 217 80Q277 80 307 125Q337 170 353 254Q364 316 364 340Z"  horiz-adv-x="526" vert-adv-y="1000"  />

      
      <glyph glyph-name="uni65" unicode="&#x65;" d="M470 336Q470 291 455 226L141 226Q136 199 136 177Q136 131 160.50 103.50Q185 76 233 76Q303 76 364 132L418 68Q340-6 224-6Q147-6 95 38Q43 82 43 171Q43 256 68.50 331.50Q94 407 153.50 460Q213 513 297 513Q377 513 423.50 464Q470 415 470 336M377 336Q377 383 353.50 408Q330 433 292 433Q191 433 153 293L373 293Q377 323 377 336Z"  horiz-adv-x="514" vert-adv-y="1000"  />

      
      <glyph glyph-name="uni66" unicode="&#x66;" d="M378 717L361 635L321 635Q266 635 254 574L240 507L337 507L322 433L226 433L139 0L42 0L129 433L74 433L88 507L143 507L159 583Q187 717 315 717L378 717Z"  horiz-adv-x="312" vert-adv-y="1000"  />

      
      <glyph glyph-name="uni67" unicode="&#x67;" d="M496 507L396 4Q373-110 307-160.50Q241-211 155-211Q52-211-7-142L61-83Q99-129 156-129Q209-129 247.50-95Q286-61 300 5L313 69Q266 12 187 12Q123 12 84 51Q45 90 45 161Q45 198 57 263Q83 407 137 461Q189 513 270 513Q356 513 390 449L402 507L496 507M361 342Q361 427 285 427Q228 427 198.50 384.50Q169 342 154 262Q144 209 144 183Q144 98 219 98Q275 98 305.50 141Q336 184 351 263Q361 316 361 342Z"  horiz-adv-x="522" vert-adv-y="1000"  />

      
      <glyph glyph-name="uni68" unicode="&#x68;" d="M487 371Q487 345 482 318L418 0L321 0L383 311Q388 336 388 351Q388 388 366.50 407.50Q345 427 312 427Q296 427 279.50 422.50Q263 418 243.50 406.50Q224 395 208.50 370Q193 345 186 309L124 0L27 0L169 712L266 712L215 460Q268 513 351 513Q408 513 447.50 476.50Q487 440 487 371Z"  horiz-adv-x="540" vert-adv-y="1000"  />

      
      <glyph glyph-name="uni69" unicode="&#x69;" d="M226 507L124 0L27 0L129 507L226 507M268 708L250 620L147 620L164 708L268 708Z"  horiz-adv-x="251" vert-adv-y="1000"  />

      
      <glyph glyph-name="uni6a" unicode="&#x6a;" d="M226 507L110-70Q82-208-45-208L-109-208L-93-125L-54-125Q3-125 15-61L129 507L226 507M268 708L250 620L147 620L164 708L268 708Z"  horiz-adv-x="251" vert-adv-y="1000"  />

      
      <glyph glyph-name="uni6b" unicode="&#x6b;" d="M530 507L322 303L457 0L346 0L248 242L155 154L124 0L27 0L169 712L266 712L180 275L412 507L530 507Z"  horiz-adv-x="523" vert-adv-y="1000"  />

      
      <glyph glyph-name="uni6c" unicode="&#x6c;" d="M263 712L150 145Q146 121 146 118Q146 82 193 82L239 82L222 0L162 0Q114 0 81.50 26Q49 52 49 103Q49 126 53 145L166 712L263 712Z"  horiz-adv-x="298" vert-adv-y="1000"  />

      
      <glyph glyph-name="uni6d" unicode="&#x6d;" d="M780 371Q780 348 774 318L710 0L613 0L676 311Q681 336 681 351Q681 388 659.50 407.50Q638 427 604 427Q588 427 572 422.50Q556 418 536.50 406.50Q517 395 501.50 370Q486 345 479 309L417 0L320 0L382 311Q387 336 387 351Q387 388 365.50 407.50Q344 427 311 427Q295 427 278.50 422.50Q262 418 242.50 406.50Q223 395 207.50 370Q192 345 185 309L123 0L26 0L127 507L221 507L211 455Q264 513 352 513Q433 513 470 439Q534 513 638 513Q697 513 738.50 475.50Q780 438 780 371Z"  horiz-adv-x="833" vert-adv-y="1000"  />

      
      <glyph glyph-name="uni6e" unicode="&#x6e;" d="M487 371Q487 345 482 318L418 0L321 0L383 311Q388 336 388 351Q388 388 366.50 407.50Q345 427 312 427Q296 427 279.50 422.50Q263 418 243.50 406.50Q224 395 208.50 370Q193 345 186 309L124 0L27 0L128 507L222 507L212 455Q265 513 353 513Q408 513 447.50 476.50Q487 440 487 371Z"  horiz-adv-x="540" vert-adv-y="1000"  />

      
      <glyph glyph-name="uni6f" unicode="&#x6f;" d="M464 346Q464 304 455 254Q426 109 362 51Q300-6 211-6Q142-6 93 36Q44 78 44 161Q44 204 53 254Q82 398 146 456Q207 513 297 513Q366 513 415 471Q464 429 464 346M368 337Q368 382 346 404.50Q324 427 288 427Q242 427 210 395Q171 356 150 254Q140 203 140 171Q140 125 162.50 102.50Q185 80 220 80Q266 80 298 112Q338 151 358 254Q368 305 368 337Z"  horiz-adv-x="508" vert-adv-y="1000"  />

      
      <glyph glyph-name="uni70" unicode="&#x70;" d="M485 364Q485 319 472 254Q441 99 388 46Q336-6 256-6Q172-6 136 56L83-205L-14-205L128 507L223 507L211 453Q262 513 344 513Q419 513 452 470.50Q485 428 485 364M386 340Q386 427 310 427Q250 427 220.50 383Q191 339 175 254Q164 192 164 167Q164 80 239 80Q299 80 329 125Q359 170 375 254Q386 316 386 340Z"  horiz-adv-x="526" vert-adv-y="1000"  />

      
      <glyph glyph-name="uni71" unicode="&#x71;" d="M500 507L358-205L261-205L311 51Q264-6 183-6Q118-6 80 33Q42 72 42 148Q42 188 55 254Q83 407 139 463Q189 513 271 513Q359 513 393 449L405 507L500 507M363 339Q363 427 287 427Q227 427 197.50 383Q168 339 152 254Q141 192 141 168Q141 80 216 80Q276 80 306 125Q336 170 352 254Q363 316 363 339Z"  horiz-adv-x="526" vert-adv-y="1000"  />

      
      <glyph glyph-name="uni72" unicode="&#x72;" d="M455 465L374 393Q348 426 310 426Q265 426 231 393Q197 360 186 308L124 0L27 0L128 507L223 507L211 451Q260 513 347 513Q414 513 455 465Z"  horiz-adv-x="415" vert-adv-y="1000"  />

      
      <glyph glyph-name="uni73" unicode="&#x73;" d="M446 454L379 394Q339 433 272 433Q221 433 193 409Q165 385 165 352Q165 313 225 304L292 294Q358 284 386.50 253Q415 222 415 166Q415 101 363 50Q306-6 187-6Q62-6-4 68L66 130Q111 77 195 77Q254 77 286 102Q318 127 318 159Q318 184 303.50 195.50Q289 207 259 212L192 222Q68 241 68 334Q68 407 117 456Q174 513 282 513Q384 513 446 454Z"  horiz-adv-x="473" vert-adv-y="1000"  />

      
      <glyph glyph-name="uni74" unicode="&#x74;" d="M329 507L315 433L223 433L166 144Q162 122 162 119Q162 82 210 82L252 82L236 0L178 0Q130 0 97.50 26Q65 52 65 103Q65 123 69 145L126 433L69 433L84 507L141 507L170 652L267 652L238 507L329 507Z"  horiz-adv-x="328" vert-adv-y="1000"  />

      
      <glyph glyph-name="uni75" unicode="&#x75;" d="M513 507L412 0L318 0L328 52Q275-6 187-6Q132-6 92.50 30.50Q53 67 53 136Q53 162 58 189L122 507L219 507L157 196Q152 171 152 156Q152 119 173.50 99.50Q195 80 228 80Q244 80 260.50 84.50Q277 89 296.50 100.50Q316 112 331.50 137Q347 162 354 198L416 507L513 507Z"  horiz-adv-x="540" vert-adv-y="1000"  />

      
      <glyph glyph-name="uni76" unicode="&#x76;" d="M490 507L214 0L134 0L58 507L155 507L199 140L385 507L490 507Z"  horiz-adv-x="447" vert-adv-y="1000"  />

      
      <glyph glyph-name="uni77" unicode="&#x77;" d="M745 507L500 0L420 0L375 356L191 0L109 0L59 507L157 507L181 147L363 507L437 507L479 147L642 507L745 507Z"  horiz-adv-x="704" vert-adv-y="1000"  />

      
      <glyph glyph-name="uni78" unicode="&#x78;" d="M499 507L296 255L414 0L302 0L228 179L92 0L-28 0L186 262L73 507L185 507L254 337L381 507L499 507Z"  horiz-adv-x="480" vert-adv-y="1000"  />

      
      <glyph glyph-name="uni79" unicode="&#x79;" d="M489 507L162-101Q141-139 119-161Q78-201 7-201L-33-201L-15-114L10-114Q40-114 55-101.50Q70-89 89-54L131 24L58 507L155 507L199 140L385 507L489 507Z"  horiz-adv-x="444" vert-adv-y="1000"  />

      
      <glyph glyph-name="uni7a" unicode="&#x7a;" d="M454 507L439 430L134 86L377 86L360 0L-7 0L9 77L312 421L84 421L102 507L454 507Z"  horiz-adv-x="450" vert-adv-y="1000"  />

      
      <glyph glyph-name="uni7b" unicode="&#x7b;" d="M446 786L428 700L393 700Q351 700 336 684.50Q321 669 312 625L278 456Q261 374 195 356Q240 332 240 282Q240 266 237 251L205 90Q200 65 200 51Q200 29 212.50 20.50Q225 12 255 12L300 12L283-74L216-74Q154-74 127-43.50Q100-13 100 30Q100 47 105 71L139 238Q141 252 141 258Q141 270 138 281Q127 318 88 318L57 318L74 403L108 403Q138 403 159 422Q177 438 187 483L220 647Q236 726 272 757Q307 786 376 786L446 786Z"  horiz-adv-x="386" vert-adv-y="1000"  />

      
      <glyph glyph-name="uni7c" unicode="&#x7c;" d="M316 786L144-74L48-74L219 786L316 786Z"  horiz-adv-x="321" vert-adv-y="1000"  />

      
      <glyph glyph-name="uni7d" unicode="&#x7d;" d="M372 394L354 309L320 309Q290 309 269 290Q251 274 241 229L209 65Q193-14 157-45Q122-74 53-74L-17-74L0 12L36 12Q78 12 92.50 27Q107 42 116 87L150 256Q159 301 180 324Q201 347 234 356Q188 380 188 430Q188 446 191 461L223 622Q228 647 228 661Q228 683 215.50 691.50Q203 700 173 700L129 700L146 786L213 786Q274 786 301 755.50Q328 725 328 682Q328 663 324 641L290 474Q286 449 290 431Q301 394 341 394L372 394Z"  horiz-adv-x="386" vert-adv-y="1000"  />

      
      <glyph glyph-name="uni7e" unicode="&#x7e;" d="M512 276Q433 205 362 205Q317 205 259 237Q218 260 186 260Q142 260 93 217L43 283Q121 353 193 353Q239 353 297 321Q338 298 370 298Q413 298 462 341L512 276Z"  horiz-adv-x="545" vert-adv-y="1000"  />

      
      <glyph glyph-name="unia1" unicode="&#xa1;" d="M189 298L111-205L-6-205L113 298L189 298M244 507L222 398L116 398L137 507L244 507Z"  horiz-adv-x="315" vert-adv-y="1000"  />

      
      <glyph glyph-name="unia2" unicode="&#xa2;" d="M494 544L422 486Q395 526 350 534L285 196Q336 202 376 245L431 180Q365 117 276 107L255 0L179 0L201 111Q141 123 104 174Q67 225 67 297Q67 372 91 440.50Q115 509 169.50 560.50Q224 612 299 621L317 712L393 712L375 621Q454 606 494 544M291 535Q250 526 220 483Q164 406 164 302Q164 264 179.50 236Q195 208 226 199L291 535Z"  horiz-adv-x="480" vert-adv-y="1000"  />

      
      <glyph glyph-name="unia3" unicode="&#xa3;" d="M565 648L489 582Q458 627 399 627Q278 627 250 485L230 389L355 389L341 316L216 316L172 91L462 91L444 0L50 0L114 316L55 316L69 389L128 389L149 491Q196 718 408 718Q509 718 565 648Z"  horiz-adv-x="537" vert-adv-y="1000"  />

      
      <glyph glyph-name="unia4" unicode="&#xa4;" d="M592 81L530 19L458 91Q401 53 333 53Q264 53 207 91L135 19L73 81L145 153Q107 210 107 278Q107 347 145 404L73 476L135 538L207 466Q264 504 333 504Q401 504 458 466L530 538L592 476L520 404Q558 347 558 278Q558 210 520 153L592 81M431.50 179.50Q431.50 179.50 451.75 199.75Q472 220 472 278Q472 336 431.50 377Q391 418 333 418Q275 418 234 377Q193 336 193 278Q193 220 234 179.50Q275 139 333 139Q391 139 431.50 179.50Z"  horiz-adv-x="665" vert-adv-y="1000"  />

      
      <glyph glyph-name="unia5" unicode="&#xa5;" d="M606 712L408 417L492 417L478 344L358 344L321 289L312 241L458 241L443 168L298 168L264 0L161 0L195 168L50 168L65 241L209 241L219 294L204 344L85 344L99 417L182 417L94 712L203 712L288 393L492 712L606 712Z"  horiz-adv-x="521" vert-adv-y="1000"  />

      
      <glyph glyph-name="unia6" unicode="&#xa6;" d="M316 786L246 436L149 436L219 786L316 786M214 276L144-74L48-74L117 276L214 276Z"  horiz-adv-x="327" vert-adv-y="1000"  />

      
      <glyph glyph-name="unia7" unicode="&#xa7;" d="M490 580Q490 563 489 558L400 558Q404 595 383 614.50Q362 634 328 634Q283 634 256 607Q229 580 229 539Q229 489 286 469L346 448Q387 433 416.50 396Q446 359 446 303Q446 160 320 99Q382 62 382-18Q382-100 327-155.50Q272-211 171-211Q103-211 59-173.50Q15-136 15-71Q15-55 16-46L108-46Q104-83 123.50-104Q143-125 183-125Q226-125 256-98.50Q286-72 286-23Q286 31 227 53L168 75Q126 90 97 126.50Q68 163 68 219Q68 285 100 340Q132 395 195 424Q137 463 137 538Q137 615 192 666.50Q247 718 335 718Q410 718 450 678Q490 638 490 580M354 294Q354 333 332 353Q310 373 279 373Q238 373 207 345Q174 315 163 261Q160 243 160 229Q160 188 183 169Q206 150 235 150Q277 150 307 177Q340 207 351 261Q354 279 354 294Z"  horiz-adv-x="516" vert-adv-y="1000"  />

      
      <glyph glyph-name="unia8" unicode="&#xa8;" d="M491 705L470 599L382 599L403 705L491 705M286 705L265 599L177 599L198 705L286 705Z"  horiz-adv-x="508" vert-adv-y="1000"  />

      
      <glyph glyph-name="unia9" unicode="&#xa9;" d="M672.50 599Q672.50 599 722.75 548.50Q773 498 773 356Q773 214 672.50 113Q572 12 429 12Q286 12 185.50 113Q85 214 85 356Q85 498 185.50 599Q286 700 429 700Q572 700 672.50 599M623.50 157Q623.50 157 663.25 197.50Q703 238 703 356Q703 474 623.50 555Q544 636 429 636Q314 636 234 555Q154 474 154 356Q154 238 234 157Q314 76 429 76Q544 76 623.50 157M559 216Q503 166 435 166Q358 166 311.50 217.50Q265 269 265 356Q265 443 311.50 494.50Q358 546 435 546Q503 546 559 496L515 452Q476 486 435 486Q383 486 357.50 451Q332 416 332 356Q332 297 357.50 262Q383 227 435 227Q477 227 515 260L559 216Z"  horiz-adv-x="818" vert-adv-y="1000"  />

      
      <glyph glyph-name="uniaa" unicode="&#xaa;" d="M429 607Q429 595 425 573L372 307L296 307L304 344Q268 303 197 303Q146 303 113 330.50Q80 358 80 407Q80 466 117 502Q158 542 234 542L341 542L347 575Q350 593 350 600Q350 649 281 649Q219 649 183 608L140 661Q195 716 290 716Q325 716 354.50 707.50Q384 699 406.50 673Q429 647 429 607M330 487L242 487Q203 487 179.50 466Q156 445 156 412Q156 367 222 367Q268 367 296 395Q313 412 322 452L330 487Z"  horiz-adv-x="429" vert-adv-y="1000"  />

      
      <glyph glyph-name="uniab" unicode="&#xab;" d="M544 500L518 372L393 264L476 155L454 42L279 272L544 500M304 500L278 372L153 264L236 155L214 42L39 272L304 500Z"  horiz-adv-x="562" vert-adv-y="1000"  />

      
      <glyph glyph-name="uniac" unicode="&#xac;" d="M477 333L430 99L340 99L369 244L45 244L63 333L477 333Z"  horiz-adv-x="506" vert-adv-y="1000"  />

      
      <glyph glyph-name="uniad" unicode="&#xad;" d="M356 323L338 232L61 232L78 323L356 323Z"  horiz-adv-x="405" vert-adv-y="1000"  />

      
      <glyph glyph-name="uniae" unicode="&#xae;" d="M672.50 599Q672.50 599 722.75 548.50Q773 498 773 356Q773 214 672.50 113Q572 12 429 12Q286 12 185.50 113Q85 214 85 356Q85 498 185.50 599Q286 700 429 700Q572 700 672.50 599M624.50 157Q624.50 157 664.25 197.50Q704 238 704 356Q704 474 624.50 555Q545 636 429 636Q313 636 233.50 555Q154 474 154 356Q154 238 233.50 157Q313 76 429 76Q545 76 624.50 157M579 170L501 170L425 318L377 318L377 170L310 170L310 542L448 542Q500 542 534.50 508.50Q569 475 569 428Q569 390 548.50 364.50Q528 339 495 328L579 170M484 388Q484 388 492.50 396Q501 404 501 428Q501 452 484 468.50Q467 485 440 485L377 485L377 372L440 372Q467 372 484 388Z"  horiz-adv-x="818" vert-adv-y="1000"  />

      
      <glyph glyph-name="uniaf" unicode="&#xaf;" d="M488 684L474 615L180 615L194 684L488 684Z"  horiz-adv-x="496" vert-adv-y="1000"  />

      
      <glyph glyph-name="unib0" unicode="&#xb0;" d="M408.50 670Q408.50 670 432.75 645.50Q457 621 457 549Q457 477 408.50 428.50Q360 380 288 380Q216 380 167 428.50Q118 477 118 549Q118 621 167 670Q216 719 288 719Q360 719 408.50 670M352.50 483.50Q352.50 483.50 365.75 496.75Q379 510 379 549Q379 588 352 615Q325 642 287 642Q249 642 223 615.50Q197 589 197 549Q197 510 223.50 483.50Q250 457 288 457Q326 457 352.50 483.50Z"  horiz-adv-x="458" vert-adv-y="1000"  />

      
      <glyph glyph-name="unib1" unicode="&#xb1;" d="M487 401L469 311L310 311L276 140L186 140L220 311L61 311L79 401L238 401L272 572L362 572L328 401L487 401M427 90L409 0L0 0L18 90L427 90Z"  horiz-adv-x="506" vert-adv-y="1000"  />

      
      <glyph glyph-name="unib2" unicode="&#xb2;" d="M347 612Q347 553 279 485L142 350L301 350L288 285L39 285L52 350L235 531Q274 570 274 606Q274 651 231 651Q179 651 169 594L96 594Q106 647 139.50 681.50Q173 716 238 716Q291 716 319 687.50Q347 659 347 612Z"  horiz-adv-x="310" vert-adv-y="1000"  />

      
      <glyph glyph-name="unib3" unicode="&#xb3;" d="M345 610Q345 532 278 501Q315 476 315 419Q315 360 276 320Q237 280 169 280Q110 280 81 309Q52 338 52 376Q52 388 54 404L126 404Q125 400 125 392Q125 345 175 345Q202 345 222 364.50Q242 384 242 419Q242 472 193 472L183 472L195 534L204 534Q239 534 255.50 555.50Q272 577 272 606Q272 629 260 640Q248 651 230 651Q179 651 166 596L93 596Q118 716 237 716Q286 716 315.50 687Q345 658 345 610Z"  horiz-adv-x="310" vert-adv-y="1000"  />

      
      <glyph glyph-name="unib4" unicode="&#xb4;" d="M485 754L355 595L271 595L385 754L485 754Z"  horiz-adv-x="496" vert-adv-y="1000"  />

      
      <glyph glyph-name="unib5" unicode="&#xb5;" d="M515 507L414 0L320 0L330 53Q277-6 189-6Q147-6 124 22L78-205L-18-205L124 507L221 507L159 196Q154 174 154 156Q154 119 175.50 99.50Q197 80 230 80Q246 80 262.50 84.50Q279 89 298.50 100.50Q318 112 333.50 137Q349 162 356 198L418 507L515 507Z"  horiz-adv-x="542" vert-adv-y="1000"  />

      
      <glyph glyph-name="unib6" unicode="&#xb6;" d="M609 712L426-205L329-205L494 622L392 622L226-205L129-205L237 335Q176 339 132 386.50Q88 434 88 506Q88 591 150.50 651.50Q213 712 334 712L609 712Z"  horiz-adv-x="605" vert-adv-y="1000"  />

      
      <glyph glyph-name="unib7" unicode="&#xb7;" d="M207 336L184 220L68 220L91 336L207 336Z"  horiz-adv-x="264" vert-adv-y="1000"  />

      
      <glyph glyph-name="unib8" unicode="&#xb8;" d="M248-61L171-206L77-206L167-61L248-61Z"  horiz-adv-x="508" vert-adv-y="1000"  />

      
      <glyph glyph-name="unib9" unicode="&#xb9;" d="M308 712L222 285L150 285L218 626L120 554L138 641L235 712L308 712Z"  horiz-adv-x="310" vert-adv-y="1000"  />

      
      <glyph glyph-name="uniba" unicode="&#xba;" d="M433 583Q433 548 425 510Q404 397 351 348Q303 303 231 303Q180 303 139 334.50Q98 366 98 437Q98 477 105 510Q126 622 179 671Q227 716 299 716Q350 716 391.50 685Q433 654 433 583M356 575Q356 611 337.50 628.50Q319 646 292 646Q256 646 230 620Q198 588 183 510Q175 465 175 444Q175 408 193 390.50Q211 373 238 373Q275 373 301 399Q332 430 347 510Q356 560 356 575Z"  horiz-adv-x="435" vert-adv-y="1000"  />

      
      <glyph glyph-name="unibb" unicode="&#xbb;" d="M292 270L27 42L53 169L178 278L95 387L117 500L292 270M532 270L268 42L294 169L418 278L336 387L358 500L532 270Z"  horiz-adv-x="562" vert-adv-y="1000"  />

      
      <glyph glyph-name="unibc" unicode="&#xbc;" d="M308 712L222 285L150 285L218 626L120 554L138 641L235 712L308 712M696 712L235 0L156 0L616 712L696 712M770 427L572 130L659 130L676 214L746 214L729 130L768 130L756 63L716 63L704 0L634 0L647 63L479 63L492 130L690 427L770 427Z"  horiz-adv-x="809" vert-adv-y="1000"  />

      
      <glyph glyph-name="unibd" unicode="&#xbd;" d="M308 712L222 285L150 285L218 626L120 554L138 641L235 712L308 712M696 712L235 0L156 0L616 712L696 712M789 327Q789 268 721 200L584 65L743 65L730 0L481 0L494 65L677 246Q716 285 716 321Q716 366 673 366Q621 366 611 309L538 309Q548 362 581.50 396.50Q615 431 680 431Q733 431 761 402.50Q789 374 789 327Z"  horiz-adv-x="809" vert-adv-y="1000"  />

      
      <glyph glyph-name="unibe" unicode="&#xbe;" d="M345 610Q345 532 278 501Q315 476 315 420Q315 361 276 321Q237 281 169 281Q110 281 81 310Q52 339 52 377Q52 389 54 405L126 405Q125 401 125 393Q125 346 175 346Q202 346 222 365.50Q242 385 242 420Q242 473 193 473L183 473L195 534L204 534Q239 534 255.50 555.50Q272 577 272 606Q272 629 260 640Q248 651 230 651Q179 651 166 596L93 596Q118 716 237 716Q286 716 315.50 687Q345 658 345 610M696 712L235 0L156 0L616 712L696 712M770 427L572 130L659 130L676 214L746 214L729 130L768 130L756 63L716 63L704 0L634 0L647 63L479 63L492 130L690 427L770 427Z"  horiz-adv-x="809" vert-adv-y="1000"  />

      
      <glyph glyph-name="unibf" unicode="&#xbf;" d="M366-25Q349-116 289-163.50Q229-211 140-211Q76-211 30-169Q-16-127-16-58Q-16 25 55 104L150 212Q173 238 179 267L186 298L283 298L275 260Q263 204 223 160L129 55Q81 2 81-49Q81-81 100.50-102.50Q120-124 155-124Q199-124 229-97.50Q259-71 269-25L366-25M324 507L303 398L196 398L217 507L324 507Z"  horiz-adv-x="486" vert-adv-y="1000"  />

      
      <glyph glyph-name="unic0" unicode="&#xc0;" d="M537 0L432 0L414 146L146 146L69 0L-42 0L348 712L431 712L537 0M405 231L362 558L189 231L405 231M432 777L355 777L284 936L381 936L432 777Z"  horiz-adv-x="594" vert-adv-y="1000"  />

      
      <glyph glyph-name="unic1" unicode="&#xc1;" d="M537 0L432 0L414 146L146 146L69 0L-42 0L348 712L431 712L537 0M405 231L362 558L189 231L405 231M557 936L427 777L343 777L457 936L557 936Z"  horiz-adv-x="594" vert-adv-y="1000"  />

      
      <glyph glyph-name="unic2" unicode="&#xc2;" d="M537 0L432 0L414 146L146 146L69 0L-42 0L348 712L431 712L537 0M405 231L362 558L189 231L405 231M556 776L479 776L417 876L313 776L228 776L383 938L465 938L556 776Z"  horiz-adv-x="594" vert-adv-y="1000"  />

      
      <glyph glyph-name="unic3" unicode="&#xc3;" d="M537 0L432 0L414 146L146 146L69 0L-42 0L348 712L431 712L537 0M405 231L362 558L189 231L405 231M569 839Q516 789 465 789Q432 789 393 809.50Q354 830 340 830Q312 830 278 798L240 847Q293 897 344 897Q377 897 416 876.50Q455 856 469 856Q499 856 531 888L569 839Z"  horiz-adv-x="594" vert-adv-y="1000"  />

      
      <glyph glyph-name="unic4" unicode="&#xc4;" d="M537 0L432 0L414 146L146 146L69 0L-42 0L348 712L431 712L537 0M405 231L362 558L189 231L405 231M564 887L543 782L455 782L476 887L564 887M358 887L338 782L250 782L271 887L358 887Z"  horiz-adv-x="594" vert-adv-y="1000"  />

      
      <glyph glyph-name="unic5" unicode="&#xc5;" d="M537 0L432 0L414 146L146 146L69 0L-42 0L348 712L431 712L537 0M405 231L362 558L189 231L405 231M518 870Q518 818 482 782.50Q446 747 396 747Q346 747 310 782.50Q274 818 274 870Q274 921 309.50 956.50Q345 992 396 992Q447 992 482.50 956.50Q518 921 518 870M441.50 825Q441.50 825 451.25 834.50Q461 844 461 870Q461 896 441.50 915Q422 934 396 934Q370 934 351 915Q332 896 332 870Q332 844 351 825Q370 806 396 806Q422 806 441.50 825Z"  horiz-adv-x="594" vert-adv-y="1000"  />

      
      <glyph glyph-name="unic6" unicode="&#xc6;" d="M949 712L931 622L602 622L558 403L840 403L822 313L540 313L495 90L829 90L811 0L375 0L408 167L186 167L70 0L-45 0L452 712L949 712M499 622L244 254L426 254L499 622Z"  horiz-adv-x="911" vert-adv-y="1000"  />

      
      <glyph glyph-name="unic7" unicode="&#xc7;" d="M594 503L491 503Q490 560 461.50 594Q433 628 379 628Q312 628 264 577Q239 551 223 506Q207 461 186 356Q164 245 164 197Q164 145 197 114.50Q230 84 280 84Q339 84 379.50 119.50Q420 155 439 209L545 209Q512 105 439.50 49.50Q367-6 272-6Q179-6 120 48.50Q61 103 61 191Q61 247 83 356Q108 482 127.50 538Q147 594 189 638Q264 718 384 718Q486 718 540 658.50Q594 599 594 503M306-61L229-206L135-206L225-61L306-61Z"  horiz-adv-x="599" vert-adv-y="1000"  />

      
      <glyph glyph-name="unic8" unicode="&#xc8;" d="M613 712L595 622L266 622L223 404L505 404L487 314L205 314L160 90L495 90L477 0L38 0L181 712L613 712M433 777L356 777L285 936L382 936L433 777Z"  horiz-adv-x="575" vert-adv-y="1000"  />

      
      <glyph glyph-name="unic9" unicode="&#xc9;" d="M613 712L595 622L266 622L223 404L505 404L487 314L205 314L160 90L495 90L477 0L38 0L181 712L613 712M558 936L428 777L344 777L458 936L558 936Z"  horiz-adv-x="575" vert-adv-y="1000"  />

      
      <glyph glyph-name="unica" unicode="&#xca;" d="M613 712L595 622L266 622L223 404L505 404L487 314L205 314L160 90L495 90L477 0L38 0L181 712L613 712M557 776L480 776L418 876L314 776L229 776L384 938L466 938L557 776Z"  horiz-adv-x="575" vert-adv-y="1000"  />

      
      <glyph glyph-name="unicb" unicode="&#xcb;" d="M613 712L595 622L266 622L223 404L505 404L487 314L205 314L160 90L495 90L477 0L38 0L181 712L613 712M565 887L544 782L456 782L477 887L565 887M359 887L339 782L251 782L272 887L359 887Z"  horiz-adv-x="575" vert-adv-y="1000"  />

      
      <glyph glyph-name="unicc" unicode="&#xcc;" d="M284 712L141 0L38 0L181 712L284 712M292 777L215 777L144 936L241 936L292 777Z"  horiz-adv-x="279" vert-adv-y="1000"  />

      
      <glyph glyph-name="unicd" unicode="&#xcd;" d="M284 712L141 0L38 0L181 712L284 712M408 936L278 777L194 777L308 936L408 936Z"  horiz-adv-x="279" vert-adv-y="1000"  />

      
      <glyph glyph-name="unice" unicode="&#xce;" d="M284 712L141 0L38 0L181 712L284 712M400 776L323 776L261 876L157 776L72 776L227 938L309 938L400 776Z"  horiz-adv-x="279" vert-adv-y="1000"  />

      
      <glyph glyph-name="unicf" unicode="&#xcf;" d="M284 712L141 0L38 0L181 712L284 712M408 887L387 782L299 782L320 887L408 887M202 887L182 782L94 782L115 887L202 887Z"  horiz-adv-x="279" vert-adv-y="1000"  />

      
      <glyph glyph-name="unid0" unicode="&#xd0;" d="M631 516Q631 476 609 362Q583 230 560 170Q537 110 491 67Q420 0 301 0L56 0L120 320L50 320L66 399L136 399L199 712L426 712Q515 712 573 664.50Q631 617 631 516M528 508Q528 563 497.50 592.50Q467 622 408 622L284 622L239 399L370 399L355 320L223 320L177 90L300 90Q375 90 424 135Q451 160 469 209Q487 258 506 362Q528 476 528 508Z"  horiz-adv-x="650" vert-adv-y="1000"  />

      
      <glyph glyph-name="unid1" unicode="&#xd1;" d="M691 712L548 0L458 0L244 510L141 0L38 0L181 712L272 712L486 202L588 712L691 712M608 839Q555 789 504 789Q471 789 432 809.50Q393 830 379 830Q351 830 317 798L279 847Q332 897 383 897Q416 897 455 876.50Q494 856 508 856Q538 856 570 888L608 839Z"  horiz-adv-x="686" vert-adv-y="1000"  />

      
      <glyph glyph-name="unid2" unicode="&#xd2;" d="M592 521Q592 465 570 356Q545 231 525 174Q505 117 464 74Q388-6 267-6Q174-6 117.50 49Q61 104 61 191Q61 247 83 356Q108 481 128 538Q148 595 189 638Q265 718 385 718Q479 718 535.50 663Q592 608 592 521M489 513Q489 567 457 597.50Q425 628 379 628Q311 628 263 577Q239 552 223 505.50Q207 459 186 356Q164 245 164 199Q164 145 196 114.50Q228 84 274 84Q342 84 390 135Q414 160 430 206.50Q446 253 467 356Q489 467 489 513M440 777L363 777L292 936L389 936L440 777Z"  horiz-adv-x="614" vert-adv-y="1000"  />

      
      <glyph glyph-name="unid3" unicode="&#xd3;" d="M592 521Q592 465 570 356Q545 231 525 174Q505 117 464 74Q388-6 267-6Q174-6 117.50 49Q61 104 61 191Q61 247 83 356Q108 481 128 538Q148 595 189 638Q265 718 385 718Q479 718 535.50 663Q592 608 592 521M489 513Q489 567 457 597.50Q425 628 379 628Q311 628 263 577Q239 552 223 505.50Q207 459 186 356Q164 245 164 199Q164 145 196 114.50Q228 84 274 84Q342 84 390 135Q414 160 430 206.50Q446 253 467 356Q489 467 489 513M565 936L435 777L351 777L465 936L565 936Z"  horiz-adv-x="614" vert-adv-y="1000"  />

      
      <glyph glyph-name="unid4" unicode="&#xd4;" d="M592 521Q592 465 570 356Q545 231 525 174Q505 117 464 74Q388-6 267-6Q174-6 117.50 49Q61 104 61 191Q61 247 83 356Q108 481 128 538Q148 595 189 638Q265 718 385 718Q479 718 535.50 663Q592 608 592 521M489 513Q489 567 457 597.50Q425 628 379 628Q311 628 263 577Q239 552 223 505.50Q207 459 186 356Q164 245 164 199Q164 145 196 114.50Q228 84 274 84Q342 84 390 135Q414 160 430 206.50Q446 253 467 356Q489 467 489 513M564 776L487 776L425 876L321 776L236 776L391 938L473 938L564 776Z"  horiz-adv-x="614" vert-adv-y="1000"  />

      
      <glyph glyph-name="unid5" unicode="&#xd5;" d="M592 521Q592 465 570 356Q545 231 525 174Q505 117 464 74Q388-6 267-6Q174-6 117.50 49Q61 104 61 191Q61 247 83 356Q108 481 128 538Q148 595 189 638Q265 718 385 718Q479 718 535.50 663Q592 608 592 521M489 513Q489 567 457 597.50Q425 628 379 628Q311 628 263 577Q239 552 223 505.50Q207 459 186 356Q164 245 164 199Q164 145 196 114.50Q228 84 274 84Q342 84 390 135Q414 160 430 206.50Q446 253 467 356Q489 467 489 513M577 839Q524 789 473 789Q440 789 401 809.50Q362 830 348 830Q320 830 286 798L248 847Q301 897 352 897Q385 897 424 876.50Q463 856 477 856Q507 856 539 888L577 839Z"  horiz-adv-x="614" vert-adv-y="1000"  />

      
      <glyph glyph-name="unid6" unicode="&#xd6;" d="M592 521Q592 465 570 356Q545 231 525 174Q505 117 464 74Q388-6 267-6Q174-6 117.50 49Q61 104 61 191Q61 247 83 356Q108 481 128 538Q148 595 189 638Q265 718 385 718Q479 718 535.50 663Q592 608 592 521M489 513Q489 567 457 597.50Q425 628 379 628Q311 628 263 577Q239 552 223 505.50Q207 459 186 356Q164 245 164 199Q164 145 196 114.50Q228 84 274 84Q342 84 390 135Q414 160 430 206.50Q446 253 467 356Q489 467 489 513M572 887L551 782L463 782L484 887L572 887M366 887L346 782L258 782L279 887L366 887Z"  horiz-adv-x="614" vert-adv-y="1000"  />

      
      <glyph glyph-name="unid7" unicode="&#xd7;" d="M486 419L319 274L430 128L360 67L250 215L83 69L32 136L198 281L88 428L158 488L268 341L435 486L486 419Z"  horiz-adv-x="506" vert-adv-y="1000"  />

      
      <glyph glyph-name="unid8" unicode="&#xd8;" d="M625 756L552 643Q592 590 592 521Q592 465 570 356Q545 231 525 174Q505 117 464 74Q388-6 267-6Q201-6 153 22L109-44L30-44L101 66Q61 118 61 191Q61 247 83 356Q108 481 128 538Q148 595 189 638Q265 718 385 718Q451 718 502 688L545 756L625 756M489 513Q489 527 485 547L204 107Q233 84 274 84Q342 84 390 135Q414 160 430 206.50Q446 253 467 356Q489 467 489 513M450 603Q420 628 379 628Q311 628 263 577Q239 552 223 505.50Q207 459 186 356Q164 245 164 199Q164 178 168 163L450 603Z"  horiz-adv-x="616" vert-adv-y="1000"  />

      
      <glyph glyph-name="unid9" unicode="&#xd9;" d="M656 712L561 239Q537 119 461.50 56.50Q386-6 280-6Q194-6 133 46.50Q72 99 72 192Q72 219 79 254L170 712L273 712L180 246Q175 216 175 198Q175 151 202.50 118Q230 85 287 85Q351 85 398 128Q445 171 461 251L553 712L656 712M457 777L380 777L309 936L406 936L457 777Z"  horiz-adv-x="642" vert-adv-y="1000"  />

      
      <glyph glyph-name="unida" unicode="&#xda;" d="M656 712L561 239Q537 119 461.50 56.50Q386-6 280-6Q194-6 133 46.50Q72 99 72 192Q72 219 79 254L170 712L273 712L180 246Q175 216 175 198Q175 151 202.50 118Q230 85 287 85Q351 85 398 128Q445 171 461 251L553 712L656 712M582 936L452 777L368 777L482 936L582 936Z"  horiz-adv-x="642" vert-adv-y="1000"  />

      
      <glyph glyph-name="unidb" unicode="&#xdb;" d="M656 712L561 239Q537 119 461.50 56.50Q386-6 280-6Q194-6 133 46.50Q72 99 72 192Q72 219 79 254L170 712L273 712L180 246Q175 216 175 198Q175 151 202.50 118Q230 85 287 85Q351 85 398 128Q445 171 461 251L553 712L656 712M582 776L505 776L443 876L339 776L254 776L409 938L491 938L582 776Z"  horiz-adv-x="642" vert-adv-y="1000"  />

      
      <glyph glyph-name="unidc" unicode="&#xdc;" d="M656 712L561 239Q537 119 461.50 56.50Q386-6 280-6Q194-6 133 46.50Q72 99 72 192Q72 219 79 254L170 712L273 712L180 246Q175 216 175 198Q175 151 202.50 118Q230 85 287 85Q351 85 398 128Q445 171 461 251L553 712L656 712M589 887L568 782L480 782L501 887L589 887M383 887L363 782L275 782L296 887L383 887Z"  horiz-adv-x="642" vert-adv-y="1000"  />

      
      <glyph glyph-name="unidd" unicode="&#xdd;" d="M605 712L321 289L263 0L160 0L219 294L94 712L203 712L288 393L492 712L605 712M514 936L384 777L300 777L414 936L514 936Z"  horiz-adv-x="521" vert-adv-y="1000"  />

      
      <glyph glyph-name="unide" unicode="&#xde;" d="M587 393Q587 290 517.50 219Q448 148 329 148L171 148L141 0L38 0L181 712L284 712L256 573L400 573Q491 573 539 522Q587 471 587 393M483 385Q483 428 459.50 455Q436 482 385 482L238 482L189 238L333 238Q401 238 442 281Q483 324 483 385Z"  horiz-adv-x="606" vert-adv-y="1000"  />

      
      <glyph glyph-name="unidf" unicode="&#xdf;" d="M538 570Q538 527 516.50 488Q495 449 453 427Q495 403 495 350Q495 341 491 317L459 151Q431 0 287 0L229 0L245 82L279 82Q308 82 332 100Q354 116 363 159L395 319Q397 328 397 341Q397 391 343 391L306 391L321 468L353 468Q393 468 417 497Q441 526 441 563Q441 593 425 610Q402 635 358 635Q253 635 229 518L125 0L27 0L132 525Q171 719 368 719Q444 719 491 680Q538 641 538 570Z"  horiz-adv-x="539" vert-adv-y="1000"  />

      
      <glyph glyph-name="unie0" unicode="&#xe0;" d="M456 376Q456 356 451 334L384 0L290 0L300 47Q247-6 167-6Q102-6 60 28Q18 62 18 123Q18 196 64 242Q117 295 212 295L346 295L355 336Q358 350 358 366Q358 431 271 431Q197 431 148 377L95 442Q163 513 281 513Q352 513 404 481Q456 449 456 376M333 227L221 227Q172 227 143 201Q114 175 114 131Q114 74 195 74Q252 74 289 109Q314 134 324 182L333 227M348 595L271 595L200 754L297 754L348 595Z"  horiz-adv-x="505" vert-adv-y="1000"  />

      
      <glyph glyph-name="unie1" unicode="&#xe1;" d="M456 376Q456 356 451 334L384 0L290 0L300 47Q247-6 167-6Q102-6 60 28Q18 62 18 123Q18 196 64 242Q117 295 212 295L346 295L355 336Q358 350 358 366Q358 431 271 431Q197 431 148 377L95 442Q163 513 281 513Q352 513 404 481Q456 449 456 376M333 227L221 227Q172 227 143 201Q114 175 114 131Q114 74 195 74Q252 74 289 109Q314 134 324 182L333 227M473 754L343 595L259 595L373 754L473 754Z"  horiz-adv-x="505" vert-adv-y="1000"  />

      
      <glyph glyph-name="unie2" unicode="&#xe2;" d="M456 376Q456 356 451 334L384 0L290 0L300 47Q247-6 167-6Q102-6 60 28Q18 62 18 123Q18 196 64 242Q117 295 212 295L346 295L355 336Q358 350 358 366Q358 431 271 431Q197 431 148 377L95 442Q163 513 281 513Q352 513 404 481Q456 449 456 376M333 227L221 227Q172 227 143 201Q114 175 114 131Q114 74 195 74Q252 74 289 109Q314 134 324 182L333 227M472 594L395 594L333 695L229 594L144 594L299 756L381 756L472 594Z"  horiz-adv-x="505" vert-adv-y="1000"  />

      
      <glyph glyph-name="unie3" unicode="&#xe3;" d="M456 376Q456 356 451 334L384 0L290 0L300 47Q247-6 167-6Q102-6 60 28Q18 62 18 123Q18 196 64 242Q117 295 212 295L346 295L355 336Q358 350 358 366Q358 431 271 431Q197 431 148 377L95 442Q163 513 281 513Q352 513 404 481Q456 449 456 376M333 227L221 227Q172 227 143 201Q114 175 114 131Q114 74 195 74Q252 74 289 109Q314 134 324 182L333 227M485 654Q432 604 381 604Q348 604 309 624.50Q270 645 256 645Q228 645 194 613L156 662Q209 712 260 712Q293 712 332 691.50Q371 671 385 671Q415 671 447 703L485 654Z"  horiz-adv-x="505" vert-adv-y="1000"  />

      
      <glyph glyph-name="unie4" unicode="&#xe4;" d="M456 376Q456 356 451 334L384 0L290 0L300 47Q247-6 167-6Q102-6 60 28Q18 62 18 123Q18 196 64 242Q117 295 212 295L346 295L355 336Q358 350 358 366Q358 431 271 431Q197 431 148 377L95 442Q163 513 281 513Q352 513 404 481Q456 449 456 376M333 227L221 227Q172 227 143 201Q114 175 114 131Q114 74 195 74Q252 74 289 109Q314 134 324 182L333 227M479 705L458 599L370 599L391 705L479 705M274 705L253 599L165 599L186 705L274 705Z"  horiz-adv-x="505" vert-adv-y="1000"  />

      
      <glyph glyph-name="unie5" unicode="&#xe5;" d="M456 376Q456 356 451 334L384 0L290 0L300 47Q247-6 167-6Q102-6 60 28Q18 62 18 123Q18 196 64 242Q117 295 212 295L346 295L355 336Q358 350 358 366Q358 431 271 431Q197 431 148 377L95 442Q163 513 281 513Q352 513 404 481Q456 449 456 376M333 227L221 227Q172 227 143 201Q114 175 114 131Q114 74 195 74Q252 74 289 109Q314 134 324 182L333 227M415 784.50Q415 784.50 433 766.75Q451 749 451 698Q451 647 415 611Q379 575 328 575Q278 575 242 610.50Q206 646 206 698Q206 749 241.50 784.50Q277 820 328 820Q379 820 415 784.50M373.50 653Q373.50 653 383.25 662.50Q393 672 393 698Q393 724 373.50 743Q354 762 328 762Q302 762 283 743Q264 724 264 698Q264 672 283 653Q302 634 328 634Q354 634 373.50 653Z"  horiz-adv-x="505" vert-adv-y="1000"  />

      
      <glyph glyph-name="unie6" unicode="&#xe6;" d="M755 336Q755 294 741 226L426 226Q421 198 421 177Q421 131 446 103.50Q471 76 519 76Q589 76 650 132L703 68Q625-6 509-6Q460-6 419 14Q378 34 355 73Q293-6 180-6Q105-6 61 26.50Q17 59 17 123Q17 194 62 241Q115 294 211 294L346 294L354 335Q358 353 358 366Q358 431 270 431Q195 431 147 377L95 442Q161 513 281 513Q388 513 428 446Q490 513 582 513Q662 513 708.50 464.50Q755 416 755 336M332 226L221 226Q171 226 142 200.50Q113 175 113 131Q113 74 195 74Q253 74 288 109Q315 136 324 182L332 226M662 336Q662 383 638.50 408Q615 433 578 433Q476 433 439 294L658 294Q662 311 662 336Z"  horiz-adv-x="800" vert-adv-y="1000"  />

      
      <glyph glyph-name="unie7" unicode="&#xe7;" d="M457 440L384 377Q349 427 299 427Q248 427 208 386Q164 341 148 254Q141 219 141 183Q141 133 165.50 106.50Q190 80 231 80Q289 80 337 131L392 61Q322-6 223-6Q142-6 93 43.50Q44 93 44 176Q44 218 51 254Q76 387 145 450Q214 513 309 513Q404 513 457 440M250-61L173-206L79-206L169-61L250-61Z"  horiz-adv-x="462" vert-adv-y="1000"  />

      
      <glyph glyph-name="unie8" unicode="&#xe8;" d="M470 336Q470 291 455 226L141 226Q136 199 136 177Q136 131 160.50 103.50Q185 76 233 76Q303 76 364 132L418 68Q340-6 224-6Q147-6 95 38Q43 82 43 171Q43 256 68.50 331.50Q94 407 153.50 460Q213 513 297 513Q377 513 423.50 464Q470 415 470 336M377 336Q377 383 353.50 408Q330 433 292 433Q191 433 153 293L373 293Q377 323 377 336M363 595L286 595L215 754L312 754L363 595Z"  horiz-adv-x="514" vert-adv-y="1000"  />

      
      <glyph glyph-name="unie9" unicode="&#xe9;" d="M470 336Q470 291 455 226L141 226Q136 199 136 177Q136 131 160.50 103.50Q185 76 233 76Q303 76 364 132L418 68Q340-6 224-6Q147-6 95 38Q43 82 43 171Q43 256 68.50 331.50Q94 407 153.50 460Q213 513 297 513Q377 513 423.50 464Q470 415 470 336M377 336Q377 383 353.50 408Q330 433 292 433Q191 433 153 293L373 293Q377 323 377 336M488 754L358 595L274 595L388 754L488 754Z"  horiz-adv-x="514" vert-adv-y="1000"  />

      
      <glyph glyph-name="uniea" unicode="&#xea;" d="M470 336Q470 291 455 226L141 226Q136 199 136 177Q136 131 160.50 103.50Q185 76 233 76Q303 76 364 132L418 68Q340-6 224-6Q147-6 95 38Q43 82 43 171Q43 256 68.50 331.50Q94 407 153.50 460Q213 513 297 513Q377 513 423.50 464Q470 415 470 336M377 336Q377 383 353.50 408Q330 433 292 433Q191 433 153 293L373 293Q377 323 377 336M487 594L410 594L348 695L244 594L159 594L314 756L396 756L487 594Z"  horiz-adv-x="514" vert-adv-y="1000"  />

      
      <glyph glyph-name="unieb" unicode="&#xeb;" d="M470 336Q470 291 455 226L141 226Q136 199 136 177Q136 131 160.50 103.50Q185 76 233 76Q303 76 364 132L418 68Q340-6 224-6Q147-6 95 38Q43 82 43 171Q43 256 68.50 331.50Q94 407 153.50 460Q213 513 297 513Q377 513 423.50 464Q470 415 470 336M377 336Q377 383 353.50 408Q330 433 292 433Q191 433 153 293L373 293Q377 323 377 336M494 705L473 599L385 599L406 705L494 705M289 705L268 599L180 599L201 705L289 705Z"  horiz-adv-x="514" vert-adv-y="1000"  />

      
      <glyph glyph-name="uniec" unicode="&#xec;" d="M225 507L124 0L27 0L128 507L225 507M227 595L150 595L79 754L176 754L227 595Z"  horiz-adv-x="251" vert-adv-y="1000"  />

      
      <glyph glyph-name="unied" unicode="&#xed;" d="M225 507L124 0L27 0L128 507L225 507M358 754L228 595L144 595L258 754L358 754Z"  horiz-adv-x="251" vert-adv-y="1000"  />

      
      <glyph glyph-name="uniee" unicode="&#xee;" d="M225 507L124 0L27 0L128 507L225 507M351 594L274 594L212 695L108 594L23 594L178 756L260 756L351 594Z"  horiz-adv-x="251" vert-adv-y="1000"  />

      
      <glyph glyph-name="unief" unicode="&#xef;" d="M225 507L124 0L27 0L128 507L225 507M150 705L129 599L41 599L62 705L150 705M355 705L334 599L246 599L267 705L355 705Z"  horiz-adv-x="251" vert-adv-y="1000"  />

      
      <glyph glyph-name="unif0" unicode="&#xf0;" d="M465 645L452 576L402 576L434 483Q461 403 461 338Q461 301 451 249Q422 104 358 47Q299-6 212-6Q183-6 155.50 2.50Q128 11 102.50 29Q77 47 61.50 81Q46 115 46 161Q46 196 57 249Q84 389 147 449Q204 501 288 501Q313 501 334 493L304 576L192 576L206 645L284 645L260 717L359 717L382 645L465 645M364 334Q364 379 342 398.50Q320 418 288 418Q244 418 212 388Q175 352 154 249Q143 192 143 165Q143 120 165.50 99.50Q188 79 220 79Q264 79 296 111Q333 147 354 249Q364 302 364 334Z"  horiz-adv-x="509" vert-adv-y="1000"  />

      
      <glyph glyph-name="unif1" unicode="&#xf1;" d="M487 371Q487 345 482 318L418 0L321 0L383 311Q388 336 388 351Q388 388 366.50 407.50Q345 427 312 427Q296 427 279.50 422.50Q263 418 243.50 406.50Q224 395 208.50 370Q193 345 186 309L124 0L27 0L128 507L222 507L212 455Q265 513 353 513Q408 513 447.50 476.50Q487 440 487 371M512 654Q459 604 408 604Q375 604 336 624.50Q297 645 283 645Q255 645 221 613L183 662Q236 712 287 712Q320 712 359 691.50Q398 671 412 671Q442 671 474 703L512 654Z"  horiz-adv-x="540" vert-adv-y="1000"  />

      
      <glyph glyph-name="unif2" unicode="&#xf2;" d="M464 346Q464 304 455 254Q426 109 362 51Q300-6 211-6Q142-6 93 36Q44 78 44 161Q44 204 53 254Q82 398 146 456Q207 513 297 513Q366 513 415 471Q464 429 464 346M368 337Q368 382 346 404.50Q324 427 288 427Q242 427 210 395Q171 356 150 254Q140 203 140 171Q140 125 162.50 102.50Q185 80 220 80Q266 80 298 112Q338 151 358 254Q368 305 368 337M360 595L283 595L212 754L309 754L360 595Z"  horiz-adv-x="508" vert-adv-y="1000"  />

      
      <glyph glyph-name="unif3" unicode="&#xf3;" d="M464 346Q464 304 455 254Q426 109 362 51Q300-6 211-6Q142-6 93 36Q44 78 44 161Q44 204 53 254Q82 398 146 456Q207 513 297 513Q366 513 415 471Q464 429 464 346M368 337Q368 382 346 404.50Q324 427 288 427Q242 427 210 395Q171 356 150 254Q140 203 140 171Q140 125 162.50 102.50Q185 80 220 80Q266 80 298 112Q338 151 358 254Q368 305 368 337M485 754L355 595L271 595L385 754L485 754Z"  horiz-adv-x="508" vert-adv-y="1000"  />

      
      <glyph glyph-name="unif4" unicode="&#xf4;" d="M464 346Q464 304 455 254Q426 109 362 51Q300-6 211-6Q142-6 93 36Q44 78 44 161Q44 204 53 254Q82 398 146 456Q207 513 297 513Q366 513 415 471Q464 429 464 346M368 337Q368 382 346 404.50Q324 427 288 427Q242 427 210 395Q171 356 150 254Q140 203 140 171Q140 125 162.50 102.50Q185 80 220 80Q266 80 298 112Q338 151 358 254Q368 305 368 337M484 594L407 594L345 695L241 594L156 594L311 756L393 756L484 594Z"  horiz-adv-x="508" vert-adv-y="1000"  />

      
      <glyph glyph-name="unif5" unicode="&#xf5;" d="M464 346Q464 304 455 254Q426 109 362 51Q300-6 211-6Q142-6 93 36Q44 78 44 161Q44 204 53 254Q82 398 146 456Q207 513 297 513Q366 513 415 471Q464 429 464 346M368 337Q368 382 346 404.50Q324 427 288 427Q242 427 210 395Q171 356 150 254Q140 203 140 171Q140 125 162.50 102.50Q185 80 220 80Q266 80 298 112Q338 151 358 254Q368 305 368 337M497 654Q444 604 393 604Q360 604 321 624.50Q282 645 268 645Q240 645 206 613L168 662Q221 712 272 712Q305 712 344 691.50Q383 671 397 671Q427 671 459 703L497 654Z"  horiz-adv-x="508" vert-adv-y="1000"  />

      
      <glyph glyph-name="unif6" unicode="&#xf6;" d="M464 346Q464 304 455 254Q426 109 362 51Q300-6 211-6Q142-6 93 36Q44 78 44 161Q44 204 53 254Q82 398 146 456Q207 513 297 513Q366 513 415 471Q464 429 464 346M368 337Q368 382 346 404.50Q324 427 288 427Q242 427 210 395Q171 356 150 254Q140 203 140 171Q140 125 162.50 102.50Q185 80 220 80Q266 80 298 112Q338 151 358 254Q368 305 368 337M491 705L470 599L382 599L403 705L491 705M286 705L265 599L177 599L198 705L286 705Z"  horiz-adv-x="508" vert-adv-y="1000"  />

      
      <glyph glyph-name="unif7" unicode="&#xf7;" d="M475 323L457 233L43 233L61 323L475 323M355 513L335 410L231 410L252 513L355 513M286 146L266 43L162 43L183 146L286 146Z"  horiz-adv-x="506" vert-adv-y="1000"  />

      
      <glyph glyph-name="unif8" unicode="&#xf8;" d="M464 346Q464 304 455 254Q426 109 362 51Q300-6 211-6Q153-6 112 21L64-44L-2-44L73 57Q44 99 44 161Q44 204 53 254Q82 398 146 456Q207 513 297 513Q354 513 397 485L446 551L511 551L435 448Q464 408 464 346M140 171Q140 154 143 141L342 408Q322 427 288 427Q242 427 210 395Q171 356 150 254Q140 203 140 171M368 337Q368 350 365 364L167 98Q188 80 220 80Q266 80 298 112Q338 151 358 254Q368 305 368 337Z"  horiz-adv-x="512" vert-adv-y="1000"  />

      
      <glyph glyph-name="unif9" unicode="&#xf9;" d="M513 507L412 0L318 0L328 52Q275-6 187-6Q132-6 92.50 30.50Q53 67 53 136Q53 162 58 189L122 507L219 507L157 196Q152 171 152 156Q152 119 173.50 99.50Q195 80 228 80Q244 80 260.50 84.50Q277 89 296.50 100.50Q316 112 331.50 137Q347 162 354 198L416 507L513 507M369 595L292 595L221 754L318 754L369 595Z"  horiz-adv-x="540" vert-adv-y="1000"  />

      
      <glyph glyph-name="unifa" unicode="&#xfa;" d="M513 507L412 0L318 0L328 52Q275-6 187-6Q132-6 92.50 30.50Q53 67 53 136Q53 162 58 189L122 507L219 507L157 196Q152 171 152 156Q152 119 173.50 99.50Q195 80 228 80Q244 80 260.50 84.50Q277 89 296.50 100.50Q316 112 331.50 137Q347 162 354 198L416 507L513 507M494 754L364 595L280 595L394 754L494 754Z"  horiz-adv-x="540" vert-adv-y="1000"  />

      
      <glyph glyph-name="unifb" unicode="&#xfb;" d="M513 507L412 0L318 0L328 52Q275-6 187-6Q132-6 92.50 30.50Q53 67 53 136Q53 162 58 189L122 507L219 507L157 196Q152 171 152 156Q152 119 173.50 99.50Q195 80 228 80Q244 80 260.50 84.50Q277 89 296.50 100.50Q316 112 331.50 137Q347 162 354 198L416 507L513 507M493 594L416 594L354 695L250 594L165 594L320 756L402 756L493 594Z"  horiz-adv-x="540" vert-adv-y="1000"  />

      
      <glyph glyph-name="unifc" unicode="&#xfc;" d="M513 507L412 0L318 0L328 52Q275-6 187-6Q132-6 92.50 30.50Q53 67 53 136Q53 162 58 189L122 507L219 507L157 196Q152 171 152 156Q152 119 173.50 99.50Q195 80 228 80Q244 80 260.50 84.50Q277 89 296.50 100.50Q316 112 331.50 137Q347 162 354 198L416 507L513 507M500 705L479 599L391 599L412 705L500 705M295 705L274 599L186 599L207 705L295 705Z"  horiz-adv-x="540" vert-adv-y="1000"  />

      
      <glyph glyph-name="unifd" unicode="&#xfd;" d="M489 507L162-101Q141-139 119-161Q78-201 7-201L-33-201L-15-114L10-114Q40-114 55-101.50Q70-89 89-54L131 24L58 507L155 507L199 140L385 507L489 507M449 754L319 595L235 595L349 754L449 754Z"  horiz-adv-x="444" vert-adv-y="1000"  />

      
      <glyph glyph-name="unife" unicode="&#xfe;" d="M485 364Q485 318 472 254Q440 97 388 45Q337-6 257-6Q169-6 136 55L83-205L-14-205L169 712L266 712L216 458Q264 513 345 513Q418 513 451.50 470.50Q485 428 485 364M386 339Q386 427 310 427Q250 427 220.50 383Q191 339 175 254Q164 192 164 168Q164 80 239 80Q299 80 329 125Q359 170 375 254Q386 316 386 339Z"  horiz-adv-x="526" vert-adv-y="1000"  />

      
      <glyph glyph-name="uniff" unicode="&#xff;" d="M489 507L162-101Q141-139 119-161Q78-201 7-201L-33-201L-15-114L10-114Q40-114 55-101.50Q70-89 89-54L131 24L58 507L155 507L199 140L385 507L489 507M456 705L435 599L347 599L368 705L456 705M251 705L230 599L142 599L163 705L251 705Z"  horiz-adv-x="444" vert-adv-y="1000"  />

      
      <glyph glyph-name="uni0100" unicode="&#x0100;" d="M537 0L432 0L414 146L146 146L69 0L-42 0L348 712L431 712L537 0M405 231L362 558L189 231L405 231M264 863L558 863L544 795L250 795L264 863Z"  horiz-adv-x="594" vert-adv-y="1000"  />

      
      <glyph glyph-name="uni0101" unicode="&#x0101;" d="M456 376Q456 356 451 334L384 0L290 0L300 47Q247-6 167-6Q102-6 60 28Q18 62 18 123Q18 196 64 242Q117 295 212 295L346 295L355 336Q358 350 358 366Q358 431 271 431Q197 431 148 377L95 442Q163 513 281 513Q352 513 404 481Q456 449 456 376M333 227L221 227Q172 227 143 201Q114 175 114 131Q114 74 195 74Q252 74 289 109Q314 134 324 182L333 227M476 684L462 615L168 615L182 684L476 684Z"  horiz-adv-x="505" vert-adv-y="1000"  />

      
      <glyph glyph-name="uni0102" unicode="&#x0102;" d="M537 0L432 0L414 146L146 146L69 0L-42 0L348 712L431 712L537 0M405 231L362 558L189 231L405 231M564 906Q535 772 403 772Q342 772 308 800.50Q274 829 274 879Q274 893 276 906L345 906Q344 897 344 889Q344 866 362 853.50Q380 841 410 841Q480 841 494 906L564 906Z"  horiz-adv-x="594" vert-adv-y="1000"  />

      
      <glyph glyph-name="uni0103" unicode="&#x0103;" d="M456 376Q456 356 451 334L384 0L290 0L300 47Q247-6 167-6Q102-6 60 28Q18 62 18 123Q18 196 64 242Q117 295 212 295L346 295L355 336Q358 350 358 366Q358 431 271 431Q197 431 148 377L95 442Q163 513 281 513Q352 513 404 481Q456 449 456 376M333 227L221 227Q172 227 143 201Q114 175 114 131Q114 74 195 74Q252 74 289 109Q314 134 324 182L333 227M475 720Q446 586 314 586Q253 586 219 614.50Q185 643 185 693Q185 707 187 720L256 720Q255 711 255 703Q255 680 273 667.50Q291 655 321 655Q391 655 405 720L475 720Z"  horiz-adv-x="505" vert-adv-y="1000"  />

      
      <glyph glyph-name="uni0104" unicode="&#x0104;" d="M537 0L432 0L414 146L146 146L69 0L-42 0L348 712L431 712L537 0M405 231L362 558L189 231L405 231M514-61L437-206L343-206L433-61L514-61Z"  horiz-adv-x="594" vert-adv-y="1000"  />

      
      <glyph glyph-name="uni0105" unicode="&#x0105;" d="M456 376Q456 356 451 334L384 0L290 0L300 47Q247-6 167-6Q102-6 60 28Q18 62 18 123Q18 196 64 242Q117 295 212 295L346 295L355 336Q358 350 358 366Q358 431 271 431Q197 431 148 377L95 442Q163 513 281 513Q352 513 404 481Q456 449 456 376M333 227L221 227Q172 227 143 201Q114 175 114 131Q114 74 195 74Q252 74 289 109Q314 134 324 182L333 227M361-61L284-206L190-206L280-61L361-61Z"  horiz-adv-x="505" vert-adv-y="1000"  />

      
      <glyph glyph-name="uni0106" unicode="&#x0106;" d="M594 503L491 503Q490 560 461.50 594Q433 628 379 628Q312 628 264 577Q239 551 223 506Q207 461 186 356Q164 245 164 197Q164 145 197 114.50Q230 84 280 84Q339 84 379.50 119.50Q420 155 439 209L545 209Q512 105 439.50 49.50Q367-6 272-6Q179-6 120 48.50Q61 103 61 191Q61 247 83 356Q108 482 127.50 538Q147 594 189 638Q264 718 384 718Q486 718 540 658.50Q594 599 594 503M565 936L435 777L351 777L465 936L565 936Z"  horiz-adv-x="599" vert-adv-y="1000"  />

      
      <glyph glyph-name="uni0107" unicode="&#x0107;" d="M457 440L384 377Q349 427 299 427Q248 427 208 386Q164 341 148 254Q141 219 141 183Q141 133 165.50 106.50Q190 80 231 80Q289 80 337 131L392 61Q322-6 223-6Q142-6 93 43.50Q44 93 44 176Q44 218 51 254Q76 387 145 450Q214 513 309 513Q404 513 457 440M496 754L366 595L282 595L396 754L496 754Z"  horiz-adv-x="462" vert-adv-y="1000"  />

      
      <glyph glyph-name="uni0108" unicode="&#x0108;" d="M594 503L491 503Q490 560 461.50 594Q433 628 379 628Q312 628 264 577Q239 551 223 506Q207 461 186 356Q164 245 164 197Q164 145 197 114.50Q230 84 280 84Q339 84 379.50 119.50Q420 155 439 209L545 209Q512 105 439.50 49.50Q367-6 272-6Q179-6 120 48.50Q61 103 61 191Q61 247 83 356Q108 482 127.50 538Q147 594 189 638Q264 718 384 718Q486 718 540 658.50Q594 599 594 503M564 776L487 776L425 876L321 776L236 776L391 938L473 938L564 776Z"  horiz-adv-x="599" vert-adv-y="1000"  />

      
      <glyph glyph-name="uni0109" unicode="&#x0109;" d="M457 440L384 377Q349 427 299 427Q248 427 208 386Q164 341 148 254Q141 219 141 183Q141 133 165.50 106.50Q190 80 231 80Q289 80 337 131L392 61Q322-6 223-6Q142-6 93 43.50Q44 93 44 176Q44 218 51 254Q76 387 145 450Q214 513 309 513Q404 513 457 440M495 594L418 594L356 695L252 594L167 594L322 756L404 756L495 594Z"  horiz-adv-x="462" vert-adv-y="1000"  />

      
      <glyph glyph-name="uni010A" unicode="&#x010A;" d="M594 503L491 503Q490 560 461.50 594Q433 628 379 628Q312 628 264 577Q239 551 223 506Q207 461 186 356Q164 245 164 197Q164 145 197 114.50Q230 84 280 84Q339 84 379.50 119.50Q420 155 439 209L545 209Q512 105 439.50 49.50Q367-6 272-6Q179-6 120 48.50Q61 103 61 191Q61 247 83 356Q108 482 127.50 538Q147 594 189 638Q264 718 384 718Q486 718 540 658.50Q594 599 594 503M379 883L470 883L451 789L360 789L379 883Z"  horiz-adv-x="599" vert-adv-y="1000"  />

      
      <glyph glyph-name="uni010B" unicode="&#x010B;" d="M457 440L384 377Q349 427 299 427Q248 427 208 386Q164 341 148 254Q141 219 141 183Q141 133 165.50 106.50Q190 80 231 80Q289 80 337 131L392 61Q322-6 223-6Q142-6 93 43.50Q44 93 44 176Q44 218 51 254Q76 387 145 450Q214 513 309 513Q404 513 457 440M400 701L382 607L291 607L310 701L400 701Z"  horiz-adv-x="462" vert-adv-y="1000"  />

      
      <glyph glyph-name="uni010C" unicode="&#x010C;" d="M594 503L491 503Q490 560 461.50 594Q433 628 379 628Q312 628 264 577Q239 551 223 506Q207 461 186 356Q164 245 164 197Q164 145 197 114.50Q230 84 280 84Q339 84 379.50 119.50Q420 155 439 209L545 209Q512 105 439.50 49.50Q367-6 272-6Q179-6 120 48.50Q61 103 61 191Q61 247 83 356Q108 482 127.50 538Q147 594 189 638Q264 718 384 718Q486 718 540 658.50Q594 599 594 503M600 938L445 776L363 776L271 938L349 938L411 837L515 938L600 938Z"  horiz-adv-x="599" vert-adv-y="1000"  />

      
      <glyph glyph-name="uni010D" unicode="&#x010D;" d="M457 440L384 377Q349 427 299 427Q248 427 208 386Q164 341 148 254Q141 219 141 183Q141 133 165.50 106.50Q190 80 231 80Q289 80 337 131L392 61Q322-6 223-6Q142-6 93 43.50Q44 93 44 176Q44 218 51 254Q76 387 145 450Q214 513 309 513Q404 513 457 440M526 756L371 594L289 594L198 756L275 756L337 656L441 756L526 756Z"  horiz-adv-x="462" vert-adv-y="1000"  />

      
      <glyph glyph-name="uni010E" unicode="&#x010E;" d="M613 516Q613 471 592 362Q566 230 543 170Q520 110 474 67Q403 0 283 0L38 0L181 712L408 712Q497 712 555 664.50Q613 617 613 516M510 508Q510 563 479.50 592.50Q449 622 390 622L266 622L160 90L282 90Q357 90 406 135Q433 160 451.50 209.50Q470 259 489 362Q510 471 510 508M603 938L448 776L366 776L274 938L352 938L414 837L518 938L603 938Z"  horiz-adv-x="632" vert-adv-y="1000"  />

      
      <glyph glyph-name="uni010F" unicode="&#x010F;" d="M541 712L399 0L305 0L316 54Q265-6 183-6Q108-6 75 36.50Q42 79 42 144Q42 184 56 254Q87 410 139 462Q190 513 272 513Q356 513 392 451L444 712L541 712M364 340Q364 427 288 427Q228 427 198.50 383Q169 339 153 254Q142 192 142 167Q142 80 217 80Q277 80 307 125Q337 170 353 254Q364 316 364 340M737 730L651 571L576 571L644 730L737 730Z"  horiz-adv-x="526" vert-adv-y="1000"  />

      
      <glyph glyph-name="uni0110" unicode="&#x0110;" d="M631 516Q631 476 609 362Q583 230 560 170Q537 110 491 67Q420 0 301 0L56 0L120 320L50 320L66 399L136 399L199 712L426 712Q515 712 573 664.50Q631 617 631 516M528 508Q528 563 497.50 592.50Q467 622 408 622L284 622L239 399L370 399L355 320L223 320L177 90L300 90Q375 90 424 135Q451 160 469 209Q487 258 506 362Q528 476 528 508Z"  horiz-adv-x="650" vert-adv-y="1000"  />

      
      <glyph glyph-name="uni0111" unicode="&#x0111;" d="M581 634L568 571L513 571L399 0L305 0L316 54Q265-6 183-6Q108-6 75 36.50Q42 79 42 144Q42 184 56 254Q87 410 139 462Q190 513 272 513Q356 513 392 451L416 571L311 571L324 634L428 634L444 712L541 712L525 634L581 634M364 340Q364 427 288 427Q228 427 198.50 383Q169 339 153 254Q142 192 142 167Q142 80 217 80Q277 80 307 125Q337 170 353 254Q364 316 364 340Z"  horiz-adv-x="581" vert-adv-y="1000"  />

      
      <glyph glyph-name="uni0112" unicode="&#x0112;" d="M613 712L595 622L266 622L223 404L505 404L487 314L205 314L160 90L495 90L477 0L38 0L181 712L613 712M265 863L559 863L545 795L251 795L265 863Z"  horiz-adv-x="575" vert-adv-y="1000"  />

      
      <glyph glyph-name="uni0113" unicode="&#x0113;" d="M470 336Q470 291 455 226L141 226Q136 199 136 177Q136 131 160.50 103.50Q185 76 233 76Q303 76 364 132L418 68Q340-6 224-6Q147-6 95 38Q43 82 43 171Q43 256 68.50 331.50Q94 407 153.50 460Q213 513 297 513Q377 513 423.50 464Q470 415 470 336M377 336Q377 383 353.50 408Q330 433 292 433Q191 433 153 293L373 293Q377 323 377 336M491 684L477 615L183 615L197 684L491 684Z"  horiz-adv-x="514" vert-adv-y="1000"  />

      
      <glyph glyph-name="uni0114" unicode="&#x0114;" d="M613 712L595 622L266 622L223 404L505 404L487 314L205 314L160 90L495 90L477 0L38 0L181 712L613 712M556 906Q527 772 395 772Q334 772 300 800.50Q266 829 266 879Q266 893 268 906L337 906Q336 897 336 889Q336 866 354 853.50Q372 841 402 841Q472 841 486 906L556 906Z"  horiz-adv-x="575" vert-adv-y="1000"  />

      
      <glyph glyph-name="uni0115" unicode="&#x0115;" d="M470 336Q470 291 455 226L141 226Q136 199 136 177Q136 131 160.50 103.50Q185 76 233 76Q303 76 364 132L418 68Q340-6 224-6Q147-6 95 38Q43 82 43 171Q43 256 68.50 331.50Q94 407 153.50 460Q213 513 297 513Q377 513 423.50 464Q470 415 470 336M377 336Q377 383 353.50 408Q330 433 292 433Q191 433 153 293L373 293Q377 323 377 336M440 720Q411 586 279 586Q218 586 184 614.50Q150 643 150 693Q150 707 152 720L221 720Q220 711 220 703Q220 680 238 667.50Q256 655 286 655Q356 655 370 720L440 720Z"  horiz-adv-x="514" vert-adv-y="1000"  />

      
      <glyph glyph-name="uni0116" unicode="&#x0116;" d="M613 712L595 622L266 622L223 404L505 404L487 314L205 314L160 90L495 90L477 0L38 0L181 712L613 712M372 883L463 883L444 789L353 789L372 883Z"  horiz-adv-x="575" vert-adv-y="1000"  />

      
      <glyph glyph-name="uni0117" unicode="&#x0117;" d="M470 336Q470 291 455 226L141 226Q136 199 136 177Q136 131 160.50 103.50Q185 76 233 76Q303 76 364 132L418 68Q340-6 224-6Q147-6 95 38Q43 82 43 171Q43 256 68.50 331.50Q94 407 153.50 460Q213 513 297 513Q377 513 423.50 464Q470 415 470 336M377 336Q377 383 353.50 408Q330 433 292 433Q191 433 153 293L373 293Q377 323 377 336M392 701L374 607L283 607L302 701L392 701Z"  horiz-adv-x="514" vert-adv-y="1000"  />

      
      <glyph glyph-name="uni0118" unicode="&#x0118;" d="M613 712L595 622L266 622L223 404L505 404L487 314L205 314L160 90L495 90L477 0L38 0L181 712L613 712M453-61L376-206L282-206L372-61L453-61Z"  horiz-adv-x="575" vert-adv-y="1000"  />

      
      <glyph glyph-name="uni0119" unicode="&#x0119;" d="M470 336Q470 291 455 226L141 226Q136 199 136 177Q136 131 160.50 103.50Q185 76 233 76Q303 76 364 132L418 68Q340-6 224-6Q147-6 95 38Q43 82 43 171Q43 256 68.50 331.50Q94 407 153.50 460Q213 513 297 513Q377 513 423.50 464Q470 415 470 336M377 336Q377 383 353.50 408Q330 433 292 433Q191 433 153 293L373 293Q377 323 377 336M332-61L255-206L161-206L251-61L332-61Z"  horiz-adv-x="514" vert-adv-y="1000"  />

      
      <glyph glyph-name="uni011A" unicode="&#x011A;" d="M613 712L595 622L266 622L223 404L505 404L487 314L205 314L160 90L495 90L477 0L38 0L181 712L613 712M588 938L433 776L351 776L259 938L337 938L399 837L503 938L588 938Z"  horiz-adv-x="575" vert-adv-y="1000"  />

      
      <glyph glyph-name="uni011B" unicode="&#x011B;" d="M470 336Q470 291 455 226L141 226Q136 199 136 177Q136 131 160.50 103.50Q185 76 233 76Q303 76 364 132L418 68Q340-6 224-6Q147-6 95 38Q43 82 43 171Q43 256 68.50 331.50Q94 407 153.50 460Q213 513 297 513Q377 513 423.50 464Q470 415 470 336M377 336Q377 383 353.50 408Q330 433 292 433Q191 433 153 293L373 293Q377 323 377 336M518 756L363 594L281 594L190 756L267 756L329 656L433 756L518 756Z"  horiz-adv-x="514" vert-adv-y="1000"  />

      
      <glyph glyph-name="uni011C" unicode="&#x011C;" d="M598 502L495 502Q493 561 463.50 594.50Q434 628 381 628Q313 628 265 577Q238 550 222.50 504.50Q207 459 186 356Q164 245 164 197Q164 145 197.50 114.50Q231 84 280 84Q337 84 386.50 126.50Q436 169 452 252L460 297L315 297L331 383L579 383L559 276Q534 145 465 73Q388-6 273-6Q176-6 118.50 49Q61 104 61 191Q61 252 83 356Q110 489 129 541.50Q148 594 190 638Q226 676 278 697Q330 718 385 718Q487 718 542 658.50Q597 599 598 502M564 776L487 776L425 876L321 776L236 776L391 938L473 938L564 776Z"  horiz-adv-x="618" vert-adv-y="1000"  />

      
      <glyph glyph-name="uni011D" unicode="&#x011D;" d="M496 507L396 4Q373-110 307-160.50Q241-211 155-211Q52-211-7-142L61-83Q99-129 156-129Q209-129 247.50-95Q286-61 300 5L313 69Q266 12 187 12Q123 12 84 51Q45 90 45 161Q45 198 57 263Q83 407 137 461Q189 513 270 513Q356 513 390 449L402 507L496 507M361 342Q361 427 285 427Q228 427 198.50 384.50Q169 342 154 262Q144 209 144 183Q144 98 219 98Q275 98 305.50 141Q336 184 351 263Q361 316 361 342M482 594L405 594L343 695L239 594L154 594L309 756L391 756L482 594Z"  horiz-adv-x="522" vert-adv-y="1000"  />

      
      <glyph glyph-name="uni011E" unicode="&#x011E;" d="M598 502L495 502Q493 561 463.50 594.50Q434 628 381 628Q313 628 265 577Q238 550 222.50 504.50Q207 459 186 356Q164 245 164 197Q164 145 197.50 114.50Q231 84 280 84Q337 84 386.50 126.50Q436 169 452 252L460 297L315 297L331 383L579 383L559 276Q534 145 465 73Q388-6 273-6Q176-6 118.50 49Q61 104 61 191Q61 252 83 356Q110 489 129 541.50Q148 594 190 638Q226 676 278 697Q330 718 385 718Q487 718 542 658.50Q597 599 598 502M572 906Q543 772 411 772Q350 772 316 800.50Q282 829 282 879Q282 893 284 906L353 906Q352 897 352 889Q352 866 370 853.50Q388 841 418 841Q488 841 502 906L572 906Z"  horiz-adv-x="618" vert-adv-y="1000"  />

      
      <glyph glyph-name="uni011F" unicode="&#x011F;" d="M496 507L396 4Q373-110 307-160.50Q241-211 155-211Q52-211-7-142L61-83Q99-129 156-129Q209-129 247.50-95Q286-61 300 5L313 69Q266 12 187 12Q123 12 84 51Q45 90 45 161Q45 198 57 263Q83 407 137 461Q189 513 270 513Q356 513 390 449L402 507L496 507M361 342Q361 427 285 427Q228 427 198.50 384.50Q169 342 154 262Q144 209 144 183Q144 98 219 98Q275 98 305.50 141Q336 184 351 263Q361 316 361 342M485 720Q456 586 324 586Q263 586 229 614.50Q195 643 195 693Q195 707 197 720L266 720Q265 711 265 703Q265 680 283 667.50Q301 655 331 655Q401 655 415 720L485 720Z"  horiz-adv-x="522" vert-adv-y="1000"  />

      
      <glyph glyph-name="uni0120" unicode="&#x0120;" d="M598 502L495 502Q493 561 463.50 594.50Q434 628 381 628Q313 628 265 577Q238 550 222.50 504.50Q207 459 186 356Q164 245 164 197Q164 145 197.50 114.50Q231 84 280 84Q337 84 386.50 126.50Q436 169 452 252L460 297L315 297L331 383L579 383L559 276Q534 145 465 73Q388-6 273-6Q176-6 118.50 49Q61 104 61 191Q61 252 83 356Q110 489 129 541.50Q148 594 190 638Q226 676 278 697Q330 718 385 718Q487 718 542 658.50Q597 599 598 502M379 883L470 883L451 789L360 789L379 883Z"  horiz-adv-x="618" vert-adv-y="1000"  />

      
      <glyph glyph-name="uni0121" unicode="&#x0121;" d="M496 507L396 4Q373-110 307-160.50Q241-211 155-211Q52-211-7-142L61-83Q99-129 156-129Q209-129 247.50-95Q286-61 300 5L313 69Q266 12 187 12Q123 12 84 51Q45 90 45 161Q45 198 57 263Q83 407 137 461Q189 513 270 513Q356 513 390 449L402 507L496 507M361 342Q361 427 285 427Q228 427 198.50 384.50Q169 342 154 262Q144 209 144 183Q144 98 219 98Q275 98 305.50 141Q336 184 351 263Q361 316 361 342M387 701L369 607L278 607L297 701L387 701Z"  horiz-adv-x="522" vert-adv-y="1000"  />

      
      <glyph glyph-name="uni0122" unicode="&#x0122;" d="M598 502L495 502Q493 561 463.50 594.50Q434 628 381 628Q313 628 265 577Q238 550 222.50 504.50Q207 459 186 356Q164 245 164 197Q164 145 197.50 114.50Q231 84 280 84Q337 84 386.50 126.50Q436 169 452 252L460 297L315 297L331 383L579 383L559 276Q534 145 465 73Q388-6 273-6Q176-6 118.50 49Q61 104 61 191Q61 252 83 356Q110 489 129 541.50Q148 594 190 638Q226 676 278 697Q330 718 385 718Q487 718 542 658.50Q597 599 598 502M306-61L229-206L134-206L224-61L306-61Z"  horiz-adv-x="618" vert-adv-y="1000"  />

      
      <glyph glyph-name="uni0123" unicode="&#x0123;" d="M496 507L396 4Q373-110 307-160.50Q241-211 155-211Q52-211-7-142L61-83Q99-129 156-129Q209-129 247.50-95Q286-61 300 5L313 69Q266 12 187 12Q123 12 84 51Q45 90 45 161Q45 198 57 263Q83 407 137 461Q189 513 270 513Q356 513 390 449L402 507L496 507M361 342Q361 427 285 427Q228 427 198.50 384.50Q169 342 154 262Q144 209 144 183Q144 98 219 98Q275 98 305.50 141Q336 184 351 263Q361 316 361 342M482 754L352 595L268 595L382 754L482 754Z"  horiz-adv-x="522" vert-adv-y="1000"  />

      
      <glyph glyph-name="uni0124" unicode="&#x0124;" d="M661 712L518 0L415 0L478 315L205 315L141 0L38 0L181 712L284 712L223 405L497 405L558 712L661 712M592 776L515 776L453 876L349 776L264 776L419 938L501 938L592 776Z"  horiz-adv-x="656" vert-adv-y="1000"  />

      
      <glyph glyph-name="uni0125" unicode="&#x0125;" d="M393 779L316 779L254 880L150 779L65 779L220 941L302 941L393 779M487 371Q487 345 482 318L418 0L321 0L383 311Q388 336 388 351Q388 388 366.50 407.50Q345 427 312 427Q296 427 279.50 422.50Q263 418 243.50 406.50Q224 395 208.50 370Q193 345 186 309L124 0L27 0L169 712L266 712L215 460Q268 513 351 513Q408 513 447.50 476.50Q487 440 487 371Z"  horiz-adv-x="540" vert-adv-y="1000"  />

      
      <glyph glyph-name="uni0126" unicode="&#x0126;" d="M718 592L701 512L633 512L530 0L427 0L490 315L217 315L153 0L50 0L153 512L83 512L100 592L169 592L193 712L296 712L272 592L546 592L570 712L673 712L649 592L718 592M530 512L256 512L235 405L509 405L530 512Z"  horiz-adv-x="725" vert-adv-y="1000"  />

      
      <glyph glyph-name="uni0127" unicode="&#x0127;" d="M500 371Q500 350 494 318L430 0L333 0L395 311Q400 333 400 351Q400 388 378.50 407.50Q357 427 324 427Q308 427 291.50 422.50Q275 418 255.50 406.50Q236 395 220.50 370Q205 345 198 309L136 0L39 0L153 571L98 571L111 634L165 634L181 712L278 712L262 634L367 634L354 571L250 571L228 460Q281 513 364 513Q420 513 460 476.50Q500 440 500 371Z"  horiz-adv-x="554" vert-adv-y="1000"  />

      
      <glyph glyph-name="uni0128" unicode="&#x0128;" d="M284 712L141 0L38 0L181 712L284 712M417 839Q364 789 313 789Q280 789 241 809.50Q202 830 188 830Q160 830 126 798L88 847Q141 897 192 897Q225 897 264 876.50Q303 856 317 856Q347 856 379 888L417 839Z"  horiz-adv-x="279" vert-adv-y="1000"  />

      
      <glyph glyph-name="uni0129" unicode="&#x0129;" d="M225 507L124 0L27 0L128 507L225 507M376 654Q323 604 272 604Q239 604 200 624.50Q161 645 147 645Q119 645 85 613L47 662Q100 712 151 712Q184 712 223 691.50Q262 671 276 671Q306 671 338 703L376 654Z"  horiz-adv-x="251" vert-adv-y="1000"  />

      
      <glyph glyph-name="uni012A" unicode="&#x012A;" d="M284 712L141 0L38 0L181 712L284 712M108 863L402 863L388 795L94 795L108 863Z"  horiz-adv-x="279" vert-adv-y="1000"  />

      
      <glyph glyph-name="uni012B" unicode="&#x012B;" d="M225 507L124 0L27 0L128 507L225 507M357 684L343 615L49 615L63 684L357 684Z"  horiz-adv-x="251" vert-adv-y="1000"  />

      
      <glyph glyph-name="uni012C" unicode="&#x012C;" d="M284 712L141 0L38 0L181 712L284 712M412 906Q383 772 251 772Q190 772 156 800.50Q122 829 122 879Q122 893 124 906L193 906Q192 897 192 889Q192 866 210 853.50Q228 841 258 841Q328 841 342 906L412 906Z"  horiz-adv-x="279" vert-adv-y="1000"  />

      
      <glyph glyph-name="uni012D" unicode="&#x012D;" d="M225 507L124 0L27 0L128 507L225 507M359 720Q330 586 198 586Q137 586 103 614.50Q69 643 69 693Q69 707 71 720L140 720Q139 711 139 703Q139 680 157 667.50Q175 655 205 655Q275 655 289 720L359 720Z"  horiz-adv-x="251" vert-adv-y="1000"  />

      
      <glyph glyph-name="uni012E" unicode="&#x012E;" d="M284 712L141 0L38 0L181 712L284 712M114-61L37-206L-57-206L33-61L114-61Z"  horiz-adv-x="279" vert-adv-y="1000"  />

      
      <glyph glyph-name="uni012F" unicode="&#x012F;" d="M226 507L124 0L27 0L129 507L226 507M268 708L250 620L147 620L164 708L268 708M99-61L22-206L-72-206L18-61L99-61Z"  horiz-adv-x="251" vert-adv-y="1000"  />

      
      <glyph glyph-name="uni0130" unicode="&#x0130;" d="M284 712L141 0L38 0L181 712L284 712M221 883L312 883L293 789L202 789L221 883Z"  horiz-adv-x="279" vert-adv-y="1000"  />

      
      <glyph glyph-name="uni0131" unicode="&#x0131;" d="M225 507L124 0L27 0L128 507L225 507Z"  horiz-adv-x="251" vert-adv-y="1000"  />

      
      <glyph glyph-name="uni0132" unicode="&#x0132;" d="M284 712L141 0L38 0L181 712L284 712M773 712L675 219Q651 102 581.50 48Q512-6 424-6Q315-6 258 65L332 129Q369 84 427 84Q478 84 518.50 120Q559 156 574 229L670 712L773 712Z"  horiz-adv-x="760" vert-adv-y="1000"  />

      
      <glyph glyph-name="uni0133" unicode="&#x0133;" d="M226 507L124 0L27 0L129 507L226 507M268 708L250 620L147 620L164 708L268 708M477 507L361-70Q333-208 206-208L142-208L158-125L197-125Q254-125 266-61L380 507L477 507M519 708L501 620L398 620L415 708L519 708Z"  horiz-adv-x="502" vert-adv-y="1000"  />

      
      <glyph glyph-name="uni0134" unicode="&#x0134;" d="M494 712L396 219Q372 102 302.50 48Q233-6 145-6Q36-6-21 65L53 129Q90 84 148 84Q199 84 239.50 120Q280 156 295 229L391 712L494 712M612 776L535 776L473 876L369 776L284 776L439 938L521 938L612 776Z"  horiz-adv-x="481" vert-adv-y="1000"  />

      
      <glyph glyph-name="uni0135" unicode="&#x0135;" d="M226 507L110-70Q82-208-45-208L-109-208L-93-125L-54-125Q3-125 15-61L129 507L226 507M351 594L274 594L212 695L108 594L23 594L178 756L260 756L351 594Z"  horiz-adv-x="251" vert-adv-y="1000"  />

      
      <glyph glyph-name="uni0136" unicode="&#x0136;" d="M685 712L410 424L574 0L461 0L328 355L182 210L140 0L38 0L181 712L283 712L212 355L557 712L685 712M318-61L241-206L146-206L236-61L318-61Z"  horiz-adv-x="629" vert-adv-y="1000"  />

      
      <glyph glyph-name="uni0137" unicode="&#x0137;" d="M530 507L322 303L457 0L346 0L248 242L155 154L124 0L27 0L169 712L266 712L180 275L412 507L530 507M271-61L194-206L99-206L189-61L271-61Z"  horiz-adv-x="523" vert-adv-y="1000"  />

      
      <glyph glyph-name="uni0138" unicode="&#x0138;" d="M529 507L322 303L457 0L346 0L248 242L155 154L124 0L27 0L128 507L225 507L180 275L411 507L529 507Z"  horiz-adv-x="523" vert-adv-y="1000"  />

      
      <glyph glyph-name="uni0139" unicode="&#x0139;" d="M488 90L470 0L38 0L181 712L284 712L160 90L488 90M401 936L271 777L187 777L301 936L401 936Z"  horiz-adv-x="548" vert-adv-y="1000"  />

      
      <glyph glyph-name="uni013A" unicode="&#x013A;" d="M263 712L150 145Q146 121 146 118Q146 82 193 82L239 82L222 0L162 0Q114 0 81.50 26Q49 52 49 103Q49 126 53 145L166 712L263 712M392 939L262 780L178 780L292 939L392 939Z"  horiz-adv-x="298" vert-adv-y="1000"  />

      
      <glyph glyph-name="uni013B" unicode="&#x013B;" d="M488 90L470 0L38 0L181 712L284 712L160 90L488 90M293-61L216-206L121-206L211-61L293-61Z"  horiz-adv-x="548" vert-adv-y="1000"  />

      
      <glyph glyph-name="uni013C" unicode="&#x013C;" d="M263 712L150 145Q146 121 146 118Q146 82 193 82L239 82L222 0L162 0Q114 0 81.50 26Q49 52 49 103Q49 126 53 145L166 712L263 712M152-61L75-206L-20-206L70-61L152-61Z"  horiz-adv-x="298" vert-adv-y="1000"  />

      
      <glyph glyph-name="uni013D" unicode="&#x013D;" d="M488 90L470 0L38 0L181 712L284 712L160 90L488 90M503 712L417 553L342 553L410 712L503 712Z"  horiz-adv-x="548" vert-adv-y="1000"  />

      
      <glyph glyph-name="uni013E" unicode="&#x013E;" d="M263 712L150 145Q146 121 146 118Q146 82 193 82L239 82L222 0L162 0Q114 0 81.50 26Q49 52 49 103Q49 126 53 145L166 712L263 712M460 730L374 571L299 571L367 730L460 730Z"  horiz-adv-x="298" vert-adv-y="1000"  />

      
      <glyph glyph-name="uni013F" unicode="&#x013F;" d="M488 90L470 0L38 0L181 712L284 712L160 90L488 90M402 406L493 406L474 312L383 312L402 406Z"  horiz-adv-x="548" vert-adv-y="1000"  />

      
      <glyph glyph-name="uni0140" unicode="&#x0140;" d="M263 712L150 145Q146 121 146 118Q146 82 193 82L239 82L222 0L162 0Q114 0 81.50 26Q49 52 49 103Q49 126 53 145L166 712L263 712M365 325L347 231L256 231L275 325L365 325Z"  horiz-adv-x="356" vert-adv-y="1000"  />

      
      <glyph glyph-name="uni0141" unicode="&#x0141;" d="M501 90L484 0L52 0L105 267L32 224L50 316L124 359L194 712L297 712L240 425L392 514L373 422L221 333L173 90L501 90Z"  horiz-adv-x="561" vert-adv-y="1000"  />

      
      <glyph glyph-name="uni0142" unicode="&#x0142;" d="M303 511L285 423L210 380L163 145Q160 127 160 118Q160 82 206 82L252 82L235 0L176 0Q128 0 95 26Q62 52 62 103Q62 126 66 145L102 322L39 286L56 374L119 409L180 712L276 712L227 467L303 511Z"  horiz-adv-x="312" vert-adv-y="1000"  />

      
      <glyph glyph-name="uni0143" unicode="&#x0143;" d="M691 712L548 0L458 0L244 510L141 0L38 0L181 712L272 712L486 202L588 712L691 712M596 936L466 777L382 777L496 936L596 936Z"  horiz-adv-x="686" vert-adv-y="1000"  />

      
      <glyph glyph-name="uni0144" unicode="&#x0144;" d="M487 371Q487 345 482 318L418 0L321 0L383 311Q388 336 388 351Q388 388 366.50 407.50Q345 427 312 427Q296 427 279.50 422.50Q263 418 243.50 406.50Q224 395 208.50 370Q193 345 186 309L124 0L27 0L128 507L222 507L212 455Q265 513 353 513Q408 513 447.50 476.50Q487 440 487 371M500 754L370 595L286 595L400 754L500 754Z"  horiz-adv-x="540" vert-adv-y="1000"  />

      
      <glyph glyph-name="uni0145" unicode="&#x0145;" d="M691 712L548 0L458 0L244 510L141 0L38 0L181 712L272 712L486 202L588 712L691 712M346-61L269-206L174-206L264-61L346-61Z"  horiz-adv-x="686" vert-adv-y="1000"  />

      
      <glyph glyph-name="uni0146" unicode="&#x0146;" d="M487 371Q487 345 482 318L418 0L321 0L383 311Q388 336 388 351Q388 388 366.50 407.50Q345 427 312 427Q296 427 279.50 422.50Q263 418 243.50 406.50Q224 395 208.50 370Q193 345 186 309L124 0L27 0L128 507L222 507L212 455Q265 513 353 513Q408 513 447.50 476.50Q487 440 487 371M276-61L199-206L104-206L194-61L276-61Z"  horiz-adv-x="540" vert-adv-y="1000"  />

      
      <glyph glyph-name="uni0147" unicode="&#x0147;" d="M691 712L548 0L458 0L244 510L141 0L38 0L181 712L272 712L486 202L588 712L691 712M626 938L471 776L389 776L297 938L375 938L437 837L541 938L626 938Z"  horiz-adv-x="686" vert-adv-y="1000"  />

      
      <glyph glyph-name="uni0148" unicode="&#x0148;" d="M487 371Q487 345 482 318L418 0L321 0L383 311Q388 336 388 351Q388 388 366.50 407.50Q345 427 312 427Q296 427 279.50 422.50Q263 418 243.50 406.50Q224 395 208.50 370Q193 345 186 309L124 0L27 0L128 507L222 507L212 455Q265 513 353 513Q408 513 447.50 476.50Q487 440 487 371M530 756L375 594L293 594L202 756L279 756L341 656L445 756L530 756Z"  horiz-adv-x="540" vert-adv-y="1000"  />

      
      <glyph glyph-name="uni0149" unicode="&#x0149;" d="M487 371Q487 345 482 318L418 0L321 0L383 311Q388 336 388 351Q388 388 366.50 407.50Q345 427 312 427Q296 427 279.50 422.50Q263 418 243.50 406.50Q224 395 208.50 370Q193 345 186 309L124 0L27 0L128 507L222 507L212 455Q265 513 353 513Q408 513 447.50 476.50Q487 440 487 371M173 730L148 607L44 532L84 730L173 730Z"  horiz-adv-x="540" vert-adv-y="1000"  />

      
      <glyph glyph-name="uni014A" unicode="&#x014A;" d="M691 712L535-68Q507-206 380-206L316-206L332-123L377-123Q434-123 446-59L458 0L244 510L141 0L38 0L181 712L272 712L486 202L588 712L691 712Z"  horiz-adv-x="686" vert-adv-y="1000"  />

      
      <glyph glyph-name="uni014B" unicode="&#x014B;" d="M487 371Q487 345 482 318L404-68Q376-206 249-206L185-206L201-123L240-123Q297-123 309-59L383 311Q388 336 388 351Q388 388 366.50 407.50Q345 427 312 427Q296 427 279.50 422.50Q263 418 243.50 406.50Q224 395 208.50 370Q193 345 186 309L124 0L27 0L128 507L222 507L212 455Q265 513 353 513Q408 513 447.50 476.50Q487 440 487 371Z"  horiz-adv-x="540" vert-adv-y="1000"  />

      
      <glyph glyph-name="uni014C" unicode="&#x014C;" d="M592 521Q592 465 570 356Q545 231 525 174Q505 117 464 74Q388-6 267-6Q174-6 117.50 49Q61 104 61 191Q61 247 83 356Q108 481 128 538Q148 595 189 638Q265 718 385 718Q479 718 535.50 663Q592 608 592 521M489 513Q489 567 457 597.50Q425 628 379 628Q311 628 263 577Q239 552 223 505.50Q207 459 186 356Q164 245 164 199Q164 145 196 114.50Q228 84 274 84Q342 84 390 135Q414 160 430 206.50Q446 253 467 356Q489 467 489 513M272 863L566 863L552 795L258 795L272 863Z"  horiz-adv-x="614" vert-adv-y="1000"  />

      
      <glyph glyph-name="uni014D" unicode="&#x014D;" d="M464 346Q464 304 455 254Q426 109 362 51Q300-6 211-6Q142-6 93 36Q44 78 44 161Q44 204 53 254Q82 398 146 456Q207 513 297 513Q366 513 415 471Q464 429 464 346M368 337Q368 382 346 404.50Q324 427 288 427Q242 427 210 395Q171 356 150 254Q140 203 140 171Q140 125 162.50 102.50Q185 80 220 80Q266 80 298 112Q338 151 358 254Q368 305 368 337M488 684L474 615L180 615L194 684L488 684Z"  horiz-adv-x="508" vert-adv-y="1000"  />

      
      <glyph glyph-name="uni014E" unicode="&#x014E;" d="M592 521Q592 465 570 356Q545 231 525 174Q505 117 464 74Q388-6 267-6Q174-6 117.50 49Q61 104 61 191Q61 247 83 356Q108 481 128 538Q148 595 189 638Q265 718 385 718Q479 718 535.50 663Q592 608 592 521M489 513Q489 567 457 597.50Q425 628 379 628Q311 628 263 577Q239 552 223 505.50Q207 459 186 356Q164 245 164 199Q164 145 196 114.50Q228 84 274 84Q342 84 390 135Q414 160 430 206.50Q446 253 467 356Q489 467 489 513M562 906Q533 772 401 772Q340 772 306 800.50Q272 829 272 879Q272 893 274 906L343 906Q342 897 342 889Q342 866 360 853.50Q378 841 408 841Q478 841 492 906L562 906Z"  horiz-adv-x="614" vert-adv-y="1000"  />

      
      <glyph glyph-name="uni014F" unicode="&#x014F;" d="M464 346Q464 304 455 254Q426 109 362 51Q300-6 211-6Q142-6 93 36Q44 78 44 161Q44 204 53 254Q82 398 146 456Q207 513 297 513Q366 513 415 471Q464 429 464 346M368 337Q368 382 346 404.50Q324 427 288 427Q242 427 210 395Q171 356 150 254Q140 203 140 171Q140 125 162.50 102.50Q185 80 220 80Q266 80 298 112Q338 151 358 254Q368 305 368 337M478 720Q449 586 317 586Q256 586 222 614.50Q188 643 188 693Q188 707 190 720L259 720Q258 711 258 703Q258 680 276 667.50Q294 655 324 655Q394 655 408 720L478 720Z"  horiz-adv-x="508" vert-adv-y="1000"  />

      
      <glyph glyph-name="uni0150" unicode="&#x0150;" d="M592 521Q592 465 570 356Q545 231 525 174Q505 117 464 74Q388-6 267-6Q174-6 117.50 49Q61 104 61 191Q61 247 83 356Q108 481 128 538Q148 595 189 638Q265 718 385 718Q479 718 535.50 663Q592 608 592 521M489 513Q489 567 457 597.50Q425 628 379 628Q311 628 263 577Q239 552 223 505.50Q207 459 186 356Q164 245 164 199Q164 145 196 114.50Q228 84 274 84Q342 84 390 135Q414 160 430 206.50Q446 253 467 356Q489 467 489 513M482 936L352 777L268 777L382 936L482 936M658 936L529 777L445 777L558 936L658 936Z"  horiz-adv-x="614" vert-adv-y="1000"  />

      
      <glyph glyph-name="uni0151" unicode="&#x0151;" d="M464 346Q464 304 455 254Q426 109 362 51Q300-6 211-6Q142-6 93 36Q44 78 44 161Q44 204 53 254Q82 398 146 456Q207 513 297 513Q366 513 415 471Q464 429 464 346M368 337Q368 382 346 404.50Q324 427 288 427Q242 427 210 395Q171 356 150 254Q140 203 140 171Q140 125 162.50 102.50Q185 80 220 80Q266 80 298 112Q338 151 358 254Q368 305 368 337M402 754L272 595L188 595L302 754L402 754M578 754L449 595L365 595L478 754L578 754Z"  horiz-adv-x="508" vert-adv-y="1000"  />

      
      <glyph glyph-name="uni0152" unicode="&#x0152;" d="M965 712L947 621L621 621L578 405L857 405L839 314L560 314L515 91L847 91L829 0L404 0L414 57Q359-6 263-6Q172-6 116.50 49.50Q61 105 61 191Q61 247 83 356Q108 481 128 538Q148 595 189 638Q265 718 385 718Q488 718 529 645L542 712L965 712M489 513Q489 567 457 597.50Q425 628 379 628Q311 628 263 577Q239 552 223 505.50Q207 459 186 356Q164 245 164 199Q164 145 196 114.50Q228 84 274 84Q342 84 390 135Q414 160 430 206.50Q446 253 467 356Q489 467 489 513Z"  horiz-adv-x="927" vert-adv-y="1000"  />

      
      <glyph glyph-name="uni0153" unicode="&#x0153;" d="M776 336Q776 294 762 226L447 226Q442 196 442 177Q442 131 467 103.50Q492 76 540 76Q610 76 671 132L724 68Q646-6 531-6Q422-6 380 78Q319-6 211-6Q142-6 92.50 36Q43 78 43 161Q43 196 53 254Q81 395 146 456Q206 513 296 513Q342 513 379.50 492Q417 471 437 430Q498 513 603 513Q683 513 729.50 464Q776 415 776 336M368 337Q368 382 346 404.50Q324 427 288 427Q242 427 210 395Q171 356 150 254Q140 203 140 171Q140 125 162.50 102.50Q185 80 220 80Q266 80 298 112Q338 151 358 254Q368 305 368 337M683 336Q683 383 659.50 408Q636 433 598 433Q497 433 459 293L679 293Q683 323 683 336Z"  horiz-adv-x="821" vert-adv-y="1000"  />

      
      <glyph glyph-name="uni0154" unicode="&#x0154;" d="M615 534Q615 459 568.50 397.50Q522 336 438 314L539 0L426 0L335 304L203 304L141 0L38 0L181 712L429 712Q526 712 570.50 661.50Q615 611 615 534M511 529Q511 573 486.50 597Q462 621 414 621L266 621L219 390L368 390Q437 390 474 432.50Q511 475 511 529M567 936L437 777L353 777L467 936L567 936Z"  horiz-adv-x="626" vert-adv-y="1000"  />

      
      <glyph glyph-name="uni0155" unicode="&#x0155;" d="M455 465L374 393Q348 426 310 426Q265 426 231 393Q197 360 186 308L124 0L27 0L128 507L223 507L211 451Q260 513 347 513Q414 513 455 465M411 754L281 595L197 595L311 754L411 754Z"  horiz-adv-x="415" vert-adv-y="1000"  />

      
      <glyph glyph-name="uni0156" unicode="&#x0156;" d="M615 534Q615 459 568.50 397.50Q522 336 438 314L539 0L426 0L335 304L203 304L141 0L38 0L181 712L429 712Q526 712 570.50 661.50Q615 611 615 534M511 529Q511 573 486.50 597Q462 621 414 621L266 621L219 390L368 390Q437 390 474 432.50Q511 475 511 529M311-61L234-206L139-206L229-61L311-61Z"  horiz-adv-x="626" vert-adv-y="1000"  />

      
      <glyph glyph-name="uni0157" unicode="&#x0157;" d="M455 465L374 393Q348 426 310 426Q265 426 231 393Q197 360 186 308L124 0L27 0L128 507L223 507L211 451Q260 513 347 513Q414 513 455 465M105-61L28-206L-67-206L23-61L105-61Z"  horiz-adv-x="415" vert-adv-y="1000"  />

      
      <glyph glyph-name="uni0158" unicode="&#x0158;" d="M615 534Q615 459 568.50 397.50Q522 336 438 314L539 0L426 0L335 304L203 304L141 0L38 0L181 712L429 712Q526 712 570.50 661.50Q615 611 615 534M511 529Q511 573 486.50 597Q462 621 414 621L266 621L219 390L368 390Q437 390 474 432.50Q511 475 511 529M597 938L442 776L360 776L268 938L346 938L408 837L512 938L597 938Z"  horiz-adv-x="626" vert-adv-y="1000"  />

      
      <glyph glyph-name="uni0159" unicode="&#x0159;" d="M455 465L374 393Q348 426 310 426Q265 426 231 393Q197 360 186 308L124 0L27 0L128 507L223 507L211 451Q260 513 347 513Q414 513 455 465M438 756L283 594L201 594L110 756L187 756L249 656L353 756L438 756Z"  horiz-adv-x="415" vert-adv-y="1000"  />

      
      <glyph glyph-name="uni015A" unicode="&#x015A;" d="M564 634L492 571Q443 629 357 629Q288 629 246 589Q204 549 204 496Q204 434 293 412L355 397Q440 377 476.50 335Q513 293 513 218Q513 111 434 52.50Q355-6 237-6Q157-6 103.50 17Q50 40 6 92L82 158Q140 85 246 85Q316 85 363 121Q410 157 410 211Q410 254 387.50 274.50Q365 295 322 305L259 320Q186 337 143.50 379Q101 421 101 485Q101 580 172 649Q243 718 369 718Q496 718 564 634M547 936L417 777L333 777L447 936L547 936Z"  horiz-adv-x="561" vert-adv-y="1000"  />

      
      <glyph glyph-name="uni015B" unicode="&#x015B;" d="M446 454L379 394Q339 433 272 433Q221 433 193 409Q165 385 165 352Q165 313 225 304L292 294Q358 284 386.50 253Q415 222 415 166Q415 101 363 50Q306-6 187-6Q62-6-4 68L66 130Q111 77 195 77Q254 77 286 102Q318 127 318 159Q318 184 303.50 195.50Q289 207 259 212L192 222Q68 241 68 334Q68 407 117 456Q174 513 282 513Q384 513 446 454M474 754L344 595L260 595L374 754L474 754Z"  horiz-adv-x="473" vert-adv-y="1000"  />

      
      <glyph glyph-name="uni015C" unicode="&#x015C;" d="M564 634L492 571Q443 629 357 629Q288 629 246 589Q204 549 204 496Q204 434 293 412L355 397Q440 377 476.50 335Q513 293 513 218Q513 111 434 52.50Q355-6 237-6Q157-6 103.50 17Q50 40 6 92L82 158Q140 85 246 85Q316 85 363 121Q410 157 410 211Q410 254 387.50 274.50Q365 295 322 305L259 320Q186 337 143.50 379Q101 421 101 485Q101 580 172 649Q243 718 369 718Q496 718 564 634M546 776L469 776L407 876L303 776L218 776L373 938L455 938L546 776Z"  horiz-adv-x="561" vert-adv-y="1000"  />

      
      </font>
</defs>
</svg>
