<svg width="147" height="36" viewBox="0 0 147 36" fill="none" xmlns="http://www.w3.org/2000/svg">
<rect width="147" height="36" fill="#323E48"/>
<path d="M32.576 14.16H27.296V24H25.568V12.608H32.576V14.16ZM41.0789 24H39.4469V18.416L35.9749 24H34.3429V15.888H35.9749V21.392L39.4469 15.888H41.0789V24ZM45.8809 17.312V18.608C45.8809 20.1547 45.6249 21.4773 45.1129 22.576H48.1689V17.312H45.8809ZM44.3289 15.888H49.8009V22.576H50.9209V26.08H49.3529V24H44.0889V26.08H42.5369V22.576H43.4009C43.7102 21.968 43.9395 21.3333 44.0889 20.672C44.2489 20 44.3289 19.0933 44.3289 17.952V15.888ZM59.3266 19.936C59.3266 21.6107 59.0226 22.7573 58.4146 23.376C57.9346 23.856 57.2786 24.096 56.4466 24.096C55.54 24.096 54.8306 23.7867 54.3186 23.168V27.28H52.6866V15.888H54.2866V16.752C54.82 16.112 55.5346 15.792 56.4306 15.792C57.2733 15.792 57.9346 16.032 58.4146 16.512C59.0226 17.1307 59.3266 18.272 59.3266 19.936ZM57.6306 20.976C57.6733 20.688 57.6946 20.3413 57.6946 19.936C57.6946 19.5307 57.6733 19.184 57.6306 18.896C57.5986 18.608 57.524 18.3307 57.4066 18.064C57.3 17.7973 57.1293 17.5947 56.8946 17.456C56.66 17.3173 56.3666 17.248 56.0146 17.248C55.652 17.248 55.3533 17.3173 55.1186 17.456C54.884 17.5947 54.708 17.7973 54.5906 18.064C54.484 18.3307 54.4093 18.608 54.3666 18.896C54.3346 19.184 54.3186 19.5307 54.3186 19.936C54.3186 20.3413 54.3346 20.688 54.3666 20.976C54.4093 21.264 54.484 21.5467 54.5906 21.824C54.708 22.0907 54.884 22.2933 55.1186 22.432C55.364 22.5707 55.6626 22.64 56.0146 22.64C56.3666 22.64 56.66 22.5707 56.8946 22.432C57.1293 22.2933 57.3 22.0907 57.4066 21.824C57.524 21.5467 57.5986 21.264 57.6306 20.976ZM67.9144 19.936C67.9144 20.6827 67.845 21.3067 67.7064 21.808C67.5677 22.3093 67.317 22.752 66.9544 23.136C66.3357 23.776 65.525 24.096 64.5224 24.096C63.5304 24.096 62.725 23.776 62.1064 23.136C61.7437 22.752 61.493 22.3093 61.3544 21.808C61.2157 21.3067 61.1464 20.6827 61.1464 19.936C61.1464 19.2 61.2157 18.5813 61.3544 18.08C61.493 17.568 61.7437 17.1253 62.1064 16.752C62.725 16.112 63.5304 15.792 64.5224 15.792C65.525 15.792 66.3357 16.112 66.9544 16.752C67.317 17.1253 67.5677 17.568 67.7064 18.08C67.845 18.5813 67.9144 19.2 67.9144 19.936ZM65.7224 22.16C66.0957 21.7867 66.2824 21.0453 66.2824 19.936C66.2824 18.8267 66.0957 18.0853 65.7224 17.712C65.413 17.4027 65.013 17.248 64.5224 17.248C64.0424 17.248 63.6477 17.4027 63.3384 17.712C62.965 18.0853 62.7784 18.8267 62.7784 19.936C62.7784 21.0453 62.965 21.7867 63.3384 22.16C63.6584 22.48 64.053 22.64 64.5224 22.64C65.0024 22.64 65.4024 22.48 65.7224 22.16ZM71.8041 24H70.1561V15.888H71.8041V24ZM77.1001 24H75.1001L71.8201 19.776L74.9081 15.888H76.8601L73.6281 19.696L77.1001 24ZM84.4613 19.936C84.4613 20.6827 84.3919 21.3067 84.2533 21.808C84.1146 22.3093 83.8639 22.752 83.5013 23.136C82.8826 23.776 82.0719 24.096 81.0693 24.096C80.0773 24.096 79.2719 23.776 78.6533 23.136C78.2906 22.752 78.0399 22.3093 77.9013 21.808C77.7626 21.3067 77.6933 20.6827 77.6933 19.936C77.6933 19.2 77.7626 18.5813 77.9013 18.08C78.0399 17.568 78.2906 17.1253 78.6533 16.752C79.2719 16.112 80.0773 15.792 81.0693 15.792C82.0719 15.792 82.8826 16.112 83.5013 16.752C83.8639 17.1253 84.1146 17.568 84.2533 18.08C84.3919 18.5813 84.4613 19.2 84.4613 19.936ZM82.2693 22.16C82.6426 21.7867 82.8293 21.0453 82.8293 19.936C82.8293 18.8267 82.6426 18.0853 82.2693 17.712C81.9599 17.4027 81.5599 17.248 81.0693 17.248C80.5893 17.248 80.1946 17.4027 79.8853 17.712C79.5119 18.0853 79.3253 18.8267 79.3253 19.936C79.3253 21.0453 79.5119 21.7867 79.8853 22.16C80.2053 22.48 80.5999 22.64 81.0693 22.64C81.5493 22.64 81.9493 22.48 82.2693 22.16ZM92.543 22.944C91.8177 23.712 90.927 24.096 89.871 24.096C89.391 24.096 88.943 24.0213 88.527 23.872C88.111 23.712 87.727 23.4773 87.375 23.168C87.0337 22.848 86.7617 22.416 86.559 21.872C86.3563 21.3173 86.255 20.672 86.255 19.936C86.255 19.2 86.3563 18.56 86.559 18.016C86.7617 17.4613 87.0337 17.0293 87.375 16.72C87.727 16.4 88.111 16.1653 88.527 16.016C88.943 15.8667 89.391 15.792 89.871 15.792C90.9377 15.792 91.8283 16.1707 92.543 16.928L91.423 18.016C91.167 17.7387 90.9217 17.5413 90.687 17.424C90.463 17.3067 90.191 17.248 89.871 17.248C89.231 17.248 88.7297 17.488 88.367 17.968C88.047 18.3733 87.887 19.0293 87.887 19.936C87.887 20.8533 88.047 21.5147 88.367 21.92C88.7297 22.4 89.231 22.64 89.871 22.64C90.191 22.64 90.463 22.5813 90.687 22.464C90.9217 22.3467 91.167 22.1493 91.423 21.872L92.543 22.944ZM100.083 17.312H97.6028V24H95.9708V17.312H93.3948V15.888H100.083V17.312ZM111.386 19.936C111.386 20.6827 111.316 21.3067 111.178 21.808C111.039 22.3093 110.788 22.752 110.426 23.136C109.807 23.776 108.996 24.096 107.994 24.096C107.002 24.096 106.196 23.776 105.578 23.136C105.002 22.5387 104.687 21.6747 104.634 20.544H103.194V24H101.562V15.888H103.194V19.152H104.634C104.719 18.1067 105.034 17.3067 105.578 16.752C106.196 16.112 107.002 15.792 107.994 15.792C108.996 15.792 109.807 16.112 110.426 16.752C111.066 17.4133 111.386 18.4747 111.386 19.936ZM109.194 22.16C109.567 21.7867 109.754 21.0453 109.754 19.936C109.754 18.8267 109.567 18.0853 109.194 17.712C108.884 17.4027 108.484 17.248 107.994 17.248C107.514 17.248 107.119 17.4027 106.81 17.712C106.436 18.0853 106.25 18.8267 106.25 19.936C106.25 21.0453 106.436 21.7867 106.81 22.16C107.13 22.48 107.524 22.64 107.994 22.64C108.474 22.64 108.874 22.48 109.194 22.16ZM121.657 24H120.025V18.8L118.153 22.512H117.129L115.225 18.8V24H113.593V15.888H115.209L117.641 20.72L120.057 15.888H121.657V24Z" fill="white"/>
</svg>
