<svg width="117" height="36" viewBox="0 0 117 36" fill="none" xmlns="http://www.w3.org/2000/svg">
<rect width="117" height="36" fill="#323E48"/>
<path d="M33.856 24H32.048L31.248 21.712H26.752L25.952 24H24.128L28.304 12.608H29.696L33.856 24ZM30.784 20.24L29.04 15.184L27.248 20.24H30.784ZM36.976 24H35.328V15.888H36.976V24ZM42.272 24H40.272L36.992 19.776L40.08 15.888H42.032L38.8 19.696L42.272 24ZM50.0256 21.712C50.0256 22.416 49.807 22.976 49.3696 23.392C48.9323 23.7973 48.335 24 47.5776 24H43.5616V15.888H47.4496C48.1963 15.888 48.7883 16.0853 49.2256 16.48C49.6736 16.8747 49.8976 17.4027 49.8976 18.064C49.8976 18.8747 49.519 19.456 48.7616 19.808C49.6043 20.192 50.0256 20.8267 50.0256 21.712ZM48.2976 18.176C48.2976 17.856 48.191 17.6107 47.9776 17.44C47.775 17.2587 47.4816 17.168 47.0976 17.168H45.1776V19.216H47.0976C47.8976 19.216 48.2976 18.8693 48.2976 18.176ZM48.4256 21.6C48.4256 21.248 48.3136 20.976 48.0896 20.784C47.8763 20.5813 47.5776 20.48 47.1936 20.48H45.1776V22.72H47.1936C47.5776 22.72 47.8763 22.6187 48.0896 22.416C48.3136 22.2133 48.4256 21.9413 48.4256 21.6ZM58.2484 24H56.6484V23.264C56.3497 23.5627 56.035 23.776 55.7044 23.904C55.3844 24.032 54.979 24.096 54.4884 24.096C53.5284 24.096 52.803 23.8507 52.3124 23.36C51.8857 22.912 51.6724 22.3307 51.6724 21.616C51.6724 20.912 51.9124 20.3467 52.3924 19.92C52.883 19.4933 53.5817 19.28 54.4884 19.28H56.6164V18.704C56.6164 18.1813 56.4777 17.7973 56.2004 17.552C55.923 17.3067 55.4697 17.184 54.8404 17.184C54.4137 17.184 54.067 17.248 53.8004 17.376C53.5444 17.4933 53.299 17.696 53.0644 17.984L52.0084 16.976C52.3817 16.5387 52.7817 16.2347 53.2084 16.064C53.6457 15.8827 54.211 15.792 54.9044 15.792C57.1337 15.792 58.2484 16.72 58.2484 18.576V24ZM56.6164 21.072V20.416H54.7444C53.7524 20.416 53.2564 20.8053 53.2564 21.584C53.2564 22.352 53.7684 22.736 54.7924 22.736C55.443 22.736 55.9337 22.5813 56.2644 22.272C56.499 22.048 56.6164 21.648 56.6164 21.072ZM67.0528 24H65.4208V17.312H63.0688V19.664C63.0688 20.5067 63.0101 21.216 62.8928 21.792C62.7754 22.368 62.5994 22.816 62.3648 23.136C62.1301 23.4453 61.8581 23.6693 61.5488 23.808C61.2501 23.936 60.8928 24 60.4768 24H59.7088V22.56H59.9648C60.1354 22.56 60.2794 22.5493 60.3968 22.528C60.5141 22.496 60.6474 22.4213 60.7968 22.304C60.9568 22.176 61.0794 22.0053 61.1648 21.792C61.2608 21.568 61.3408 21.2427 61.4048 20.816C61.4688 20.3787 61.5008 19.8613 61.5008 19.264V15.888H67.0528V24ZM75.6234 24H74.0234V23.264C73.7247 23.5627 73.41 23.776 73.0794 23.904C72.7594 24.032 72.354 24.096 71.8634 24.096C70.9034 24.096 70.178 23.8507 69.6874 23.36C69.2607 22.912 69.0474 22.3307 69.0474 21.616C69.0474 20.912 69.2874 20.3467 69.7674 19.92C70.258 19.4933 70.9567 19.28 71.8634 19.28H73.9914V18.704C73.9914 18.1813 73.8527 17.7973 73.5754 17.552C73.298 17.3067 72.8447 17.184 72.2154 17.184C71.7887 17.184 71.442 17.248 71.1754 17.376C70.9194 17.4933 70.674 17.696 70.4394 17.984L69.3834 16.976C69.7567 16.5387 70.1567 16.2347 70.5834 16.064C71.0207 15.8827 71.586 15.792 72.2794 15.792C74.5087 15.792 75.6234 16.72 75.6234 18.576V24ZM73.9914 21.072V20.416H72.1194C71.1274 20.416 70.6314 20.8053 70.6314 21.584C70.6314 22.352 71.1434 22.736 72.1674 22.736C72.818 22.736 73.3087 22.5813 73.6394 22.272C73.874 22.048 73.9914 21.648 73.9914 21.072ZM84.6358 24H83.0038V20.544H79.7718V24H78.1398V15.888H79.7718V19.12H83.0038V15.888H84.6358V24ZM92.5615 17.312H88.9295V24H87.2975V15.888H92.5615V17.312Z" fill="white"/>
</svg>
