<svg width="170" height="36" viewBox="0 0 170 36" fill="none" xmlns="http://www.w3.org/2000/svg">
<rect width="170" height="36" fill="#323E48"/>
<path d="M28.416 14.16V16.704C28.416 19.1253 28.0427 21.04 27.296 22.448H31.584V14.16H28.416ZM26.752 12.608H33.312V22.448H34.656V26.56H32.96V24H26.048V26.56H24.368V22.448H25.36C26.288 21.008 26.752 18.848 26.752 15.968V12.608ZM47.0591 24H45.0911L41.9711 19.776L44.9151 15.888H46.8191L43.7791 19.696L47.0591 24ZM41.9551 24H40.3071V15.888H41.9551V24ZM37.1711 24H35.2031L38.4991 19.696L35.4591 15.888H37.3631L40.2911 19.776L37.1711 24ZM55.0945 24H53.4625V18.416L49.9905 24H48.3585V15.888H49.9905V21.392L53.4625 15.888H55.0945V24ZM64.1826 24H62.5506V20.544H59.3186V24H57.6866V15.888H59.3186V19.12H62.5506V15.888H64.1826V24ZM72.6524 22.944C71.927 23.712 71.0364 24.096 69.9804 24.096C69.5004 24.096 69.0524 24.0213 68.6364 23.872C68.2204 23.712 67.8364 23.4773 67.4844 23.168C67.143 22.848 66.871 22.416 66.6684 21.872C66.4657 21.3173 66.3644 20.672 66.3644 19.936C66.3644 19.2 66.4657 18.56 66.6684 18.016C66.871 17.4613 67.143 17.0293 67.4844 16.72C67.8364 16.4 68.2204 16.1653 68.6364 16.016C69.0524 15.8667 69.5004 15.792 69.9804 15.792C71.047 15.792 71.9377 16.1707 72.6524 16.928L71.5324 18.016C71.2764 17.7387 71.031 17.5413 70.7964 17.424C70.5724 17.3067 70.3004 17.248 69.9804 17.248C69.3404 17.248 68.839 17.488 68.4764 17.968C68.1564 18.3733 67.9964 19.0293 67.9964 19.936C67.9964 20.8533 68.1564 21.5147 68.4764 21.92C68.839 22.4 69.3404 22.64 69.9804 22.64C70.3004 22.64 70.5724 22.5813 70.7964 22.464C71.031 22.3467 71.2764 22.1493 71.5324 21.872L72.6524 22.944ZM83.698 24H82.066V15.888H83.698V24ZM80.21 19.648C80.7007 20.1173 80.946 20.7253 80.946 21.472C80.946 22.2187 80.7007 22.8267 80.21 23.296C79.73 23.7653 79.0953 24 78.306 24H74.546V15.888H76.178V18.944H78.306C79.0953 18.944 79.73 19.1787 80.21 19.648ZM78.978 22.352C79.2127 22.1387 79.33 21.8453 79.33 21.472C79.33 21.0987 79.2127 20.8107 78.978 20.608C78.754 20.3947 78.4393 20.288 78.034 20.288H76.178V22.672H78.034C78.4393 22.672 78.754 22.5653 78.978 22.352ZM96.9851 24H95.3531V18.416L91.8811 24H90.2491V15.888H91.8811V21.392L95.3531 15.888H96.9851V24ZM105.101 24H103.453V15.888H105.101V24ZM110.397 24H108.397L105.117 19.776L108.205 15.888H110.157L106.925 19.696L110.397 24ZM117.758 19.936C117.758 20.6827 117.689 21.3067 117.55 21.808C117.411 22.3093 117.161 22.752 116.798 23.136C116.179 23.776 115.369 24.096 114.366 24.096C113.374 24.096 112.569 23.776 111.95 23.136C111.587 22.752 111.337 22.3093 111.198 21.808C111.059 21.3067 110.99 20.6827 110.99 19.936C110.99 19.2 111.059 18.5813 111.198 18.08C111.337 17.568 111.587 17.1253 111.95 16.752C112.569 16.112 113.374 15.792 114.366 15.792C115.369 15.792 116.179 16.112 116.798 16.752C117.161 17.1253 117.411 17.568 117.55 18.08C117.689 18.5813 117.758 19.2 117.758 19.936ZM115.566 22.16C115.939 21.7867 116.126 21.0453 116.126 19.936C116.126 18.8267 115.939 18.0853 115.566 17.712C115.257 17.4027 114.857 17.248 114.366 17.248C113.886 17.248 113.491 17.4027 113.182 17.712C112.809 18.0853 112.622 18.8267 112.622 19.936C112.622 21.0453 112.809 21.7867 113.182 22.16C113.502 22.48 113.897 22.64 114.366 22.64C114.846 22.64 115.246 22.48 115.566 22.16ZM127.536 19.92C127.536 18.1813 126.736 17.2907 125.136 17.248V22.624C125.925 22.6133 126.523 22.3733 126.928 21.904C127.333 21.4347 127.536 20.7733 127.536 19.92ZM125.136 27.28H123.504V24.08C122.235 24.016 121.243 23.6373 120.528 22.944C119.824 22.24 119.472 21.2267 119.472 19.904C119.472 18.592 119.819 17.6 120.512 16.928C121.216 16.2453 122.213 15.8667 123.504 15.792V12.608H125.136V15.792C126.427 15.8667 127.419 16.2453 128.112 16.928C128.816 17.6 129.168 18.592 129.168 19.904C129.168 21.2267 128.811 22.24 128.096 22.944C127.392 23.6373 126.405 24.016 125.136 24.08V27.28ZM121.104 19.92C121.104 20.7733 121.307 21.4347 121.712 21.904C122.117 22.3733 122.715 22.6133 123.504 22.624V17.248C121.904 17.2907 121.104 18.1813 121.104 19.92ZM136.755 17.312H134.275V24H132.643V17.312H130.067V15.888H136.755V17.312ZM144.123 24H142.523V23.264C142.225 23.5627 141.91 23.776 141.579 23.904C141.259 24.032 140.854 24.096 140.363 24.096C139.403 24.096 138.678 23.8507 138.187 23.36C137.761 22.912 137.547 22.3307 137.547 21.616C137.547 20.912 137.787 20.3467 138.267 19.92C138.758 19.4933 139.457 19.28 140.363 19.28H142.491V18.704C142.491 18.1813 142.353 17.7973 142.075 17.552C141.798 17.3067 141.345 17.184 140.715 17.184C140.289 17.184 139.942 17.248 139.675 17.376C139.419 17.4933 139.174 17.696 138.939 17.984L137.883 16.976C138.257 16.5387 138.657 16.2347 139.083 16.064C139.521 15.8827 140.086 15.792 140.779 15.792C143.009 15.792 144.123 16.72 144.123 18.576V24ZM142.491 21.072V20.416H140.619C139.627 20.416 139.131 20.8053 139.131 21.584C139.131 22.352 139.643 22.736 140.667 22.736C141.318 22.736 141.809 22.5813 142.139 22.272C142.374 22.048 142.491 21.648 142.491 21.072Z" fill="white"/>
</svg>
