<svg width="103" height="36" viewBox="0 0 103 36" fill="none" xmlns="http://www.w3.org/2000/svg">
<rect width="103" height="36" fill="#323E48"/>
<path d="M27.264 24H25.536V12.608H27.264V24ZM34.064 24H31.872L27.28 18.032L31.536 12.608H33.664L29.28 17.984L34.064 24ZM40.88 19.904C40.88 21.2373 40.56 22.272 39.92 23.008C39.2907 23.7333 38.3947 24.096 37.232 24.096C36.6667 24.096 36.1867 24.0107 35.792 23.84C35.408 23.6693 35.008 23.376 34.592 22.96L35.68 21.888C35.968 22.176 36.224 22.3787 36.448 22.496C36.672 22.6133 36.944 22.672 37.264 22.672C37.8933 22.672 38.3733 22.4693 38.704 22.064C39.0347 21.648 39.216 21.104 39.248 20.432H36.416V19.28H39.248C39.184 18.64 38.9813 18.1387 38.64 17.776C38.3093 17.4027 37.8453 17.216 37.248 17.216C36.7253 17.216 36.2027 17.4773 35.68 18L34.592 16.944C35.0187 16.528 35.424 16.2347 35.808 16.064C36.2027 15.8827 36.6773 15.792 37.232 15.792C38.384 15.792 39.28 16.1547 39.92 16.88C40.56 17.6053 40.88 18.6133 40.88 19.904ZM53.3091 24H51.3411L48.2211 19.776L51.1651 15.888H53.0691L50.0291 19.696L53.3091 24ZM48.2051 24H46.5571V15.888H48.2051V24ZM43.4211 24H41.4531L44.7491 19.696L41.7091 15.888H43.6131L46.5411 19.776L43.4211 24ZM60.7365 15.888L57.1525 25.616C56.7685 26.6827 56.0165 27.216 54.8965 27.216H54.2405V25.744H54.6565C54.9978 25.744 55.2485 25.6853 55.4085 25.568C55.5685 25.4613 55.7072 25.2373 55.8245 24.896L56.2725 23.616L53.4245 15.888H55.1685L57.1045 21.616L58.9925 15.888H60.7365ZM67.9515 24H66.3515V23.264C66.0528 23.5627 65.7382 23.776 65.4075 23.904C65.0875 24.032 64.6822 24.096 64.1915 24.096C63.2315 24.096 62.5062 23.8507 62.0155 23.36C61.5888 22.912 61.3755 22.3307 61.3755 21.616C61.3755 20.912 61.6155 20.3467 62.0955 19.92C62.5862 19.4933 63.2848 19.28 64.1915 19.28H66.3195V18.704C66.3195 18.1813 66.1808 17.7973 65.9035 17.552C65.6262 17.3067 65.1728 17.184 64.5435 17.184C64.1168 17.184 63.7702 17.248 63.5035 17.376C63.2475 17.4933 63.0022 17.696 62.7675 17.984L61.7115 16.976C62.0848 16.5387 62.4848 16.2347 62.9115 16.064C63.3488 15.8827 63.9142 15.792 64.6075 15.792C66.8368 15.792 67.9515 16.72 67.9515 18.576V24ZM66.3195 21.072V20.416H64.4475C63.4555 20.416 62.9595 20.8053 62.9595 21.584C62.9595 22.352 63.4715 22.736 64.4955 22.736C65.1462 22.736 65.6368 22.5813 65.9675 22.272C66.2022 22.048 66.3195 21.648 66.3195 21.072ZM76.7559 24H75.1239V17.312H72.7719V19.664C72.7719 20.5067 72.7132 21.216 72.5959 21.792C72.4785 22.368 72.3025 22.816 72.0679 23.136C71.8332 23.4453 71.5612 23.6693 71.2519 23.808C70.9532 23.936 70.5959 24 70.1799 24H69.4119V22.56H69.6679C69.8385 22.56 69.9825 22.5493 70.0999 22.528C70.2172 22.496 70.3505 22.4213 70.4999 22.304C70.6599 22.176 70.7825 22.0053 70.8679 21.792C70.9639 21.568 71.0439 21.2427 71.1079 20.816C71.1719 20.3787 71.2039 19.8613 71.2039 19.264V15.888H76.7559V24Z" fill="white"/>
</svg>
