<svg width="210" height="36" viewBox="0 0 210 36" fill="none" xmlns="http://www.w3.org/2000/svg">
<rect width="210" height="36" fill="#323E48"/>
<path d="M27.264 24H25.536V12.608H27.264V24ZM34.064 24H31.872L27.28 18.032L31.536 12.608H33.664L29.28 17.984L34.064 24ZM41.584 24H39.952V17.312H37.6V19.664C37.6 20.5067 37.5413 21.216 37.424 21.792C37.3067 22.368 37.1307 22.816 36.896 23.136C36.6613 23.4453 36.3893 23.6693 36.08 23.808C35.7813 23.936 35.424 24 35.008 24H34.24V22.56H34.496C34.6667 22.56 34.8107 22.5493 34.928 22.528C35.0453 22.496 35.1787 22.4213 35.328 22.304C35.488 22.176 35.6107 22.0053 35.696 21.792C35.792 21.568 35.872 21.2427 35.936 20.816C36 20.3787 36.032 19.8613 36.032 19.264V15.888H41.584V24ZM50.1546 24H48.5546V23.264C48.256 23.5627 47.9413 23.776 47.6106 23.904C47.2906 24.032 46.8853 24.096 46.3946 24.096C45.4346 24.096 44.7093 23.8507 44.2186 23.36C43.792 22.912 43.5786 22.3307 43.5786 21.616C43.5786 20.912 43.8186 20.3467 44.2986 19.92C44.7893 19.4933 45.488 19.28 46.3946 19.28H48.5226V18.704C48.5226 18.1813 48.384 17.7973 48.1066 17.552C47.8293 17.3067 47.376 17.184 46.7466 17.184C46.32 17.184 45.9733 17.248 45.7066 17.376C45.4506 17.4933 45.2053 17.696 44.9706 17.984L43.9146 16.976C44.288 16.5387 44.688 16.2347 45.1146 16.064C45.552 15.8827 46.1173 15.792 46.8106 15.792C49.04 15.792 50.1546 16.72 50.1546 18.576V24ZM48.5226 21.072V20.416H46.6506C45.6586 20.416 45.1626 20.8053 45.1626 21.584C45.1626 22.352 45.6746 22.736 46.6986 22.736C47.3493 22.736 47.84 22.5813 48.1706 22.272C48.4053 22.048 48.5226 21.648 48.5226 21.072ZM58.543 22.944C57.8177 23.712 56.927 24.096 55.871 24.096C55.391 24.096 54.943 24.0213 54.527 23.872C54.111 23.712 53.727 23.4773 53.375 23.168C53.0337 22.848 52.7617 22.416 52.559 21.872C52.3563 21.3173 52.255 20.672 52.255 19.936C52.255 19.2 52.3563 18.56 52.559 18.016C52.7617 17.4613 53.0337 17.0293 53.375 16.72C53.727 16.4 54.111 16.1653 54.527 16.016C54.943 15.8667 55.391 15.792 55.871 15.792C56.9377 15.792 57.8283 16.1707 58.543 16.928L57.423 18.016C57.167 17.7387 56.9217 17.5413 56.687 17.424C56.463 17.3067 56.191 17.248 55.871 17.248C55.231 17.248 54.7297 17.488 54.367 17.968C54.047 18.3733 53.887 19.0293 53.887 19.936C53.887 20.8533 54.047 21.5147 54.367 21.92C54.7297 22.4 55.231 22.64 55.871 22.64C56.191 22.64 56.463 22.5813 56.687 22.464C56.9217 22.3467 57.167 22.1493 57.423 21.872L58.543 22.944ZM66.0743 22.944C65.3489 23.712 64.4583 24.096 63.4023 24.096C62.9223 24.096 62.4743 24.0213 62.0583 23.872C61.6423 23.712 61.2583 23.4773 60.9062 23.168C60.5649 22.848 60.2929 22.416 60.0903 21.872C59.8876 21.3173 59.7863 20.672 59.7863 19.936C59.7863 19.2 59.8876 18.56 60.0903 18.016C60.2929 17.4613 60.5649 17.0293 60.9062 16.72C61.2583 16.4 61.6423 16.1653 62.0583 16.016C62.4743 15.8667 62.9223 15.792 63.4023 15.792C64.4689 15.792 65.3596 16.1707 66.0743 16.928L64.9543 18.016C64.6983 17.7387 64.4529 17.5413 64.2183 17.424C63.9943 17.3067 63.7223 17.248 63.4023 17.248C62.7623 17.248 62.2609 17.488 61.8983 17.968C61.5783 18.3733 61.4183 19.0293 61.4183 19.936C61.4183 20.8533 61.5783 21.5147 61.8983 21.92C62.2609 22.4 62.7623 22.64 63.4023 22.64C63.7223 22.64 63.9943 22.5813 64.2183 22.464C64.4529 22.3467 64.6983 22.1493 64.9543 21.872L66.0743 22.944ZM74.7039 24H73.0719V18.416L69.5999 24H67.9679V15.888H69.5999V21.392L73.0719 15.888H74.7039V24ZM83.2019 24H81.5699V21.008C80.7165 21.1787 79.9432 21.264 79.2499 21.264C78.5565 21.264 77.9965 21.072 77.5699 20.688C77.1539 20.2933 76.9459 19.7333 76.9459 19.008V15.888H78.5779V18.608C78.5779 19.408 78.9725 19.808 79.7619 19.808C80.2525 19.808 80.8552 19.744 81.5699 19.616V15.888H83.2019V24ZM92.26 20.416H86.996C86.996 21.1307 87.172 21.6907 87.524 22.096C87.8867 22.4907 88.3987 22.688 89.06 22.688C89.4973 22.688 89.86 22.624 90.148 22.496C90.436 22.368 90.7293 22.1547 91.028 21.856L92.068 22.832C91.6307 23.2693 91.1827 23.5893 90.724 23.792C90.276 23.9947 89.7107 24.096 89.028 24.096C87.9187 24.096 87.0333 23.7653 86.372 23.104C85.7107 22.4427 85.38 21.3867 85.38 19.936C85.38 18.6347 85.6893 17.6213 86.308 16.896C86.9267 16.16 87.764 15.792 88.82 15.792C89.8973 15.792 90.74 16.1493 91.348 16.864C91.956 17.5787 92.26 18.5333 92.26 19.728V20.416ZM90.644 19.28C90.612 18.8 90.5373 18.432 90.42 18.176C90.1107 17.4933 89.5773 17.152 88.82 17.152C88.052 17.152 87.5133 17.4933 87.204 18.176C87.076 18.4533 87.0067 18.8213 86.996 19.28H90.644ZM100.293 22.944C99.5677 23.712 98.677 24.096 97.621 24.096C97.141 24.096 96.693 24.0213 96.277 23.872C95.861 23.712 95.477 23.4773 95.125 23.168C94.7837 22.848 94.5117 22.416 94.309 21.872C94.1063 21.3173 94.005 20.672 94.005 19.936C94.005 19.2 94.1063 18.56 94.309 18.016C94.5117 17.4613 94.7837 17.0293 95.125 16.72C95.477 16.4 95.861 16.1653 96.277 16.016C96.693 15.8667 97.141 15.792 97.621 15.792C98.6877 15.792 99.5783 16.1707 100.293 16.928L99.173 18.016C98.917 17.7387 98.6717 17.5413 98.437 17.424C98.213 17.3067 97.941 17.248 97.621 17.248C96.981 17.248 96.4797 17.488 96.117 17.968C95.797 18.3733 95.637 19.0293 95.637 19.936C95.637 20.8533 95.797 21.5147 96.117 21.92C96.4797 22.4 96.981 22.64 97.621 22.64C97.941 22.64 98.213 22.5813 98.437 22.464C98.6717 22.3467 98.917 22.1493 99.173 21.872L100.293 22.944ZM103.867 24H102.219V15.888H103.867V24ZM109.163 24H107.163L103.883 19.776L106.971 15.888H108.923L105.691 19.696L109.163 24ZM117.188 24H115.556V18.416L112.084 24H110.452V15.888H112.084V21.392L115.556 15.888H117.188V24ZM125.62 12.592C125.588 13.3387 125.343 13.888 124.884 14.24C124.436 14.5813 123.86 14.752 123.156 14.752C122.452 14.752 121.876 14.5813 121.428 14.24C120.98 13.888 120.735 13.3387 120.692 12.592H121.988C122.052 13.3173 122.442 13.68 123.156 13.68C123.871 13.68 124.26 13.3173 124.324 12.592H125.62ZM126.516 24H124.884V18.416L121.412 24H119.78V15.888H121.412V21.392L124.884 15.888H126.516V24ZM134.632 24H132.984V15.888H134.632V24ZM139.928 24H137.928L134.648 19.776L137.736 15.888H139.688L136.456 19.696L139.928 24ZM147.289 19.936C147.289 20.6827 147.22 21.3067 147.081 21.808C146.943 22.3093 146.692 22.752 146.329 23.136C145.711 23.776 144.9 24.096 143.897 24.096C142.905 24.096 142.1 23.776 141.481 23.136C141.119 22.752 140.868 22.3093 140.729 21.808C140.591 21.3067 140.521 20.6827 140.521 19.936C140.521 19.2 140.591 18.5813 140.729 18.08C140.868 17.568 141.119 17.1253 141.481 16.752C142.1 16.112 142.905 15.792 143.897 15.792C144.9 15.792 145.711 16.112 146.329 16.752C146.692 17.1253 146.943 17.568 147.081 18.08C147.22 18.5813 147.289 19.2 147.289 19.936ZM145.097 22.16C145.471 21.7867 145.657 21.0453 145.657 19.936C145.657 18.8267 145.471 18.0853 145.097 17.712C144.788 17.4027 144.388 17.248 143.897 17.248C143.417 17.248 143.023 17.4027 142.713 17.712C142.34 18.0853 142.153 18.8267 142.153 19.936C142.153 21.0453 142.34 21.7867 142.713 22.16C143.033 22.48 143.428 22.64 143.897 22.64C144.377 22.64 144.777 22.48 145.097 22.16ZM155.371 22.944C154.646 23.712 153.755 24.096 152.699 24.096C152.219 24.096 151.771 24.0213 151.355 23.872C150.939 23.712 150.555 23.4773 150.203 23.168C149.862 22.848 149.59 22.416 149.387 21.872C149.184 21.3173 149.083 20.672 149.083 19.936C149.083 19.2 149.184 18.56 149.387 18.016C149.59 17.4613 149.862 17.0293 150.203 16.72C150.555 16.4 150.939 16.1653 151.355 16.016C151.771 15.8667 152.219 15.792 152.699 15.792C153.766 15.792 154.656 16.1707 155.371 16.928L154.251 18.016C153.995 17.7387 153.75 17.5413 153.515 17.424C153.291 17.3067 153.019 17.248 152.699 17.248C152.059 17.248 151.558 17.488 151.195 17.968C150.875 18.3733 150.715 19.0293 150.715 19.936C150.715 20.8533 150.875 21.5147 151.195 21.92C151.558 22.4 152.059 22.64 152.699 22.64C153.019 22.64 153.291 22.5813 153.515 22.464C153.75 22.3467 153.995 22.1493 154.251 21.872L155.371 22.944ZM162.911 17.312H160.431V24H158.799V17.312H156.223V15.888H162.911V17.312ZM174.214 19.936C174.214 20.6827 174.144 21.3067 174.006 21.808C173.867 22.3093 173.616 22.752 173.254 23.136C172.635 23.776 171.824 24.096 170.822 24.096C169.83 24.096 169.024 23.776 168.406 23.136C167.83 22.5387 167.515 21.6747 167.462 20.544H166.022V24H164.39V15.888H166.022V19.152H167.462C167.547 18.1067 167.862 17.3067 168.406 16.752C169.024 16.112 169.83 15.792 170.822 15.792C171.824 15.792 172.635 16.112 173.254 16.752C173.894 17.4133 174.214 18.4747 174.214 19.936ZM172.022 22.16C172.395 21.7867 172.582 21.0453 172.582 19.936C172.582 18.8267 172.395 18.0853 172.022 17.712C171.712 17.4027 171.312 17.248 170.822 17.248C170.342 17.248 169.947 17.4027 169.638 17.712C169.264 18.0853 169.078 18.8267 169.078 19.936C169.078 21.0453 169.264 21.7867 169.638 22.16C169.958 22.48 170.352 22.64 170.822 22.64C171.302 22.64 171.702 22.48 172.022 22.16ZM184.485 24H182.853V18.8L180.981 22.512H179.957L178.053 18.8V24H176.421V15.888H178.037L180.469 20.72L182.885 15.888H184.485V24Z" fill="white"/>
</svg>
