<svg width="139" height="36" viewBox="0 0 139 36" fill="none" xmlns="http://www.w3.org/2000/svg">
<rect width="139" height="36" fill="#323E48"/>
<path d="M27.264 24H25.536V12.608H27.264V24ZM34.064 24H31.872L27.28 18.032L31.536 12.608H33.664L29.28 17.984L34.064 24ZM40.7834 15.888L37.1994 25.616C36.8154 26.6827 36.0634 27.216 34.9434 27.216H34.2874V25.744H34.7034C35.0447 25.744 35.2954 25.6853 35.4554 25.568C35.6154 25.4613 35.754 25.2373 35.8714 24.896L36.3194 23.616L33.4714 15.888H35.2154L37.1514 21.616L39.0394 15.888H40.7834ZM48.6826 24H47.0506V17.312H43.8186V24H42.1866V15.888H48.6826V24ZM57.9383 24H56.3063V18.416L52.8343 24H51.2023V15.888H52.8343V21.392L56.3063 15.888H57.9383V24ZM66.0203 17.312H63.5403V24H61.9083V17.312H59.3323V15.888H66.0203V17.312ZM73.1631 19.648C73.6538 20.1067 73.8991 20.7147 73.8991 21.472C73.8991 22.2293 73.6538 22.8427 73.1631 23.312C72.6831 23.7707 72.0538 24 71.2751 24H67.4991V15.888H69.1311V18.944H71.2751C72.0538 18.944 72.6831 19.1787 73.1631 19.648ZM71.9471 22.352C72.1711 22.1387 72.2831 21.8453 72.2831 21.472C72.2831 21.0987 72.1711 20.8107 71.9471 20.608C71.7231 20.3947 71.4085 20.288 71.0031 20.288H69.1311V22.672H71.0031C71.4085 22.672 71.7231 22.5653 71.9471 22.352ZM81.3041 24H79.6561V15.888H81.3041V24ZM86.6001 24H84.6001L81.3201 19.776L84.4081 15.888H86.3601L83.1281 19.696L86.6001 24ZM93.9613 19.936C93.9613 20.6827 93.8919 21.3067 93.7533 21.808C93.6146 22.3093 93.3639 22.752 93.0013 23.136C92.3826 23.776 91.5719 24.096 90.5693 24.096C89.5773 24.096 88.7719 23.776 88.1533 23.136C87.7906 22.752 87.5399 22.3093 87.4013 21.808C87.2626 21.3067 87.1933 20.6827 87.1933 19.936C87.1933 19.2 87.2626 18.5813 87.4013 18.08C87.5399 17.568 87.7906 17.1253 88.1533 16.752C88.7719 16.112 89.5773 15.792 90.5693 15.792C91.5719 15.792 92.3826 16.112 93.0013 16.752C93.3639 17.1253 93.6146 17.568 93.7533 18.08C93.8919 18.5813 93.9613 19.2 93.9613 19.936ZM91.7693 22.16C92.1426 21.7867 92.3293 21.0453 92.3293 19.936C92.3293 18.8267 92.1426 18.0853 91.7693 17.712C91.4599 17.4027 91.0599 17.248 90.5693 17.248C90.0893 17.248 89.6946 17.4027 89.3853 17.712C89.0119 18.0853 88.8253 18.8267 88.8253 19.936C88.8253 21.0453 89.0119 21.7867 89.3853 22.16C89.7053 22.48 90.0999 22.64 90.5693 22.64C91.0493 22.64 91.4493 22.48 91.7693 22.16ZM103.739 19.92C103.739 18.1813 102.939 17.2907 101.339 17.248V22.624C102.128 22.6133 102.726 22.3733 103.131 21.904C103.536 21.4347 103.739 20.7733 103.739 19.92ZM101.339 27.28H99.707V24.08C98.4377 24.016 97.4457 23.6373 96.731 22.944C96.027 22.24 95.675 21.2267 95.675 19.904C95.675 18.592 96.0217 17.6 96.715 16.928C97.419 16.2453 98.4163 15.8667 99.707 15.792V12.608H101.339V15.792C102.63 15.8667 103.622 16.2453 104.315 16.928C105.019 17.6 105.371 18.592 105.371 19.904C105.371 21.2267 105.014 22.24 104.299 22.944C103.595 23.6373 102.608 24.016 101.339 24.08V27.28ZM97.307 19.92C97.307 20.7733 97.5097 21.4347 97.915 21.904C98.3203 22.3733 98.9177 22.6133 99.707 22.624V17.248C98.107 17.2907 97.307 18.1813 97.307 19.92ZM113.932 20.416H108.668C108.668 21.1307 108.844 21.6907 109.196 22.096C109.559 22.4907 110.071 22.688 110.732 22.688C111.169 22.688 111.532 22.624 111.82 22.496C112.108 22.368 112.401 22.1547 112.7 21.856L113.74 22.832C113.303 23.2693 112.855 23.5893 112.396 23.792C111.948 23.9947 111.383 24.096 110.7 24.096C109.591 24.096 108.705 23.7653 108.044 23.104C107.383 22.4427 107.052 21.3867 107.052 19.936C107.052 18.6347 107.361 17.6213 107.98 16.896C108.599 16.16 109.436 15.792 110.492 15.792C111.569 15.792 112.412 16.1493 113.02 16.864C113.628 17.5787 113.932 18.5333 113.932 19.728V20.416ZM112.316 19.28C112.284 18.8 112.209 18.432 112.092 18.176C111.783 17.4933 111.249 17.152 110.492 17.152C109.724 17.152 109.185 17.4933 108.876 18.176C108.748 18.4533 108.679 18.8213 108.668 19.28H112.316Z" fill="white"/>
</svg>
