<svg width="85" height="36" viewBox="0 0 85 36" fill="none" xmlns="http://www.w3.org/2000/svg">
<rect width="85" height="36" fill="#323E48"/>
<path d="M33.072 15.36C33.2 15.968 33.264 16.9493 33.264 18.304C33.264 19.6587 33.2 20.64 33.072 21.248C32.9547 21.856 32.6347 22.4213 32.112 22.944C31.344 23.712 30.3627 24.096 29.168 24.096C27.9733 24.096 26.992 23.712 26.224 22.944C25.7013 22.4213 25.376 21.856 25.248 21.248C25.1307 20.64 25.072 19.6587 25.072 18.304C25.072 16.9493 25.1307 15.968 25.248 15.36C25.376 14.752 25.7013 14.1867 26.224 13.664C26.992 12.896 27.9733 12.512 29.168 12.512C30.3627 12.512 31.344 12.896 32.112 13.664C32.6347 14.1867 32.9547 14.752 33.072 15.36ZM31.408 20.72C31.4933 20.2613 31.536 19.456 31.536 18.304C31.536 17.152 31.4933 16.3467 31.408 15.888C31.3227 15.4187 31.1413 15.04 30.864 14.752C30.416 14.2827 29.8507 14.048 29.168 14.048C28.4853 14.048 27.92 14.2827 27.472 14.752C27.1947 15.0507 27.0133 15.4347 26.928 15.904C26.8427 16.3627 26.8 17.1627 26.8 18.304C26.8 19.4453 26.8427 20.2453 26.928 20.704C27.0133 21.1627 27.1947 21.5413 27.472 21.84C27.9307 22.32 28.496 22.56 29.168 22.56C29.84 22.56 30.4053 22.32 30.864 21.84C31.1413 21.552 31.3227 21.1787 31.408 20.72ZM38.7758 22.624C39.2878 22.624 39.6878 22.464 39.9758 22.144C40.3171 21.7387 40.4878 21.0187 40.4878 19.984C40.4878 18.9067 40.3224 18.1813 39.9918 17.808C39.6824 17.4667 39.2771 17.296 38.7758 17.296C38.2531 17.296 37.8424 17.4667 37.5438 17.808C37.1811 18.224 36.9998 18.9387 36.9998 19.952C36.9998 20.976 37.1918 21.7067 37.5758 22.144C37.8851 22.464 38.2851 22.624 38.7758 22.624ZM38.7918 24.096C38.1091 24.096 37.5118 23.952 36.9998 23.664C36.4878 23.376 36.1091 22.96 35.8638 22.416C35.5438 21.7333 35.3838 20.5387 35.3838 18.832C35.3838 17.0613 35.4584 15.8453 35.6078 15.184C35.7571 14.5227 36.0878 13.9733 36.5998 13.536C36.9304 13.248 37.3624 13.0293 37.8958 12.88C38.4398 12.7307 38.9358 12.64 39.3838 12.608C39.8424 12.576 40.5358 12.544 41.4638 12.512V13.952C41.3038 13.9627 41.0158 13.9787 40.5998 14C40.1838 14.0213 39.8424 14.0427 39.5758 14.064C39.3091 14.0853 39.0051 14.1387 38.6638 14.224C38.3224 14.3093 38.0451 14.4267 37.8318 14.576C37.4584 14.8213 37.2024 15.1307 37.0638 15.504C36.9251 15.8667 36.8558 16.352 36.8558 16.96C37.0264 16.64 37.3144 16.384 37.7198 16.192C38.1358 16 38.5891 15.904 39.0798 15.904C39.9118 15.904 40.5731 16.1333 41.0638 16.592C41.7678 17.2533 42.1198 18.3627 42.1198 19.92C42.1198 21.424 41.7891 22.512 41.1278 23.184C40.5411 23.792 39.7624 24.096 38.7918 24.096ZM50.76 20.416H45.496C45.496 21.1307 45.672 21.6907 46.024 22.096C46.3867 22.4907 46.8987 22.688 47.56 22.688C47.9973 22.688 48.36 22.624 48.648 22.496C48.936 22.368 49.2293 22.1547 49.528 21.856L50.568 22.832C50.1307 23.2693 49.6827 23.5893 49.224 23.792C48.776 23.9947 48.2107 24.096 47.528 24.096C46.4187 24.096 45.5333 23.7653 44.872 23.104C44.2107 22.4427 43.88 21.3867 43.88 19.936C43.88 18.6347 44.1893 17.6213 44.808 16.896C45.4267 16.16 46.264 15.792 47.32 15.792C48.3973 15.792 49.24 16.1493 49.848 16.864C50.456 17.5787 50.76 18.5333 50.76 19.728V20.416ZM49.144 19.28C49.112 18.8 49.0373 18.432 48.92 18.176C48.6107 17.4933 48.0773 17.152 47.32 17.152C46.552 17.152 46.0133 17.4933 45.704 18.176C45.576 18.4533 45.5067 18.8213 45.496 19.28H49.144ZM54.8965 17.312V18.608C54.8965 20.1547 54.6405 21.4773 54.1285 22.576H57.1845V17.312H54.8965ZM53.3445 15.888H58.8165V22.576H59.9365V26.08H58.3685V24H53.1045V26.08H51.5525V22.576H52.4165C52.7258 21.968 52.9552 21.3333 53.1045 20.672C53.2645 20 53.3445 19.0933 53.3445 17.952V15.888Z" fill="white"/>
</svg>
