<svg width="121" height="36" viewBox="0 0 121 36" fill="none" xmlns="http://www.w3.org/2000/svg">
<rect width="121" height="36" fill="#323E48"/>
<path d="M33.232 20.592C33.04 21.7013 32.576 22.5653 31.84 23.184C31.1147 23.792 30.224 24.096 29.168 24.096C27.9733 24.096 26.992 23.712 26.224 22.944C25.712 22.4213 25.392 21.856 25.264 21.248C25.136 20.6293 25.072 19.648 25.072 18.304C25.072 16.96 25.136 15.984 25.264 15.376C25.392 14.7573 25.712 14.1867 26.224 13.664C26.992 12.896 27.9733 12.512 29.168 12.512C30.2347 12.512 31.1253 12.8213 31.84 13.44C32.5653 14.048 33.0293 14.9067 33.232 16.016H31.472C31.344 15.408 31.0827 14.928 30.688 14.576C30.2933 14.224 29.7867 14.048 29.168 14.048C28.4853 14.048 27.9253 14.2827 27.488 14.752C27.2 15.0507 27.0133 15.4347 26.928 15.904C26.8427 16.3627 26.8 17.1627 26.8 18.304C26.8 19.4453 26.8427 20.2507 26.928 20.72C27.0133 21.1787 27.2 21.5573 27.488 21.856C27.9253 22.3253 28.4853 22.56 29.168 22.56C29.7867 22.56 30.2933 22.384 30.688 22.032C31.0933 21.68 31.3653 21.2 31.504 20.592H33.232ZM41.8389 24H40.2069V17.312H36.9749V24H35.3429V15.888H41.8389V24ZM50.7425 19.936C50.7425 20.6827 50.6732 21.3067 50.5345 21.808C50.3958 22.3093 50.1452 22.752 49.7825 23.136C49.1638 23.776 48.3532 24.096 47.3505 24.096C46.3585 24.096 45.5532 23.776 44.9345 23.136C44.5718 22.752 44.3212 22.3093 44.1825 21.808C44.0438 21.3067 43.9745 20.6827 43.9745 19.936C43.9745 19.2 44.0438 18.5813 44.1825 18.08C44.3212 17.568 44.5718 17.1253 44.9345 16.752C45.5532 16.112 46.3585 15.792 47.3505 15.792C48.3532 15.792 49.1638 16.112 49.7825 16.752C50.1452 17.1253 50.3958 17.568 50.5345 18.08C50.6732 18.5813 50.7425 19.2 50.7425 19.936ZM48.5505 22.16C48.9238 21.7867 49.1105 21.0453 49.1105 19.936C49.1105 18.8267 48.9238 18.0853 48.5505 17.712C48.2412 17.4027 47.8412 17.248 47.3505 17.248C46.8705 17.248 46.4758 17.4027 46.1665 17.712C45.7932 18.0853 45.6065 18.8267 45.6065 19.936C45.6065 21.0453 45.7932 21.7867 46.1665 22.16C46.4865 22.48 46.8812 22.64 47.3505 22.64C47.8305 22.64 48.2305 22.48 48.5505 22.16ZM59.5923 19.936C59.5923 21.6107 59.2883 22.7573 58.6803 23.376C58.2003 23.856 57.5443 24.096 56.7123 24.096C55.8056 24.096 55.0963 23.7867 54.5843 23.168V27.28H52.9523V15.888H54.5523V16.752C55.0856 16.112 55.8003 15.792 56.6963 15.792C57.5389 15.792 58.2003 16.032 58.6803 16.512C59.2883 17.1307 59.5923 18.272 59.5923 19.936ZM57.8963 20.976C57.9389 20.688 57.9603 20.3413 57.9603 19.936C57.9603 19.5307 57.9389 19.184 57.8963 18.896C57.8643 18.608 57.7896 18.3307 57.6723 18.064C57.5656 17.7973 57.3949 17.5947 57.1603 17.456C56.9256 17.3173 56.6323 17.248 56.2803 17.248C55.9176 17.248 55.6189 17.3173 55.3843 17.456C55.1496 17.5947 54.9736 17.7973 54.8563 18.064C54.7496 18.3307 54.6749 18.608 54.6323 18.896C54.6003 19.184 54.5843 19.5307 54.5843 19.936C54.5843 20.3413 54.6003 20.688 54.6323 20.976C54.6749 21.264 54.7496 21.5467 54.8563 21.824C54.9736 22.0907 55.1496 22.2933 55.3843 22.432C55.6296 22.5707 55.9283 22.64 56.2803 22.64C56.6323 22.64 56.9256 22.5707 57.1603 22.432C57.3949 22.2933 57.5656 22.0907 57.6723 21.824C57.7896 21.5467 57.8643 21.264 57.8963 20.976ZM67.2859 17.312H64.8059V24H63.1739V17.312H60.5979V15.888H67.2859V17.312ZM78.1925 21.648C78.1925 22.3733 77.8885 22.96 77.2805 23.408C76.6832 23.856 75.9578 24.08 75.1045 24.08C73.6752 24.08 72.5392 23.696 71.6965 22.928L72.6725 21.904C73.2698 22.4373 74.0005 22.704 74.8645 22.704C75.3232 22.704 75.7232 22.6027 76.0645 22.4C76.4165 22.1867 76.5925 21.904 76.5925 21.552C76.5925 20.8267 76.1232 20.464 75.1845 20.464H73.9845V19.248H75.1685C75.5632 19.248 75.8778 19.152 76.1125 18.96C76.3472 18.768 76.4645 18.5013 76.4645 18.16C76.4645 17.8293 76.3205 17.5787 76.0325 17.408C75.7552 17.2267 75.3712 17.136 74.8805 17.136C74.1445 17.136 73.4938 17.3387 72.9285 17.744L72.0165 16.704C72.8058 16.096 73.8458 15.792 75.1365 15.792C75.9685 15.792 76.6618 15.9893 77.2165 16.384C77.7818 16.768 78.0645 17.3013 78.0645 17.984C78.0645 18.3787 77.9578 18.736 77.7445 19.056C77.5312 19.376 77.2432 19.6107 76.8805 19.76C77.2752 19.9093 77.5898 20.1547 77.8245 20.496C78.0698 20.8267 78.1925 21.2107 78.1925 21.648ZM86.4046 24H84.8046V23.264C84.506 23.5627 84.1913 23.776 83.8606 23.904C83.5406 24.032 83.1353 24.096 82.6446 24.096C81.6846 24.096 80.9593 23.8507 80.4686 23.36C80.042 22.912 79.8286 22.3307 79.8286 21.616C79.8286 20.912 80.0686 20.3467 80.5486 19.92C81.0393 19.4933 81.738 19.28 82.6446 19.28H84.7726V18.704C84.7726 18.1813 84.634 17.7973 84.3566 17.552C84.0793 17.3067 83.626 17.184 82.9966 17.184C82.57 17.184 82.2233 17.248 81.9566 17.376C81.7006 17.4933 81.4553 17.696 81.2206 17.984L80.1646 16.976C80.538 16.5387 80.938 16.2347 81.3646 16.064C81.802 15.8827 82.3673 15.792 83.0606 15.792C85.29 15.792 86.4046 16.72 86.4046 18.576V24ZM84.7726 21.072V20.416H82.9006C81.9086 20.416 81.4126 20.8053 81.4126 21.584C81.4126 22.352 81.9246 22.736 82.9486 22.736C83.5993 22.736 84.09 22.5813 84.4206 22.272C84.6553 22.048 84.7726 21.648 84.7726 21.072ZM95.209 24H93.577V17.312H91.225V19.664C91.225 20.5067 91.1663 21.216 91.049 21.792C90.9317 22.368 90.7557 22.816 90.521 23.136C90.2863 23.4453 90.0143 23.6693 89.705 23.808C89.4063 23.936 89.049 24 88.633 24H87.865V22.56H88.121C88.2917 22.56 88.4357 22.5493 88.553 22.528C88.6703 22.496 88.8037 22.4213 88.953 22.304C89.113 22.176 89.2357 22.0053 89.321 21.792C89.417 21.568 89.497 21.2427 89.561 20.816C89.625 20.3787 89.657 19.8613 89.657 19.264V15.888H95.209V24Z" fill="white"/>
</svg>
