<svg width="153" height="36" viewBox="0 0 153 36" fill="none" xmlns="http://www.w3.org/2000/svg">
<rect width="153" height="36" fill="#323E48"/>
<path d="M27.264 24H25.536V12.608H27.264V24ZM34.064 24H31.872L27.28 18.032L31.536 12.608H33.664L29.28 17.984L34.064 24ZM41.264 24H39.664V23.264C39.3653 23.5627 39.0507 23.776 38.72 23.904C38.4 24.032 37.9947 24.096 37.504 24.096C36.544 24.096 35.8187 23.8507 35.328 23.36C34.9013 22.912 34.688 22.3307 34.688 21.616C34.688 20.912 34.928 20.3467 35.408 19.92C35.8987 19.4933 36.5973 19.28 37.504 19.28H39.632V18.704C39.632 18.1813 39.4933 17.7973 39.216 17.552C38.9387 17.3067 38.4853 17.184 37.856 17.184C37.4293 17.184 37.0827 17.248 36.816 17.376C36.56 17.4933 36.3147 17.696 36.08 17.984L35.024 16.976C35.3973 16.5387 35.7973 16.2347 36.224 16.064C36.6613 15.8827 37.2267 15.792 37.92 15.792C40.1493 15.792 41.264 16.72 41.264 18.576V24ZM39.632 21.072V20.416H37.76C36.768 20.416 36.272 20.8053 36.272 21.584C36.272 22.352 36.784 22.736 37.808 22.736C38.4587 22.736 38.9493 22.5813 39.28 22.272C39.5147 22.048 39.632 21.648 39.632 21.072ZM51.3484 19.92C51.3484 18.1813 50.5484 17.2907 48.9484 17.248V22.624C49.7377 22.6133 50.335 22.3733 50.7404 21.904C51.1457 21.4347 51.3484 20.7733 51.3484 19.92ZM48.9484 27.28H47.3164V24.08C46.047 24.016 45.055 23.6373 44.3404 22.944C43.6364 22.24 43.2844 21.2267 43.2844 19.904C43.2844 18.592 43.631 17.6 44.3244 16.928C45.0284 16.2453 46.0257 15.8667 47.3164 15.792V12.608H48.9484V15.792C50.239 15.8667 51.231 16.2453 51.9244 16.928C52.6284 17.6 52.9804 18.592 52.9804 19.904C52.9804 21.2267 52.623 22.24 51.9084 22.944C51.2044 23.6373 50.2177 24.016 48.9484 24.08V27.28ZM44.9164 19.92C44.9164 20.7733 45.119 21.4347 45.5244 21.904C45.9297 22.3733 46.527 22.6133 47.3164 22.624V17.248C45.7164 17.2907 44.9164 18.1813 44.9164 19.92ZM61.5413 20.416H56.2773C56.2773 21.1307 56.4533 21.6907 56.8053 22.096C57.1679 22.4907 57.6799 22.688 58.3413 22.688C58.7786 22.688 59.1413 22.624 59.4293 22.496C59.7173 22.368 60.0106 22.1547 60.3093 21.856L61.3493 22.832C60.9119 23.2693 60.4639 23.5893 60.0053 23.792C59.5573 23.9947 58.9919 24.096 58.3093 24.096C57.1999 24.096 56.3146 23.7653 55.6533 23.104C54.9919 22.4427 54.6613 21.3867 54.6613 19.936C54.6613 18.6347 54.9706 17.6213 55.5893 16.896C56.2079 16.16 57.0453 15.792 58.1013 15.792C59.1786 15.792 60.0213 16.1493 60.6293 16.864C61.2373 17.5787 61.5413 18.5333 61.5413 19.728V20.416ZM59.9253 19.28C59.8933 18.8 59.8186 18.432 59.7013 18.176C59.3919 17.4933 58.8586 17.152 58.1013 17.152C57.3333 17.152 56.7946 17.4933 56.4853 18.176C56.3573 18.4533 56.2879 18.8213 56.2773 19.28H59.9253ZM73.13 21.648C73.13 22.3733 72.826 22.96 72.218 23.408C71.6207 23.856 70.8953 24.08 70.042 24.08C68.6127 24.08 67.4767 23.696 66.634 22.928L67.61 21.904C68.2073 22.4373 68.938 22.704 69.802 22.704C70.2607 22.704 70.6607 22.6027 71.002 22.4C71.354 22.1867 71.53 21.904 71.53 21.552C71.53 20.8267 71.0607 20.464 70.122 20.464H68.922V19.248H70.106C70.5007 19.248 70.8153 19.152 71.05 18.96C71.2847 18.768 71.402 18.5013 71.402 18.16C71.402 17.8293 71.258 17.5787 70.97 17.408C70.6927 17.2267 70.3087 17.136 69.818 17.136C69.082 17.136 68.4313 17.3387 67.866 17.744L66.954 16.704C67.7433 16.096 68.7833 15.792 70.074 15.792C70.906 15.792 71.5993 15.9893 72.154 16.384C72.7193 16.768 73.002 17.3013 73.002 17.984C73.002 18.3787 72.8953 18.736 72.682 19.056C72.4687 19.376 72.1807 19.6107 71.818 19.76C72.2127 19.9093 72.5273 20.1547 72.762 20.496C73.0073 20.8267 73.13 21.2107 73.13 21.648ZM81.3421 24H79.7421V23.264C79.4435 23.5627 79.1288 23.776 78.7981 23.904C78.4781 24.032 78.0728 24.096 77.5821 24.096C76.6221 24.096 75.8968 23.8507 75.4061 23.36C74.9795 22.912 74.7661 22.3307 74.7661 21.616C74.7661 20.912 75.0061 20.3467 75.4861 19.92C75.9768 19.4933 76.6755 19.28 77.5821 19.28H79.7101V18.704C79.7101 18.1813 79.5715 17.7973 79.2941 17.552C79.0168 17.3067 78.5635 17.184 77.9341 17.184C77.5075 17.184 77.1608 17.248 76.8941 17.376C76.6381 17.4933 76.3928 17.696 76.1581 17.984L75.1021 16.976C75.4755 16.5387 75.8755 16.2347 76.3021 16.064C76.7395 15.8827 77.3048 15.792 77.9981 15.792C80.2275 15.792 81.3421 16.72 81.3421 18.576V24ZM79.7101 21.072V20.416H77.8381C76.8461 20.416 76.3501 20.8053 76.3501 21.584C76.3501 22.352 76.8621 22.736 77.8861 22.736C78.5368 22.736 79.0275 22.5813 79.3581 22.272C79.5928 22.048 79.7101 21.648 79.7101 21.072ZM93.8303 15.888L90.2463 25.616C89.8623 26.6827 89.1103 27.216 87.9903 27.216H87.3343V25.744H87.7503C88.0916 25.744 88.3423 25.6853 88.5023 25.568C88.6623 25.4613 88.8009 25.2373 88.9183 24.896L89.3663 23.616L86.5183 15.888H88.2623L90.1983 21.616L92.0863 15.888H93.8303ZM100.562 17.312H96.9295V24H95.2975V15.888H100.562V17.312ZM108.178 24H106.546V17.312H104.194V19.664C104.194 20.5067 104.135 21.216 104.018 21.792C103.9 22.368 103.724 22.816 103.49 23.136C103.255 23.4453 102.983 23.6693 102.674 23.808C102.375 23.936 102.018 24 101.602 24H100.834V22.56H101.09C101.26 22.56 101.404 22.5493 101.522 22.528C101.639 22.496 101.772 22.4213 101.922 22.304C102.082 22.176 102.204 22.0053 102.29 21.792C102.386 21.568 102.466 21.2427 102.53 20.816C102.594 20.3787 102.626 19.8613 102.626 19.264V15.888H108.178V24ZM117.164 19.936C117.164 20.6827 117.095 21.3067 116.956 21.808C116.818 22.3093 116.567 22.752 116.204 23.136C115.586 23.776 114.775 24.096 113.772 24.096C112.78 24.096 111.975 23.776 111.356 23.136C110.994 22.752 110.743 22.3093 110.604 21.808C110.466 21.3067 110.396 20.6827 110.396 19.936C110.396 19.2 110.466 18.5813 110.604 18.08C110.743 17.568 110.994 17.1253 111.356 16.752C111.975 16.112 112.78 15.792 113.772 15.792C114.775 15.792 115.586 16.112 116.204 16.752C116.567 17.1253 116.818 17.568 116.956 18.08C117.095 18.5813 117.164 19.2 117.164 19.936ZM114.972 22.16C115.346 21.7867 115.532 21.0453 115.532 19.936C115.532 18.8267 115.346 18.0853 114.972 17.712C114.663 17.4027 114.263 17.248 113.772 17.248C113.292 17.248 112.898 17.4027 112.588 17.712C112.215 18.0853 112.028 18.8267 112.028 19.936C112.028 21.0453 112.215 21.7867 112.588 22.16C112.908 22.48 113.303 22.64 113.772 22.64C114.252 22.64 114.652 22.48 114.972 22.16ZM127.438 24H125.806V18.8L123.934 22.512H122.91L121.006 18.8V24H119.374V15.888H120.99L123.422 20.72L125.838 15.888H127.438V24Z" fill="white"/>
</svg>
