<svg width="193" height="36" viewBox="0 0 193 36" fill="none" xmlns="http://www.w3.org/2000/svg">
<rect width="193" height="36" fill="#323E48"/>
<path d="M33.552 24H31.824V14.16H27.216V24H25.488V12.608H33.552V24ZM42.7269 19.936C42.7269 20.6827 42.6575 21.3067 42.5189 21.808C42.3802 22.3093 42.1295 22.752 41.7669 23.136C41.1482 23.776 40.3375 24.096 39.3349 24.096C38.3429 24.096 37.5375 23.776 36.9189 23.136C36.5562 22.752 36.3055 22.3093 36.1669 21.808C36.0282 21.3067 35.9589 20.6827 35.9589 19.936C35.9589 19.2 36.0282 18.5813 36.1669 18.08C36.3055 17.568 36.5562 17.1253 36.9189 16.752C37.5375 16.112 38.3429 15.792 39.3349 15.792C40.3375 15.792 41.1482 16.112 41.7669 16.752C42.1295 17.1253 42.3802 17.568 42.5189 18.08C42.6575 18.5813 42.7269 19.2 42.7269 19.936ZM40.5349 22.16C40.9082 21.7867 41.0949 21.0453 41.0949 19.936C41.0949 18.8267 40.9082 18.0853 40.5349 17.712C40.2255 17.4027 39.8255 17.248 39.3349 17.248C38.8549 17.248 38.4602 17.4027 38.1509 17.712C37.7775 18.0853 37.5909 18.8267 37.5909 19.936C37.5909 21.0453 37.7775 21.7867 38.1509 22.16C38.4709 22.48 38.8655 22.64 39.3349 22.64C39.8149 22.64 40.2149 22.48 40.5349 22.16ZM51.3206 19.936C51.3206 20.6827 51.2513 21.3067 51.1126 21.808C50.974 22.3093 50.7233 22.752 50.3606 23.136C49.742 23.776 48.9313 24.096 47.9286 24.096C46.9366 24.096 46.1313 23.776 45.5126 23.136C45.15 22.752 44.8993 22.3093 44.7606 21.808C44.622 21.3067 44.5526 20.6827 44.5526 19.936C44.5526 19.2 44.622 18.5813 44.7606 18.08C44.8993 17.568 45.15 17.1253 45.5126 16.752C46.1313 16.112 46.9366 15.792 47.9286 15.792C48.9313 15.792 49.742 16.112 50.3606 16.752C50.7233 17.1253 50.974 17.568 51.1126 18.08C51.2513 18.5813 51.3206 19.2 51.3206 19.936ZM49.1286 22.16C49.502 21.7867 49.6886 21.0453 49.6886 19.936C49.6886 18.8267 49.502 18.0853 49.1286 17.712C48.8193 17.4027 48.4193 17.248 47.9286 17.248C47.4486 17.248 47.054 17.4027 46.7446 17.712C46.3713 18.0853 46.1846 18.8267 46.1846 19.936C46.1846 21.0453 46.3713 21.7867 46.7446 22.16C47.0646 22.48 47.4593 22.64 47.9286 22.64C48.4086 22.64 48.8086 22.48 49.1286 22.16ZM56.6664 22.624C57.1784 22.624 57.5784 22.464 57.8664 22.144C58.2077 21.7387 58.3784 21.0187 58.3784 19.984C58.3784 18.9067 58.213 18.1813 57.8824 17.808C57.573 17.4667 57.1677 17.296 56.6664 17.296C56.1437 17.296 55.733 17.4667 55.4344 17.808C55.0717 18.224 54.8904 18.9387 54.8904 19.952C54.8904 20.976 55.0824 21.7067 55.4664 22.144C55.7757 22.464 56.1757 22.624 56.6664 22.624ZM56.6824 24.096C55.9997 24.096 55.4024 23.952 54.8904 23.664C54.3784 23.376 53.9997 22.96 53.7544 22.416C53.4344 21.7333 53.2744 20.5387 53.2744 18.832C53.2744 17.0613 53.349 15.8453 53.4984 15.184C53.6477 14.5227 53.9784 13.9733 54.4904 13.536C54.821 13.248 55.253 13.0293 55.7864 12.88C56.3304 12.7307 56.8264 12.64 57.2744 12.608C57.733 12.576 58.4264 12.544 59.3544 12.512V13.952C59.1944 13.9627 58.9064 13.9787 58.4904 14C58.0744 14.0213 57.733 14.0427 57.4664 14.064C57.1997 14.0853 56.8957 14.1387 56.5544 14.224C56.213 14.3093 55.9357 14.4267 55.7224 14.576C55.349 14.8213 55.093 15.1307 54.9544 15.504C54.8157 15.8667 54.7464 16.352 54.7464 16.96C54.917 16.64 55.205 16.384 55.6104 16.192C56.0264 16 56.4797 15.904 56.9704 15.904C57.8024 15.904 58.4637 16.1333 58.9544 16.592C59.6584 17.2533 60.0104 18.3627 60.0104 19.92C60.0104 21.424 59.6797 22.512 59.0184 23.184C58.4317 23.792 57.653 24.096 56.6824 24.096ZM68.6506 20.416H63.3866C63.3866 21.1307 63.5626 21.6907 63.9146 22.096C64.2773 22.4907 64.7893 22.688 65.4506 22.688C65.888 22.688 66.2506 22.624 66.5386 22.496C66.8266 22.368 67.12 22.1547 67.4186 21.856L68.4586 22.832C68.0213 23.2693 67.5733 23.5893 67.1146 23.792C66.6666 23.9947 66.1013 24.096 65.4186 24.096C64.3093 24.096 63.424 23.7653 62.7626 23.104C62.1013 22.4427 61.7706 21.3867 61.7706 19.936C61.7706 18.6347 62.08 17.6213 62.6986 16.896C63.3173 16.16 64.1546 15.792 65.2106 15.792C66.288 15.792 67.1306 16.1493 67.7386 16.864C68.3466 17.5787 68.6506 18.5333 68.6506 19.728V20.416ZM67.0346 19.28C67.0026 18.8 66.928 18.432 66.8106 18.176C66.5013 17.4933 65.968 17.152 65.2106 17.152C64.4426 17.152 63.904 17.4933 63.5946 18.176C63.4666 18.4533 63.3973 18.8213 63.3866 19.28H67.0346ZM72.7871 17.312V18.608C72.7871 20.1547 72.5311 21.4773 72.0191 22.576H75.0751V17.312H72.7871ZM71.2351 15.888H76.7071V22.576H77.8271V26.08H76.2591V24H70.9951V26.08H69.4431V22.576H70.3071C70.6165 21.968 70.8458 21.3333 70.9951 20.672C71.1551 20 71.2351 19.0933 71.2351 17.952V15.888ZM85.5609 24H83.9609V23.264C83.6622 23.5627 83.3475 23.776 83.0169 23.904C82.6969 24.032 82.2915 24.096 81.8009 24.096C80.8409 24.096 80.1155 23.8507 79.6249 23.36C79.1982 22.912 78.9849 22.3307 78.9849 21.616C78.9849 20.912 79.2249 20.3467 79.7049 19.92C80.1955 19.4933 80.8942 19.28 81.8009 19.28H83.9289V18.704C83.9289 18.1813 83.7902 17.7973 83.5129 17.552C83.2355 17.3067 82.7822 17.184 82.1529 17.184C81.7262 17.184 81.3795 17.248 81.1129 17.376C80.8569 17.4933 80.6115 17.696 80.3769 17.984L79.3209 16.976C79.6942 16.5387 80.0942 16.2347 80.5209 16.064C80.9582 15.8827 81.5235 15.792 82.2169 15.792C84.4462 15.792 85.5609 16.72 85.5609 18.576V24ZM83.9289 21.072V20.416H82.0569C81.0649 20.416 80.5689 20.8053 80.5689 21.584C80.5689 22.352 81.0809 22.736 82.1049 22.736C82.7555 22.736 83.2462 22.5813 83.5769 22.272C83.8115 22.048 83.9289 21.648 83.9289 21.072ZM93.489 17.312H91.009V24H89.377V17.312H86.801V15.888H93.489V17.312ZM100.632 19.648C101.123 20.1067 101.368 20.7147 101.368 21.472C101.368 22.2293 101.123 22.8427 100.632 23.312C100.152 23.7707 99.5225 24 98.7439 24H94.9679V15.888H96.5999V18.944H98.7439C99.5225 18.944 100.152 19.1787 100.632 19.648ZM99.4159 22.352C99.6399 22.1387 99.7519 21.8453 99.7519 21.472C99.7519 21.0987 99.6399 20.8107 99.4159 20.608C99.1919 20.3947 98.8772 20.288 98.4719 20.288H96.5999V22.672H98.4719C98.8772 22.672 99.1919 22.5653 99.4159 22.352ZM113.589 24H111.957V20.544H108.725V24H107.093V15.888H108.725V19.12H111.957V15.888H113.589V24ZM122.155 24H120.555V23.264C120.256 23.5627 119.941 23.776 119.611 23.904C119.291 24.032 118.885 24.096 118.395 24.096C117.435 24.096 116.709 23.8507 116.219 23.36C115.792 22.912 115.579 22.3307 115.579 21.616C115.579 20.912 115.819 20.3467 116.299 19.92C116.789 19.4933 117.488 19.28 118.395 19.28H120.523V18.704C120.523 18.1813 120.384 17.7973 120.107 17.552C119.829 17.3067 119.376 17.184 118.747 17.184C118.32 17.184 117.973 17.248 117.707 17.376C117.451 17.4933 117.205 17.696 116.971 17.984L115.915 16.976C116.288 16.5387 116.688 16.2347 117.115 16.064C117.552 15.8827 118.117 15.792 118.811 15.792C121.04 15.792 122.155 16.72 122.155 18.576V24ZM120.523 21.072V20.416H118.651C117.659 20.416 117.163 20.8053 117.163 21.584C117.163 22.352 117.675 22.736 118.699 22.736C119.349 22.736 119.84 22.5813 120.171 22.272C120.405 22.048 120.523 21.648 120.523 21.072ZM130.195 24H128.547V15.888H130.195V24ZM135.491 24H133.491L130.211 19.776L133.299 15.888H135.251L132.019 19.696L135.491 24ZM142.908 15.888L139.324 25.616C138.94 26.6827 138.188 27.216 137.068 27.216H136.412V25.744H136.828C137.17 25.744 137.42 25.6853 137.58 25.568C137.74 25.4613 137.879 25.2373 137.996 24.896L138.444 23.616L135.596 15.888H137.34L139.276 21.616L141.164 15.888H142.908ZM150.868 24H148.916L147.204 21.232L145.492 24H143.524L146.308 19.856L143.636 15.888H145.604L147.204 18.528L148.804 15.888H150.756L148.084 19.856L150.868 24ZM159.011 24H157.379V20.544H154.147V24H152.515V15.888H154.147V19.12H157.379V15.888H159.011V24ZM168.073 20.416H162.809C162.809 21.1307 162.985 21.6907 163.337 22.096C163.699 22.4907 164.211 22.688 164.873 22.688C165.31 22.688 165.673 22.624 165.961 22.496C166.249 22.368 166.542 22.1547 166.841 21.856L167.881 22.832C167.443 23.2693 166.995 23.5893 166.537 23.792C166.089 23.9947 165.523 24.096 164.841 24.096C163.731 24.096 162.846 23.7653 162.185 23.104C161.523 22.4427 161.193 21.3867 161.193 19.936C161.193 18.6347 161.502 17.6213 162.121 16.896C162.739 16.16 163.577 15.792 164.633 15.792C165.71 15.792 166.553 16.1493 167.161 16.864C167.769 17.5787 168.073 18.5333 168.073 19.728V20.416ZM166.457 19.28C166.425 18.8 166.35 18.432 166.233 18.176C165.923 17.4933 165.39 17.152 164.633 17.152C163.865 17.152 163.326 17.4933 163.017 18.176C162.889 18.4533 162.819 18.8213 162.809 19.28H166.457Z" fill="white"/>
</svg>
