<svg width="180" height="36" viewBox="0 0 180 36" fill="none" xmlns="http://www.w3.org/2000/svg">
<rect width="180" height="36" fill="#323E48"/>
<path d="M33.552 24H31.824V14.16H27.216V24H25.488V12.608H33.552V24ZM42.7269 19.936C42.7269 20.6827 42.6575 21.3067 42.5189 21.808C42.3802 22.3093 42.1295 22.752 41.7669 23.136C41.1482 23.776 40.3375 24.096 39.3349 24.096C38.3429 24.096 37.5375 23.776 36.9189 23.136C36.5562 22.752 36.3055 22.3093 36.1669 21.808C36.0282 21.3067 35.9589 20.6827 35.9589 19.936C35.9589 19.2 36.0282 18.5813 36.1669 18.08C36.3055 17.568 36.5562 17.1253 36.9189 16.752C37.5375 16.112 38.3429 15.792 39.3349 15.792C40.3375 15.792 41.1482 16.112 41.7669 16.752C42.1295 17.1253 42.3802 17.568 42.5189 18.08C42.6575 18.5813 42.7269 19.2 42.7269 19.936ZM40.5349 22.16C40.9082 21.7867 41.0949 21.0453 41.0949 19.936C41.0949 18.8267 40.9082 18.0853 40.5349 17.712C40.2255 17.4027 39.8255 17.248 39.3349 17.248C38.8549 17.248 38.4602 17.4027 38.1509 17.712C37.7775 18.0853 37.5909 18.8267 37.5909 19.936C37.5909 21.0453 37.7775 21.7867 38.1509 22.16C38.4709 22.48 38.8655 22.64 39.3349 22.64C39.8149 22.64 40.2149 22.48 40.5349 22.16ZM50.9121 24H49.2801V17.312H46.9281V19.664C46.9281 20.5067 46.8695 21.216 46.7521 21.792C46.6348 22.368 46.4588 22.816 46.2241 23.136C45.9895 23.4453 45.7175 23.6693 45.4081 23.808C45.1095 23.936 44.7521 24 44.3361 24H43.5681V22.56H43.8241C43.9948 22.56 44.1388 22.5493 44.2561 22.528C44.3735 22.496 44.5068 22.4213 44.6561 22.304C44.8161 22.176 44.9388 22.0053 45.0241 21.792C45.1201 21.568 45.2001 21.2427 45.2641 20.816C45.3281 20.3787 45.3601 19.8613 45.3601 19.264V15.888H50.9121V24ZM59.5646 15.888L55.9806 25.616C55.5966 26.6827 54.8446 27.216 53.7246 27.216H53.0686V25.744H53.4846C53.826 25.744 54.0766 25.6853 54.2366 25.568C54.3966 25.4613 54.5353 25.2373 54.6526 24.896L55.1006 23.616L52.2526 15.888H53.9966L55.9326 21.616L57.8206 15.888H59.5646ZM66.8738 24H65.2418V21.008C64.3884 21.1787 63.6151 21.264 62.9218 21.264C62.2284 21.264 61.6684 21.072 61.2418 20.688C60.8258 20.2933 60.6178 19.7333 60.6178 19.008V15.888H62.2498V18.608C62.2498 19.408 62.6444 19.808 63.4338 19.808C63.9244 19.808 64.5271 19.744 65.2418 19.616V15.888H66.8738V24ZM76.2039 24H74.5719V18.416L71.0999 24H69.4679V15.888H71.0999V21.392L74.5719 15.888H76.2039V24ZM84.2859 17.312H81.8059V24H80.1739V17.312H77.5979V15.888H84.2859V17.312ZM91.4288 19.648C91.9194 20.1067 92.1648 20.7147 92.1648 21.472C92.1648 22.2293 91.9194 22.8427 91.4288 23.312C90.9488 23.7707 90.3194 24 89.5408 24H85.7648V15.888H87.3968V18.944H89.5408C90.3194 18.944 90.9488 19.1787 91.4288 19.648ZM90.2128 22.352C90.4368 22.1387 90.5488 21.8453 90.5488 21.472C90.5488 21.0987 90.4368 20.8107 90.2128 20.608C89.9888 20.3947 89.6741 20.288 89.2688 20.288H87.3968V22.672H89.2688C89.6741 22.672 89.9888 22.5653 90.2128 22.352ZM104.386 24H102.754V17.312H99.5218V24H97.8898V15.888H104.386V24ZM113.545 19.936C113.545 21.6107 113.241 22.7573 112.633 23.376C112.153 23.856 111.497 24.096 110.665 24.096C109.759 24.096 109.049 23.7867 108.537 23.168V27.28H106.905V15.888H108.505V16.752C109.039 16.112 109.753 15.792 110.649 15.792C111.492 15.792 112.153 16.032 112.633 16.512C113.241 17.1307 113.545 18.272 113.545 19.936ZM111.849 20.976C111.892 20.688 111.913 20.3413 111.913 19.936C111.913 19.5307 111.892 19.184 111.849 18.896C111.817 18.608 111.743 18.3307 111.625 18.064C111.519 17.7973 111.348 17.5947 111.113 17.456C110.879 17.3173 110.585 17.248 110.233 17.248C109.871 17.248 109.572 17.3173 109.337 17.456C109.103 17.5947 108.927 17.7973 108.809 18.064C108.703 18.3307 108.628 18.608 108.585 18.896C108.553 19.184 108.537 19.5307 108.537 19.936C108.537 20.3413 108.553 20.688 108.585 20.976C108.628 21.264 108.703 21.5467 108.809 21.824C108.927 22.0907 109.103 22.2933 109.337 22.432C109.583 22.5707 109.881 22.64 110.233 22.64C110.585 22.64 110.879 22.5707 111.113 22.432C111.348 22.2933 111.519 22.0907 111.625 21.824C111.743 21.5467 111.817 21.264 111.849 20.976ZM122.133 19.936C122.133 20.6827 122.064 21.3067 121.925 21.808C121.786 22.3093 121.536 22.752 121.173 23.136C120.554 23.776 119.744 24.096 118.741 24.096C117.749 24.096 116.944 23.776 116.325 23.136C115.962 22.752 115.712 22.3093 115.573 21.808C115.434 21.3067 115.365 20.6827 115.365 19.936C115.365 19.2 115.434 18.5813 115.573 18.08C115.712 17.568 115.962 17.1253 116.325 16.752C116.944 16.112 117.749 15.792 118.741 15.792C119.744 15.792 120.554 16.112 121.173 16.752C121.536 17.1253 121.786 17.568 121.925 18.08C122.064 18.5813 122.133 19.2 122.133 19.936ZM119.941 22.16C120.314 21.7867 120.501 21.0453 120.501 19.936C120.501 18.8267 120.314 18.0853 119.941 17.712C119.632 17.4027 119.232 17.248 118.741 17.248C118.261 17.248 117.866 17.4027 117.557 17.712C117.184 18.0853 116.997 18.8267 116.997 19.936C116.997 21.0453 117.184 21.7867 117.557 22.16C117.877 22.48 118.272 22.64 118.741 22.64C119.221 22.64 119.621 22.48 119.941 22.16ZM130.839 24H129.207V17.312H125.975V24H124.343V15.888H130.839V24ZM139.408 15.888L135.824 25.616C135.44 26.6827 134.688 27.216 133.568 27.216H132.912V25.744H133.328C133.67 25.744 133.92 25.6853 134.08 25.568C134.24 25.4613 134.379 25.2373 134.496 24.896L134.944 23.616L132.096 15.888H133.84L135.776 21.616L137.664 15.888H139.408ZM146.527 22.944C145.802 23.712 144.911 24.096 143.855 24.096C143.375 24.096 142.927 24.0213 142.511 23.872C142.095 23.712 141.711 23.4773 141.359 23.168C141.018 22.848 140.746 22.416 140.543 21.872C140.341 21.3173 140.239 20.672 140.239 19.936C140.239 19.2 140.341 18.56 140.543 18.016C140.746 17.4613 141.018 17.0293 141.359 16.72C141.711 16.4 142.095 16.1653 142.511 16.016C142.927 15.8667 143.375 15.792 143.855 15.792C144.922 15.792 145.813 16.1707 146.527 16.928L145.407 18.016C145.151 17.7387 144.906 17.5413 144.671 17.424C144.447 17.3067 144.175 17.248 143.855 17.248C143.215 17.248 142.714 17.488 142.351 17.968C142.031 18.3733 141.871 19.0293 141.871 19.936C141.871 20.8533 142.031 21.5147 142.351 21.92C142.714 22.4 143.215 22.64 143.855 22.64C144.175 22.64 144.447 22.5813 144.671 22.464C144.906 22.3467 145.151 22.1493 145.407 21.872L146.527 22.944ZM150.101 24H148.453V15.888H150.101V24ZM155.397 24H153.397L150.117 19.776L153.205 15.888H155.157L151.925 19.696L155.397 24Z" fill="white"/>
</svg>
