<svg width="210" height="36" viewBox="0 0 210 36" fill="none" xmlns="http://www.w3.org/2000/svg">
<rect width="210" height="36" fill="#323E48"/>
<path d="M33.552 24H31.824V14.16H27.216V24H25.488V12.608H33.552V24ZM42.7269 19.936C42.7269 20.6827 42.6575 21.3067 42.5189 21.808C42.3802 22.3093 42.1295 22.752 41.7669 23.136C41.1482 23.776 40.3375 24.096 39.3349 24.096C38.3429 24.096 37.5375 23.776 36.9189 23.136C36.5562 22.752 36.3055 22.3093 36.1669 21.808C36.0282 21.3067 35.9589 20.6827 35.9589 19.936C35.9589 19.2 36.0282 18.5813 36.1669 18.08C36.3055 17.568 36.5562 17.1253 36.9189 16.752C37.5375 16.112 38.3429 15.792 39.3349 15.792C40.3375 15.792 41.1482 16.112 41.7669 16.752C42.1295 17.1253 42.3802 17.568 42.5189 18.08C42.6575 18.5813 42.7269 19.2 42.7269 19.936ZM40.5349 22.16C40.9082 21.7867 41.0949 21.0453 41.0949 19.936C41.0949 18.8267 40.9082 18.0853 40.5349 17.712C40.2255 17.4027 39.8255 17.248 39.3349 17.248C38.8549 17.248 38.4602 17.4027 38.1509 17.712C37.7775 18.0853 37.5909 18.8267 37.5909 19.936C37.5909 21.0453 37.7775 21.7867 38.1509 22.16C38.4709 22.48 38.8655 22.64 39.3349 22.64C39.8149 22.64 40.2149 22.48 40.5349 22.16ZM51.3206 19.936C51.3206 20.6827 51.2513 21.3067 51.1126 21.808C50.974 22.3093 50.7233 22.752 50.3606 23.136C49.742 23.776 48.9313 24.096 47.9286 24.096C46.9366 24.096 46.1313 23.776 45.5126 23.136C45.15 22.752 44.8993 22.3093 44.7606 21.808C44.622 21.3067 44.5526 20.6827 44.5526 19.936C44.5526 19.2 44.622 18.5813 44.7606 18.08C44.8993 17.568 45.15 17.1253 45.5126 16.752C46.1313 16.112 46.9366 15.792 47.9286 15.792C48.9313 15.792 49.742 16.112 50.3606 16.752C50.7233 17.1253 50.974 17.568 51.1126 18.08C51.2513 18.5813 51.3206 19.2 51.3206 19.936ZM49.1286 22.16C49.502 21.7867 49.6886 21.0453 49.6886 19.936C49.6886 18.8267 49.502 18.0853 49.1286 17.712C48.8193 17.4027 48.4193 17.248 47.9286 17.248C47.4486 17.248 47.054 17.4027 46.7446 17.712C46.3713 18.0853 46.1846 18.8267 46.1846 19.936C46.1846 21.0453 46.3713 21.7867 46.7446 22.16C47.0646 22.48 47.4593 22.64 47.9286 22.64C48.4086 22.64 48.8086 22.48 49.1286 22.16ZM56.6664 22.624C57.1784 22.624 57.5784 22.464 57.8664 22.144C58.2077 21.7387 58.3784 21.0187 58.3784 19.984C58.3784 18.9067 58.213 18.1813 57.8824 17.808C57.573 17.4667 57.1677 17.296 56.6664 17.296C56.1437 17.296 55.733 17.4667 55.4344 17.808C55.0717 18.224 54.8904 18.9387 54.8904 19.952C54.8904 20.976 55.0824 21.7067 55.4664 22.144C55.7757 22.464 56.1757 22.624 56.6664 22.624ZM56.6824 24.096C55.9997 24.096 55.4024 23.952 54.8904 23.664C54.3784 23.376 53.9997 22.96 53.7544 22.416C53.4344 21.7333 53.2744 20.5387 53.2744 18.832C53.2744 17.0613 53.349 15.8453 53.4984 15.184C53.6477 14.5227 53.9784 13.9733 54.4904 13.536C54.821 13.248 55.253 13.0293 55.7864 12.88C56.3304 12.7307 56.8264 12.64 57.2744 12.608C57.733 12.576 58.4264 12.544 59.3544 12.512V13.952C59.1944 13.9627 58.9064 13.9787 58.4904 14C58.0744 14.0213 57.733 14.0427 57.4664 14.064C57.1997 14.0853 56.8957 14.1387 56.5544 14.224C56.213 14.3093 55.9357 14.4267 55.7224 14.576C55.349 14.8213 55.093 15.1307 54.9544 15.504C54.8157 15.8667 54.7464 16.352 54.7464 16.96C54.917 16.64 55.205 16.384 55.6104 16.192C56.0264 16 56.4797 15.904 56.9704 15.904C57.8024 15.904 58.4637 16.1333 58.9544 16.592C59.6584 17.2533 60.0104 18.3627 60.0104 19.92C60.0104 21.424 59.6797 22.512 59.0184 23.184C58.4317 23.792 57.653 24.096 56.6824 24.096ZM68.6506 20.416H63.3866C63.3866 21.1307 63.5626 21.6907 63.9146 22.096C64.2773 22.4907 64.7893 22.688 65.4506 22.688C65.888 22.688 66.2506 22.624 66.5386 22.496C66.8266 22.368 67.12 22.1547 67.4186 21.856L68.4586 22.832C68.0213 23.2693 67.5733 23.5893 67.1146 23.792C66.6666 23.9947 66.1013 24.096 65.4186 24.096C64.3093 24.096 63.424 23.7653 62.7626 23.104C62.1013 22.4427 61.7706 21.3867 61.7706 19.936C61.7706 18.6347 62.08 17.6213 62.6986 16.896C63.3173 16.16 64.1546 15.792 65.2106 15.792C66.288 15.792 67.1306 16.1493 67.7386 16.864C68.3466 17.5787 68.6506 18.5333 68.6506 19.728V20.416ZM67.0346 19.28C67.0026 18.8 66.928 18.432 66.8106 18.176C66.5013 17.4933 65.968 17.152 65.2106 17.152C64.4426 17.152 63.904 17.4933 63.5946 18.176C63.4666 18.4533 63.3973 18.8213 63.3866 19.28H67.0346ZM72.7871 17.312V18.608C72.7871 20.1547 72.5311 21.4773 72.0191 22.576H75.0751V17.312H72.7871ZM71.2351 15.888H76.7071V22.576H77.8271V26.08H76.2591V24H70.9951V26.08H69.4431V22.576H70.3071C70.6165 21.968 70.8458 21.3333 70.9951 20.672C71.1551 20 71.2351 19.0933 71.2351 17.952V15.888ZM85.5609 24H83.9609V23.264C83.6622 23.5627 83.3475 23.776 83.0169 23.904C82.6969 24.032 82.2915 24.096 81.8009 24.096C80.8409 24.096 80.1155 23.8507 79.6249 23.36C79.1982 22.912 78.9849 22.3307 78.9849 21.616C78.9849 20.912 79.2249 20.3467 79.7049 19.92C80.1955 19.4933 80.8942 19.28 81.8009 19.28H83.9289V18.704C83.9289 18.1813 83.7902 17.7973 83.5129 17.552C83.2355 17.3067 82.7822 17.184 82.1529 17.184C81.7262 17.184 81.3795 17.248 81.1129 17.376C80.8569 17.4933 80.6115 17.696 80.3769 17.984L79.3209 16.976C79.6942 16.5387 80.0942 16.2347 80.5209 16.064C80.9582 15.8827 81.5235 15.792 82.2169 15.792C84.4462 15.792 85.5609 16.72 85.5609 18.576V24ZM83.9289 21.072V20.416H82.0569C81.0649 20.416 80.5689 20.8053 80.5689 21.584C80.5689 22.352 81.0809 22.736 82.1049 22.736C82.7555 22.736 83.2462 22.5813 83.5769 22.272C83.8115 22.048 83.9289 21.648 83.9289 21.072ZM93.489 17.312H91.009V24H89.377V17.312H86.801V15.888H93.489V17.312ZM100.632 19.648C101.123 20.1067 101.368 20.7147 101.368 21.472C101.368 22.2293 101.123 22.8427 100.632 23.312C100.152 23.7707 99.5225 24 98.7439 24H94.9679V15.888H96.5999V18.944H98.7439C99.5225 18.944 100.152 19.1787 100.632 19.648ZM99.4159 22.352C99.6399 22.1387 99.7519 21.8453 99.7519 21.472C99.7519 21.0987 99.6399 20.8107 99.4159 20.608C99.1919 20.3947 98.8772 20.288 98.4719 20.288H96.5999V22.672H98.4719C98.8772 22.672 99.1919 22.5653 99.4159 22.352ZM113.557 21.712C113.557 22.416 113.338 22.976 112.901 23.392C112.464 23.7973 111.866 24 111.109 24H107.093V15.888H110.981C111.728 15.888 112.32 16.0853 112.757 16.48C113.205 16.8747 113.429 17.4027 113.429 18.064C113.429 18.8747 113.05 19.456 112.293 19.808C113.136 20.192 113.557 20.8267 113.557 21.712ZM111.829 18.176C111.829 17.856 111.722 17.6107 111.509 17.44C111.306 17.2587 111.013 17.168 110.629 17.168H108.709V19.216H110.629C111.429 19.216 111.829 18.8693 111.829 18.176ZM111.957 21.6C111.957 21.248 111.845 20.976 111.621 20.784C111.408 20.5813 111.109 20.48 110.725 20.48H108.709V22.72H110.725C111.109 22.72 111.408 22.6187 111.621 22.416C111.845 22.2133 111.957 21.9413 111.957 21.6ZM125.527 22.944C124.802 23.712 123.911 24.096 122.855 24.096C122.375 24.096 121.927 24.0213 121.511 23.872C121.095 23.712 120.711 23.4773 120.359 23.168C120.018 22.848 119.746 22.416 119.543 21.872C119.341 21.3173 119.239 20.672 119.239 19.936C119.239 19.2 119.341 18.56 119.543 18.016C119.746 17.4613 120.018 17.0293 120.359 16.72C120.711 16.4 121.095 16.1653 121.511 16.016C121.927 15.8667 122.375 15.792 122.855 15.792C123.922 15.792 124.813 16.1707 125.527 16.928L124.407 18.016C124.151 17.7387 123.906 17.5413 123.671 17.424C123.447 17.3067 123.175 17.248 122.855 17.248C122.215 17.248 121.714 17.488 121.351 17.968C121.031 18.3733 120.871 19.0293 120.871 19.936C120.871 20.8533 121.031 21.5147 121.351 21.92C121.714 22.4 122.215 22.64 122.855 22.64C123.175 22.64 123.447 22.5813 123.671 22.464C123.906 22.3467 124.151 22.1493 124.407 21.872L125.527 22.944ZM133.067 17.312H130.587V24H128.955V17.312H126.379V15.888H133.067V17.312ZM140.93 19.936C140.93 20.6827 140.861 21.3067 140.722 21.808C140.583 22.3093 140.333 22.752 139.97 23.136C139.351 23.776 138.541 24.096 137.538 24.096C136.546 24.096 135.741 23.776 135.122 23.136C134.759 22.752 134.509 22.3093 134.37 21.808C134.231 21.3067 134.162 20.6827 134.162 19.936C134.162 19.2 134.231 18.5813 134.37 18.08C134.509 17.568 134.759 17.1253 135.122 16.752C135.741 16.112 136.546 15.792 137.538 15.792C138.541 15.792 139.351 16.112 139.97 16.752C140.333 17.1253 140.583 17.568 140.722 18.08C140.861 18.5813 140.93 19.2 140.93 19.936ZM138.738 22.16C139.111 21.7867 139.298 21.0453 139.298 19.936C139.298 18.8267 139.111 18.0853 138.738 17.712C138.429 17.4027 138.029 17.248 137.538 17.248C137.058 17.248 136.663 17.4027 136.354 17.712C135.981 18.0853 135.794 18.8267 135.794 19.936C135.794 21.0453 135.981 21.7867 136.354 22.16C136.674 22.48 137.069 22.64 137.538 22.64C138.018 22.64 138.418 22.48 138.738 22.16ZM149.115 24H147.483V17.312H145.131V19.664C145.131 20.5067 145.073 21.216 144.955 21.792C144.838 22.368 144.662 22.816 144.427 23.136C144.193 23.4453 143.921 23.6693 143.611 23.808C143.313 23.936 142.955 24 142.539 24H141.771V22.56H142.027C142.198 22.56 142.342 22.5493 142.459 22.528C142.577 22.496 142.71 22.4213 142.859 22.304C143.019 22.176 143.142 22.0053 143.227 21.792C143.323 21.568 143.403 21.2427 143.467 20.816C143.531 20.3787 143.563 19.8613 143.563 19.264V15.888H149.115V24ZM158.102 19.936C158.102 20.6827 158.033 21.3067 157.894 21.808C157.755 22.3093 157.505 22.752 157.142 23.136C156.523 23.776 155.713 24.096 154.71 24.096C153.718 24.096 152.913 23.776 152.294 23.136C151.931 22.752 151.681 22.3093 151.542 21.808C151.403 21.3067 151.334 20.6827 151.334 19.936C151.334 19.2 151.403 18.5813 151.542 18.08C151.681 17.568 151.931 17.1253 152.294 16.752C152.913 16.112 153.718 15.792 154.71 15.792C155.713 15.792 156.523 16.112 157.142 16.752C157.505 17.1253 157.755 17.568 157.894 18.08C158.033 18.5813 158.102 19.2 158.102 19.936ZM155.91 22.16C156.283 21.7867 156.47 21.0453 156.47 19.936C156.47 18.8267 156.283 18.0853 155.91 17.712C155.601 17.4027 155.201 17.248 154.71 17.248C154.23 17.248 153.835 17.4027 153.526 17.712C153.153 18.0853 152.966 18.8267 152.966 19.936C152.966 21.0453 153.153 21.7867 153.526 22.16C153.846 22.48 154.241 22.64 154.71 22.64C155.19 22.64 155.59 22.48 155.91 22.16ZM166.776 21.712C166.776 22.416 166.557 22.976 166.12 23.392C165.682 23.7973 165.085 24 164.328 24H160.312V15.888H164.2C164.946 15.888 165.538 16.0853 165.976 16.48C166.424 16.8747 166.648 17.4027 166.648 18.064C166.648 18.8747 166.269 19.456 165.512 19.808C166.354 20.192 166.776 20.8267 166.776 21.712ZM165.048 18.176C165.048 17.856 164.941 17.6107 164.728 17.44C164.525 17.2587 164.232 17.168 163.848 17.168H161.928V19.216H163.848C164.648 19.216 165.048 18.8693 165.048 18.176ZM165.176 21.6C165.176 21.248 165.064 20.976 164.84 20.784C164.626 20.5813 164.328 20.48 163.944 20.48H161.928V22.72H163.944C164.328 22.72 164.626 22.6187 164.84 22.416C165.064 22.2133 165.176 21.9413 165.176 21.6ZM175.336 19.936C175.336 20.6827 175.267 21.3067 175.128 21.808C174.99 22.3093 174.739 22.752 174.376 23.136C173.758 23.776 172.947 24.096 171.944 24.096C170.952 24.096 170.147 23.776 169.528 23.136C169.166 22.752 168.915 22.3093 168.776 21.808C168.638 21.3067 168.568 20.6827 168.568 19.936C168.568 19.2 168.638 18.5813 168.776 18.08C168.915 17.568 169.166 17.1253 169.528 16.752C170.147 16.112 170.952 15.792 171.944 15.792C172.947 15.792 173.758 16.112 174.376 16.752C174.739 17.1253 174.99 17.568 175.128 18.08C175.267 18.5813 175.336 19.2 175.336 19.936ZM173.144 22.16C173.518 21.7867 173.704 21.0453 173.704 19.936C173.704 18.8267 173.518 18.0853 173.144 17.712C172.835 17.4027 172.435 17.248 171.944 17.248C171.464 17.248 171.07 17.4027 170.76 17.712C170.387 18.0853 170.2 18.8267 170.2 19.936C170.2 21.0453 170.387 21.7867 170.76 22.16C171.08 22.48 171.475 22.64 171.944 22.64C172.424 22.64 172.824 22.48 173.144 22.16ZM183.386 12.592C183.354 13.3387 183.109 13.888 182.65 14.24C182.202 14.5813 181.626 14.752 180.922 14.752C180.218 14.752 179.642 14.5813 179.194 14.24C178.746 13.888 178.501 13.3387 178.458 12.592H179.754C179.818 13.3173 180.207 13.68 180.922 13.68C181.637 13.68 182.026 13.3173 182.09 12.592H183.386ZM184.282 24H182.65V18.416L179.178 24H177.546V15.888H179.178V21.392L182.65 15.888H184.282V24Z" fill="white"/>
</svg>
