<svg width="117" height="36" viewBox="0 0 117 36" fill="none" xmlns="http://www.w3.org/2000/svg">
<rect width="117" height="36" fill="#323E48"/>
<path d="M33.232 20.592C33.04 21.7013 32.576 22.5653 31.84 23.184C31.1147 23.792 30.224 24.096 29.168 24.096C27.9733 24.096 26.992 23.712 26.224 22.944C25.712 22.4213 25.392 21.856 25.264 21.248C25.136 20.6293 25.072 19.648 25.072 18.304C25.072 16.96 25.136 15.984 25.264 15.376C25.392 14.7573 25.712 14.1867 26.224 13.664C26.992 12.896 27.9733 12.512 29.168 12.512C30.2347 12.512 31.1253 12.8213 31.84 13.44C32.5653 14.048 33.0293 14.9067 33.232 16.016H31.472C31.344 15.408 31.0827 14.928 30.688 14.576C30.2933 14.224 29.7867 14.048 29.168 14.048C28.4853 14.048 27.9253 14.2827 27.488 14.752C27.2 15.0507 27.0133 15.4347 26.928 15.904C26.8427 16.3627 26.8 17.1627 26.8 18.304C26.8 19.4453 26.8427 20.2507 26.928 20.72C27.0133 21.1787 27.2 21.5573 27.488 21.856C27.9253 22.3253 28.4853 22.56 29.168 22.56C29.7867 22.56 30.2933 22.384 30.688 22.032C31.0933 21.68 31.3653 21.2 31.504 20.592H33.232ZM40.8328 17.312H38.3528V24H36.7208V17.312H34.1448V15.888H40.8328V17.312ZM48.6956 19.936C48.6956 20.6827 48.6263 21.3067 48.4876 21.808C48.349 22.3093 48.0983 22.752 47.7356 23.136C47.117 23.776 46.3063 24.096 45.3036 24.096C44.3116 24.096 43.5063 23.776 42.8876 23.136C42.525 22.752 42.2743 22.3093 42.1356 21.808C41.997 21.3067 41.9276 20.6827 41.9276 19.936C41.9276 19.2 41.997 18.5813 42.1356 18.08C42.2743 17.568 42.525 17.1253 42.8876 16.752C43.5063 16.112 44.3116 15.792 45.3036 15.792C46.3063 15.792 47.117 16.112 47.7356 16.752C48.0983 17.1253 48.349 17.568 48.4876 18.08C48.6263 18.5813 48.6956 19.2 48.6956 19.936ZM46.5036 22.16C46.877 21.7867 47.0636 21.0453 47.0636 19.936C47.0636 18.8267 46.877 18.0853 46.5036 17.712C46.1943 17.4027 45.7943 17.248 45.3036 17.248C44.8236 17.248 44.429 17.4027 44.1196 17.712C43.7463 18.0853 43.5596 18.8267 43.5596 19.936C43.5596 21.0453 43.7463 21.7867 44.1196 22.16C44.4396 22.48 44.8343 22.64 45.3036 22.64C45.7836 22.64 46.1836 22.48 46.5036 22.16ZM56.8809 24H55.2489V17.312H52.8969V19.664C52.8969 20.5067 52.8382 21.216 52.7209 21.792C52.6035 22.368 52.4275 22.816 52.1929 23.136C51.9582 23.4453 51.6862 23.6693 51.3769 23.808C51.0782 23.936 50.7209 24 50.3049 24H49.5369V22.56H49.7929C49.9635 22.56 50.1075 22.5493 50.2249 22.528C50.3422 22.496 50.4755 22.4213 50.6249 22.304C50.7849 22.176 50.9075 22.0053 50.9929 21.792C51.0889 21.568 51.1689 21.2427 51.2329 20.816C51.2969 20.3787 51.3289 19.8613 51.3289 19.264V15.888H56.8809V24ZM65.8675 19.936C65.8675 20.6827 65.7982 21.3067 65.6595 21.808C65.5208 22.3093 65.2702 22.752 64.9075 23.136C64.2888 23.776 63.4782 24.096 62.4755 24.096C61.4835 24.096 60.6782 23.776 60.0595 23.136C59.6968 22.752 59.4462 22.3093 59.3075 21.808C59.1688 21.3067 59.0995 20.6827 59.0995 19.936C59.0995 19.2 59.1688 18.5813 59.3075 18.08C59.4462 17.568 59.6968 17.1253 60.0595 16.752C60.6782 16.112 61.4835 15.792 62.4755 15.792C63.4782 15.792 64.2888 16.112 64.9075 16.752C65.2702 17.1253 65.5208 17.568 65.6595 18.08C65.7982 18.5813 65.8675 19.2 65.8675 19.936ZM63.6755 22.16C64.0488 21.7867 64.2355 21.0453 64.2355 19.936C64.2355 18.8267 64.0488 18.0853 63.6755 17.712C63.3662 17.4027 62.9662 17.248 62.4755 17.248C61.9955 17.248 61.6008 17.4027 61.2915 17.712C60.9182 18.0853 60.7315 18.8267 60.7315 19.936C60.7315 21.0453 60.9182 21.7867 61.2915 22.16C61.6115 22.48 62.0062 22.64 62.4755 22.64C62.9555 22.64 63.3555 22.48 63.6755 22.16ZM74.5413 21.712C74.5413 22.416 74.3226 22.976 73.8853 23.392C73.4479 23.7973 72.8506 24 72.0933 24H68.0773V15.888H71.9653C72.7119 15.888 73.3039 16.0853 73.7413 16.48C74.1893 16.8747 74.4133 17.4027 74.4133 18.064C74.4133 18.8747 74.0346 19.456 73.2773 19.808C74.1199 20.192 74.5413 20.8267 74.5413 21.712ZM72.8133 18.176C72.8133 17.856 72.7066 17.6107 72.4933 17.44C72.2906 17.2587 71.9973 17.168 71.6133 17.168H69.6933V19.216H71.6133C72.4133 19.216 72.8133 18.8693 72.8133 18.176ZM72.9413 21.6C72.9413 21.248 72.8293 20.976 72.6053 20.784C72.3919 20.5813 72.0933 20.48 71.7093 20.48H69.6933V22.72H71.7093C72.0933 22.72 72.3919 22.6187 72.6053 22.416C72.8293 22.2133 72.9413 21.9413 72.9413 21.6ZM82.764 24H81.164V23.264C80.8653 23.5627 80.5507 23.776 80.22 23.904C79.9 24.032 79.4947 24.096 79.004 24.096C78.044 24.096 77.3187 23.8507 76.828 23.36C76.4013 22.912 76.188 22.3307 76.188 21.616C76.188 20.912 76.428 20.3467 76.908 19.92C77.3987 19.4933 78.0973 19.28 79.004 19.28H81.132V18.704C81.132 18.1813 80.9933 17.7973 80.716 17.552C80.4387 17.3067 79.9853 17.184 79.356 17.184C78.9293 17.184 78.5827 17.248 78.316 17.376C78.06 17.4933 77.8147 17.696 77.58 17.984L76.524 16.976C76.8973 16.5387 77.2973 16.2347 77.724 16.064C78.1613 15.8827 78.7267 15.792 79.42 15.792C81.6493 15.792 82.764 16.72 82.764 18.576V24ZM81.132 21.072V20.416H79.26C78.268 20.416 77.772 20.8053 77.772 21.584C77.772 22.352 78.284 22.736 79.308 22.736C79.9587 22.736 80.4493 22.5813 80.78 22.272C81.0147 22.048 81.132 21.648 81.132 21.072ZM89.5684 19.664V17.2H87.6644C87.2484 17.2 86.923 17.312 86.6884 17.536C86.4537 17.76 86.3364 18.064 86.3364 18.448C86.3364 18.832 86.4537 19.1307 86.6884 19.344C86.923 19.5573 87.2484 19.664 87.6644 19.664H89.5684ZM86.5284 24H84.6564L86.4164 20.672C85.8937 20.5227 85.483 20.2453 85.1844 19.84C84.8857 19.4347 84.7364 18.944 84.7364 18.368C84.7364 17.632 84.9764 17.0347 85.4564 16.576C85.947 16.1173 86.5817 15.888 87.3604 15.888H91.1844V24H89.5524V20.976H88.0644L86.5284 24Z" fill="white"/>
</svg>
