<svg width="20" height="20" viewBox="0 0 20 20" fill="none" xmlns="http://www.w3.org/2000/svg">
<g clip-path="url(#clip0_2_253)">
<path d="M13.0693 0H6.92989C1.32739 0 -0.000732422 1.32812 -0.000732422 6.93062V13.07C-0.000732422 18.6725 1.32739 20.0006 6.92989 20.0006H13.0693C18.6718 20.0006 19.9999 18.6725 19.9999 13.07V6.93062C19.9999 1.32812 18.6586 0 13.0693 0ZM16.1455 14.2675H14.6936C14.1436 14.2675 13.9743 13.8312 12.9849 12.8287C12.1255 11.9956 11.7449 11.885 11.533 11.885C11.2336 11.885 11.1486 11.9694 11.1486 12.38V13.6919C11.1486 14.0437 11.038 14.255 10.1068 14.255C8.56677 14.255 6.85802 13.3237 5.65989 11.5887C3.85302 9.04625 3.35864 7.14187 3.35864 6.74813C3.35864 6.53625 3.44302 6.33812 3.84989 6.33812H5.30489C5.67302 6.33812 5.81302 6.5075 5.95614 6.90125C6.67552 8.97812 7.87364 10.7975 8.36802 10.7975C8.55052 10.7975 8.63489 10.7131 8.63489 10.2475V8.1025C8.57927 7.11312 8.05864 7.02812 8.05864 6.67687C8.05864 6.5075 8.19864 6.33812 8.42302 6.33812H10.7111C11.0205 6.33812 11.1343 6.5075 11.1343 6.87187V9.76562C11.1343 10.0781 11.2743 10.1888 11.3586 10.1888C11.5411 10.1888 11.6974 10.0781 12.0355 9.73938C13.0805 8.5675 13.8293 6.76063 13.8293 6.76063C13.9268 6.54875 14.0961 6.35063 14.4643 6.35063H15.9193C16.3555 6.35063 16.453 6.575 16.3555 6.8875C16.173 7.73375 14.3924 10.2469 14.3924 10.2469C14.2393 10.5006 14.1805 10.6112 14.3924 10.8944C14.5486 11.1062 15.0568 11.5456 15.3949 11.9394C16.0168 12.6456 16.4949 13.2381 16.6224 13.6481C16.7655 14.055 16.5543 14.2669 16.1436 14.2669L16.1455 14.2675Z" fill="#44A1A0"/>
</g>
<defs>
<clipPath id="clip0_2_253">
<rect width="20" height="20" fill="white"/>
</clipPath>
</defs>
</svg>
