<svg xmlns="http://www.w3.org/2000/svg" viewBox="0 0 141.73 25.77"><defs><style>.cls-1,.cls-3{fill:#41566d;}.cls-2,.cls-3{opacity:0.5;}</style></defs><g id="Слой_2" data-name="Слой 2"><g id="Слой_1-2" data-name="Слой 1"><path class="cls-1" d="M64,17.05a5.6,5.6,0,0,0-5.67-5.54H46.73V5.88H62.31V3H44V5.88h0V22.74H58.31A5.63,5.63,0,0,0,64,17.05Zm-5.7,2.84H46.73V14.21H58.31a2.84,2.84,0,0,1,0,5.68Z"/><path class="cls-1" d="M32.31,3H20.79V5.86H32.31a7,7,0,0,1,6.85,5.64H24.09v2.71H39.17a7,7,0,0,1-6.86,5.68H20.79v2.85H32.31a9.87,9.87,0,0,0,9.83-9.85A9.85,9.85,0,0,0,32.31,3Z"/><path class="cls-1" d="M17.31,12.63A5.66,5.66,0,0,0,13.23,3V5.88a2.81,2.81,0,0,1,0,5.62H2.7V5.88H13.23V3H0V22.74H13.74a5.68,5.68,0,0,0,3.57-10.11Zm-3.57,7.26H2.7V14.21h11a2.84,2.84,0,1,1,0,5.68Z"/><g class="cls-2"><path class="cls-1" d="M78,22.71h3V19.66h21.66V3H78ZM81,5.89H99.73V16.78H81Z"/><path class="cls-1" d="M105.46,3V19.66h16.69v3.05H125V19.66h16.69V3Zm16.69,13.78h-13.8V5.89h13.8Zm16.69,0H125V5.89h13.8Z"/></g><rect class="cls-3" x="69.45" width="2.95" height="25.77"/></g></g></svg>