<svg width="358" height="764" viewBox="0 0 358 764" fill="none" xmlns="http://www.w3.org/2000/svg">
<circle cx="7.897" cy="347.938" r="3.69619" transform="rotate(-90 7.897 347.938)" stroke="#E9E9E9" stroke-width="1.00805"/>
<circle cx="34.7783" cy="144.984" r="3.69619" transform="rotate(-90 34.7783 144.984)" stroke="#E9E9E9" stroke-width="1.00805"/>
<circle cx="61.6597" cy="129.863" r="3.69619" transform="rotate(-90 61.6597 129.863)" stroke="#E9E9E9" stroke-width="1.00805"/>
<circle cx="88.541" cy="244.109" r="3.69619" transform="rotate(-90 88.541 244.109)" stroke="#E9E9E9" stroke-width="1.00805"/>
<circle cx="251.174" cy="81.8122" r="3.69619" transform="rotate(-90 251.174 81.8122)" stroke="#E9E9E9" stroke-width="1.00805"/>
<circle cx="123.823" cy="116.422" r="3.69619" transform="rotate(-90 123.823 116.422)" stroke="#E9E9E9" stroke-width="1.00805"/>
<circle cx="283.768" cy="54.9309" r="3.69619" transform="rotate(-90 283.768 54.9309)" stroke="#E9E9E9" stroke-width="1.00805"/>
<circle cx="318.713" cy="28.0495" r="3.69619" transform="rotate(-90 318.713 28.0495)" stroke="#E9E9E9" stroke-width="1.00805"/>
<circle cx="352.987" cy="244.109" r="3.69619" transform="rotate(-90 352.987 244.109)" stroke="#E9E9E9" stroke-width="1.00805"/>
<path d="M8.06445 343.738L8.06446 3.6881C8.06446 2.20348 9.26798 0.999955 10.7526 0.999955L350.466 0.999959C351.951 0.999959 353.155 2.20348 353.155 3.6881L353.155 239.909M121.134 113.902L8.9045 1.83774M314.513 27.8814L37.634 27.8814C36.1494 27.8814 34.9459 29.0849 34.9459 30.5695L34.9459 141.287M61.8273 126.335L61.8273 57.4509C61.8273 55.9663 63.0308 54.7628 64.5154 54.7628L279.567 54.7628M88.7087 239.909L88.7087 84.3324C88.7087 82.8477 89.9122 81.6442 91.3968 81.6442L246.973 81.6442" stroke="#E9E9E9" stroke-width="1.00805"/>
<circle cx="353.322" cy="609.159" r="3.69619" transform="rotate(90 353.322 609.159)" stroke="#E9E9E9" stroke-width="1.00805"/>
<circle cx="326.441" cy="626.295" r="3.69619" transform="rotate(90 326.441 626.295)" stroke="#E9E9E9" stroke-width="1.00805"/>
<circle cx="299.56" cy="483.824" r="3.69619" transform="rotate(90 299.56 483.824)" stroke="#E9E9E9" stroke-width="1.00805"/>
<circle cx="272.678" cy="516.418" r="3.69619" transform="rotate(90 272.678 516.418)" stroke="#E9E9E9" stroke-width="1.00805"/>
<circle cx="110.046" cy="678.715" r="3.69619" transform="rotate(90 110.046 678.715)" stroke="#E9E9E9" stroke-width="1.00805"/>
<circle cx="253.525" cy="660.233" r="3.69619" transform="rotate(90 253.525 660.233)" stroke="#E9E9E9" stroke-width="1.00805"/>
<circle cx="77.4521" cy="705.596" r="3.69619" transform="rotate(90 77.4521 705.596)" stroke="#E9E9E9" stroke-width="1.00805"/>
<circle cx="42.5058" cy="732.477" r="3.69619" transform="rotate(90 42.5058 732.477)" stroke="#E9E9E9" stroke-width="1.00805"/>
<circle cx="4.19968" cy="759.358" r="3.69619" transform="rotate(90 4.19968 759.358)" stroke="#E9E9E9" stroke-width="1.00805"/>
<path d="M353.154 613.023L353.154 756.839C353.154 758.323 351.951 759.527 350.466 759.527L8.06412 759.527M256.213 662.754L352.314 758.689M46.7062 732.645L323.585 732.645C325.069 732.645 326.273 731.442 326.273 729.957L326.273 630.496M299.391 488.024L299.391 703.076C299.391 704.56 298.188 705.764 296.703 705.764L81.652 705.764M272.51 520.618L272.51 676.194C272.51 677.679 271.307 678.882 269.822 678.882L114.246 678.882" stroke="#E9E9E9" stroke-width="1.00805"/>
</svg>
